<?xml version="1.0" encoding="utf-8"?>
<!-- Generator: Adobe Illustrator 24.0.2, SVG Export Plug-In . SVG Version: 6.00 Build 0)  -->
<svg version="1.1" id="Layer_1" xmlns="http://www.w3.org/2000/svg" xmlns:xlink="http://www.w3.org/1999/xlink" x="0px" y="0px"
	 viewBox="0 0 133.72 75.16" style="enable-background:new 0 0 133.72 75.16;" xml:space="preserve">
<style type="text/css">
	.st0{fill:#FFFFFF;}
</style>
<g>
	<g>
		<g>
			<path d="M15.88,53.19c0.01-0.01,0.31-0.3,0.33-0.32c-0.04,0.03-0.32,0.22-0.37,0.26c-0.06,0.05-0.28,0.28-0.32,0.32
				c-0.04,0.04-0.32,0.32-0.32,0.32c0.01,0.01,0.34-0.25,0.37-0.26c0.12-0.1,0.26-0.16,0.38-0.26c0.04-0.04,0.3-0.29,0.32-0.32
				C16.23,52.95,15.89,53.18,15.88,53.19z"/>
			<path d="M1.6,74.95c0.24-0.2,0.26-0.44,0.18-0.5l-0.34,0.38L1.6,74.95z"/>
			<path d="M0.73,75.16c0.21-0.27,0.23-0.32,0.26-0.45l-0.36,0.37L0.73,75.16z"/>
			<path d="M0.55,71.77L0.35,71.9l-0.04,0.27C0.38,72.2,0.52,71.88,0.55,71.77z"/>
			<path d="M4.09,73.24c0.2-0.34,0.2-0.28,0.28-0.59l-0.21,0.18L4.09,73.24z"/>
			<path d="M0.1,74.64c0.3-0.36,0-0.28-0.04-0.3C0.02,74.5-0.07,74.71,0.1,74.64z"/>
			<path d="M1.28,73.9l-0.55,0.5c-0.14,0.05-0.27,0.09-0.23,0.17l0.14-0.05C0.71,74.62,1.05,74.15,1.28,73.9z"/>
			<path d="M51.26,30.59c0,0-0.05,0.03-0.1,0.06c0.27,0.04,0.7-0.18,1.21-0.56c-0.12,0.05-0.28,0.11-0.3,0.11
				c-0.02,0,0.22-0.13,0.33-0.2l-0.01-0.02c-0.11,0.04-0.33,0.14-0.36,0.14c-0.15,0.08-0.23,0.16-0.39,0.24
				c-0.11,0.05-0.31,0.1-0.43,0.16c-0.04,0.02-0.11,0.06-0.18,0.1c0.02,0.01,0.04,0.02,0.06,0.03
				C51.18,30.62,51.26,30.59,51.26,30.59z"/>
			<path d="M79.2,19.19c0.06-0.01,0.4-0.08,0.45-0.09c0.05-0.02,0.41-0.18,0.41-0.18s-0.39,0.08-0.45,0.09
				c-0.11,0.03-0.33,0.05-0.44,0.09c-0.08,0.02-0.36,0.16-0.41,0.19c-0.06,0.03-0.41,0.19-0.41,0.19c0.01,0.02,0.41-0.11,0.44-0.1
				C78.93,19.32,79.06,19.23,79.2,19.19z"/>
			<path d="M31.17,50.67c-0.11,0.09-0.22,0.18-0.33,0.27c-0.05,0.04-0.33,0.27-0.33,0.27s0.34-0.18,0.39-0.21
				c0.02-0.01,0.3-0.24,0.33-0.27c0.09-0.07,0.29-0.15,0.39-0.21c0.12-0.08,0.21-0.19,0.33-0.27c-0.13,0.07-0.26,0.14-0.39,0.21
				C31.51,50.49,31.17,50.67,31.17,50.67z"/>
			<path d="M63.01,25.42c0,0-0.41,0.13-0.43,0.13c-0.14,0.06-0.26,0.16-0.4,0.22c0.02-0.01,0.43-0.13,0.43-0.13
				S63,25.43,63.01,25.42z"/>
			<path d="M27.36,53.51c0.12-0.09,0.2-0.19,0.32-0.28c-0.02,0.01-0.38,0.22-0.38,0.22c-0.01,0.01-0.32,0.28-0.32,0.28
				S27.34,53.52,27.36,53.51z"/>
			<path d="M130.97,11.79c-0.03-0.03-0.08-0.05-0.12-0.07c-0.04,0-0.08,0-0.12,0c0.07,0.04,0.11,0.09,0.11,0.17L130.97,11.79z"/>
			<path d="M128.65,11.04l0.06-0.01c0.07-0.02,0.14-0.02,0.2-0.03c-0.01-0.01-0.01-0.03,0.01-0.06c-0.14-0.03-0.31-0.04-0.48-0.04
				L128.65,11.04z"/>
			<path d="M131.72,13.21l-0.06-0.21c-0.62,0.06-0.59,0.17-0.77,0.3L131.72,13.21z"/>
			<polygon points="129.57,14.78 129.71,14.78 129.89,14.66 129.55,14.67 			"/>
			<path d="M130.26,11.43l-0.19-0.07c-0.06,0.02-0.32,0.12-0.13,0.19L130.26,11.43z"/>
			<polygon points="129.96,14.51 130.34,14.54 130.19,14.42 			"/>
			<path d="M130.25,14.27l0.15,0c-0.35-0.21,0.6-0.31,0.32-0.48C130.19,13.74,130.12,14.11,130.25,14.27z"/>
			<path d="M130.14,12.65l0.25-0.14c-0.1,0.01-0.3,0.08-0.31,0.14L130.14,12.65z"/>
			<path d="M130.64,13.43c0.14,0.12,0.22,0.09,0.35,0.11l-0.19-0.16L130.64,13.43z"/>
			<path d="M132.1,12.14l-0.25-0.09c-0.09,0.03-0.43,0.16-0.18,0.25L132.1,12.14z"/>
			<path d="M128.58,10.57c-0.17-0.02-0.4,0.02-0.6,0.08c0.22-0.01,0.44-0.03,0.66-0.05C128.6,10.6,128.58,10.59,128.58,10.57z"/>
			<polygon points="131.33,14.78 131.33,14.78 131.33,14.77 			"/>
			<path d="M130.53,12.3c0.11,0.09,0.22,0.18,0.23,0.08l-0.11-0.09c0-0.16-0.44-0.1-0.7-0.11L130.53,12.3z"/>
			<path d="M127.42,10.69c0.03-0.04-0.06-0.22-0.28-0.19C127.15,10.59,127.3,10.69,127.42,10.69z"/>
			<path d="M128.82,13.41c-0.02,0.04,0.13,0.21,0.33,0.17C129.12,13.49,128.94,13.4,128.82,13.41z"/>
			<path d="M124.47,11.2l0.56-0.18C124.59,10.84,124.44,10.93,124.47,11.2z"/>
			<path d="M68.52,23.1c-0.57,0.27-0.51,0.35-0.65,0.51l0.76-0.36L68.52,23.1z"/>
			<path d="M72.3,21.91c-0.39-0.05,0.5-0.46,0.18-0.5c-0.53,0.14-0.49,0.45-0.33,0.55L72.3,21.91z"/>
			<path d="M69.44,22.48c0.02-0.04-0.12-0.16-0.31-0.07C69.16,22.48,69.33,22.52,69.44,22.48z"/>
			<path d="M60.26,26.72c-0.12,0-0.37,0.07-0.45,0.14C59.84,26.88,60.14,26.84,60.26,26.72z"/>
			<path d="M0.54,74.33l0.58-0.87l0.12,0.18c0.85-0.64-0.24,0.75,0.11,0.76c0.2-0.11,0.47-0.2,0.75-0.29
				c0.25-0.26,0.22,0.1,0.56-0.32l0.2-0.42L2.81,73.4l-0.07,0.13l0.03-0.11c-0.38,0.2-0.67,0.28-0.04-0.45
				c0.2-0.11-0.14,0.31,0.03,0.26c0.04-0.05,0.07-0.08,0.09-0.11l0.02-0.07c0,0.01,0.01,0.01,0.02,0.01
				c0.05-0.08,0.06-0.13,0.06-0.18l0,0C3,72.87,3.07,72.83,3.13,72.8c-0.01,0.04,0,0.05,0,0.07c0.06-0.05,0.09-0.06,0.05,0.03
				c0.06,0,0.17-0.04,0.29-0.13l-0.09,0.12l-0.01,0.02c-0.02,0.01-0.04,0.02-0.05,0.03c-0.09,0.05-0.17,0.09-0.25,0.13l-0.02,0.02
				c0.07,0.02,0.16,0.02,0.25,0.01l-0.06,0.15l-0.12,0.17l0.05,0.16l0.21-0.29l-0.09-0.15c0.01-0.02,0.01-0.03,0.02-0.04l0.13,0
				c0.09-0.05,0.19-0.11,0.29-0.18l-0.1,0.2l0.19-0.15l0.03-0.13c0.07-0.05,0.15-0.09,0.22-0.13l0.25-0.16
				c-0.03,0.01-0.06,0.03-0.09,0.03l-0.05-0.12c0.26-0.29,0.7-0.63,0.65-0.35c-0.07,0.12-0.17,0.21-0.28,0.29
				c0.14-0.04,0.3-0.09,0.5-0.25c0.01-0.05,0.04-0.1,0.06-0.14c0.08-0.03,0.2-0.07,0.22-0.08c0.04-0.01,0.11-0.04,0.18-0.08
				c0-0.09,0.05-0.23,0.17-0.33l-0.01-0.08l-0.21,0.2l0.04,0.03l-0.18,0.11l0.16-0.19c0.01-0.11-0.09-0.1,0.03-0.31
				c0.18-0.18,0.15-0.34,0.33-0.45c0.28-0.38,0.06,0.11,0.26-0.04l-0.15,0.15c-0.94,0.87-0.13,0.42-0.07,0.25l0.02,0.06
				c-0.1,0.07-0.24,0.28-0.17,0.28l0.24-0.19C6,71.28,6.16,71.08,6.24,70.98c0.18-0.11,0.32-0.36,0.51-0.52l0.01-0.05l0.2-0.16
				c-0.13,0.12-0.12,0.23-0.1,0.31c-0.19,0.2-0.27,0.09-0.46,0.33c0.03,0.14,0.08,0.11,0.27-0.03l-0.22,0.25l-0.18,0.07
				C6.2,71.46,6,71.47,5.83,71.6l-0.09-0.02l-0.16,0.15l0.04,0.08l-0.01,0.02c0.02-0.01,0.04-0.02,0.06-0.03
				c0.06-0.03,0.28-0.23,0.35-0.28c0.11-0.07,0.2-0.09,0.31-0.17c0.06-0.04,0.3-0.26,0.35-0.3c0.05-0.05,0.28-0.26,0.34-0.32
				c0.07-0.05,0.27-0.17,0.33-0.21c0.05-0.03,0.28-0.17,0.35-0.22c0.12-0.1,0.24-0.23,0.36-0.33c0.09-0.07,0.26-0.17,0.36-0.25
				c0.12-0.1,0.24-0.24,0.35-0.35c0.12-0.1,0.23-0.25,0.34-0.35c0.12-0.1,0.25-0.17,0.36-0.28c0.12-0.11,0.21-0.26,0.33-0.36
				c0.11-0.11,0.25-0.19,0.36-0.3c-0.01,0.02-0.33,0.37-0.33,0.37s0.35-0.29,0.37-0.31c0.07-0.08,0.27-0.31,0.33-0.37l0.32-0.36
				c0.05-0.05,0.25-0.29,0.29-0.34c0.06-0.06,0.28-0.24,0.33-0.28c0.03-0.02,0.32-0.27,0.33-0.28c0.09-0.11,0.19-0.23,0.27-0.33
				c0.07-0.08,0.24-0.28,0.27-0.33c0.02-0.03-0.33,0.28-0.33,0.28c-0.01,0,0.07-0.09,0.15-0.17l0.79-0.64
				c0.24-0.22,0.27-0.3,0.25-0.36l0.03-0.03c0.05-0.04,0.32-0.25,0.34-0.27c0.03-0.02-0.29,0.32-0.29,0.32
				c0.01,0.01,0.36-0.3,0.35-0.27c-0.02,0.03-0.23,0.25-0.29,0.32c-0.04,0.04-0.29,0.31-0.28,0.32c0,0,0.31-0.27,0.34-0.27L14,64.43
				l0.29-0.32l0.28-0.32c0.03-0.03,0.06-0.07,0.1-0.11c0.07-0.01,0.14-0.02,0.2-0.03c0.05-0.1,0.09-0.2,0.13-0.28
				c0.08-0.06,0.17-0.12,0.2-0.16c0.1-0.1,0.18-0.22,0.28-0.32c0.13-0.1,0.22-0.17,0.34-0.27c0.07-0.06,0.27-0.2,0.34-0.27
				c0.09-0.08,0.21-0.23,0.29-0.31c0.07-0.06,0.3-0.22,0.35-0.26c0.07-0.05,0.33-0.25,0.36-0.26c0.02-0.01-0.3,0.3-0.3,0.31
				c0.01,0.01,0.32-0.25,0.35-0.26c0.11-0.09,0.25-0.16,0.36-0.26c0.04-0.04,0.27-0.28,0.3-0.31c-0.02,0.02-0.34,0.25-0.36,0.26
				c0,0,0.33-0.32,0.3-0.31c-0.05,0.03-0.27,0.2-0.36,0.26l-0.36,0.26c0.12-0.11,0.17-0.2,0.3-0.31c0.08-0.07,0.27-0.19,0.36-0.26
				c0.09-0.07,0.2-0.23,0.3-0.31c0.06-0.05,0.31-0.22,0.36-0.26c0.07-0.05,0.33-0.25,0.35-0.26c0.03-0.01-0.3,0.3-0.3,0.31
				c0,0,0.33-0.24,0.36-0.26c0.05-0.05,0.26-0.27,0.3-0.31c0.09-0.1,0.22-0.23,0.3-0.31c0.05-0.06,0.29-0.27,0.31-0.3
				c0.01-0.02-0.36,0.25-0.36,0.25c0,0,0.28-0.27,0.31-0.3c0.04-0.03,0.32-0.22,0.36-0.25l0.36-0.25c0.11-0.07,0.24-0.16,0.36-0.25
				c0.03-0.03,0.26-0.25,0.31-0.3c0.05-0.03,0.32-0.22,0.36-0.25c0.04-0.03,0.31-0.21,0.36-0.25c0.07-0.06,0.26-0.25,0.31-0.3
				c0.09-0.09,0.2-0.2,0.31-0.3c0.07-0.06,0.22-0.23,0.31-0.3c0.12-0.09,0.25-0.15,0.37-0.24c-0.02,0.01-0.32,0.29-0.32,0.29
				s0.34-0.21,0.37-0.24c0.04-0.03,0.28-0.26,0.32-0.29c0.05-0.04,0.25-0.24,0.32-0.29c0.11-0.09,0.26-0.15,0.37-0.24
				c0.11-0.09,0.26-0.15,0.37-0.24c0.09-0.07,0.22-0.22,0.32-0.29c0.11-0.09,0.26-0.15,0.37-0.24c0.09-0.06,0.22-0.22,0.32-0.29
				c0.05-0.03,0.33-0.21,0.37-0.23c0.06-0.04,0.3-0.18,0.37-0.24c0.05-0.04,0.28-0.24,0.32-0.28c0.05-0.04,0.26-0.23,0.32-0.28
				c0.11-0.08,0.27-0.15,0.38-0.22c0,0,0.28-0.24,0.32-0.28c0.02-0.01,0.34-0.2,0.38-0.22c0.1-0.07,0.23-0.21,0.32-0.28
				c0.12-0.09,0.23-0.2,0.32-0.28c0.05-0.04,0.26-0.23,0.32-0.28c0.1-0.07,0.29-0.16,0.38-0.22c-0.03,0.03-0.32,0.28-0.32,0.28
				c0,0,0.35-0.21,0.38-0.22c0.06-0.04,0.28-0.25,0.32-0.28c0.09-0.08,0.21-0.18,0.33-0.28c0.08-0.06,0.24-0.21,0.33-0.27
				c0.12-0.08,0.26-0.13,0.39-0.21c0.14-0.09,0.25-0.13,0.39-0.21c-0.01-0.01,0.29-0.24,0.33-0.27c0.02-0.02,0.3-0.24,0.33-0.27
				c0.08-0.05,0.32-0.17,0.39-0.21c0.11-0.08,0.25-0.21,0.33-0.27l0.66-0.55c0.02,0,0.39-0.23,0.39-0.21c0,0.02,0.39-0.21,0.39-0.2
				c0.01,0.01-0.32,0.24-0.34,0.26c-0.02,0.02-0.34,0.26-0.33,0.27c0,0,0.33-0.19,0.39-0.21c0.02-0.01,0.3-0.24,0.34-0.26
				c0.12-0.08,0.27-0.12,0.39-0.2c0.12-0.08,0.22-0.19,0.34-0.26c0.12-0.08,0.27-0.13,0.39-0.2l0.79-0.4
				c0.11-0.09,0.23-0.18,0.34-0.26c0.05-0.04,0.34-0.27,0.34-0.27c-0.01-0.01-0.4,0.22-0.39,0.2c0.01-0.02-0.37,0.21-0.39,0.2
				c-0.01,0,0.3-0.23,0.34-0.27l0.34-0.27l0.39-0.2c0.1-0.05,0.27-0.13,0.39-0.2c0.07-0.04,0.26-0.22,0.34-0.26
				c0.09-0.05,0.32-0.15,0.4-0.19c0.14-0.07,0.28-0.13,0.4-0.19c0.07-0.03,0.31-0.14,0.4-0.19c0.05-0.03,0.31-0.23,0.35-0.26
				c0.08-0.06,0.23-0.18,0.35-0.26c0.06-0.04,0.33-0.15,0.4-0.19c0.1-0.06,0.24-0.19,0.35-0.26c0.09-0.05,0.33-0.14,0.4-0.19
				c0.11-0.07,0.27-0.2,0.35-0.26c0.11-0.08,0.22-0.17,0.35-0.26c0.09-0.07,0.23-0.18,0.35-0.25c0.1-0.06,0.3-0.12,0.4-0.18
				c0.12-0.07,0.23-0.17,0.35-0.25c0.1-0.04,0.32-0.14,0.4-0.18c0.08-0.03,0.29-0.13,0.4-0.18c0.06-0.02,0.4-0.18,0.4-0.18
				c-0.01,0.01-0.33,0.23-0.35,0.25c0.11-0.05,0.28-0.12,0.4-0.18c0.06-0.03,0.33-0.14,0.4-0.18c0.09-0.05,0.27-0.2,0.35-0.25
				c-0.04,0.02-0.35,0.16-0.4,0.18l0.35-0.25l0.35-0.25c0.05-0.04,0.28-0.21,0.35-0.25c0.06-0.03,0.35-0.16,0.4-0.18
				c0.13-0.05,0.26-0.11,0.41-0.17c0.11-0.05,0.29-0.11,0.41-0.17c0.1-0.05,0.25-0.18,0.36-0.24c0.13-0.07,0.28-0.1,0.41-0.17
				c0.06-0.03,0.31-0.21,0.36-0.24c0.1-0.07,0.23-0.16,0.36-0.24c0.08-0.05,0.27-0.19,0.36-0.24c0.13-0.07,0.28-0.1,0.41-0.17
				c0.08-0.04,0.34-0.14,0.41-0.17c0.07-0.03,0.33-0.13,0.41-0.17c0.06-0.03,0.32-0.21,0.36-0.24c0.05-0.03,0.29-0.2,0.36-0.23
				c0.07-0.03,0.36-0.14,0.41-0.16c0.05-0.02,0.36-0.13,0.41-0.16c0.09-0.05,0.3-0.19,0.36-0.23c0.06-0.04,0.29-0.2,0.36-0.23
				c0.11-0.05,0.31-0.11,0.41-0.16c0.15-0.08,0.22-0.15,0.36-0.23c0.1-0.05,0.3-0.1,0.41-0.16c0.08-0.04,0.3-0.19,0.36-0.23
				c-0.01,0-0.4,0.16-0.41,0.16c-0.01,0,0.32-0.21,0.36-0.23l0.36-0.23c0.04,0,0.4-0.17,0.41-0.16c0,0.01-0.4,0.24-0.36,0.23
				c0.06-0.01,0.31-0.12,0.41-0.16l0.42-0.15c0.08-0.03,0.32-0.11,0.42-0.15c0.05-0.02,0.33-0.2,0.37-0.23l0.37-0.23
				c0.09-0.06,0.25-0.16,0.37-0.23c0.06-0.03,0.34-0.11,0.42-0.15c0.12-0.06,0.25-0.17,0.37-0.23c0.14-0.07,0.27-0.09,0.42-0.15
				c0.11-0.05,0.26-0.17,0.37-0.23c0.13-0.06,0.28-0.09,0.42-0.15c-0.02,0.01-0.37,0.23-0.37,0.23s0.39-0.14,0.42-0.15
				c0.13-0.07,0.24-0.16,0.37-0.23c0.13-0.06,0.29-0.08,0.42-0.14c0.13-0.06,0.24-0.16,0.37-0.22c0.14-0.06,0.28-0.08,0.42-0.14
				c0.12-0.05,0.25-0.16,0.37-0.22c0.08-0.04,0.35-0.11,0.42-0.14c0.12-0.06,0.28-0.16,0.37-0.22l0.37-0.22
				c0.08-0.05,0.26-0.16,0.37-0.22c0.09-0.04,0.32-0.1,0.42-0.14c0.11-0.05,0.27-0.17,0.37-0.22c0.15-0.07,0.27-0.07,0.42-0.14
				c-0.02,0.01-0.37,0.22-0.37,0.22s0.4-0.13,0.42-0.14c0.08-0.05,0.31-0.18,0.38-0.21c0.11-0.06,0.24-0.14,0.38-0.21
				c0.09-0.04,0.28-0.17,0.38-0.21c0.08-0.03,0.35-0.11,0.42-0.13c0.06-0.02,0.43-0.13,0.43-0.13c0.01,0.01-0.36,0.18-0.38,0.21
				c-0.02,0.02-0.39,0.2-0.38,0.21c0,0,0.4-0.12,0.42-0.13c0.07-0.03,0.33-0.18,0.38-0.21c0.12-0.06,0.24-0.13,0.38-0.21
				c0.1-0.05,0.25-0.15,0.38-0.21c0.11-0.05,0.31-0.08,0.42-0.13c0.1-0.04,0.29-0.17,0.38-0.21l-0.42,0.13c0,0,0.33-0.18,0.38-0.21
				c0.03-0.01,0.37-0.11,0.42-0.13c0.11-0.04,0.27-0.16,0.38-0.21c0.07-0.03,0.36-0.11,0.42-0.13c-0.01,0.01-0.37,0.2-0.38,0.21
				c0,0,0.38-0.11,0.43-0.13c0.06-0.02,0.36-0.09,0.43-0.12c0.07-0.03,0.33-0.17,0.38-0.2l0.38-0.2c0.11-0.06,0.24-0.14,0.38-0.2
				c0.04-0.01,0.36-0.1,0.43-0.12c0.06-0.02,0.34-0.18,0.38-0.2l0.38-0.2l0.85-0.24l-0.38,0.2c-0.09,0.05-0.26,0.15-0.38,0.2
				c-0.07,0.03-0.34,0.09-0.43,0.12c-0.13,0.05-0.25,0.14-0.38,0.2l0.85-0.24l0.38-0.2l0.38-0.2c0.11-0.06,0.25-0.13,0.38-0.2
				c0.04-0.02,0.36-0.1,0.43-0.12c0.1-0.04,0.3-0.15,0.39-0.19c0.14-0.07,0.27-0.14,0.39-0.19c0.06-0.03,0.31-0.16,0.39-0.19
				c0.07-0.03,0.37-0.1,0.43-0.11c0.03-0.01,0.41-0.11,0.43-0.11c0.14-0.06,0.27-0.14,0.39-0.19c0.12-0.06,0.29-0.14,0.39-0.19
				c0.07-0.04,0.37-0.17,0.39-0.19c0.02-0.02-0.42,0.12-0.43,0.11c-0.01-0.01,0.37-0.17,0.39-0.19c0.08-0.01,0.36-0.11,0.43-0.11
				c0.06,0,0.39-0.11,0.43-0.11c0.03,0-0.39,0.18-0.39,0.19c0.01,0.01,0.37-0.1,0.43-0.11c0.1-0.03,0.3-0.08,0.43-0.11l0.87-0.2
				l0.39-0.18c0.05-0.03,0.32-0.16,0.39-0.18c0.07-0.02,0.37-0.08,0.43-0.1c0.03-0.01,0.41-0.09,0.43-0.1
				c0.13-0.05,0.29-0.14,0.39-0.19c0.1-0.05,0.33-0.15,0.39-0.19c0.02-0.02-0.42,0.1-0.43,0.1c-0.01,0,0.34-0.16,0.39-0.19
				l0.39-0.19c0.14-0.03,0.29-0.07,0.43-0.1c0.06-0.01,0.43-0.11,0.43-0.1c-0.01,0.01-0.37,0.18-0.39,0.19
				c0.07-0.02,0.34-0.07,0.43-0.1c0.11-0.04,0.28-0.14,0.39-0.18c0.08-0.02,0.38-0.07,0.44-0.09c0.14-0.05,0.29-0.13,0.39-0.18
				c0.1-0.04,0.35-0.15,0.39-0.18c0.03-0.02-0.43,0.1-0.44,0.09c-0.01-0.01,0.37-0.15,0.39-0.18c0.15-0.03,0.29-0.06,0.44-0.09
				c0.15-0.03,0.29-0.06,0.43-0.09l0.44-0.09c0.13-0.03,0.33-0.07,0.43-0.09c0.08-0.01,0.4-0.09,0.43-0.09
				c0.03,0-0.4,0.16-0.39,0.18c0.01,0.01,0.37-0.08,0.44-0.09c0.02-0.01,0.38-0.17,0.39-0.18c0.02-0.02,0.4-0.16,0.39-0.18
				c-0.01-0.01-0.44,0.1-0.44,0.09c0.01-0.02,0.37-0.15,0.39-0.18c0.02-0.02-0.43,0.1-0.43,0.09c-0.01-0.02,0.37-0.15,0.39-0.18
				l0.87-0.16l0.44-0.08c0.06-0.01,0.36-0.05,0.44-0.08c0.07-0.02,0.35-0.15,0.4-0.17c0.12-0.05,0.3-0.13,0.4-0.17
				c0.07-0.04,0.38-0.15,0.4-0.17c0.06,0,0.33-0.06,0.44-0.08c0.14-0.02,0.28-0.05,0.44-0.08c0.03-0.01,0.35-0.15,0.4-0.17
				c0.08-0.02,0.37-0.06,0.44-0.08c0.08-0.01,0.34-0.06,0.44-0.07c0.06-0.01,0.36-0.14,0.4-0.16l0.4-0.16
				c0.09-0.04,0.28-0.12,0.4-0.16c0.03-0.01,0.4-0.06,0.44-0.07c0.06-0.01,0.36-0.04,0.44-0.07c0.07-0.02,0.35-0.14,0.4-0.16
				c0.12-0.05,0.26-0.11,0.4-0.16c0.09-0.03,0.3-0.13,0.4-0.16c0.14-0.04,0.3-0.03,0.44-0.07c0.08-0.02,0.38-0.06,0.44-0.07
				c0.08-0.01,0.34-0.04,0.44-0.06c0.06-0.01,0.36-0.13,0.4-0.15c0.06-0.02,0.32-0.13,0.4-0.15c0.07-0.02,0.38-0.05,0.44-0.05
				c-0.02,0.01-0.39,0.15-0.4,0.15c0,0,0.41-0.05,0.44-0.05c0.08-0.02,0.35-0.13,0.4-0.15c0.11-0.04,0.27-0.11,0.41-0.15
				c0.06-0.02,0.37-0.04,0.44-0.05c0.06-0.01,0.36-0.13,0.4-0.15c0.06-0.02,0.32-0.13,0.41-0.15c0.12-0.03,0.31-0.03,0.44-0.05
				c0.11-0.02,0.29-0.12,0.41-0.15c0.14-0.03,0.31-0.03,0.44-0.05c0.16-0.03,0.28-0.01,0.44-0.04c0.11-0.02,0.29-0.11,0.41-0.14
				c0.15-0.03,0.3-0.01,0.44-0.04c0.07-0.01,0.36-0.12,0.41-0.14c0.06-0.02,0.33-0.12,0.41-0.14c0.07-0.02,0.38-0.04,0.44-0.04
				c0.04,0,0.4-0.04,0.44-0.04c0.12-0.03,0.32-0.11,0.41-0.14l0.82-0.28c0.1,0,0.36-0.04,0.44-0.04c0.06,0,0.44-0.04,0.44-0.03
				c0.01,0.02-0.39,0.11-0.41,0.13c-0.02,0.02-0.41,0.12-0.41,0.14c0,0.01,0.38-0.04,0.44-0.04c-0.03,0,0.41-0.12,0.41-0.13
				c0.14-0.02,0.3,0,0.44-0.03c0.14-0.03,0.27-0.1,0.41-0.13c0.16-0.04,0.25-0.1,0.41-0.13c0.11-0.02,0.32-0.01,0.44-0.03
				c0.14-0.03,0.27-0.1,0.41-0.13c0.12-0.02,0.32-0.01,0.44-0.03c0.14-0.03,0.27-0.1,0.41-0.13c0.14-0.03,0.3,0,0.44-0.03
				c0.06-0.01,0.36-0.12,0.41-0.13c0.11-0.04,0.34-0.1,0.41-0.13c-0.01,0-0.41,0.03-0.44,0.03c-0.06,0-0.44,0.04-0.44,0.03
				c0-0.02,0.39-0.11,0.41-0.13l0.44-0.03l0.44-0.02c0.15-0.01,0.29-0.01,0.44-0.02c0.07,0,0.36,0,0.44-0.02
				c0.14-0.02,0.27-0.09,0.41-0.12c-0.02,0-0.44,0.02-0.44,0.02s0.36-0.11,0.41-0.12c0.03,0,0.39-0.02,0.44-0.02
				c0.06-0.01,0.37-0.11,0.41-0.12c0.09-0.03,0.3-0.1,0.42-0.12c0.1-0.02,0.34,0,0.44-0.02c0.14-0.02,0.27-0.09,0.41-0.12
				c0.14-0.03,0.27-0.1,0.42-0.12c0.08-0.01,0.39,0,0.44-0.02c0.15-0.03,0.3-0.08,0.42-0.11l0.35-0.09
				c0.19,0.01,0.39-0.06,0.51-0.13c0.12-0.03,0.25-0.07,0.39-0.1c0.01,0,0.05,0,0.09,0c0.03,0.02,0.05,0.04,0.07,0.05l0.08-0.05
				c0.09,0,0.18,0,0.2,0c0.01,0,0.04-0.01,0.06-0.01l0.31,0.04c0.05-0.04,0.05-0.08,0.03-0.13c0.01,0,0.02-0.01,0.02-0.01
				c0.12-0.02,0.24-0.06,0.35-0.09c0.02,0.02,0.04,0.04,0.05,0.06l0.37-0.03c0.11-0.07,0.19-0.14,0.29-0.21
				c0.07-0.02,0.14-0.04,0.2-0.05c0.01,0-0.05,0-0.12,0l0.05-0.03l0.24-0.03l0.02,0.13c0.27,0.14,0.48,0.06,0.67-0.02
				c0.02,0,0.05,0,0.06,0c0.07,0,0.4-0.01,0.48-0.02l0,0c0.03,0.02,0.06,0.03,0.1,0.07c0.1-0.05,0.13-0.09,0.13-0.14
				c0.1-0.03,0.19-0.07,0.19-0.07c0,0-0.1,0.01-0.2,0.02c-0.01-0.02-0.02-0.04-0.04-0.06c0.08-0.03,0.15-0.05,0.17-0.06
				c-0.06,0.02-0.13,0.02-0.21,0.02l-0.08-0.07l0.51-0.12l0,0.08c-0.09,0.04-0.18,0.07-0.23,0.08c0.07-0.01,0.15-0.02,0.23-0.03
				l0,0.11c0.3-0.06,0.71,0.04,0.77-0.23l0.03-0.01l0.83,0.09c0-0.1,0.17-0.16,0.44-0.21c-0.11-0.08-0.41,0.04-0.35,0.08l-0.34-0.05
				l0.16-0.17c0.11-0.03,0.21-0.06,0.31-0.09l0.49,0l0.35,0.21c0.05-0.3,0.61-0.19,1.06-0.23l0.05-0.21l0.32,0.1l0.16-0.12
				c-0.17,0.06-0.14-0.11-0.09-0.12l0.25,0.19l0.5-0.16l-0.08-0.06l0.26-0.1c0.17,0.03,0.43,0.09,0.5-0.06l-0.27-0.21
				c0.4,0.01,0.71,0.05,0.94,0.19c0.53-0.13-0.16-0.23,0.05-0.37c0.23-0.02,0.38,0.14,0.64,0.05l-0.34-0.22l-0.36,0.17l-0.03-0.27
				l0.64,0.05l0.24,0.19c0.16-0.03,0.5-0.06,0.59-0.19l0.6-0.12c0.26-0.09,0-0.25-0.14-0.27l0.07-0.15l0.35,0.13
				c0.35-0.12,0.61-0.21,0.72-0.37c0.12-0.26,0.64-0.09,0.75-0.26l-0.38-0.22c0.11-0.16,0.33-0.24,0.68-0.26
				c-0.07-0.16,0.08-0.35,0.18-0.47c-0.58,0.04-1.27,0.4-1.66,0.28c0.01-0.1,0.02-0.29-0.33-0.27l0.03-0.07
				c0.14-0.14,0.49-0.17,0.67-0.07l0.13-0.2c0.21-0.04,0.49-0.01,0.45,0.16l0.01-0.19l0.38,0l0.02,0.28l0.44-0.15l-0.33-0.17
				l0.41-0.08l-0.07-0.16l-0.78,0.14l0.01-0.25c-0.77-0.25,0.25-0.35,0.3-0.61c-0.39,0.06-0.77,0.03-1.16,0.07
				c0.15-0.13,0.49-0.29,0.81-0.39c-0.09-0.07-0.18-0.15-0.28-0.22c-0.29-0.03-0.1-0.28-0.52-0.26l-0.33,0.15
				c0.39,0.21,0.74,0.44-0.09,0.44c-0.18-0.1,0.24-0.11,0.1-0.23c-0.41-0.02-0.2,0.2-0.47,0.19l-0.05-0.14
				c0.24-0.11,0.08-0.25-0.18-0.35l0.12-0.01l0.26-0.15l0.16-0.02l0.04-0.17l-0.28,0.03l-0.01,0.19c-0.26,0.15-0.54-0.07-0.62-0.13
				l0.38-0.16l-0.2-0.06l-0.2,0.2c-0.46-0.14-0.5-0.48-1.02-0.57c-0.2,0.2-0.53,0.01-0.72-0.14c-0.52,0.07-1.16-0.26-1.64-0.11
				l0.09,0.22c-0.59,0.06-0.78-0.37-1.07-0.48c-0.36,0.48,0.5,0.32,0.8,0.58l-0.64,0.18l-0.01-0.06c0.14-0.15-0.23-0.17-0.48-0.2
				c0.3-0.18,0.04-0.36-0.19-0.43l-0.24,0.13l-0.07,0c-0.3,0.19,0.5,0.3,0.26,0.62c-0.18-0.18-0.52-0.17-0.78-0.25
				c0.59-0.27-0.27-0.33-0.6-0.42c-0.69,0.16-1.41-0.18-2.06,0.24l-1.12,0.02c-0.52,0.04-0.22,0.23-0.34,0.36c-0.02,0-0.05,0-0.06,0
				c-0.02,0.01-0.07,0.01-0.12,0.03c-0.04-0.08-0.15-0.06-0.3-0.15c-0.19,0.02-0.47,0.08-0.32,0.17c0.13,0.01,0.09,0.1,0.05,0.17
				c-0.09,0-0.17,0-0.2,0c-0.02,0-0.05,0-0.1,0c-0.24-0.08-0.47-0.2-0.62-0.3c-0.18,0.15-0.28,0.28-0.45,0.41
				c-0.06,0-0.12-0.01-0.19,0c-0.08,0.01-0.18,0.04-0.28,0.07c-0.14-0.07-0.3-0.13-0.61-0.03c-0.03,0.03-0.03,0.05-0.02,0.08
				c-0.16,0.01-0.33,0-0.46,0c-0.06,0-0.38-0.01-0.46,0c-0.09,0.01-0.37,0.09-0.44,0.11c-0.07,0.01-0.35,0.11-0.44,0.12
				c-0.07,0.01-0.4,0-0.46,0.02c-0.15,0.03-0.31,0.09-0.44,0.12l-0.88,0.24c-0.01-0.01-0.48,0.03-0.46,0.02
				c0.05-0.03,0.33-0.09,0.44-0.12c0.06-0.02,0.44-0.11,0.44-0.12c0-0.01-0.39,0.01-0.45,0.02l-0.46,0.02l-0.44,0.12l-0.44,0.12
				c-0.11,0.03-0.29,0.09-0.44,0.12c-0.06,0.01-0.38,0.01-0.46,0.02c-0.12,0.02-0.31,0.1-0.44,0.12c-0.13,0.02-0.33,0-0.45,0.03
				c-0.11,0.02-0.35,0.11-0.43,0.13c-0.07,0.02-0.35,0.12-0.43,0.13c-0.15,0.03-0.3,0-0.45,0.03c-0.09,0.02-0.38,0.03-0.45,0.03
				c-0.08,0.01-0.35,0.01-0.46,0.03c-0.06,0.01-0.38,0.12-0.43,0.13c-0.07,0.02-0.35,0.12-0.43,0.13c-0.08,0.01-0.39,0.03-0.46,0.03
				c0.02-0.01,0.42-0.13,0.43-0.13c0,0-0.41,0.02-0.45,0.03c-0.04,0.01-0.39,0.12-0.43,0.13c-0.29,0.09-0.58,0.18-0.86,0.28
				c-0.02-0.01-0.46,0.06-0.45,0.04c0.02-0.02,0.4-0.12,0.43-0.14c0.02-0.02-0.45,0.06-0.45,0.04c0,0,0.46-0.14,0.43-0.14
				c-0.04,0-0.38,0.03-0.45,0.04c-0.12,0.02-0.31,0.12-0.43,0.14c-0.15,0.03-0.31,0.02-0.45,0.04l-0.43,0.14
				c-0.12,0.04-0.35,0.11-0.43,0.14c0.01-0.01-0.4,0.04-0.45,0.04c-0.07,0.01-0.36,0.02-0.45,0.04c-0.07,0.01-0.38,0.13-0.43,0.14
				l-0.43,0.14l-0.43,0.14l-0.85,0.31c-0.1,0-0.36,0.06-0.45,0.05c-0.06,0-0.45,0.07-0.45,0.05c0-0.02,0.4-0.13,0.43-0.15
				c0.02-0.02,0.43-0.14,0.43-0.15c0,0-0.4,0.05-0.45,0.05c-0.07,0.01-0.35,0.13-0.43,0.15c-0.11,0.03-0.35,0.03-0.45,0.06
				c-0.13,0.04-0.32,0.12-0.43,0.15c-0.07,0.02-0.34,0.13-0.43,0.15c-0.13,0.03-0.33,0.02-0.45,0.06c-0.17,0.04-0.26,0.11-0.43,0.15
				c-0.12,0.03-0.33,0.03-0.45,0.06c-0.15,0.03-0.28,0.12-0.43,0.15c-0.11,0.03-0.33,0.04-0.45,0.07c-0.06,0.02-0.37,0.14-0.42,0.16
				c-0.06,0.02-0.35,0.15-0.42,0.16c-0.08,0.02-0.38,0.06-0.45,0.07c-0.04,0.01-0.42,0.06-0.45,0.07c-0.13,0.04-0.32,0.13-0.42,0.16
				l-0.42,0.16l-0.42,0.16l-0.84,0.33c-0.11,0.01-0.36,0.06-0.45,0.07c0.01,0,0.39-0.15,0.42-0.16c0.06-0.02,0.42-0.16,0.42-0.16
				s-0.39,0.06-0.45,0.07c-0.11,0.02-0.31,0.04-0.45,0.07c-0.03,0-0.38,0.16-0.42,0.17c-0.1,0.04-0.29,0.13-0.42,0.17
				c-0.07,0.02-0.37,0.06-0.45,0.08c-0.12,0.03-0.3,0.14-0.42,0.17c-0.14,0.04-0.31,0.04-0.45,0.08c-0.12,0.03-0.35,0.06-0.45,0.08
				c-0.11,0.02-0.31,0.05-0.45,0.08c-0.08,0.02-0.33,0.15-0.42,0.17c-0.14,0.04-0.3,0.04-0.45,0.08c-0.08,0.02-0.36,0.15-0.42,0.17
				l-0.42,0.17c-0.07,0.03-0.32,0.14-0.42,0.18c-0.05,0.02-0.4,0.08-0.44,0.09c-0.11,0.02-0.31,0.05-0.45,0.09
				c-0.08,0.02-0.32,0.15-0.41,0.18c-0.13,0.04-0.31,0.05-0.45,0.09c-0.09,0.03-0.35,0.15-0.41,0.18c-0.11,0.05-0.27,0.13-0.41,0.18
				c-0.02,0.01-0.08,0.02-0.15,0.03c-0.49,0.25-0.95,0.48-1.46,0.49c-0.04,0.01-0.08,0.02-0.1,0.02c-0.11,0.03-0.29,0.14-0.41,0.18
				c-0.13,0.04-0.32,0.06-0.44,0.1c-0.1,0.04-0.33,0.16-0.41,0.19c-0.06,0.03-0.33,0.16-0.41,0.19c-0.14,0.05-0.3,0.05-0.44,0.1
				c0.03-0.01,0.41-0.19,0.41-0.19c-0.01,0-0.4,0.09-0.44,0.1c-0.05,0.02-0.11,0.05-0.18,0.08l0.39,0.27c-0.37,0.01-0.76,0-1.1-0.04
				c-0.13,0.05-0.23,0.12-0.37,0.17c-0.11,0.04-0.32,0.06-0.44,0.1c-0.14,0.05-0.26,0.14-0.41,0.19c-0.12,0.04-0.3,0.06-0.43,0.1
				c-0.11,0.07-0.27,0.15-0.49,0.26l-0.1,0.02c-0.09,0.05-0.19,0.1-0.24,0.12c-0.11,0.04-0.32,0.07-0.44,0.11
				c-0.06,0.02-0.13,0.06-0.2,0.1l-0.26,0.74c-0.7,0.07-1.26-0.09-1.87,0c-0.08,0.04-0.15,0.07-0.21,0.1l-0.81,0.4
				c-0.06,0.02-0.14,0.04-0.22,0.06c-0.57,0.39-1.17,0.9-1.72,0.97l0.15,0.2c-0.75,0.18-0.97-0.02-1.16-0.22l-0.04,0.02
				c-0.08,0.04-0.29,0.16-0.4,0.21c-0.04,0.01-0.39,0.11-0.44,0.12c-0.11,0.03-0.3,0.08-0.44,0.12c-0.08,0.03-0.31,0.17-0.4,0.21
				c-0.05,0.02-0.11,0.03-0.17,0.05l-0.03,0.05l-0.31,0.04c-0.12,0.04-0.26,0.06-0.37,0.11c-0.14,0.06-0.26,0.16-0.4,0.22
				c-0.14,0.06-0.3,0.08-0.43,0.13c-0.09,0.04-0.17,0.09-0.26,0.14l0.05,0.02c0.12-0.04,0.25-0.08,0.25-0.08s-0.08,0.05-0.17,0.1
				l0.43,0.14c-0.75,0.72-2.67,0.77-2.71,1.58c-1.61,0.42-3.56,1.09-4.89,2.04c-0.63,0.12-1.25,0.27-1.88,0.42l-0.43,0.82
				c-1.25-0.33-1.66,0.76-2.56,1.05l-0.64-0.29c-0.9,0.32-1.63,1.99-2.31,1.44c-2.23,0.66-3.42,2.78-5.67,2.85
				c-0.49,0.46-0.96,0.94-1.43,1.41c-0.58,0.12-1.18,0.23-1.72,0.28c-0.09,0.07-0.21,0.14-0.24,0.16c-0.08,0.06-0.26,0.18-0.37,0.26
				l-0.25,0.18c0.04,0.06,0.06,0.13,0.04,0.22c-0.99,0.34-1.78,1.39-2.65,1.77c-0.73,0.3-0.86,0.14-0.94-0.06
				c-0.05,0.03-0.11,0.05-0.15,0.07c-0.06,0.03-0.33,0.15-0.41,0.2c-0.06,0.04-0.32,0.24-0.36,0.27l-0.12,0.09
				c0.11,0.21,0.2,0.4-0.37,0.76c-0.27,0.01-0.58,0.06-0.92,0.13c-0.04,0.03-0.07,0.06-0.08,0.07c-0.06,0.05-0.27,0.22-0.36,0.28
				c-0.11,0.07-0.29,0.14-0.4,0.21c-0.08,0.05-0.29,0.24-0.36,0.28c-0.12,0.07-0.31,0.16-0.4,0.21c-0.09,0.05-0.29,0.15-0.4,0.21
				c-0.09,0.05-0.26,0.22-0.36,0.28c-0.13,0.08-0.27,0.13-0.4,0.21c-0.13,0.08-0.28,0.13-0.4,0.21c-0.12,0.08-0.23,0.21-0.35,0.29
				c0.03-0.02,0.4-0.22,0.4-0.22c-0.01,0.01-0.31,0.25-0.35,0.29c-0.09,0.07-0.23,0.2-0.35,0.29c-0.06,0.05-0.32,0.17-0.4,0.22
				c-0.1,0.07-0.25,0.22-0.35,0.29c-0.12,0.08-0.28,0.15-0.4,0.22c-0.14,0.08-0.28,0.16-0.4,0.22l-0.4,0.22l-0.4,0.22
				c-0.1,0.06-0.27,0.15-0.4,0.22c-0.02,0.02-0.32,0.26-0.35,0.29c-0.05,0.04-0.28,0.24-0.35,0.29c-0.07,0.05-0.32,0.19-0.39,0.23
				c0.01-0.01,0.34-0.3,0.34-0.3c-0.01-0.01-0.36,0.23-0.39,0.24c-0.12,0.09-0.27,0.15-0.39,0.24c-0.04,0.03-0.32,0.28-0.34,0.3
				c-0.02,0.02,0.38-0.24,0.39-0.24c0.01,0-0.3,0.26-0.34,0.3c-0.08,0.07-0.31,0.26-0.34,0.3c-0.02,0.02,0.39-0.24,0.39-0.24
				c0.01,0.01-0.3,0.26-0.34,0.3c-0.08,0.07-0.24,0.21-0.34,0.3l-0.34,0.3c-0.01,0-0.41,0.26-0.39,0.24
				c0.03-0.04,0.27-0.23,0.34-0.3c0.08-0.07,0.31-0.26,0.34-0.3c0.02-0.02-0.37,0.23-0.39,0.24c-0.03,0.01,0.35-0.29,0.34-0.3
				c-0.01-0.01-0.36,0.23-0.39,0.24l-0.34,0.3l-0.34,0.3c-0.08,0.07-0.23,0.22-0.34,0.3c-0.06,0.05-0.32,0.19-0.39,0.24
				c-0.1,0.07-0.23,0.23-0.33,0.31c-0.05,0.03-0.35,0.23-0.38,0.25c0.02-0.02,0.32-0.3,0.33-0.31c0,0-0.37,0.24-0.38,0.25
				c-0.09,0.07-0.27,0.25-0.33,0.31l-0.33,0.31l-0.67,0.62c-0.09,0.06-0.3,0.19-0.38,0.25c-0.05,0.03-0.38,0.26-0.38,0.25
				c0,0,0.36-0.32,0.33-0.31c-0.05,0.03-0.29,0.19-0.38,0.25c-0.07,0.05-0.29,0.18-0.38,0.25c-0.04,0.03-0.3,0.28-0.33,0.31
				l-0.33,0.32c-0.08,0.08-0.22,0.22-0.33,0.32c-0.05,0.04-0.31,0.21-0.37,0.26c-0.1,0.08-0.23,0.24-0.32,0.32
				c-0.12,0.1-0.26,0.16-0.38,0.26c-0.11,0.09-0.21,0.22-0.32,0.32c-0.12,0.1-0.26,0.16-0.38,0.26c-0.12,0.1-0.21,0.22-0.32,0.32
				c-0.1,0.08-0.29,0.18-0.37,0.26c-0.09,0.08-0.26,0.26-0.32,0.32l-0.32,0.33c-0.07,0.08-0.22,0.24-0.32,0.33
				c-0.05,0.05-0.3,0.22-0.37,0.27c-0.09,0.08-0.22,0.24-0.32,0.33c-0.11,0.1-0.25,0.18-0.37,0.27l0.32-0.33
				c0.09-0.1,0.25-0.26,0.31-0.33c0.04-0.05,0.32-0.32,0.32-0.33c0,0-0.33,0.25-0.37,0.27c-0.08,0.07-0.23,0.25-0.32,0.33
				c-0.12,0.11-0.24,0.17-0.37,0.27c-0.04,0.05-0.28,0.29-0.31,0.33c-0.05,0.06-0.24,0.26-0.31,0.33c-0.09,0.08-0.27,0.2-0.37,0.27
				c-0.09,0.08-0.22,0.24-0.31,0.33c-0.11,0.1-0.25,0.17-0.37,0.28c-0.1,0.09-0.21,0.25-0.31,0.34c-0.11,0.1-0.24,0.18-0.36,0.29
				c-0.11,0.1-0.25,0.18-0.36,0.29c-0.09,0.08-0.22,0.26-0.3,0.34l0.36-0.29c0,0-0.27,0.3-0.3,0.34c-0.04,0.04-0.26,0.29-0.3,0.34
				C9.8,58.83,9.57,59,9.51,59.05c-0.09,0.07-0.31,0.26-0.36,0.29c-0.03,0.02,0.31-0.34,0.31-0.34s-0.34,0.27-0.36,0.29
				c-0.07,0.07-0.26,0.29-0.3,0.34l-0.3,0.34c-0.1,0.11-0.2,0.23-0.3,0.35L7.9,60.66c-0.08,0.1-0.19,0.23-0.29,0.35
				c-0.04,0.04-0.29,0.25-0.35,0.3c-0.11,0.11-0.19,0.24-0.29,0.35c-0.11,0.11-0.19,0.24-0.29,0.35c-0.1,0.1-0.25,0.2-0.35,0.3
				c-0.02,0.02-0.34,0.3-0.36,0.31c-0.02,0,0.31-0.36,0.3-0.36c0,0-0.3,0.26-0.36,0.31c-0.02,0.02-0.29,0.35-0.33,0.4
				c-0.07,0.07-0.32,0.31-0.38,0.37c-0.07,0.08-0.29,0.28-0.37,0.39c-0.04,0.05-0.25,0.37-0.28,0.41c-0.04,0.06-0.23,0.34-0.27,0.4
				c-0.07,0.09-0.29,0.32-0.34,0.4c-0.09,0.13-0.19,0.3-0.24,0.4c-0.04,0.06-0.17,0.31-0.22,0.39c-0.08,0.1-0.24,0.31-0.32,0.41
				c-0.1,0.14-0.22,0.3-0.31,0.41c-0.03,0.03-0.28,0.4-0.29,0.43c-0.06,0.12-0.12,0.29-0.15,0.37c-0.04,0.09-0.14,0.32-0.14,0.36
				c-0.04,0.06-0.19,0.31-0.24,0.41c-0.05,0.09-0.2,0.32-0.24,0.42c-0.04,0.08-0.05,0.24-0.08,0.32c-0.04,0.09-0.18,0.31-0.21,0.4
				c-0.04,0.11-0.01,0.18-0.05,0.29c-0.03,0.08-0.15,0.3-0.18,0.38c-0.01,0.05-0.01,0.23-0.01,0.26c0,0.01,0,0.02,0,0.04
				c-0.02,0.05-0.01,0.07,0,0.09c0,0.04,0.01,0.09,0,0.11c-0.01,0.04-0.03,0.11-0.06,0.18l-0.01,0c-0.24,0.45-0.42,0.79-0.44,1.02
				c0.03,0.31-0.5,0.72-0.51,0.95l0.44-0.24c-0.01,0.23-0.16,0.51-0.45,0.88c0.15,0.04,0.1,0.32,0.09,0.51
				C0.69,73.28,1,72.64,1.3,72.21c0.04,0.02,0.08,0.04,0.11,0.06c0.01,0.01,0.01,0.06,0.01,0.11c-0.06,0.03-0.14,0.09-0.2,0.19
				c0.04,0.01,0.13-0.02,0.21-0.08l0,0.01c0.01,0.02,0.04,0.02,0.07,0.02L1.48,72.8c-0.15,0.23-0.41,0.5-0.46,0.34l0.09,0.15
				l-0.32,0.38l-0.16-0.17l-0.3,0.55l0.37-0.22l-0.31,0.46L0.54,74.33z M123.64,14.9c-0.01,0.01-0.01,0.03-0.01,0.05
				c-0.05-0.03-0.13-0.06-0.19-0.08c0.01-0.02,0.02-0.06,0.02-0.1c0.03-0.01,0.05-0.02,0.1-0.03l0.17,0.08
				C123.7,14.85,123.66,14.88,123.64,14.9z M124.02,14.97c0.01-0.01,0.02-0.02,0.03-0.02c0.01,0,0,0.01,0,0.02L124.02,14.97z
				 M123.65,11.64l0.29,0.02l0.22-0.08l-0.3,0.27C123.88,11.71,123.28,11.81,123.65,11.64z M124.95,15
				c-0.29,0.08-0.5-0.04-0.69-0.09l0,0c0.02-0.07,0.06-0.17,0.05-0.2c0.22,0.04,0.38,0.24,0.71,0.23c-0.14-0.11-0.32-0.29-0.01-0.31
				C125.35,14.66,125.1,14.92,124.95,15z M124.7,13.36l0.26,0.08l-0.42,0.17C124.28,13.53,124.61,13.39,124.7,13.36z M126.1,12.35
				c-0.06,0-0.12,0.01-0.19,0.03l-0.06,0.01l-0.22-0.12c0.17-0.01,0.34,0,0.48,0.02C126.09,12.32,126.09,12.34,126.1,12.35z
				 M126.75,14.24c-0.18,0.16,0.06,0.3,0.24,0.39l-0.39,0.15c0-0.25-0.49-0.39-0.24-0.64l0.52,0.06l0.57-0.21l0.05,0.14
				L126.75,14.24z M126.77,13.35c0,0,0.27-0.17,0.3-0.17c0.07-0.02,0.34-0.1,0.4-0.11c0.06-0.01,0.41-0.08,0.41-0.07
				c0,0-0.07,0.03-0.15,0.06c-0.08,0.03-0.16,0.06-0.19,0.07c-0.11,0.04-0.21,0.1-0.31,0.15c-0.12,0.04-0.26,0.07-0.37,0.12
				c0.04-0.01,0.23-0.15,0.29-0.17C127.11,13.23,126.79,13.36,126.77,13.35z M128.35,14.46L128.35,14.46
				c-0.06,0.05-0.12,0.08-0.19,0.11c-0.08-0.02-0.17-0.03-0.28-0.03c0-0.02-0.01-0.04-0.03-0.06l-0.06-0.03
				c-0.1,0.08-0.24,0.04-0.34,0.01l0-0.01C127.83,14.22,128.07,14.37,128.35,14.46z M128.27,13.98l-0.55-0.1l0.05-0.11l-0.2-0.06
				l0.35-0.02l-0.01-0.06C128.24,13.7,128.24,13.86,128.27,13.98z M126.93,11.53l0.25,0.03l-0.03,0.28
				C126.8,11.88,126.8,11.67,126.93,11.53z M127.9,12.2l0.03,0.45c-0.38-0.21-0.92,0.33-1.33,0.02
				C126.86,12.45,127.47,12.27,127.9,12.2z M123.27,10.96c0.45-0.01,0.47,0.3,0.96,0.21c0.09-0.28-0.01-0.31-0.42-0.41l0.54-0.05
				l0.33,0.19c0.34-0.35,0.64-0.02,0.99,0.04l0.11,0.18l0.36,0.02l0.01-0.19l0.18-0.07c-0.04,0.17-0.26,0.41-0.57,0.37l-0.07,0.15
				l0.48,0.01l-0.02-0.12l0.36,0.12l-0.4,0.05c-0.11,0.17,0.04,0.33-0.32,0.47c-0.41-0.01-0.51,0.32-0.87,0.2
				c-0.73,0.15,0.01-0.29-0.4-0.35l0.33,0c2.1,0.13,0.55-0.49,0.32-0.31l0.02-0.13c0.2,0.05,0.59-0.06,0.49-0.18l-0.52-0.09
				c-0.02,0.13-0.42,0.19-0.62,0.24c-0.36-0.12-0.78,0.07-1.2,0.01l-0.06,0.05l-0.42-0.06C123.16,11.32,123.24,11.13,123.27,10.96z
				 M122.06,10.93c0.22-0.09,0.51,0.01,0.62,0.09l-0.02,0.13C122.36,11.19,121.91,11.12,122.06,10.93z M121.43,11.03
				c0.09,0.06,0.16,0.12,0.13,0.17c-0.07-0.03-0.15-0.07-0.19-0.08c-0.01-0.02-0.02-0.03-0.03-0.05L121.43,11.03z M119.72,10.87
				l0.3-0.18c0.34-0.11,0.5,0.15,0.86,0.06l-0.02-0.21c0.29,0.01,0.44,0.11,0.27,0.24l-0.63,0.2l0.13,0.09
				c-0.1,0-0.2-0.01-0.25-0.01c-0.02,0-0.04-0.01-0.06-0.02l-0.27-0.23l-0.14,0.12c-0.07-0.01-0.13-0.03-0.2-0.04L119.72,10.87z
				 M65.55,24.93l-0.06,0.12l-0.3-0.01C65.25,24.92,65.49,24.93,65.55,24.93z M64.86,26.14l-0.08,0.17l-0.4,0
				C64.46,26.14,64.78,26.14,64.86,26.14z M63.22,26.91l-0.34,0.21l-0.38-0.21C62.76,26.86,62.93,26.76,63.22,26.91z M57.23,28.99
				c-0.2,0.25-0.65,0.03-0.9,0.35l-0.04-0.05C56.53,29.09,57.16,28.77,57.23,28.99z M5.46,68.71c0-0.05,0-0.08,0.12-0.23l0.1,0.01
				L5.46,68.71z M4.44,67.74c0.04-0.06,0.09-0.08,0.13-0.11l0.1-0.13c-0.04,0.08,0.12-0.07,0.03,0.04l-0.07,0.03l-0.01,0.04
				c-0.06,0.09-0.11,0.06-0.19,0.14c0.03-0.01,0.08-0.01,0.03,0.04C4.4,67.85,4.42,67.77,4.44,67.74z M4.93,68.78l0.14,0.01
				l-0.19,0.24C4.81,69.02,4.78,68.92,4.93,68.78z M2.86,70.24c0.03-0.1-0.06-0.06-0.13-0.02l0.1-0.16
				c0.04,0.06,0.21-0.06,0.17,0.09L2.82,70.3l-0.14,0.24l-0.04-0.02L2.86,70.24z M3.84,72.57l0.42-0.64
				C4.41,72.1,4.32,72.3,3.84,72.57z M2.88,71.92c0.17-0.09,0.26-0.44,0.46-0.49c-0.05,0.16-0.23,0.43-0.37,0.61L2.88,71.92z
				 M3.62,72.77L3.62,72.77c-0.01,0.01-0.03,0.03-0.06,0.05L3.62,72.77z M1.9,73.64c0.13-0.09,0.17-0.06,0.24-0.04l-0.06,0.11
				C1.95,73.75,1.85,73.79,1.9,73.64z"/>
		</g>
	</g>
	<g>
		<g>
			<g>
				<path d="M126.83,13.93c0,0-0.08-0.02-0.08-0.02c0,0.01,0.04,0.06,0.04,0.07c0.01,0.01,0.06,0.02,0.08,0.02
					c0.01,0,0.07,0.02,0.08,0.02c0.01-0.01-0.05-0.05-0.04-0.07c-0.02-0.02-0.02-0.05-0.04-0.07c-0.01-0.01-0.07-0.02-0.08-0.02
					C126.78,13.87,126.83,13.93,126.83,13.93z"/>
				<path d="M132.36,13.13c-0.01-0.07-0.1,0-0.14,0.06l0.06,0.07L132.36,13.13z"/>
				<path d="M132.21,13.57c-0.05-0.03-0.06-0.02-0.1,0l0.05,0.09L132.21,13.57z"/>
				<path d="M130.89,14.82l-0.01,0.08l0.09-0.07C131,14.78,130.92,14.81,130.89,14.82z"/>
				<path d="M132.36,12.25c-0.08,0-0.06-0.02-0.16,0.05l0.02,0.05L132.36,12.25z"/>
				<path d="M131.85,14.12c-0.06-0.05-0.11,0.1-0.13,0.13C131.77,14.22,131.83,14.2,131.85,14.12z"/>
				<path d="M131.88,13.68l0.04,0.16c-0.02,0.06-0.04,0.13,0,0.08l0.02-0.06C132,13.77,131.91,13.72,131.88,13.68z"/>
				<path d="M121.29,9.94c0,0,0.01,0,0.02,0c0.02-0.1-0.05-0.14-0.17-0.14c0.01,0.02,0.03,0.04,0.03,0.05
					c0,0.01-0.04-0.01-0.06-0.02c0,0,0,0.01-0.01,0.01c0.01,0.02,0.04,0.04,0.04,0.05c0.02,0.01,0.05,0,0.08,0.02
					c0.02,0.01,0.03,0.05,0.04,0.07c0.01,0,0.02,0.01,0.03,0.01c0-0.01,0.01-0.02,0.01-0.03C121.3,9.95,121.29,9.94,121.29,9.94z"/>
				<path d="M117.28,7.09c-0.01-0.01-0.04-0.06-0.05-0.07c-0.01,0-0.07-0.02-0.08-0.02c0,0,0.04,0.06,0.05,0.07
					c0.01,0.01,0.03,0.05,0.04,0.07c0.01,0.01,0.06,0.02,0.08,0.02c0.01,0,0.07,0.02,0.08,0.02c0.01-0.01-0.05-0.05-0.04-0.07
					C117.33,7.1,117.3,7.11,117.28,7.09z"/>
				<path d="M127.73,8.38c0.03,0,0.05,0.01,0.08,0.01c0.01,0,0.07,0.02,0.08,0.01c0,0-0.04-0.05-0.05-0.06c0,0-0.07-0.01-0.08-0.01
					c-0.02-0.01-0.03-0.05-0.05-0.06c-0.02-0.01-0.06,0-0.08-0.01c0.02,0.02,0.03,0.04,0.05,0.06
					C127.69,8.33,127.73,8.38,127.73,8.38z"/>
				<path d="M119.64,8.64c0,0,0.04,0.06,0.05,0.07c0.02,0.01,0.05,0.01,0.08,0.02c0,0-0.05-0.07-0.05-0.07S119.64,8.64,119.64,8.64z
					"/>
				<path d="M128.46,8.72c-0.02-0.01-0.06,0-0.08-0.01c0,0,0.05,0.06,0.05,0.06c0,0,0.08,0.01,0.08,0.01S128.47,8.72,128.46,8.72z"
					/>
				<path d="M110.85,1.29c0,0.02,0,0.03,0,0.04c0.01,0,0.01,0.01,0.02,0.01c0-0.02,0.01-0.05,0.03-0.08L110.85,1.29z"/>
				<path d="M110.93,1.85L110.93,1.85c-0.02,0-0.03-0.01-0.04-0.01c0,0.01-0.01,0.02-0.02,0.02c0.01,0.03,0.03,0.05,0.05,0.07
					L110.93,1.85z"/>
				<path d="M111.14,0.62l-0.05,0.1c0.1,0.04,0.12-0.01,0.18-0.04L111.14,0.62z"/>
				<polygon points="111.86,0.18 111.84,0.17 111.78,0.2 111.83,0.23 				"/>
				<path d="M110.84,1.51l0.01,0.05c0.01,0,0.07-0.02,0.07-0.06L110.84,1.51z"/>
				<polygon points="111.73,0.25 111.69,0.2 111.68,0.27 				"/>
				<path d="M111.63,0.32l-0.02-0.02c-0.01,0.13-0.17,0.07-0.18,0.17C111.49,0.55,111.6,0.41,111.63,0.32z"/>
				<path d="M111.19,1.01l-0.07,0.03C111.13,1.05,111.18,1.05,111.19,1.01L111.19,1.01z"/>
				<path d="M111.34,0.64c0.01-0.07,0-0.06-0.02-0.08l-0.02,0.09L111.34,0.64z"/>
				<path d="M110.8,1.02l0.01,0.06c0.02,0,0.1-0.02,0.09-0.09L110.8,1.02z"/>
				<path d="M110.81,2.05c0.02,0.03,0.05,0.04,0.1,0.03c-0.03-0.02-0.06-0.04-0.1-0.05C110.81,2.04,110.81,2.04,110.81,2.05z"/>
				<polygon points="111.62,0 111.62,0 111.62,0 				"/>
				<path d="M111.04,1.12c0.01-0.05,0.02-0.1-0.01-0.06l-0.01,0.05c-0.04,0.07,0.03,0.09,0.06,0.12L111.04,1.12z"/>
				<path d="M110.98,2.12c-0.01,0.01-0.05,0.1-0.02,0.11C110.99,2.2,111,2.14,110.98,2.12z"/>
				<path d="M111.57,0.84c0.01-0.01,0.04-0.1,0-0.11C111.56,0.77,111.55,0.83,111.57,0.84z"/>
				<path d="M111.47,2.26l-0.12,0.01C111.35,2.4,111.4,2.38,111.47,2.26z"/>
				<path d="M118.82,8.12c0.1,0.04,0.12-0.01,0.18-0.04l-0.13-0.05L118.82,8.12z"/>
				<path d="M118.36,7.64c-0.01,0.13-0.17,0.07-0.18,0.17c0.05,0.08,0.16-0.07,0.19-0.15L118.36,7.64z"/>
				<path d="M118.6,8.14c-0.01,0.01-0.05,0.1-0.02,0.11C118.6,8.22,118.61,8.15,118.6,8.14z"/>
				<path d="M120.09,8.87c0,0.04,0.02,0.08,0.04,0.07C120.14,8.92,120.13,8.85,120.09,8.87z"/>
				<path d="M131.84,13.97l-0.17-0.05l0.1-0.13c-0.02-0.28,0.22-0.11,0.32-0.33c0.01-0.08,0.05-0.21,0.08-0.34
					c-0.03-0.06,0.1-0.17,0.03-0.22l-0.11,0.02c0,0.01,0,0.02,0,0.03l0.03,0l-0.03,0.02c-0.03,0.16-0.07,0.3-0.18,0.18
					c0.01-0.08,0.08-0.02,0.1-0.1c-0.01-0.01-0.01-0.01-0.02-0.02l-0.02,0.01c0-0.01,0.01-0.01,0.01-0.02
					c-0.02,0-0.03,0.01-0.05,0.02c0,0,0,0,0,0c0.01-0.03,0.01-0.05,0.01-0.08c0.01-0.01,0.02-0.02,0.03-0.03
					c0-0.02,0-0.03,0.03-0.04c0.02-0.04,0.03-0.08,0.03-0.13l0.02,0.01l0,0c0,0.01,0,0.02,0,0.02c0,0.03-0.01,0.07-0.02,0.1l0,0.01
					c0.03-0.05,0.05-0.1,0.07-0.15l0.04-0.02l0.03,0.01l0.07-0.09l-0.05-0.03l-0.08,0.1c0,0-0.01,0-0.01,0
					c0.01-0.03,0.02-0.05,0.03-0.08c0.01-0.04,0.01-0.07,0.01-0.11l0.05-0.01l-0.01-0.06l-0.04,0.03c0-0.03,0-0.05,0-0.08
					c0-0.03,0-0.06,0-0.09c0,0.01,0,0.03-0.01,0.04l-0.06,0.07c-0.05-0.04-0.08-0.17,0.02-0.24c0.03,0,0.04,0.02,0.05,0.05
					c0.02-0.07,0.04-0.13,0.02-0.19c-0.02,0.01-0.03,0.02-0.04,0.02c0.01-0.03,0.02-0.09,0.02-0.1c0-0.02,0.01-0.05,0.01-0.08
					c-0.04,0.03-0.08,0.06-0.09,0.03l-0.03,0.03l0.03,0.04l0.02-0.03l0,0.06l-0.04-0.02c-0.04,0.03-0.06,0.09-0.11,0.09
					c-0.03-0.04-0.1,0.04-0.1-0.02c-0.08-0.02,0.06-0.07,0.04-0.13l0.02,0.03c0.12,0.22,0.13-0.08,0.08-0.05l0.03-0.03
					c0,0.03,0.05,0.03,0.07-0.01l-0.02-0.07c-0.03,0.03-0.07,0.01-0.09,0.01c0-0.06-0.07-0.05-0.08-0.1l-0.01,0.01l-0.02-0.05
					c0.02,0.03,0.06-0.01,0.1-0.05c0.03,0.04-0.03,0.12,0.02,0.14c0.06-0.07,0.06-0.08,0.05-0.14l0.05,0.04l-0.02,0.08
					c0.09-0.06,0.05,0.05,0.06,0.1l-0.03,0.06l0.02,0.04l0.04-0.05l0.01,0c0-0.01,0-0.02,0-0.02c0-0.02-0.03-0.07-0.03-0.09
					c0-0.04,0.01-0.08,0.01-0.12c0-0.02-0.03-0.07-0.04-0.09c0-0.01-0.04-0.06-0.04-0.08c0-0.02,0-0.09,0-0.11
					c0-0.02-0.01-0.09-0.01-0.11c-0.01-0.03-0.04-0.04-0.05-0.07c-0.01-0.02-0.01-0.08-0.02-0.1c-0.01-0.03-0.05-0.03-0.06-0.06
					c-0.02-0.02-0.05-0.03-0.07-0.05c-0.02-0.02-0.02-0.07-0.03-0.09c-0.02-0.02-0.06-0.02-0.08-0.04
					c-0.02-0.02-0.02-0.06-0.04-0.08c0,0,0.08,0.04,0.08,0.04s-0.04-0.08-0.04-0.08c-0.01-0.01-0.07-0.02-0.08-0.03l-0.08-0.02
					c-0.01-0.01-0.07-0.01-0.08-0.02c-0.01-0.01-0.04-0.05-0.05-0.06c0,0-0.05-0.06-0.05-0.06c-0.03-0.01-0.05-0.01-0.08-0.01
					c-0.02,0-0.07-0.02-0.08-0.01c-0.01,0,0.05,0.06,0.05,0.06c0,0-0.02,0-0.04-0.01l-0.1-0.16c-0.04-0.04-0.07-0.02-0.1,0.02
					c0,0-0.01,0-0.01,0c-0.01-0.01-0.05-0.06-0.05-0.06c0-0.01,0.07,0.02,0.08,0.01c0-0.01-0.06-0.06-0.05-0.06
					c0.01,0,0.06,0.01,0.08,0.01c0.01,0,0.07,0.02,0.08,0.01c0-0.01-0.05-0.05-0.05-0.06l-0.15-0.03l-0.08-0.01l-0.08-0.01
					c-0.01,0-0.02,0-0.03,0c0.01-0.03,0.01-0.06,0.02-0.09c-0.03,0.02-0.06,0.03-0.09,0.05c-0.01-0.02-0.02-0.03-0.03-0.04
					c-0.02-0.01-0.06,0-0.08-0.01c-0.02-0.02-0.03-0.04-0.05-0.06c-0.01-0.01-0.03-0.05-0.05-0.06c-0.02-0.01-0.06,0-0.08-0.01
					c-0.01-0.01-0.04-0.05-0.05-0.06c-0.01-0.01-0.05-0.05-0.05-0.06c0-0.01,0.07,0.02,0.08,0.01c0-0.01-0.05-0.05-0.05-0.06
					c-0.02-0.01-0.03-0.05-0.05-0.06c-0.01-0.01-0.07-0.01-0.08-0.01c-0.01,0,0.05,0.06,0.05,0.06c0,0.01-0.08-0.02-0.08-0.01
					c0,0.01,0.04,0.05,0.05,0.06l0.05,0.06c-0.03-0.01-0.05,0-0.08-0.01c-0.02-0.01-0.03-0.05-0.05-0.06
					c-0.02-0.01-0.06,0-0.08-0.01c-0.01-0.01-0.04-0.05-0.05-0.06C130.04,9.78,130,9.74,130,9.73c0-0.01,0.07,0.02,0.08,0.01
					c0,0-0.04-0.06-0.05-0.06c-0.01-0.01-0.07-0.01-0.08-0.01c-0.02,0-0.06-0.01-0.08-0.01c-0.02,0-0.07-0.02-0.08-0.01
					c-0.01,0,0.05,0.05,0.05,0.06c0,0-0.07-0.01-0.08-0.01c-0.01,0-0.04-0.05-0.05-0.06l-0.05-0.06c-0.01-0.02-0.03-0.04-0.05-0.06
					c-0.01-0.01-0.07-0.01-0.08-0.01c-0.01-0.01-0.04-0.05-0.05-0.06c-0.01-0.01-0.04-0.06-0.05-0.06
					c-0.01-0.01-0.07-0.01-0.08-0.01c-0.02,0-0.05-0.01-0.08-0.01c-0.02-0.01-0.06,0-0.08-0.01c-0.02-0.01-0.03-0.05-0.05-0.06
					c0,0,0.08,0.01,0.08,0.01s-0.04-0.06-0.05-0.06c-0.01-0.01-0.07-0.01-0.08-0.01c-0.01,0-0.07-0.01-0.08-0.01
					c-0.02-0.01-0.03-0.05-0.05-0.06c-0.02-0.01-0.03-0.05-0.05-0.06c-0.02-0.01-0.06,0-0.08-0.01c-0.02-0.01-0.03-0.05-0.05-0.06
					c-0.01-0.01-0.06,0-0.08-0.01c-0.01-0.01-0.04-0.05-0.05-0.06c-0.01-0.01-0.04-0.05-0.05-0.06c-0.01-0.01-0.07-0.01-0.08-0.01
					c-0.01,0-0.07-0.01-0.08-0.01c-0.02-0.01-0.03-0.05-0.05-0.06c0,0-0.07-0.01-0.08-0.01c0,0-0.04-0.06-0.05-0.06
					c-0.02-0.01-0.06-0.01-0.08-0.01c-0.02-0.01-0.06-0.01-0.08-0.01c-0.01,0-0.07-0.01-0.08-0.01c-0.02-0.01-0.03-0.05-0.05-0.06
					c0.01,0,0.08,0.02,0.08,0.01c0,0-0.04-0.06-0.05-0.06c-0.01-0.01-0.07-0.01-0.08-0.01c-0.02,0-0.05-0.01-0.08-0.01
					c-0.02-0.01-0.06,0-0.08-0.01c-0.02-0.01-0.03-0.05-0.05-0.06c-0.02-0.02-0.03-0.04-0.05-0.06c0,0.01-0.07-0.01-0.08-0.01
					c-0.01,0-0.07-0.01-0.08-0.01c-0.01-0.01-0.04-0.06-0.05-0.06c-0.02-0.01-0.06-0.01-0.08-0.01l-0.15-0.03
					c0-0.01-0.05-0.06-0.05-0.06c0.01-0.01-0.05-0.05-0.05-0.06c0-0.01,0.07,0.02,0.08,0.01c0.01-0.01,0.07,0.02,0.08,0.01
					c0,0-0.04-0.05-0.05-0.06c0,0-0.07-0.01-0.08-0.01c-0.02-0.01-0.03-0.05-0.05-0.06c-0.02-0.01-0.06,0-0.08-0.01
					c-0.02-0.01-0.03-0.05-0.05-0.06l-0.1-0.12c-0.03,0-0.05-0.01-0.08-0.01c-0.01,0-0.07-0.02-0.08-0.01
					c0,0.01,0.06,0.06,0.05,0.06c-0.01,0.01,0.05,0.05,0.05,0.06c0,0-0.07-0.01-0.08-0.01l-0.08-0.01l-0.05-0.06
					c-0.01-0.02-0.03-0.05-0.05-0.06c-0.01-0.01-0.06-0.01-0.08-0.01c-0.01-0.01-0.04-0.05-0.05-0.06
					c-0.02-0.02-0.03-0.04-0.05-0.06c-0.01-0.01-0.03-0.05-0.05-0.06c-0.01-0.01-0.07-0.01-0.08-0.01c-0.02,0-0.06,0-0.08-0.01
					c-0.01,0-0.04-0.05-0.05-0.06c-0.02-0.01-0.06,0-0.08-0.01c-0.01-0.01-0.04-0.06-0.05-0.06c-0.02-0.01-0.06-0.01-0.08-0.01
					c-0.02,0-0.05-0.01-0.08-0.01c-0.02-0.01-0.06,0-0.08-0.01c-0.02-0.01-0.03-0.05-0.05-0.06c-0.02-0.01-0.06,0-0.08-0.01
					c-0.01-0.02-0.04-0.04-0.05-0.06c-0.01-0.02-0.04-0.04-0.05-0.06c-0.01-0.01-0.05-0.06-0.05-0.06c0,0,0.08,0.02,0.08,0.01
					c-0.01-0.02-0.03-0.04-0.05-0.06C125.6,7.05,125.57,7,125.56,7c-0.02-0.01-0.06-0.01-0.08-0.01c0.01,0,0.04,0.06,0.05,0.06
					l-0.08-0.01l-0.08-0.01c-0.01,0-0.06-0.01-0.08-0.01c-0.01-0.01-0.04-0.05-0.05-0.06c-0.02-0.02-0.03-0.04-0.05-0.06
					c-0.01-0.01-0.03-0.05-0.05-0.06c-0.02-0.01-0.06,0-0.08-0.01c-0.02-0.01-0.03-0.05-0.05-0.06c-0.01-0.01-0.07-0.01-0.08-0.01
					c-0.02,0-0.05-0.01-0.08-0.01c-0.02-0.01-0.06,0-0.08-0.01c-0.02-0.01-0.03-0.05-0.05-0.06c-0.01-0.01-0.04-0.05-0.05-0.06
					c-0.01-0.01-0.04-0.05-0.05-0.06c-0.01-0.01-0.07-0.01-0.08-0.01c-0.01,0-0.07-0.01-0.08-0.01c-0.01-0.01-0.04-0.05-0.05-0.06
					c-0.01-0.01-0.04-0.06-0.05-0.06c-0.01-0.01-0.06-0.01-0.08-0.01c-0.01,0-0.07-0.01-0.08-0.01c-0.02-0.01-0.03-0.05-0.05-0.06
					c-0.03-0.01-0.05,0-0.08-0.01c-0.02-0.01-0.03-0.05-0.05-0.06c-0.01-0.01-0.06-0.01-0.08-0.01c0,0,0.05,0.06,0.05,0.06
					c0,0-0.07-0.01-0.08-0.01l-0.08-0.01c0-0.01-0.05-0.05-0.05-0.06c0-0.01,0.08,0.02,0.08,0.01c0-0.01-0.04-0.05-0.05-0.06
					l-0.05-0.06c-0.01-0.01-0.03-0.05-0.05-0.06c-0.01,0-0.07-0.01-0.08-0.01l-0.08-0.01c-0.02,0-0.06,0-0.08-0.01
					c-0.01,0-0.04-0.05-0.05-0.06c-0.02-0.01-0.06,0-0.08-0.01c-0.02-0.01-0.03-0.05-0.05-0.06c-0.02-0.01-0.06,0-0.08-0.01
					c-0.02-0.01-0.03-0.05-0.05-0.06c0,0,0.08,0.01,0.08,0.01s-0.05-0.06-0.05-0.06c-0.02-0.01-0.06,0-0.08-0.01
					c-0.02-0.01-0.03-0.05-0.05-0.06c-0.02-0.01-0.06,0-0.08-0.01c-0.02-0.01-0.03-0.05-0.05-0.06c-0.02-0.01-0.06,0-0.08-0.01
					c-0.01-0.01-0.04-0.06-0.05-0.06c-0.02-0.01-0.06-0.01-0.08-0.01l-0.08-0.01c-0.02,0-0.06,0-0.08-0.01
					c-0.01-0.01-0.03-0.05-0.05-0.06c-0.02-0.01-0.06,0-0.08-0.01c-0.02-0.02-0.03-0.05-0.05-0.06c0,0,0.08,0.01,0.08,0.01
					s-0.05-0.06-0.05-0.06c-0.01-0.01-0.06-0.01-0.08-0.01c-0.02,0-0.05-0.01-0.08-0.01c-0.02,0-0.06,0-0.08-0.01
					c-0.01-0.01-0.04-0.05-0.05-0.06c-0.01-0.01-0.05-0.06-0.05-0.06c0-0.01,0.07,0.02,0.08,0.01s0.07,0.02,0.08,0.01
					c0,0-0.04-0.06-0.05-0.06c-0.01-0.01-0.07-0.01-0.08-0.01c-0.02,0-0.05-0.01-0.08-0.01c-0.02-0.01-0.06,0-0.08-0.01
					c-0.02-0.01-0.03-0.05-0.05-0.06c-0.02-0.01-0.06-0.01-0.08-0.01l0.05,0.06c0,0-0.07-0.01-0.08-0.01
					c-0.01,0-0.04-0.06-0.05-0.06c-0.02-0.01-0.06,0-0.08-0.01c-0.01-0.01-0.04-0.05-0.05-0.06c0,0,0.08,0.02,0.08,0.01
					c0,0-0.04-0.05-0.05-0.06c-0.01-0.01-0.04-0.05-0.05-0.06c-0.01-0.01-0.07-0.01-0.08-0.01l-0.08-0.01
					c-0.02,0-0.05-0.01-0.08-0.01c-0.01,0-0.04-0.06-0.05-0.06c-0.01-0.01-0.07-0.01-0.08-0.01l-0.08-0.01l-0.1-0.12l0.08,0.01
					c0.02,0,0.06,0,0.08,0.01c0.01,0,0.04,0.05,0.05,0.06c0.02,0.01,0.06,0,0.08,0.01l-0.1-0.12l-0.08-0.01l-0.08-0.01
					c-0.02,0-0.05-0.01-0.08-0.01c-0.01,0-0.04-0.06-0.05-0.06c-0.02-0.01-0.06-0.01-0.08-0.01c-0.03-0.01-0.05-0.01-0.08-0.01
					c-0.01,0-0.07-0.01-0.08-0.01c-0.01-0.01-0.04-0.05-0.05-0.06c0,0-0.05-0.06-0.05-0.06c-0.03-0.01-0.05-0.01-0.08-0.01
					c-0.02,0-0.06-0.01-0.08-0.01c-0.02,0-0.07-0.02-0.08-0.01c-0.01,0,0.05,0.05,0.05,0.06c0,0.01-0.07-0.02-0.08-0.01
					c-0.01-0.02-0.05-0.05-0.05-0.06c0-0.01-0.05-0.05-0.05-0.06c0-0.01,0.07,0.02,0.08,0.01c0-0.01-0.04-0.05-0.05-0.06
					c-0.01-0.02-0.03-0.04-0.05-0.06l-0.1-0.12l-0.08-0.01c-0.01,0-0.07-0.01-0.08-0.01c-0.01-0.01-0.04-0.05-0.05-0.06
					c0,0-0.04-0.06-0.05-0.06c-0.02-0.01-0.06-0.01-0.08-0.01c-0.02,0-0.06-0.02-0.08-0.01c-0.01,0,0.05,0.06,0.05,0.06
					c0,0-0.07-0.01-0.08-0.01l-0.08-0.01c-0.02-0.02-0.03-0.04-0.05-0.06c-0.01-0.01-0.05-0.06-0.05-0.06c0,0,0.08,0.02,0.08,0.01
					c-0.01-0.01-0.03-0.05-0.05-0.06c-0.02-0.01-0.06,0-0.08-0.01c-0.01-0.01-0.04-0.06-0.05-0.06c-0.02-0.01-0.06-0.01-0.08-0.01
					c-0.02,0-0.06-0.02-0.08-0.01c-0.01,0,0.05,0.06,0.05,0.06c0,0.01-0.07-0.02-0.08-0.01c-0.02-0.02-0.03-0.04-0.05-0.06
					c-0.02-0.02-0.03-0.04-0.05-0.06l-0.05-0.06c-0.01-0.02-0.04-0.04-0.05-0.06c-0.01-0.01-0.05-0.05-0.05-0.06
					c0-0.01,0.07,0.02,0.08,0.01c0-0.01-0.04-0.05-0.05-0.06c0,0-0.07-0.02-0.08-0.01c-0.01,0.01-0.07-0.02-0.08-0.01
					c0,0.01,0.05,0.06,0.05,0.06c-0.01,0.01-0.07-0.02-0.08-0.01c-0.01,0,0.05,0.05,0.05,0.06c0,0.01-0.07-0.02-0.08-0.01l-0.1-0.12
					L118.8,3c-0.01-0.01-0.04-0.05-0.05-0.06c-0.01-0.01-0.07-0.01-0.08-0.01c-0.02,0-0.06-0.01-0.08-0.01
					c-0.02,0-0.07-0.02-0.08-0.01c0-0.01-0.04-0.05-0.05-0.06c-0.02-0.02-0.03-0.04-0.05-0.06c0,0-0.07-0.01-0.08-0.01
					c-0.01-0.01-0.04-0.05-0.05-0.06c-0.01-0.01-0.03-0.05-0.05-0.06c-0.01-0.01-0.07-0.01-0.08-0.01l-0.08-0.01
					c-0.02,0-0.06,0-0.08-0.01c-0.01,0-0.04-0.06-0.05-0.06c-0.01-0.01-0.04-0.05-0.05-0.06c-0.01-0.01-0.07-0.01-0.08-0.01
					c-0.02,0-0.05-0.01-0.08-0.01c-0.02-0.01-0.06,0-0.08-0.01c-0.02-0.01-0.03-0.05-0.05-0.06c-0.01-0.01-0.04-0.05-0.05-0.06
					c-0.01-0.01-0.03-0.05-0.05-0.06c-0.01-0.01-0.07-0.01-0.08-0.01c-0.01,0-0.07-0.01-0.08-0.01c-0.01-0.01-0.04-0.05-0.05-0.06
					c0,0,0.08,0.02,0.08,0.01c0,0-0.04-0.06-0.05-0.06c-0.01-0.01-0.07-0.01-0.08-0.01c-0.02,0-0.05,0-0.08-0.01
					c-0.01,0-0.04-0.05-0.05-0.06c-0.01-0.01-0.07-0.01-0.08-0.01c-0.01,0-0.06-0.01-0.08-0.01c-0.02-0.01-0.03-0.05-0.05-0.06
					c-0.02-0.01-0.06,0-0.08-0.01c-0.02-0.01-0.03-0.05-0.05-0.06c-0.02-0.02-0.03-0.05-0.05-0.06c-0.02-0.01-0.06,0-0.08-0.01
					c-0.02-0.01-0.03-0.05-0.05-0.06c-0.01-0.01-0.07-0.01-0.08-0.01c-0.01,0-0.07-0.01-0.08-0.01c-0.01-0.01-0.04-0.05-0.05-0.06
					c0-0.01-0.04-0.06-0.05-0.06c-0.02-0.01-0.06-0.01-0.08-0.01l-0.15-0.03c-0.01-0.02-0.04-0.05-0.05-0.06
					c0-0.01-0.05-0.05-0.05-0.06c0-0.01,0.07,0.02,0.08,0.01c0.01-0.01,0.07,0.02,0.08,0.01c0-0.01-0.04-0.05-0.05-0.06
					c0,0.01-0.07-0.02-0.08-0.01c-0.02-0.01-0.03-0.05-0.05-0.06c-0.02-0.01-0.06,0-0.08-0.01c-0.03-0.01-0.05,0-0.08-0.01
					c-0.02-0.01-0.03-0.05-0.05-0.06c-0.02-0.01-0.06,0-0.08-0.01c-0.02-0.01-0.03-0.05-0.05-0.06c-0.02-0.01-0.06,0-0.08-0.01
					c-0.02-0.01-0.03-0.05-0.05-0.06c-0.01-0.01-0.07-0.01-0.08-0.01c-0.02,0-0.06-0.01-0.08-0.01c0,0,0.05,0.06,0.05,0.06
					c0.01,0.01,0.05,0.06,0.05,0.06c0,0.01-0.07-0.02-0.08-0.01l-0.05-0.06l-0.05-0.06c-0.02-0.02-0.03-0.04-0.05-0.06
					c-0.01-0.01-0.04-0.05-0.05-0.06c-0.02-0.01-0.06,0-0.08-0.01c0,0,0.05,0.06,0.05,0.06c0,0-0.07-0.01-0.08-0.01
					c-0.01,0-0.04-0.06-0.05-0.06c-0.01-0.01-0.07-0.01-0.08-0.01c-0.02,0-0.06-0.01-0.08-0.01c-0.02-0.01-0.03-0.05-0.05-0.06
					c-0.02-0.01-0.06,0-0.08-0.01c-0.02-0.01-0.06,0-0.08-0.01c-0.01-0.01-0.04-0.06-0.05-0.06c-0.02-0.01-0.06-0.01-0.08-0.01
					l-0.07-0.01c-0.02-0.03-0.06-0.03-0.09-0.02c-0.02,0-0.05-0.01-0.07-0.01c0,0-0.01-0.01-0.01-0.01c0-0.01,0.01-0.02,0.01-0.03
					l-0.02,0.01c-0.01-0.01-0.02-0.03-0.02-0.03c0,0-0.01,0-0.01,0l-0.02-0.06c-0.02,0.01-0.03,0.03-0.04,0.05c0,0,0,0,0,0
					c-0.02-0.01-0.04-0.01-0.06-0.01c0-0.01,0.01-0.02,0.01-0.03l-0.05-0.04c-0.03,0.01-0.06,0.03-0.09,0.05
					c-0.01,0-0.03,0-0.04-0.01c0,0,0,0.01,0.01,0.02c0,0-0.01,0-0.01,0.01L114,0.53l0.04-0.06c0.01-0.1-0.03-0.09-0.08-0.09
					c0,0-0.01-0.01-0.01-0.01c-0.01-0.01-0.05-0.05-0.06-0.05c0,0,0,0,0,0c0-0.01,0-0.02,0.01-0.04c-0.03,0.01-0.04,0.02-0.06,0.04
					c-0.02,0-0.04,0-0.04,0c0,0,0.01,0.01,0.03,0.02c0,0.01-0.01,0.02-0.01,0.03c-0.02,0-0.03,0-0.04,0c0.01,0,0.02,0.01,0.03,0.02
					c0,0.01-0.01,0.03-0.01,0.04c-0.03-0.01-0.06-0.01-0.09-0.02l0.02-0.04c0.02,0,0.04-0.01,0.05-0.01c-0.01,0-0.02-0.01-0.03-0.02
					l0.03-0.04c-0.05-0.01-0.07-0.11-0.16,0c0,0,0,0-0.01,0l-0.07-0.15c-0.03,0.04-0.07,0.05-0.11,0.03
					c-0.01,0.05,0.06,0.04,0.06,0.01l0.02,0.07l-0.07,0.05c-0.02,0-0.04,0-0.06,0l-0.06-0.06l0.02-0.13c-0.09,0.12-0.12,0-0.19-0.04
					l-0.07,0.08l-0.01-0.08l-0.06,0.03c0.04-0.01-0.01,0.06-0.02,0.06l0.02-0.11l-0.11,0.01l-0.01,0.04l-0.06,0.01
					c-0.01-0.03-0.03-0.09-0.08-0.03l-0.03,0.12c-0.05-0.05-0.07-0.1-0.06-0.19c-0.1-0.01-0.04,0.11-0.11,0.15
					c-0.03-0.02-0.01-0.1-0.07-0.09l-0.02,0.13l0.09-0.03l-0.07,0.12l-0.07-0.09l0.02-0.11c-0.03-0.01-0.08-0.03-0.13,0.01
					l-0.11-0.02c-0.06,0.01-0.07,0.11-0.06,0.13l-0.05,0.06l-0.01-0.09c-0.08,0.01-0.14,0.02-0.2,0.08
					c-0.09,0.1-0.11-0.03-0.17,0.03l-0.01,0.13c-0.06,0.06-0.11,0.07-0.16,0.04c-0.04,0.08-0.11,0.14-0.15,0.18
					c0.09,0.04,0.28-0.04,0.29,0.06c-0.03,0.04-0.08,0.12-0.03,0.15l-0.03,0.03c-0.06,0.05-0.11,0.02-0.11-0.04l-0.07,0.07
					c-0.04-0.01-0.07-0.05-0.01-0.12l-0.06,0.08l-0.05-0.04l0.07-0.12l-0.1,0.02l0,0.11l-0.07-0.01l-0.04,0.08l0.14,0.02l-0.07,0.11
					c0.03,0.19-0.13,0.12-0.21,0.22c0.07,0.02,0.11,0.07,0.17,0.09c-0.06,0.04-0.14,0.07-0.21,0.08c-0.01,0.04-0.02,0.08-0.03,0.12
					c0.03,0.04-0.07,0.13-0.01,0.17l0.08-0.03c0.01-0.13,0.03-0.26,0.14-0.18c0,0.06-0.06,0.02-0.08,0.08
					c0.05,0.05,0.08-0.06,0.11-0.03l-0.03,0.06c-0.06,0.02-0.08,0.1-0.08,0.17l-0.02-0.01l-0.08,0.04l-0.03-0.01l-0.05,0.07
					L111,1.91l0.06-0.08c0.08-0.04,0.05,0.09,0.04,0.12l-0.09,0.03l0.01,0.05l0.08-0.06c0.01,0.12-0.08,0.26-0.04,0.36
					c0.08-0.06,0.06,0.06,0.04,0.14c0.08,0.03,0.06,0.25,0.16,0.24l0.05-0.1c0.09,0.04-0.02,0.25-0.02,0.33
					c0.18-0.16,0.03-0.19,0.08-0.34l0.12,0l-0.02,0.03c-0.06,0.05-0.02,0.1,0,0.14c-0.09,0.04-0.11,0.15-0.1,0.21l0.06-0.02
					l0.01,0.01c0.09-0.04,0.03-0.19,0.15-0.3c-0.03,0.1,0.01,0.14,0.01,0.21c-0.14,0.04-0.07,0.18-0.06,0.26
					c0.12,0.03,0.09,0.27,0.29,0.17l0.12,0.14c0.07,0.06,0.09-0.07,0.14-0.1c0,0,0.01,0.01,0.01,0.01c0,0,0.01,0,0.02,0.01
					c-0.02,0.04,0,0.05-0.02,0.11c0.02,0.02,0.07,0.04,0.08-0.03c-0.01-0.02,0.02-0.06,0.05-0.08c0.01,0.01,0.02,0.03,0.02,0.03
					c0,0,0.01,0.01,0.01,0.01c0,0.07-0.01,0.15-0.03,0.22c0.06-0.04,0.11-0.08,0.17-0.11c0,0.01,0.01,0.02,0.02,0.03
					c0.01,0.01,0.03,0.01,0.05,0.01c-0.01,0.05-0.01,0.1,0.05,0.1c0.01-0.01,0.02-0.02,0.03-0.03c0.02,0.02,0.03,0.05,0.04,0.07
					c0.01,0.01,0.03,0.06,0.04,0.07c0.01,0.01,0.06,0.02,0.08,0.02c0.01,0,0.06,0.01,0.08,0.02c0.01,0.01,0.04,0.06,0.04,0.07
					c0.02,0.01,0.05,0.01,0.08,0.02l0.15,0.04c0,0.01,0.05,0.06,0.04,0.07c-0.01,0-0.06-0.01-0.08-0.02c-0.01,0-0.07-0.02-0.08-0.02
					s0.04,0.06,0.04,0.07l0.05,0.07l0.08,0.02l0.08,0.02c0.02,0,0.05,0.01,0.08,0.02c0.01,0,0.04,0.06,0.05,0.07
					c0.02,0.01,0.06,0.01,0.08,0.02c0.02,0.01,0.03,0.05,0.05,0.07c0.02,0.01,0.06,0.01,0.08,0.02c0.01,0,0.06,0.01,0.08,0.02
					c0.02,0.01,0.02,0.05,0.05,0.07c0.01,0.01,0.04,0.06,0.04,0.07c0.01,0.01,0.03,0.05,0.05,0.07c0.01,0.01,0.07,0.02,0.08,0.02
					c0.01,0,0.06,0.01,0.08,0.02c0.01,0.01,0.04,0.06,0.05,0.07c0,0-0.07-0.02-0.08-0.02c0,0,0.04,0.06,0.04,0.07
					c0.01,0,0.07,0.02,0.08,0.02l0.15,0.04c0,0.01,0.05,0.06,0.04,0.07c-0.01,0.01-0.07-0.02-0.08-0.02c-0.01,0,0.05,0.06,0.04,0.07
					c0,0-0.08-0.02-0.08-0.02c0,0.01,0.04,0.06,0.05,0.07c0.02,0.01,0.06,0.01,0.08,0.02c0.02,0.01,0.03,0.05,0.05,0.07l0.08,0.02
					C114.3,4.99,114.34,5,114.35,5c0,0,0.04,0.06,0.05,0.07c0.01,0.01,0.03,0.06,0.04,0.07c0.01,0.01,0.07,0.02,0.08,0.02l0.08,0.02
					l0.08,0.02l0.15,0.04c0.01,0.02,0.04,0.05,0.04,0.07c0,0.01,0.05,0.06,0.04,0.07c-0.01,0.01-0.07-0.02-0.08-0.02
					c-0.01,0.01-0.07-0.03-0.08-0.02c0,0,0.04,0.06,0.04,0.07c0.01,0.01,0.06,0.01,0.08,0.02c0.01,0.01,0.03,0.06,0.04,0.07
					c0.02,0.01,0.06,0.01,0.08,0.02c0.01,0,0.06,0.01,0.08,0.02c0.02,0.01,0.03,0.06,0.05,0.07c0.02,0.01,0.05,0,0.08,0.02
					c0.02,0.01,0.03,0.05,0.05,0.07c0.02,0.01,0.05,0.01,0.08,0.02c0.02,0.01,0.03,0.05,0.04,0.07c0.01,0.01,0.07,0.02,0.08,0.02
					c0.01,0,0.07,0.01,0.08,0.02c0.01,0.01,0.04,0.06,0.04,0.07c0,0.01,0.04,0.06,0.05,0.07c0.02,0.01,0.06,0.01,0.08,0.02
					l0.08,0.02l0.08,0.02L115.97,6c0.01,0.02,0.04,0.05,0.05,0.07c0,0-0.07-0.02-0.08-0.02c-0.01,0-0.07-0.02-0.08-0.02
					c0,0,0.04,0.06,0.04,0.07c0.01,0.02,0.03,0.05,0.05,0.07c0,0,0.07,0.02,0.08,0.02c0.02,0,0.05,0.01,0.08,0.02
					c0.01,0.01,0.03,0.06,0.04,0.07c0.02,0.01,0.06,0.01,0.08,0.02c0.02,0.01,0.03,0.05,0.05,0.07c0.02,0.01,0.04,0.05,0.04,0.07
					c0.01,0.02,0.03,0.05,0.05,0.07c0.01,0.01,0.06,0.01,0.08,0.02c0.02,0.01,0.02,0.05,0.04,0.07c0.01,0.01,0.06,0.02,0.08,0.02
					l0.08,0.02c0.01,0,0.06,0.01,0.08,0.02c0.01,0.01,0.04,0.06,0.04,0.07c0.01,0.02,0.03,0.05,0.05,0.07
					c0.01,0.01,0.06,0.01,0.08,0.02c0.02,0.01,0.03,0.05,0.05,0.07c0.01,0.01,0.06,0.02,0.08,0.02c0.02,0.01,0.05,0.01,0.08,0.02
					c0,0,0.01,0.01,0.02,0.02c0.1,0.01,0.19,0.02,0.21,0.13c0,0.01,0.01,0.01,0.01,0.01c0.02,0.01,0.06,0.01,0.08,0.02
					c0.02,0.01,0.03,0.05,0.04,0.07c0.02,0.01,0.06,0.01,0.08,0.02c0.01,0,0.06,0.01,0.08,0.02c0.02,0.01,0.03,0.05,0.05,0.07
					c0,0-0.08-0.02-0.08-0.02c0,0,0.04,0.06,0.05,0.07c0.01,0.01,0.02,0.01,0.03,0.01l0.08-0.21c0.01,0.09,0.02,0.19,0.01,0.29
					c0.02,0.01,0.05,0,0.07,0.02c0.02,0.01,0.03,0.05,0.05,0.07c0.02,0.01,0.05,0.01,0.08,0.02c0.02,0.01,0.03,0.05,0.04,0.06
					c0.03,0,0.06,0,0.1,0.01l0.01,0.02c0.02,0,0.04,0.01,0.04,0.01c0.02,0.01,0.03,0.05,0.04,0.07c0.01,0.01,0.02,0.01,0.04,0.01
					l0.26-0.25c0.04,0.15-0.01,0.36,0.03,0.48c0.01,0,0.03,0.01,0.04,0.01l0.15,0.04c0.01,0.01,0.01,0.02,0.02,0.03
					c0.14-0.02,0.32-0.07,0.35,0.04l0.07-0.13c0.07,0.13,0,0.27-0.07,0.41l0.01,0c0.01,0,0.06,0.01,0.08,0.02
					c0.01,0,0.04,0.06,0.05,0.07c0.01,0.02,0.03,0.05,0.04,0.07c0.01,0.01,0.06,0.01,0.08,0.02c0.01,0.01,0.01,0.02,0.02,0.02
					l0.02-0.01l0.02,0.07c0.01,0.02,0.02,0.04,0.04,0.06c0.02,0.01,0.06,0,0.08,0.02c0.02,0.01,0.03,0.05,0.05,0.07
					c0.01,0.01,0.03,0.01,0.05,0.01l0.01-0.02c-0.01-0.02-0.03-0.04-0.03-0.04c0,0,0.02,0,0.03,0.01l0.05-0.19
					c0.25-0.1,0.26,0.43,0.55,0.09c0.14,0.27,0.34,0.59,0.66,0.56l0.11,0.4l0.29-0.22c-0.16,0.54,0.23,0.19,0.31,0.34l-0.13,0.33
					c0.08,0.16,0.67-0.33,0.44,0.13c0.16,0.44,0.88-0.06,0.79,0.68l0.45-0.11c0.01,0.15,0.01,0.32,0,0.49
					c0.02,0.01,0.04,0.01,0.05,0.01c0.02,0,0.05,0.01,0.08,0.02l0.05,0.01c0.02-0.04,0.05-0.07,0.09-0.11
					c0.07,0.2,0.4,0.05,0.48,0.21c0.06,0.14-0.01,0.26-0.09,0.37c0.01,0.01,0.01,0.02,0.02,0.02c0.01,0.01,0.03,0.06,0.04,0.07
					c0.01,0.01,0.07,0.02,0.08,0.02l0.02,0.01c0.09-0.13,0.17-0.25,0.26-0.19c-0.02,0.1-0.03,0.2-0.03,0.3c0.01,0,0.02,0,0.02,0
					c0.01,0,0.06,0.01,0.08,0.02c0.02,0.01,0.03,0.05,0.04,0.07c0.01,0.01,0.07,0.01,0.08,0.02c0.02,0.02,0.03,0.05,0.05,0.07
					c0.01,0.01,0.03,0.05,0.05,0.07c0.01,0.01,0.06,0.01,0.08,0.02c0.02,0.01,0.03,0.05,0.04,0.07s0.02,0.05,0.05,0.07
					c0.02,0.01,0.06,0,0.08,0.02c0,0-0.05-0.06-0.05-0.07c0,0,0.07,0.02,0.08,0.02c0.02,0,0.05,0.01,0.08,0.02
					c0.01,0.01,0.03,0.06,0.04,0.07c0.02,0.01,0.06,0.01,0.08,0.02c0.02,0.02,0.03,0.05,0.05,0.07c0.02,0.02,0.03,0.05,0.05,0.07
					l0.04,0.07l0.05,0.07c0.01,0.02,0.03,0.05,0.04,0.07c0,0,0.07,0.02,0.08,0.02c0.01,0,0.06,0.01,0.08,0.02
					c0.01,0.01,0.04,0.06,0.04,0.07c0,0-0.08-0.02-0.08-0.02c-0.01,0.01,0.05,0.06,0.05,0.07c0.02,0.02,0.02,0.05,0.04,0.07
					c0.01,0,0.07,0.02,0.08,0.02c0.01,0-0.05-0.06-0.04-0.07c0,0,0.07,0.02,0.08,0.02c0.02,0,0.06,0.02,0.08,0.02
					c0.01,0-0.05-0.06-0.04-0.07c0-0.01,0.06,0.02,0.08,0.02c0.02,0,0.05,0.01,0.08,0.02l0.08,0.02c0,0.01,0.05,0.06,0.05,0.07
					c-0.01,0-0.06-0.01-0.08-0.02c-0.02,0-0.06-0.02-0.08-0.02c-0.01,0,0.05,0.06,0.05,0.07c0,0.01-0.07-0.03-0.08-0.02
					c-0.01,0.01,0.05,0.06,0.04,0.07l0.08,0.02l0.08,0.02c0.02,0,0.06,0.01,0.08,0.02c0.01,0.01,0.03,0.06,0.05,0.07
					c0.02,0.01,0.06,0.01,0.08,0.02c0.01,0.01,0.04,0.06,0.05,0.07c0,0-0.07-0.02-0.08-0.02c0,0,0.04,0.06,0.04,0.07
					c0.02,0.01,0.06,0.02,0.08,0.02l0.08,0.02l0.15,0.04c0.01,0.02,0.04,0.05,0.05,0.07c0,0.01,0.05,0.06,0.04,0.07
					c0,0.01-0.08-0.03-0.08-0.02c0,0.01,0.03,0.05,0.05,0.07c0.01,0.01,0.03,0.05,0.04,0.07c0.01,0.01,0.07,0.02,0.08,0.02
					l0.08,0.02c0.02,0,0.05,0.01,0.08,0.02c0.01,0,0.03,0.06,0.04,0.07c0.02,0.01,0.06,0.01,0.08,0.02
					c0.02,0.01,0.02,0.05,0.05,0.07c0.02,0.01,0.06,0.01,0.08,0.02c0.02,0.01,0.03,0.05,0.05,0.07c0.02,0.01,0.06,0,0.08,0.02
					c0.02,0.01,0.03,0.06,0.04,0.07c0.02,0.01,0.06,0.02,0.08,0.02l0.08,0.02c0.02,0,0.06,0.01,0.08,0.02
					c0.01,0.01,0.03,0.06,0.04,0.07c0.02,0.01,0.06,0.01,0.08,0.02c0.02,0.01,0.03,0.05,0.05,0.07l-0.08-0.02
					c-0.02-0.01-0.06-0.02-0.08-0.02c-0.01,0-0.07-0.02-0.08-0.02c0,0,0.04,0.06,0.04,0.07c0.01,0.01,0.06,0.01,0.08,0.02
					c0.02,0.02,0.02,0.05,0.05,0.07c0.01,0.01,0.07,0.02,0.08,0.02c0.01,0,0.06,0.01,0.08,0.02c0.02,0.01,0.03,0.05,0.05,0.07
					c0.02,0.01,0.06,0.01,0.08,0.02c0.02,0.01,0.03,0.05,0.04,0.07c0.02,0.01,0.06,0.01,0.08,0.02c0.02,0.01,0.03,0.05,0.04,0.07
					c0.02,0.02,0.02,0.05,0.05,0.07c0.02,0.01,0.06,0.01,0.08,0.02l-0.05-0.07c0,0,0.07,0.02,0.08,0.02c0.01,0,0.07,0.01,0.08,0.02
					c0.01,0.01,0.04,0.06,0.05,0.07c0.01,0.02,0.04,0.05,0.05,0.07c0,0.01-0.07-0.02-0.08-0.02c0,0,0.04,0.06,0.05,0.07
					c0.01,0.01,0.06,0.02,0.08,0.02l0.08,0.02l0.08,0.02l0.08,0.02c0.02,0.01,0.05,0.01,0.08,0.02c0.01,0,0.03,0.06,0.04,0.07
					c0.02,0.01,0.05,0.01,0.08,0.02c0.02,0.01,0.06,0,0.08,0.02c0.02,0.01,0.03,0.05,0.04,0.07c0,0,0.05,0.06,0.05,0.07
					c0,0.01-0.07-0.03-0.08-0.02c0,0,0.04,0.06,0.05,0.07c0,0,0.08,0.02,0.09,0.02c0.01,0.01,0.05,0.05,0.06,0.06
					c0.01,0.01,0.04,0.05,0.06,0.06c0.01,0,0.08,0,0.09,0c0.01,0,0.08,0,0.09,0c0.02,0,0.06,0.04,0.08,0.04
					c0.03,0,0.07-0.01,0.1-0.01c0.02,0,0.08-0.02,0.1-0.02c0.02,0,0.06,0.03,0.08,0.02c0.03,0,0.06,0.01,0.09,0.02
					c0.01,0,0.08,0.02,0.09,0.01c0.03-0.01,0.08-0.04,0.1-0.05c0.02-0.01,0.09-0.04,0.1-0.05c0.01,0,0.07-0.01,0.1-0.01
					c0.02,0,0.07,0,0.1-0.01c0.02-0.01,0.08-0.06,0.1-0.07c0.03-0.01,0.07-0.01,0.1-0.03c0.03-0.02,0.07-0.06,0.1-0.08
					c0.02-0.01,0.08-0.02,0.1-0.04c0.01-0.01,0.08-0.08,0.1-0.08c0,0,0.01-0.01,0.02-0.01c0.01-0.01,0.02-0.02,0.03-0.03
					c0.02-0.02,0.03-0.03,0.04-0.04c0.01-0.01,0.03-0.02,0.05-0.03l0,0c0.1-0.01,0.18-0.01,0.26-0.08c0.12-0.12,0.14,0.05,0.22-0.02
					l0.02-0.18c0.08-0.07,0.15-0.08,0.21-0.03c0.05-0.1,0.15-0.17,0.21-0.22c-0.08-0.05-0.24-0.02-0.32-0.05
					c0.02-0.03,0.04-0.06,0.05-0.08c0.01-0.01,0.03-0.03,0.05-0.05c0,0.03,0,0.05,0.02,0.06c0.02-0.03,0.02-0.07,0.03-0.1
					c0,0,0,0,0,0c0.01-0.01,0.02-0.03,0.03-0.05l0.1-0.09c0.05,0.01,0.08,0.07,0.01,0.16l0.08-0.1l0.06,0.06l-0.11,0.15l0.13-0.01
					l0.02-0.14l0.09,0.02L131.84,13.97z M112.63,0.8c0,0,0.01-0.01,0.02-0.02c0,0.02,0,0.04,0,0.06c-0.01,0.01-0.02,0.02-0.03,0.04
					c-0.01,0-0.01,0-0.02,0l0-0.06C112.61,0.82,112.63,0.81,112.63,0.8z M112.61,0.73c0,0-0.01,0.01-0.01,0.01
					C112.6,0.74,112.6,0.73,112.61,0.73L112.61,0.73z M111.69,2.18l-0.03-0.04l-0.05,0.01l0.11-0.08
					C111.69,2.12,111.78,2.15,111.69,2.18z M112.5,0.61c0.06,0,0.05,0.07,0.06,0.12h0c-0.02,0.03-0.05,0.06-0.06,0.08
					c-0.01-0.04,0.02-0.14-0.02-0.18c-0.01,0.06-0.05,0.16-0.09,0.13C112.36,0.7,112.46,0.62,112.5,0.61z M112.06,1.33l-0.01-0.06
					l0.1-0.02C112.16,1.3,112.08,1.32,112.06,1.33z M111.61,1.58c0.01,0.01,0.02,0.01,0.03,0.01l0.01,0l-0.01,0.08
					c-0.02-0.02-0.04-0.04-0.05-0.07C111.6,1.6,111.61,1.59,111.61,1.58z M112.07,0.72c0.07-0.05,0.08-0.13,0.08-0.19l0.09-0.02
					c-0.07,0.11-0.05,0.22-0.15,0.3l-0.05-0.09l-0.13,0.02l0.03-0.06L112.07,0.72z M111.81,1.08c0,0-0.08,0.04-0.08,0.04
					c-0.01,0-0.07,0-0.08,0c-0.01,0-0.08-0.01-0.07-0.01c0,0,0.02,0,0.04-0.01c0.02,0,0.04-0.01,0.04-0.01
					c0.03-0.01,0.05-0.02,0.08-0.03c0.03,0,0.05,0,0.08-0.01c-0.01,0-0.07,0.04-0.08,0.04C111.74,1.1,111.81,1.08,111.81,1.08z
					 M111.93,0.44L111.93,0.44c0.02-0.01,0.04-0.02,0.06-0.03c0.01,0.02,0.01,0.03,0.03,0.04C112.01,0.46,112,0.47,112,0.48l0,0.02
					c0.04-0.03,0.04,0.01,0.05,0.03l0,0C111.93,0.6,111.94,0.51,111.93,0.44z M111.8,0.66l0.04,0.1l-0.04,0.04l0.01,0.05l-0.05-0.03
					l-0.02,0.03C111.73,0.77,111.77,0.71,111.8,0.66z M111.28,1.83l-0.02-0.04l0.08-0.11C111.39,1.7,111.33,1.79,111.28,1.83z
					 M111.35,1.44l0.12-0.19c-0.01,0.12,0.21-0.04,0.17,0.14C111.55,1.45,111.43,1.45,111.35,1.44z M111.54,2.51
					c-0.06-0.05,0.03-0.18-0.05-0.2c-0.09,0.11-0.09,0.13-0.07,0.22l-0.08-0.05l0.02-0.12c-0.14,0.11-0.08-0.07-0.1-0.13l0.04-0.09
					l-0.04-0.05l-0.06,0.08l-0.04,0.01c0.05-0.07,0.15-0.14,0.17-0.09l0.05-0.06l-0.05-0.06l-0.03,0.05l-0.01-0.09l0.06,0.02
					c0.06-0.06,0.09-0.14,0.17-0.16c0.05,0.05,0.15-0.07,0.16,0.02c0.13,0.02-0.08,0.12-0.05,0.2l-0.04-0.04
					c-0.21-0.3-0.2,0.14-0.13,0.09l-0.04,0.05c-0.01-0.05-0.09-0.04-0.11,0.02l0.04,0.1c0.04-0.05,0.1-0.03,0.14-0.02
					c0.01,0.09,0.11,0.06,0.14,0.14l0.02-0.02l0.03,0.08C111.66,2.37,111.59,2.44,111.54,2.51z M111.67,2.67
					c-0.05,0.01-0.05-0.07-0.04-0.12l0.04-0.05C111.71,2.53,111.74,2.61,111.67,2.67z M111.76,2.72c0.01-0.04,0.02-0.07,0.04-0.09
					c0,0.02,0,0.05,0,0.06c0,0.01-0.01,0.02-0.01,0.03L111.76,2.72z M111.9,3.01l-0.09,0.04c-0.07,0-0.01-0.13-0.07-0.14L111.68,3
					c-0.03-0.04-0.02-0.1,0.04-0.14l0.12,0l0.01-0.05c0.01,0.01,0.02,0.03,0.02,0.04c0,0,0,0.01,0,0.02l-0.04,0.13l0.05-0.03
					C111.9,2.98,111.9,2.99,111.9,3.01C111.9,3.01,111.9,3.01,111.9,3.01z M119.47,8.14l0.04-0.04l0,0.08
					C119.47,8.23,119.47,8.16,119.47,8.14z M119.91,7.81l0.06-0.05l0,0.11C119.9,7.92,119.91,7.83,119.91,7.81z M120.17,7.94
					l0.07,0.01l-0.08,0.2C120.15,8.09,120.12,8.09,120.17,7.94z M120.86,8.79c0.09-0.05,0,0.18,0.11,0.12l-0.02,0.03
					C120.88,8.95,120.77,8.9,120.86,8.79z M130.93,13.1c-0.02,0.02-0.03,0.03-0.06,0.02l0.02-0.05L130.93,13.1z M130.32,14.02
					c-0.01,0-0.01-0.02-0.01-0.03l-0.03-0.01c0.02,0,0-0.04,0.02-0.03l0,0.03l0.01-0.01C130.34,13.97,130.31,14.01,130.32,14.02
					c0.01-0.02,0.02-0.04,0.03-0.03C130.36,14,130.33,14.02,130.32,14.02z M130.83,13.37l0.04-0.08l0.04,0.02
					C130.9,13.35,130.85,13.41,130.83,13.37z M130.9,14.02c-0.03,0.02-0.04,0.06-0.04,0.08l-0.04,0c0.03-0.05,0.03-0.1,0.07-0.13
					l0.02,0.04l0.06,0l-0.02,0.03L130.9,14.02z M132.03,12.63l-0.15,0C131.99,12.47,132.05,12.45,132.03,12.63z M131.55,13.41
					c0.01-0.07-0.11,0.01-0.08-0.09c0.05-0.03,0.11-0.02,0.15-0.01L131.55,13.41z M132.06,12.69
					C132.06,12.69,132.06,12.68,132.06,12.69c0,0,0,0.01,0,0.02C132.06,12.7,132.06,12.69,132.06,12.69z M131.94,13.4
					c0-0.05,0.02-0.08,0.05-0.13l0.03,0C132,13.33,131.99,13.38,131.94,13.4z"/>
			</g>
		</g>
	</g>
	<g>
		<g>
			<g>
				<path d="M131.45,16.62c0,0-0.05,0.07-0.04,0.06c0.01,0,0.07-0.01,0.08-0.02c0.01-0.01,0.04-0.06,0.04-0.06
					c0.01-0.01,0.05-0.06,0.04-0.06c-0.01-0.01-0.07,0.02-0.08,0.02c-0.02,0.01-0.06,0.01-0.08,0.02c-0.01,0.01-0.04,0.06-0.04,0.06
					C131.38,16.65,131.45,16.62,131.45,16.62z"/>
				<path d="M132.53,11.14c-0.07-0.01-0.04,0.09,0.01,0.16l0.08-0.03L132.53,11.14z"/>
				<path d="M132.9,11.42c-0.05,0.03-0.04,0.05-0.03,0.1l0.1-0.01L132.9,11.42z"/>
				<path d="M133.64,13.09l0.07,0.03l-0.04-0.11C133.64,12.96,133.63,13.05,133.64,13.09z"/>
				<path d="M131.7,10.85c-0.03,0.07-0.04,0.05-0.01,0.17l0.06,0L131.7,10.85z"/>
				<path d="M133.29,11.95c-0.07,0.04,0.06,0.13,0.08,0.16C133.36,12.05,133.36,11.99,133.29,11.95z"/>
				<path d="M132.89,11.78l0.16,0.01c0.06,0.04,0.11,0.08,0.08,0.02l-0.06-0.04C133.01,11.69,132.94,11.76,132.89,11.78z"/>
				<path d="M125.85,20.53c0,0,0-0.01,0.01-0.02c-0.09-0.06-0.15,0-0.18,0.12c0.02-0.01,0.05-0.02,0.05-0.01
					c0.01,0-0.02,0.04-0.04,0.05c0,0,0.01,0.01,0.01,0.01c0.02-0.01,0.06-0.02,0.06-0.02c0.02-0.02,0.02-0.05,0.04-0.06
					c0.01-0.01,0.06-0.01,0.08-0.02c0.01,0,0.01-0.02,0.02-0.03c-0.01-0.01-0.02-0.02-0.03-0.02
					C125.86,20.52,125.85,20.53,125.85,20.53z"/>
				<path d="M121.83,23.36c-0.01,0.01-0.07,0.02-0.08,0.02c-0.01,0.01-0.04,0.06-0.04,0.06c0,0,0.07-0.02,0.08-0.02
					c0.02-0.01,0.06-0.01,0.08-0.02c0.01-0.01,0.04-0.06,0.04-0.06c0.01-0.01,0.05-0.06,0.04-0.06c-0.01-0.01-0.07,0.03-0.08,0.02
					C121.86,23.31,121.85,23.35,121.83,23.36z"/>
				<path d="M126.51,13.93c0.01-0.02,0.03-0.05,0.04-0.07c0-0.01,0.04-0.06,0.04-0.07c0,0-0.06,0.02-0.07,0.03
					c0,0-0.03,0.06-0.04,0.07c-0.01,0.01-0.06,0.01-0.07,0.03c-0.02,0.02-0.02,0.05-0.04,0.07c0.02-0.01,0.05-0.02,0.07-0.03
					C126.45,13.96,126.51,13.93,126.51,13.93z"/>
				<path d="M124.08,21.65c0,0,0.07-0.02,0.08-0.02c0.02-0.01,0.02-0.05,0.04-0.06c0,0-0.08,0.02-0.08,0.02
					S124.08,21.65,124.08,21.65z"/>
				<path d="M127.08,13.35c-0.02,0.02-0.02,0.05-0.04,0.07c0,0,0.07-0.03,0.07-0.03c0,0,0.04-0.07,0.04-0.07
					S127.08,13.35,127.08,13.35z"/>
				<path d="M114.22,27.51c0.01,0.01,0.03,0.01,0.04,0.02c0.01,0,0.01-0.01,0.02-0.01c-0.02-0.01-0.04-0.03-0.07-0.06L114.22,27.51z
					"/>
				<path d="M114.78,27.62L114.78,27.62c-0.01,0.02-0.02,0.03-0.03,0.03c0.01,0,0.01,0.01,0.02,0.02c0.03,0,0.06-0.01,0.08-0.03
					L114.78,27.62z"/>
				<path d="M113.69,27.01l0.07,0.08c0.07-0.08,0.03-0.12,0.02-0.19L113.69,27.01z"/>
				<polygon points="113.51,26.19 113.5,26.2 113.51,26.26 113.55,26.23 				"/>
				<path d="M114.43,27.59l0.05,0.01c0-0.02,0.01-0.08-0.04-0.09L114.43,27.59z"/>
				<polygon points="113.54,26.33 113.48,26.35 113.53,26.39 				"/>
				<path d="M113.57,26.45l-0.02,0.01c0.11,0.05,0.01,0.18,0.1,0.22C113.74,26.66,113.64,26.51,113.57,26.45z"/>
				<path d="M114.08,27.09l0.01,0.08C114.1,27.16,114.11,27.12,114.08,27.09L114.08,27.09z"/>
				<path d="M113.77,26.83c-0.06-0.04-0.06-0.02-0.08-0.01l0.08,0.05L113.77,26.83z"/>
				<path d="M113.96,27.46l0.06,0.01c0-0.02,0.01-0.1-0.05-0.12L113.96,27.46z"/>
				<path d="M114.93,27.8c0.03-0.01,0.05-0.04,0.06-0.08c-0.03,0.02-0.05,0.05-0.08,0.07C114.92,27.79,114.92,27.79,114.93,27.8z"/>
				<polygon points="113.27,26.35 113.27,26.35 113.27,26.35 				"/>
				<path d="M114.13,27.26c-0.04-0.03-0.08-0.05-0.06-0.01l0.04,0.03c0.05,0.06,0.09,0,0.13-0.02L114.13,27.26z"/>
				<path d="M115.06,27.65c0.01,0.02,0.07,0.08,0.1,0.06C115.13,27.68,115.07,27.65,115.06,27.65z"/>
				<path d="M114.04,26.68c-0.01-0.02-0.08-0.07-0.1-0.04C113.97,26.67,114.02,26.69,114.04,26.68z"/>
				<path d="M115.35,27.24l-0.03,0.11C115.44,27.4,115.44,27.35,115.35,27.24z"/>
				<path d="M123.31,22.25c0.07-0.08,0.03-0.12,0.02-0.19l-0.09,0.11L123.31,22.25z"/>
				<path d="M122.71,22.53c0.11,0.05,0.01,0.18,0.1,0.22c0.09-0.03-0.01-0.18-0.08-0.23L122.71,22.53z"/>
				<path d="M123.26,22.47c0.01,0.02,0.07,0.08,0.1,0.06C123.33,22.49,123.28,22.46,123.26,22.47z"/>
				<path d="M124.44,21.31c0.03,0.01,0.08,0.01,0.08-0.02C124.51,21.28,124.43,21.26,124.44,21.31z"/>
				<path d="M133.15,11.9l-0.1,0.15l-0.09-0.14c-0.27-0.08-0.03-0.24-0.2-0.41c-0.07-0.04-0.18-0.11-0.29-0.19
					c-0.07,0.01-0.12-0.15-0.2-0.1l-0.01,0.11c0.01,0,0.02,0.01,0.02,0.01l0.01-0.03l0.01,0.04c0.14,0.08,0.26,0.16,0.11,0.23
					c-0.07-0.04,0.01-0.08-0.06-0.13c-0.01,0-0.02,0.01-0.02,0.01l0.01,0.02c0-0.01-0.01-0.01-0.01-0.01
					c-0.01,0.02,0,0.04,0.01,0.06c0,0,0,0,0,0c-0.02-0.02-0.04-0.03-0.07-0.04c0-0.01-0.01-0.02-0.02-0.04
					c-0.02,0-0.03-0.01-0.03-0.04c-0.03-0.03-0.07-0.05-0.11-0.07l0.02-0.02l0-0.01c0.01,0,0.01,0.01,0.02,0.01
					c0.03,0.01,0.06,0.03,0.09,0.05l0.01,0c-0.04-0.04-0.08-0.08-0.12-0.11l0-0.04l0.02-0.03l-0.06-0.1l-0.04,0.04l0.07,0.11
					c0,0,0,0.01,0,0.01c-0.02-0.02-0.04-0.04-0.06-0.06c-0.03-0.02-0.07-0.03-0.1-0.04l0.01-0.05l-0.06-0.01l0.01,0.05
					c-0.02-0.01-0.05-0.02-0.07-0.03c-0.03-0.01-0.05-0.02-0.08-0.03c0.01,0.01,0.02,0.01,0.03,0.02l0.05,0.08
					c-0.06,0.03-0.18,0.02-0.22-0.1c0.01-0.03,0.03-0.03,0.06-0.03c-0.06-0.04-0.12-0.08-0.17-0.08c0.01,0.02,0,0.03,0,0.04
					c-0.03-0.02-0.07-0.05-0.08-0.05c-0.02-0.01-0.04-0.03-0.07-0.04c0.02,0.04,0.03,0.09-0.01,0.09l0.02,0.04l0.05-0.01l-0.02-0.03
					l0.06,0.02l-0.03,0.03c0.02,0.05,0.06,0.09,0.05,0.14c-0.04,0.01,0,0.1-0.05,0.08c-0.05,0.07-0.05-0.08-0.11-0.08l0.04-0.01
					c0.24-0.04-0.03-0.15-0.02-0.1l-0.02-0.04c0.03,0.01,0.05-0.04,0.02-0.07l-0.07-0.01c0.02,0.04-0.01,0.07-0.02,0.09
					c-0.06-0.02-0.07,0.05-0.12,0.04l0,0.02l-0.06,0c0.03-0.01,0.01-0.06-0.02-0.11c0.05-0.02,0.1,0.07,0.14,0.02
					c-0.04-0.08-0.06-0.08-0.12-0.1l0.05-0.03l0.07,0.04c-0.03-0.11,0.06-0.03,0.11-0.02l0.04,0.05l0.04-0.01l-0.03-0.05l0-0.01
					c-0.01,0-0.01-0.01-0.02-0.01c-0.02-0.01-0.08,0-0.1-0.01c-0.03-0.01-0.07-0.04-0.11-0.05c-0.02,0-0.08,0.01-0.09,0.01
					c-0.01,0-0.07,0.02-0.09,0.01c-0.02,0-0.09-0.03-0.11-0.03c-0.02-0.01-0.09-0.02-0.1-0.02c-0.03,0-0.05,0.03-0.08,0.03
					c-0.02,0-0.08-0.02-0.1-0.01c-0.03,0.01-0.05,0.03-0.08,0.04c-0.03,0.01-0.04,0.04-0.07,0.05c-0.03,0.01-0.07-0.01-0.1,0
					c-0.03,0.01-0.04,0.05-0.06,0.06c-0.03,0.01-0.06,0-0.09,0.01c0,0,0.06-0.06,0.06-0.06s-0.09,0.01-0.09,0.02
					c-0.02,0.01-0.04,0.06-0.05,0.07l-0.05,0.07c-0.01,0.01-0.03,0.06-0.04,0.07c-0.01,0.01-0.06,0.02-0.07,0.03
					c-0.01,0-0.07,0.02-0.07,0.03c-0.02,0.02-0.03,0.05-0.04,0.07c-0.01,0.02-0.04,0.06-0.04,0.07c0,0.01,0.07-0.03,0.07-0.03
					c0,0-0.01,0.02-0.02,0.04l-0.18,0.05c-0.05,0.02-0.04,0.06-0.02,0.1c0,0,0,0.01,0,0.01c-0.01,0.01-0.07,0.03-0.07,0.03
					c-0.01,0,0.04-0.06,0.04-0.07c0-0.01-0.07,0.03-0.07,0.03c0-0.01,0.03-0.05,0.04-0.07c0.01-0.01,0.04-0.06,0.04-0.07
					c-0.01-0.01-0.06,0.03-0.07,0.03l-0.08,0.14l-0.04,0.07l-0.04,0.07c0,0.01-0.01,0.02-0.01,0.03c-0.03-0.02-0.05-0.03-0.07-0.05
					c0,0.04,0.01,0.07,0.02,0.1c-0.02,0-0.04,0.01-0.04,0.01c-0.02,0.02-0.02,0.05-0.04,0.07c-0.03,0.01-0.05,0.01-0.07,0.03
					c-0.01,0.01-0.06,0.02-0.07,0.03c-0.02,0.01-0.02,0.06-0.04,0.07c-0.01,0.01-0.06,0.02-0.07,0.03c-0.01,0-0.07,0.03-0.07,0.03
					c-0.01,0,0.04-0.06,0.04-0.07c-0.01-0.01-0.06,0.03-0.07,0.03c-0.02,0.01-0.06,0.01-0.07,0.03c-0.01,0.01-0.04,0.06-0.04,0.07
					c0,0,0.07-0.03,0.07-0.03c0,0-0.05,0.07-0.04,0.07c0.01,0,0.06-0.02,0.07-0.03l0.07-0.03c-0.02,0.02-0.02,0.05-0.04,0.07
					c-0.01,0.01-0.06,0.02-0.07,0.03c-0.02,0.01-0.02,0.06-0.04,0.07c-0.01,0.01-0.06,0.02-0.07,0.03c-0.01,0-0.07,0.03-0.07,0.03
					c-0.01,0,0.04-0.06,0.04-0.07c0,0-0.07,0.02-0.07,0.03c-0.01,0.01-0.03,0.06-0.04,0.07c-0.01,0.02-0.03,0.05-0.04,0.07
					c-0.01,0.01-0.04,0.06-0.04,0.07c0,0.01,0.07-0.03,0.07-0.03c0,0-0.03,0.06-0.04,0.07c-0.01,0.01-0.07,0.02-0.07,0.03
					l-0.07,0.03c-0.02,0.01-0.05,0.01-0.07,0.03c-0.01,0-0.03,0.06-0.04,0.07c-0.01,0.01-0.07,0.02-0.07,0.03
					c-0.01,0-0.07,0.02-0.07,0.03c-0.01,0.01-0.03,0.06-0.04,0.07c-0.01,0.02-0.02,0.05-0.04,0.07c-0.01,0.01-0.02,0.06-0.04,0.07
					c-0.02,0.02-0.05,0.01-0.07,0.03c0,0,0.04-0.07,0.04-0.07s-0.07,0.02-0.07,0.03c-0.01,0.01-0.03,0.06-0.04,0.07
					c-0.01,0.01-0.03,0.06-0.04,0.07c-0.02,0.02-0.06,0.01-0.07,0.03c-0.02,0.02-0.05,0.01-0.07,0.03
					c-0.02,0.01-0.02,0.06-0.04,0.07c-0.02,0.02-0.05,0.01-0.07,0.03c-0.01,0.01-0.02,0.06-0.04,0.07
					c-0.01,0.01-0.07,0.02-0.07,0.03c-0.01,0-0.06,0.02-0.07,0.03c-0.01,0.01-0.03,0.06-0.04,0.07c-0.01,0.01-0.03,0.06-0.04,0.07
					c-0.02,0.02-0.05,0.01-0.07,0.03c0,0-0.03,0.06-0.04,0.07c0,0-0.07,0.02-0.07,0.03c-0.02,0.01-0.03,0.05-0.04,0.07
					c-0.02,0.02-0.03,0.05-0.04,0.07c-0.01,0.01-0.03,0.06-0.04,0.07c-0.02,0.01-0.06,0.01-0.07,0.03c0,0,0.04-0.07,0.04-0.07
					c0,0-0.07,0.02-0.07,0.03c-0.01,0.01-0.03,0.06-0.04,0.07c-0.01,0.02-0.02,0.05-0.04,0.07c-0.01,0.01-0.02,0.06-0.04,0.07
					c-0.02,0.02-0.05,0.01-0.07,0.03c-0.02,0.02-0.05,0.01-0.07,0.03c0,0.01-0.04,0.06-0.04,0.07c0,0.01-0.03,0.06-0.04,0.07
					c-0.01,0.01-0.07,0.02-0.07,0.03c-0.02,0.02-0.03,0.05-0.04,0.07l-0.08,0.14c-0.01,0-0.07,0.03-0.07,0.03
					c0-0.01-0.07,0.03-0.07,0.03c-0.01-0.01,0.04-0.06,0.04-0.07c0-0.01,0.04-0.06,0.04-0.07c0,0-0.06,0.02-0.07,0.03
					c0,0-0.03,0.06-0.04,0.07c-0.02,0.02-0.06,0.01-0.07,0.03c-0.02,0.02-0.02,0.05-0.04,0.07c-0.02,0.02-0.05,0.01-0.07,0.03
					l-0.15,0.05c-0.01,0.02-0.03,0.05-0.04,0.07c-0.01,0.01-0.04,0.06-0.04,0.07c0.01,0.01,0.07-0.03,0.07-0.03
					c0,0.01,0.07-0.03,0.07-0.03c0,0-0.03,0.06-0.04,0.07l-0.04,0.07l-0.07,0.03c-0.02,0.01-0.05,0.01-0.07,0.03
					c-0.01,0.01-0.03,0.06-0.04,0.07c-0.01,0.01-0.06,0.02-0.07,0.03c-0.02,0.01-0.05,0.02-0.07,0.03c-0.01,0-0.06,0.02-0.07,0.03
					c-0.01,0.01-0.03,0.06-0.04,0.07c-0.01,0.02-0.02,0.05-0.04,0.07c-0.01,0.01-0.06,0.02-0.07,0.03
					c-0.02,0.01-0.02,0.06-0.04,0.07c-0.01,0.01-0.06,0.01-0.07,0.03c-0.01,0.02-0.03,0.05-0.04,0.07
					c-0.01,0.02-0.02,0.05-0.04,0.07c-0.01,0.02-0.02,0.05-0.04,0.07c-0.01,0.01-0.06,0.01-0.07,0.03
					c-0.02,0.02-0.02,0.05-0.04,0.07c-0.02,0-0.06,0.02-0.07,0.03c-0.02,0-0.05,0.02-0.07,0.03c-0.01,0-0.07,0.03-0.07,0.03
					c0,0,0.04-0.07,0.04-0.07c-0.02,0-0.05,0.02-0.07,0.03c-0.01,0-0.06,0.02-0.07,0.03c-0.01,0.01-0.03,0.06-0.04,0.07
					c0-0.01,0.07-0.02,0.07-0.03l-0.04,0.07l-0.04,0.07c-0.01,0.01-0.03,0.06-0.04,0.07c-0.01,0.01-0.06,0.02-0.07,0.03
					c-0.02,0.01-0.05,0.01-0.07,0.03c-0.02,0.01-0.06,0.01-0.07,0.03c-0.02,0.01-0.02,0.06-0.04,0.07
					c-0.02,0.02-0.05,0.01-0.07,0.03c-0.01,0.01-0.03,0.06-0.04,0.07c-0.01,0.02-0.02,0.05-0.04,0.07
					c-0.01,0.01-0.02,0.06-0.04,0.07c-0.02,0.02-0.05,0.01-0.07,0.03c-0.01,0.01-0.06,0.02-0.07,0.03c-0.01,0-0.06,0.02-0.07,0.03
					c-0.01,0.01-0.03,0.06-0.04,0.07c-0.01,0.01-0.03,0.06-0.04,0.07c-0.01,0.01-0.06,0.02-0.07,0.03c-0.01,0-0.07,0.02-0.07,0.03
					c-0.01,0.01-0.03,0.06-0.04,0.07c-0.01,0.01-0.03,0.06-0.04,0.07c-0.02,0.01-0.06,0.01-0.07,0.03
					c-0.02,0.02-0.02,0.05-0.04,0.07c-0.01,0.01-0.06,0.01-0.07,0.03c-0.01,0.01-0.03,0.06-0.04,0.07c0,0,0.07-0.03,0.07-0.03
					c0,0-0.03,0.06-0.04,0.07l-0.04,0.07c-0.01,0-0.07,0.03-0.07,0.03c0,0,0.05-0.07,0.04-0.07c-0.01,0-0.06,0.02-0.07,0.03
					l-0.07,0.03c-0.01,0-0.06,0.01-0.07,0.03c-0.01,0-0.03,0.06-0.04,0.07l-0.04,0.07c-0.01,0.02-0.02,0.05-0.04,0.07
					c-0.01,0.01-0.06,0.02-0.07,0.03c-0.02,0.01-0.02,0.05-0.04,0.07c-0.02,0.02-0.05,0.01-0.07,0.03
					c-0.02,0.01-0.02,0.06-0.04,0.07c-0.02,0.02-0.06,0.01-0.07,0.03c0,0,0.04-0.07,0.04-0.07s-0.07,0.02-0.07,0.03
					c-0.02,0.02-0.02,0.05-0.04,0.07c-0.02,0.02-0.06,0.01-0.07,0.03c-0.02,0.02-0.02,0.05-0.04,0.07
					c-0.02,0.02-0.05,0.01-0.07,0.03c-0.02,0.01-0.02,0.05-0.04,0.07c-0.01,0.01-0.07,0.02-0.07,0.03
					c-0.02,0.02-0.03,0.05-0.04,0.07l-0.04,0.07c-0.01,0.01-0.02,0.05-0.04,0.07c-0.01,0.01-0.06,0.01-0.07,0.03
					c-0.02,0.01-0.02,0.06-0.04,0.07c-0.02,0.02-0.05,0.01-0.07,0.03c0,0,0.04-0.07,0.04-0.07s-0.07,0.02-0.07,0.03
					c-0.01,0.01-0.03,0.06-0.04,0.07c-0.01,0.02-0.02,0.05-0.04,0.07c-0.01,0.01-0.02,0.06-0.04,0.07
					c-0.01,0.01-0.06,0.02-0.07,0.03c-0.01,0-0.07,0.03-0.07,0.03c-0.01-0.01,0.04-0.06,0.04-0.07c0-0.01,0.04-0.06,0.04-0.07
					c0,0-0.07,0.02-0.07,0.03c-0.01,0.01-0.03,0.06-0.04,0.07c-0.01,0.02-0.02,0.05-0.04,0.07c-0.01,0.02-0.02,0.05-0.04,0.07
					c-0.01,0.01-0.06,0.01-0.07,0.03c-0.01,0.01-0.03,0.06-0.04,0.07l0.07-0.03c0,0-0.03,0.06-0.04,0.07c0,0-0.07,0.02-0.07,0.03
					c-0.02,0.01-0.02,0.06-0.04,0.07c-0.01,0.01-0.06,0.02-0.07,0.03c0,0,0.04-0.07,0.04-0.07c0,0-0.07,0.02-0.07,0.03
					c-0.01,0-0.06,0.02-0.07,0.03c-0.01,0.01-0.03,0.06-0.04,0.07l-0.04,0.07c-0.01,0.02-0.02,0.05-0.04,0.07
					c-0.01,0.01-0.07,0.02-0.07,0.03c-0.01,0.01-0.03,0.06-0.04,0.07l-0.04,0.07l-0.15,0.05l0.04-0.07
					c0.01-0.02,0.02-0.05,0.04-0.07c0.01-0.01,0.06-0.02,0.07-0.03c0.02-0.02,0.02-0.05,0.04-0.07l-0.15,0.05l-0.04,0.07l-0.04,0.07
					c-0.01,0.02-0.02,0.05-0.04,0.07c0,0.01-0.07,0.02-0.07,0.03c-0.01,0.01-0.03,0.06-0.04,0.07c-0.02,0.02-0.03,0.05-0.04,0.07
					c-0.01,0.01-0.03,0.06-0.04,0.07c-0.01,0.01-0.06,0.02-0.07,0.03c-0.01,0-0.07,0.02-0.07,0.03c-0.02,0.02-0.03,0.05-0.04,0.07
					c-0.01,0.02-0.03,0.05-0.04,0.07c-0.01,0.01-0.04,0.06-0.04,0.07c0,0.01,0.07-0.03,0.07-0.03c0.01,0.01-0.04,0.06-0.04,0.07
					c-0.02,0-0.06,0.03-0.07,0.03c-0.01,0-0.06,0.03-0.07,0.03c-0.01,0,0.04-0.06,0.04-0.07c0-0.01-0.06,0.02-0.07,0.03
					c-0.02,0-0.05,0.02-0.07,0.03l-0.15,0.05l-0.04,0.07c-0.01,0.01-0.03,0.06-0.04,0.07c-0.01,0.01-0.06,0.02-0.07,0.03
					c-0.01,0-0.07,0.02-0.07,0.03c-0.02,0.02-0.03,0.05-0.04,0.07c-0.01,0.02-0.04,0.05-0.04,0.07c0,0.01,0.07-0.03,0.07-0.03
					c0,0-0.03,0.06-0.04,0.07l-0.04,0.07c-0.02,0.01-0.05,0.02-0.07,0.03c-0.01,0-0.07,0.03-0.07,0.03c0,0,0.04-0.07,0.04-0.07
					c-0.01,0-0.06,0.02-0.07,0.03c-0.02,0.01-0.02,0.06-0.04,0.07c-0.01,0.01-0.07,0.02-0.07,0.03c-0.02,0.02-0.03,0.05-0.04,0.07
					c-0.01,0.02-0.04,0.06-0.04,0.07c0,0.01,0.07-0.03,0.07-0.03c0.01,0.01-0.04,0.06-0.04,0.07c-0.03,0.01-0.05,0.02-0.07,0.03
					c-0.02,0.01-0.05,0.02-0.07,0.03l-0.07,0.03c-0.02,0.01-0.05,0.02-0.07,0.03c-0.02,0-0.06,0.03-0.07,0.03
					c-0.01,0,0.04-0.06,0.04-0.07c0,0-0.06,0.02-0.07,0.03c0,0-0.04,0.06-0.04,0.07c0,0.01-0.04,0.06-0.04,0.07
					c0.01,0.01,0.07-0.03,0.07-0.03c0,0.01-0.04,0.06-0.04,0.07c0,0.01,0.07-0.03,0.07-0.03c0.01,0.01-0.04,0.06-0.04,0.07
					l-0.15,0.05l-0.07,0.03c-0.01,0-0.06,0.02-0.07,0.03c-0.01,0.01-0.03,0.06-0.04,0.07c-0.01,0.02-0.03,0.05-0.04,0.07
					c-0.01,0.01-0.04,0.06-0.04,0.07c-0.01,0-0.06,0.02-0.07,0.03c-0.02,0.01-0.05,0.01-0.07,0.03c-0.01,0-0.03,0.06-0.04,0.07
					c-0.01,0.01-0.06,0.02-0.07,0.03c-0.01,0.01-0.06,0.01-0.07,0.03c-0.01,0.01-0.03,0.06-0.04,0.07l-0.04,0.07
					c-0.01,0.02-0.02,0.05-0.04,0.07c0,0-0.07,0.02-0.07,0.03c-0.01,0-0.06,0.02-0.07,0.03c-0.01,0.01-0.03,0.06-0.04,0.07
					c-0.01,0.02-0.02,0.05-0.04,0.07c-0.01,0.01-0.02,0.06-0.04,0.07c-0.02,0.02-0.06,0.01-0.07,0.03
					c-0.01,0.01-0.06,0.02-0.07,0.03c-0.01,0-0.06,0.02-0.07,0.03c-0.01,0.01-0.03,0.06-0.04,0.07c-0.01,0.01-0.03,0.06-0.04,0.07
					c-0.01,0.01-0.06,0.02-0.07,0.03c0,0,0.04-0.07,0.04-0.07c0,0-0.07,0.02-0.07,0.03c-0.01,0.01-0.03,0.06-0.04,0.07
					c-0.01,0.02-0.02,0.05-0.04,0.07c-0.01,0.01-0.06,0.02-0.07,0.03c-0.01,0.01-0.03,0.06-0.04,0.07
					c-0.01,0.01-0.03,0.06-0.04,0.07c-0.02,0.01-0.06,0.01-0.07,0.03c-0.02,0.01-0.02,0.06-0.04,0.07
					c-0.02,0.02-0.05,0.01-0.07,0.03c-0.02,0.02-0.05,0.01-0.07,0.03c-0.02,0.01-0.02,0.06-0.04,0.07
					c-0.02,0.02-0.05,0.01-0.07,0.03c-0.01,0.01-0.03,0.06-0.04,0.07c-0.01,0.01-0.03,0.06-0.04,0.07
					c-0.01,0.01-0.06,0.02-0.07,0.03c-0.01,0-0.07,0.02-0.07,0.03c-0.01,0.02-0.03,0.05-0.04,0.07l-0.08,0.14
					c-0.02,0-0.06,0.03-0.07,0.03c-0.01,0-0.07,0.03-0.07,0.03c-0.01-0.01,0.04-0.06,0.04-0.07c0-0.01,0.04-0.06,0.04-0.07
					c0-0.01-0.06,0.03-0.07,0.03c0.01,0-0.04,0.06-0.04,0.07c-0.02,0.01-0.06,0.01-0.07,0.03c-0.02,0.02-0.02,0.05-0.04,0.07
					c-0.02,0.02-0.02,0.05-0.04,0.07c-0.01,0.01-0.06,0.01-0.07,0.03c-0.02,0.02-0.02,0.05-0.04,0.07
					c-0.01,0.01-0.06,0.01-0.07,0.03c-0.02,0.02-0.02,0.05-0.04,0.07c-0.02,0.02-0.05,0.01-0.07,0.03
					c-0.01,0.01-0.03,0.06-0.04,0.07c-0.01,0.02-0.03,0.05-0.04,0.07c0,0,0.07-0.02,0.07-0.03c0.01,0,0.07-0.03,0.07-0.03
					c0.01,0.01-0.04,0.06-0.04,0.07l-0.07,0.03l-0.07,0.03c-0.03,0.01-0.05,0.02-0.07,0.03c-0.01,0-0.06,0.02-0.07,0.03
					c-0.02,0.02-0.02,0.05-0.04,0.07c0,0,0.07-0.03,0.07-0.03c0,0-0.03,0.06-0.04,0.07c0,0-0.07,0.02-0.07,0.03
					c-0.01,0.01-0.03,0.06-0.04,0.07c-0.01,0.01-0.02,0.05-0.04,0.07c-0.01,0.01-0.06,0.01-0.07,0.03
					c-0.02,0.02-0.02,0.05-0.04,0.07c-0.02,0.02-0.02,0.05-0.04,0.07c-0.01,0.01-0.07,0.02-0.07,0.03
					c-0.02,0.02-0.03,0.05-0.04,0.07l-0.03,0.06c-0.03,0.01-0.05,0.05-0.05,0.08c-0.01,0.02-0.02,0.04-0.04,0.06
					c0,0-0.01,0-0.01,0.01c-0.01-0.01-0.02-0.01-0.03-0.02l0,0.03c-0.02,0-0.03,0.01-0.03,0.01c0,0,0,0.01-0.01,0.01l-0.06,0
					c0,0.02,0.02,0.04,0.03,0.06c0,0,0,0,0,0c-0.01,0.02-0.02,0.04-0.03,0.06c-0.01-0.01-0.02-0.01-0.03-0.02l-0.05,0.03
					c0,0.03,0.01,0.07,0.01,0.11c-0.01,0.01-0.01,0.02-0.02,0.03c0,0,0.01,0,0.02-0.01c0,0.01,0,0.01,0,0.02l-0.03,0.03l-0.04-0.05
					c-0.09-0.04-0.1,0-0.11,0.04c0,0-0.01,0-0.01,0c-0.01,0-0.06,0.03-0.07,0.04c0,0,0,0,0,0c-0.01-0.01-0.02-0.01-0.04-0.02
					c0,0.03,0.01,0.05,0.02,0.07c-0.01,0.02-0.01,0.04-0.01,0.04c0,0,0.01-0.01,0.03-0.02c0.01,0.01,0.01,0.01,0.02,0.02
					c0,0.02-0.01,0.03-0.01,0.04c0.01-0.01,0.02-0.02,0.03-0.02c0.01,0.01,0.02,0.02,0.03,0.03c-0.02,0.03-0.03,0.05-0.05,0.08
					l-0.03-0.04c0-0.02,0.01-0.04,0.01-0.05c-0.01,0.01-0.02,0.02-0.03,0.03l-0.03-0.04c-0.03,0.05-0.13,0.03-0.05,0.15
					c0,0,0,0,0,0.01l-0.16,0.02c0.03,0.04,0.02,0.08-0.01,0.12c0.04,0.03,0.05-0.04,0.03-0.06l0.07,0l0.03,0.08
					c-0.01,0.02-0.02,0.04-0.02,0.06l-0.08,0.03l-0.12-0.06c0.08,0.13-0.04,0.12-0.1,0.17l0.06,0.09l-0.08-0.02l0.01,0.06
					c0.01-0.04,0.05,0.03,0.05,0.04l-0.1-0.06l-0.03,0.1l0.03,0.02l-0.01,0.06c-0.04,0-0.09,0-0.06,0.06l0.11,0.07
					c-0.06,0.03-0.12,0.03-0.2,0c-0.04,0.1,0.09,0.08,0.1,0.15c-0.03,0.03-0.1-0.03-0.11,0.03l0.12,0.06l0-0.1l0.09,0.11l-0.11,0.03
					l-0.1-0.06c-0.02,0.02-0.06,0.06-0.03,0.12l-0.05,0.1c-0.01,0.06,0.08,0.1,0.1,0.1l0.04,0.07l-0.09-0.02
					c-0.01,0.08-0.02,0.14,0.01,0.22c0.06,0.12-0.06,0.09-0.03,0.17l0.12,0.05c0.03,0.08,0.03,0.13-0.02,0.17
					c0.06,0.06,0.09,0.15,0.12,0.21c0.07-0.07,0.06-0.27,0.15-0.26c0.03,0.04,0.09,0.12,0.13,0.08l0.02,0.03
					c0.02,0.07-0.02,0.11-0.07,0.09l0.04,0.09c-0.02,0.03-0.07,0.05-0.11-0.03l0.06,0.08l-0.05,0.03l-0.09-0.11l-0.02,0.1l0.1,0.04
					l-0.03,0.07l0.06,0.06l0.07-0.12l0.08,0.1c0.18,0.04,0.07,0.16,0.14,0.27c0.04-0.06,0.1-0.08,0.14-0.13
					c0.02,0.07,0.02,0.16,0,0.22c0.03,0.02,0.07,0.04,0.11,0.07c0.05-0.01,0.1,0.11,0.15,0.06l0-0.09
					c-0.12-0.05-0.24-0.12-0.12-0.19c0.05,0.02,0,0.07,0.05,0.1c0.06-0.03-0.03-0.1,0.01-0.12l0.05,0.05c0,0.07,0.06,0.11,0.13,0.13
					l-0.01,0.01l0.01,0.08l-0.02,0.02l0.05,0.07l0.03-0.04l-0.06-0.08c-0.01-0.08,0.1-0.02,0.13,0l0,0.1l0.05,0.01l-0.03-0.1
					c0.11,0.03,0.22,0.16,0.33,0.16c-0.03-0.1,0.08-0.04,0.15,0.01c0.06-0.06,0.25,0.03,0.28-0.07l-0.08-0.08
					c0.07-0.07,0.23,0.1,0.31,0.13c-0.09-0.22-0.17-0.1-0.3-0.19l0.04-0.12l0.02,0.02c0.02,0.07,0.08,0.05,0.13,0.05
					c0.01,0.09,0.1,0.15,0.16,0.17l0-0.07l0.01,0c-0.01-0.09-0.17-0.1-0.23-0.24c0.08,0.06,0.13,0.04,0.2,0.06
					c-0.01,0.15,0.14,0.12,0.22,0.14c0.06-0.1,0.28,0,0.26-0.21l0.18-0.07c0.07-0.04-0.03-0.11-0.05-0.17c0,0,0.01,0,0.01,0
					c0,0,0.01-0.01,0.01-0.02c0.03,0.03,0.04,0.02,0.1,0.05c0.03-0.02,0.06-0.05,0-0.09c-0.03,0-0.05-0.04-0.06-0.07
					c0.02,0,0.03-0.01,0.03-0.01c0,0,0.01,0,0.02,0c0.07,0.03,0.14,0.06,0.2,0.1c-0.01-0.07-0.04-0.13-0.05-0.19
					c0.01,0,0.02,0,0.03-0.01c0.01-0.01,0.02-0.02,0.03-0.04c0.04,0.02,0.09,0.04,0.11-0.01c0-0.01-0.01-0.02-0.02-0.03
					c0.02-0.01,0.06-0.02,0.08-0.02c0.01,0,0.07-0.01,0.08-0.02c0.01-0.01,0.04-0.05,0.04-0.06c0.01-0.01,0.03-0.06,0.04-0.06
					c0.01-0.01,0.07-0.01,0.08-0.02c0.02-0.02,0.03-0.05,0.04-0.06l0.09-0.13c0,0,0.08-0.03,0.08-0.02c0,0.01-0.03,0.05-0.04,0.06
					c-0.01,0.01-0.05,0.06-0.04,0.06c0,0,0.07-0.02,0.08-0.02l0.08-0.02l0.04-0.06l0.04-0.06c0.01-0.02,0.03-0.05,0.04-0.06
					c0.01-0.01,0.07-0.01,0.08-0.02c0.02-0.01,0.03-0.05,0.04-0.06c0.02-0.01,0.06-0.01,0.08-0.02c0.01-0.01,0.03-0.05,0.04-0.06
					c0.01-0.01,0.03-0.06,0.04-0.06c0.02-0.01,0.06-0.01,0.08-0.02c0.01-0.01,0.06-0.02,0.08-0.02c0.01,0,0.06-0.01,0.08-0.02
					c0.01-0.01,0.04-0.06,0.04-0.06c0.01-0.01,0.03-0.06,0.04-0.06c0.01-0.01,0.07-0.02,0.08-0.02c0,0-0.04,0.06-0.04,0.06
					c0,0,0.07-0.02,0.08-0.02c0.01,0,0.04-0.06,0.04-0.06l0.08-0.13c0.01,0,0.07-0.03,0.08-0.02c0,0.01-0.04,0.05-0.04,0.06
					c0,0.01,0.07-0.03,0.08-0.02c0,0-0.05,0.06-0.04,0.06c0.01,0,0.07-0.01,0.08-0.02c0.02-0.01,0.03-0.05,0.04-0.06
					c0.02-0.01,0.06-0.01,0.08-0.02l0.04-0.06c0.01-0.02,0.04-0.05,0.04-0.06c0,0,0.07-0.02,0.08-0.02c0.01,0,0.06-0.01,0.08-0.02
					c0.01-0.01,0.04-0.06,0.04-0.06l0.04-0.06l0.04-0.06l0.09-0.13c0.02,0,0.06-0.02,0.08-0.02c0.01,0,0.07-0.03,0.08-0.02
					c0.01,0.01-0.04,0.05-0.04,0.06c0,0.01-0.05,0.06-0.04,0.06c0,0,0.07-0.02,0.08-0.02c0.01-0.01,0.03-0.06,0.04-0.07
					c0.01-0.01,0.06-0.01,0.08-0.02c0.02-0.01,0.03-0.05,0.04-0.06c0.01-0.01,0.03-0.06,0.04-0.06c0.02-0.01,0.06-0.01,0.08-0.02
					c0.02-0.02,0.02-0.05,0.04-0.06c0.01-0.01,0.06-0.01,0.08-0.02c0.02-0.01,0.02-0.05,0.04-0.06c0.01-0.01,0.06-0.01,0.08-0.02
					c0.01-0.01,0.04-0.06,0.04-0.06c0.01-0.01,0.03-0.06,0.04-0.06c0.01-0.01,0.07-0.02,0.08-0.02c0.01,0,0.07-0.02,0.08-0.02
					c0.02-0.02,0.03-0.05,0.04-0.06l0.04-0.06l0.04-0.06l0.08-0.13c0.02,0,0.06-0.02,0.08-0.02c0,0-0.04,0.06-0.04,0.06
					c-0.01,0.01-0.05,0.06-0.04,0.06c0,0,0.07-0.02,0.08-0.02c0.02-0.01,0.06-0.01,0.08-0.02c0,0,0.04-0.06,0.04-0.06
					c0.01-0.02,0.03-0.05,0.04-0.06c0.01-0.01,0.07-0.01,0.08-0.02c0.02-0.01,0.03-0.05,0.04-0.06c0.02-0.01,0.06-0.01,0.08-0.02
					c0.02-0.01,0.06-0.02,0.08-0.02c0.02-0.01,0.06-0.01,0.08-0.02c0.01-0.01,0.03-0.06,0.04-0.06c0.02-0.01,0.06-0.01,0.08-0.02
					c0.01-0.01,0.04-0.06,0.04-0.06l0.04-0.06c0.01-0.01,0.03-0.05,0.04-0.06c0.01-0.01,0.07-0.02,0.08-0.02
					c0.02-0.01,0.06-0.01,0.08-0.02c0.01-0.01,0.03-0.06,0.04-0.06c0.02-0.01,0.06-0.01,0.08-0.02c0.01-0.01,0.04-0.05,0.04-0.06
					c0.01-0.02,0.03-0.05,0.04-0.06c0,0,0.01-0.01,0.03-0.01c0.04-0.09,0.08-0.18,0.2-0.16c0.01,0,0.01,0,0.02-0.01
					c0.02-0.01,0.03-0.05,0.04-0.06c0.02-0.01,0.06-0.01,0.08-0.02c0.01-0.01,0.03-0.05,0.04-0.06c0.01-0.01,0.03-0.06,0.04-0.06
					c0.02-0.01,0.06-0.01,0.08-0.02c0,0-0.04,0.06-0.04,0.06c0,0,0.07-0.02,0.08-0.02c0.01,0,0.01-0.02,0.02-0.03l-0.17-0.15
					c0.09,0.02,0.18,0.04,0.28,0.08c0.02-0.02,0.02-0.04,0.04-0.06c0.01-0.01,0.06-0.01,0.08-0.02c0.02-0.01,0.02-0.05,0.04-0.06
					c0.02-0.01,0.05-0.01,0.07-0.02c0-0.03,0.02-0.06,0.04-0.09l0.02,0c0.01-0.02,0.02-0.03,0.03-0.04
					c0.02-0.01,0.06-0.01,0.08-0.02c0.01-0.01,0.02-0.02,0.02-0.03l-0.15-0.33c0.15,0.02,0.34,0.13,0.47,0.14
					c0.01-0.01,0.02-0.02,0.02-0.03l0.09-0.13c0.01,0,0.02-0.01,0.04-0.01c0.03-0.14,0.04-0.33,0.16-0.32l-0.1-0.11
					c0.14-0.02,0.26,0.09,0.37,0.21l0-0.01c0.01-0.01,0.03-0.05,0.04-0.06c0.01-0.01,0.07-0.02,0.08-0.02
					c0.02,0,0.06-0.01,0.08-0.02c0.01-0.01,0.03-0.06,0.04-0.06c0.01-0.01,0.02-0.01,0.03-0.01l-0.01-0.02l0.07,0.01
					c0.02-0.01,0.05-0.01,0.07-0.02c0.02-0.01,0.02-0.05,0.04-0.06c0.02-0.01,0.06-0.01,0.08-0.02c0.01-0.01,0.02-0.03,0.03-0.04
					l-0.02-0.01c-0.02,0.01-0.04,0.01-0.04,0.01c0,0,0.01-0.02,0.02-0.03l-0.16-0.11c-0.01-0.27,0.49-0.1,0.26-0.49
					c0.31-0.04,0.67-0.13,0.75-0.44l0.41,0.03l-0.11-0.34c0.46,0.33,0.25-0.16,0.43-0.18l0.27,0.23c0.17-0.03-0.09-0.74,0.27-0.37
					c0.46-0.01,0.24-0.85,0.9-0.52l0.05-0.46c0.15,0.04,0.31,0.09,0.46,0.16c0.01-0.02,0.03-0.03,0.03-0.04
					c0.01-0.02,0.03-0.05,0.04-0.06l0.03-0.04c-0.03-0.04-0.05-0.07-0.07-0.12c0.21,0,0.18-0.36,0.36-0.38
					c0.15-0.01,0.24,0.1,0.32,0.21c0.01,0,0.02,0,0.03-0.01c0.01,0,0.06-0.01,0.08-0.02c0.01-0.01,0.04-0.06,0.04-0.06l0.01-0.02
					c-0.09-0.13-0.18-0.24-0.09-0.31c0.09,0.05,0.18,0.09,0.27,0.13c0-0.01,0.01-0.01,0.01-0.02c0.01-0.01,0.03-0.05,0.04-0.06
					c0.02-0.01,0.06-0.01,0.08-0.02c0.01-0.01,0.03-0.06,0.04-0.06c0.02-0.01,0.06-0.02,0.08-0.02c0.02,0,0.06-0.01,0.08-0.02
					c0.01-0.01,0.03-0.05,0.04-0.06c0.02-0.01,0.06-0.01,0.08-0.02c0.02-0.01,0.06-0.01,0.08-0.02c0.02-0.01,0.02-0.05,0.04-0.06
					c0,0-0.08,0.02-0.08,0.02c0,0,0.04-0.06,0.04-0.06c0.01-0.02,0.03-0.05,0.04-0.06c0.01-0.01,0.06-0.01,0.08-0.02
					c0.02-0.01,0.03-0.05,0.04-0.06c0.02-0.01,0.06-0.01,0.08-0.02c0.03-0.01,0.05-0.01,0.08-0.02l0.08-0.02l0.08-0.02
					c0.02-0.01,0.05-0.01,0.08-0.02c0,0,0.04-0.06,0.04-0.06c0.01-0.01,0.03-0.06,0.04-0.06c0.01-0.01,0.06-0.02,0.08-0.02
					c0,0-0.04,0.06-0.04,0.06c0.01,0.01,0.07-0.03,0.08-0.02c0.02-0.01,0.06-0.01,0.08-0.02c0.01,0,0.04-0.06,0.04-0.06
					c0-0.01-0.07,0.02-0.08,0.02c0,0,0.04-0.06,0.04-0.06c0.01-0.02,0.04-0.05,0.04-0.06c0-0.01-0.07,0.03-0.08,0.02
					c0-0.01,0.04-0.05,0.04-0.06c0.01-0.02,0.03-0.05,0.04-0.06l0.04-0.06c0,0,0.08-0.03,0.08-0.02c0,0.01-0.03,0.05-0.04,0.06
					c-0.01,0.02-0.04,0.05-0.04,0.06c0,0.01,0.07-0.02,0.08-0.02c0.01,0-0.05,0.06-0.04,0.06c0.01,0.01,0.07-0.03,0.08-0.02
					l0.04-0.06l0.04-0.06c0.01-0.02,0.03-0.05,0.04-0.06c0.01-0.01,0.06-0.01,0.08-0.02c0.02-0.01,0.03-0.05,0.04-0.06
					c0.01-0.01,0.07-0.02,0.08-0.02c0.01,0-0.05,0.06-0.04,0.06c0,0,0.07-0.02,0.08-0.02c0.01-0.01,0.03-0.05,0.04-0.06l0.04-0.06
					l0.09-0.13c0.02,0,0.06-0.02,0.08-0.02c0.01,0,0.07-0.03,0.08-0.02c0,0-0.05,0.06-0.04,0.06c0.01,0,0.06-0.02,0.08-0.02
					c0.01,0,0.06-0.01,0.08-0.02c0.01,0,0.04-0.06,0.04-0.06l0.04-0.06c0.01-0.02,0.03-0.05,0.04-0.07
					c0.01-0.01,0.07-0.01,0.08-0.02c0.02-0.01,0.03-0.05,0.04-0.06c0.02-0.01,0.06-0.01,0.08-0.02c0.02-0.01,0.02-0.05,0.04-0.06
					c0.02-0.01,0.06-0.01,0.08-0.02c0.02-0.01,0.02-0.05,0.04-0.06c0.02-0.01,0.06-0.01,0.08-0.02c0.01-0.01,0.03-0.05,0.04-0.06
					l0.04-0.06c0.01-0.01,0.03-0.05,0.04-0.06c0.01-0.01,0.06-0.01,0.08-0.02c0.02-0.01,0.03-0.05,0.04-0.06
					c0.02-0.01,0.06-0.01,0.08-0.02l-0.04,0.06c-0.01,0.02-0.04,0.05-0.04,0.06c0,0.01-0.05,0.06-0.04,0.06c0,0,0.07-0.02,0.08-0.02
					c0.02-0.01,0.03-0.05,0.04-0.06c0.02-0.01,0.05-0.01,0.08-0.02c0.01-0.01,0.04-0.06,0.04-0.06c0.01-0.01,0.03-0.05,0.04-0.06
					c0.01-0.01,0.06-0.01,0.08-0.02c0.02-0.01,0.03-0.05,0.04-0.06c0.02-0.01,0.06-0.01,0.08-0.02c0.02-0.01,0.03-0.05,0.04-0.06
					c0.02-0.01,0.06-0.01,0.08-0.02c0.02-0.01,0.06-0.01,0.08-0.02c0.02-0.01,0.03-0.05,0.04-0.06l-0.08,0.02
					c0,0,0.04-0.06,0.04-0.06c0.01-0.01,0.03-0.06,0.04-0.06c0.01-0.01,0.06-0.02,0.08-0.02c0.02-0.01,0.06-0.02,0.08-0.02
					c0.01,0-0.05,0.06-0.04,0.06c0,0,0.07-0.02,0.08-0.02c0.01-0.01,0.04-0.05,0.04-0.06l0.04-0.06l0.04-0.06l0.04-0.06
					c0.01-0.02,0.03-0.05,0.04-0.06c0.01-0.01,0.07-0.01,0.08-0.02c0.02-0.01,0.02-0.05,0.04-0.06c0.02-0.02,0.02-0.05,0.04-0.06
					c0.02-0.01,0.06-0.01,0.08-0.02c0,0,0.07-0.02,0.08-0.02c0.01,0.01-0.05,0.06-0.04,0.07c0,0,0.07-0.02,0.08-0.02
					c0,0,0.04-0.07,0.05-0.07c0.01-0.01,0.07-0.03,0.08-0.04c0.01-0.01,0.06-0.02,0.08-0.04c0.01-0.01,0.03-0.08,0.03-0.09
					c0-0.01,0.02-0.07,0.03-0.09c0.01-0.02,0.06-0.04,0.06-0.06c0.01-0.03,0.02-0.07,0.02-0.1c0-0.02,0-0.08,0.01-0.1
					c0.01-0.02,0.04-0.05,0.05-0.07c0.01-0.03,0.03-0.06,0.04-0.08c0-0.01,0.04-0.07,0.04-0.08c0-0.03-0.01-0.09-0.01-0.11
					c0-0.03,0-0.09-0.01-0.11c0.01-0.01,0.02-0.07,0.02-0.09c0.01-0.02,0.02-0.07,0.02-0.1c0-0.02-0.03-0.09-0.03-0.12
					c0-0.03,0.02-0.07,0.01-0.1c-0.01-0.04-0.03-0.08-0.04-0.12c0-0.03,0.01-0.08,0-0.11c0-0.02-0.04-0.1-0.05-0.12
					c0,0,0-0.01-0.01-0.02c0-0.02-0.01-0.03-0.02-0.04c-0.01-0.02-0.02-0.04-0.02-0.05c-0.01-0.02-0.01-0.04-0.01-0.06l0,0
					c0.03-0.1,0.05-0.17,0.01-0.27c-0.07-0.15,0.09-0.11,0.06-0.21l-0.16-0.08c-0.04-0.1-0.02-0.16,0.04-0.21
					c-0.08-0.08-0.11-0.2-0.14-0.28c-0.08,0.06-0.1,0.21-0.15,0.28c-0.02-0.02-0.05-0.05-0.06-0.08c-0.01-0.01-0.02-0.03-0.03-0.06
					c0.02,0.01,0.05,0.02,0.06,0c-0.02-0.02-0.06-0.05-0.08-0.06c0,0,0,0,0,0c-0.01-0.01-0.02-0.03-0.04-0.04l-0.05-0.12
					c0.03-0.04,0.09-0.05,0.15,0.05l-0.07-0.11l0.07-0.04l0.11,0.15l0.03-0.12l-0.13-0.06l0.05-0.08L133.15,11.9z M114.36,25.66
					c0-0.01-0.01-0.01-0.01-0.02c0.02,0.01,0.04,0.01,0.05,0.02c0.01,0.01,0.02,0.03,0.03,0.04c0,0.01,0,0.01,0,0.02l-0.05-0.02
					C114.37,25.69,114.36,25.67,114.36,25.66z M114.28,25.66c0,0,0,0.01,0,0.01C114.28,25.67,114.28,25.67,114.28,25.66
					L114.28,25.66z M115.34,27.01l-0.05,0.01l-0.01,0.05l-0.04-0.13C115.28,26.99,115.35,26.91,115.34,27.01z M114.13,25.72
					c0.02-0.05,0.09-0.02,0.13-0.02l0,0c0.02,0.03,0.04,0.07,0.05,0.08c-0.05,0-0.13-0.07-0.18-0.04c0.05,0.03,0.14,0.1,0.1,0.13
					C114.17,25.89,114.13,25.76,114.13,25.72z M114.66,26.37l-0.06-0.01l0.01-0.1C114.68,26.27,114.67,26.35,114.66,26.37z
					 M114.76,26.89c0.01-0.01,0.01-0.01,0.02-0.03l0.01-0.01l0.07,0.03c-0.02,0.02-0.05,0.02-0.08,0.03
					C114.77,26.9,114.76,26.89,114.76,26.89z M114.09,26.17c-0.02-0.08-0.1-0.12-0.15-0.14l0.02-0.09c0.08,0.1,0.19,0.12,0.23,0.24
					l-0.1,0.02l-0.02,0.13l-0.05-0.05L114.09,26.17z M114.35,26.53c0,0,0.01,0.09,0.01,0.09c0,0.01-0.02,0.06-0.03,0.07
					c0,0.01-0.03,0.07-0.04,0.06c0,0,0-0.02,0-0.04c0-0.02,0-0.04,0.01-0.04c0-0.03,0-0.06,0-0.08c0.01-0.02,0.02-0.05,0.02-0.07
					c0,0.01,0.01,0.08,0.01,0.09C114.34,26.6,114.35,26.53,114.35,26.53z M113.78,26.21L113.78,26.21
					c-0.01-0.02-0.01-0.04-0.01-0.06c0.02,0,0.03,0,0.05-0.01c0.01,0.01,0.01,0.02,0.02,0.02l0.02,0.01
					c-0.01-0.04,0.02-0.04,0.05-0.03l0,0C113.93,26.26,113.85,26.22,113.78,26.21z M113.94,26.4l0.11-0.01l0.03,0.05l0.05,0.01
					l-0.04,0.04l0.02,0.02C114.03,26.51,113.98,26.44,113.94,26.4z M114.88,27.28l-0.05,0.01l-0.08-0.11
					C114.79,27.13,114.86,27.21,114.88,27.28z M114.53,27.08l-0.14-0.18c0.11,0.05,0.04-0.21,0.19-0.11
					C114.61,26.9,114.57,27.01,114.53,27.08z M115.6,27.26c-0.06,0.04-0.16-0.09-0.21-0.02c0.07,0.12,0.1,0.13,0.19,0.14l-0.07,0.06
					l-0.11-0.06c0.05,0.17-0.09,0.05-0.16,0.05l-0.07-0.07l-0.06,0.02l0.06,0.08l-0.01,0.04c-0.05-0.07-0.09-0.19-0.03-0.19
					l-0.04-0.07l-0.08,0.03l0.04,0.05l-0.09-0.02l0.04-0.05c-0.03-0.08-0.11-0.13-0.09-0.21c0.06-0.03-0.02-0.17,0.07-0.14
					c0.07-0.11,0.09,0.12,0.17,0.12l-0.05,0.02c-0.36,0.1,0.07,0.24,0.05,0.15l0.04,0.06c-0.05-0.01-0.07,0.07-0.02,0.11l0.11,0
					c-0.04-0.06,0.01-0.11,0.02-0.14c0.09,0.02,0.1-0.08,0.18-0.09l-0.01-0.03l0.08,0C115.51,27.1,115.56,27.18,115.6,27.26z
					 M115.8,27.19c-0.01,0.05-0.09,0.02-0.13,0l-0.04-0.06C115.68,27.1,115.77,27.11,115.8,27.19z M115.87,27.12
					c-0.03-0.02-0.06-0.04-0.07-0.06c0.02,0.01,0.04,0.02,0.06,0.02c0.01,0.01,0.01,0.01,0.02,0.02L115.87,27.12z M116.2,27.09
					l0.01,0.09c-0.02,0.06-0.12-0.03-0.16,0.02l0.07,0.09c-0.05,0.01-0.1-0.02-0.12-0.08l0.04-0.12L116,27.06
					c0.02,0,0.03-0.01,0.04-0.01c0,0,0.01,0,0.01,0l0.11,0.08l-0.01-0.06C116.17,27.08,116.18,27.08,116.2,27.09
					C116.2,27.08,116.2,27.09,116.2,27.09z M123.55,21.64l-0.02-0.05l0.08,0.03C123.63,21.67,123.57,21.65,123.55,21.64z
					 M123.38,21.12l-0.03-0.07l0.11,0.04C123.48,21.16,123.4,21.13,123.38,21.12z M123.59,20.91l0.03-0.07l0.16,0.14
					C123.73,20.98,123.71,21.02,123.59,20.91z M124.62,20.55c-0.02-0.1,0.17,0.06,0.15-0.06l0.03,0.03
					C124.78,20.58,124.7,20.67,124.62,20.55z M132.03,12.48c0.01,0.03,0.02,0.04,0,0.07l-0.04-0.04L132.03,12.48z M132.7,13.36
					c-0.01,0.01-0.02,0-0.03,0l-0.02,0.02c0-0.02-0.04-0.01-0.02-0.03l0.02,0.01l0-0.02C132.65,13.32,132.68,13.36,132.7,13.36
					c-0.01-0.02-0.03-0.03-0.02-0.04C132.69,13.32,132.7,13.35,132.7,13.36z M132.25,12.66l-0.07-0.06l0.04-0.03
					C132.26,12.59,132.29,12.65,132.25,12.66z M132.89,12.81c0.01,0.04,0.04,0.05,0.07,0.07l-0.01,0.04
					c-0.03-0.05-0.08-0.06-0.1-0.11l0.05,0l0.01-0.05l0.02,0.02L132.89,12.81z M131.95,11.28l-0.05,0.14
					C131.79,11.27,131.79,11.21,131.95,11.28z M132.52,11.99c-0.06-0.03-0.03,0.1-0.11,0.05c-0.01-0.06,0.02-0.11,0.04-0.14
					L132.52,11.99z M132.01,11.28C132.01,11.28,132.01,11.27,132.01,11.28c0,0,0.01,0,0.02,0.01
					C132.02,11.28,132.02,11.28,132.01,11.28z M132.64,11.62c-0.04-0.02-0.07-0.05-0.11-0.09l0.01-0.02
					C132.6,11.54,132.64,11.57,132.64,11.62z"/>
			</g>
		</g>
	</g>
</g>
</svg>
