<?xml version="1.0" encoding="utf-8"?>
<!-- Generator: Adobe Illustrator 24.0.2, SVG Export Plug-In . SVG Version: 6.00 Build 0)  -->
<svg version="1.1" id="Layer_1" xmlns="http://www.w3.org/2000/svg" xmlns:xlink="http://www.w3.org/1999/xlink" x="0px" y="0px"
	 viewBox="0 0 14.93 268.27" style="enable-background:new 0 0 14.93 268.27;" xml:space="preserve">
<style type="text/css">
	.st0{fill:#FFFFFF;}
</style>
<g>
	<g>
		<g>
			<path d="M3.91,221.66c0-0.01-0.07-0.75-0.07-0.79c-0.01,0.09-0.04,0.67-0.04,0.8c0,0.14,0.06,0.68,0.07,0.79
				c0.01,0.11,0.07,0.79,0.07,0.79c0.02,0,0.02-0.74,0.04-0.79c0-0.27,0.04-0.53,0.04-0.8c-0.01-0.11-0.07-0.72-0.07-0.79
				C3.95,220.91,3.91,221.64,3.91,221.66z"/>
			<path d="M12.15,266.97c0.09-0.55-0.12-0.92-0.27-0.92l-0.04,0.91L12.15,266.97z"/>
			<path d="M11.33,268.24c-0.01-0.61-0.04-0.71-0.13-0.92l-0.07,0.91L11.33,268.24z"/>
			<path d="M7.86,263.68l-0.12,0.41l0.21,0.4C8.06,264.46,7.93,263.87,7.86,263.68z"/>
			<path d="M13.45,261.68c-0.09-0.71-0.05-0.64-0.27-1.16l-0.05,0.5L13.45,261.68z"/>
			<path d="M10.07,268.17c0.01-0.83-0.27-0.4-0.34-0.38C9.84,268.07,9.94,268.46,10.07,268.17z"/>
			<path d="M10.75,265.83l-0.17,1.31c-0.12,0.22-0.23,0.43-0.11,0.49l0.12-0.22C10.78,267.48,10.73,266.43,10.75,265.83z"/>
			<path d="M2.58,147.84c0,0,0.01,0.09,0.02,0.21c0.2-0.41,0.16-1.24-0.02-2.35c-0.01,0.23-0.02,0.53-0.03,0.55
				c-0.01,0.03-0.04-0.45-0.06-0.67l-0.03,0.01c-0.01,0.21-0.02,0.63-0.03,0.67c0.01,0.3,0.06,0.48,0.08,0.79
				c0.01,0.21-0.05,0.58-0.04,0.8c0,0.08,0.01,0.22,0.03,0.36c0.02-0.02,0.05-0.04,0.07-0.07C2.57,147.98,2.58,147.84,2.58,147.84z"
				/>
			<path d="M1.61,94.66c0.01-0.11,0.04-0.72,0.05-0.8c-0.01-0.1-0.08-0.79-0.08-0.79s-0.05,0.7-0.05,0.8c0,0.2-0.05,0.58-0.05,0.79
				c0,0.14,0.07,0.68,0.08,0.79c0.01,0.11,0.08,0.79,0.08,0.79c0.02,0,0.03-0.74,0.05-0.8C1.68,95.18,1.61,94.92,1.61,94.66z"/>
			<path d="M13.67,196.86c0.02,0.25,0.05,0.53,0.08,0.78c0.01,0.11,0.08,0.78,0.08,0.78s0.03-0.7,0.04-0.81
				c0-0.04-0.07-0.7-0.08-0.78c-0.01-0.21,0.04-0.58,0.04-0.8c-0.01-0.27-0.07-0.52-0.08-0.78c-0.01,0.27-0.02,0.54-0.04,0.81
				C13.7,196.17,13.67,196.86,13.67,196.86z"/>
			<path d="M2.38,125.22c0,0-0.04,0.75-0.05,0.8c0.01,0.26,0.07,0.53,0.08,0.79c0-0.03,0.04-0.8,0.04-0.8S2.39,125.23,2.38,125.22z"
				/>
			<path d="M14.05,205.56c-0.01-0.27-0.07-0.51-0.08-0.78c0,0.05-0.04,0.8-0.04,0.8c0,0.03,0.08,0.78,0.08,0.78
				S14.05,205.6,14.05,205.56z"/>
			<path d="M2.42,2C2.39,2.06,2.36,2.14,2.34,2.22c0,0.08,0,0.14,0,0.21c0.04-0.12,0.11-0.2,0.21-0.18L2.42,2z"/>
			<path d="M1.51,6.07L1.5,5.97C1.48,5.84,1.47,5.72,1.47,5.62C1.45,5.65,1.43,5.64,1.4,5.6C1.37,5.85,1.35,6.14,1.35,6.45
				L1.51,6.07z"/>
			<path d="M4.13,0.69l-0.26,0.1c0.08,1.11,0.2,1.06,0.36,1.38L4.13,0.69z"/>
			<polygon points="6.02,4.59 6.02,4.35 5.88,4.01 5.88,4.62 			"/>
			<path d="M1.99,3.24L1.91,3.57c0.03,0.11,0.14,0.57,0.22,0.24L1.99,3.24z"/>
			<polygon points="5.7,3.88 5.73,3.19 5.59,3.46 			"/>
			<path d="M5.41,3.35l0-0.28C5.16,3.7,5.04,1.98,4.83,2.49C4.77,3.44,5.21,3.57,5.41,3.35z"/>
			<path d="M3.46,3.49L3.28,3.04C3.3,3.22,3.37,3.58,3.45,3.6L3.46,3.49z"/>
			<path d="M4.39,2.62C4.54,2.37,4.5,2.23,4.52,2L4.33,2.34L4.39,2.62z"/>
			<path d="M2.85,0L2.75,0.45c0.04,0.15,0.19,0.77,0.3,0.32L2.85,0z"/>
			<path d="M0.95,6.17c-0.03,0.31,0.02,0.7,0.09,1.06C1.03,6.85,1.01,6.46,0.98,6.08C0.98,6.13,0.97,6.17,0.95,6.17z"/>
			<polygon points="6.01,1.42 6.01,1.4 6.01,1.42 			"/>
			<path d="M3.04,2.79c0.11-0.19,0.22-0.38,0.1-0.4L3.03,2.58c-0.19,0-0.12,0.78-0.13,1.24L3.04,2.79z"/>
			<path d="M1.08,8.21c-0.04-0.05-0.26,0.1-0.24,0.48C0.95,8.67,1.08,8.42,1.08,8.21z"/>
			<path d="M4.36,5.88c0.05,0.03,0.25-0.22,0.21-0.59C4.47,5.35,4.35,5.67,4.36,5.88z"/>
			<path d="M1.57,13.44l-0.19-1.01C1.14,13.19,1.24,13.47,1.57,13.44z"/>
			<path d="M2.09,114.69c0.08,1.11,0.19,1.06,0.33,1.38l-0.1-1.49L2.09,114.69z"/>
			<path d="M2.23,107.7c-0.23,0.62-0.35-1.09-0.54-0.59c-0.05,0.96,0.35,1.09,0.53,0.86L2.23,107.7z"/>
			<path d="M1.73,112.79c-0.04-0.05-0.24,0.1-0.22,0.48C1.61,113.25,1.73,113,1.73,112.79z"/>
			<path d="M2.64,130.58c-0.06,0.2-0.1,0.65-0.06,0.82C2.62,131.37,2.74,130.84,2.64,130.58z"/>
			<path d="M10.29,267.25l-0.14-1.87l0.32,0.12c0.39-1.86,0.44,1.32,0.87,0.95c0.13-0.38,0.36-0.82,0.6-1.25
				c0.05-0.66,0.36-0.1,0.36-1.09l-0.17-0.82l-0.04,0.12l0.04,0.27l-0.07-0.19c-0.27,0.72-0.52,1.17-0.48-0.59
				c0.13-0.38,0.13,0.61,0.28,0.33c0.01-0.11,0-0.19,0-0.26l-0.05-0.12c0.01,0.01,0.02-0.01,0.04-0.01
				c-0.02-0.17-0.06-0.25-0.1-0.32l0,0c0.05-0.07,0.09-0.2,0.13-0.32c0.02,0.06,0.05,0.08,0.08,0.1c0.02-0.14,0.04-0.19,0.09-0.01
				c0.08-0.07,0.15-0.25,0.22-0.52l0,0.27l0.01,0.03c-0.01,0.04-0.02,0.07-0.03,0.1c-0.05,0.17-0.11,0.32-0.17,0.47l0,0.06
				c0.1-0.06,0.2-0.16,0.3-0.26l0.07,0.27l0.02,0.38l0.22,0.17l-0.03-0.66l-0.25-0.11c-0.01-0.03-0.01-0.05-0.01-0.08l0.15-0.16
				c0.06-0.18,0.12-0.38,0.17-0.59l0.08,0.4l0.08-0.44l-0.09-0.22c0.04-0.15,0.08-0.3,0.12-0.44c0.04-0.17,0.08-0.35,0.12-0.53
				c-0.02,0.05-0.04,0.11-0.06,0.15l-0.17-0.11c0-0.71,0.15-1.7,0.38-1.26c0.04,0.25,0.02,0.5-0.02,0.73
				c0.13-0.22,0.24-0.48,0.31-0.96c-0.04-0.09-0.06-0.18-0.07-0.27c0.06-0.13,0.15-0.34,0.17-0.38c0.03-0.07,0.08-0.2,0.13-0.33
				c-0.09-0.13-0.18-0.37-0.15-0.66l-0.09-0.11l-0.03,0.54l0.08,0l-0.09,0.38l-0.01-0.46c-0.1-0.16-0.21-0.03-0.28-0.46
				c0.02-0.46-0.18-0.65-0.08-1.02c-0.06-0.86,0.18,0.08,0.24-0.37l-0.02,0.38c-0.18,2.34,0.28,0.73,0.18,0.43l0.08,0.06
				c-0.04,0.21,0.01,0.67,0.09,0.59l0.08-0.56c-0.08-0.06-0.1-0.51-0.12-0.76c0.09-0.37-0.01-0.89,0.05-1.34l-0.03-0.08l0.06-0.45
				c-0.03,0.32,0.09,0.46,0.2,0.54c-0.01,0.51-0.21,0.45-0.18,1.02c0.18,0.17,0.2,0.06,0.28-0.37l0,0.62l-0.14,0.32
				c0.2,0.46-0.02,0.73-0.07,1.1l-0.12,0.08l-0.03,0.4l0.12,0.06l0.01,0.05c0.01-0.04,0.03-0.08,0.04-0.11
				c0.03-0.12,0.08-0.66,0.11-0.8c0.05-0.23,0.14-0.36,0.18-0.61c0.02-0.12,0.07-0.73,0.09-0.84c0.01-0.12,0.06-0.71,0.07-0.86
				c0.02-0.15,0.14-0.58,0.16-0.69c0.03-0.1,0.13-0.58,0.15-0.74c0.03-0.29,0.01-0.61,0.04-0.89c0.02-0.22,0.1-0.55,0.12-0.79
				c0.02-0.28,0-0.63,0.01-0.91c0.02-0.28-0.02-0.63-0.01-0.91c0.01-0.29,0.08-0.55,0.09-0.84c0.01-0.29-0.04-0.61-0.03-0.91
				c0.01-0.3,0.06-0.57,0.07-0.87c0,0.04,0.04,0.91,0.04,0.91s0.07-0.85,0.07-0.89c0.01-0.2-0.05-0.76-0.06-0.91l-0.06-0.9
				c-0.01-0.13-0.06-0.69-0.07-0.81c0-0.16,0.03-0.68,0.03-0.8c0-0.06,0.03-0.78,0.03-0.81c-0.03-0.27-0.05-0.55-0.07-0.78
				c-0.02-0.19-0.05-0.69-0.07-0.78c-0.01-0.03-0.01,0.17-0.02,0.38c-0.01,0.21-0.02,0.42-0.02,0.42c-0.01,0-0.02-0.21-0.04-0.42
				l0.11-1.88c0.02-0.61-0.05-0.75-0.14-0.79c0-0.03-0.01-0.06-0.01-0.09c0-0.11,0.03-0.74,0.03-0.8c0.01-0.06,0.07,0.78,0.07,0.78
				s0.01-0.21,0.02-0.42c0.01-0.21,0.01-0.41,0.02-0.38c0.02,0.07,0.06,0.61,0.07,0.78c0.01,0.11,0.07,0.78,0.07,0.78
				c0.02,0,0.02-0.75,0.03-0.8l-0.15-1.56l-0.07-0.78l-0.07-0.78c-0.01-0.07-0.02-0.18-0.03-0.28c0.06-0.11,0.11-0.22,0.16-0.31
				c-0.06-0.2-0.13-0.37-0.19-0.53c0.01-0.18,0.02-0.38,0.02-0.48c-0.01-0.26-0.06-0.52-0.07-0.78c0.01-0.3,0.02-0.5,0.03-0.81
				c0-0.16,0.04-0.63,0.03-0.81c-0.01-0.22-0.07-0.57-0.07-0.78c0-0.18,0.03-0.67,0.03-0.8c0.01-0.15,0.02-0.76,0.04-0.81
				c0.01-0.04,0.06,0.79,0.07,0.78c0.02,0,0.02-0.75,0.04-0.8c0-0.27,0.04-0.54,0.04-0.81c-0.01-0.11-0.07-0.71-0.07-0.78
				c0,0.05-0.03,0.79-0.04,0.81c0,0-0.07-0.84-0.07-0.78c-0.01,0.1-0.03,0.61-0.03,0.81l-0.04,0.81c-0.01-0.3-0.06-0.48-0.07-0.78
				c-0.01-0.19,0.04-0.61,0.04-0.81c0-0.21-0.07-0.56-0.07-0.78c0-0.14,0.03-0.69,0.04-0.81c0.01-0.15,0.02-0.76,0.04-0.8
				c0.01-0.02,0.02,0.17,0.04,0.37c0.01,0.2,0.04,0.41,0.04,0.41s0.03-0.75,0.04-0.81c0-0.13-0.07-0.68-0.07-0.78
				c-0.02-0.24-0.06-0.59-0.07-0.78c-0.02-0.14-0.06-0.73-0.07-0.78c-0.01-0.02-0.01,0.18-0.02,0.39c0,0.21-0.02,0.42-0.02,0.42
				s-0.07-0.71-0.07-0.78c0-0.09,0.03-0.72,0.04-0.8l0.04-0.81c0.01-0.23,0.02-0.52,0.04-0.8c-0.01-0.09-0.06-0.66-0.08-0.78
				c0-0.11,0.03-0.71,0.04-0.81c0-0.09,0.04-0.68,0.04-0.8c-0.01-0.16-0.06-0.66-0.08-0.78c-0.02-0.23-0.05-0.51-0.08-0.78
				c-0.01-0.18-0.07-0.59-0.08-0.78c-0.01-0.27,0.04-0.53,0.04-0.81c0,0.04,0.08,0.78,0.08,0.78s0.03-0.73,0.04-0.81
				c-0.01-0.09-0.07-0.69-0.08-0.78c-0.01-0.12-0.07-0.63-0.08-0.78c-0.01-0.26,0.04-0.54,0.04-0.8c-0.01-0.26,0.04-0.55,0.04-0.81
				c0-0.21-0.07-0.56-0.08-0.78c-0.01-0.26,0.04-0.54,0.04-0.81c0-0.2-0.07-0.57-0.08-0.78c0-0.11,0.03-0.71,0.04-0.8
				c0.01-0.13,0.04-0.64,0.04-0.81c0-0.13-0.07-0.67-0.08-0.78c-0.01-0.12-0.07-0.63-0.08-0.78c-0.01-0.26,0.04-0.55,0.04-0.81
				c0,0-0.07-0.67-0.08-0.78c0-0.04,0.03-0.72,0.04-0.81c-0.01-0.23-0.06-0.57-0.08-0.78c-0.01-0.27-0.06-0.56-0.08-0.78
				c-0.01-0.12-0.07-0.63-0.08-0.78c-0.01-0.22,0.04-0.6,0.04-0.81c0.01,0.07,0.08,0.77,0.08,0.78c0,0,0.03-0.75,0.04-0.81
				c0-0.13-0.07-0.68-0.08-0.78c-0.02-0.23-0.05-0.51-0.08-0.78c-0.01-0.18-0.07-0.59-0.08-0.78c-0.01-0.27,0.04-0.54,0.04-0.8
				c0-0.3,0.04-0.51,0.04-0.8c-0.01,0-0.02-0.17-0.04-0.35c-0.02-0.18-0.03-0.38-0.04-0.43c0-0.05-0.07-0.69-0.08-0.78
				c0-0.17,0.04-0.66,0.04-0.81c-0.01-0.25-0.06-0.59-0.08-0.78l-0.15-1.56c0.02-0.04,0.02-0.83,0.04-0.8
				c0.02,0.02,0.02-0.8,0.04-0.81c0.02,0,0.06,0.73,0.08,0.78c0.02,0.05,0.06,0.79,0.08,0.78c0,0,0.03-0.7,0.04-0.8
				c0-0.04-0.07-0.7-0.08-0.78c-0.01-0.27,0.04-0.54,0.04-0.81c-0.01-0.27-0.07-0.52-0.08-0.78c-0.01-0.27,0.04-0.54,0.04-0.81
				l0.07-1.61c-0.03-0.26-0.05-0.53-0.08-0.78c-0.01-0.11-0.08-0.78-0.08-0.78c-0.02,0-0.02,0.83-0.04,0.8
				c-0.02-0.03-0.02,0.78-0.04,0.81c0,0.01-0.02-0.17-0.04-0.35c-0.02-0.19-0.03-0.38-0.04-0.43L13.19,185l0.04-0.81
				c0.01-0.2,0.04-0.55,0.04-0.8c0-0.14-0.07-0.62-0.08-0.78c0-0.18,0.03-0.64,0.04-0.81c0.01-0.29,0.03-0.56,0.04-0.81
				c0.01-0.14,0.04-0.62,0.04-0.8c0-0.11-0.07-0.7-0.08-0.78c-0.02-0.19-0.06-0.54-0.08-0.78c-0.01-0.13,0.04-0.65,0.04-0.8
				c0-0.21-0.07-0.56-0.08-0.78c0-0.18,0.05-0.65,0.04-0.81c-0.01-0.24-0.06-0.6-0.08-0.78c-0.02-0.24-0.05-0.5-0.08-0.78
				c-0.02-0.21-0.07-0.53-0.08-0.78c-0.01-0.21,0.04-0.58,0.04-0.81c-0.01-0.26-0.07-0.52-0.08-0.78c0.01-0.18,0.03-0.64,0.04-0.81
				c0.02-0.14,0.03-0.59,0.04-0.8c0.01-0.11,0.04-0.81,0.04-0.81c0,0.01,0.07,0.74,0.08,0.78c0.01-0.21,0.03-0.55,0.04-0.81
				c0.01-0.12,0.04-0.66,0.04-0.81c0-0.19-0.07-0.61-0.08-0.78c0,0.07-0.03,0.69-0.04,0.81l-0.08-0.78l-0.08-0.78
				c-0.01-0.12-0.07-0.62-0.08-0.78c0-0.12,0.03-0.7,0.04-0.8c0.01-0.25,0.02-0.52,0.04-0.81c0.01-0.22,0.04-0.56,0.04-0.81
				c0-0.21-0.07-0.56-0.08-0.78c-0.01-0.27,0.04-0.53,0.04-0.8c0-0.12-0.07-0.68-0.08-0.78c-0.02-0.23-0.05-0.51-0.08-0.78
				c-0.01-0.18-0.07-0.59-0.08-0.78c-0.01-0.27,0.04-0.53,0.04-0.8c0-0.17,0.03-0.68,0.04-0.81c0.01-0.13,0.04-0.63,0.04-0.8
				c0-0.11-0.07-0.69-0.08-0.78c-0.01-0.11-0.08-0.64-0.08-0.78c0-0.14,0.03-0.69,0.04-0.8c0-0.09,0.04-0.7,0.04-0.81
				c-0.01-0.18-0.07-0.64-0.08-0.78c-0.01-0.12-0.08-0.63-0.08-0.78c-0.01-0.22,0.05-0.6,0.04-0.8c-0.01-0.31-0.07-0.48-0.08-0.78
				c-0.01-0.21,0.04-0.58,0.04-0.8c0-0.17-0.07-0.64-0.08-0.78c0,0.02-0.04,0.79-0.04,0.8c0,0.01-0.02-0.17-0.04-0.35
				c-0.02-0.19-0.04-0.38-0.04-0.43l-0.08-0.78c0.02-0.06,0.02-0.8,0.04-0.81c0,0,0.02,0.21,0.04,0.41s0.03,0.4,0.04,0.37
				c0.02-0.1,0.03-0.61,0.04-0.81l0.04-0.81c0.01-0.15,0.04-0.6,0.04-0.8c-0.01-0.09-0.07-0.7-0.08-0.78l-0.08-0.78
				c-0.02-0.2-0.06-0.53-0.08-0.78c-0.01-0.13,0.04-0.65,0.04-0.81c-0.01-0.25-0.08-0.54-0.08-0.78c-0.01-0.29,0.04-0.52,0.04-0.81
				c0-0.21-0.07-0.56-0.08-0.78c-0.01-0.27,0.05-0.54,0.04-0.81c0.01,0.05,0.08,0.78,0.08,0.78s0.04-0.76,0.04-0.81
				c-0.01-0.27-0.07-0.51-0.08-0.78c-0.01-0.26,0.05-0.54,0.04-0.81c-0.01-0.27-0.07-0.52-0.08-0.78c-0.01-0.27,0.04-0.53,0.04-0.81
				c0-0.24-0.07-0.53-0.08-0.78c0-0.17,0.05-0.66,0.04-0.8c-0.01-0.25-0.06-0.59-0.08-0.78L12,134.18
				c-0.02-0.17-0.07-0.56-0.08-0.78c-0.01-0.17,0.04-0.61,0.04-0.8c-0.01-0.22-0.08-0.57-0.08-0.78c0-0.31,0.04-0.5,0.04-0.81
				c0,0.03,0.08,0.78,0.08,0.78s0.04-0.76,0.04-0.8c-0.01-0.18-0.07-0.65-0.08-0.78c-0.02-0.23-0.05-0.5-0.08-0.78
				c-0.01-0.17-0.08-0.59-0.08-0.78c0-0.16,0.03-0.67,0.04-0.8c0-0.11,0.04-0.81,0.04-0.81c0.02,0,0.06,0.73,0.08,0.78
				c0.02,0.05,0.06,0.79,0.08,0.78c0,0,0.04-0.75,0.04-0.8c0-0.13-0.07-0.68-0.08-0.78c-0.02-0.24-0.05-0.5-0.08-0.78
				c-0.02-0.21-0.07-0.53-0.08-0.78c-0.01-0.21,0.05-0.58,0.04-0.8c-0.01-0.19-0.07-0.61-0.08-0.78l-0.04,0.8
				c0,0-0.07-0.68-0.08-0.78c0-0.05,0.03-0.71,0.04-0.8c0-0.21-0.08-0.56-0.08-0.78c0-0.15,0.03-0.69,0.04-0.8
				c0,0.03,0.08,0.77,0.08,0.78c0,0,0.01-0.17,0.02-0.36c0.01-0.19,0.02-0.4,0.02-0.44c0.01-0.11,0.04-0.67,0.04-0.8
				c0-0.15-0.07-0.67-0.08-0.78l-0.08-0.78c-0.02-0.22-0.05-0.51-0.08-0.78c0-0.09,0.03-0.68,0.04-0.8c0-0.11-0.07-0.69-0.08-0.78
				l-0.08-0.78l0.08-1.61l0.08,0.78c0.02,0.19,0.07,0.53,0.08,0.78c0.01,0.14-0.04,0.64-0.04,0.8c0.01,0.26,0.07,0.52,0.08,0.78
				l0.08-1.61l-0.08-0.78l-0.08-0.78c-0.02-0.23-0.05-0.51-0.08-0.78c0-0.08,0.03-0.69,0.04-0.8c-0.01-0.19-0.07-0.61-0.08-0.78
				c-0.03-0.28-0.06-0.55-0.08-0.78c-0.01-0.11-0.08-0.63-0.08-0.78c0-0.13,0.03-0.7,0.04-0.81c0-0.06,0.04-0.78,0.04-0.81
				c-0.03-0.28-0.06-0.55-0.08-0.78c-0.03-0.24-0.06-0.59-0.08-0.78c-0.02-0.14-0.06-0.73-0.08-0.78c-0.02-0.04-0.02,0.8-0.04,0.81
				c-0.02,0-0.06-0.73-0.08-0.78c0.02-0.14,0.02-0.69,0.04-0.81c0.02-0.11,0.02-0.74,0.04-0.81c0.02-0.05,0.06,0.78,0.08,0.78
				c0.01,0,0.01-0.18,0.02-0.36c0.01-0.19,0.02-0.39,0.02-0.44c0.01-0.19,0.03-0.56,0.04-0.81l0.08-1.61l-0.08-0.78
				c-0.01-0.11-0.08-0.64-0.08-0.78c0-0.14,0.03-0.69,0.04-0.81c0-0.06,0.04-0.76,0.04-0.8c-0.02-0.26-0.06-0.58-0.08-0.78
				c-0.02-0.21-0.06-0.66-0.08-0.78c-0.01-0.05-0.03,0.79-0.04,0.81c-0.01,0.01-0.07-0.69-0.08-0.78l-0.08-0.78
				c0.01-0.26,0.03-0.54,0.04-0.81c0.01-0.11,0.04-0.8,0.04-0.8c0,0.01,0.08,0.74,0.08,0.78c0.01-0.13,0.04-0.62,0.04-0.81
				c0-0.21-0.08-0.56-0.08-0.78c0-0.14,0.05-0.69,0.04-0.81c-0.02-0.27-0.06-0.57-0.08-0.78c-0.02-0.19-0.06-0.68-0.08-0.78
				c-0.01-0.03-0.01,0.17-0.02,0.38c-0.01,0.21-0.02,0.42-0.02,0.42c-0.02,0-0.06-0.73-0.08-0.78c0.01-0.27,0.03-0.53,0.04-0.81
				c0.01-0.27,0.03-0.54,0.04-0.8l0.04-0.81c0.01-0.24,0.03-0.62,0.04-0.81c0.01-0.15,0.02-0.75,0.04-0.81
				c0.02-0.05,0.07,0.78,0.08,0.78c0,0,0.01-0.18,0.02-0.36c0.01-0.19,0.02-0.39,0.02-0.44c0-0.04-0.08-0.76-0.08-0.78
				c-0.02-0.05-0.06-0.78-0.08-0.78c-0.02,0-0.02,0.82-0.04,0.81c-0.02-0.02-0.06-0.73-0.08-0.78c-0.02-0.04-0.02,0.8-0.04,0.8
				c-0.02,0-0.06-0.73-0.08-0.78l0.08-1.61l0.04-0.81c0.01-0.12,0.05-0.65,0.04-0.8c0-0.13-0.07-0.68-0.08-0.78
				c-0.03-0.24-0.06-0.59-0.08-0.78c-0.02-0.15-0.06-0.74-0.08-0.78c0.02-0.1,0.03-0.61,0.04-0.81c0.01-0.26,0.03-0.52,0.04-0.81
				c-0.01-0.06-0.07-0.68-0.08-0.78c0-0.15,0.04-0.68,0.04-0.81c0.01-0.15,0.04-0.61,0.04-0.81c0-0.11-0.07-0.69-0.08-0.78
				l-0.08-0.78c-0.02-0.18-0.07-0.55-0.08-0.78c0-0.06,0.04-0.73,0.04-0.8c0.01-0.11,0.05-0.66,0.04-0.81
				c0-0.13-0.07-0.68-0.08-0.78c-0.02-0.23-0.05-0.5-0.08-0.78c-0.01-0.17-0.08-0.59-0.08-0.78c-0.01-0.27,0.05-0.54,0.04-0.81
				c0-0.14,0.04-0.69,0.04-0.8c0.01-0.14,0.04-0.62,0.04-0.81c0-0.1-0.08-0.69-0.08-0.78c-0.01-0.12-0.08-0.63-0.08-0.78
				c0-0.14,0.04-0.7,0.04-0.81c0,0.03,0.08,0.77,0.08,0.78c0,0,0.04-0.75,0.04-0.8c0-0.14-0.07-0.67-0.08-0.78
				c-0.02-0.21-0.07-0.52-0.08-0.78c-0.01-0.1,0.04-0.67,0.04-0.8c0-0.11-0.07-0.69-0.08-0.78c-0.01-0.12-0.08-0.62-0.08-0.78
				c-0.01-0.23,0.04-0.57,0.04-0.81c0-0.21-0.08-0.56-0.08-0.78c-0.01-0.25,0.04-0.56,0.04-0.81c0-0.3,0.05-0.5,0.04-0.81
				c0-0.21-0.08-0.56-0.08-0.78c-0.01-0.27,0.05-0.54,0.04-0.81c0-0.13-0.07-0.68-0.09-0.78c-0.01-0.11-0.08-0.64-0.08-0.78
				c0-0.14,0.04-0.69,0.04-0.81c0-0.07,0.04-0.74,0.04-0.8c-0.01-0.23-0.07-0.61-0.09-0.78l-0.17-1.56
				c0.02-0.17,0.02-0.65,0.04-0.81c0.01-0.1,0.02-0.8,0.04-0.81c0.02,0,0.06,0.73,0.09,0.78c0.02,0.05,0.06,0.79,0.09,0.78
				c0.02,0,0.03-0.71,0.04-0.8c0,0.03-0.02-0.17-0.04-0.37c-0.02-0.2-0.04-0.41-0.04-0.41c0-0.27,0.05-0.54,0.04-0.81
				c-0.01-0.26-0.07-0.52-0.09-0.78c-0.01-0.3-0.07-0.48-0.09-0.78c-0.01-0.21,0.05-0.58,0.04-0.81c-0.01-0.27-0.07-0.51-0.09-0.78
				c-0.01-0.22,0.05-0.57,0.04-0.81C9.88,45,9.81,44.75,9.81,44.48c-0.01-0.26,0.05-0.54,0.04-0.81c0-0.11-0.08-0.69-0.09-0.78
				c-0.02-0.22-0.06-0.64-0.09-0.78c0,0.02-0.04,0.74-0.04,0.81c0,0.06-0.01,0.26-0.02,0.44c-0.01,0.19-0.02,0.36-0.02,0.36
				c-0.02,0-0.06-0.73-0.09-0.78l0.04-0.81l0.04-0.81c0.01-0.27,0.03-0.53,0.04-0.81c0.01-0.12,0.05-0.66,0.04-0.81
				c-0.01-0.27-0.08-0.51-0.09-0.78c0,0.05-0.04,0.81-0.04,0.81s-0.08-0.68-0.09-0.78c0-0.06,0.04-0.7,0.04-0.81
				c0-0.11-0.08-0.69-0.09-0.78c-0.02-0.16-0.08-0.56-0.09-0.78c-0.01-0.18,0.05-0.61,0.04-0.81c-0.01-0.26-0.08-0.52-0.09-0.78
				c-0.01-0.26-0.08-0.52-0.09-0.78c0-0.14,0.05-0.7,0.04-0.81c-0.02-0.27-0.06-0.57-0.09-0.78l-0.07-0.66
				c0.03-0.35-0.03-0.72-0.11-0.95C8.95,30.8,8.93,30.56,8.9,30.3c0-0.02,0-0.09,0.01-0.17c0.03-0.05,0.05-0.09,0.07-0.12
				l-0.05-0.15c0.01-0.16,0.02-0.32,0.02-0.37c0-0.03-0.01-0.07-0.01-0.11l0.08-0.56c-0.04-0.09-0.1-0.1-0.15-0.08
				c0-0.01,0-0.03,0-0.04c-0.02-0.23-0.05-0.46-0.07-0.65c0.03-0.04,0.05-0.07,0.08-0.08l0-0.67c-0.07-0.22-0.15-0.38-0.23-0.56
				c-0.02-0.13-0.03-0.26-0.04-0.38c0-0.01-0.01,0.09-0.01,0.22L8.54,26.5l-0.01-0.44l0.16-0.01c0.2-0.46,0.13-0.86,0.05-1.22
				c0-0.04,0-0.09,0-0.1c0.01-0.12,0.02-0.73,0.01-0.88l0,0c0.03-0.06,0.05-0.11,0.09-0.17c-0.05-0.19-0.1-0.25-0.16-0.27
				c-0.03-0.19-0.07-0.36-0.07-0.35c-0.01,0.01,0,0.18,0.01,0.37c-0.02,0.01-0.05,0.03-0.07,0.06c-0.03-0.14-0.05-0.28-0.06-0.32
				C8.5,23.27,8.5,23.4,8.5,23.53l-0.1,0.12c-0.03-0.32-0.07-0.63-0.1-0.95l0.1,0.02c0.04,0.16,0.08,0.34,0.09,0.43
				c-0.01-0.13-0.01-0.28-0.02-0.42l0.13,0.02c-0.05-0.56,0.11-1.29-0.23-1.44l-0.02-0.06l0.17-1.5c-0.12-0.02-0.19-0.34-0.22-0.83
				c-0.11,0.19,0.02,0.75,0.07,0.66l-0.09,0.61l-0.2-0.32c-0.03-0.2-0.06-0.39-0.08-0.57l0.03-0.89l0.28-0.6
				c-0.37-0.13-0.18-1.14-0.21-1.97L7.85,15.7l0.13-0.57l-0.14-0.31c0.07,0.32-0.13,0.24-0.15,0.16l0.24-0.43l-0.17-0.93l-0.08,0.14
				l-0.11-0.48c0.04-0.3,0.13-0.78-0.05-0.91l-0.27,0.48c0.03-0.72,0.09-1.28,0.26-1.69c-0.14-0.97-0.28,0.27-0.44-0.11
				c-0.02-0.42,0.19-0.67,0.08-1.15l-0.28,0.6l0.19,0.67l-0.33,0.03l0.08-1.15l0.24-0.43C7.03,9.34,7,8.72,6.85,8.54l-0.14-1.1
				C6.61,6.96,6.41,7.42,6.39,7.67L6.21,7.54l0.16-0.62C6.23,6.28,6.12,5.8,5.92,5.59C5.61,5.37,5.81,4.44,5.61,4.23L5.35,4.91
				c-0.2-0.21-0.29-0.61-0.32-1.23c-0.2,0.13-0.42-0.16-0.57-0.34c0.05,1.04,0.48,2.29,0.34,2.99C4.69,6.31,4.45,6.28,4.48,6.9
				L4.39,6.84c-0.17-0.26-0.2-0.88-0.08-1.2L4.07,5.4c-0.05-0.37-0.01-0.88,0.2-0.8L4.03,4.57l0-0.67l0.33-0.03l-0.18-0.8L3.97,3.66
				L3.88,2.92l-0.2,0.13l0.17,1.39L3.54,4.42C3.23,5.77,3.12,3.95,2.81,3.87c0.07,0.69,0.03,1.38,0.08,2.07
				C2.72,5.67,2.53,5.05,2.42,4.48C2.33,4.64,2.24,4.8,2.15,4.96C2.12,5.48,1.81,5.12,1.83,5.87L2,6.46
				c0.26-0.68,0.54-1.29,0.53,0.18C2.42,6.96,2.4,6.21,2.27,6.45C2.24,7.17,2.5,6.82,2.49,7.28L2.32,7.36
				c-0.14-0.43-0.3-0.15-0.42,0.3L1.89,7.45L1.71,6.99L1.68,6.7L1.47,6.62l0.04,0.49l0.23,0.03c0.18,0.47-0.09,0.94-0.17,1.08
				L1.39,7.56L1.32,7.91l0.24,0.37c-0.19,0.8-0.6,0.84-0.73,1.75c0.24,0.37-0.01,0.92-0.2,1.26c0.06,0.91-0.37,2.01-0.21,2.86
				L0.68,14c0.05,1.04-0.49,1.32-0.63,1.81c0.57,0.68,0.41-0.84,0.74-1.33l0.18,1.13l-0.07,0.01c-0.17-0.26-0.21,0.38-0.26,0.81
				c-0.2-0.55-0.44-0.12-0.53,0.28l0.14,0.43l-0.01,0.13c0.2,0.55,0.41-0.84,0.78-0.37c-0.23,0.3-0.25,0.89-0.37,1.34
				c-0.28-1.07-0.43,0.43-0.56,1c0.13,1.23-0.34,2.43,0.12,3.63l-0.08,1.95c0,0.92,0.26,0.42,0.4,0.65c0,0.04,0,0.09-0.01,0.11
				c0,0.04,0.01,0.13,0.02,0.22c-0.1,0.06-0.09,0.26-0.22,0.5c0,0.34,0.04,0.83,0.17,0.59c0.03-0.22,0.13-0.14,0.22-0.06
				c-0.01,0.16-0.02,0.3-0.03,0.35c0,0.03-0.01,0.09-0.01,0.17c-0.13,0.41-0.3,0.78-0.44,1.03c0.16,0.35,0.31,0.54,0.45,0.87
				c-0.01,0.1-0.02,0.2-0.02,0.33c0,0.13,0.03,0.32,0.05,0.49c-0.1,0.22-0.19,0.5-0.11,1.05c0.03,0.06,0.06,0.06,0.09,0.05
				c-0.01,0.27-0.04,0.58-0.05,0.8c-0.01,0.1-0.05,0.66-0.05,0.8c0,0.16,0.07,0.67,0.08,0.79c0.01,0.12,0.08,0.64,0.08,0.79
				c0,0.13-0.06,0.7-0.05,0.8c0.02,0.28,0.06,0.56,0.08,0.79l0.16,1.58c-0.01,0.01-0.04,0.85-0.05,0.8c-0.02-0.1-0.06-0.6-0.08-0.79
				c-0.01-0.11-0.08-0.79-0.08-0.79s-0.04,0.69-0.05,0.8l-0.05,0.8l0.08,0.79l0.08,0.79c0.02,0.2,0.07,0.53,0.08,0.79
				c0.01,0.11-0.05,0.66-0.05,0.8c0,0.21,0.08,0.57,0.08,0.79c0,0.24-0.06,0.57-0.05,0.8c0.01,0.19,0.07,0.64,0.08,0.79
				c0.01,0.12,0.08,0.64,0.08,0.79c0,0.27-0.05,0.52-0.05,0.8c0,0.17-0.04,0.67-0.05,0.79c-0.01,0.14-0.05,0.61-0.05,0.8
				c0,0.11,0.07,0.7,0.08,0.79C0.94,47.94,1,48.46,1,48.61c0,0.14-0.04,0.69-0.05,0.8c0-0.03-0.08-0.78-0.08-0.79
				c0,0.01-0.05,0.72-0.05,0.8c0.01,0.08,0.07,0.72,0.08,0.79l0.16,1.58c-0.02,0.03-0.03,0.82-0.05,0.8
				c-0.02-0.04-0.05-0.73-0.08-0.79c-0.02-0.04-0.03,0.8-0.05,0.8c0,0-0.07-0.84-0.08-0.79c-0.01,0.07-0.05,0.66-0.05,0.8
				c0,0.21,0.07,0.57,0.08,0.79c0.01,0.27-0.05,0.53-0.05,0.8l0.08,0.79c0.02,0.22,0.05,0.64,0.08,0.79c0-0.01-0.02,0.17-0.03,0.36
				c-0.01,0.19-0.02,0.39-0.02,0.44c-0.01,0.12-0.05,0.63-0.05,0.79c0,0.12,0.07,0.69,0.08,0.79L1,58.94l0.08,0.79l0.16,1.58
				c-0.02,0.17-0.03,0.65-0.05,0.8c-0.02,0.1-0.03,0.8-0.05,0.8c-0.02,0-0.06-0.74-0.08-0.79C1.04,62.06,1,61.32,0.98,61.32
				c0,0-0.05,0.7-0.05,0.8c0,0.12,0.08,0.64,0.08,0.79c0,0.19-0.06,0.62-0.05,0.8c0.01,0.24,0.06,0.6,0.08,0.79
				c0.01,0.12,0.08,0.64,0.08,0.79c0,0.23-0.06,0.58-0.05,0.8c0.01,0.31,0.07,0.49,0.08,0.79c0.01,0.21-0.05,0.58-0.05,0.8
				c0.01,0.26,0.07,0.53,0.08,0.79c0.01,0.2-0.05,0.58-0.05,0.79c0,0.11,0.07,0.7,0.08,0.79c0.01,0.1,0.08,0.66,0.08,0.79
				c0,0.15-0.04,0.68-0.05,0.8c0,0.07-0.04,0.74-0.05,0.8c0.01,0.24,0.06,0.61,0.08,0.79l0.08,0.79l0.08,0.79l0.16,1.58
				c-0.02,0.19-0.03,0.63-0.05,0.8c0-0.02-0.07-0.73-0.08-0.79c-0.01-0.11-0.08-0.79-0.08-0.79s-0.04,0.69-0.05,0.8
				c-0.01,0.2-0.04,0.54-0.05,0.8c0.01,0.05,0.07,0.72,0.08,0.79c0.02,0.19,0.07,0.55,0.08,0.79c0.01,0.13-0.05,0.65-0.05,0.8
				c0,0.21,0.07,0.57,0.08,0.79c0,0.25-0.05,0.55-0.05,0.8c0,0.22-0.04,0.63-0.05,0.8c-0.01,0.19-0.04,0.55-0.05,0.8
				c0,0.14,0.07,0.62,0.08,0.79c0.01,0.26-0.05,0.53-0.05,0.8c0,0.14,0.07,0.68,0.08,0.79l0.08,0.79c0.01,0.14,0.07,0.6,0.08,0.79
				c0,0.1-0.04,0.71-0.05,0.79c-0.01,0.2-0.04,0.55-0.05,0.8c0,0.14,0.07,0.62,0.08,0.79c0,0.25-0.05,0.55-0.05,0.8
				c0,0.17,0.07,0.66,0.08,0.79c0.02,0.21,0.06,0.52,0.08,0.79c0,0.04-0.01,0.15-0.01,0.28c0.14,0.95,0.25,1.85,0.08,2.71
				c0,0.07-0.01,0.14-0.01,0.19c0,0.21,0.07,0.57,0.08,0.79c0,0.24-0.05,0.57-0.05,0.8c0.01,0.2,0.06,0.64,0.08,0.79
				c0.01,0.12,0.07,0.64,0.08,0.79c0.01,0.26-0.05,0.54-0.05,0.8c-0.01-0.06-0.08-0.79-0.08-0.79c0,0.01-0.04,0.72-0.05,0.8
				c0,0.09,0.02,0.22,0.03,0.35l0.48-0.51c-0.13,0.63-0.29,1.27-0.47,1.83c0.02,0.25,0.06,0.45,0.07,0.71
				c0.01,0.21-0.05,0.58-0.05,0.8c0.01,0.27,0.07,0.52,0.08,0.79c0.01,0.23-0.04,0.53-0.04,0.77c0.05,0.22,0.09,0.53,0.13,0.96
				l-0.02,0.18c0.02,0.18,0.04,0.37,0.04,0.47c0.01,0.21-0.05,0.58-0.05,0.79c0,0.11,0.02,0.25,0.04,0.39l0.8,0.85
				c-0.2,1.2-0.63,2.04-0.78,3.11c0.01,0.15,0.03,0.3,0.04,0.41l0.15,1.58c-0.01,0.11-0.01,0.25-0.02,0.39
				c0.24,1.18,0.58,2.48,0.43,3.44l0.31-0.13c-0.12,1.36-0.46,1.59-0.8,1.78l0.01,0.08c0.01,0.15,0.07,0.58,0.08,0.79
				c0,0.08-0.04,0.72-0.05,0.8c-0.01,0.19-0.04,0.54-0.05,0.8c0,0.14,0.07,0.62,0.08,0.79c0,0.1-0.01,0.2-0.02,0.3l0.05,0.08
				l-0.09,0.53c-0.01,0.22-0.04,0.46-0.04,0.68c0.01,0.27,0.07,0.53,0.08,0.79c0.01,0.27-0.05,0.53-0.04,0.8
				c0,0.17,0.03,0.34,0.05,0.52l0.05-0.07c0.01-0.22,0.03-0.45,0.03-0.45s0.02,0.16,0.04,0.35l0.38-0.61
				c0.52,1.7-0.35,4.87,0.63,5.48c-0.25,2.92-0.49,6.54,0,9.36l-0.5,3.33l0.76,1.29c-1.1,1.76,0.02,3.22-0.12,4.89l-0.72,0.8
				c-0.14,1.66,1.46,4.12,0.4,4.76c-0.48,4.03,1.31,7.61,0.01,11.17l0.79,3.4c-0.23,0.99-0.49,2.03-0.78,2.9
				c0.02,0.2,0.04,0.44,0.04,0.5c0.02,0.17,0.05,0.56,0.07,0.79l0.05,0.54c0.09,0,0.19,0.02,0.29,0.14
				c-0.22,1.81,0.46,3.94,0.32,5.61c-0.14,1.37-0.42,1.44-0.72,1.37c-0.01,0.1-0.01,0.2-0.02,0.29c-0.01,0.12-0.04,0.64-0.04,0.79
				c0,0.13,0.06,0.69,0.07,0.79l0.02,0.25c0.33,0.02,0.62,0.05,0.65,1.24c-0.19,0.41-0.35,0.93-0.51,1.5
				c0.01,0.08,0.02,0.16,0.02,0.18c0.01,0.14,0.07,0.6,0.07,0.79c0.01,0.23-0.05,0.56-0.04,0.8c0,0.17,0.07,0.65,0.07,0.79
				c0,0.25-0.03,0.6-0.04,0.8c-0.01,0.17-0.04,0.57-0.04,0.8c0,0.18,0.07,0.6,0.07,0.79c0.01,0.27-0.04,0.53-0.04,0.8
				c0,0.26-0.05,0.53-0.04,0.8c0.01,0.26,0.07,0.53,0.07,0.79c0-0.06,0.04-0.79,0.04-0.8c0,0,0.02,0.17,0.04,0.36
				c0.02,0.19,0.03,0.39,0.04,0.44c0.02,0.19,0.06,0.54,0.07,0.79c0.01,0.14-0.04,0.63-0.04,0.8c0,0.22,0.07,0.58,0.07,0.79
				c0,0.26-0.04,0.56-0.04,0.8c-0.01,0.28-0.03,0.56-0.04,0.8l-0.04,0.8l-0.04,0.8c-0.01,0.21-0.04,0.53-0.04,0.8
				c0,0.05,0.07,0.72,0.07,0.79c0.01,0.12,0.07,0.64,0.07,0.79c0,0.16-0.03,0.66-0.04,0.8c0-0.02-0.07-0.79-0.07-0.79
				c-0.02,0-0.02,0.74-0.04,0.8c0,0.26-0.05,0.53-0.04,0.8c0.01,0.09,0.07,0.74,0.07,0.79c0.01,0.05,0.03-0.78,0.04-0.8
				c0.01-0.01,0.06,0.7,0.07,0.79c0.02,0.19,0.05,0.7,0.07,0.79c0.01,0.03,0.01-0.17,0.02-0.38c0.01-0.21,0.02-0.42,0.02-0.42
				s0.02,0.17,0.04,0.35c0.02,0.18,0.03,0.38,0.04,0.44c0.02,0.17,0.05,0.56,0.07,0.79l0.07,0.79c-0.01,0.01-0.03,0.85-0.04,0.8
				c-0.02-0.08-0.06-0.62-0.07-0.79c-0.02-0.19-0.05-0.7-0.07-0.79c-0.01-0.05-0.03,0.77-0.04,0.8c-0.01,0.04-0.06-0.79-0.07-0.79
				c-0.02,0-0.02,0.74-0.04,0.8l0.07,0.79l0.07,0.79c0.02,0.18,0.06,0.55,0.07,0.79c0.01,0.13-0.04,0.64-0.04,0.8
				c0,0.21,0.07,0.56,0.07,0.79c-0.01,0.1-0.04,0.73-0.04,0.8c0-0.05-0.07-0.78-0.07-0.79c0,0-0.04,0.76-0.04,0.8
				c0.01,0.2,0.06,0.64,0.07,0.79l0.07,0.79l0.14,1.58c-0.01,0.18-0.03,0.64-0.04,0.8c0,0.05-0.01,0.25-0.02,0.44
				c-0.01,0.19-0.01,0.36-0.02,0.36c0,0-0.02-0.21-0.04-0.42c-0.02-0.2-0.03-0.4-0.04-0.37c-0.02,0.1-0.03,0.6-0.04,0.8
				c-0.01,0.15-0.04,0.6-0.04,0.8c0.01,0.09,0.06,0.71,0.07,0.79l0.07,0.79c0.02,0.19,0.06,0.54,0.07,0.79
				c0.01,0.12-0.04,0.65-0.04,0.8c0,0.21,0.07,0.57,0.07,0.79c0.01,0.27-0.04,0.53-0.04,0.8c0,0.26,0.07,0.53,0.07,0.79
				c0.01,0.27-0.04,0.53-0.04,0.8c0.01,0.27,0.07,0.53,0.07,0.79c0,0.22-0.05,0.59-0.04,0.8c0.01,0.2,0.06,0.64,0.07,0.79l0.07,0.79
				c0.02,0.18,0.06,0.55,0.07,0.79c0.01,0.13-0.04,0.64-0.04,0.8c0,0.21,0.07,0.57,0.07,0.79c0.01,0.27-0.04,0.53-0.04,0.8
				L4.2,227.2c-0.02-0.23-0.06-0.62-0.07-0.79c0-0.05-0.02-0.25-0.04-0.44c-0.01-0.18-0.04-0.35-0.04-0.35s-0.03,0.72-0.04,0.79
				c0,0.19,0.07,0.59,0.07,0.79c0,0.28-0.04,0.51-0.04,0.8c0,0.11,0.06,0.7,0.07,0.79c0.01,0.14,0.07,0.6,0.07,0.79
				c0.01,0.21-0.04,0.58-0.04,0.8c0,0.21,0.07,0.57,0.07,0.79c0.01,0.27-0.04,0.53-0.04,0.8c0,0.23,0.07,0.56,0.07,0.79
				c0.01,0.26-0.04,0.53-0.04,0.8c0,0.27-0.04,0.53-0.04,0.8c0,0.21,0.06,0.59,0.07,0.79l0.04-0.8c0,0,0.02,0.17,0.04,0.36
				c0.02,0.19,0.03,0.39,0.04,0.43c0.01,0.09,0.06,0.68,0.07,0.79c0,0.17-0.03,0.67-0.04,0.8c-0.01,0.19-0.02,0.7-0.04,0.8
				c-0.01,0.06-0.07-0.79-0.07-0.79s-0.04,0.76-0.04,0.8c0.01,0.17,0.06,0.66,0.07,0.79l0.07,0.79l0.07,0.79l0.07,0.79
				c0.02,0.22,0.05,0.52,0.07,0.79c0,0.1-0.03,0.66-0.04,0.8c0.01,0.27,0.06,0.53,0.07,0.79c0.01,0.27,0.07,0.53,0.07,0.79
				c0.01,0.25-0.04,0.54-0.04,0.8c0,0.05-0.03,0.78-0.04,0.82c-0.02,0.03-0.06-0.82-0.07-0.81c0,0-0.03,0.68-0.04,0.82
				c0,0.05,0.08,0.79,0.08,0.88c0.01,0.17-0.01,0.77-0.01,0.91c0,0.18-0.02,0.7,0,0.93c0.01,0.12,0.11,0.75,0.12,0.85
				c0.02,0.12,0.11,0.7,0.12,0.83c0.02,0.19,0.02,0.75,0.04,0.92c0.04,0.27,0.1,0.6,0.15,0.79c0.02,0.12,0.14,0.6,0.16,0.75
				c0.03,0.21,0.04,0.7,0.07,0.9c0.03,0.29,0.07,0.64,0.09,0.89c0.01,0.08,0.08,0.84,0.1,0.89c0.05,0.21,0.16,0.52,0.2,0.65
				c0.05,0.16,0.16,0.58,0.2,0.62c0.01,0.13,0.1,0.62,0.14,0.82c0.03,0.17,0.09,0.64,0.15,0.82c0.04,0.14,0.18,0.38,0.23,0.52
				c0.05,0.17,0.11,0.61,0.17,0.77c0.07,0.2,0.17,0.26,0.24,0.44c0.05,0.14,0.12,0.58,0.18,0.71c0.03,0.08,0.22,0.32,0.24,0.36
				c0.01,0.01,0.02,0.03,0.04,0.06c0.03,0.08,0.06,0.11,0.09,0.11c0.05,0.05,0.09,0.11,0.12,0.14c0.03,0.06,0.07,0.19,0.11,0.31
				l0,0.01c0.14,0.88,0.25,1.54,0.45,1.87c0.33,0.39,0.09,1.54,0.3,1.87l0.29-0.82c0.2,0.33,0.29,0.88,0.31,1.71
				c0.21-0.11,0.43,0.33,0.59,0.61c-0.02-1.02-0.26-2.25-0.32-3.18c0.06-0.01,0.13-0.04,0.19-0.04c0.02,0,0.07,0.07,0.12,0.15
				c-0.04,0.12-0.08,0.28-0.06,0.49c0.06-0.03,0.13-0.18,0.17-0.34l0.01,0.01c0.03,0.02,0.06-0.01,0.1-0.04l0.25,0.39
				c0.04,0.5-0.01,1.15-0.22,0.98l0.25,0.11l-0.01,0.88l-0.35-0.06l0.17,1.1l0.23-0.71l0.08,0.99L10.29,267.25z M6.01,15.31
				c0.01,0.02,0.04,0.02,0.06,0.02C6.03,15.42,6,15.56,5.96,15.66c-0.03-0.02-0.07-0.04-0.12-0.05c-0.01-0.05-0.02-0.09-0.04-0.18
				l0.11-0.31C5.95,15.21,5.99,15.28,6.01,15.31z M6.11,14.64c-0.01-0.02-0.03-0.05-0.03-0.06c0-0.01,0.01,0,0.02,0L6.11,14.64z
				 M2.06,14.93l0.03-0.51L2,14.02l0.32,0.56C2.15,14.53,2.25,15.6,2.06,14.93z M6.19,12.96c0.08,0.53-0.06,0.89-0.13,1.24l0,0.01
				c-0.08-0.04-0.2-0.12-0.24-0.1c0.06-0.39,0.3-0.67,0.31-1.26c-0.13,0.24-0.37,0.54-0.38,0C5.79,12.2,6.09,12.69,6.19,12.96z
				 M4.19,13.26l0.11-0.45l0.19,0.77C4.38,14.02,4.23,13.41,4.19,13.26z M3.03,10.67c0,0.1,0.01,0.22,0.03,0.35l0.01,0.1l-0.16,0.38
				c0-0.31,0.01-0.6,0.05-0.85C2.99,10.68,3.01,10.69,3.03,10.67z M5.33,9.66C5.52,10,5.69,9.58,5.81,9.26l0.16,0.72
				c-0.31-0.02-0.48,0.86-0.78,0.38l0.09-0.94L5.04,8.38L5.21,8.3L5.33,9.66z M4.27,9.54c0,0-0.19-0.49-0.2-0.55
				c-0.03-0.12-0.1-0.62-0.11-0.73c-0.01-0.1-0.09-0.73-0.09-0.73s0.03,0.13,0.07,0.27c0.04,0.14,0.07,0.3,0.08,0.34
				C4.08,8.36,4.14,8.53,4.2,8.72c0.04,0.22,0.07,0.46,0.13,0.67C4.31,9.32,4.16,8.97,4.14,8.85C4.13,8.93,4.28,9.51,4.27,9.54z
				 M5.64,6.79L5.64,6.79c0.05,0.11,0.1,0.23,0.13,0.36c-0.02,0.14-0.03,0.3-0.04,0.49c-0.02,0-0.05,0.01-0.07,0.04l-0.04,0.1
				c0.1,0.18,0.05,0.44,0.01,0.61L5.62,8.39C5.35,7.7,5.52,7.28,5.64,6.79z M5.05,6.91L4.93,7.9L4.8,7.8L4.73,8.15L4.7,7.53
				L4.63,7.54C4.72,6.94,4.91,6.94,5.05,6.91z M2.07,9.13L2.12,8.7l0.33,0.08C2.49,9.39,2.24,9.38,2.07,9.13z M2.9,7.46l0.55-0.03
				C3.21,8.1,3.83,9.11,3.44,9.8C3.17,9.33,3,8.23,2.9,7.46z M1.22,15.53c0.01-0.8,0.38-0.79,0.3-1.66c-0.34-0.18-0.38,0-0.52,0.7
				l-0.03-0.96l0.25-0.56c-0.41-0.63,0-1.13,0.09-1.74l0.22-0.17l0.04-0.64l-0.23-0.03l-0.07-0.32c0.21,0.08,0.49,0.48,0.43,1.04
				l0.18,0.13l0.03-0.84L1.76,10.5l0.16-0.62l0.05,0.7c0.2,0.21,0.4-0.04,0.55,0.6c-0.02,0.72,0.36,0.93,0.2,1.55
				c0.15,1.31-0.35-0.05-0.45,0.68l0.02-0.59c0.25-3.7-0.57-1.01-0.36-0.59l-0.16-0.05c0.07-0.35-0.05-1.04-0.2-0.88l-0.13,0.91
				c0.16,0.05,0.21,0.75,0.26,1.12c-0.16,0.62,0.05,1.37-0.04,2.11l0.06,0.11l-0.09,0.73C1.65,15.77,1.43,15.61,1.22,15.53z
				 M1.1,17.65c-0.09-0.4,0.06-0.89,0.16-1.08l0.16,0.05C1.44,17.16,1.32,17.94,1.1,17.65z M1.17,18.77
				c0.09-0.15,0.15-0.27,0.22-0.21c-0.05,0.13-0.09,0.25-0.12,0.32c-0.02,0.02-0.04,0.03-0.07,0.05L1.17,18.77z M0.84,21.73
				l-0.2-0.55c-0.1-0.61,0.22-0.84,0.14-1.5L0.53,19.7c0.03-0.51,0.17-0.75,0.31-0.44l0.18,1.13l0.12-0.21
				c-0.01,0.18-0.03,0.36-0.03,0.43c-0.01,0.03-0.02,0.07-0.03,0.1l-0.3,0.44l0.13,0.26c-0.02,0.12-0.04,0.23-0.07,0.35L0.84,21.73z
				 M2.98,120.73l0.12,0.18l-0.14,0.48C2.84,121.21,2.95,120.83,2.98,120.73z M4.15,122.65l0.16,0.24l-0.19,0.65
				C3.96,123.3,4.11,122.78,4.15,122.65z M4.31,125.86l0.09,0.71l-0.44,0.49C4.03,126.58,3.99,126.23,4.31,125.86z M3.86,137.07
				c0.2,0.5-0.29,1.08-0.04,1.71l-0.09,0.03C3.62,138.27,3.55,137.02,3.86,137.07z M10.43,253.85c-0.06-0.07-0.08-0.11-0.11-0.46
				l0.11-0.11L10.43,253.85z M8.31,253.8c-0.01-0.13,0.02-0.21,0.03-0.29l-0.03-0.29c0.03,0.15,0.05-0.23,0.08,0.01l-0.04,0.13
				l0.03,0.07c0.03,0.18-0.06,0.21-0.06,0.4c0.03-0.05,0.07-0.11,0.07,0.02C8.38,254,8.32,253.87,8.31,253.8z M9.91,254.58
				l0.17-0.16l0.02,0.54C10.01,255.04,9.88,254.94,9.91,254.58z M9.03,258.99c-0.07-0.17-0.13,0-0.17,0.13l-0.05-0.34
				c0.11,0.04,0.18-0.33,0.28-0.09l-0.04,0.41l0.08,0.48l-0.06,0.02L9.03,258.99z M12.49,261.03l-0.18-1.38
				C12.67,259.71,12.76,260.1,12.49,261.03z M10.75,261.25c0.11-0.31-0.14-0.9,0.03-1.22c0.11,0.27,0.17,0.86,0.2,1.27L10.75,261.25
				z M12.43,261.56L12.43,261.56c0,0.03-0.01,0.08-0.03,0.14L12.43,261.56z M11.25,264.76c0.07-0.27,0.15-0.27,0.25-0.33l0.03,0.22
				C11.42,264.87,11.33,265.03,11.25,264.76z"/>
		</g>
	</g>
</g>
</svg>
