<?xml version="1.0" encoding="utf-8"?>
<!-- Generator: Adobe Illustrator 24.0.2, SVG Export Plug-In . SVG Version: 6.00 Build 0)  -->
<svg version="1.1" id="Layer_1" xmlns="http://www.w3.org/2000/svg" xmlns:xlink="http://www.w3.org/1999/xlink" x="0px" y="0px"
	 viewBox="0 0 388.71 37" style="enable-background:new 0 0 388.71 37;" xml:space="preserve">
<style type="text/css">
	.st0{fill:#FFFFFF;}
</style>
<g>
	<g>
		<g>
			<g>
				<g>
					<path d="M77.81,4.7c0-0.01,1.17-0.08,1.11-0.09c-0.12-0.01-0.94-0.05-1.12-0.05c-0.2,0-0.96,0.07-1.11,0.09
						c-0.15,0.01-1.11,0.07-1.11,0.09c0,0.02,1.04,0.03,1.11,0.05c0.37,0,0.75,0.05,1.12,0.05c0.15,0,1.02-0.08,1.11-0.09
						C79,4.74,77.81,4.71,77.81,4.7z"/>
					<path d="M14.22,14.98c0.76,0.11,1.29-0.15,1.29-0.34l-1.28-0.04L14.22,14.98z"/>
					<path d="M12.45,13.95c0.86-0.02,1-0.05,1.29-0.17l-1.28-0.08L12.45,13.95z"/>
					<path d="M18.86,9.55l-0.57-0.15l-0.57,0.27C17.76,9.81,18.59,9.63,18.86,9.55z"/>
					<path d="M21.64,16.58c1-0.12,0.9-0.06,1.63-0.35l-0.71-0.06L21.64,16.58z"/>
					<path d="M12.56,12.35c1.17,0.01,0.56-0.35,0.53-0.44C12.69,12.06,12.14,12.19,12.56,12.35z"/>
					<path d="M15.83,13.2l-1.84-0.21c-0.3-0.15-0.61-0.29-0.69-0.14L13.6,13C13.52,13.25,14.98,13.18,15.83,13.2z"/>
					<path d="M181.37,3.16c0,0-0.13,0.01-0.29,0.02c0.57,0.23,1.74,0.18,3.3-0.02c-0.32-0.01-0.74-0.03-0.78-0.04
						c-0.05-0.01,0.63-0.05,0.95-0.07c0-0.01-0.01-0.02-0.02-0.03c-0.3-0.01-0.88-0.02-0.94-0.03c-0.42,0.02-0.68,0.07-1.11,0.09
						c-0.3,0.01-0.81-0.05-1.12-0.05c-0.11,0-0.31,0.02-0.5,0.03c0.03,0.03,0.06,0.06,0.1,0.08C181.17,3.15,181.36,3.16,181.37,3.16
						z"/>
					<path d="M255.96,1.98c0.16,0,1.01,0.05,1.12,0.05c0.14-0.01,1.11-0.08,1.11-0.09c0-0.01-0.99-0.05-1.12-0.05
						c-0.28,0-0.82-0.05-1.11-0.05c-0.2,0-0.96,0.07-1.11,0.09c-0.15,0.01-1.11,0.07-1.11,0.09c0,0.02,1.04,0.03,1.12,0.05
						C255.23,2.05,255.59,1.98,255.96,1.98z"/>
					<path d="M112.54,16.27c-0.36,0.03-0.74,0.07-1.1,0.1c-0.15,0.02-1.1,0.09-1.1,0.1c0.01,0.01,0.98,0.03,1.13,0.03
						c0.05,0,0.98-0.09,1.1-0.1c0.3-0.01,0.82,0.04,1.13,0.03c0.37-0.01,0.73-0.08,1.1-0.1c-0.37-0.01-0.76-0.02-1.13-0.03
						C113.52,16.3,112.55,16.28,112.54,16.27z"/>
					<path d="M213.09,2.9c0,0-1.05-0.05-1.12-0.05c-0.37,0.01-0.74,0.07-1.11,0.09c0.05,0,1.12,0.05,1.12,0.05
						S213.08,2.91,213.09,2.9z"/>
					<path d="M100.35,16.82c0.38-0.01,0.72-0.09,1.1-0.1c-0.06,0-1.13-0.04-1.13-0.04c-0.04,0-1.1,0.1-1.1,0.1
						S100.28,16.82,100.35,16.82z"/>
					<path d="M385.91,2.32c-0.08-0.03-0.2-0.06-0.3-0.09c-0.11,0-0.2,0-0.3,0c0.17,0.04,0.28,0.11,0.25,0.21L385.91,2.32z"/>
					<path d="M380.21,1.44l0.14-0.01c0.18-0.02,0.34-0.03,0.49-0.03c-0.03-0.02-0.02-0.04,0.03-0.07c-0.35-0.03-0.75-0.05-1.19-0.04
						L380.21,1.44z"/>
					<path d="M387.73,4.02l-0.14-0.26c-1.56,0.09-1.49,0.21-1.94,0.37L387.73,4.02z"/>
					<polygon points="382.24,5.96 382.58,5.95 383.06,5.8 382.2,5.82 					"/>
					<path d="M384.17,1.9l-0.46-0.08c-0.16,0.03-0.8,0.15-0.34,0.23L384.17,1.9z"/>
					<polygon points="383.25,5.62 384.21,5.65 383.83,5.51 					"/>
					<path d="M383.99,5.33l0.39,0c-0.87-0.25,1.53-0.39,0.83-0.59C383.86,4.69,383.68,5.13,383.99,5.33z"/>
					<path d="M383.81,3.37l0.62-0.18c-0.25,0.02-0.75,0.1-0.78,0.18L383.81,3.37z"/>
					<path d="M385.02,4.3c0.36,0.14,0.56,0.11,0.88,0.12l-0.47-0.19L385.02,4.3z"/>
					<path d="M388.71,2.74l-0.63-0.1c-0.22,0.04-1.08,0.2-0.45,0.31L388.71,2.74z"/>
					<path d="M380.07,0.87c-0.43-0.03-0.97,0.02-1.49,0.09c0.55-0.01,1.09-0.03,1.62-0.06C380.13,0.9,380.08,0.89,380.07,0.87z"/>
					<path d="M386.69,5.91l0.02,0C386.71,5.91,386.7,5.91,386.69,5.91L386.69,5.91z"/>
					<path d="M384.8,2.95c0.27,0.11,0.53,0.21,0.56,0.1l-0.27-0.11c0-0.19-1.09-0.12-1.74-0.12L384.8,2.95z"/>
					<path d="M377.21,1.02c0.07-0.04-0.14-0.26-0.67-0.24C376.56,0.89,376.92,1.02,377.21,1.02z"/>
					<path d="M380.45,4.3c-0.05,0.05,0.31,0.25,0.82,0.2C381.18,4.4,380.74,4.29,380.45,4.3z"/>
					<path d="M369.87,1.54l1.42-0.2C370.22,1.11,369.84,1.21,369.87,1.54z"/>
					<path d="M227.87,2.55c-1.56,0.09-1.49,0.21-1.94,0.37l2.08-0.11L227.87,2.55z"/>
					<path d="M237.66,2.69c-0.87-0.25,1.53-0.39,0.83-0.59c-1.34-0.06-1.53,0.39-1.22,0.58L237.66,2.69z"/>
					<path d="M230.53,2.16c0.07-0.04-0.14-0.26-0.67-0.24C229.88,2.02,230.24,2.16,230.53,2.16z"/>
					<path d="M205.57,3.2c-0.28-0.07-0.91-0.11-1.15-0.06C204.46,3.18,205.2,3.31,205.57,3.2z"/>
					<path d="M13.84,12.63l2.62-0.19l-0.16,0.41c2.61,0.49-1.86,0.56-1.33,1.1c0.54,0.16,1.14,0.46,1.75,0.75
						c0.92,0.06,0.14,0.46,1.53,0.45l1.16-0.21c-0.06-0.02-0.11-0.04-0.16-0.05l-0.38,0.06l0.27-0.09c-1-0.33-1.63-0.65,0.83-0.61
						c0.54,0.16-0.85,0.17-0.47,0.36c0.15,0.01,0.26,0,0.37,0l0.17-0.06c-0.01,0.02,0.01,0.03,0.02,0.04
						c0.24-0.02,0.36-0.07,0.44-0.12c0,0,0,0,0,0.01c0.1,0.06,0.28,0.11,0.45,0.16c-0.08,0.03-0.11,0.06-0.14,0.1
						c0.19,0.02,0.26,0.05,0.02,0.12c0.1,0.1,0.36,0.19,0.73,0.28l-0.39,0.01l-0.04,0.01c-0.05-0.01-0.1-0.03-0.14-0.04
						c-0.24-0.07-0.45-0.14-0.66-0.21l-0.08-0.01c0.09,0.13,0.22,0.26,0.37,0.38l-0.38,0.09l-0.54,0.03l-0.23,0.27l0.92-0.04
						l0.16-0.31c0.04-0.01,0.07-0.01,0.11-0.02c0.08,0.06,0.15,0.13,0.23,0.19c0.25,0.08,0.53,0.15,0.83,0.21l-0.56,0.1l0.61,0.1
						l0.3-0.12c0.21,0.05,0.42,0.09,0.62,0.14c0.23,0.05,0.48,0.1,0.74,0.15c-0.08-0.03-0.16-0.05-0.21-0.08l0.16-0.21
						c1,0,2.38,0.18,1.76,0.46c-0.35,0.05-0.71,0.03-1.03-0.02c0.31,0.16,0.67,0.3,1.34,0.38c0.12-0.05,0.25-0.08,0.38-0.09
						c0.19,0.07,0.47,0.19,0.53,0.21c0.1,0.04,0.27,0.1,0.46,0.16c0.18-0.12,0.52-0.23,0.92-0.19l0.15-0.12l-0.75-0.03l0,0.09
						l-0.53-0.11l0.64-0.02c0.23-0.13,0.04-0.26,0.65-0.35c0.64,0.03,0.91-0.23,1.44-0.11c1.21-0.08-0.12,0.23,0.52,0.3l-0.53-0.02
						c-3.28-0.21-1.03,0.36-0.61,0.23l-0.08,0.11c-0.3-0.05-0.94,0.02-0.83,0.12l0.79,0.1c0.08-0.11,0.72-0.13,1.06-0.15
						c0.52,0.11,1.24-0.02,1.88,0.06l0.11-0.04l0.64,0.07c-0.45-0.03-0.64,0.12-0.76,0.25c-0.72-0.01-0.63-0.26-1.43-0.22
						c-0.23,0.22-0.08,0.25,0.52,0.35l-0.87,0.01l-0.45-0.17c-0.65,0.26-1.02-0.02-1.54-0.08l-0.11-0.15l-0.57-0.04l-0.08,0.15
						l-0.06,0.01c0.05,0.01,0.1,0.03,0.16,0.05c0.16,0.04,0.93,0.09,1.13,0.13c0.32,0.07,0.51,0.17,0.86,0.23
						c0.17,0.03,1.02,0.09,1.18,0.1c0.17,0.02,1,0.05,1.2,0.08c0.21,0.03,0.81,0.16,0.97,0.19c0.14,0.03,0.82,0.15,1.03,0.17
						c0.41,0.04,0.85,0.01,1.25,0.04c0.3,0.03,0.77,0.12,1.11,0.15c0.4,0.02,0.88-0.01,1.28,0.01c0.4,0.02,0.88-0.03,1.28-0.02
						c0.4,0.01,0.76,0.1,1.18,0.11c0.41,0.02,0.86-0.06,1.27-0.05c0.42,0,0.8,0.07,1.22,0.08c-0.05,0-1.28,0.06-1.28,0.06
						s1.19,0.08,1.25,0.08c0.29,0.01,1.07-0.07,1.28-0.08l1.26-0.09c0.19-0.01,0.97-0.09,1.14-0.1c0.22-0.01,0.96,0.03,1.13,0.03
						c0.08,0,1.09,0.04,1.13,0.04c0.39-0.03,0.78-0.07,1.1-0.1c0.27-0.02,0.96-0.07,1.1-0.1c0.07-0.01-1.13-0.02-1.13-0.03
						c0-0.01,0.3-0.03,0.58-0.05l2.64,0.12c0.85,0.01,1.05-0.07,1.11-0.18c0.04,0,0.08-0.01,0.12-0.01c0.16,0,1.05,0.03,1.13,0.04
						c0.08,0.01-1.1,0.09-1.1,0.1c0,0.02,1.2,0.02,1.13,0.03c-0.09,0.02-0.86,0.08-1.1,0.1c-0.15,0.01-1.1,0.09-1.1,0.1
						c0,0.02,1.05,0.01,1.13,0.03l2.19-0.2l1.1-0.1l1.09-0.1c0.1-0.01,0.25-0.02,0.39-0.04c0.16,0.07,0.31,0.13,0.44,0.19
						c0.28-0.08,0.52-0.16,0.74-0.24c0.26,0.01,0.53,0.03,0.67,0.02c0.37-0.01,0.73-0.08,1.09-0.1c0.42,0.01,0.7,0.03,1.13,0.03
						c0.23,0,0.88,0.04,1.13,0.03c0.31-0.01,0.8-0.09,1.1-0.1c0.25,0,0.95,0.03,1.13,0.03c0.21,0.01,1.06,0.02,1.13,0.03
						c0.06,0.02-1.1,0.08-1.1,0.1c0.01,0.02,1.05,0.01,1.13,0.03c0.37-0.01,0.76,0.05,1.13,0.03c0.15,0,1-0.09,1.1-0.1
						c0.07-0.01-1.13-0.03-1.13-0.03c0-0.01,1.18-0.09,1.1-0.1c-0.15-0.02-0.86-0.03-1.13-0.03l-1.13-0.03
						c0.41-0.02,0.67-0.08,1.1-0.1c0.26-0.01,0.85,0.04,1.13,0.03c0.3-0.01,0.78-0.09,1.1-0.1c0.2-0.01,0.97,0.03,1.13,0.03
						c0.21,0.01,1.07,0.02,1.13,0.03c0.07,0.02-1.1,0.08-1.1,0.1c0,0,1.05,0.04,1.13,0.04c0.18,0,0.96-0.09,1.1-0.1
						c0.34-0.03,0.83-0.07,1.1-0.1c0.2-0.02,1.03-0.08,1.1-0.1c0.06-0.02-1.12-0.02-1.13-0.03c0,0,1-0.1,1.1-0.1
						c0.13-0.01,1.01,0.03,1.13,0.03l1.13,0.03c0.33,0.01,0.73,0.03,1.13,0.03c0.12,0,0.93-0.09,1.1-0.1
						c0.16-0.01,0.99,0.03,1.13,0.03c0.13,0,0.96,0.04,1.13,0.03c0.23-0.01,0.93-0.08,1.1-0.1c0.32-0.03,0.71-0.07,1.1-0.1
						c0.25-0.02,0.82-0.09,1.1-0.1c0.38-0.01,0.75,0.04,1.13,0.03c-0.06,0-1.1,0.1-1.1,0.1s1.03,0.04,1.13,0.03
						c0.13,0,0.97-0.09,1.1-0.1c0.17-0.01,0.88-0.09,1.1-0.1c0.37-0.01,0.76,0.05,1.13,0.03c0.36-0.01,0.77,0.04,1.13,0.03
						c0.3-0.01,0.78-0.09,1.1-0.1c0.37-0.01,0.76,0.04,1.13,0.03c0.28,0,0.8-0.09,1.1-0.1c0.16-0.01,0.99,0.03,1.13,0.03
						c0.18,0.01,0.9,0.04,1.13,0.03c0.18,0,0.94-0.09,1.1-0.1c0.17-0.01,0.89-0.09,1.1-0.1c0.36-0.01,0.77,0.04,1.13,0.03
						c-0.01-0.01,0.94-0.09,1.1-0.1c0.05,0,1.02,0.04,1.13,0.03c0.32-0.01,0.8-0.08,1.1-0.1c0.38-0.02,0.79-0.07,1.1-0.1
						c0.17-0.01,0.88-0.09,1.1-0.1c0.31-0.01,0.84,0.05,1.13,0.03c-0.1,0-1.1,0.09-1.1,0.1c0,0,1.05,0.04,1.13,0.03
						c0.18,0,0.96-0.09,1.1-0.1c0.32-0.03,0.71-0.07,1.1-0.1c0.25-0.02,0.82-0.09,1.1-0.1c0.37-0.01,0.75,0.04,1.13,0.03
						c0.42-0.01,0.71,0.04,1.13,0.03c0-0.02,0.96-0.08,1.1-0.1c0.07-0.01,0.97-0.09,1.1-0.1c0.24-0.01,0.93,0.05,1.13,0.04
						c0.35-0.02,0.83-0.07,1.1-0.1l2.19-0.2c0.05,0.02,1.16,0.01,1.13,0.03c-0.03,0.02,1.12,0.01,1.13,0.03
						c0.01,0.02-1.03,0.07-1.1,0.1c-0.07,0.02-1.1,0.08-1.1,0.1c0,0.01,0.98,0.03,1.13,0.03c0.06,0,0.98-0.1,1.1-0.1
						c0.37-0.01,0.76,0.05,1.13,0.03c0.37-0.01,0.72-0.09,1.1-0.1c0.37-0.01,0.76,0.04,1.13,0.03l2.26,0.07
						c0.36-0.03,0.74-0.07,1.1-0.1c0.15-0.01,1.1-0.09,1.1-0.1c-0.01-0.02-1.17-0.01-1.13-0.04c0.04-0.02-1.09-0.02-1.13-0.03
						c-0.02-0.01,0.96-0.09,1.1-0.1l1.1-0.1l1.13,0.03c0.27,0.01,0.77,0.04,1.13,0.04c0.2,0,0.86-0.09,1.1-0.1
						c0.26-0.01,0.9,0.03,1.13,0.03c0.41,0,0.78,0.02,1.13,0.03c0.19,0.01,0.88,0.04,1.13,0.03c0.15,0,0.98-0.09,1.1-0.1
						c0.26-0.02,0.76-0.08,1.1-0.1c0.18-0.01,0.91,0.04,1.13,0.03c0.3-0.01,0.78-0.09,1.1-0.1c0.26-0.01,0.91,0.05,1.13,0.03
						c0.33-0.02,0.85-0.08,1.1-0.1c0.34-0.03,0.7-0.07,1.1-0.1c0.3-0.02,0.75-0.08,1.1-0.1c0.3-0.01,0.82,0.04,1.13,0.03
						c0.37-0.01,0.72-0.08,1.1-0.1c0.25,0.02,0.9,0.01,1.13,0.03c0.2,0.02,0.82,0.02,1.13,0.03c0.16,0.01,1.13,0.02,1.13,0.03
						c0,0.01-1.16,0.1-1.1,0.1c0.29,0.02,0.77,0.03,1.13,0.03c0.17,0,0.92,0.04,1.13,0.03c0.27-0.01,0.86-0.08,1.1-0.1
						c-0.1,0.01-0.97-0.04-1.13-0.03l1.1-0.1l1.1-0.1c0.16-0.01,0.88-0.09,1.1-0.1c0.17-0.01,0.99,0.03,1.13,0.03
						c0.35,0.01,0.73,0.03,1.13,0.03c0.31,0,0.78,0.04,1.13,0.03c0.3-0.01,0.78-0.09,1.1-0.1c0.38-0.01,0.75,0.04,1.13,0.03
						c0.17,0,0.96-0.09,1.1-0.1c0.32-0.03,0.71-0.07,1.1-0.1c0.25-0.02,0.83-0.09,1.1-0.1c0.38-0.01,0.75,0.04,1.13,0.04
						c0.24-0.01,0.95,0.03,1.13,0.03c0.18,0.01,0.89,0.04,1.13,0.03c0.16,0,0.97-0.09,1.1-0.1c0.15-0.01,0.9-0.09,1.1-0.1
						c0.2-0.01,0.97,0.03,1.13,0.03c0.13,0,0.98,0.04,1.13,0.03c0.26-0.01,0.89-0.08,1.1-0.1c0.17-0.01,0.88-0.09,1.1-0.1
						c0.31-0.01,0.84,0.05,1.13,0.03c0.43-0.02,0.67-0.08,1.1-0.1c0.3-0.01,0.82,0.04,1.13,0.03c0.23-0.01,0.9-0.08,1.1-0.1
						c0.02,0-1.12-0.03-1.13-0.03c-0.02-0.01,0.96-0.09,1.1-0.1l1.1-0.1c0.08,0.02,1.12,0.01,1.13,0.03c0,0.01-1.18,0.09-1.1,0.1
						c0.14,0.02,0.86,0.03,1.13,0.03l1.13,0.03c0.21,0.01,0.85,0.04,1.13,0.03c0.13,0,0.98-0.09,1.1-0.1l1.1-0.1
						c0.28-0.03,0.74-0.08,1.1-0.1c0.19-0.01,0.91,0.04,1.13,0.03c0.35-0.01,0.75-0.09,1.1-0.1c0.41-0.01,0.73,0.04,1.13,0.03
						c0.3-0.01,0.78-0.09,1.1-0.1c0.38-0.01,0.76,0.04,1.13,0.03c-0.07,0-1.1,0.1-1.1,0.1s1.07,0.04,1.13,0.03
						c0.38-0.01,0.72-0.09,1.1-0.1c0.37-0.01,0.76,0.05,1.13,0.03c0.37-0.01,0.72-0.09,1.1-0.1c0.38-0.01,0.75,0.04,1.13,0.03
						c0.34-0.01,0.75-0.09,1.1-0.1c0.23-0.01,0.93,0.04,1.13,0.03c0.35-0.02,0.83-0.07,1.1-0.1l1.1-0.1c0.23-0.02,0.78-0.08,1.1-0.1
						c0.24-0.01,0.86,0.04,1.13,0.03c0.31-0.01,0.8-0.09,1.1-0.1c0.43-0.01,0.7,0.04,1.13,0.03c-0.05,0-1.1,0.1-1.1,0.1
						s1.07,0.04,1.13,0.04c0.25-0.01,0.92-0.08,1.1-0.1c0.32-0.03,0.7-0.07,1.1-0.1c0.24-0.02,0.82-0.09,1.1-0.1
						c0.23-0.01,0.93,0.03,1.13,0.03c0.15,0,1.13,0.02,1.13,0.03c0.01,0.02-1.03,0.07-1.1,0.1c-0.07,0.02-1.1,0.08-1.1,0.1
						c0,0,1.05,0.04,1.13,0.03c0.18,0,0.95-0.09,1.1-0.1c0.34-0.03,0.7-0.07,1.1-0.1c0.29-0.02,0.75-0.08,1.1-0.1
						c0.3-0.01,0.82,0.04,1.13,0.03c0.27-0.01,0.85-0.08,1.1-0.1l-1.13-0.03c0-0.01,0.96-0.09,1.1-0.1
						c0.08-0.01,0.99,0.04,1.13,0.03c0.3,0,0.79-0.09,1.1-0.1c0.2-0.01,0.96,0.03,1.13,0.03c0.04,0-1.09,0.09-1.1,0.1
						c-0.01,0.01,1,0.03,1.13,0.03c0.15,0,0.94,0.04,1.13,0.03c0.2-0.01,0.94-0.08,1.1-0.1l1.1-0.1c0.31-0.03,0.71-0.07,1.1-0.1
						c0.12-0.01,0.95,0.04,1.13,0.03c0.16,0,0.97-0.09,1.1-0.1l1.1-0.1l2.26,0.07l-1.1,0.1c-0.27,0.02-0.75,0.08-1.1,0.1
						c-0.2,0.01-0.89-0.04-1.13-0.03c-0.37,0.01-0.72,0.08-1.1,0.1l2.26,0.07l1.1-0.1l1.1-0.1c0.33-0.03,0.71-0.07,1.1-0.1
						c0.12-0.01,0.96,0.04,1.13,0.04c0.27-0.01,0.85-0.08,1.1-0.1c0.39-0.03,0.77-0.07,1.1-0.1c0.16-0.01,0.89-0.09,1.1-0.1
						c0.19-0.01,0.98,0.03,1.13,0.03c0.08,0,1.09,0.04,1.13,0.03c0.39-0.02,0.78-0.07,1.1-0.1c0.34-0.03,0.83-0.07,1.1-0.1
						c0.2-0.02,1.03-0.08,1.1-0.1c0.05-0.02-1.12-0.02-1.13-0.04c0-0.02,1.03-0.07,1.1-0.1c0.2,0.02,0.97,0.01,1.13,0.03
						c0.15,0.02,1.04,0.01,1.13,0.03c0.06,0.02-1.1,0.08-1.1,0.1c0,0.02,0.98,0.02,1.13,0.03c0.26,0.02,0.79,0.02,1.13,0.03
						l2.26,0.07l1.1-0.1c0.15-0.01,0.9-0.09,1.1-0.1c0.2-0.01,0.97,0.03,1.13,0.03c0.09,0,1.06,0.04,1.13,0.03
						c0.37-0.02,0.81-0.07,1.1-0.1c0.29-0.03,0.92-0.07,1.1-0.1c0.07-0.01-1.11-0.02-1.13-0.03c-0.02-0.01,0.97-0.09,1.1-0.1
						l1.1-0.1c0.37,0.01,0.76,0.02,1.13,0.03c0.16,0.01,1.13,0.02,1.13,0.03c0,0.01-1.15,0.1-1.1,0.1c0.19,0.01,0.88,0.04,1.13,0.04
						c0.3-0.01,0.78-0.09,1.1-0.1c0.2-0.01,0.97,0.04,1.13,0.03c0.37-0.02,0.8-0.07,1.1-0.1c0.27-0.02,0.96-0.07,1.1-0.1
						c0.07-0.01-1.13-0.02-1.13-0.03c-0.01-0.02,1.03-0.07,1.1-0.1c0.38,0.01,0.74,0.02,1.13,0.03c0.38,0.01,0.76,0.02,1.13,0.04
						l1.13,0.03c0.34,0.01,0.87,0.02,1.13,0.03c0.21,0.01,1.05,0.02,1.13,0.03c0.06,0.02-1.1,0.08-1.1,0.1
						c0.01,0.01,0.97,0.03,1.13,0.03c-0.06,0,1.06-0.09,1.1-0.1c0.07-0.02,1.1-0.08,1.1-0.1c-0.01-0.02-1.15-0.01-1.13-0.03
						c0.03-0.03,1.02-0.07,1.1-0.1c0.06-0.02-1.12-0.02-1.13-0.03c0-0.02,1.03-0.07,1.1-0.1l2.26,0.07l1.13,0.03
						c0.17,0.01,0.92,0.04,1.13,0.04c0.18,0,0.96-0.09,1.1-0.1c0.34-0.03,0.83-0.07,1.1-0.1c0.2-0.02,1.03-0.08,1.1-0.1
						c0.15,0.02,0.86,0.03,1.13,0.03c0.36,0.01,0.73,0.03,1.13,0.03c0.09,0,0.95-0.09,1.1-0.1c0.21-0.01,0.96,0.03,1.13,0.03
						c0.22,0.01,0.86,0.04,1.13,0.03c0.15,0,0.97-0.09,1.1-0.1l1.1-0.1c0.25-0.02,0.77-0.08,1.1-0.1c0.09,0,1.03,0.03,1.13,0.03
						c0.16,0.01,0.92,0.04,1.13,0.03c0.19-0.01,0.95-0.09,1.1-0.1c0.32-0.03,0.7-0.07,1.1-0.1c0.24-0.02,0.82-0.09,1.1-0.1
						c0.37-0.01,0.76,0.04,1.13,0.03c0.2-0.01,0.97,0.03,1.13,0.03c0.2,0.01,0.87,0.04,1.13,0.03c0.15,0,0.96-0.09,1.1-0.1
						c0.17-0.01,0.89-0.09,1.1-0.1c0.2-0.01,0.98,0.03,1.13,0.03c0.04,0-1.1,0.09-1.1,0.1c0,0,1.06,0.04,1.13,0.03
						c0.2-0.01,0.94-0.09,1.1-0.1c0.29-0.03,0.73-0.08,1.1-0.1c0.15-0.01,0.93,0.04,1.13,0.03c0.16,0,0.96-0.09,1.1-0.1
						c0.17-0.02,0.86-0.09,1.1-0.1c0.33-0.01,0.8,0.04,1.13,0.03c0.3,0,0.79-0.09,1.1-0.1c0.36-0.01,0.78,0.04,1.13,0.03
						c0.43,0,0.7,0.04,1.13,0.03c0.3,0,0.78-0.09,1.1-0.1c0.38-0.01,0.75,0.04,1.13,0.03c0.18,0,0.96-0.09,1.1-0.1
						c0.15-0.01,0.9-0.09,1.1-0.1c0.2-0.01,0.97,0.03,1.13,0.03c0.1,0,1.03,0.04,1.13,0.03c0.32-0.02,0.86-0.08,1.1-0.1l2.19-0.2
						c0.25,0.02,0.92,0.01,1.13,0.03c0.14,0.01,1.13,0.02,1.13,0.03c0,0.02-1.03,0.07-1.1,0.1c-0.07,0.02-1.1,0.08-1.1,0.1
						c0,0.02,0.99,0.02,1.13,0.03c-0.08-0.01,1.09-0.09,1.1-0.1c0.37-0.01,0.76,0.05,1.13,0.03c0.37-0.01,0.73-0.08,1.1-0.1
						c0.43-0.02,0.67-0.08,1.1-0.1c0.3-0.01,0.82,0.04,1.13,0.03c0.37-0.01,0.72-0.08,1.1-0.1c0.31-0.01,0.8,0.04,1.13,0.03
						c0.37-0.01,0.72-0.09,1.1-0.1c0.37-0.01,0.75,0.04,1.13,0.03c0.16,0,0.97-0.09,1.1-0.1c0.3-0.03,0.9-0.07,1.1-0.1
						c0.03,0-1.04-0.03-1.13-0.03c-0.16-0.01-1.13-0.02-1.13-0.03c0-0.02,1.03-0.07,1.1-0.1l1.13,0.03l1.13,0.03
						c0.38,0.01,0.75,0.02,1.13,0.03c0.17,0,0.92,0.04,1.13,0.03c0.38-0.01,0.72-0.09,1.1-0.1c-0.06,0-1.13-0.03-1.13-0.03
						c0-0.01,0.96-0.09,1.1-0.1c0.09-0.01,0.98,0.04,1.13,0.03c0.16,0,0.97-0.09,1.09-0.1c0.23-0.02,0.79-0.08,1.1-0.1
						c0.25-0.01,0.85,0.04,1.13,0.03c0.37-0.01,0.73-0.08,1.1-0.1c0.37-0.02,0.73-0.09,1.1-0.1c0.2-0.01,0.98,0.04,1.13,0.03
						c0.38-0.02,0.8-0.07,1.1-0.1l0.93-0.08c0.48,0.03,1.01-0.04,1.33-0.12c0.32-0.03,0.66-0.07,1.03-0.09c0.03,0,0.12,0,0.24,0
						c0.07,0.03,0.12,0.05,0.17,0.07l0.21-0.06c0.23,0.01,0.45,0.02,0.51,0.02c0.04,0,0.1-0.01,0.15-0.01l0.78,0.08
						c0.13-0.04,0.15-0.1,0.12-0.16c0.01,0,0.04,0,0.05-0.01c0.32-0.02,0.64-0.05,0.92-0.08c0.05,0.03,0.1,0.05,0.11,0.08l0.94-0.01
						c0.31-0.07,0.53-0.16,0.79-0.24c0.19-0.02,0.37-0.03,0.53-0.05c0.02,0-0.12-0.01-0.31-0.01c0.04-0.01,0.08-0.02,0.13-0.03
						l0.62-0.02l0.01,0.17c0.64,0.2,1.2,0.12,1.71,0.04c0.05,0,0.12,0,0.14,0c0.17,0.01,1.02,0.01,1.24,0c0,0,0,0,0,0
						c0.08,0.03,0.16,0.05,0.23,0.09c0.26-0.05,0.36-0.11,0.37-0.16c0.26-0.04,0.5-0.07,0.5-0.08c-0.01-0.01-0.25,0-0.52,0.01
						c-0.02-0.02-0.04-0.05-0.08-0.07c0.2-0.03,0.39-0.06,0.45-0.06c-0.17,0.02-0.35,0.02-0.53,0.01c-0.06-0.03-0.12-0.06-0.17-0.1
						c0.45-0.03,0.89-0.07,1.33-0.12l-0.02,0.1c-0.23,0.04-0.48,0.08-0.6,0.09c0.19-0.01,0.39-0.02,0.59-0.02l-0.03,0.13
						c0.79-0.06,1.81,0.09,2.03-0.25c0.03-0.01,0.05-0.01,0.08-0.02l2.11,0.16c0.03-0.12,0.48-0.19,1.17-0.24
						c-0.27-0.11-1.05,0.03-0.92,0.08l-0.85-0.08l0.45-0.2c0.27-0.03,0.55-0.06,0.81-0.09l1.25,0.02l0.85,0.27
						c0.19-0.37,1.6-0.19,2.76-0.24l0.16-0.26l0.8,0.13l0.43-0.15c-0.45,0.08-0.33-0.13-0.22-0.15l0.6,0.24l1.3-0.18l-0.2-0.08
						l0.68-0.11c0.43,0.04,1.1,0.12,1.28-0.06l-0.67-0.27c1.01,0.02,1.79,0.08,2.37,0.24c1.37-0.16-0.37-0.28,0.16-0.45
						c0.58-0.02,0.94,0.18,1.61,0.07l-0.84-0.27L373,7.08l-0.04-0.34l1.61,0.07l0.6,0.24c0.4-0.03,1.28-0.06,1.53-0.22l1.55-0.15
						c0.67-0.11,0.03-0.31-0.33-0.32l0.18-0.18l0.87,0.16c0.9-0.15,1.58-0.27,1.87-0.47c0.32-0.32,1.62-0.12,1.91-0.32l-0.96-0.25
						c0.29-0.2,0.86-0.3,1.73-0.33c-0.17-0.2,0.23-0.42,0.48-0.57c-1.46,0.06-3.21,0.51-4.19,0.37c0.02-0.12,0.08-0.35-0.8-0.32
						l0.09-0.09c0.36-0.17,1.23-0.21,1.68-0.1L381.13,4c0.52-0.05,1.23-0.02,1.12,0.19l0.05-0.24l0.94-0.01l0.04,0.34l1.13-0.19
						l-0.82-0.2l1.03-0.1l-0.17-0.2l-1.95,0.18l0.03-0.31c-1.9-0.3,0.66-0.42,0.78-0.74c-0.97,0.08-1.93,0.04-2.9,0.09
						c0.37-0.16,1.24-0.36,2.04-0.47c-0.22-0.08-0.45-0.17-0.68-0.27c-0.72-0.03-0.22-0.34-1.27-0.32l-0.83,0.18
						c0.96,0.25,1.8,0.53-0.26,0.54c-0.45-0.11,0.61-0.14,0.28-0.27c-1.01-0.02-0.52,0.24-1.17,0.24l-0.11-0.17
						c0.61-0.14,0.21-0.3-0.41-0.42l0.29-0.01l0.65-0.19l0.4-0.03l0.11-0.21l-0.69,0.04l-0.05,0.24c-0.65,0.19-1.32-0.08-1.52-0.16
						l0.95-0.2l-0.49-0.07l-0.52,0.24c-1.12-0.19-1.17-0.6-2.45-0.72c-0.52,0.24-1.3-0.01-1.76-0.19c-1.28,0.06-2.81-0.36-4-0.19
						l0.19,0.27c-1.46,0.06-1.85-0.48-2.54-0.63c-0.95,0.58,1.18,0.41,1.86,0.75l-1.59,0.19l-0.02-0.07
						c0.36-0.17-0.53-0.21-1.14-0.26c0.77-0.21,0.17-0.44-0.39-0.54l-0.61,0.14l-0.18-0.01c-0.77,0.21,1.18,0.41,0.52,0.78
						c-0.42-0.23-1.25-0.24-1.87-0.37c1.51-0.29-0.6-0.43-1.4-0.56c-1.73,0.14-3.4-0.34-5.09,0.14l-2.73-0.07
						c-1.29,0-0.59,0.26-0.91,0.41c-0.06,0-0.13-0.01-0.15,0c-0.06,0-0.18,0.01-0.31,0.02c-0.08-0.1-0.36-0.09-0.7-0.22
						c-0.47,0-1.17,0.05-0.83,0.18c0.31,0.03,0.2,0.13,0.08,0.22c-0.22-0.01-0.43-0.02-0.49-0.02c-0.04,0-0.13-0.01-0.23-0.01
						c-0.57-0.13-1.09-0.3-1.43-0.44c-0.49,0.16-0.76,0.32-1.22,0.46c-0.14-0.01-0.28-0.02-0.46-0.02c-0.19,0-0.44,0.03-0.69,0.05
						c-0.31-0.1-0.69-0.19-1.47-0.11c-0.08,0.03-0.09,0.06-0.07,0.1c-0.38-0.01-0.81-0.03-1.12-0.05c-0.15-0.01-0.93-0.05-1.12-0.05
						c-0.22,0-0.93,0.07-1.11,0.09c-0.17,0.01-0.9,0.08-1.11,0.09c-0.18,0-0.98-0.06-1.12-0.05c-0.39,0.02-0.79,0.06-1.11,0.09
						l-2.22,0.17c-0.01-0.01-1.19-0.04-1.12-0.05c0.14-0.02,0.84-0.06,1.11-0.09c0.15-0.01,1.11-0.07,1.11-0.09
						c0-0.01-0.96-0.04-1.11-0.05l-1.12-0.05L333.9,0.8l-1.11,0.09c-0.29,0.02-0.75,0.07-1.11,0.09c-0.15,0.01-0.93-0.05-1.12-0.05
						c-0.3,0-0.8,0.08-1.11,0.09c-0.33,0.01-0.79-0.06-1.12-0.05c-0.27,0.01-0.9,0.07-1.11,0.09c-0.17,0.01-0.9,0.08-1.11,0.09
						c-0.38,0.01-0.73-0.05-1.12-0.05c-0.24,0-0.94-0.04-1.11-0.05c-0.2-0.01-0.85-0.05-1.12-0.05c-0.15,0-0.98,0.08-1.11,0.09
						c-0.17,0.01-0.9,0.08-1.11,0.09c-0.19,0-0.97-0.04-1.12-0.05c-0.04,0,1.11-0.08,1.11-0.09c0-0.01-1.01-0.05-1.11-0.05
						c-0.11,0-1,0.08-1.11,0.09l-2.22,0.17c-0.04-0.02-1.15-0.03-1.11-0.05c0.05-0.03,1.03-0.06,1.11-0.09
						c0.06-0.02-1.12-0.03-1.11-0.05c0-0.01,1.18-0.08,1.11-0.09c-0.1-0.01-0.93-0.05-1.12-0.05c-0.3,0-0.8,0.08-1.11,0.09
						c-0.37,0.01-0.75-0.05-1.12-0.05l-1.11,0.09c-0.31,0.02-0.9,0.06-1.11,0.09c0.02-0.01-0.98-0.04-1.12-0.05
						c-0.17-0.01-0.89-0.05-1.11-0.05c-0.17,0-0.97,0.08-1.11,0.09l-1.11,0.09l-1.11,0.09l-2.22,0.17
						c-0.24-0.02-0.91-0.02-1.11-0.05c-0.14-0.02-1.12-0.03-1.12-0.05c0-0.02,1.04-0.06,1.11-0.09c0.07-0.02,1.11-0.06,1.11-0.09
						c0-0.01-0.99-0.05-1.11-0.05c-0.17,0-0.91,0.08-1.11,0.09c-0.27,0-0.87-0.06-1.11-0.05c-0.34,0.01-0.85,0.07-1.11,0.09
						c-0.17,0.01-0.9,0.08-1.11,0.09c-0.32,0.01-0.81-0.06-1.12-0.05c-0.43,0.01-0.68,0.07-1.11,0.09c-0.3,0.01-0.81-0.05-1.12-0.05
						c-0.37,0.01-0.74,0.07-1.11,0.09c-0.28,0.01-0.82-0.05-1.11-0.05c-0.16,0-0.98,0.08-1.11,0.09c-0.15,0.01-0.93,0.08-1.11,0.09
						c-0.21,0-0.95-0.04-1.11-0.05c-0.1,0-1.03-0.05-1.12-0.05c-0.34,0.01-0.85,0.07-1.11,0.09l-1.11,0.09l-1.11,0.09l-2.22,0.17
						c-0.26-0.02-0.89-0.03-1.12-0.05c-0.03,0,1.02-0.08,1.11-0.09c0.15-0.01,1.11-0.07,1.11-0.09c0-0.01-0.96-0.04-1.11-0.05
						c-0.28-0.01-0.76-0.05-1.12-0.05c-0.07,0-1.02,0.08-1.11,0.09c-0.27,0.02-0.77,0.07-1.11,0.09c-0.18,0.01-0.91-0.05-1.12-0.05
						c-0.3,0-0.8,0.08-1.11,0.09c-0.36,0.01-0.77-0.05-1.12-0.05c-0.31,0-0.88-0.04-1.11-0.05c-0.27-0.01-0.77-0.05-1.12-0.05
						c-0.2,0-0.87,0.08-1.11,0.09c-0.37,0.01-0.75-0.05-1.11-0.05c-0.2,0-0.96,0.07-1.11,0.09l-1.11,0.09
						c-0.19,0.01-0.85,0.08-1.11,0.09c-0.14,0-1-0.04-1.11-0.05c-0.27-0.01-0.77-0.05-1.12-0.05c-0.2,0-0.88,0.08-1.11,0.09
						c-0.35,0.01-0.77-0.06-1.12-0.05c-0.23,0.01-0.93,0.07-1.11,0.09c-0.3,0.02-0.74,0.07-1.11,0.09c-0.06,0-0.21-0.01-0.39-0.01
						c-1.34,0.15-2.6,0.28-3.8,0.1c-0.1-0.01-0.2-0.01-0.26-0.01c-0.3,0-0.8,0.08-1.11,0.09c-0.33,0.01-0.79-0.06-1.11-0.05
						c-0.27,0.01-0.9,0.07-1.11,0.09c-0.17,0.01-0.9,0.08-1.11,0.09c-0.37,0.01-0.76-0.06-1.12-0.05c0.08,0,1.11-0.09,1.11-0.09
						c0-0.01-1.02-0.05-1.12-0.05c-0.13,0-0.31,0.02-0.49,0.04l0.71,0.52c-0.89-0.13-1.79-0.31-2.56-0.51
						c-0.35,0.02-0.64,0.07-1,0.08c-0.3,0.01-0.81-0.05-1.12-0.05c-0.38,0.01-0.73,0.08-1.11,0.09c-0.32,0.01-0.74-0.05-1.08-0.05
						c-0.31,0.05-0.75,0.1-1.35,0.14l-0.25-0.02c-0.25,0.02-0.52,0.04-0.66,0.05c-0.3,0.01-0.81-0.05-1.11-0.05
						c-0.15,0-0.35,0.02-0.55,0.04l-1.2,0.87c-1.69-0.21-2.86-0.69-4.35-0.84c-0.21,0.01-0.42,0.03-0.57,0.04l-2.22,0.17
						c-0.16-0.01-0.36-0.02-0.55-0.02c-1.66,0.27-3.49,0.65-4.83,0.48l0.17,0.34c-1.9-0.13-2.23-0.5-2.49-0.87l-0.11,0.01
						c-0.22,0.02-0.82,0.08-1.11,0.09c-0.12,0-1.01-0.04-1.12-0.05c-0.27-0.01-0.76-0.05-1.11-0.05c-0.2,0-0.88,0.08-1.11,0.09
						c-0.14,0-0.28-0.01-0.42-0.02L218.7,2.7l-0.75-0.09c-0.31-0.01-0.65-0.05-0.96-0.04c-0.37,0.01-0.74,0.08-1.11,0.09
						c-0.37,0.01-0.75-0.05-1.12-0.05c-0.23,0-0.48,0.03-0.73,0.05l0.1,0.05c0.3,0.01,0.63,0.03,0.63,0.03
						c0.01,0-0.23,0.02-0.49,0.04l0.85,0.42c-2.39,0.58-6.83-0.37-7.69,0.72c-4.1-0.27-9.17-0.53-13.13,0.03l-4.67-0.55l-1.81,0.86
						c-2.47-1.23-4.51,0.03-6.86-0.13l-1.12-0.81c-2.33-0.16-5.79,1.67-6.68,0.46c-5.65-0.54-10.68,1.5-15.67,0.02l-4.77,0.91
						c-1.39-0.27-2.84-0.57-4.06-0.9c-0.28,0.02-0.62,0.04-0.7,0.05c-0.24,0.03-0.78,0.06-1.11,0.09L146.1,4
						c0.01,0.11-0.03,0.22-0.19,0.33c-2.53-0.25-5.53,0.54-7.87,0.38c-1.93-0.17-2.02-0.49-1.92-0.83c-0.14-0.01-0.29-0.02-0.4-0.02
						c-0.17-0.01-0.9-0.05-1.11-0.05c-0.18,0-0.97,0.08-1.11,0.09l-0.35,0.03c-0.02,0.38-0.08,0.73-1.74,0.76
						c-0.57-0.22-1.3-0.41-2.1-0.6c-0.12,0.01-0.22,0.02-0.26,0.02c-0.19,0.02-0.85,0.08-1.11,0.09c-0.32,0.01-0.79-0.05-1.12-0.05
						c-0.24,0-0.91,0.09-1.11,0.09c-0.36,0-0.85-0.04-1.12-0.05c-0.24-0.01-0.8-0.05-1.12-0.05c-0.25,0-0.84,0.08-1.11,0.09
						c-0.37,0.01-0.74-0.05-1.12-0.05c-0.37,0-0.75-0.05-1.12-0.05c-0.36,0.01-0.75,0.08-1.11,0.09c0.09,0,1.11,0.04,1.12,0.05
						c0.02,0.01-0.98,0.08-1.11,0.09c-0.27,0.02-0.76,0.07-1.11,0.09c-0.2,0.01-0.89-0.05-1.12-0.05c-0.31,0.01-0.81,0.08-1.11,0.09
						c-0.37,0-0.79-0.04-1.12-0.05c-0.4-0.01-0.78-0.03-1.12-0.05l-1.12-0.05l-1.12-0.05c-0.29-0.01-0.74-0.04-1.11-0.05
						c-0.07,0-1.02,0.08-1.11,0.09c-0.17,0.01-0.9,0.08-1.11,0.09c-0.22,0-0.93-0.04-1.11-0.05c-0.03,0,1.11-0.09,1.11-0.09
						c0-0.02-1.04-0.03-1.12-0.05c-0.37,0-0.74-0.05-1.12-0.05c-0.13,0-1.04,0.08-1.11,0.09c-0.07,0.01,1.1,0.04,1.12,0.05
						c0.02,0.01-0.98,0.08-1.11,0.09c-0.26,0.02-0.99,0.06-1.11,0.09c-0.08,0.01,1.12,0.03,1.12,0.05c0,0.02-0.96,0.07-1.11,0.09
						c-0.23,0.03-0.78,0.06-1.11,0.09l-1.11,0.09c-0.02-0.02-1.19-0.03-1.12-0.05c0.11-0.02,0.86-0.07,1.11-0.09
						c0.26-0.02,0.98-0.06,1.11-0.09c0.06-0.01-1.08-0.04-1.12-0.05c-0.06-0.02,1.11-0.07,1.11-0.09c0-0.02-1.04-0.03-1.12-0.05
						l-1.11,0.09l-1.11,0.09c-0.26,0.02-0.78,0.07-1.11,0.09c-0.18,0.01-0.9-0.05-1.12-0.05c-0.3,0-0.79,0.08-1.11,0.09
						c-0.15,0-1.02-0.04-1.12-0.05c-0.07-0.01,1.11-0.08,1.11-0.09c0,0-1.07-0.05-1.12-0.05c-0.28,0.01-0.9,0.07-1.11,0.09
						L92.3,4.66l-2.22,0.17c-0.25-0.02-0.9-0.03-1.12-0.05c-0.14-0.01-1.12-0.03-1.12-0.05c0-0.01,1.19-0.07,1.11-0.09
						c-0.14-0.02-0.85-0.04-1.12-0.05C87.63,4.59,87,4.55,86.72,4.55c-0.13,0-1,0.08-1.11,0.09L84.5,4.72
						c-0.27,0.02-0.76,0.07-1.11,0.09c-0.16,0.01-0.91-0.05-1.12-0.05c-0.3,0-0.8,0.08-1.11,0.09c-0.38,0.01-0.74-0.05-1.12-0.05
						c-0.36,0.01-0.75,0.08-1.11,0.09c-0.37,0.01-0.75-0.05-1.12-0.05c-0.37,0.01-0.74,0.08-1.11,0.09
						c-0.3,0.01-0.83-0.06-1.12-0.05c-0.28,0.01-0.9,0.07-1.11,0.09l-1.11,0.09c-0.26,0.02-0.78,0.07-1.11,0.09
						c-0.18,0.01-0.9-0.05-1.12-0.05c-0.3,0-0.8,0.08-1.11,0.09c-0.37,0.01-0.75-0.05-1.12-0.05l1.11-0.09
						c0.33-0.03,0.87-0.06,1.11-0.09c0.15-0.02,1.11-0.07,1.11-0.09c0,0-1.01-0.05-1.11-0.05c-0.26,0-0.83,0.08-1.11,0.09
						c-0.4,0-0.72-0.05-1.12-0.05c-0.16,0-0.98,0.08-1.11,0.09c-0.19,0.01-0.85,0.08-1.11,0.09c-0.29,0.01-0.82-0.05-1.12-0.05
						c-0.3,0-0.8,0.08-1.11,0.09c-0.38,0.01-0.74-0.05-1.12-0.05c-0.32,0-0.78,0.08-1.11,0.09c-0.37,0.01-0.74-0.05-1.12-0.05
						C60.75,5.05,60.37,4.99,60,5c-0.3,0-0.83,0.07-1.11,0.09l1.12,0.05c0.02,0.01-0.98,0.08-1.11,0.09
						c-0.13,0.01-0.95,0.08-1.11,0.09c-0.24,0-0.94-0.04-1.12-0.05c-0.27-0.01-0.98-0.03-1.12-0.05c-0.08-0.01,1.11-0.07,1.11-0.09
						c0,0-1.06-0.05-1.12-0.05c-0.23,0.01-0.93,0.07-1.11,0.09l-1.11,0.09l-1.11,0.09l-1.11,0.09C50.8,5.44,50.38,5.48,50,5.5
						c-0.15,0.01-0.92-0.05-1.12-0.05c-0.37,0.01-0.74,0.07-1.11,0.09c-0.37,0.01-0.74,0.08-1.11,0.09
						c-0.36,0.01-0.76-0.06-1.12-0.05c-0.08,0-1.1-0.04-1.15-0.05c-0.04-0.02,1.15-0.07,1.14-0.09c0-0.01-0.95-0.04-1.16-0.05
						c-0.07,0-1.11,0.09-1.24,0.1c-0.23,0.01-1.08-0.01-1.28-0.01c-0.26,0-0.98-0.03-1.31,0c-0.17,0.01-1.06,0.13-1.2,0.15
						c-0.17,0.02-0.98,0.13-1.16,0.15c-0.27,0.02-1.06,0.02-1.29,0.05c-0.38,0.05-0.84,0.13-1.11,0.18
						c-0.17,0.03-0.84,0.17-1.05,0.2c-0.3,0.04-0.98,0.05-1.26,0.09c-0.4,0.05-0.9,0.08-1.25,0.11c-0.11,0.01-1.17,0.1-1.25,0.12
						c-0.3,0.06-0.72,0.19-0.92,0.25c-0.22,0.06-0.81,0.2-0.87,0.25c-0.18,0.01-0.87,0.13-1.16,0.17c-0.24,0.04-0.89,0.11-1.15,0.18
						c-0.2,0.05-0.53,0.23-0.72,0.28c-0.23,0.06-0.86,0.13-1.08,0.21c-0.28,0.09-0.36,0.21-0.61,0.3c-0.2,0.06-0.81,0.16-1,0.23
						c-0.11,0.04-0.45,0.27-0.5,0.31c-0.02,0.01-0.05,0.03-0.08,0.05c-0.11,0.03-0.15,0.07-0.15,0.11c-0.08,0.06-0.15,0.12-0.2,0.14
						c-0.09,0.04-0.26,0.09-0.44,0.13l-0.02,0c-1.24,0.18-2.16,0.31-2.63,0.57c-0.55,0.41-2.16,0.12-2.63,0.38l1.15,0.36
						c-0.46,0.26-1.24,0.37-2.39,0.39c0.15,0.27-0.47,0.55-0.86,0.75c1.43-0.03,3.16-0.34,4.46-0.41c0.02,0.08,0.06,0.17,0.05,0.24
						c0,0.03-0.1,0.09-0.2,0.16c-0.17-0.05-0.39-0.1-0.68-0.07c0.04,0.08,0.25,0.16,0.48,0.22c0,0-0.01,0.01-0.01,0.01
						c-0.03,0.04,0.01,0.08,0.06,0.13l-0.54,0.31c-0.69,0.05-1.61-0.01-1.38-0.28l-0.16,0.31l-1.23-0.01l0.09-0.44l-1.55,0.22
						l1,0.29l-1.39,0.1L13.84,12.63z M367.21,6.06c-0.02,0.02-0.02,0.04-0.04,0.06c-0.13-0.04-0.32-0.07-0.46-0.11
						c0.03-0.03,0.05-0.07,0.07-0.12c0.07-0.01,0.13-0.02,0.25-0.04l0.43,0.1C367.36,5.99,367.25,6.03,367.21,6.06z M368.15,6.15
						c0.03-0.01,0.06-0.03,0.08-0.03c0.01,0,0,0.01,0,0.02L368.15,6.15z M367.78,2.05l0.72,0.03l0.56-0.1l-0.79,0.32
						C368.34,2.14,366.84,2.25,367.78,2.05z M370.51,6.21c-0.74,0.09-1.25-0.05-1.74-0.12l-0.01,0c0.06-0.08,0.17-0.2,0.15-0.24
						c0.55,0.06,0.93,0.3,1.76,0.3c-0.33-0.13-0.75-0.37,0.01-0.38C371.57,5.8,370.89,6.11,370.51,6.21z M370.11,4.19l0.63,0.1
						l-1.08,0.2C369.03,4.39,369.89,4.23,370.11,4.19z M373.75,3c-0.14,0-0.31,0.01-0.49,0.03l-0.14,0.01l-0.53-0.15
						c0.43-0.01,0.84,0.01,1.19,0.04C373.73,2.95,373.72,2.98,373.75,3z M375.14,5.31c-0.48,0.19,0.1,0.36,0.55,0.48l-1.01,0.17
						c0.03-0.31-1.2-0.48-0.52-0.78l1.32,0.08l1.46-0.25l0.11,0.17L375.14,5.31z M375.31,4.24c0,0,0.69-0.2,0.77-0.2
						c0.17-0.03,0.87-0.11,1.02-0.12c0.14-0.01,1.03-0.1,1.02-0.09c0.01,0-0.18,0.03-0.38,0.07c-0.2,0.04-0.42,0.08-0.48,0.09
						c-0.29,0.05-0.54,0.12-0.8,0.18c-0.3,0.04-0.65,0.08-0.94,0.13c0.1-0.02,0.59-0.18,0.75-0.2
						C376.17,4.09,375.36,4.25,375.31,4.24z M379.17,5.59L379.17,5.59c-0.15,0.06-0.32,0.1-0.5,0.14c-0.2-0.02-0.42-0.03-0.69-0.03
						c0-0.02-0.01-0.05-0.06-0.07l-0.14-0.04c-0.25,0.1-0.61,0.05-0.85,0.01l-0.01-0.01C377.88,5.31,378.47,5.48,379.17,5.59z
						 M379,5l-1.38-0.11l0.13-0.14l-0.49-0.07l0.87-0.03l-0.02-0.07C378.96,4.67,378.96,4.86,379,5z M375.91,2.02l0.61,0.04
						l-0.11,0.33C375.55,2.45,375.56,2.19,375.91,2.02z M378.24,2.85l0.03,0.55c-0.93-0.24-2.34,0.4-3.32,0.01
						C375.62,3.14,377.17,2.95,378.24,2.85z M366.95,1.2c1.12,0,1.11,0.38,2.32,0.29c0.26-0.35,0.01-0.38-0.97-0.52l1.35-0.04
						l0.78,0.25c0.88-0.41,1.59,0,2.44,0.08l0.24,0.22l0.9,0.04l0.05-0.24l0.45-0.08c-0.12,0.21-0.68,0.49-1.46,0.44l-0.18,0.18
						l1.18,0.03l-0.04-0.14l0.87,0.16l-0.99,0.05c-0.29,0.2,0.06,0.41-0.84,0.56c-1.01-0.02-1.31,0.37-2.18,0.22
						c-1.84,0.16,0.08-0.35-0.95-0.45l0.83,0.01c5.19,0.22,1.42-0.58,0.83-0.37l0.07-0.16c0.49,0.07,1.46-0.06,1.23-0.21L371.6,1.4
						c-0.07,0.16-1.06,0.22-1.58,0.27c-0.87-0.16-1.93,0.06-2.95-0.03l-0.16,0.06l-1.02-0.09C366.6,1.64,366.83,1.41,366.95,1.2z
						 M363.97,1.1c0.56-0.1,1.25,0.05,1.52,0.16l-0.07,0.16C364.66,1.44,363.57,1.32,363.97,1.1z M362.4,1.18
						c0.22,0.09,0.37,0.15,0.29,0.22c-0.17-0.05-0.35-0.09-0.45-0.12c-0.02-0.02-0.04-0.04-0.06-0.07L362.4,1.18z M358.25,0.86
						l0.77-0.21c0.85-0.11,1.18,0.22,2.1,0.14l-0.02-0.26c0.72,0.03,1.05,0.16,0.62,0.31l-1.59,0.19l0.3,0.12
						c-0.25-0.01-0.5-0.02-0.61-0.03c-0.05,0-0.1-0.02-0.15-0.03l-0.62-0.3l-0.37,0.14c-0.16-0.02-0.33-0.04-0.49-0.07
						C358.21,0.86,358.23,0.86,358.25,0.86z M219.38,3.55l-0.26,0.14l-0.67-0.16C218.71,3.4,219.25,3.52,219.38,3.55z M216.68,4.85
						l-0.34,0.18l-0.91-0.21C215.77,4.64,216.5,4.81,216.68,4.85z M212.18,5.04l-0.99,0.11l-0.68-0.48
						C211.17,4.74,211.67,4.68,212.18,5.04z M196.46,4.58c-0.71,0.23-1.51-0.33-2.4-0.04l-0.04-0.1
						C194.77,4.31,196.53,4.24,196.46,4.58z M32.63,12.75c0.1-0.07,0.16-0.1,0.64-0.14l0.15,0.14L32.63,12.75z M32.72,10.1
						c0.19-0.02,0.3,0.02,0.41,0.04l0.41-0.03c-0.21,0.04,0.33,0.07-0.02,0.1l-0.18-0.05l-0.1,0.04c-0.26,0.04-0.3-0.07-0.57-0.08
						c0.07,0.03,0.15,0.09-0.03,0.09C32.43,10.19,32.62,10.12,32.72,10.1z M31.61,12.11l0.23,0.21l-0.76,0.03
						C30.97,12.24,31.1,12.07,31.61,12.11z M25.43,11.02c0.24-0.08,0-0.16-0.18-0.22l0.47-0.07c-0.06,0.14,0.46,0.23,0.12,0.36
						l-0.57-0.05l-0.68,0.1l-0.02-0.08L25.43,11.02z M22.56,15.38l1.93-0.23C24.4,15.59,23.86,15.71,22.56,15.38z M22.26,13.18
						c0.44,0.13,1.27-0.18,1.71,0.03c-0.38,0.13-1.21,0.21-1.78,0.26L22.26,13.18z M21.81,15.31
						C21.81,15.31,21.82,15.32,21.81,15.31c-0.04,0-0.11-0.02-0.19-0.04C21.68,15.28,21.75,15.29,21.81,15.31z M17.33,13.83
						c0.38,0.09,0.38,0.18,0.46,0.32l-0.31,0.04C17.17,14.04,16.95,13.93,17.33,13.83z"/>
				</g>
			</g>
		</g>
	</g>
	<g>
		<g>
			<g>
				<g>
					<path d="M310.69,36.18c0,0.01-1.17,0.03-1.11,0.04c0.12,0.01,0.94,0.09,1.11,0.1c0.2,0.01,0.96-0.03,1.11-0.04
						c0.15-0.01,1.11-0.03,1.11-0.04c0-0.02-1.03-0.07-1.11-0.1c-0.37-0.01-0.74-0.09-1.11-0.1c-0.15,0-1.02,0.03-1.11,0.04
						C309.51,36.08,310.69,36.17,310.69,36.18z"/>
					<path d="M374.67,28.64c-0.76-0.15-1.29,0.1-1.31,0.29l1.28,0.09L374.67,28.64z"/>
					<path d="M376.39,29.75c-0.86-0.02-1,0.01-1.3,0.11l1.28,0.14L376.39,29.75z"/>
					<path d="M369.8,33.87l0.56,0.18l0.58-0.24C370.91,33.65,370.08,33.8,369.8,33.87z"/>
					<path d="M367.33,26.72c-1,0.08-0.9,0.02-1.64,0.28l0.7,0.09L367.33,26.72z"/>
					<path d="M376.22,31.34c-1.17-0.06-0.57,0.32-0.55,0.41C376.07,31.62,376.62,31.52,376.22,31.34z"/>
					<path d="M372.98,30.34l1.83,0.29c0.3,0.16,0.59,0.32,0.68,0.17l-0.3-0.16C375.29,30.4,373.83,30.4,372.98,30.34z"/>
					<path d="M207.17,33.26c0,0,0.13-0.01,0.29-0.01c-0.56-0.25-1.73-0.26-3.29-0.12c0.32,0.02,0.74,0.06,0.77,0.07
						c0.05,0.02-0.63,0.02-0.95,0.03c0,0.01,0.01,0.02,0.01,0.03c0.3,0.02,0.88,0.06,0.94,0.07c0.42,0,0.68-0.04,1.11-0.04
						c0.3,0,0.8,0.09,1.11,0.1c0.11,0,0.31,0,0.5-0.01c-0.03-0.03-0.05-0.06-0.09-0.08C207.37,33.28,207.17,33.27,207.17,33.26z"/>
					<path d="M132.59,31.24c-0.16,0-1.01-0.1-1.12-0.1c-0.14,0-1.11,0.03-1.11,0.04c0,0.01,0.98,0.09,1.12,0.1
						c0.28,0.02,0.82,0.09,1.11,0.1c0.2,0.01,0.96-0.03,1.11-0.04c0.15-0.01,1.11-0.03,1.11-0.04c0-0.02-1.04-0.07-1.11-0.1
						C133.33,31.2,132.96,31.25,132.59,31.24z"/>
					<path d="M276.49,23.12c0.36-0.02,0.74-0.03,1.1-0.05c0.15-0.01,1.1-0.04,1.1-0.05c0-0.01-0.98-0.07-1.13-0.08
						c-0.05,0-0.98,0.05-1.1,0.05c-0.3,0-0.82-0.08-1.12-0.08c-0.37-0.01-0.73,0.05-1.1,0.05c0.37,0.03,0.76,0.06,1.13,0.08
						C275.52,23.05,276.49,23.11,276.49,23.12z"/>
					<path d="M175.47,32.16c0,0,1.04,0.09,1.12,0.1c0.37,0.01,0.74-0.04,1.11-0.04c-0.05,0-1.12-0.1-1.12-0.1
						S175.47,32.16,175.47,32.16z"/>
					<path d="M288.7,23.1c-0.38-0.01-0.72,0.06-1.1,0.05c0.06,0,1.12,0.08,1.12,0.08c0.04,0,1.1-0.05,1.1-0.05
						S288.77,23.1,288.7,23.1z"/>
					<path d="M2.78,25.31c0.08,0.04,0.19,0.07,0.3,0.1c0.11,0,0.2,0.01,0.3,0.01c-0.17-0.05-0.27-0.12-0.24-0.22L2.78,25.31z"/>
					<path d="M8.44,26.45l-0.14,0c-0.18,0.01-0.34,0.02-0.49,0.01c0.03,0.02,0.02,0.04-0.03,0.07c0.35,0.05,0.75,0.08,1.18,0.09
						L8.44,26.45z"/>
					<path d="M1.03,23.54l0.13,0.26c1.56-0.02,1.5-0.15,1.95-0.29L1.03,23.54z"/>
					<polygon points="6.6,21.84 6.26,21.83 5.78,21.96 6.64,21.98 					"/>
					<path d="M4.5,25.81l0.46,0.1c0.16-0.02,0.8-0.11,0.35-0.21L4.5,25.81z"/>
					<polygon points="5.58,22.13 4.62,22.06 4.99,22.22 					"/>
					<path d="M4.83,22.39l-0.39-0.02c0.86,0.29-1.55,0.32-0.85,0.55C4.93,23.04,5.13,22.61,4.83,22.39z"/>
					<path d="M4.92,24.36l-0.63,0.15c0.25-0.01,0.75-0.06,0.79-0.14L4.92,24.36z"/>
					<path d="M3.76,23.38c-0.35-0.16-0.55-0.13-0.87-0.16l0.47,0.21L3.76,23.38z"/>
					<path d="M0,24.78l0.62,0.13c0.22-0.03,1.09-0.15,0.47-0.29L0,24.78z"/>
					<path d="M8.55,27.01c0.43,0.05,0.98,0.02,1.49-0.03c-0.55-0.01-1.09-0.01-1.63-0.01C8.49,26.98,8.54,27,8.55,27.01z"/>
					<path d="M2.15,21.69l-0.02,0C2.14,21.69,2.14,21.69,2.15,21.69L2.15,21.69z"/>
					<path d="M3.92,24.74c-0.26-0.12-0.52-0.24-0.55-0.12l0.26,0.12c-0.01,0.19,1.09,0.17,1.74,0.2L3.92,24.74z"/>
					<path d="M11.41,26.99c-0.08,0.04,0.13,0.27,0.66,0.26C12.06,27.15,11.7,27,11.41,26.99z"/>
					<path d="M8.32,23.57c0.05-0.04-0.3-0.26-0.82-0.24C7.59,23.44,8.03,23.57,8.32,23.57z"/>
					<path d="M18.77,26.78l-1.42,0.14C18.4,27.2,18.79,27.12,18.77,26.78z"/>
					<path d="M160.69,31.88c1.56-0.02,1.5-0.15,1.95-0.29l-2.09,0.03L160.69,31.88z"/>
					<path d="M150.9,31.32c0.86,0.29-1.55,0.32-0.85,0.55c1.34,0.11,1.54-0.32,1.24-0.53L150.9,31.32z"/>
					<path d="M158.01,32.16c-0.08,0.04,0.13,0.27,0.66,0.26C158.66,32.32,158.3,32.17,158.01,32.16z"/>
					<path d="M182.99,32.18c0.27,0.08,0.91,0.15,1.15,0.11C184.09,32.25,183.37,32.09,182.99,32.18z"/>
					<path d="M374.95,31l-2.63,0.07l0.18-0.4c-2.58-0.6,1.88-0.48,1.38-1.04c-0.53-0.19-1.12-0.51-1.72-0.83
						c-0.92-0.1-0.12-0.46-1.51-0.51l-1.16,0.16c0.05,0.02,0.11,0.04,0.16,0.06l0.39-0.04l-0.27,0.08c0.99,0.37,1.6,0.72-0.86,0.58
						c-0.53-0.19,0.86-0.13,0.49-0.33c-0.15-0.01-0.26-0.02-0.37-0.02l-0.17,0.05c0.01-0.02-0.01-0.03-0.02-0.05
						c-0.24,0.01-0.36,0.06-0.45,0.11c0,0,0,0,0-0.01c-0.1-0.06-0.28-0.12-0.44-0.18c0.08-0.03,0.11-0.06,0.14-0.09
						c-0.19-0.03-0.26-0.07-0.01-0.12c-0.09-0.1-0.35-0.21-0.72-0.31l0.39,0.01l0.04-0.01c0.05,0.02,0.1,0.03,0.14,0.05
						c0.24,0.08,0.44,0.16,0.65,0.24l0.08,0.01c-0.08-0.13-0.21-0.27-0.35-0.4l0.38-0.08l0.54-0.01l0.25-0.26l-0.92,0l-0.17,0.3
						c-0.04,0.01-0.07,0.01-0.11,0.01c-0.07-0.07-0.15-0.13-0.22-0.2c-0.25-0.09-0.53-0.17-0.82-0.25l0.56-0.08l-0.61-0.13
						l-0.31,0.11c-0.21-0.06-0.42-0.11-0.61-0.17c-0.23-0.06-0.48-0.12-0.73-0.18c0.08,0.03,0.16,0.06,0.21,0.09l-0.16,0.21
						c-1-0.04-2.37-0.28-1.74-0.54c0.35-0.04,0.71,0,1.03,0.06c-0.3-0.17-0.66-0.33-1.32-0.44c-0.13,0.04-0.26,0.06-0.38,0.08
						c-0.19-0.08-0.46-0.21-0.52-0.23c-0.1-0.05-0.27-0.12-0.45-0.18c-0.18,0.11-0.53,0.21-0.93,0.15l-0.16,0.11l0.75,0.06
						l0.01-0.09l0.52,0.13l-0.64-0.01c-0.23,0.12-0.05,0.26-0.66,0.32c-0.64-0.05-0.92,0.19-1.44,0.05
						c-1.21,0.03,0.13-0.22-0.51-0.32l0.53,0.04c3.26,0.35,1.04-0.31,0.62-0.2l0.08-0.1c0.3,0.06,0.94,0.02,0.84-0.08l-0.78-0.13
						c-0.08,0.1-0.73,0.1-1.07,0.11c-0.52-0.13-1.24-0.04-1.88-0.14l-0.12,0.03l-0.63-0.1c0.45,0.05,0.65-0.09,0.77-0.22
						c0.72,0.04,0.62,0.29,1.42,0.28c0.24-0.21,0.09-0.24-0.5-0.37l0.87,0.03l0.44,0.19c0.66-0.23,1.02,0.06,1.54,0.15l0.1,0.15
						l0.56,0.06l0.09-0.15l0.06-0.01c-0.05-0.02-0.1-0.04-0.15-0.05c-0.16-0.05-0.93-0.13-1.12-0.18c-0.31-0.08-0.5-0.19-0.85-0.26
						c-0.17-0.03-1.02-0.13-1.18-0.15c-0.17-0.03-1-0.1-1.2-0.13c-0.21-0.03-0.8-0.2-0.96-0.24c-0.13-0.04-0.81-0.19-1.03-0.22
						c-0.4-0.05-0.85-0.04-1.25-0.09c-0.3-0.04-0.77-0.16-1.1-0.19c-0.4-0.04-0.88-0.03-1.27-0.06c-0.4-0.04-0.88,0-1.28-0.04
						c-0.4-0.03-0.76-0.13-1.17-0.16c-0.41-0.03-0.86,0.02-1.27-0.01c-0.42-0.02-0.8-0.11-1.22-0.13c0.05,0,1.28,0,1.28,0
						s-1.18-0.13-1.25-0.13c-0.29-0.02-1.07,0.02-1.28,0.03l-1.26,0.03c-0.19,0-0.97,0.05-1.15,0.05c-0.22,0-0.96-0.07-1.12-0.08
						c-0.08-0.01-1.08-0.08-1.13-0.08c-0.39,0.01-0.78,0.04-1.1,0.05c-0.27,0.01-0.96,0.03-1.1,0.05c-0.08,0.01,1.12,0.07,1.13,0.08
						c0,0.01-0.3,0.02-0.59,0.03l-2.63-0.23c-0.85-0.05-1.05,0.03-1.12,0.14c-0.04,0-0.08,0.01-0.12,0.01
						c-0.16,0-1.04-0.07-1.12-0.08c-0.08-0.01,1.1-0.04,1.1-0.05c0-0.02-1.2-0.07-1.13-0.08c0.09-0.02,0.86-0.04,1.1-0.05
						c0.16-0.01,1.1-0.04,1.1-0.05c0-0.02-1.05-0.06-1.12-0.08l-2.2,0.1l-1.1,0.05l-1.1,0.05c-0.1,0-0.25,0.01-0.39,0.02
						c-0.16-0.07-0.31-0.15-0.43-0.21c-0.29,0.07-0.52,0.14-0.75,0.21c-0.25-0.02-0.53-0.05-0.66-0.05
						c-0.37-0.01-0.73,0.05-1.1,0.05c-0.42-0.02-0.7-0.06-1.13-0.08c-0.22-0.01-0.88-0.08-1.13-0.08c-0.31,0-0.8,0.06-1.1,0.05
						c-0.25-0.01-0.94-0.07-1.12-0.08c-0.21-0.02-1.06-0.06-1.13-0.08c-0.06-0.02,1.1-0.03,1.1-0.05c-0.01-0.02-1.05-0.06-1.12-0.08
						c-0.37-0.01-0.76-0.08-1.13-0.08c-0.15,0-1,0.04-1.1,0.05c-0.07,0,1.12,0.07,1.13,0.08c0,0.01-1.18,0.04-1.1,0.05
						c0.15,0.02,0.86,0.06,1.13,0.08l1.13,0.08c-0.42,0-0.68,0.05-1.1,0.05c-0.26,0-0.85-0.08-1.13-0.08
						c-0.3-0.01-0.79,0.06-1.1,0.05c-0.2,0-0.97-0.07-1.13-0.08c-0.21-0.02-1.07-0.07-1.12-0.08c-0.07-0.02,1.1-0.03,1.1-0.05
						c0,0-1.04-0.08-1.13-0.08c-0.18,0-0.96,0.05-1.1,0.05c-0.34,0.02-0.83,0.03-1.1,0.05c-0.2,0.02-1.03,0.03-1.1,0.05
						c-0.06,0.02,1.12,0.06,1.12,0.08c0,0-1,0.05-1.1,0.05c-0.13,0-1-0.07-1.12-0.08l-1.13-0.08c-0.33-0.02-0.73-0.06-1.12-0.08
						c-0.12-0.01-0.93,0.05-1.1,0.05c-0.16,0-0.99-0.07-1.13-0.08c-0.13-0.01-0.96-0.08-1.12-0.08c-0.23,0-0.93,0.04-1.1,0.05
						c-0.32,0.02-0.71,0.04-1.1,0.05c-0.25,0.01-0.83,0.06-1.1,0.05c-0.38-0.01-0.75-0.07-1.13-0.08c0.06,0,1.1-0.05,1.1-0.05
						s-1.02-0.08-1.13-0.08c-0.13,0-0.97,0.05-1.1,0.05c-0.17,0.01-0.89,0.05-1.1,0.05c-0.37,0-0.76-0.08-1.12-0.08
						c-0.36,0-0.76-0.07-1.13-0.08c-0.3-0.01-0.79,0.06-1.1,0.05c-0.37-0.01-0.76-0.07-1.13-0.08c-0.28-0.01-0.8,0.05-1.1,0.05
						c-0.16,0-0.99-0.07-1.12-0.08c-0.18-0.01-0.9-0.08-1.13-0.08c-0.18,0-0.95,0.05-1.1,0.05c-0.17,0.01-0.89,0.05-1.1,0.05
						c-0.36-0.01-0.77-0.07-1.13-0.08c0,0.01-0.95,0.04-1.1,0.05c-0.05,0-1.01-0.08-1.13-0.08c-0.32,0-0.8,0.05-1.1,0.05
						c-0.38,0-0.79,0.04-1.1,0.05c-0.17,0.01-0.89,0.05-1.1,0.05c-0.31,0-0.84-0.08-1.13-0.08c0.1,0,1.1-0.05,1.1-0.05
						c0,0-1.05-0.08-1.13-0.08c-0.18,0-0.96,0.04-1.1,0.05c-0.32,0.01-0.71,0.04-1.1,0.05c-0.25,0.01-0.83,0.06-1.1,0.05
						c-0.37-0.01-0.75-0.07-1.12-0.08c-0.42-0.01-0.71-0.07-1.12-0.08c0,0.02-0.96,0.04-1.1,0.05c-0.07,0.01-0.98,0.05-1.1,0.05
						c-0.24,0-0.93-0.09-1.13-0.08c-0.35,0-0.83,0.04-1.1,0.05l-2.2,0.1c-0.05-0.02-1.16-0.06-1.12-0.08
						c0.03-0.02-1.12-0.06-1.13-0.08c-0.01-0.02,1.03-0.03,1.1-0.05c0.07-0.02,1.1-0.03,1.1-0.05c0-0.01-0.97-0.07-1.12-0.08
						c-0.06,0-0.98,0.05-1.1,0.05c-0.37-0.01-0.76-0.08-1.13-0.08c-0.37-0.01-0.73,0.06-1.1,0.05c-0.37-0.01-0.76-0.07-1.13-0.08
						l-2.26-0.17c-0.36,0.02-0.74,0.03-1.1,0.05c-0.15,0.01-1.1,0.04-1.1,0.05c0.01,0.02,1.17,0.06,1.12,0.08
						c-0.04,0.02,1.09,0.06,1.13,0.08c0.02,0.01-0.97,0.05-1.1,0.05l-1.1,0.05l-1.13-0.08c-0.27-0.02-0.77-0.07-1.12-0.08
						c-0.2-0.01-0.87,0.05-1.1,0.05c-0.26,0-0.9-0.07-1.13-0.08c-0.41-0.02-0.78-0.06-1.13-0.08c-0.19-0.01-0.87-0.08-1.12-0.08
						c-0.15,0-0.98,0.05-1.1,0.05c-0.26,0.01-0.76,0.05-1.1,0.05c-0.18,0-0.91-0.08-1.12-0.08c-0.3-0.01-0.79,0.06-1.1,0.05
						c-0.26,0-0.91-0.08-1.13-0.08c-0.33,0-0.85,0.04-1.1,0.05c-0.34,0.02-0.7,0.04-1.1,0.05c-0.3,0.01-0.75,0.05-1.1,0.05
						c-0.3,0-0.82-0.08-1.13-0.08c-0.37-0.01-0.73,0.05-1.1,0.05c-0.25-0.03-0.9-0.05-1.13-0.08c-0.2-0.03-0.82-0.06-1.12-0.08
						c-0.16-0.01-1.12-0.07-1.13-0.08c0-0.01,1.17-0.05,1.1-0.05c-0.29-0.03-0.77-0.06-1.13-0.08c-0.17-0.01-0.92-0.08-1.13-0.08
						c-0.27,0-0.86,0.05-1.1,0.05c0.1,0,0.97,0.08,1.13,0.08l-1.1,0.05l-1.1,0.05c-0.16,0.01-0.88,0.05-1.1,0.05
						c-0.17,0-0.98-0.07-1.12-0.08c-0.35-0.03-0.72-0.06-1.13-0.08c-0.3-0.02-0.78-0.07-1.13-0.08c-0.3-0.01-0.78,0.06-1.1,0.05
						c-0.38-0.01-0.74-0.08-1.12-0.08c-0.17,0-0.96,0.05-1.1,0.05c-0.32,0.02-0.71,0.04-1.1,0.05c-0.25,0.01-0.83,0.06-1.1,0.05
						c-0.38-0.01-0.74-0.08-1.12-0.08c-0.24,0-0.95-0.07-1.13-0.08c-0.18-0.01-0.89-0.08-1.12-0.08c-0.16,0-0.97,0.05-1.1,0.05
						c-0.15,0.01-0.9,0.05-1.1,0.05c-0.2,0-0.97-0.07-1.12-0.08c-0.13-0.01-0.97-0.08-1.13-0.08c-0.26,0-0.9,0.04-1.1,0.05
						c-0.17,0.01-0.89,0.05-1.1,0.05c-0.31,0-0.84-0.08-1.12-0.08c-0.43,0-0.67,0.05-1.1,0.05c-0.3,0-0.81-0.08-1.12-0.08
						c-0.23,0-0.9,0.04-1.1,0.05c-0.02,0,1.12,0.08,1.12,0.08c0.02,0.01-0.97,0.05-1.1,0.05l-1.1,0.05
						c-0.08-0.02-1.12-0.06-1.13-0.08c0-0.01,1.18-0.04,1.1-0.05c-0.14-0.02-0.85-0.06-1.13-0.08l-1.13-0.08
						c-0.21-0.02-0.84-0.08-1.12-0.08c-0.13,0-0.99,0.05-1.1,0.05l-1.1,0.05c-0.28,0.01-0.74,0.05-1.1,0.05
						c-0.19,0-0.9-0.08-1.13-0.08c-0.35,0-0.76,0.06-1.1,0.05c-0.41-0.01-0.72-0.07-1.13-0.08c-0.3-0.01-0.79,0.06-1.1,0.05
						c-0.38-0.01-0.75-0.08-1.13-0.08c0.07,0,1.1-0.05,1.1-0.05s-1.06-0.08-1.13-0.08c-0.38,0-0.72,0.06-1.1,0.05
						c-0.37-0.01-0.76-0.08-1.13-0.08c-0.37,0-0.73,0.06-1.1,0.05c-0.38-0.01-0.74-0.08-1.13-0.08c-0.34-0.01-0.75,0.06-1.1,0.05
						c-0.23,0-0.93-0.09-1.12-0.08c-0.35,0-0.83,0.04-1.1,0.05l-1.1,0.05c-0.23,0.01-0.78,0.05-1.1,0.05
						c-0.24,0-0.85-0.08-1.12-0.08c-0.31,0-0.8,0.06-1.1,0.05c-0.43-0.01-0.7-0.07-1.13-0.08c0.05,0,1.1-0.05,1.1-0.05
						s-1.07-0.08-1.12-0.08c-0.25,0-0.92,0.04-1.1,0.05c-0.32,0.02-0.7,0.04-1.1,0.05c-0.24,0.01-0.83,0.06-1.1,0.05
						c-0.23,0-0.93-0.07-1.12-0.08c-0.15-0.01-1.12-0.07-1.13-0.08c-0.01-0.02,1.03-0.03,1.1-0.05c0.07-0.02,1.1-0.03,1.1-0.05
						c0,0-1.05-0.08-1.12-0.08c-0.18,0-0.96,0.04-1.1,0.05c-0.34,0.02-0.7,0.04-1.1,0.05c-0.3,0.01-0.75,0.05-1.1,0.05
						c-0.3,0-0.81-0.08-1.12-0.08c-0.27,0-0.86,0.05-1.1,0.05l1.12,0.08c0,0.01-0.96,0.05-1.1,0.05c-0.08,0-0.99-0.08-1.12-0.08
						c-0.3-0.01-0.79,0.06-1.1,0.05c-0.2,0-0.96-0.07-1.12-0.08c-0.04,0,1.09-0.05,1.1-0.05c0.02-0.01-1-0.07-1.13-0.08
						c-0.15-0.01-0.93-0.08-1.12-0.08c-0.2,0-0.95,0.04-1.1,0.05l-1.1,0.05c-0.31,0.01-0.71,0.04-1.1,0.05
						c-0.12,0-0.95-0.08-1.12-0.08c-0.16,0-0.97,0.05-1.1,0.05l-1.1,0.05l-2.25-0.17l1.1-0.05c0.27-0.01,0.75-0.05,1.1-0.05
						c0.2,0,0.89,0.08,1.12,0.08c0.37,0.01,0.73-0.05,1.1-0.05l-2.25-0.17l-1.1,0.05l-1.1,0.05c-0.33,0.02-0.71,0.04-1.1,0.05
						c-0.12,0-0.96-0.08-1.12-0.08c-0.27,0-0.85,0.05-1.1,0.05c-0.39,0.01-0.78,0.04-1.1,0.05c-0.16,0.01-0.89,0.05-1.1,0.05
						c-0.19,0-0.98-0.07-1.13-0.08c-0.08-0.01-1.09-0.08-1.13-0.08c-0.39,0.01-0.78,0.04-1.1,0.05c-0.34,0.02-0.83,0.03-1.1,0.05
						c-0.2,0.02-1.03,0.03-1.1,0.05c-0.05,0.02,1.12,0.06,1.13,0.08c0,0.02-1.03,0.03-1.1,0.05c-0.2-0.03-0.97-0.05-1.13-0.08
						c-0.15-0.03-1.03-0.06-1.13-0.08c-0.06-0.02,1.1-0.03,1.1-0.05c0-0.02-0.97-0.07-1.13-0.08c-0.26-0.03-0.79-0.06-1.13-0.08
						l-2.25-0.17l-1.1,0.05c-0.15,0.01-0.9,0.05-1.1,0.05c-0.2,0-0.97-0.07-1.13-0.08c-0.09-0.01-1.06-0.08-1.12-0.08
						c-0.37,0.01-0.81,0.04-1.1,0.05c-0.29,0.01-0.92,0.03-1.1,0.05c-0.07,0.01,1.11,0.07,1.13,0.08c0.02,0.01-0.97,0.05-1.1,0.05
						l-1.1,0.05c-0.37-0.03-0.76-0.06-1.13-0.08c-0.15-0.01-1.12-0.07-1.12-0.08c0-0.01,1.15-0.05,1.1-0.05
						c-0.19-0.02-0.87-0.08-1.13-0.08c-0.3-0.01-0.79,0.06-1.1,0.05c-0.2,0-0.97-0.09-1.13-0.08c-0.37,0.01-0.8,0.04-1.1,0.05
						c-0.27,0.01-0.96,0.03-1.1,0.05c-0.08,0.01,1.13,0.07,1.13,0.08c0.01,0.02-1.03,0.03-1.1,0.05c-0.38-0.03-0.74-0.05-1.13-0.08
						c-0.38-0.03-0.75-0.06-1.12-0.08l-1.13-0.08c-0.34-0.03-0.86-0.06-1.13-0.08c-0.21-0.02-1.05-0.06-1.13-0.08
						c-0.06-0.02,1.1-0.03,1.1-0.05c0-0.02-0.97-0.07-1.13-0.08c0.06,0.01-1.07,0.04-1.1,0.05c-0.07,0.02-1.1,0.03-1.1,0.05
						c0.01,0.02,1.15,0.06,1.13,0.08c-0.03,0.02-1.02,0.03-1.1,0.05c-0.06,0.02,1.12,0.06,1.12,0.08c0,0.02-1.03,0.03-1.1,0.05
						l-2.25-0.17l-1.13-0.08c-0.16-0.01-0.91-0.08-1.12-0.08c-0.18,0-0.96,0.05-1.1,0.05c-0.34,0.02-0.83,0.03-1.1,0.05
						c-0.2,0.02-1.04,0.03-1.1,0.05c-0.15-0.02-0.85-0.06-1.13-0.08c-0.36-0.03-0.72-0.06-1.13-0.08c-0.09-0.01-0.95,0.05-1.1,0.05
						c-0.21,0-0.95-0.07-1.13-0.08c-0.21-0.01-0.86-0.08-1.13-0.08c-0.15,0-0.98,0.05-1.1,0.05l-1.1,0.05
						c-0.25,0.01-0.77,0.05-1.1,0.05c-0.09,0-1.03-0.08-1.12-0.08c-0.16-0.01-0.92-0.08-1.13-0.08c-0.19,0-0.95,0.04-1.1,0.05
						c-0.32,0.01-0.71,0.04-1.1,0.05c-0.24,0.01-0.83,0.06-1.1,0.05c-0.37-0.01-0.75-0.08-1.13-0.08c-0.2,0-0.97-0.07-1.12-0.08
						c-0.2-0.01-0.86-0.08-1.13-0.08c-0.15,0-0.97,0.05-1.1,0.05c-0.17,0.01-0.89,0.05-1.1,0.05c-0.2,0-0.98-0.07-1.13-0.08
						c-0.04,0,1.1-0.04,1.1-0.05c0,0-1.05-0.08-1.12-0.08c-0.2,0-0.95,0.04-1.1,0.05c-0.29,0.01-0.73,0.05-1.1,0.05
						c-0.15,0-0.93-0.08-1.12-0.08c-0.16,0-0.97,0.05-1.1,0.05c-0.17,0.01-0.87,0.05-1.1,0.05c-0.33,0-0.8-0.07-1.13-0.08
						c-0.3-0.01-0.79,0.06-1.1,0.05c-0.36-0.01-0.78-0.07-1.13-0.08c-0.43-0.01-0.69-0.07-1.13-0.08c-0.3-0.01-0.79,0.06-1.1,0.05
						c-0.38-0.01-0.75-0.08-1.13-0.08c-0.18,0-0.96,0.05-1.1,0.05c-0.15,0.01-0.9,0.05-1.1,0.05c-0.2,0-0.97-0.07-1.13-0.08
						c-0.1-0.01-1.03-0.08-1.12-0.08c-0.32,0-0.86,0.04-1.1,0.05l-2.2,0.1c-0.24-0.03-0.92-0.05-1.13-0.08
						c-0.14-0.02-1.12-0.06-1.13-0.08c0-0.02,1.03-0.03,1.1-0.05c0.07-0.02,1.1-0.03,1.1-0.05c0-0.02-0.99-0.06-1.12-0.08
						c0.08,0.01-1.09,0.04-1.1,0.05c-0.37-0.01-0.76-0.08-1.13-0.08c-0.37-0.01-0.73,0.05-1.1,0.05c-0.43,0-0.67,0.05-1.1,0.05
						c-0.3,0-0.82-0.08-1.13-0.08c-0.37-0.01-0.72,0.05-1.1,0.05c-0.31,0-0.8-0.08-1.13-0.08c-0.37-0.01-0.72,0.06-1.1,0.05
						c-0.37,0-0.75-0.08-1.13-0.08c-0.16,0-0.97,0.05-1.1,0.05c-0.3,0.01-0.9,0.03-1.1,0.05c-0.03,0,1.04,0.08,1.13,0.08
						c0.16,0.01,1.12,0.07,1.13,0.08c0,0.02-1.03,0.03-1.1,0.05l-1.13-0.08l-1.13-0.08c-0.38-0.03-0.74-0.05-1.13-0.08
						c-0.17-0.01-0.92-0.08-1.13-0.08c-0.38-0.01-0.72,0.06-1.1,0.05c0.06,0,1.13,0.08,1.13,0.08c0,0.01-0.96,0.05-1.1,0.05
						c-0.09,0-0.98-0.08-1.13-0.08c-0.16,0-0.97,0.05-1.1,0.05c-0.23,0.01-0.79,0.05-1.1,0.05c-0.25,0-0.85-0.08-1.13-0.08
						c-0.37-0.01-0.73,0.05-1.1,0.05c-0.37,0-0.73,0.06-1.1,0.05c-0.2,0-0.98-0.09-1.13-0.08c-0.38,0.01-0.8,0.04-1.1,0.05
						l-0.93,0.04c-0.48-0.05-1.01-0.01-1.33,0.06c-0.32,0.02-0.66,0.04-1.03,0.05c-0.03,0-0.12-0.01-0.24-0.01
						c-0.06-0.03-0.12-0.06-0.16-0.08l-0.22,0.05c-0.23-0.02-0.45-0.04-0.51-0.04c-0.04,0-0.1,0.01-0.15,0.01l-0.78-0.11
						c-0.13,0.04-0.15,0.09-0.12,0.15c-0.01,0-0.04,0-0.05,0c-0.32,0.01-0.64,0.03-0.92,0.04c-0.05-0.03-0.09-0.06-0.1-0.09
						l-0.94-0.03c-0.31,0.06-0.54,0.13-0.8,0.21c-0.19,0.01-0.37,0.02-0.53,0.03c-0.02,0,0.12,0.01,0.31,0.02
						c-0.04,0.01-0.08,0.02-0.13,0.03l-0.62-0.01l0-0.17c-0.63-0.22-1.19-0.17-1.71-0.11c-0.05,0-0.12-0.01-0.14-0.01
						c-0.17-0.02-1.02-0.06-1.24-0.05c0,0,0,0,0,0c-0.08-0.03-0.15-0.05-0.23-0.1c-0.27,0.04-0.36,0.09-0.38,0.15
						c-0.26,0.02-0.51,0.05-0.5,0.05c0.01,0.01,0.25,0.01,0.52,0.01c0.02,0.02,0.04,0.05,0.08,0.08c-0.2,0.02-0.39,0.04-0.45,0.05
						c0.17-0.01,0.35,0,0.53,0.01c0.06,0.03,0.11,0.07,0.17,0.1c-0.45,0.01-0.9,0.03-1.33,0.06l0.03-0.1
						c0.23-0.03,0.48-0.06,0.61-0.07c-0.19,0-0.39,0-0.59,0l0.03-0.13c-0.79,0.03-1.8-0.17-2.04,0.16c-0.03,0-0.05,0.01-0.08,0.01
						l-2.1-0.25c-0.03,0.12-0.48,0.17-1.18,0.19c0.26,0.12,1.05,0.02,0.92-0.04l0.84,0.12l-0.46,0.18
						c-0.28,0.02-0.55,0.04-0.81,0.06l-1.25-0.07l-0.83-0.31c-0.2,0.36-1.6,0.13-2.77,0.12l-0.17,0.25l-0.8-0.16l-0.44,0.13
						c0.45-0.06,0.33,0.15,0.21,0.16l-0.59-0.26l-1.31,0.13l0.2,0.09l-0.68,0.09c-0.42-0.06-1.09-0.17-1.28,0.01l0.65,0.29
						c-1.01-0.06-1.79-0.15-2.36-0.35c-1.37,0.1,0.36,0.29-0.18,0.44c-0.58,0-0.93-0.22-1.61-0.14l0.83,0.31l0.95-0.16l0.02,0.34
						l-1.61-0.14l-0.59-0.26c-0.41,0.01-1.28,0.01-1.53,0.15l-1.56,0.08c-0.68,0.08-0.04,0.31,0.31,0.34l-0.19,0.17l-0.86-0.19
						C8.98,21.72,8.3,21.8,8,21.99c-0.34,0.31-1.62,0.05-1.92,0.24l0.94,0.3c-0.3,0.19-0.87,0.26-1.74,0.26
						c0.17,0.21-0.25,0.41-0.51,0.55c1.46,0.01,3.23-0.37,4.21-0.19c-0.03,0.12-0.09,0.35,0.78,0.35l-0.1,0.09
						c-0.37,0.16-1.24,0.16-1.68,0.02l-0.35,0.23c-0.52,0.03-1.23-0.03-1.11-0.24l-0.06,0.23l-0.94-0.03L5.5,23.47l-1.13,0.14
						l0.82,0.24l-1.04,0.05l0.17,0.21l1.96-0.1l-0.04,0.31c1.88,0.38-0.68,0.39-0.81,0.71c0.98-0.04,1.93,0.04,2.9,0.03
						c-0.38,0.15-1.25,0.31-2.06,0.39c0.22,0.09,0.44,0.19,0.67,0.29c0.71,0.06,0.2,0.35,1.25,0.37l0.84-0.14
						c-0.94-0.3-1.78-0.61,0.28-0.52c0.44,0.13-0.61,0.11-0.29,0.26c1.01,0.06,0.53-0.22,1.18-0.19l0.1,0.18
						c-0.61,0.11-0.22,0.29,0.4,0.44l-0.29,0l-0.66,0.16l-0.41,0.01l-0.12,0.2L9.9,26.5l0.06-0.23c0.66-0.16,1.32,0.14,1.51,0.22
						l-0.95,0.16l0.49,0.09l0.53-0.22c1.11,0.24,1.15,0.65,2.41,0.83c0.53-0.22,1.3,0.06,1.75,0.27c1.28-0.01,2.8,0.48,3.99,0.37
						l-0.18-0.28c1.46,0.01,1.83,0.56,2.51,0.74c0.98-0.54-1.16-0.46-1.83-0.82l1.6-0.12l0.02,0.07c-0.37,0.16,0.52,0.24,1.12,0.31
						c-0.77,0.17-0.19,0.44,0.37,0.56l0.61-0.11l0.18,0.02c0.77-0.17-1.16-0.46-0.48-0.81c0.41,0.25,1.24,0.3,1.85,0.45
						c-1.52,0.23,0.58,0.46,1.37,0.62c1.73-0.07,3.38,0.48,5.09,0.08l2.72,0.19c1.29,0.05,0.6-0.24,0.93-0.37
						c0.06,0,0.12,0.01,0.15,0.01c0.06,0,0.18,0,0.31,0c0.08,0.1,0.36,0.11,0.69,0.25c0.47,0.02,1.17,0,0.84-0.14
						c-0.31-0.04-0.19-0.14-0.07-0.23c0.22,0.02,0.42,0.04,0.48,0.04c0.04,0,0.13,0.01,0.23,0.02c0.56,0.16,1.07,0.35,1.41,0.5
						c0.5-0.14,0.77-0.29,1.24-0.41c0.14,0.02,0.28,0.03,0.46,0.04c0.19,0.01,0.44-0.01,0.69-0.02c0.31,0.11,0.68,0.22,1.46,0.18
						c0.08-0.03,0.09-0.06,0.07-0.09c0.38,0.02,0.81,0.07,1.11,0.1c0.15,0.01,0.92,0.09,1.11,0.1c0.22,0.01,0.94-0.03,1.11-0.04
						c0.17-0.01,0.9-0.04,1.11-0.04c0.18,0,0.98,0.1,1.11,0.1c0.39,0,0.79-0.03,1.11-0.04l2.23-0.08c0.01,0.01,1.19,0.09,1.11,0.1
						c-0.14,0.02-0.84,0.03-1.11,0.04c-0.15,0.01-1.11,0.03-1.11,0.04c0,0.01,0.96,0.08,1.11,0.1l1.12,0.1l1.11-0.04l1.11-0.04
						c0.29-0.01,0.75-0.04,1.11-0.04c0.15,0,0.92,0.09,1.12,0.1c0.3,0.01,0.8-0.05,1.11-0.04c0.33,0.01,0.79,0.09,1.12,0.1
						c0.27,0,0.9-0.03,1.11-0.04c0.17,0,0.9-0.04,1.11-0.04c0.38,0.01,0.73,0.08,1.12,0.1c0.24,0.01,0.93,0.08,1.11,0.1
						c0.2,0.02,0.85,0.09,1.12,0.1c0.15,0.01,0.98-0.03,1.11-0.04c0.17,0,0.9-0.04,1.11-0.04c0.19,0.01,0.96,0.08,1.12,0.1
						c0.04,0-1.11,0.03-1.11,0.04c0,0.01,1,0.09,1.11,0.1c0.11,0,1.01-0.03,1.11-0.04l2.23-0.08c0.04,0.02,1.15,0.08,1.11,0.1
						c-0.05,0.02-1.03,0.02-1.11,0.04c-0.06,0.02,1.11,0.08,1.11,0.1c0,0.01-1.19,0.03-1.11,0.04c0.1,0.01,0.93,0.09,1.12,0.1
						c0.3,0.01,0.8-0.05,1.11-0.04c0.37,0.01,0.74,0.08,1.12,0.1l1.11-0.04c0.31-0.01,0.9-0.02,1.11-0.04
						c-0.02,0.01,0.98,0.08,1.12,0.1c0.17,0.02,0.88,0.09,1.11,0.1c0.17,0.01,0.97-0.03,1.11-0.04l1.11-0.04l1.11-0.04l2.23-0.08
						c0.24,0.03,0.91,0.06,1.11,0.1c0.14,0.02,1.11,0.08,1.12,0.1c0,0.02-1.04,0.02-1.11,0.04C86.88,30,85.84,30,85.84,30.02
						c0,0.01,0.98,0.09,1.11,0.1c0.17,0.01,0.91-0.04,1.12-0.04c0.27,0.01,0.86,0.09,1.11,0.1c0.34,0,0.85-0.03,1.11-0.04
						c0.17,0,0.9-0.04,1.11-0.04c0.32,0.01,0.81,0.09,1.11,0.1c0.43,0.01,0.69-0.04,1.11-0.04c0.3,0,0.8,0.09,1.12,0.1
						c0.37,0.01,0.74-0.04,1.11-0.04c0.28,0,0.82,0.09,1.11,0.1c0.16,0.01,0.98-0.03,1.11-0.04c0.15,0,0.93-0.04,1.12-0.04
						c0.21,0.01,0.95,0.08,1.11,0.1c0.1,0.01,1.03,0.1,1.12,0.1c0.34,0,0.85-0.03,1.11-0.04l1.11-0.04l1.11-0.04l2.22-0.08
						c0.26,0.03,0.89,0.06,1.12,0.1c0.03,0-1.03,0.04-1.11,0.04c-0.15,0.01-1.11,0.03-1.11,0.04c0,0.01,0.96,0.08,1.11,0.1
						c0.28,0.02,0.76,0.08,1.12,0.1c0.07,0,1.02-0.03,1.11-0.04c0.27-0.01,0.77-0.04,1.11-0.04c0.18,0,0.9,0.09,1.12,0.1
						c0.3,0.01,0.8-0.05,1.11-0.04c0.36,0.01,0.76,0.08,1.12,0.1c0.31,0.01,0.88,0.08,1.11,0.1c0.27,0.02,0.76,0.08,1.12,0.1
						c0.2,0.01,0.88-0.04,1.11-0.04c0.37,0.01,0.74,0.09,1.11,0.1c0.2,0.01,0.96-0.03,1.11-0.04l1.12-0.04
						c0.19-0.01,0.85-0.04,1.11-0.04c0.14,0,0.99,0.09,1.11,0.1c0.27,0.02,0.76,0.08,1.12,0.1c0.2,0.01,0.88-0.04,1.11-0.04
						c0.35,0.01,0.77,0.09,1.12,0.1c0.23,0,0.93-0.03,1.11-0.04c0.3-0.01,0.74-0.04,1.11-0.04c0.06,0,0.21,0.01,0.39,0.03
						c1.34-0.09,2.61-0.16,3.81,0.07c0.1,0.01,0.2,0.02,0.26,0.02c0.3,0.01,0.8-0.05,1.11-0.04c0.33,0.01,0.79,0.09,1.11,0.1
						c0.27,0,0.9-0.03,1.11-0.04c0.17,0,0.9-0.04,1.11-0.04c0.37,0.01,0.75,0.09,1.12,0.1c-0.08,0-1.12,0.04-1.12,0.04
						c0,0.01,1.01,0.09,1.12,0.1c0.13,0.01,0.31-0.01,0.49-0.02l-0.69-0.55c0.88,0.17,1.77,0.39,2.54,0.62c0.35,0,0.64-0.04,1-0.03
						c0.3,0,0.8,0.09,1.12,0.1c0.38,0.01,0.73-0.05,1.11-0.04c0.32,0.01,0.74,0.08,1.07,0.09c0.31-0.04,0.75-0.07,1.36-0.08
						l0.25,0.03c0.25-0.01,0.52-0.02,0.66-0.02c0.3,0.01,0.8,0.08,1.11,0.1c0.15,0.01,0.35-0.01,0.55-0.02l1.24-0.82
						c1.68,0.29,2.83,0.81,4.31,1.03c0.21-0.01,0.42-0.01,0.57-0.02l2.23-0.08c0.16,0.02,0.36,0.03,0.55,0.05
						c1.67-0.2,3.51-0.5,4.84-0.27l-0.16-0.35c1.89,0.21,2.2,0.6,2.45,0.98l0.11,0c0.22-0.01,0.82-0.04,1.11-0.04
						c0.12,0,1,0.09,1.12,0.1c0.27,0.02,0.76,0.08,1.11,0.1c0.2,0.01,0.88-0.04,1.11-0.04c0.14,0,0.28,0.02,0.42,0.03l0.11-0.05
						l0.74,0.13c0.31,0.02,0.65,0.07,0.95,0.08c0.37,0.01,0.74-0.05,1.11-0.04c0.37,0.01,0.74,0.09,1.12,0.1
						c0.23,0.01,0.48-0.01,0.73-0.02l-0.1-0.06c-0.3-0.03-0.63-0.06-0.63-0.06c-0.01-0.01,0.23-0.01,0.49-0.02l-0.83-0.46
						c2.41-0.48,6.81,0.67,7.71-0.39c4.08,0.45,9.14,0.92,13.12,0.54l4.64,0.75l1.85-0.78c2.41,1.34,4.51,0.17,6.84,0.42l1.09,0.86
						c2.32,0.26,5.85-1.42,6.7-0.17c5.62,0.78,10.73-1.04,15.65,0.65l4.81-0.71c1.38,0.33,2.81,0.69,4.02,1.07
						c0.28-0.01,0.62-0.01,0.71-0.02c0.24-0.02,0.79-0.03,1.11-0.04l0.76-0.03c0-0.11,0.04-0.22,0.21-0.33
						c2.52,0.36,5.54-0.3,7.88-0.04c1.92,0.25,1.99,0.58,1.89,0.92c0.14,0.01,0.29,0.03,0.4,0.04c0.17,0.01,0.89,0.09,1.11,0.1
						c0.18,0.01,0.97-0.03,1.12-0.04l0.35-0.01c0.04-0.38,0.11-0.72,1.77-0.68c0.56,0.24,1.28,0.47,2.07,0.69
						c0.12-0.01,0.22-0.01,0.26-0.01c0.19-0.01,0.85-0.04,1.11-0.04c0.32,0.01,0.78,0.09,1.11,0.1c0.24,0.01,0.91-0.05,1.11-0.04
						c0.35,0.02,0.85,0.07,1.12,0.1c0.24,0.02,0.8,0.08,1.12,0.1c0.25,0.01,0.84-0.05,1.11-0.04c0.37,0.01,0.74,0.08,1.11,0.1
						c0.37,0.01,0.74,0.09,1.12,0.1c0.36,0.01,0.75-0.05,1.11-0.04c-0.09,0-1.1-0.09-1.12-0.1c-0.01-0.01,0.98-0.03,1.12-0.04
						c0.27-0.01,0.76-0.04,1.11-0.04c0.2,0,0.88,0.09,1.11,0.1c0.31,0.01,0.82-0.05,1.11-0.04c0.37,0.01,0.79,0.08,1.12,0.1
						c0.4,0.03,0.78,0.07,1.12,0.1l1.11,0.1l1.12,0.1c0.29,0.03,0.74,0.08,1.11,0.1c0.07,0,1.02-0.04,1.12-0.04
						c0.17-0.01,0.9-0.04,1.11-0.04c0.22,0.01,0.92,0.08,1.11,0.1c0.03,0-1.11,0.04-1.11,0.04c0,0.02,1.04,0.07,1.12,0.1
						c0.37,0.01,0.74,0.09,1.11,0.1c0.13,0,1.05-0.03,1.11-0.04c0.07-0.01-1.09-0.08-1.11-0.1c-0.02-0.01,0.98-0.03,1.11-0.04
						c0.26-0.01,0.99-0.02,1.11-0.04c0.08-0.01-1.11-0.08-1.11-0.1c0-0.02,0.96-0.03,1.11-0.04c0.23-0.02,0.79-0.03,1.11-0.04
						l1.11-0.04c0.01,0.02,1.19,0.08,1.12,0.1c-0.11,0.02-0.87,0.03-1.12,0.04c-0.26,0.01-0.98,0.02-1.11,0.04
						c-0.07,0.01,1.07,0.08,1.12,0.1c0.06,0.02-1.11,0.02-1.11,0.04c0,0.02,1.04,0.07,1.11,0.1l1.11-0.04l1.11-0.04
						c0.26-0.01,0.78-0.04,1.12-0.04c0.18,0,0.9,0.09,1.12,0.1c0.3,0.01,0.8-0.05,1.11-0.04c0.15,0,1.02,0.09,1.11,0.1
						c0.07,0.01-1.11,0.03-1.11,0.04c0,0,1.07,0.1,1.11,0.1c0.28,0,0.9-0.03,1.11-0.04l1.11-0.04l2.23-0.08
						c0.25,0.03,0.9,0.06,1.12,0.1c0.14,0.02,1.11,0.08,1.11,0.1c0,0.01-1.19,0.02-1.11,0.04c0.14,0.02,0.85,0.07,1.12,0.1
						c0.21,0.02,0.84,0.09,1.11,0.1c0.13,0,1-0.03,1.11-0.04l1.11-0.04c0.27-0.01,0.76-0.04,1.12-0.04c0.16,0,0.91,0.09,1.11,0.1
						c0.3,0.01,0.8-0.05,1.11-0.04c0.38,0.01,0.74,0.09,1.12,0.1c0.36,0.01,0.75-0.05,1.11-0.04c0.37,0.01,0.74,0.09,1.12,0.1
						c0.37,0.01,0.74-0.05,1.11-0.04c0.3,0.01,0.82,0.09,1.11,0.1c0.28,0,0.9-0.03,1.11-0.04l1.11-0.04
						c0.26-0.01,0.78-0.04,1.12-0.04c0.18,0,0.9,0.09,1.11,0.1c0.3,0.01,0.8-0.05,1.11-0.04c0.37,0.01,0.74,0.08,1.12,0.1
						l-1.11,0.04c-0.33,0.01-0.88,0.02-1.11,0.04c-0.15,0.01-1.11,0.02-1.11,0.04c0,0,1.01,0.09,1.11,0.1
						c0.26,0.01,0.83-0.04,1.11-0.04c0.4,0.02,0.71,0.08,1.12,0.1c0.16,0.01,0.98-0.03,1.11-0.04c0.19-0.01,0.85-0.04,1.11-0.04
						c0.29,0.01,0.82,0.09,1.12,0.1c0.3,0.01,0.8-0.05,1.11-0.04c0.38,0.01,0.74,0.08,1.11,0.1c0.32,0.01,0.79-0.05,1.12-0.04
						c0.37,0.01,0.74,0.08,1.11,0.1c0.37,0.01,0.74,0.09,1.12,0.1c0.3,0.01,0.83-0.04,1.11-0.04l-1.12-0.1
						c-0.01-0.01,0.98-0.03,1.11-0.04c0.13,0,0.96-0.04,1.11-0.04c0.24,0.01,0.94,0.08,1.12,0.1c0.27,0.02,0.97,0.07,1.12,0.1
						c0.08,0.01-1.11,0.02-1.12,0.04c0,0,1.06,0.1,1.12,0.1c0.23,0,0.93-0.03,1.11-0.04l1.11-0.04l1.11-0.04l1.11-0.04
						c0.31-0.01,0.73-0.04,1.11-0.04c0.15,0,0.92,0.09,1.11,0.1c0.37,0.01,0.74-0.04,1.11-0.04c0.37,0.01,0.74-0.05,1.12-0.04
						c0.36,0.01,0.76,0.09,1.11,0.1c0.08,0,1.09,0.09,1.15,0.1c0.03,0.02-1.15,0.02-1.14,0.04c0,0.01,0.95,0.08,1.15,0.1
						c0.07,0.01,1.11-0.04,1.24-0.05c0.24,0,1.08,0.06,1.28,0.07c0.26,0.01,0.98,0.07,1.3,0.06c0.17,0,1.06-0.09,1.2-0.1
						c0.17-0.02,0.99-0.09,1.17-0.1c0.27-0.01,1.06,0.02,1.29,0.01c0.38-0.03,0.84-0.09,1.12-0.13c0.17-0.02,0.84-0.14,1.06-0.15
						c0.3-0.03,0.98-0.01,1.26-0.03c0.41-0.03,0.91-0.04,1.25-0.06c0.11-0.01,1.18-0.05,1.25-0.07c0.3-0.05,0.73-0.16,0.93-0.21
						c0.22-0.05,0.82-0.17,0.88-0.21c0.18,0,0.88-0.09,1.16-0.12c0.24-0.02,0.9-0.08,1.16-0.13c0.2-0.04,0.54-0.2,0.73-0.25
						c0.24-0.05,0.86-0.09,1.09-0.16c0.28-0.07,0.37-0.19,0.63-0.27c0.2-0.05,0.81-0.12,1.01-0.19c0.11-0.03,0.46-0.25,0.52-0.28
						c0.02-0.01,0.05-0.03,0.08-0.05c0.12-0.03,0.16-0.07,0.16-0.11c0.08-0.06,0.16-0.11,0.21-0.14c0.09-0.04,0.27-0.08,0.44-0.12
						l0.02,0.01c1.24-0.13,2.18-0.22,2.65-0.46c0.57-0.39,2.16-0.03,2.64-0.27L370.73,33c0.47-0.24,1.25-0.32,2.41-0.29
						c-0.14-0.27,0.49-0.53,0.89-0.71c-1.43-0.03-3.17,0.2-4.47,0.22c-0.02-0.08-0.05-0.17-0.04-0.24c0.01-0.02,0.11-0.09,0.21-0.15
						c0.17,0.06,0.39,0.11,0.68,0.1c-0.04-0.08-0.24-0.17-0.47-0.24c0,0,0.01-0.01,0.02-0.01c0.03-0.03-0.01-0.08-0.05-0.13
						l0.55-0.29c0.7-0.02,1.61,0.08,1.37,0.34l0.17-0.3l1.23,0.07l-0.11,0.44l1.55-0.16l-0.98-0.33l1.39-0.04L374.95,31z
						 M21.62,22.39c0.02-0.01,0.03-0.04,0.04-0.06c0.13,0.04,0.32,0.09,0.45,0.13c-0.03,0.03-0.06,0.07-0.08,0.12
						c-0.07,0.01-0.13,0.02-0.25,0.03l-0.42-0.12C21.47,22.44,21.58,22.41,21.62,22.39z M20.68,22.25
						c-0.03,0.01-0.07,0.02-0.08,0.03c-0.01,0,0-0.01,0-0.02L20.68,22.25z M20.88,26.37l-0.71-0.06l-0.57,0.07l0.81-0.29
						C20.33,26.25,21.83,26.21,20.88,26.37z M18.33,22.09c0.74-0.06,1.25,0.11,1.74,0.2l0.01,0c-0.06,0.08-0.18,0.19-0.16,0.23
						c-0.55-0.08-0.92-0.34-1.75-0.37c0.33,0.15,0.74,0.4-0.03,0.38C17.26,22.45,17.95,22.18,18.33,22.09z M18.65,24.13L18.03,24
						l1.09-0.16C19.73,23.97,18.86,24.1,18.65,24.13z M14.96,25.16c0.14,0,0.31,0,0.49-0.01l0.14,0l0.52,0.18
						c-0.43-0.01-0.84-0.04-1.18-0.09C14.98,25.21,14.99,25.18,14.96,25.16z M13.67,22.79c0.48-0.17-0.09-0.37-0.53-0.5l1.02-0.13
						c-0.04,0.31,1.18,0.53,0.48,0.81l-1.31-0.14l-1.47,0.18l-0.1-0.18L13.67,22.79z M13.45,23.86c0,0-0.7,0.17-0.78,0.17
						c-0.17,0.02-0.87,0.07-1.02,0.07c-0.14,0.01-1.03,0.06-1.03,0.05c-0.01,0,0.18-0.03,0.39-0.06c0.2-0.03,0.42-0.06,0.48-0.07
						c0.29-0.04,0.54-0.1,0.81-0.14c0.31-0.03,0.65-0.05,0.94-0.09c-0.1,0.01-0.6,0.15-0.76,0.16
						C12.59,23.96,13.41,23.84,13.45,23.86z M9.66,22.34L9.66,22.34c0.16-0.05,0.33-0.09,0.51-0.12c0.19,0.03,0.42,0.05,0.69,0.06
						c0,0.02,0.01,0.05,0.05,0.07l0.14,0.05c0.25-0.09,0.62-0.03,0.85,0.02l0.01,0.01C10.93,22.68,10.35,22.48,9.66,22.34z
						 M9.8,22.93l1.38,0.17l-0.14,0.13l0.49,0.09l-0.87,0l0.02,0.07C9.82,23.27,9.83,23.08,9.8,22.93z M12.76,26.04l-0.61-0.07
						l0.13-0.33C13.14,25.64,13.12,25.89,12.76,26.04z M10.46,25.12l-0.01-0.55c0.92,0.28,2.36-0.3,3.32,0.14
						C13.09,24.94,11.54,25.06,10.46,25.12z M21.67,27.25c-1.12-0.05-1.09-0.43-2.31-0.39c-0.27,0.33-0.03,0.38,0.95,0.56
						l-1.35-0.02l-0.77-0.28c-0.9,0.38-1.59-0.07-2.43-0.19l-0.23-0.23l-0.89-0.08l-0.06,0.23l-0.45,0.06
						c0.13-0.2,0.7-0.47,1.48-0.37l0.19-0.17l-1.18-0.08l0.04,0.15l-0.86-0.19l0.99-0.01c0.3-0.19-0.04-0.41,0.86-0.52
						c1.01,0.06,1.32-0.32,2.18-0.12c1.84-0.08-0.09,0.35,0.93,0.49l-0.83-0.05c-5.17-0.44-1.45,0.52-0.85,0.33l-0.08,0.16
						c-0.49-0.09-1.46-0.01-1.24,0.16l1.26,0.18c0.08-0.16,1.07-0.17,1.59-0.2c0.86,0.19,1.93,0.02,2.95,0.16l0.16-0.06l1.02,0.14
						C22.04,26.82,21.8,27.04,21.67,27.25z M24.64,27.48c-0.57,0.07-1.25-0.11-1.51-0.22l0.08-0.16
						C23.97,27.11,25.06,27.28,24.64,27.48z M26.21,27.47c-0.21-0.1-0.37-0.17-0.28-0.23c0.17,0.05,0.35,0.11,0.44,0.14
						c0.02,0.02,0.04,0.04,0.06,0.07L26.21,27.47z M30.35,27.97l-0.77,0.17c-0.86,0.07-1.17-0.27-2.09-0.23l0.01,0.26
						c-0.71-0.06-1.04-0.21-0.61-0.34l1.6-0.12l-0.29-0.13c0.25,0.02,0.5,0.04,0.6,0.06c0.04,0.01,0.1,0.02,0.15,0.03l0.6,0.32
						l0.37-0.12c0.16,0.03,0.33,0.06,0.49,0.09C30.39,27.96,30.37,27.97,30.35,27.97z M169.21,31.24l0.26-0.12l0.67,0.19
						C169.87,31.43,169.34,31.28,169.21,31.24z M171.96,30.06l0.35-0.17l0.9,0.25C172.86,30.3,172.14,30.11,171.96,30.06z
						 M176.47,30.06l1-0.06l0.66,0.51C177.46,30.41,176.96,30.44,176.47,30.06z M192.15,31.2c0.72-0.2,1.49,0.39,2.39,0.15l0.03,0.1
						C193.83,31.54,192.07,31.54,192.15,31.2z M356.18,30.08c-0.1,0.07-0.16,0.09-0.65,0.11l-0.14-0.14L356.18,30.08z M355.98,32.72
						c-0.19,0.01-0.3-0.03-0.41-0.06l-0.41,0.02c0.21-0.03-0.32-0.08,0.02-0.1l0.18,0.06l0.1-0.04c0.26-0.03,0.29,0.08,0.56,0.1
						c-0.07-0.04-0.15-0.1,0.03-0.09C356.27,32.64,356.08,32.7,355.98,32.72z M357.17,30.76l-0.22-0.22l0.76,0
						C357.82,30.66,357.68,30.82,357.17,30.76z M363.3,32.11c-0.24,0.07-0.01,0.16,0.17,0.23l-0.47,0.05
						c0.06-0.14-0.45-0.25-0.11-0.36l0.57,0.07l0.68-0.07l0.02,0.08L363.3,32.11z M366.36,27.88l-1.94,0.15
						C364.52,27.59,365.07,27.49,366.36,27.88z M366.56,30.09c-0.43-0.15-1.27,0.13-1.7-0.1c0.39-0.12,1.21-0.16,1.79-0.18
						L366.56,30.09z M367.1,27.99C367.11,27.98,367.09,27.97,367.1,27.99c0.04,0,0.11,0.02,0.19,0.05
						C367.23,28.02,367.16,28,367.1,27.99z M371.51,29.66c-0.38-0.1-0.37-0.2-0.44-0.34l0.31-0.03
						C371.68,29.45,371.9,29.57,371.51,29.66z"/>
				</g>
			</g>
		</g>
	</g>
</g>
</svg>
