<svg width="27" height="25" viewBox="0 0 27 25" fill="none" xmlns="http://www.w3.org/2000/svg">
<g clip-path="url(#clip0)">
<path d="M8.29551 4.61165C8.29631 4.61244 8.3714 4.65438 8.37456 4.65754C8.36981 4.64806 8.33105 4.59509 8.32077 4.58481C8.3097 4.57374 8.25279 4.54525 8.24173 4.53892C8.23066 4.53259 8.16268 4.49303 8.16268 4.49303C8.15795 4.49776 8.21646 4.55628 8.21568 4.56497C8.23703 4.58632 8.24812 4.61635 8.26947 4.6377C8.28053 4.64403 8.34298 4.67806 8.34851 4.68359C8.34535 4.68043 8.2971 4.61323 8.29551 4.61165Z" fill="#5567AE"/>
<path d="M2.76156 2.98012C2.78373 3.04493 2.86272 3.02446 2.89824 2.98893L2.83576 2.9075L2.76156 2.98012Z" fill="#5567AE"/>
<path d="M2.85523 2.68549C2.90584 2.73136 2.92085 2.73216 2.95877 2.72745L2.90338 2.63892L2.85523 2.68549Z" fill="#5567AE"/>
<path d="M4.0375 2.22434L4.0335 2.1635L3.95214 2.1816C3.92846 2.21002 4.0059 2.22589 4.0375 2.22434Z" fill="#5567AE"/>
<path d="M2.87205 3.70625C2.9495 3.74108 2.93449 3.74502 3.02771 3.73404L3.00001 3.68266L2.87205 3.70625Z" fill="#5567AE"/>
<path d="M3.15928 2.3926C3.22252 2.46058 3.25483 2.36028 3.26983 2.34213C3.22165 2.34604 3.16714 2.33889 3.15928 2.3926Z" fill="#5567AE"/>
<path d="M3.18313 2.73868L3.1198 2.59483C3.13082 2.54902 3.14027 2.50637 3.1071 2.53004L3.09608 2.57585C3.04556 2.61531 3.14042 2.6865 3.18313 2.73868Z" fill="#5567AE"/>
<path d="M14.4476 10.134C14.4476 10.134 14.4382 10.1292 14.4263 10.1221C14.4114 10.2019 14.4865 10.2581 14.6169 10.3032C14.601 10.2827 14.5797 10.2566 14.5805 10.2526C14.5805 10.2479 14.6255 10.2787 14.6477 10.2914L14.654 10.2835C14.6397 10.2645 14.6089 10.2289 14.6081 10.2234C14.582 10.2021 14.5559 10.1997 14.5267 10.1799C14.5077 10.1656 14.4927 10.1222 14.4729 10.1071C14.4666 10.1008 14.4531 10.0921 14.4373 10.0858C14.4342 10.0921 14.4286 10.1008 14.4263 10.1079C14.4389 10.1206 14.4476 10.134 14.4476 10.134Z" fill="#5567AE"/>
<path d="M18.8828 14.1093C18.8891 14.1204 18.9303 14.1757 18.9342 14.1844C18.9445 14.1899 19.0156 14.2279 19.0156 14.2279C19.0156 14.2279 18.9721 14.1607 18.9642 14.1528C18.9484 14.137 18.9302 14.0951 18.9136 14.0785C18.9025 14.0674 18.8432 14.0413 18.8322 14.035C18.8211 14.0287 18.7508 13.9915 18.7508 13.9915C18.746 13.9962 18.8022 14.0571 18.8022 14.0666C18.8251 14.0848 18.8622 14.0887 18.8828 14.1093Z" fill="#5567AE"/>
<path d="M7.94544 8.88389C7.92094 8.86886 7.89169 8.85382 7.86482 8.84116C7.85376 8.83483 7.7842 8.79842 7.7842 8.79842C7.7842 8.79842 7.83245 8.86088 7.83878 8.87195C7.84194 8.87511 7.91071 8.91072 7.9194 8.91468C7.93837 8.92892 7.95579 8.97002 7.97319 8.98741C7.9969 9.00639 8.03088 9.01195 8.05381 9.03014C8.03483 9.00643 8.01585 8.98271 7.99923 8.95662C7.9929 8.94556 7.94544 8.88389 7.94544 8.88389Z" fill="#5567AE"/>
<path d="M16.2836 11.8753C16.2836 11.8753 16.2337 11.8066 16.2322 11.8002C16.2092 11.782 16.1737 11.7749 16.1507 11.7567C16.1531 11.7591 16.2045 11.8294 16.2045 11.8294C16.2045 11.8294 16.2804 11.8769 16.2836 11.8753Z" fill="#5567AE"/>
<path d="M7.16747 8.28604C7.19119 8.30503 7.22438 8.3098 7.2481 8.32878C7.24414 8.32482 7.19431 8.25605 7.19431 8.25605C7.19194 8.25367 7.11369 8.21331 7.11369 8.21331C7.11369 8.21331 7.16431 8.28288 7.16747 8.28604Z" fill="#5567AE"/>
<path d="M26.0179 21.6282C26.0203 21.6164 26.0211 21.6029 26.0195 21.5919C26.0131 21.5855 26.0084 21.5808 26.0029 21.5753C26.0029 21.5942 25.9926 21.6171 25.9674 21.6392L26.0179 21.6282Z" fill="#5567AE"/>
<path d="M25.9113 21.091L25.9215 21.0965C25.9366 21.1021 25.9484 21.1092 25.9563 21.1171C25.9587 21.11 25.9642 21.106 25.9745 21.1021C25.9618 21.0752 25.9436 21.0476 25.9191 21.023L25.9113 21.091Z" fill="#5567AE"/>
<path d="M25.7163 22.1368L25.7699 22.0673C25.6632 21.9985 25.6387 22.0309 25.5756 22.0435L25.7163 22.1368Z" fill="#5567AE"/>
<path d="M24.9605 22.2759L24.9795 22.2949L25.0396 22.2886L24.9913 22.2404L24.9605 22.2759Z" fill="#5567AE"/>
<path d="M26.0216 21.4284L26.0144 21.3834C25.9986 21.3818 25.9362 21.3715 25.9434 21.4165L26.0216 21.4284Z" fill="#5567AE"/>
<path d="M25.0925 22.2562L25.1399 22.3179L25.1517 22.2634L25.0925 22.2562Z" fill="#5567AE"/>
<path d="M25.203 22.2295L25.2251 22.2517C25.2345 22.1426 25.3989 22.2502 25.4083 22.1602C25.3474 22.0708 25.2329 22.1648 25.203 22.2295Z" fill="#5567AE"/>
<path d="M25.6537 21.7567L25.7319 21.7497C25.713 21.7402 25.6679 21.7283 25.6474 21.7457L25.6537 21.7567Z" fill="#5567AE"/>
<path d="M25.5022 22.0458C25.4864 22.1011 25.507 22.1027 25.5204 22.1256L25.5385 22.0538L25.5022 22.0458Z" fill="#5567AE"/>
<path d="M26.0742 21.8881L26.0623 21.8289C26.041 21.8265 25.9564 21.813 25.966 21.8746L26.0742 21.8881Z" fill="#5567AE"/>
<path d="M26.0362 20.9504C26.0188 20.9187 25.9761 20.8997 25.9311 20.8878C25.9635 20.9155 25.9991 20.9416 26.0362 20.9646C26.0322 20.9606 26.0315 20.9551 26.0362 20.9504Z" fill="#5567AE"/>
<path d="M25.8084 21.7127C25.7974 21.7537 25.7863 21.7948 25.8163 21.768L25.8274 21.7269C25.8724 21.6819 25.7941 21.6368 25.7601 21.5981L25.8084 21.7127Z" fill="#5567AE"/>
<path d="M25.844 20.8199C25.8574 20.8144 25.8976 20.7505 25.8629 20.7251C25.8384 20.7528 25.8274 20.8033 25.844 20.8199Z" fill="#5567AE"/>
<path d="M25.2518 21.7808C25.2376 21.7903 25.21 21.8574 25.2487 21.8772C25.2677 21.8487 25.2708 21.795 25.2518 21.7808Z" fill="#5567AE"/>
<path d="M25.3145 20.5223L25.4394 20.5572C25.4361 20.4403 25.3903 20.4418 25.3145 20.5223Z" fill="#5567AE"/>
<path d="M17.1851 12.6392C17.0784 12.5704 17.0563 12.6004 16.9979 12.6082L17.1394 12.7024L17.1851 12.6392Z" fill="#5567AE"/>
<path d="M17.7048 13.2251C17.7102 13.1216 17.8739 13.2284 17.8793 13.1439C17.8153 13.0561 17.7103 13.1406 17.6858 13.2014L17.7048 13.2251Z" fill="#5567AE"/>
<path d="M17.4205 12.7042C17.4339 12.6987 17.4694 12.6395 17.4346 12.6142C17.4125 12.6394 17.4039 12.6876 17.4205 12.7042Z" fill="#5567AE"/>
<path d="M15.7981 11.5131C15.7965 11.483 15.7704 11.438 15.7475 11.434C15.7404 11.4459 15.7539 11.5162 15.7981 11.5131Z" fill="#5567AE"/>
<path d="M3.17968 2.51755L3.3607 2.63226L3.27544 2.69855C3.33016 2.93799 3.06686 2.69837 2.99429 2.82945C2.99356 2.89029 2.97388 2.97955 2.95105 3.07038C2.9914 3.13441 2.87371 3.16354 2.952 3.24183L3.05709 3.26641L3.05707 3.24744L3.02625 3.23557L3.05785 3.23402C3.06486 3.11314 3.08848 3.01836 3.21817 3.167C3.21744 3.22784 3.13915 3.14955 3.12577 3.20721C3.1321 3.21828 3.1408 3.22224 3.14633 3.22777L3.16766 3.22542C3.1645 3.227 3.16372 3.23095 3.15898 3.23568C3.17716 3.24439 3.19296 3.24125 3.20797 3.23731C3.20166 3.25468 3.20247 3.27443 3.20248 3.29339C3.193 3.29339 3.18432 3.29891 3.17563 3.30443C3.18197 3.32024 3.18118 3.32893 3.15511 3.32654C3.1417 3.35102 3.13936 3.38183 3.14413 3.41975L3.12278 3.3984L3.11804 3.3984C3.11725 3.39287 3.11724 3.38813 3.11724 3.38339C3.11563 3.3581 3.11798 3.33203 3.12033 3.30596L3.11558 3.30122C3.09665 3.32964 3.08087 3.36123 3.0651 3.39282L3.02718 3.38805L2.99239 3.36274L2.92685 3.40139L2.98614 3.44647L3.05405 3.39597C3.05879 3.39598 3.06037 3.39756 3.06274 3.39993L3.03987 3.4481C3.03989 3.47655 3.0415 3.50657 3.04627 3.53501L2.99569 3.52233L3.01154 3.57607L3.05025 3.57215C3.05264 3.59348 3.05503 3.61482 3.05662 3.63536C3.06059 3.65827 3.06536 3.68198 3.07012 3.70569C3.0709 3.697 3.07089 3.68752 3.07246 3.67962L3.12142 3.64806C3.17756 3.7042 3.22032 3.818 3.13107 3.83768C3.10183 3.82738 3.08679 3.80288 3.07808 3.77522C3.06469 3.8234 3.0592 3.87 3.08058 3.92454C3.09717 3.92218 3.10902 3.92456 3.11851 3.92931C3.11458 3.9538 3.10987 3.99172 3.1083 3.99962C3.10673 4.01226 3.10517 4.03438 3.1036 4.05649C3.1352 4.04546 3.17549 4.04313 3.19131 4.07316L3.22132 4.06055L3.18573 4.01075L3.16679 4.02969L3.15805 3.97833L3.19679 4.01233C3.23312 4.0013 3.24889 3.96498 3.29947 3.9824C3.33111 4.02351 3.3935 3.99118 3.39907 4.04411C3.48128 4.09791 3.35012 4.08041 3.3715 4.1302L3.34618 4.09542C3.20378 3.86776 3.22215 4.104 3.26956 4.10404L3.24587 4.11824C3.23873 4.09217 3.19052 4.06763 3.1779 4.0929L3.20324 4.15613C3.22693 4.14193 3.26725 4.17278 3.29175 4.18781C3.2997 4.23838 3.36449 4.25582 3.38587 4.30561L3.3993 4.30483L3.42068 4.35462C3.40247 4.32221 3.36299 4.33956 3.33061 4.35928C3.29265 4.31659 3.34476 4.27397 3.29258 4.236C3.23652 4.26518 3.24048 4.27862 3.25553 4.33156L3.20651 4.28254L3.21436 4.22408C3.13062 4.23507 3.16137 4.16162 3.14395 4.12052L3.16604 4.08578L3.14152 4.04705L3.10836 4.07072L3.10204 4.06914C3.10283 4.07467 3.10126 4.08256 3.10126 4.0873C3.10365 4.1039 3.13451 4.15844 3.13847 4.17661C3.14482 4.20664 3.13378 4.23823 3.14408 4.26747C3.14883 4.2817 3.18523 4.34177 3.18919 4.35521C3.19631 4.36706 3.23112 4.42556 3.24062 4.43979C3.24774 4.45639 3.25333 4.5188 3.25729 4.53224C3.25809 4.54725 3.27237 4.60889 3.28028 4.62628C3.29611 4.65631 3.32615 4.67688 3.34119 4.70612C3.35385 4.72826 3.361 4.77329 3.37524 4.79701C3.39264 4.82389 3.42506 4.84682 3.44483 4.87133C3.46223 4.89821 3.49938 4.91641 3.51915 4.94092C3.53972 4.96622 3.5437 5.00336 3.56426 5.02866C3.58483 5.05396 3.62197 5.06742 3.64332 5.09351C3.66468 5.1196 3.67419 5.15279 3.69554 5.17888C3.69238 5.17572 3.61411 5.1164 3.61411 5.1164C3.61411 5.1164 3.66475 5.20019 3.66791 5.20335C3.68136 5.22153 3.73985 5.25161 3.75408 5.2611L3.83945 5.31806C3.8521 5.32597 3.90822 5.35841 3.92008 5.36553C3.93273 5.37818 3.96675 5.42641 3.97624 5.43589C3.98098 5.44064 4.03081 5.50468 4.03318 5.50705C4.06163 5.52129 4.08851 5.5387 4.11144 5.55215C4.1312 5.56244 4.17784 5.59487 4.18969 5.59725C4.19443 5.59726 4.17862 5.58144 4.16438 5.56247C4.15014 5.54349 4.1359 5.52452 4.1359 5.52452C4.13827 5.52215 4.15724 5.53639 4.17859 5.54826L4.3012 5.72297C4.3447 5.77594 4.37234 5.77043 4.39682 5.75228C4.39919 5.75465 4.40393 5.75466 4.4063 5.75703C4.415 5.76573 4.45771 5.82265 4.46246 5.82739C4.46483 5.83451 4.3842 5.78229 4.3842 5.78229C4.3842 5.78229 4.39844 5.80126 4.41268 5.82024C4.42692 5.83921 4.44273 5.85503 4.43799 5.85502C4.42772 5.85422 4.37555 5.821 4.35974 5.80992C4.34867 5.80359 4.28148 5.76482 4.28148 5.76482C4.27675 5.76956 4.33605 5.82886 4.33764 5.83519L4.49651 5.92302L4.57477 5.96812L4.65302 6.01322C4.66093 6.01639 4.67199 6.02272 4.68227 6.02826C4.67676 6.05117 4.67361 6.0717 4.66889 6.09066C4.69891 6.09227 4.72893 6.08913 4.75579 6.08758C4.76766 6.10418 4.78111 6.12236 4.78901 6.13027C4.81194 6.14846 4.84434 6.15718 4.86727 6.17537C4.88862 6.20146 4.90207 6.21964 4.92421 6.24652C4.93686 6.25918 4.96456 6.30581 4.98116 6.31768C5.00092 6.33271 5.04281 6.34617 5.05941 6.36278C5.07365 6.37701 5.10529 6.42286 5.11557 6.43314C5.12506 6.44737 5.17093 6.49797 5.17015 6.50667C5.17094 6.5122 5.09347 6.4584 5.09189 6.46156C5.08716 6.4663 5.14646 6.52561 5.14568 6.5343C5.16703 6.55565 5.17891 6.58647 5.20026 6.60782C5.21132 6.61415 5.27298 6.64738 5.27851 6.65292C5.27456 6.64897 5.22315 6.58335 5.22393 6.5794C5.22393 6.5794 5.30693 6.62924 5.30219 6.6245C5.29665 6.61422 5.26106 6.56916 5.24524 6.55334L5.19066 6.47982C5.21675 6.50118 5.24283 6.50357 5.26892 6.52492C5.28631 6.53758 5.30768 6.58263 5.3235 6.59844C5.3401 6.61505 5.38435 6.62615 5.40175 6.64355C5.41282 6.65462 5.44921 6.70521 5.45633 6.71707C5.46582 6.7313 5.51169 6.7819 5.51011 6.7898C5.50933 6.79375 5.49194 6.78109 5.47139 6.77002C5.4532 6.75657 5.42949 6.74707 5.42949 6.74707C5.42949 6.74707 5.48169 6.81348 5.48407 6.82059C5.49435 6.83087 5.55442 6.85778 5.56232 6.86569C5.58604 6.87993 5.62319 6.89813 5.64058 6.91079C5.65638 6.91713 5.71251 6.95431 5.71883 6.95589C5.72278 6.95511 5.70697 6.93929 5.69273 6.92032C5.67612 6.90371 5.66425 6.88237 5.66425 6.88237C5.66425 6.88237 5.73697 6.92194 5.74251 6.92747C5.74963 6.93459 5.79234 6.99151 5.7963 7.0002L5.85087 7.07373C5.86669 7.09428 5.88726 7.11958 5.90466 7.14646C5.91415 7.15121 5.97106 7.18444 5.98528 7.18919C5.99398 7.19789 6.03432 7.25244 6.03986 7.26271C6.04698 7.26983 6.08416 7.32596 6.09365 7.33544C6.10867 7.34573 6.16005 7.37342 6.17427 7.37818C6.19719 7.39163 6.22644 7.40667 6.25489 7.42091C6.27149 7.43278 6.31812 7.45099 6.33551 7.46364C6.35923 7.48263 6.36795 7.51503 6.39009 7.53717C6.38693 7.534 6.30947 7.49443 6.30947 7.49443C6.30947 7.49443 6.36009 7.55926 6.36405 7.56796C6.37353 7.5727 6.43519 7.60594 6.44467 7.61069C6.45653 7.61781 6.51106 7.64393 6.52529 7.65342C6.54822 7.67161 6.55852 7.70559 6.57908 7.72615C6.60201 7.74434 6.6131 7.77912 6.63366 7.79968C6.65026 7.81628 6.69452 7.82738 6.71428 7.84241C6.73721 7.8606 6.74751 7.89458 6.76886 7.91593C6.78467 7.93175 6.83051 7.94443 6.84948 7.95866C6.85818 7.96736 6.89852 8.02191 6.90327 8.0314C6.91118 8.04404 6.9444 8.09148 6.95784 8.10492C6.96812 8.1152 7.0274 8.14132 7.03847 8.14765C7.05032 8.15477 7.10486 8.18089 7.11909 8.19039C7.14202 8.20858 7.15311 8.24335 7.17367 8.26391C7.17367 8.26391 7.24322 8.30031 7.25429 8.30664C7.25745 8.3098 7.30412 8.37068 7.30887 8.38016C7.32942 8.39598 7.36815 8.41103 7.38949 8.4229C7.41321 8.44188 7.44798 8.45297 7.47011 8.46563C7.48197 8.47275 7.53651 8.49887 7.55074 8.50836C7.5705 8.52339 7.58871 8.56528 7.60531 8.58189C7.59741 8.57872 7.52548 8.53994 7.52469 8.53915C7.52469 8.53915 7.57689 8.60556 7.57927 8.61267C7.58955 8.62295 7.64961 8.64987 7.65989 8.65541C7.68281 8.66886 7.71206 8.68389 7.74051 8.69814C7.75711 8.71 7.80374 8.72822 7.82113 8.74087C7.84485 8.75985 7.85436 8.79305 7.87492 8.8136C7.89864 8.83733 7.90578 8.86341 7.92871 8.88634C7.93108 8.88397 7.94689 8.89504 7.96586 8.90454C7.98483 8.91404 8.00301 8.92748 8.00933 8.92907C8.01328 8.93302 8.08047 8.96705 8.08995 8.9718C8.1034 8.98525 8.13267 9.03346 8.14453 9.04533C8.16667 9.06272 8.20539 9.07777 8.22515 9.08806L8.38403 9.17589C8.38246 9.18379 8.44493 9.24626 8.43782 9.24862C8.4315 9.25178 8.49634 9.31662 8.49239 9.32215C8.48766 9.32688 8.42046 9.27863 8.41177 9.27941C8.40308 9.2802 8.33509 9.23115 8.33115 9.23668C8.33115 9.23668 8.3794 9.29914 8.38494 9.30941C8.3881 9.31258 8.45686 9.34819 8.46556 9.35215C8.48928 9.37113 8.49879 9.40432 8.52014 9.42567C8.54385 9.44465 8.57783 9.45021 8.60076 9.4684C8.62448 9.48738 8.63399 9.52057 8.65534 9.54192L8.76607 9.68581C8.79373 9.69926 8.81982 9.71588 8.84669 9.72854C8.85776 9.73487 8.92732 9.77128 8.92732 9.77128C8.93205 9.76654 8.86642 9.70091 8.87353 9.69854C8.88064 9.69618 8.81659 9.63213 8.81895 9.62502C8.81816 9.62423 8.83713 9.63373 8.8561 9.64322C8.87586 9.65351 8.89325 9.66617 8.89957 9.66776L8.99678 9.70813L9.05136 9.78165C9.06481 9.79984 9.08538 9.83462 9.10515 9.85439C9.11622 9.86546 9.17075 9.88683 9.18577 9.89712C9.2 9.91135 9.22927 9.95483 9.24035 9.97064C9.26091 9.99594 9.27752 10.022 9.29493 10.0442C9.30363 10.0576 9.33448 10.1027 9.34871 10.1169C9.35741 10.1256 9.42064 10.1557 9.42933 10.1596C9.4491 10.1699 9.48624 10.1881 9.50996 10.2024C9.5226 10.2103 9.55188 10.2632 9.56375 10.2751C9.58035 10.2917 9.6246 10.3028 9.64437 10.3178C9.6586 10.3321 9.68392 10.3811 9.69894 10.3913C9.72029 10.408 9.7606 10.4246 9.77957 10.4341C9.80328 10.4483 9.83095 10.4618 9.86019 10.4768C9.88153 10.4887 9.91868 10.5021 9.94081 10.5195C9.95979 10.5338 9.9772 10.5749 9.99539 10.5931C10.0183 10.6113 10.0531 10.6176 10.076 10.6358C10.0879 10.6524 10.1195 10.6935 10.1306 10.7093C10.1369 10.7251 10.1701 10.7631 10.1844 10.7821C10.1907 10.7931 10.239 10.8556 10.239 10.8556C10.2382 10.8548 10.1639 10.8136 10.1583 10.8128C10.1726 10.8318 10.1947 10.8634 10.2129 10.8864C10.22 10.8982 10.2556 10.948 10.2675 10.9599C10.2825 10.9749 10.3323 10.9915 10.3481 11.0026C10.3426 10.9971 10.3007 10.941 10.2935 10.9291L10.3742 10.9718L10.4548 11.0146C10.4666 11.0217 10.5204 11.047 10.5354 11.0573C10.5449 11.0668 10.5836 11.1198 10.5892 11.13C10.6066 11.1522 10.6256 11.1759 10.6438 11.2036C10.6588 11.2233 10.6786 11.2573 10.6983 11.2771C10.7149 11.2937 10.7592 11.3048 10.779 11.3198C10.8027 11.3388 10.8114 11.3712 10.8327 11.3925C10.8422 11.402 10.9031 11.4297 10.9134 11.4353C10.9363 11.4487 10.9655 11.4638 10.994 11.478C11.0106 11.4899 11.0572 11.5081 11.0746 11.5207C11.0983 11.5397 11.1071 11.5721 11.1284 11.5935C11.1418 11.6069 11.1751 11.6543 11.183 11.667C11.1909 11.6796 11.2233 11.7263 11.2368 11.7397C11.2455 11.7484 11.3079 11.7777 11.3174 11.7825C11.3285 11.7888 11.3869 11.8141 11.398 11.8252C11.4091 11.8363 11.4455 11.8869 11.4518 11.8979C11.4589 11.905 11.4977 11.9627 11.5064 11.9714C11.523 11.9833 11.5736 12.0055 11.587 12.0142C11.5989 12.0213 11.6558 12.0451 11.6676 12.0569C11.6874 12.0719 11.7032 12.1162 11.7214 12.1296C11.7483 12.1518 11.7759 12.151 11.802 12.1724C11.821 12.1866 11.8384 12.2277 11.8558 12.2451C11.8693 12.2586 11.923 12.2791 11.9364 12.2878C11.9349 12.2863 11.8834 12.2159 11.8827 12.2151C11.8819 12.2143 11.9008 12.2238 11.9198 12.2333C11.9396 12.2436 11.9593 12.2539 11.9633 12.2578L12.0439 12.3006C12.0439 12.3101 12.1024 12.3686 12.0985 12.3741C12.0985 12.3741 12.0771 12.3622 12.0566 12.3512C12.036 12.3401 12.0179 12.3266 12.0179 12.3314C12.021 12.344 12.059 12.3867 12.0724 12.4049L12.127 12.4784C12.1365 12.4926 12.165 12.5353 12.1808 12.5511C12.1903 12.5559 12.2527 12.5899 12.2614 12.5939L12.342 12.6366C12.3626 12.6477 12.3982 12.6643 12.4227 12.6793C12.4353 12.6873 12.4646 12.7402 12.4772 12.7529C12.4994 12.7703 12.5389 12.7766 12.5579 12.7956C12.5832 12.8162 12.5895 12.8462 12.6124 12.8691C12.629 12.8857 12.6733 12.8968 12.6931 12.9119C12.7168 12.9308 12.7239 12.9664 12.7476 12.9854C12.7413 12.9838 12.667 12.9426 12.667 12.9426C12.667 12.9426 12.7176 13.0122 12.7216 13.0162C12.7453 13.0351 12.7785 13.0399 12.8022 13.0589C12.8251 13.0771 12.8331 13.1134 12.8568 13.1324C12.8805 13.1514 12.9145 13.157 12.9374 13.1752C12.9611 13.1941 12.9699 13.2265 12.992 13.2487C13.011 13.2677 13.0505 13.274 13.0726 13.2914C13.0861 13.3049 13.113 13.3554 13.1264 13.3641C13.1485 13.3815 13.1873 13.3966 13.207 13.4069L13.2971 13.4449C13.3153 13.4536 13.358 13.4726 13.3778 13.4876C13.3936 13.4987 13.4165 13.5453 13.4315 13.5603C13.4513 13.5754 13.4956 13.5865 13.5122 13.6031C13.5367 13.6276 13.5422 13.6521 13.5667 13.6766C13.5644 13.6742 13.4861 13.6339 13.4861 13.6339C13.4861 13.6339 13.5367 13.7034 13.5399 13.7066C13.5565 13.7185 13.6079 13.7414 13.6205 13.7493C13.6434 13.7628 13.6719 13.777 13.7011 13.7921C13.717 13.8031 13.7667 13.8198 13.7818 13.8348C13.7944 13.8474 13.8276 13.8949 13.8356 13.9075C13.8443 13.9162 13.8901 13.981 13.8901 13.981C13.8854 13.9858 13.8182 13.9375 13.8095 13.9383C13.8008 13.9391 13.7328 13.8901 13.7289 13.8956C13.7289 13.8956 13.7787 13.9644 13.7827 13.9683C13.793 13.9786 13.853 14.0055 13.8633 14.011C13.887 14.0253 13.9147 14.0387 13.9439 14.0538C13.9653 14.0656 14.0024 14.0791 14.0245 14.0965C14.0435 14.1108 14.0586 14.1542 14.0783 14.1692C14.0957 14.1819 14.1431 14.2009 14.159 14.212L14.1052 14.1392C14.1052 14.1392 14.1755 14.1764 14.1858 14.182C14.1897 14.1859 14.2348 14.2452 14.2396 14.2547C14.2562 14.2713 14.3028 14.28 14.3202 14.2974C14.3321 14.3093 14.3677 14.3591 14.374 14.3702C14.3716 14.3678 14.2942 14.3282 14.2934 14.3274C14.2934 14.3274 14.3044 14.3433 14.3171 14.3606C14.3297 14.378 14.344 14.397 14.3471 14.4002C14.3535 14.4112 14.3907 14.4626 14.4009 14.4729C14.4128 14.4848 14.4705 14.5093 14.4816 14.5156L14.5622 14.5584C14.5843 14.571 14.6143 14.5869 14.6428 14.6011C14.6499 14.6082 14.6895 14.662 14.6966 14.6738C14.7053 14.6825 14.7677 14.7118 14.7772 14.7166L14.8578 14.7593L14.9662 14.9056L14.8856 14.8628C14.8658 14.8525 14.8271 14.8375 14.805 14.8201C14.7915 14.8114 14.7638 14.76 14.7512 14.7474C14.7282 14.7292 14.6935 14.7228 14.6705 14.7046L14.7789 14.8509L14.8595 14.8936L14.9402 14.9363C14.9631 14.9498 14.9923 14.9648 15.0208 14.9791C15.0271 14.9854 15.0682 15.0407 15.0746 15.0518C15.092 15.0645 15.1394 15.0835 15.1552 15.0945C15.1844 15.1096 15.2129 15.1238 15.2358 15.1373C15.2469 15.1436 15.3046 15.1681 15.3164 15.18C15.3267 15.1903 15.3647 15.2425 15.371 15.2535C15.3758 15.2583 15.4232 15.3247 15.4256 15.3271C15.4548 15.3421 15.4833 15.3563 15.5062 15.3698C15.5323 15.3817 15.5671 15.4022 15.5868 15.4125C15.6026 15.4189 15.6588 15.456 15.6675 15.4553C15.6754 15.4537 15.6089 15.3873 15.6129 15.3817C15.6176 15.377 15.6848 15.4252 15.6935 15.4245C15.6998 15.4403 15.7433 15.4838 15.7481 15.498C15.752 15.5114 15.8019 15.5612 15.8027 15.5715C15.8019 15.5802 15.7268 15.524 15.722 15.5288C15.7197 15.5311 15.7339 15.5454 15.7458 15.562C15.7584 15.5794 15.7719 15.5976 15.7758 15.6015C15.7885 15.6189 15.813 15.6529 15.8304 15.675L15.9388 15.8213L16.0194 15.864C16.0304 15.8703 16.0889 15.8957 16.1 15.9068C16.1111 15.9178 16.1475 15.9684 16.1546 15.9803C16.1593 15.985 16.2052 16.0498 16.2084 16.053C16.2337 16.0688 16.2684 16.0847 16.289 16.0957C16.3103 16.1076 16.3554 16.1337 16.3696 16.1385C16.3759 16.1401 16.3143 16.0689 16.315 16.0649C16.3166 16.0618 16.3862 16.1029 16.3957 16.1077L16.4763 16.1504C16.4945 16.1733 16.5119 16.2002 16.5309 16.2239C16.5372 16.235 16.5846 16.2967 16.5846 16.2967C16.5839 16.2959 16.5072 16.2571 16.504 16.2539C16.5119 16.2666 16.5436 16.3124 16.5586 16.3275C16.5752 16.3441 16.6218 16.3528 16.6392 16.3702C16.6503 16.3813 16.6819 16.4366 16.6938 16.4437C16.7199 16.4603 16.7531 16.4746 16.7744 16.4864C16.7942 16.4967 16.8424 16.526 16.855 16.5292C16.8598 16.5292 16.844 16.5134 16.8297 16.4944C16.8155 16.4754 16.8013 16.4564 16.8013 16.4564C16.806 16.4517 16.8732 16.5 16.8819 16.4992C16.9009 16.5229 16.9167 16.5482 16.9365 16.5727C16.9554 16.5964 16.9721 16.6225 16.9902 16.6454L17.0448 16.719C17.0614 16.7403 17.0867 16.7751 17.0994 16.7925C17.1089 16.8067 17.154 16.8565 17.154 16.866C17.1532 16.8747 17.0757 16.8209 17.0734 16.8233C17.0734 16.8233 17.0852 16.8399 17.0971 16.8565C17.1097 16.8739 17.1232 16.892 17.1271 16.896C17.1303 16.8992 17.2062 16.9372 17.2078 16.9387C17.2165 16.938 17.2837 16.9862 17.2884 16.9815C17.2931 16.9767 17.2283 16.9119 17.2338 16.9079C17.2401 16.9048 17.3057 16.9515 17.3144 16.9507C17.3223 16.9491 17.2559 16.8827 17.2606 16.8779C17.2654 16.8732 17.3326 16.9215 17.3413 16.9207L17.4496 17.0669L17.5042 17.1405C17.5113 17.1523 17.5438 17.2037 17.558 17.2132C17.5683 17.2235 17.6283 17.2504 17.6386 17.2559C17.6647 17.2678 17.6995 17.2884 17.7192 17.2987C17.7358 17.3058 17.792 17.343 17.7999 17.3414C17.803 17.354 17.841 17.3967 17.8544 17.4149C17.8726 17.4378 17.8885 17.4631 17.909 17.4884C17.9161 17.4908 17.9794 17.5256 17.9896 17.5312C18.0015 17.543 18.0339 17.5944 18.0442 17.6047C18.0537 17.6189 18.083 17.6624 18.0988 17.6782C18.1075 17.6869 18.1699 17.7162 18.1794 17.7209L18.26 17.7637C18.279 17.7732 18.3201 17.7906 18.3407 17.8064C18.3454 17.8112 18.3889 17.8736 18.3945 17.8791C18.4008 17.8902 18.4348 17.9432 18.449 17.9527C18.4593 17.9629 18.5194 17.9899 18.5297 17.9954C18.5526 18.0088 18.581 18.0231 18.6103 18.0381C18.6261 18.0492 18.6759 18.0658 18.6909 18.0809C18.7146 18.0998 18.7218 18.1354 18.7455 18.1544C18.7565 18.1655 18.7906 18.2184 18.7993 18.2271C18.808 18.2406 18.8388 18.2856 18.8538 18.3006C18.8617 18.3085 18.9273 18.3363 18.9345 18.3434C18.9463 18.3505 19.0032 18.3742 19.0151 18.3861C19.0262 18.3972 19.061 18.4509 19.0697 18.4596C19.0673 18.4573 18.9898 18.4177 18.989 18.4169C18.989 18.4169 19.0389 18.4857 19.0428 18.4896C19.0539 18.5007 19.1124 18.526 19.1235 18.5324C19.1448 18.5442 19.1811 18.5569 19.2041 18.5751C19.2143 18.5806 19.2476 18.6375 19.2579 18.6478C19.2666 18.6565 19.329 18.6858 19.3385 18.6906C19.3503 18.6977 19.4065 18.7206 19.4191 18.7333C19.4397 18.7491 19.4547 18.7878 19.4737 18.8068C19.4903 18.8234 19.5369 18.8322 19.5543 18.8495C19.5764 18.8669 19.5891 18.9033 19.6089 18.9231C19.6326 18.9468 19.6366 18.9744 19.6635 18.9966C19.6801 19.0132 19.7267 19.0219 19.7441 19.0393C19.7678 19.0583 19.7749 19.0939 19.7987 19.1128C19.8089 19.1231 19.869 19.15 19.8817 19.1532C19.8927 19.1595 19.9512 19.1849 19.9623 19.1959C19.9733 19.207 20.0074 19.26 20.0169 19.2695C20.0224 19.275 20.0659 19.3375 20.0706 19.3422C20.0912 19.358 20.1354 19.3739 20.1536 19.3826L20.3172 19.4657C20.3259 19.4838 20.3639 19.5218 20.3718 19.5392C20.3774 19.5495 20.4303 19.6072 20.4264 19.6127C20.4217 19.6174 20.3545 19.5692 20.3434 19.5723C20.3347 19.5731 20.2667 19.5241 20.2604 19.532C20.2557 19.5367 20.3095 19.5952 20.3142 19.6047C20.3118 19.6023 20.3324 19.6134 20.3529 19.6245C20.3735 19.6356 20.3948 19.6474 20.3948 19.6474C20.4162 19.6688 20.4257 19.702 20.4494 19.721C20.4723 19.7392 20.5071 19.7455 20.5324 19.7613C20.5585 19.7827 20.5869 19.7827 20.6154 19.8017C20.6344 19.8159 20.6494 19.8594 20.67 19.8752C20.6937 19.8942 20.7269 19.899 20.753 19.9156C20.7727 19.9306 20.7862 19.9725 20.8075 19.9891C20.851 19.9947 20.8873 19.9979 20.9087 20.0192C20.9316 20.0374 20.9395 20.0738 20.9633 20.0927C20.972 20.1014 21.0368 20.1284 21.0462 20.1331C21.0684 20.1458 21.1111 20.1695 21.1292 20.1735C21.1277 20.1719 21.0802 20.1055 21.0747 20.0999C21.0699 20.0952 21.0565 20.077 21.0446 20.0604C21.032 20.043 21.0209 20.0272 21.0209 20.0272C21.0256 20.0225 21.0928 20.0707 21.1039 20.0676L21.1584 20.1411L21.213 20.2146C21.232 20.2383 21.2478 20.2636 21.2676 20.2881C21.2747 20.3 21.3079 20.3522 21.3222 20.3617C21.3459 20.3806 21.3814 20.3831 21.4052 20.402C21.4012 20.3981 21.3506 20.3285 21.3506 20.3285C21.3506 20.3285 21.4233 20.3633 21.4336 20.3689C21.4383 20.3736 21.4795 20.4337 21.4882 20.4424C21.4969 20.4511 21.5617 20.478 21.5711 20.4828C21.5885 20.4907 21.6344 20.5081 21.6541 20.5231C21.6707 20.535 21.6905 20.5832 21.7087 20.5967C21.7316 20.6148 21.7688 20.6188 21.7917 20.637C21.8146 20.6552 21.8518 20.6592 21.8747 20.6774C21.8858 20.6885 21.9182 20.7446 21.9293 20.7509C21.9554 20.7675 21.9886 20.7818 22.0123 20.7913L22.081 20.8269C22.1016 20.8617 22.1451 20.8767 22.1822 20.876C22.1941 20.8973 22.2178 20.9115 22.2454 20.925C22.247 20.9266 22.2526 20.9321 22.2565 20.9408C22.2534 20.9519 22.2518 20.9598 22.2494 20.9669L22.2731 20.9669C22.2834 20.9819 22.2937 20.9969 22.2977 21.0009C22.3 21.0033 22.3056 21.004 22.3087 21.0072L22.3341 21.0704C22.3506 21.0681 22.3656 21.0547 22.3759 21.0412C22.3767 21.042 22.3783 21.0436 22.3791 21.0444C22.402 21.0579 22.4273 21.0689 22.447 21.0792C22.4431 21.0895 22.4407 21.0966 22.4344 21.1045L22.4874 21.1575C22.5214 21.1583 22.553 21.152 22.5862 21.1473C22.6012 21.1528 22.6138 21.1607 22.6257 21.1679C22.6265 21.1687 22.6209 21.1584 22.6106 21.1481L22.6312 21.1402L22.6683 21.1726L22.6312 21.2113C22.6203 21.2951 22.6685 21.3101 22.7159 21.3196C22.719 21.3228 22.723 21.3268 22.7238 21.3275C22.7309 21.3394 22.7768 21.39 22.791 21.3995C22.7886 21.4113 22.7879 21.42 22.7831 21.4343C22.81 21.4374 22.8266 21.4303 22.8424 21.4177C22.8645 21.4256 22.8874 21.4296 22.8866 21.4288C22.8882 21.4257 22.8724 21.4146 22.855 21.4019C22.8589 21.3964 22.8645 21.3877 22.8668 21.3806C22.885 21.3846 22.9008 21.3909 22.9063 21.3917C22.8961 21.3862 22.8858 21.3759 22.8755 21.3656L22.8897 21.3324C22.9221 21.3506 22.9561 21.3657 22.9885 21.3839L22.9632 21.406C22.9411 21.4028 22.9174 21.398 22.9079 21.3933C22.9206 21.4012 22.9324 21.4131 22.9459 21.4218L22.9135 21.451C22.9696 21.4834 22.9895 21.579 23.0818 21.5104L23.0913 21.5104L23.1697 21.6692C23.1997 21.6424 23.2415 21.6511 23.2874 21.6828C23.2984 21.6417 23.2234 21.6282 23.2186 21.6472L23.1917 21.5776L23.2644 21.5556C23.2873 21.5643 23.3094 21.5722 23.3284 21.5817L23.3917 21.6592L23.3728 21.7729C23.4707 21.6956 23.5056 21.8204 23.5783 21.879L23.6486 21.8308L23.6629 21.9067L23.7205 21.898C23.6786 21.8893 23.7323 21.8483 23.7434 21.8499L23.7206 21.9407L23.8344 21.974L23.8422 21.944L23.9062 21.9559C23.9205 21.9891 23.9371 22.0483 23.99 22.016L24.016 21.9141C24.0659 21.9781 24.0959 22.0366 24.0881 22.1093C24.1979 22.1529 24.133 22.0217 24.201 22.0138C24.2389 22.0423 24.209 22.1118 24.273 22.1237L24.2918 22.0099L24.1939 22.002L24.2696 21.9214L24.3416 22.0313L24.3188 22.1221C24.3457 22.1396 24.4018 22.1815 24.4516 22.1602L24.5717 22.214C24.6333 22.2283 24.6443 22.1446 24.6293 22.1201L24.6822 22.0877L24.6933 22.1746C24.7771 22.1921 24.8411 22.204 24.9051 22.1732C24.9959 22.1172 25.022 22.2381 25.086 22.2074L25.0938 22.092C25.1578 22.0613 25.2107 22.0716 25.2668 22.1135C25.3039 22.0559 25.379 22.0267 25.4287 22.0054C25.3346 21.935 25.134 21.938 25.1118 21.8495C25.1394 21.825 25.1986 21.7706 25.1425 21.7286L25.1685 21.7121C25.2293 21.6924 25.2855 21.7343 25.2824 21.788L25.3582 21.7502C25.3993 21.7676 25.4301 21.8174 25.3741 21.8608L25.4333 21.8063L25.4863 21.8593L25.4105 21.9398L25.5164 21.9604L25.5194 21.8641L25.5993 21.9013L25.6363 21.8436L25.4862 21.774L25.5612 21.7021C25.5278 21.522 25.6978 21.6398 25.7775 21.5728C25.7064 21.5348 25.6613 21.4707 25.5949 21.428C25.6565 21.4091 25.7505 21.4131 25.8217 21.4322C25.8303 21.3982 25.839 21.3642 25.8476 21.3303C25.8136 21.2821 25.9155 21.2371 25.8515 21.1825L25.7645 21.1761C25.7567 21.2915 25.7387 21.406 25.6248 21.2874C25.6255 21.2361 25.6896 21.2906 25.7014 21.2409C25.6516 21.1768 25.6177 21.2661 25.5837 21.2273L25.6176 21.1808C25.6848 21.1816 25.7005 21.1216 25.6933 21.0576L25.7123 21.0718L25.7913 21.0656L25.8213 21.0814L25.8774 21.038L25.8292 21.0087L25.7723 21.0608C25.6926 21.0663 25.7193 20.9652 25.7272 20.9351L25.822 20.9447L25.8109 20.9005L25.7248 20.928C25.7066 20.8198 25.8005 20.7195 25.7593 20.6168C25.6732 20.6444 25.6889 20.5417 25.707 20.4698C25.6209 20.412 25.6357 20.2232 25.5306 20.1939L25.4809 20.2673C25.3868 20.1969 25.4926 20.0469 25.487 19.975C25.2982 20.0562 25.4563 20.1385 25.4169 20.2554L25.2849 20.2087L25.3007 20.1913C25.3615 20.1716 25.3204 20.1116 25.2982 20.0657C25.3891 20.0618 25.4119 19.971 25.4016 19.9181L25.3344 19.9172L25.3265 19.9046C25.2357 19.9084 25.2959 20.0681 25.1711 20.1185C25.2018 20.0404 25.1599 19.989 25.1527 19.925C25.3037 19.9433 25.2206 19.7891 25.2063 19.7133C25.0782 19.6468 25.0946 19.4406 24.8908 19.4547L24.7556 19.2815C24.6828 19.2088 24.6608 19.3099 24.6095 19.3248C24.6063 19.3217 24.6023 19.3177 24.6031 19.3138C24.6 19.3106 24.5905 19.3059 24.581 19.3011C24.5999 19.2727 24.5817 19.2592 24.5936 19.2095C24.5667 19.1826 24.5184 19.1533 24.5066 19.2031C24.5169 19.2276 24.4869 19.2449 24.4593 19.2599C24.449 19.2449 24.4403 19.2315 24.4387 19.2251C24.4363 19.2228 24.434 19.2157 24.4276 19.2093C24.426 19.1461 24.437 19.0766 24.4504 19.0237C24.3848 19.0339 24.3343 19.0544 24.275 19.0615C24.2695 19.0512 24.264 19.0409 24.2537 19.0306C24.2434 19.0204 24.2213 19.0124 24.2031 19.0037C24.2094 18.9626 24.2085 18.9192 24.1461 18.8946C24.1343 18.897 24.1272 18.9041 24.1208 18.912C24.1019 18.8883 24.0845 18.8567 24.0694 18.8369C24.0639 18.8266 24.0291 18.7729 24.018 18.7618C24.0054 18.7492 23.9484 18.7254 23.9366 18.7183C23.9247 18.7112 23.867 18.6866 23.8552 18.6748C23.8449 18.6645 23.814 18.6052 23.8038 18.5997C23.7769 18.5823 23.7453 18.5696 23.7223 18.5561L23.5595 18.4691C23.5611 18.4659 23.5018 18.3924 23.5081 18.394C23.5207 18.3972 23.5698 18.4272 23.5895 18.4375C23.6006 18.4438 23.6709 18.481 23.6709 18.481C23.6709 18.481 23.6258 18.417 23.6195 18.4059L23.5681 18.3308L23.4867 18.2873L23.4053 18.2438C23.3847 18.2327 23.3468 18.2185 23.3238 18.2003C23.3128 18.1939 23.2835 18.1362 23.2724 18.1252C23.2558 18.1086 23.2084 18.099 23.191 18.0816C23.172 18.0627 23.1602 18.0224 23.1396 18.0065C23.1222 17.9939 23.0724 17.9725 23.0582 17.963C23.0463 17.9559 22.9886 17.9314 22.9768 17.9195C22.9554 17.8981 22.9475 17.8665 22.9254 17.8444C22.9119 17.831 22.8818 17.7819 22.8747 17.7701C22.866 17.7566 22.8383 17.71 22.8233 17.695C22.8146 17.6863 22.7514 17.6562 22.7419 17.6515C22.7356 17.6451 22.6802 17.6182 22.6684 17.6064C22.6573 17.5953 22.6233 17.5423 22.617 17.5313C22.6193 17.5336 22.6976 17.574 22.6984 17.5748C22.6976 17.574 22.6533 17.506 22.647 17.4997C22.6383 17.4957 22.5734 17.4593 22.5655 17.4562L22.4027 17.3691C22.4051 17.362 22.345 17.2972 22.3513 17.294C22.3592 17.2924 22.4209 17.3399 22.4327 17.3375C22.4406 17.336 22.3766 17.2672 22.3813 17.2624C22.3813 17.2624 22.4643 17.3123 22.4627 17.306C22.4595 17.2981 22.4224 17.2419 22.4113 17.2309C22.3947 17.2143 22.3496 17.2024 22.3299 17.1873C22.3062 17.1684 22.2998 17.1336 22.2785 17.1122L22.197 17.0687C22.1749 17.0561 22.1346 17.03 22.1156 17.0252C22.1164 17.026 22.1069 17.007 22.0943 16.9896C22.0816 16.9722 22.0682 16.954 22.0642 16.9501C22.0571 16.9382 22.0262 16.8884 22.0136 16.8758C22.0041 16.8663 21.9424 16.8378 21.9322 16.8323L21.8515 16.7895L21.7701 16.746L21.6073 16.659C21.5986 16.6408 21.563 16.6005 21.5559 16.5839C21.5527 16.5712 21.4997 16.5135 21.5045 16.5088C21.5092 16.504 21.5772 16.5531 21.5859 16.5523C21.5954 16.5523 21.6633 16.6013 21.6681 16.5966C21.6681 16.5966 21.6246 16.5294 21.6167 16.5215C21.6072 16.512 21.5471 16.4898 21.5353 16.478C21.5202 16.463 21.5004 16.4147 21.4838 16.4029C21.4625 16.3863 21.4222 16.3696 21.4024 16.3594C21.3906 16.3522 21.3329 16.3277 21.321 16.3158C21.3028 16.2976 21.2894 16.2558 21.2696 16.2407C21.2427 16.2186 21.2143 16.2186 21.1882 16.1972C21.1692 16.183 21.1542 16.1395 21.1368 16.1221C21.1138 16.1039 21.0783 16.0968 21.0553 16.0786C21.0372 16.0651 21.0213 16.0209 21.0047 16.0043C20.996 15.9956 20.9328 15.9655 20.9233 15.9607C20.913 15.9552 20.8522 15.9275 20.8419 15.9172C20.83 15.9054 20.7976 15.854 20.7905 15.8421C20.7849 15.8366 20.7414 15.7741 20.739 15.767C20.7177 15.7504 20.6766 15.733 20.6576 15.7235L20.5762 15.68L20.4948 15.6365L20.332 15.5494C20.3217 15.5296 20.2893 15.4925 20.2806 15.4743C20.2821 15.4759 20.3549 15.5155 20.362 15.5178C20.373 15.5242 20.4434 15.5614 20.4434 15.5614C20.4434 15.5614 20.3983 15.4973 20.392 15.4863C20.3785 15.4681 20.3587 15.4341 20.3406 15.4112C20.3342 15.4096 20.267 15.3708 20.2591 15.3676C20.2394 15.3573 20.1991 15.3407 20.1777 15.3241C20.1651 15.3162 20.1382 15.2609 20.1263 15.249C20.1097 15.2324 20.0647 15.2205 20.0449 15.2055C20.0251 15.1857 20.0132 15.1501 19.9935 15.1304C19.9761 15.113 19.9531 15.0711 19.9421 15.0553C19.9294 15.0379 19.908 15.0023 19.8906 14.9802C19.8796 14.9691 19.825 14.9477 19.8092 14.9367C19.7863 14.9185 19.7792 14.8829 19.7578 14.8616C19.7467 14.8505 19.6875 14.8244 19.6764 14.818L19.595 14.7745C19.5815 14.7658 19.531 14.7436 19.5136 14.731C19.5057 14.7231 19.4669 14.6654 19.4629 14.6567C19.4495 14.6385 19.4289 14.6037 19.4115 14.5816C19.4004 14.5705 19.3459 14.5491 19.3301 14.5381C19.3103 14.5183 19.2985 14.4827 19.2787 14.463C19.2652 14.4495 19.2099 14.4273 19.1973 14.4194C19.1759 14.4076 19.1419 14.3925 19.1159 14.3759C19.1127 14.3727 19.1064 14.3617 19.0961 14.3514C18.9878 14.3094 18.8906 14.2643 18.8629 14.1561C18.8573 14.1505 18.8542 14.1426 18.8502 14.1387C18.8336 14.1221 18.7885 14.1102 18.7688 14.0951C18.7498 14.0762 18.7356 14.0382 18.7174 14.02C18.6992 14.0066 18.6526 13.9836 18.636 13.9765C18.6241 13.9694 18.5688 13.9425 18.5545 13.933C18.5316 13.9148 18.5237 13.8784 18.5031 13.8579C18.5102 13.8603 18.5845 13.9014 18.5845 13.9014C18.5837 13.9006 18.5371 13.835 18.5331 13.8263C18.526 13.8192 18.511 13.8137 18.4983 13.8057L18.425 13.9597C18.406 13.8791 18.3932 13.7906 18.3916 13.7037C18.3671 13.6887 18.3418 13.6824 18.3189 13.6642C18.2999 13.6499 18.2848 13.6065 18.2675 13.5891C18.2437 13.5701 18.2098 13.5645 18.186 13.5455C18.1655 13.5297 18.1536 13.4942 18.1346 13.4752C18.1054 13.4696 18.0714 13.4546 18.0279 13.4301L18.0184 13.4111C17.9995 13.4016 17.9797 13.3913 17.9718 13.3834C17.9528 13.3692 17.9378 13.3257 17.9212 13.3091C17.9125 13.3004 17.8967 13.2941 17.8809 13.2877L17.6242 13.41C17.5767 13.2677 17.6121 13.0995 17.563 12.9793C17.5488 12.9698 17.5322 12.9627 17.5211 12.9564L17.3606 12.867C17.3543 12.8559 17.3432 12.8448 17.3345 12.8314C17.1844 12.7949 17.0011 12.7726 16.9607 12.6612L16.8976 12.7449C16.8184 12.6089 16.8808 12.5102 16.9463 12.4147L16.9376 12.4107C16.9233 12.4012 16.8751 12.3814 16.8561 12.3672C16.8498 12.3609 16.8087 12.3008 16.8047 12.2921C16.7921 12.2747 16.7715 12.2399 16.7533 12.217C16.7422 12.2059 16.6877 12.1846 16.6719 12.1735C16.664 12.1656 16.6584 12.1553 16.6529 12.145L16.6347 12.1505L16.6141 12.0873C16.5991 12.0676 16.5872 12.0415 16.5698 12.0241C16.5461 12.0051 16.5114 11.9987 16.4884 11.9805C16.4647 11.9616 16.4584 11.9268 16.4346 11.9078C16.4212 11.8944 16.4007 11.888 16.3817 11.8785L16.3754 11.8959C16.3904 11.9157 16.4039 11.9386 16.4039 11.9386C16.4039 11.9386 16.3865 11.9307 16.3667 11.9204L16.325 12.0586C16.0674 12.0473 16.0228 11.5906 15.7424 11.7745C15.5708 11.4844 15.3413 11.1413 15.0023 11.0344L14.8574 10.6526L14.5754 10.7306C14.6967 10.3309 14.3161 10.4807 14.2172 10.3155L14.3244 10.0817C14.2263 9.91733 13.6529 10.1017 13.8533 9.80008C13.6483 9.36774 12.9413 9.50854 12.9677 8.91919L12.5117 8.83741C12.4879 8.70467 12.4673 8.56086 12.4671 8.42339C12.4466 8.41231 12.4229 8.39807 12.4181 8.39333C12.3999 8.38462 12.362 8.36088 12.3391 8.34743L12.2845 8.31657C12.2632 8.33789 12.238 8.35999 12.2048 8.37418C12.1138 8.17896 11.7843 8.17156 11.6854 8.00635C11.6102 7.86487 11.671 7.79302 11.7476 7.72752C11.742 7.71724 11.7341 7.70933 11.7294 7.69985C11.7223 7.68799 11.6882 7.63977 11.6764 7.62791C11.6661 7.61763 11.6076 7.58756 11.5973 7.58202L11.5728 7.56699C11.4931 7.64355 11.4221 7.70985 11.3209 7.62286C11.3334 7.54544 11.3302 7.46644 11.323 7.38347C11.3143 7.37952 11.3056 7.37556 11.3041 7.37398C11.2906 7.36528 11.24 7.34311 11.225 7.32808C11.2045 7.31227 11.1926 7.27196 11.1712 7.25535C11.1578 7.24191 11.1032 7.22053 11.0922 7.20946C11.0724 7.18969 11.0518 7.15491 11.0384 7.13673C11.0273 7.12092 11.0028 7.08219 10.9846 7.064C10.9704 7.04977 10.9206 7.03313 10.9056 7.01811C10.8818 6.99913 10.8731 6.96673 10.8518 6.94538C10.8312 6.92482 10.8217 6.89163 10.798 6.87264C10.7751 6.85445 10.7395 6.84731 10.7189 6.82675C10.7237 6.8315 10.7719 6.89869 10.7727 6.89948C10.7727 6.89948 10.7545 6.89078 10.7348 6.88049C10.715 6.8702 10.6968 6.85675 10.6905 6.85517C10.6708 6.84488 10.6336 6.82668 10.6115 6.80928C10.598 6.80057 10.5711 6.74999 10.5577 6.73655C10.5403 6.71915 10.4952 6.70726 10.4786 6.69065C10.4581 6.67009 10.4438 6.6369 10.4249 6.61792C10.4051 6.59341 10.3877 6.56654 10.3711 6.54519L10.3173 6.47246L10.2635 6.39973C10.2493 6.38075 10.2311 6.34834 10.2097 6.32699C10.2058 6.32304 10.1362 6.28664 10.1307 6.2811C10.1188 6.27398 10.0635 6.24707 10.0516 6.23521C10.039 6.22256 10.0065 6.17592 9.99783 6.16248C9.99941 6.16406 10.0769 6.20837 10.0769 6.20837C10.0816 6.20364 10.0231 6.14512 10.0231 6.13564C10.0025 6.11508 9.99302 6.08189 9.9693 6.06291C9.95982 6.05816 9.89421 6.02097 9.89026 6.01702C9.88394 6.01543 9.94483 6.0858 9.94405 6.08975C9.94247 6.09291 9.87449 6.0486 9.865 6.04386C9.84524 6.03357 9.79781 6.00034 9.78595 5.99796C9.78121 5.99796 9.79703 6.01378 9.81127 6.03275C9.8255 6.05172 9.83974 6.0707 9.83974 6.0707C9.83974 6.0707 9.82156 6.06199 9.80259 6.05249C9.78362 6.04299 9.76544 6.02955 9.75833 6.02717C9.74015 6.01846 9.70221 5.99473 9.67928 5.98128L9.60024 5.93539C9.60182 5.93223 9.54013 5.86107 9.54645 5.86266C9.55751 5.86425 9.60969 5.89747 9.6255 5.90855C9.64526 5.91884 9.69269 5.95206 9.70454 5.95444C9.71086 5.95603 9.65076 5.88645 9.65076 5.88171C9.64996 5.87618 9.72743 5.92997 9.7298 5.9276C9.73454 5.92286 9.67602 5.86435 9.67601 5.85487L9.59697 5.80898L9.51792 5.76309C9.49895 5.75359 9.46022 5.7338 9.43888 5.71719C9.42623 5.70928 9.39774 5.65711 9.38509 5.64446C9.36848 5.62786 9.32423 5.61676 9.30605 5.59857C9.30051 5.58829 9.25779 5.53137 9.25226 5.52584C9.25621 5.52979 9.33051 5.57094 9.3313 5.57173C9.3313 5.57173 9.28068 5.50216 9.27752 5.499C9.25933 5.48555 9.2127 5.4626 9.19847 5.45311L9.11943 5.40721L8.96134 5.31543C8.94947 5.29883 8.91783 5.25772 8.90755 5.2427C8.9036 5.23874 8.89015 5.22056 8.87749 5.20317C8.86484 5.18578 8.85139 5.17233 8.85376 5.16997C8.85376 5.16997 8.87511 5.18184 8.89645 5.19371C8.917 5.20479 8.93518 5.21823 8.93518 5.21349C8.932 5.20085 8.89484 5.15894 8.88139 5.14076C8.8719 5.12653 8.84342 5.08384 8.8276 5.06803C8.81812 5.06328 8.75725 5.02609 8.74856 5.02214L8.66951 4.97624C8.64975 4.96596 8.6126 4.94775 8.59047 4.93035C8.57861 4.92323 8.54854 4.86948 8.53668 4.85762C8.52007 4.84101 8.47503 4.82912 8.45764 4.81173C8.43392 4.79275 8.4252 4.76035 8.40385 4.739C8.38329 4.71844 8.34536 4.71366 8.3248 4.6931C8.30108 4.67412 8.29237 4.64172 8.27102 4.62037C8.2473 4.60139 8.21253 4.59504 8.19197 4.57448C8.17457 4.55708 8.15716 4.51599 8.13818 4.50175C8.12 4.4883 8.07337 4.46535 8.05914 4.45586L7.98009 4.40997C7.96113 4.40047 7.92239 4.38068 7.90105 4.36407C7.8884 4.35616 7.85991 4.30399 7.84726 4.29134C7.83066 4.27474 7.78561 4.26285 7.76822 4.24545C7.7445 4.22647 7.73578 4.19407 7.71443 4.17272L7.78876 4.24231C7.81168 4.25576 7.85199 4.27712 7.8678 4.2882C7.87175 4.29215 7.89231 4.30323 7.91207 4.31352C7.92867 4.32538 7.94921 4.33172 7.94921 4.33172C7.94921 4.33172 7.89938 4.26769 7.89622 4.25978C7.88119 4.24476 7.83299 4.22971 7.81717 4.21389C7.79503 4.19175 7.78632 4.16409 7.76339 4.14116C7.75469 4.13246 7.69383 4.10002 7.68434 4.09527C7.6709 4.08657 7.62032 4.0644 7.6053 4.04938C7.58632 4.03514 7.5689 3.99404 7.55151 3.97664C7.5349 3.96004 7.48986 3.94815 7.47246 3.93075C7.44875 3.91177 7.44003 3.87937 7.41868 3.85802C7.40049 3.83983 7.35782 3.83032 7.33963 3.81213C7.3167 3.79394 7.30719 3.76075 7.28584 3.7394C7.26449 3.71805 7.25341 3.68801 7.23206 3.66666C7.21545 3.65006 7.1712 3.63422 7.15301 3.62077L7.2068 3.6935C7.2068 3.6935 7.18862 3.6848 7.16886 3.67451C7.1491 3.66422 7.13092 3.65078 7.12539 3.64998C7.1159 3.64523 7.05741 3.61042 7.04634 3.60409C7.0329 3.59065 7.00047 3.544 6.99255 3.53136C6.9799 3.51397 6.94194 3.47127 6.93877 3.45862C6.93639 3.45151 7.01781 3.50452 7.01781 3.50452C7.01781 3.50452 6.96719 3.43495 6.96403 3.43179C6.94822 3.42071 6.89763 3.39381 6.88498 3.38589L6.80594 3.34L6.72689 3.29411L6.64785 3.24822C6.62571 3.23556 6.59489 3.21894 6.5688 3.20233C6.56089 3.19442 6.52372 3.14303 6.51501 3.12959C6.4913 3.11061 6.4589 3.10189 6.43597 3.0837C6.41225 3.06472 6.37748 3.05837 6.35692 3.03781C6.33479 3.02041 6.3237 2.98564 6.30314 2.96508C6.29918 2.96112 6.24856 2.8963 6.24777 2.89076C6.25013 2.88366 6.32682 2.9414 6.32839 2.93824C6.32839 2.93824 6.28173 2.87736 6.27303 2.86393C6.26907 2.85997 6.19161 2.8204 6.1845 2.81328C6.16868 2.80221 6.12598 2.75003 6.11491 2.73896C6.10067 2.72473 6.06429 2.67887 6.04137 2.66542C6.02951 2.6583 5.95601 2.63216 5.94574 2.62662C5.93151 2.62187 5.86434 2.59732 5.85169 2.58941C5.83193 2.57912 5.78765 2.53484 5.76947 2.52613C5.73865 2.51426 5.69834 2.50237 5.67148 2.49919C5.65725 2.49443 5.59088 2.48489 5.57428 2.47777C5.55058 2.46827 5.50946 2.43189 5.48654 2.42318C5.45651 2.40735 5.41936 2.38915 5.39485 2.37412C5.38616 2.37016 5.30949 2.32664 5.3008 2.32742C5.27235 2.32266 5.22179 2.32419 5.20204 2.32338C5.17755 2.32257 5.11828 2.31541 5.10565 2.32172C5.093 2.31381 5.03294 2.29637 5.00766 2.29003C4.98711 2.28369 4.93574 2.26074 4.90729 2.26071C4.88675 2.25911 4.83462 2.27329 4.81171 2.27406C4.78643 2.27246 4.73743 2.25188 4.71057 2.25343C4.67818 2.25419 4.64975 2.27313 4.61894 2.27547C4.59603 2.27624 4.54466 2.25803 4.52017 2.26195C4.50674 2.26273 4.44277 2.28875 4.43487 2.29032C4.43171 2.2919 4.42776 2.29269 4.42065 2.29505C4.40723 2.29583 4.39775 2.30056 4.39064 2.30766C4.37485 2.31555 4.36063 2.32028 4.35116 2.32501C4.33931 2.32737 4.31956 2.32656 4.3006 2.32655L4.2998 2.32576C4.19707 2.28932 4.11883 2.26318 4.04537 2.28445C3.93639 2.33176 3.90229 2.18399 3.82646 2.20763L3.82263 2.34114C3.74917 2.36241 3.68437 2.34023 3.614 2.27933C3.57297 2.33776 3.48608 2.35507 3.42605 2.37082C3.51144 2.44673 3.66554 2.48716 3.75328 2.54649C3.73987 2.56149 3.72566 2.58044 3.71145 2.59465C3.70672 2.59938 3.68934 2.60569 3.67118 2.6112C3.67116 2.59224 3.66798 2.57012 3.64664 2.55825C3.6348 2.57483 3.63008 2.60327 3.63326 2.62539L3.63011 2.62697C3.62142 2.63249 3.61669 2.64197 3.60959 2.65381L3.51955 2.68218C3.47054 2.65211 3.43098 2.58887 3.49415 2.55258L3.42625 2.60309L3.35904 2.53114L3.44666 2.453L3.31942 2.40627L3.3211 2.51688L3.22387 2.45754L3.17968 2.51755ZM24.1151 21.4259C24.1112 21.4267 24.1041 21.4338 24.0994 21.4386C24.1017 21.422 24.0977 21.4038 24.0993 21.3864C24.108 21.3809 24.119 21.373 24.1317 21.362C24.138 21.3635 24.1435 21.3643 24.1554 21.3667L24.1538 21.4173C24.1373 21.4196 24.1222 21.4236 24.1151 21.4259ZM24.1444 21.5026C24.1484 21.5018 24.1555 21.4994 24.1563 21.5002C24.1571 21.501 24.1539 21.5026 24.1516 21.505L24.1444 21.5026ZM25.0806 20.5206L25.1138 20.568L25.1667 20.5783L25.0467 20.6098C25.0909 20.5735 24.9826 20.5126 25.0806 20.5206ZM24.2583 21.6544C24.1975 21.6314 24.2022 21.5698 24.1911 21.5256L24.1903 21.5248C24.2124 21.509 24.2471 21.4869 24.255 21.4758C24.2717 21.5209 24.237 21.5999 24.2812 21.6489C24.2931 21.5991 24.3262 21.5186 24.3712 21.5589C24.4132 21.6198 24.3034 21.6521 24.2583 21.6544ZM24.7082 21.1571L24.7178 21.2187L24.6119 21.2028C24.6031 21.1419 24.6869 21.1547 24.7082 21.1571ZM25.1877 21.0872C25.1798 21.0792 25.168 21.0721 25.1529 21.0666L25.1427 21.061L25.1505 20.9931C25.175 21.0176 25.1956 21.0429 25.2059 21.0722C25.1964 21.0769 25.1909 21.0808 25.1877 21.0872ZM24.7229 21.7117C24.6511 21.7298 24.644 21.8033 24.6409 21.857L24.5461 21.8379C24.6211 21.7661 24.5917 21.6563 24.7007 21.6232L24.7538 21.7188L24.8928 21.7442L24.8589 21.7908L24.7229 21.7117ZM24.9834 21.4702C24.9834 21.4702 25.0672 21.4639 25.0743 21.4663C25.0909 21.4687 25.147 21.4916 25.1581 21.498C25.1683 21.5035 25.2371 21.5344 25.2371 21.5344C25.2371 21.5344 25.2197 21.5312 25.1992 21.5296C25.1786 21.528 25.1589 21.5224 25.1533 21.5217C25.1217 21.5185 25.0941 21.5192 25.0649 21.5184C25.038 21.5105 25.0119 21.4986 24.9811 21.4962C24.9914 21.497 25.0546 21.4892 25.0688 21.4939C25.0648 21.4852 24.9834 21.4749 24.9834 21.4702ZM24.8765 22.012C24.8559 22.0152 24.8346 22.0175 24.8172 22.0143C24.8109 21.9985 24.8006 21.9835 24.7879 21.9661C24.7927 21.9614 24.799 21.9535 24.8014 21.9464L24.8029 21.929C24.765 21.9385 24.7563 21.9061 24.7523 21.8831L24.7547 21.8808C24.8732 21.8714 24.8661 21.9449 24.8765 22.012ZM25.0067 21.8628L24.9568 21.7561L24.9955 21.7332L24.9844 21.689L25.0406 21.7309L25.0563 21.7135C25.0825 21.7823 25.0375 21.8273 25.0067 21.8628ZM25.5368 20.9816L25.559 21.0274L25.4745 21.0993C25.4168 21.0605 25.4768 21.0021 25.5368 20.9816ZM25.4723 21.3102L25.3445 21.4428C25.3483 21.333 25.1216 21.4 25.1594 21.253C25.2605 21.2263 25.3878 21.273 25.4723 21.3102ZM25.2321 20.2742C25.2929 20.3399 25.2045 20.4267 25.2923 20.4765C25.387 20.4103 25.3823 20.3866 25.3601 20.298L25.4431 20.3669L25.4282 20.4703C25.5751 20.4231 25.5175 20.5597 25.5444 20.6292L25.5058 20.6948L25.5469 20.7549L25.6037 20.7028L25.6456 20.7115C25.5896 20.7549 25.4916 20.7896 25.4616 20.7311L25.4087 20.7634L25.468 20.837L25.5019 20.7999L25.5131 20.8868L25.4459 20.8433C25.3819 20.874 25.3543 20.9411 25.2682 20.9261C25.216 20.8644 25.1094 20.9378 25.0982 20.8509C24.9591 20.7828 25.1851 20.7719 25.151 20.6905L25.193 20.7419C25.4263 21.0937 25.4078 20.6868 25.3249 20.7033L25.3667 20.6694C25.3778 20.7136 25.4608 20.7398 25.4837 20.6916L25.4425 20.5889C25.4006 20.6228 25.3334 20.5793 25.2923 20.5619C25.2812 20.4749 25.1722 20.4654 25.135 20.3855L25.1121 20.3911L25.0757 20.312C25.1112 20.3571 25.176 20.3176 25.2321 20.2742ZM25.0928 20.0782C25.1458 20.0885 25.149 20.1628 25.1403 20.2015L25.0985 20.2354C25.0511 20.1974 25.0178 20.1073 25.0928 20.0782ZM24.9877 20.0062C24.9782 20.0394 24.9735 20.0631 24.9522 20.0749C24.9538 20.0528 24.9537 20.0338 24.9553 20.0212C24.9585 20.0149 24.9624 20.0093 24.9679 20.0006L24.9877 20.0062ZM24.8318 19.694L24.9226 19.6901C24.9945 19.7147 24.937 19.8086 25.0081 19.8419L25.0657 19.7811C25.0989 19.8285 25.0848 19.8807 25.0271 19.8893L24.8951 19.8426L24.8833 19.8876C24.8714 19.871 24.8619 19.852 24.8564 19.8465C24.8564 19.8417 24.8556 19.8362 24.8556 19.8315L24.8919 19.7256L24.8405 19.7359C24.8358 19.7216 24.8318 19.7082 24.8294 19.6916L24.8318 19.694ZM16.4967 12.3724L16.454 12.3866L16.4492 12.3155C16.4919 12.3013 16.4959 12.3574 16.4967 12.3724ZM16.0678 12.4977L16.0109 12.5166L16.0045 12.4202C16.0614 12.4013 16.067 12.4779 16.0678 12.4977ZM15.7761 12.2817L15.6986 12.2469L15.7641 12.104C15.7854 12.1585 15.8226 12.1767 15.7761 12.2817ZM14.9962 11.2887C14.9093 11.2966 14.9795 11.1347 14.8705 11.1441L14.8894 11.1204C14.9582 11.137 15.0736 11.2193 14.9962 11.2887ZM4.20612 3.61029C4.22586 3.60162 4.23376 3.60005 4.26854 3.62062L4.25119 3.65537L4.20612 3.61029ZM4.71211 3.11222C4.72475 3.12013 4.72398 3.13356 4.72793 3.14225L4.75797 3.15808C4.739 3.15332 4.76432 3.18811 4.73823 3.17623L4.73743 3.15648L4.72479 3.15805C4.70345 3.15092 4.72239 3.12724 4.70737 3.11221C4.70422 3.12327 4.69949 3.13748 4.68921 3.12721C4.67972 3.11298 4.7042 3.10905 4.71211 3.11222ZM4.27154 3.42943L4.24393 3.48234L4.1965 3.44437C4.21148 3.41673 4.25018 3.39386 4.27154 3.42943ZM4.13121 2.87232C4.16123 2.86919 4.162 2.84154 4.16119 2.82179L4.19991 2.83683C4.1707 2.85972 4.18338 2.90555 4.14073 2.91025L4.11778 2.86836L4.06088 2.84935L4.0735 2.83356L4.13121 2.87232ZM3.15055 3.53037L3.3023 3.59686C3.2123 3.67737 3.16015 3.66784 3.15055 3.53037ZM3.5452 3.10092C3.54366 3.15149 3.64952 3.13894 3.63456 3.2045C3.58716 3.2092 3.5263 3.17675 3.48678 3.15144L3.5452 3.10092ZM3.12285 3.47425C3.12047 3.47188 3.11889 3.46555 3.11888 3.45607L3.12285 3.47425ZM3.14924 2.94178C3.15402 2.9797 3.13507 2.99865 3.11614 3.02708L3.09164 3.01678C3.10029 2.97334 3.10895 2.93937 3.14924 2.94178Z" fill="#5567AE"/>
</g>
<g clip-path="url(#clip1)">
<path d="M20.763 6.42079C20.7622 6.42158 20.7203 6.49667 20.7171 6.49984C20.7266 6.49509 20.7795 6.45633 20.7898 6.44605C20.8009 6.43498 20.8294 6.37807 20.8357 6.367C20.842 6.35594 20.8816 6.28796 20.8816 6.28796C20.8769 6.28322 20.8184 6.34174 20.8097 6.34095C20.7883 6.3623 20.7583 6.37339 20.7369 6.39474C20.7306 6.40581 20.6966 6.46825 20.691 6.47379C20.6942 6.47062 20.7614 6.42237 20.763 6.42079Z" fill="#5567AE"/>
<path d="M22.3946 0.886708C22.3298 0.908886 22.3503 0.987874 22.3858 1.0234L22.4672 0.96091L22.3946 0.886708Z" fill="#5567AE"/>
<path d="M22.6892 0.980508C22.6433 1.03111 22.6425 1.04612 22.6472 1.08404L22.7358 1.02866L22.6892 0.980508Z" fill="#5567AE"/>
<path d="M23.1503 2.16265L23.2111 2.15865L23.193 2.07729C23.1646 2.05361 23.1487 2.13105 23.1503 2.16265Z" fill="#5567AE"/>
<path d="M21.6685 0.997168C21.6337 1.07462 21.6298 1.05962 21.6407 1.15283L21.6921 1.12514L21.6685 0.997168Z" fill="#5567AE"/>
<path d="M22.9822 1.28446C22.9142 1.3477 23.0145 1.38002 23.0327 1.39501C23.0287 1.34683 23.0359 1.29232 22.9822 1.28446Z" fill="#5567AE"/>
<path d="M22.636 1.30832L22.7799 1.24498C22.8257 1.256 22.8683 1.26545 22.8447 1.23229L22.7988 1.22127C22.7594 1.17074 22.6882 1.26561 22.636 1.30832Z" fill="#5567AE"/>
<path d="M15.2408 12.5729C15.2408 12.5729 15.2456 12.5634 15.2527 12.5516C15.1729 12.5366 15.1168 12.6117 15.0716 12.7421C15.0922 12.7263 15.1183 12.705 15.1222 12.7058C15.127 12.7058 15.0961 12.7508 15.0834 12.7729L15.0913 12.7793C15.1103 12.765 15.1459 12.7342 15.1514 12.7334C15.1728 12.7073 15.1752 12.6812 15.195 12.652C15.2092 12.633 15.2527 12.6179 15.2677 12.5982C15.274 12.5919 15.2827 12.5784 15.289 12.5626C15.2827 12.5595 15.274 12.5539 15.2669 12.5516C15.2543 12.5642 15.2408 12.5729 15.2408 12.5729Z" fill="#5567AE"/>
<path d="M11.2654 17.0079C11.2543 17.0142 11.1989 17.0554 11.1903 17.0593C11.1847 17.0696 11.1467 17.1407 11.1467 17.1407C11.1467 17.1407 11.2139 17.0972 11.2218 17.0893C11.2376 17.0735 11.2795 17.0553 11.2961 17.0387C11.3072 17.0276 11.3333 16.9684 11.3397 16.9573C11.346 16.9462 11.3832 16.8759 11.3832 16.8759C11.3784 16.8711 11.3176 16.9273 11.3081 16.9273C11.2899 16.9502 11.2859 16.9874 11.2654 17.0079Z" fill="#5567AE"/>
<path d="M16.4908 6.07066C16.5059 6.04615 16.5209 6.01691 16.5336 5.99004C16.5399 5.97897 16.5763 5.90941 16.5763 5.90941C16.5763 5.90941 16.5138 5.95766 16.5028 5.96399C16.4996 5.96715 16.464 6.03592 16.46 6.04461C16.4458 6.06359 16.4047 6.081 16.3873 6.0984C16.3683 6.12212 16.3628 6.1561 16.3446 6.17902C16.3683 6.16004 16.392 6.14106 16.4181 6.12445C16.4292 6.11812 16.4908 6.07066 16.4908 6.07066Z" fill="#5567AE"/>
<path d="M13.4994 14.4089C13.4994 14.4089 13.5682 14.3591 13.5745 14.3575C13.5927 14.3346 13.5998 14.299 13.618 14.2761C13.6156 14.2784 13.5453 14.3299 13.5453 14.3299C13.5453 14.3299 13.4978 14.4057 13.4994 14.4089Z" fill="#5567AE"/>
<path d="M17.0887 5.29263C17.0697 5.31634 17.0649 5.34953 17.0459 5.37325C17.0499 5.3693 17.1187 5.31946 17.1187 5.31946C17.1211 5.31709 17.1614 5.23884 17.1614 5.23884C17.1614 5.23884 17.0918 5.28946 17.0887 5.29263Z" fill="#5567AE"/>
<path d="M3.74644 24.1431C3.75828 24.1454 3.77172 24.1462 3.78278 24.1446C3.7891 24.1383 3.79385 24.1336 3.79938 24.128C3.78042 24.128 3.75752 24.1178 3.73542 24.0925L3.74644 24.1431Z" fill="#5567AE"/>
<path d="M4.2837 24.0366L4.27816 24.0469C4.27262 24.0619 4.2655 24.0738 4.25759 24.0817C4.2647 24.084 4.26864 24.0896 4.27258 24.0998C4.29946 24.0872 4.32712 24.069 4.35164 24.0445L4.2837 24.0366Z" fill="#5567AE"/>
<path d="M3.23799 23.8416L3.30747 23.8952C3.3763 23.7885 3.34392 23.7641 3.33134 23.7009L3.23799 23.8416Z" fill="#5567AE"/>
<path d="M3.09889 23.0858L3.07991 23.1048L3.08618 23.1648L3.13442 23.1166L3.09889 23.0858Z" fill="#5567AE"/>
<path d="M3.94639 24.1468L3.99143 24.1396C3.99302 24.1238 4.00335 24.0614 3.95831 24.0685L3.94639 24.1468Z" fill="#5567AE"/>
<path d="M3.11836 23.2177L3.05669 23.2651L3.11119 23.2769L3.11836 23.2177Z" fill="#5567AE"/>
<path d="M3.14517 23.3282L3.12303 23.3504C3.23205 23.3597 3.12446 23.5242 3.21452 23.5336C3.30385 23.4727 3.20993 23.3582 3.14517 23.3282Z" fill="#5567AE"/>
<path d="M3.61796 23.779L3.625 23.8572C3.6345 23.8382 3.64639 23.7932 3.62902 23.7726L3.61796 23.779Z" fill="#5567AE"/>
<path d="M3.32901 23.6274C3.27372 23.6117 3.27212 23.6322 3.2492 23.6457L3.32107 23.6638L3.32901 23.6274Z" fill="#5567AE"/>
<path d="M3.48657 24.1995L3.54584 24.1876C3.54823 24.1662 3.56173 24.0817 3.5001 24.0912L3.48657 24.1995Z" fill="#5567AE"/>
<path d="M4.42445 24.1614C4.45606 24.144 4.47506 24.1013 4.48695 24.0563C4.45927 24.0887 4.43317 24.1242 4.41023 24.1614C4.41418 24.1574 4.41971 24.1567 4.42445 24.1614Z" fill="#5567AE"/>
<path d="M3.66193 23.9337C3.62086 23.9227 3.57978 23.9117 3.60662 23.9417L3.64769 23.9527C3.69268 23.9977 3.73779 23.9194 3.77653 23.8854L3.66193 23.9337Z" fill="#5567AE"/>
<path d="M4.55468 23.9693C4.5602 23.9827 4.62416 24.0229 4.64947 23.9881C4.62184 23.9637 4.57129 23.9527 4.55468 23.9693Z" fill="#5567AE"/>
<path d="M3.59388 23.3769C3.58441 23.3627 3.51728 23.3351 3.4975 23.3739C3.52592 23.3928 3.57964 23.3959 3.59388 23.3769Z" fill="#5567AE"/>
<path d="M4.8524 23.4398L4.81753 23.5647C4.93446 23.5614 4.93292 23.5156 4.8524 23.4398Z" fill="#5567AE"/>
<path d="M12.7355 15.3103C12.8043 15.2036 12.7743 15.1815 12.7665 15.1231L12.6723 15.2646L12.7355 15.3103Z" fill="#5567AE"/>
<path d="M12.1497 15.8299C12.2532 15.8354 12.1464 15.999 12.2309 16.0045C12.3187 15.9404 12.2343 15.8354 12.1734 15.811L12.1497 15.8299Z" fill="#5567AE"/>
<path d="M12.6705 15.5458C12.676 15.5592 12.7352 15.5947 12.7605 15.5599C12.7353 15.5378 12.6871 15.5292 12.6705 15.5458Z" fill="#5567AE"/>
<path d="M13.8616 13.9235C13.8916 13.9219 13.9367 13.8958 13.9407 13.8728C13.9288 13.8657 13.8585 13.8792 13.8616 13.9235Z" fill="#5567AE"/>
<path d="M22.8573 1.305L22.7425 1.48602L22.6762 1.40076C22.4368 1.45548 22.6764 1.19218 22.5453 1.11961C22.4845 1.11888 22.3953 1.0992 22.3044 1.07637C22.2404 1.11672 22.2113 0.99903 22.133 1.07731L22.1084 1.18241L22.1274 1.18239L22.1392 1.15157L22.1408 1.18317C22.2617 1.19018 22.3564 1.2138 22.2078 1.34349C22.147 1.34276 22.2252 1.26447 22.1676 1.25109C22.1565 1.25742 22.1526 1.26612 22.147 1.27165L22.1494 1.29298C22.1478 1.28982 22.1439 1.28904 22.1391 1.2843C22.1304 1.30248 22.1336 1.31828 22.1375 1.33328C22.1201 1.32698 22.1004 1.32778 22.0814 1.3278C22.0814 1.31832 22.0759 1.30964 22.0704 1.30095C22.0546 1.30729 22.0459 1.3065 22.0483 1.28043C22.0238 1.26702 21.993 1.26468 21.955 1.26945L21.9764 1.2481L21.9764 1.24336C21.9819 1.24256 21.9867 1.24256 21.9914 1.24256C22.0167 1.24095 22.0428 1.2433 22.0688 1.24565L22.0736 1.2409C22.0452 1.22197 22.0136 1.20619 21.982 1.19042L21.9868 1.1525L22.0121 1.11771L21.9734 1.05217L21.9283 1.11146L21.9788 1.17936C21.9788 1.18411 21.9772 1.18568 21.9749 1.18806L21.9267 1.16519C21.8983 1.16521 21.8682 1.16682 21.8398 1.17158L21.8525 1.12101L21.7987 1.13686L21.8026 1.17557C21.7813 1.17796 21.76 1.18035 21.7394 1.18194C21.7165 1.18591 21.6928 1.19068 21.6691 1.19544C21.6778 1.19622 21.6873 1.19621 21.6952 1.19778L21.7267 1.24674C21.6706 1.30288 21.5568 1.34564 21.5371 1.25639C21.5474 1.22714 21.5719 1.21211 21.5996 1.2034C21.5514 1.19001 21.5048 1.18452 21.4503 1.2059C21.4526 1.22249 21.4502 1.23434 21.4455 1.24382C21.421 1.2399 21.3831 1.23519 21.3752 1.23361C21.3625 1.23205 21.3404 1.23048 21.3183 1.22892C21.3293 1.26052 21.3317 1.30081 21.3016 1.31663L21.3143 1.34664L21.3641 1.31105L21.3451 1.2921L21.3965 1.28337L21.3625 1.32211C21.3735 1.35844 21.4098 1.37421 21.3924 1.42479C21.3513 1.45643 21.3836 1.51881 21.3307 1.52439C21.2769 1.6066 21.2944 1.47544 21.2446 1.49681L21.2794 1.4715C21.507 1.32909 21.2708 1.34747 21.2708 1.39488L21.2566 1.37119C21.2826 1.36405 21.3072 1.31584 21.2819 1.30322L21.2187 1.32856C21.2329 1.35225 21.202 1.39257 21.187 1.41707C21.1364 1.42501 21.119 1.48981 21.0692 1.51119L21.07 1.52462L21.0202 1.54599C21.0526 1.52779 21.0352 1.48831 21.0155 1.45593C21.0582 1.41797 21.1008 1.47008 21.1388 1.4179C21.1096 1.36183 21.0962 1.3658 21.0432 1.38085L21.0923 1.33183L21.1507 1.33968C21.1397 1.25594 21.2132 1.28669 21.2543 1.26927L21.289 1.29136L21.3278 1.26684L21.3041 1.23368L21.3057 1.22736C21.3001 1.22815 21.2922 1.22657 21.2875 1.22658C21.2709 1.22896 21.2164 1.25983 21.1982 1.26379C21.1682 1.27014 21.1366 1.2591 21.1073 1.2694C21.0931 1.27415 21.033 1.31055 21.0196 1.31451C21.0077 1.32163 20.9492 1.35644 20.935 1.36594C20.9184 1.37306 20.856 1.37865 20.8426 1.38261C20.8275 1.38341 20.7659 1.39769 20.7485 1.4056C20.7185 1.42143 20.6979 1.45147 20.6687 1.46651C20.6465 1.47917 20.6015 1.48632 20.5778 1.50056C20.5509 1.51796 20.528 1.55037 20.5035 1.57015C20.4766 1.58755 20.4584 1.6247 20.4339 1.64447C20.4086 1.66504 20.3714 1.66902 20.3461 1.68958C20.3208 1.71015 20.3074 1.74729 20.2813 1.76864C20.2552 1.79 20.222 1.79951 20.1959 1.82086C20.1991 1.8177 20.2584 1.73943 20.2584 1.73943C20.2584 1.73943 20.1746 1.79007 20.1714 1.79323C20.1533 1.80668 20.1232 1.86517 20.1137 1.8794L20.0567 1.96477C20.0488 1.97742 20.0164 2.03354 20.0093 2.0454C19.9966 2.05805 19.9484 2.09207 19.9389 2.10155C19.9342 2.1063 19.8701 2.15613 19.8678 2.1585C19.8535 2.18695 19.8361 2.21383 19.8226 2.23676C19.8124 2.25651 19.7799 2.30316 19.7775 2.31501C19.7775 2.31975 19.7934 2.30393 19.8123 2.2897C19.8313 2.27546 19.8503 2.26122 19.8503 2.26122C19.8526 2.26359 19.8384 2.28256 19.8265 2.3039L19.6518 2.42652C19.5989 2.47001 19.6044 2.49766 19.6225 2.52214C19.6201 2.52451 19.6201 2.52925 19.6178 2.53162C19.6091 2.54032 19.5522 2.58303 19.5474 2.58778C19.5403 2.59015 19.5925 2.50952 19.5925 2.50952C19.5925 2.50952 19.5735 2.52376 19.5546 2.538C19.5356 2.55223 19.5198 2.56805 19.5198 2.56331C19.5206 2.55304 19.5538 2.50087 19.5649 2.48506C19.5712 2.47399 19.61 2.4068 19.61 2.4068C19.6052 2.40207 19.5459 2.46137 19.5396 2.46296L19.4518 2.62183L19.4067 2.70009L19.3616 2.77834C19.3584 2.78624 19.3521 2.79731 19.3465 2.80759C19.3236 2.80208 19.3031 2.79893 19.2841 2.79421C19.2825 2.82423 19.2857 2.85425 19.2872 2.88111C19.2706 2.89298 19.2524 2.90642 19.2445 2.91433C19.2263 2.93726 19.2176 2.96966 19.1994 2.99259C19.1733 3.01394 19.1552 3.02739 19.1283 3.04953C19.1156 3.06218 19.069 3.08988 19.0571 3.10648C19.0421 3.12624 19.0286 3.16813 19.012 3.18473C18.9978 3.19897 18.9519 3.23061 18.9417 3.24089C18.9274 3.25038 18.8768 3.29625 18.8681 3.29546C18.8626 3.29626 18.9164 3.21879 18.9132 3.21721C18.9085 3.21247 18.8492 3.27178 18.8405 3.271C18.8192 3.29235 18.7883 3.30423 18.767 3.32558C18.7607 3.33664 18.7274 3.39829 18.7219 3.40383C18.7258 3.39988 18.7915 3.34847 18.7954 3.34925C18.7954 3.34925 18.7456 3.43225 18.7503 3.42751C18.7606 3.42197 18.8056 3.38638 18.8215 3.37056L18.895 3.31598C18.8736 3.34207 18.8712 3.36815 18.8499 3.39424C18.8372 3.41163 18.7922 3.433 18.7764 3.44881C18.7597 3.46542 18.7487 3.50967 18.7313 3.52707C18.7202 3.53814 18.6696 3.57453 18.6577 3.58165C18.6435 3.59114 18.5929 3.63701 18.585 3.63543C18.5811 3.63465 18.5937 3.61726 18.6048 3.5967C18.6182 3.57852 18.6277 3.55481 18.6277 3.55481C18.6277 3.55481 18.5613 3.60701 18.5542 3.60939C18.5439 3.61967 18.517 3.67974 18.5091 3.68764C18.4949 3.71136 18.4767 3.7485 18.464 3.7659C18.4577 3.7817 18.4205 3.83783 18.4189 3.84415C18.4197 3.8481 18.4355 3.83229 18.4545 3.81805C18.4711 3.80144 18.4924 3.78957 18.4924 3.78957C18.4924 3.78957 18.4529 3.86229 18.4473 3.86783C18.4402 3.87494 18.3833 3.91766 18.3746 3.92162L18.3011 3.97619C18.2805 3.99201 18.2552 4.01257 18.2283 4.02998C18.2236 4.03947 18.1904 4.09638 18.1856 4.1106C18.1769 4.1193 18.1224 4.15964 18.1121 4.16518C18.105 4.1723 18.0488 4.20948 18.0394 4.21897C18.0291 4.23399 18.0014 4.28536 17.9966 4.29959C17.9832 4.32251 17.9681 4.35176 17.9539 4.38021C17.942 4.39681 17.9238 4.44344 17.9112 4.46083C17.8922 4.48455 17.8598 4.49327 17.8376 4.51541C17.8408 4.51225 17.8804 4.43479 17.8804 4.43479C17.8804 4.43479 17.8155 4.48541 17.8068 4.48937C17.8021 4.49885 17.7689 4.56051 17.7641 4.56999C17.757 4.58185 17.7309 4.63638 17.7214 4.65061C17.7032 4.67354 17.6692 4.68384 17.6486 4.7044C17.6305 4.72733 17.5957 4.73842 17.5751 4.75898C17.5585 4.77558 17.5474 4.81984 17.5324 4.8396C17.5142 4.86253 17.4802 4.87283 17.4589 4.89418C17.4431 4.90999 17.4304 4.95583 17.4161 4.9748C17.4074 4.9835 17.3529 5.02384 17.3434 5.02859C17.3308 5.0365 17.2833 5.06972 17.2699 5.08316C17.2596 5.09344 17.2335 5.15272 17.2271 5.16379C17.22 5.17564 17.1939 5.23018 17.1844 5.24441C17.1662 5.26734 17.1315 5.27843 17.1109 5.29899C17.1109 5.29899 17.0745 5.36854 17.0682 5.37961C17.065 5.38277 17.0041 5.42944 16.9946 5.43419C16.9788 5.45474 16.9638 5.49347 16.9519 5.51481C16.9329 5.53853 16.9218 5.5733 16.9092 5.59543C16.902 5.60729 16.8759 5.66182 16.8664 5.67605C16.8514 5.69582 16.8095 5.71403 16.7929 5.73063C16.7961 5.72273 16.8349 5.6508 16.8356 5.65001C16.8356 5.65001 16.7692 5.70221 16.7621 5.70459C16.7518 5.71487 16.7249 5.77493 16.7194 5.78521C16.7059 5.80813 16.6909 5.83738 16.6767 5.86583C16.6648 5.88243 16.6466 5.92906 16.6339 5.94645C16.6149 5.97017 16.5818 5.97968 16.5612 6.00024C16.5375 6.02396 16.5114 6.0311 16.4885 6.05403C16.4908 6.0564 16.4798 6.07221 16.4703 6.09118C16.4608 6.11015 16.4473 6.12833 16.4457 6.13465C16.4418 6.1386 16.4077 6.20579 16.403 6.21527C16.3896 6.22872 16.3413 6.25799 16.3295 6.26985C16.3121 6.29199 16.297 6.33071 16.2867 6.35047L16.1989 6.50935C16.191 6.50778 16.1285 6.57025 16.1262 6.56314C16.123 6.55682 16.0582 6.62166 16.0527 6.61771C16.0479 6.61298 16.0962 6.54578 16.0954 6.53709C16.0946 6.5284 16.1436 6.46041 16.1381 6.45647C16.1381 6.45647 16.0757 6.50472 16.0654 6.51026C16.0622 6.51342 16.0266 6.58218 16.0227 6.59088C16.0037 6.6146 15.9705 6.62411 15.9491 6.64546C15.9302 6.66917 15.9246 6.70315 15.9064 6.72608C15.8874 6.7498 15.8542 6.75931 15.8329 6.78066L15.689 6.89139C15.6755 6.91905 15.6589 6.94514 15.6463 6.97201C15.6399 6.98308 15.6035 7.05264 15.6035 7.05264C15.6083 7.05737 15.6739 6.99174 15.6763 6.99885C15.6786 7.00595 15.7427 6.94191 15.7498 6.94427C15.7506 6.94348 15.7411 6.96245 15.7316 6.98142C15.7213 7.00118 15.7086 7.01857 15.707 7.02489L15.6667 7.1221L15.5931 7.17668C15.575 7.19013 15.5402 7.2107 15.5204 7.23047C15.5093 7.24154 15.488 7.29607 15.4777 7.31109C15.4634 7.32532 15.42 7.35459 15.4042 7.36567C15.3789 7.38623 15.3528 7.40284 15.3306 7.42024C15.3172 7.42895 15.2721 7.4598 15.2579 7.47403C15.2492 7.48273 15.2191 7.54596 15.2152 7.55465C15.2049 7.57441 15.1867 7.61156 15.1724 7.63528C15.1645 7.64792 15.1116 7.6772 15.0997 7.68906C15.0831 7.70567 15.072 7.74992 15.057 7.76969C15.0427 7.78392 14.9937 7.80924 14.9835 7.82426C14.9668 7.84561 14.9502 7.88592 14.9407 7.90489C14.9265 7.9286 14.913 7.95626 14.898 7.98551C14.8861 8.00685 14.8727 8.044 14.8553 8.06613C14.841 8.08511 14.7999 8.10252 14.7817 8.12071C14.7635 8.14364 14.7572 8.1784 14.739 8.20133C14.7224 8.2132 14.6813 8.24483 14.6655 8.25591C14.6497 8.26224 14.6117 8.29546 14.5927 8.3097C14.5817 8.31603 14.5192 8.36427 14.5192 8.36427C14.52 8.36348 14.5612 8.28918 14.562 8.28365C14.543 8.29789 14.5114 8.32004 14.4884 8.33823C14.4766 8.34535 14.4268 8.38095 14.4149 8.39281C14.3999 8.40783 14.3833 8.45762 14.3722 8.47343C14.3777 8.46789 14.4338 8.42597 14.4457 8.41885L14.403 8.49947L14.3602 8.5801C14.3531 8.59195 14.3278 8.6457 14.3175 8.66072C14.308 8.67021 14.255 8.70897 14.2448 8.71451C14.2226 8.73191 14.1989 8.75089 14.1712 8.76908C14.1515 8.78411 14.1175 8.80389 14.0977 8.82366C14.0811 8.84027 14.07 8.88452 14.055 8.90428C14.036 8.928 14.0036 8.93672 13.9823 8.95807C13.9728 8.96756 13.9451 9.02842 13.9395 9.03869C13.9261 9.06162 13.911 9.09086 13.8968 9.11932C13.8849 9.13592 13.8667 9.18255 13.8541 9.19994C13.8351 9.22366 13.8027 9.23237 13.7813 9.25372C13.7679 9.26717 13.7205 9.30039 13.7078 9.3083C13.6952 9.31621 13.6485 9.34865 13.6351 9.36209C13.6264 9.37079 13.5971 9.43323 13.5923 9.44271C13.586 9.45378 13.5607 9.51226 13.5496 9.52333C13.5385 9.5344 13.4879 9.57079 13.4769 9.57712C13.4698 9.58424 13.4121 9.623 13.4034 9.6317C13.3915 9.6483 13.3693 9.69888 13.3606 9.71232C13.3535 9.72418 13.3297 9.78108 13.3179 9.79294C13.3029 9.81271 13.2586 9.82855 13.2452 9.84673C13.223 9.87361 13.2238 9.90126 13.2024 9.92735C13.1882 9.94633 13.1471 9.96374 13.1297 9.98114C13.1162 9.99458 13.0957 10.0483 13.087 10.0618C13.0885 10.0602 13.1589 10.0088 13.1597 10.008C13.1605 10.0072 13.151 10.0262 13.1415 10.0451C13.1312 10.0649 13.1209 10.0846 13.117 10.0886L13.0742 10.1692C13.0647 10.1692 13.0062 10.2277 13.0007 10.2238C13.0007 10.2238 13.0126 10.2025 13.0236 10.1819C13.0347 10.1614 13.0482 10.1432 13.0434 10.1432C13.0308 10.1463 12.9881 10.1843 12.9699 10.1978L12.8964 10.2523C12.8822 10.2618 12.8395 10.2903 12.8237 10.3061C12.8189 10.3156 12.7849 10.378 12.7809 10.3867L12.7382 10.4674C12.7271 10.4879 12.7105 10.5235 12.6955 10.548C12.6875 10.5606 12.6346 10.5899 12.6219 10.6026C12.6045 10.6247 12.5982 10.6642 12.5792 10.6832C12.5586 10.7085 12.5286 10.7148 12.5057 10.7378C12.4891 10.7544 12.478 10.7986 12.4629 10.8184C12.444 10.8421 12.4084 10.8492 12.3894 10.873C12.391 10.8666 12.4322 10.7923 12.4322 10.7923C12.4322 10.7923 12.3626 10.843 12.3586 10.8469C12.3397 10.8706 12.3349 10.9038 12.3159 10.9275C12.2977 10.9505 12.2614 10.9584 12.2424 10.9821C12.2234 11.0058 12.2178 11.0398 12.1996 11.0627C12.1807 11.0865 12.1483 11.0952 12.1261 11.1173C12.1071 11.1363 12.1008 11.1758 12.0834 11.1979C12.0699 11.2114 12.0194 11.2383 12.0107 11.2517C11.9933 11.2739 11.9782 11.3126 11.9679 11.3323L11.9299 11.4224C11.9212 11.4406 11.9022 11.4833 11.8872 11.5031C11.8761 11.5189 11.8295 11.5418 11.8145 11.5569C11.7994 11.5766 11.7883 11.6209 11.7717 11.6375C11.7472 11.662 11.7227 11.6675 11.6982 11.6921C11.7006 11.6897 11.7409 11.6114 11.7409 11.6114C11.7409 11.6114 11.6714 11.6621 11.6682 11.6652C11.6563 11.6818 11.6334 11.7332 11.6255 11.7458C11.612 11.7688 11.5978 11.7972 11.5827 11.8265C11.5717 11.8423 11.555 11.8921 11.54 11.9071C11.5274 11.9197 11.4799 11.953 11.4673 11.9609C11.4586 11.9696 11.3938 12.0155 11.3938 12.0155C11.389 12.0107 11.4373 11.9435 11.4365 11.9348C11.4357 11.9261 11.4847 11.8582 11.4792 11.8542C11.4792 11.8542 11.4104 11.904 11.4065 11.908C11.3962 11.9183 11.3693 11.9783 11.3638 11.9886C11.3495 12.0123 11.3361 12.04 11.321 12.0692C11.3092 12.0906 11.2957 12.1277 11.2783 12.1499C11.264 12.1688 11.2206 12.1839 11.2056 12.2037C11.1929 12.221 11.1739 12.2685 11.1628 12.2843L11.2356 12.2305C11.2356 12.2305 11.1984 12.3008 11.1928 12.3111C11.1889 12.3151 11.1296 12.3601 11.1201 12.3649C11.1035 12.3815 11.0948 12.4281 11.0774 12.4455C11.0655 12.4574 11.0157 12.493 11.0046 12.4993C11.007 12.4969 11.0466 12.4195 11.0474 12.4187C11.0474 12.4187 11.0315 12.4298 11.0142 12.4424C10.9968 12.4551 10.9778 12.4693 10.9746 12.4725C10.9636 12.4788 10.9122 12.516 10.9019 12.5263C10.89 12.5381 10.8655 12.5958 10.8592 12.6069L10.8164 12.6875C10.8038 12.7096 10.7879 12.7397 10.7737 12.7681C10.7666 12.7752 10.7128 12.8148 10.701 12.8219C10.6923 12.8306 10.663 12.893 10.6582 12.9025L10.6155 12.9832L10.4692 13.0915L10.512 13.0109C10.5223 12.9911 10.5373 12.9524 10.5547 12.9303C10.5634 12.9168 10.6148 12.8891 10.6274 12.8765C10.6456 12.8536 10.652 12.8188 10.6702 12.7959L10.5239 12.9042L10.4812 12.9849L10.4385 13.0655C10.425 13.0884 10.41 13.1176 10.3957 13.1461C10.3894 13.1524 10.3341 13.1936 10.323 13.1999C10.3103 13.2173 10.2913 13.2647 10.2803 13.2805C10.2652 13.3098 10.251 13.3382 10.2375 13.3611C10.2312 13.3722 10.2067 13.4299 10.1948 13.4418C10.1845 13.452 10.1323 13.49 10.1213 13.4963C10.1165 13.5011 10.0501 13.5485 10.0477 13.5509C10.0327 13.5802 10.0185 13.6086 10.005 13.6315C9.99314 13.6576 9.97257 13.6924 9.96228 13.7122C9.95595 13.728 9.91876 13.7841 9.91955 13.7928C9.92112 13.8007 9.98754 13.7343 9.99307 13.7382C9.9978 13.7429 9.94955 13.8101 9.95033 13.8188C9.93453 13.8252 9.89104 13.8686 9.87681 13.8734C9.86338 13.8774 9.81356 13.9272 9.80329 13.928C9.7946 13.9272 9.85076 13.8521 9.84602 13.8474C9.84366 13.845 9.82942 13.8592 9.81282 13.8711C9.79543 13.8837 9.77725 13.8972 9.77329 13.9011C9.7559 13.9138 9.72191 13.9383 9.69977 13.9557L9.55352 14.0641L9.51078 14.1447C9.50445 14.1558 9.47912 14.2143 9.46805 14.2253C9.45698 14.2364 9.40638 14.2728 9.39453 14.2799C9.38978 14.2846 9.32496 14.3305 9.3218 14.3337C9.30597 14.359 9.29014 14.3938 9.27906 14.4143C9.26719 14.4357 9.24108 14.4807 9.23633 14.4949C9.23474 14.5013 9.3059 14.4396 9.30985 14.4404C9.31301 14.4419 9.27187 14.5115 9.26712 14.521L9.22439 14.6016C9.20146 14.6198 9.17458 14.6372 9.15086 14.6562C9.1398 14.6625 9.07813 14.71 9.07813 14.71C9.07892 14.7092 9.1177 14.6325 9.12086 14.6293C9.10822 14.6373 9.06237 14.6689 9.04734 14.6839C9.03074 14.7005 9.022 14.7471 9.00461 14.7645C8.99354 14.7756 8.93821 14.8073 8.93109 14.8191C8.91447 14.8452 8.90022 14.8784 8.88835 14.8997C8.87806 14.9195 8.84879 14.9677 8.84562 14.9804C8.84562 14.9851 8.86143 14.9693 8.8804 14.9551C8.89938 14.9408 8.91835 14.9266 8.91835 14.9266C8.92309 14.9313 8.87484 14.9985 8.87562 15.0072C8.8519 15.0262 8.82661 15.042 8.8021 15.0618C8.77838 15.0808 8.75229 15.0974 8.72936 15.1156L8.65584 15.1701C8.6345 15.1868 8.59971 15.2121 8.58232 15.2247C8.56809 15.2342 8.51828 15.2793 8.5088 15.2793C8.50011 15.2785 8.5539 15.201 8.55153 15.1987C8.55153 15.1987 8.53493 15.2105 8.51833 15.2224C8.50094 15.2351 8.48275 15.2485 8.4788 15.2525C8.47564 15.2556 8.43765 15.3315 8.43607 15.3331C8.43685 15.3418 8.3886 15.409 8.39333 15.4137C8.39807 15.4184 8.46291 15.3536 8.46686 15.3591C8.47001 15.3654 8.42334 15.4311 8.42412 15.4398C8.4257 15.4477 8.49212 15.3812 8.49685 15.386C8.50159 15.3907 8.45334 15.4579 8.45412 15.4666L8.30787 15.575L8.23434 15.6295C8.22249 15.6367 8.17111 15.6691 8.16161 15.6833C8.15133 15.6936 8.12442 15.7537 8.11888 15.7639C8.10701 15.79 8.08643 15.8248 8.07615 15.8446C8.06902 15.8612 8.03184 15.9173 8.03341 15.9252C8.02077 15.9284 7.97807 15.9663 7.95989 15.9798C7.93696 15.998 7.91167 16.0138 7.88637 16.0343C7.88399 16.0415 7.84917 16.1047 7.84363 16.115C7.83177 16.1268 7.78039 16.1593 7.77011 16.1695C7.75588 16.179 7.71241 16.2083 7.69659 16.2241C7.68789 16.2328 7.65861 16.2953 7.65386 16.3047L7.61112 16.3854C7.60163 16.4043 7.58421 16.4454 7.56839 16.466C7.56365 16.4707 7.50119 16.5142 7.49566 16.5198C7.48459 16.5261 7.43163 16.5601 7.42214 16.5744C7.41186 16.5846 7.38494 16.6447 7.3794 16.655C7.36595 16.6779 7.35171 16.7064 7.33667 16.7356C7.3256 16.7514 7.30896 16.8012 7.29394 16.8162C7.27496 16.8399 7.2394 16.8471 7.22042 16.8708C7.20934 16.8819 7.15638 16.9159 7.14768 16.9246C7.13425 16.9333 7.08919 16.9641 7.07416 16.9792C7.06625 16.9871 7.03854 17.0527 7.03143 17.0598C7.02431 17.0716 7.00056 17.1285 6.98869 17.1404C6.97762 17.1515 6.92387 17.1863 6.91517 17.195C6.91755 17.1926 6.95712 17.1152 6.95791 17.1144C6.95791 17.1144 6.88913 17.1642 6.88517 17.1681C6.8741 17.1792 6.84877 17.2377 6.84244 17.2488C6.83057 17.2701 6.8179 17.3065 6.79971 17.3294C6.79417 17.3397 6.73726 17.3729 6.72698 17.3832C6.71828 17.3919 6.68899 17.4543 6.68424 17.4638C6.67712 17.4757 6.65416 17.5318 6.64151 17.5444C6.62569 17.565 6.58697 17.58 6.56799 17.599C6.55138 17.6156 6.54265 17.6622 6.52525 17.6796C6.50785 17.7018 6.4715 17.7144 6.45173 17.7342C6.42801 17.7579 6.40035 17.7619 6.37821 17.7888C6.3616 17.8054 6.35287 17.852 6.33548 17.8694C6.31649 17.8931 6.28094 17.9003 6.26195 17.924C6.25167 17.9343 6.22476 17.9943 6.22159 18.007C6.21526 18.018 6.18993 18.0765 6.17886 18.0876C6.16779 18.0987 6.11482 18.1327 6.10533 18.1422C6.0998 18.1477 6.03735 18.1912 6.0326 18.196C6.01678 18.2165 6.00094 18.2608 5.99224 18.2789L5.90914 18.4426C5.89096 18.4513 5.853 18.4892 5.83562 18.4971C5.82534 18.5027 5.76762 18.5557 5.76209 18.5517C5.75736 18.547 5.80561 18.4798 5.80246 18.4687C5.80168 18.46 5.85072 18.392 5.84282 18.3857C5.83809 18.381 5.77958 18.4348 5.77009 18.4395C5.77247 18.4372 5.76139 18.4577 5.75031 18.4783C5.73923 18.4988 5.72736 18.5201 5.72736 18.5201C5.70601 18.5415 5.67282 18.551 5.65384 18.5747C5.63565 18.5977 5.62929 18.6324 5.61347 18.6577C5.59212 18.6838 5.59209 18.7122 5.57311 18.7407C5.55887 18.7597 5.5154 18.7747 5.49958 18.7953C5.4806 18.819 5.47583 18.8522 5.45922 18.8783C5.44419 18.898 5.40231 18.9115 5.3857 18.9328C5.38013 18.9763 5.37694 19.0127 5.35559 19.034C5.3374 19.0569 5.30105 19.0649 5.28206 19.0886C5.27337 19.0973 5.24645 19.1621 5.2417 19.1716C5.22904 19.1937 5.2053 19.2364 5.20133 19.2546C5.20292 19.253 5.26932 19.2055 5.27486 19.2C5.2796 19.1952 5.29778 19.1818 5.31439 19.1699C5.33178 19.1573 5.34759 19.1462 5.34759 19.1462C5.35232 19.1509 5.30407 19.2181 5.30722 19.2292L5.2337 19.2838L5.16018 19.3383C5.13646 19.3573 5.11116 19.3731 5.08666 19.3929C5.0748 19.4 5.02263 19.4333 5.01313 19.4475C4.99415 19.4712 4.99175 19.5068 4.97277 19.5305C4.97672 19.5265 5.04629 19.4759 5.04629 19.4759C5.04629 19.4759 5.01147 19.5486 5.00593 19.5589C5.00118 19.5636 4.9411 19.6048 4.9324 19.6135C4.92371 19.6222 4.89679 19.687 4.89204 19.6965C4.88412 19.7139 4.8667 19.7597 4.85167 19.7795C4.83981 19.7961 4.7916 19.8159 4.77815 19.834C4.75996 19.857 4.75598 19.8941 4.73779 19.917C4.71959 19.94 4.71561 19.9771 4.69742 20C4.68635 20.0111 4.63023 20.0435 4.6239 20.0546C4.60728 20.0807 4.59303 20.1139 4.58353 20.1376L4.54792 20.2064C4.51314 20.2269 4.49809 20.2704 4.49885 20.3075C4.47751 20.3194 4.46327 20.3431 4.44981 20.3708C4.44823 20.3723 4.44269 20.3779 4.434 20.3818C4.42294 20.3787 4.41504 20.3771 4.40794 20.3748L4.40791 20.3985C4.39289 20.4087 4.37787 20.419 4.37392 20.423C4.37155 20.4253 4.37075 20.4309 4.36759 20.434L4.30436 20.4594C4.30672 20.476 4.32014 20.491 4.33356 20.5012C4.33277 20.502 4.33119 20.5036 4.3304 20.5044C4.31695 20.5273 4.30586 20.5526 4.29558 20.5724C4.28531 20.5684 4.2782 20.5661 4.2703 20.5597L4.21732 20.6127C4.21651 20.6467 4.2228 20.6783 4.22751 20.7115C4.22197 20.7265 4.21405 20.7391 4.20693 20.751C4.20614 20.7518 4.21642 20.7462 4.2267 20.736L4.23458 20.7565L4.20216 20.7937L4.16348 20.7566C4.07974 20.7456 4.06469 20.7938 4.05517 20.8412C4.052 20.8444 4.04805 20.8483 4.04726 20.8491C4.0354 20.8562 3.9848 20.9021 3.9753 20.9163C3.96346 20.914 3.95477 20.9132 3.94055 20.9084C3.93737 20.9353 3.94446 20.9519 3.95709 20.9677C3.94917 20.9898 3.9452 21.0127 3.94599 21.0119C3.94915 21.0135 3.96022 20.9977 3.97288 20.9803C3.97841 20.9843 3.98709 20.9898 3.9942 20.9921C3.99023 21.0103 3.9839 21.0261 3.9831 21.0317C3.98864 21.0214 3.99892 21.0111 4.0092 21.0008L4.04237 21.015C4.02417 21.0474 4.00913 21.0814 3.99093 21.1138L3.96883 21.0886C3.97201 21.0664 3.97677 21.0427 3.98152 21.0332C3.97361 21.0459 3.96175 21.0577 3.95305 21.0712L3.92384 21.0388C3.8914 21.0949 3.79579 21.1148 3.86444 21.2072L3.86443 21.2166L3.70557 21.295C3.7324 21.325 3.72367 21.3669 3.69203 21.4127C3.73311 21.4237 3.7466 21.3487 3.72764 21.3439L3.79719 21.317L3.81925 21.3897C3.81054 21.4126 3.80262 21.4347 3.79312 21.4537L3.71564 21.517L3.60189 21.4981C3.67923 21.596 3.55437 21.6309 3.49585 21.7036L3.54398 21.7739L3.46812 21.7882L3.47676 21.8458C3.48549 21.804 3.52652 21.8577 3.52493 21.8687L3.4341 21.8459L3.40082 21.9597L3.43083 21.9676L3.41892 22.0316C3.38573 22.0458 3.32646 22.0625 3.35881 22.1154L3.4607 22.1413C3.39666 22.1912 3.33817 22.2212 3.2655 22.2134C3.22195 22.3233 3.35315 22.2584 3.36099 22.3263C3.33252 22.3642 3.26302 22.3343 3.25111 22.3983L3.36486 22.4172L3.37285 22.3192L3.45337 22.395L3.34349 22.4669L3.25265 22.4441C3.23525 22.471 3.19333 22.5271 3.21461 22.5769L3.16079 22.697C3.14651 22.7586 3.23025 22.7696 3.25475 22.7546L3.2871 22.8075L3.20018 22.8186C3.18273 22.9024 3.17082 22.9664 3.20158 23.0304C3.25759 23.1212 3.13669 23.1474 3.16745 23.2113L3.28279 23.2191C3.31354 23.2831 3.30323 23.336 3.2613 23.3922C3.31894 23.4292 3.34811 23.5043 3.3694 23.554C3.43979 23.46 3.43681 23.2593 3.52532 23.2371C3.54978 23.2647 3.60424 23.3239 3.64617 23.2678L3.66273 23.2938C3.68243 23.3547 3.64051 23.4108 3.58679 23.4077L3.62465 23.4835C3.60723 23.5246 3.55743 23.5554 3.51403 23.4994L3.56849 23.5586L3.51551 23.6116L3.43499 23.5358L3.41435 23.6417L3.51074 23.6448L3.47354 23.7246L3.53118 23.7617L3.60083 23.6115L3.67266 23.6865C3.85282 23.6532 3.73496 23.8231 3.80204 23.9029C3.84002 23.8317 3.90406 23.7866 3.94678 23.7202C3.96569 23.7818 3.96165 23.8759 3.94263 23.947C3.97659 23.9556 4.01056 23.9643 4.04452 23.973C4.09275 23.9389 4.13769 24.0408 4.19226 23.9768L4.19866 23.8899C4.08332 23.8821 3.96877 23.864 4.08738 23.7501C4.13873 23.7509 4.08416 23.8149 4.13393 23.8267C4.19796 23.7769 4.10872 23.743 4.14746 23.709L4.19404 23.7429C4.1932 23.8101 4.25322 23.8258 4.31723 23.8187L4.30299 23.8376L4.30924 23.9166L4.29341 23.9467L4.33682 24.0027L4.36609 23.9545L4.314 23.8977C4.30854 23.8179 4.40964 23.8446 4.43965 23.8525L4.43009 23.9473L4.47434 23.9362L4.44677 23.8501C4.55502 23.8319 4.65527 23.9258 4.75801 23.8846C4.73044 23.7985 4.83313 23.8143 4.90501 23.8324C4.96276 23.7462 5.15157 23.761 5.18089 23.6559L5.10746 23.6062C5.17786 23.5122 5.32787 23.6179 5.39977 23.6123C5.31856 23.4235 5.23626 23.5816 5.11937 23.5422L5.16609 23.4102L5.18346 23.426C5.20316 23.4868 5.26324 23.4457 5.30908 23.4236C5.31295 23.5144 5.40379 23.5372 5.45673 23.5269L5.45758 23.4598L5.47023 23.4519C5.46636 23.361 5.30671 23.4212 5.25626 23.2964C5.33445 23.3271 5.38584 23.2852 5.44984 23.2781C5.43153 23.429 5.58567 23.3459 5.66152 23.3316C5.728 23.2036 5.93419 23.22 5.92015 23.0161L6.09329 22.8809C6.16603 22.8081 6.06493 22.7861 6.04996 22.7348C6.05312 22.7316 6.05708 22.7277 6.06103 22.7284C6.06419 22.7253 6.06894 22.7158 6.07369 22.7063C6.10211 22.7252 6.11556 22.7071 6.16532 22.7189C6.19221 22.692 6.22148 22.6438 6.17172 22.632C6.14722 22.6423 6.12986 22.6122 6.11488 22.5846C6.1299 22.5743 6.14333 22.5656 6.14966 22.564C6.15203 22.5617 6.15914 22.5593 6.16547 22.553C6.22867 22.5513 6.29819 22.5623 6.35111 22.5757C6.3409 22.5101 6.3204 22.4596 6.31334 22.4004C6.32362 22.3948 6.33389 22.3893 6.34417 22.379C6.35445 22.3687 6.36237 22.3466 6.37108 22.3284C6.41215 22.3347 6.45561 22.3339 6.48015 22.2714C6.47779 22.2596 6.47069 22.2525 6.46279 22.2462C6.48651 22.2272 6.51813 22.2098 6.53789 22.1947C6.54817 22.1892 6.60192 22.1544 6.61299 22.1433C6.62564 22.1307 6.6494 22.0738 6.65652 22.0619C6.66364 22.0501 6.68818 21.9924 6.70004 21.9805C6.71032 21.9702 6.7696 21.9394 6.77514 21.9291C6.79255 21.9022 6.80521 21.8706 6.81866 21.8477L6.90571 21.6848C6.90887 21.6864 6.9824 21.6271 6.98081 21.6334C6.97764 21.6461 6.94758 21.6951 6.93729 21.7148C6.93096 21.7259 6.89376 21.7962 6.89376 21.7962C6.89376 21.7962 6.9578 21.7512 6.96886 21.7448L7.04396 21.6934L7.08749 21.612L7.13101 21.5306C7.14209 21.51 7.15634 21.4721 7.17454 21.4492C7.18087 21.4381 7.23856 21.4088 7.24963 21.3978C7.26624 21.3811 7.27576 21.3337 7.29316 21.3163C7.31214 21.2974 7.35244 21.2855 7.36826 21.2649C7.38091 21.2475 7.40229 21.1977 7.41178 21.1835C7.4189 21.1716 7.44345 21.114 7.45531 21.1021C7.47666 21.0807 7.50827 21.0728 7.53041 21.0507C7.54385 21.0372 7.59286 21.0072 7.60471 21C7.61815 20.9913 7.66479 20.9636 7.67981 20.9486C7.68851 20.9399 7.71859 20.8767 7.72334 20.8672C7.72966 20.8609 7.75657 20.8056 7.76844 20.7937C7.77951 20.7826 7.83247 20.7486 7.84353 20.7423C7.84116 20.7447 7.8008 20.8229 7.80001 20.8237C7.8008 20.8229 7.86878 20.7786 7.87511 20.7723C7.87907 20.7636 7.91547 20.6988 7.91863 20.6909L8.00568 20.528C8.01279 20.5304 8.07763 20.4703 8.08078 20.4766C8.08236 20.4845 8.0349 20.5462 8.03726 20.558C8.03883 20.5659 8.10762 20.5019 8.11236 20.5066C8.11236 20.5066 8.06251 20.5896 8.06883 20.588C8.07674 20.5849 8.13286 20.5477 8.14393 20.5366C8.16054 20.52 8.17243 20.475 8.18746 20.4552C8.20644 20.4315 8.24121 20.4251 8.26256 20.4038L8.30608 20.3224C8.31874 20.3002 8.34485 20.2599 8.34961 20.2409C8.34881 20.2417 8.36778 20.2322 8.38518 20.2196C8.40257 20.2069 8.42075 20.1935 8.42471 20.1895C8.43656 20.1824 8.48636 20.1516 8.49901 20.1389C8.5085 20.1294 8.537 20.0678 8.54254 20.0575L8.58527 19.9769L8.62879 19.8955L8.71584 19.7326C8.73402 19.7239 8.77435 19.6883 8.79094 19.6812C8.80359 19.678 8.86131 19.6251 8.86604 19.6298C8.87078 19.6345 8.82174 19.7025 8.82252 19.7112C8.82251 19.7207 8.77347 19.7887 8.7782 19.7934C8.7782 19.7934 8.8454 19.7499 8.8533 19.742C8.86279 19.7325 8.88497 19.6724 8.89683 19.6606C8.91185 19.6455 8.96006 19.6258 8.97193 19.6092C8.98854 19.5878 9.00516 19.5475 9.01545 19.5277C9.02257 19.5159 9.04711 19.4582 9.05897 19.4463C9.07716 19.4281 9.11905 19.4147 9.13407 19.3949C9.15622 19.368 9.15624 19.3396 9.1776 19.3135C9.19184 19.2945 9.2353 19.2795 9.2527 19.2621C9.27089 19.2391 9.27803 19.2036 9.29622 19.1807C9.30967 19.1625 9.35393 19.1466 9.37053 19.13C9.37923 19.1213 9.40931 19.0581 9.41405 19.0486C9.41959 19.0383 9.4473 18.9775 9.45758 18.9672C9.46944 18.9553 9.52082 18.9229 9.53268 18.9158C9.53821 18.9103 9.60067 18.8667 9.60778 18.8644C9.62439 18.843 9.6418 18.8019 9.6513 18.783L9.69483 18.7015L9.73835 18.6201L9.8254 18.4573C9.84516 18.447 9.88232 18.4146 9.9005 18.4059C9.89892 18.4075 9.85935 18.4802 9.85697 18.4873C9.85064 18.4984 9.81345 18.5687 9.81345 18.5687C9.81345 18.5687 9.87748 18.5236 9.88855 18.5173C9.90673 18.5038 9.94072 18.4841 9.96365 18.4659C9.96523 18.4596 10.004 18.3924 10.0072 18.3845C10.0175 18.3647 10.0341 18.3244 10.0507 18.303C10.0586 18.2904 10.1139 18.2635 10.1258 18.2516C10.1424 18.235 10.1543 18.19 10.1693 18.1702C10.1891 18.1504 10.2247 18.1386 10.2444 18.1188C10.2618 18.1014 10.3037 18.0785 10.3195 18.0674C10.3369 18.0547 10.3725 18.0334 10.3946 18.016C10.4057 18.0049 10.4271 17.9504 10.4381 17.9345C10.4563 17.9116 10.4919 17.9045 10.5132 17.8831C10.5243 17.8721 10.5504 17.8128 10.5568 17.8017L10.6003 17.7203C10.609 17.7069 10.6312 17.6563 10.6438 17.6389C10.6517 17.631 10.7094 17.5922 10.7181 17.5883C10.7363 17.5748 10.7711 17.5542 10.7932 17.5368C10.8043 17.5258 10.8257 17.4712 10.8367 17.4554C10.8565 17.4357 10.8921 17.4238 10.9118 17.404C10.9253 17.3906 10.9475 17.3352 10.9554 17.3226C10.9672 17.3013 10.9823 17.2673 10.9989 17.2412C11.0021 17.238 11.0131 17.2317 11.0234 17.2214C11.0654 17.1131 11.1105 17.0159 11.2187 16.9882C11.2243 16.9826 11.2322 16.9795 11.2361 16.9755C11.2527 16.9589 11.2646 16.9139 11.2797 16.8941C11.2986 16.8751 11.3366 16.8609 11.3548 16.8427C11.3682 16.8245 11.3912 16.7779 11.3983 16.7613C11.4054 16.7494 11.4323 16.6941 11.4418 16.6799C11.46 16.6569 11.4964 16.649 11.5169 16.6284C11.5145 16.6356 11.4734 16.7099 11.4734 16.7099C11.4742 16.7091 11.5398 16.6624 11.5485 16.6584C11.5556 16.6513 11.5611 16.6363 11.5691 16.6237L11.4151 16.5503C11.4957 16.5313 11.5842 16.5186 11.6711 16.5169C11.6861 16.4924 11.6924 16.4671 11.7106 16.4442C11.7249 16.4252 11.7683 16.4102 11.7857 16.3928C11.8047 16.3691 11.8103 16.3351 11.8293 16.3114C11.8451 16.2908 11.8806 16.2789 11.8996 16.2599C11.9052 16.2307 11.9202 16.1967 11.9447 16.1532L11.9637 16.1438C11.9732 16.1248 11.9835 16.105 11.9914 16.0971C12.0056 16.0781 12.0491 16.0631 12.0657 16.0465C12.0744 16.0378 12.0807 16.022 12.0871 16.0062L11.9648 15.7495C12.1071 15.702 12.2753 15.7374 12.3955 15.6883C12.405 15.6741 12.4121 15.6575 12.4184 15.6464L12.5078 15.486C12.5189 15.4796 12.53 15.4686 12.5434 15.4599C12.5799 15.3097 12.6022 15.1264 12.7136 15.086L12.6299 15.0229C12.7659 14.9438 12.8646 15.0061 12.9601 15.0716L12.9641 15.0629C12.9736 15.0486 12.9934 15.0004 13.0076 14.9815C13.0139 14.9751 13.074 14.934 13.0827 14.93C13.1001 14.9174 13.1349 14.8968 13.1578 14.8786C13.1689 14.8676 13.1902 14.813 13.2013 14.7972C13.2092 14.7893 13.2195 14.7838 13.2298 14.7782L13.2243 14.7601L13.2875 14.7395C13.3072 14.7244 13.3333 14.7126 13.3507 14.6952C13.3697 14.6714 13.3761 14.6367 13.3943 14.6138C13.4132 14.59 13.448 14.5837 13.467 14.56C13.4804 14.5465 13.4868 14.526 13.4963 14.507L13.4789 14.5007C13.4591 14.5157 13.4362 14.5292 13.4362 14.5292C13.4362 14.5292 13.4441 14.5118 13.4544 14.492L13.3162 14.4503C13.3275 14.1927 13.7842 14.1481 13.6003 13.8678C13.8904 13.6961 14.2335 13.4667 14.3405 13.1276L14.7222 12.9827L14.6442 12.7007C15.0439 12.8221 14.8941 12.4414 15.0593 12.3425L15.2931 12.4497C15.4575 12.3516 15.2731 11.7782 15.5747 11.9786C16.0071 11.7736 15.8663 11.0666 16.4556 11.093L16.5374 10.6371C16.6701 10.6132 16.8139 10.5926 16.9514 10.5925C16.9625 10.5719 16.9767 10.5482 16.9815 10.5434C16.9902 10.5253 17.0139 10.4873 17.0274 10.4644L17.0582 10.4099C17.0369 10.3885 17.0148 10.3633 17.0006 10.3301C17.1958 10.2391 17.2032 9.90963 17.3684 9.81073C17.5099 9.73555 17.5818 9.79632 17.6473 9.8729C17.6576 9.86736 17.6655 9.85945 17.675 9.8547C17.6868 9.84758 17.735 9.81357 17.7469 9.80171C17.7572 9.79143 17.7872 9.73294 17.7928 9.72266L17.8078 9.69816C17.7313 9.61843 17.6649 9.54738 17.7519 9.44618C17.8294 9.45875 17.9084 9.45552 17.9913 9.44834C17.9953 9.43965 17.9992 9.43095 18.0008 9.42937C18.0095 9.41593 18.0317 9.36535 18.0467 9.35033C18.0625 9.32977 18.1028 9.31789 18.1194 9.29654C18.1329 9.2831 18.1543 9.22857 18.1653 9.2175C18.1851 9.19773 18.2199 9.17715 18.2381 9.16371C18.2539 9.15263 18.2926 9.12811 18.3108 9.10992C18.325 9.09569 18.3417 9.0459 18.3567 9.03088C18.3757 9.00716 18.4081 8.99844 18.4294 8.97709C18.45 8.95653 18.4832 8.94702 18.5022 8.9233C18.5203 8.90038 18.5275 8.86482 18.548 8.84426C18.5433 8.849 18.4761 8.89725 18.4753 8.89804C18.4753 8.89804 18.484 8.87987 18.4943 8.8601C18.5046 8.84035 18.518 8.82216 18.5196 8.81584C18.5299 8.79608 18.5481 8.75893 18.5655 8.7368C18.5742 8.72336 18.6248 8.69645 18.6383 8.68301C18.6557 8.66561 18.6675 8.62057 18.6841 8.60396C18.7047 8.5834 18.7379 8.56915 18.7569 8.55018C18.7814 8.5304 18.8083 8.513 18.8296 8.49639L18.9023 8.4426L18.9751 8.38881C18.994 8.37458 19.0265 8.35638 19.0478 8.33503C19.0518 8.33107 19.0882 8.26152 19.0937 8.25598C19.1008 8.24413 19.1277 8.1888 19.1396 8.17694C19.1522 8.16429 19.1989 8.13185 19.2123 8.12315C19.2107 8.12473 19.1664 8.2022 19.1664 8.2022C19.1712 8.20693 19.2297 8.14842 19.2392 8.14841C19.2597 8.12785 19.2929 8.11834 19.3119 8.09462C19.3166 8.08514 19.3538 8.01953 19.3578 8.01558C19.3594 8.00926 19.289 8.07015 19.2851 8.06937C19.2819 8.06779 19.3262 7.9998 19.3309 7.99032C19.3412 7.97056 19.3745 7.92313 19.3768 7.91127C19.3768 7.90653 19.361 7.92235 19.3421 7.93659C19.3231 7.95082 19.3041 7.96506 19.3041 7.96506C19.3041 7.96506 19.3128 7.94688 19.3223 7.92791C19.3318 7.90894 19.3453 7.89076 19.3476 7.88365C19.3563 7.86547 19.3801 7.82753 19.3935 7.8046L19.4394 7.72556C19.4426 7.72714 19.5137 7.66545 19.5121 7.67177C19.5106 7.68283 19.4773 7.73501 19.4663 7.75082C19.456 7.77058 19.4227 7.81801 19.4204 7.82986C19.4188 7.83618 19.4884 7.77608 19.4931 7.77607C19.4986 7.77528 19.4448 7.85275 19.4472 7.85512C19.4519 7.85985 19.5105 7.80134 19.5199 7.80133L19.5658 7.72229L19.6117 7.64324C19.6212 7.62427 19.641 7.58554 19.6576 7.5642C19.6655 7.55155 19.7177 7.52306 19.7303 7.51041C19.7469 7.4938 19.758 7.44955 19.7762 7.43137C19.7865 7.42583 19.8434 7.38311 19.849 7.37758C19.845 7.38153 19.8039 7.45583 19.8031 7.45662C19.8031 7.45662 19.8726 7.406 19.8758 7.40284C19.8892 7.38465 19.9122 7.33802 19.9217 7.32379L19.9676 7.24475L20.0594 7.08666C20.076 7.07479 20.1171 7.04315 20.1321 7.03287C20.1361 7.02892 20.1542 7.01547 20.1716 7.00281C20.189 6.99016 20.2025 6.97671 20.2048 6.97908C20.2048 6.97908 20.193 7.00042 20.1811 7.02177C20.17 7.04232 20.1566 7.0605 20.1613 7.0605C20.174 7.05732 20.2159 7.02015 20.234 7.00671C20.2483 6.99722 20.291 6.96874 20.3068 6.95292C20.3115 6.94344 20.3487 6.88257 20.3527 6.87388L20.3986 6.79483C20.4088 6.77507 20.427 6.73792 20.4444 6.71579C20.4516 6.70393 20.5053 6.67386 20.5172 6.662C20.5338 6.64539 20.5457 6.60035 20.5631 6.58295C20.5821 6.55924 20.6145 6.55052 20.6358 6.52917C20.6564 6.50861 20.6611 6.47068 20.6817 6.45012C20.7007 6.4264 20.7331 6.41769 20.7544 6.39634C20.7734 6.37262 20.7798 6.33785 20.8003 6.31729C20.8177 6.29989 20.8588 6.28248 20.8731 6.2635C20.8865 6.24532 20.9094 6.19869 20.9189 6.18446L20.9648 6.10541C20.9743 6.08644 20.9941 6.04771 21.0107 6.02637C21.0186 6.01372 21.0708 5.98523 21.0835 5.97258C21.1001 5.95598 21.112 5.91093 21.1293 5.89354C21.1483 5.86982 21.1807 5.8611 21.2021 5.83975L21.1325 5.91407C21.119 5.937 21.0977 5.97731 21.0866 5.99312C21.0826 5.99707 21.0716 6.01762 21.0613 6.03738C21.0494 6.05399 21.0431 6.07453 21.0431 6.07453C21.0431 6.07453 21.1071 6.0247 21.115 6.02154C21.13 6.00651 21.1451 5.95831 21.1609 5.94249C21.183 5.92035 21.2107 5.91164 21.2336 5.8887C21.2423 5.88001 21.2748 5.81915 21.2795 5.80966C21.2882 5.79622 21.3104 5.74564 21.3254 5.73061C21.3397 5.71164 21.3808 5.69422 21.3982 5.67683C21.4148 5.66022 21.4267 5.61518 21.444 5.59778C21.463 5.57406 21.4954 5.56534 21.5168 5.54399C21.535 5.52581 21.5445 5.48314 21.5627 5.46495C21.5809 5.44202 21.6141 5.43251 21.6354 5.41116C21.6568 5.38981 21.6868 5.37873 21.7081 5.35738C21.7247 5.34077 21.7406 5.29652 21.754 5.27833L21.6813 5.33212C21.6813 5.33212 21.69 5.31394 21.7003 5.29418C21.7106 5.27442 21.724 5.25624 21.7248 5.25071C21.7296 5.24122 21.7644 5.18273 21.7707 5.17166C21.7842 5.15822 21.8308 5.12578 21.8434 5.11787C21.8608 5.10522 21.9035 5.06726 21.9162 5.06409C21.9233 5.06171 21.8703 5.14313 21.8703 5.14313C21.8703 5.14313 21.9399 5.09251 21.943 5.08934C21.9541 5.07353 21.981 5.02295 21.9889 5.0103L22.0348 4.93125L22.0807 4.85221L22.1266 4.77316C22.1392 4.75103 22.1559 4.72021 22.1725 4.69412C22.1804 4.68621 22.2318 4.64904 22.2452 4.64033C22.2642 4.61661 22.2729 4.58421 22.2911 4.56129C22.3101 4.53757 22.3164 4.5028 22.337 4.48224C22.3544 4.46011 22.3892 4.44902 22.4097 4.42846C22.4137 4.4245 22.4785 4.37388 22.484 4.37309C22.4911 4.37545 22.4334 4.45214 22.4366 4.45371C22.4366 4.45371 22.4974 4.40705 22.5109 4.39834C22.5148 4.39439 22.5544 4.31693 22.5615 4.30981C22.5726 4.294 22.6248 4.2513 22.6358 4.24023C22.6501 4.22599 22.6959 4.18961 22.7094 4.16669C22.7165 4.15483 22.7426 4.08133 22.7482 4.07106C22.7529 4.05683 22.7775 3.98966 22.7854 3.97701C22.7957 3.95725 22.84 3.91297 22.8487 3.89479C22.8605 3.86397 22.8724 3.82366 22.8756 3.7968C22.8804 3.78257 22.8899 3.7162 22.897 3.6996C22.9065 3.67589 22.9429 3.63478 22.9516 3.61186C22.9674 3.58183 22.9857 3.54468 23.0007 3.52017C23.0046 3.51148 23.0482 3.43481 23.0474 3.42612C23.0521 3.39767 23.0506 3.34711 23.0514 3.32736C23.0522 3.30286 23.0594 3.2436 23.0531 3.23097C23.061 3.21832 23.0784 3.15826 23.0848 3.13297C23.0911 3.11243 23.1141 3.06105 23.1141 3.03261C23.1157 3.01207 23.1015 2.95994 23.1007 2.93703C23.1023 2.91175 23.1229 2.86275 23.1214 2.83589C23.1206 2.8035 23.1017 2.77507 23.0993 2.74426C23.0986 2.72135 23.1168 2.66998 23.1128 2.64549C23.1121 2.63206 23.0861 2.56809 23.0845 2.56019C23.0829 2.55703 23.0821 2.55308 23.0797 2.54597C23.079 2.53254 23.0742 2.52307 23.0671 2.51596C23.0592 2.50017 23.0545 2.48595 23.0498 2.47648C23.0474 2.46463 23.0482 2.44488 23.0483 2.42591L23.049 2.42512C23.0855 2.32239 23.1116 2.24415 23.0903 2.17069C23.043 2.06171 23.1908 2.02761 23.1672 1.95178L23.0337 1.94795C23.0124 1.87449 23.0346 1.80969 23.0955 1.73932C23.037 1.69829 23.0197 1.6114 23.004 1.55137C22.9281 1.63676 22.8876 1.79086 22.8283 1.8786C22.8133 1.86519 22.7944 1.85098 22.7802 1.83677C22.7754 1.83204 22.7691 1.81466 22.7636 1.7965C22.7826 1.79648 22.8047 1.7933 22.8166 1.77196C22.8 1.76012 22.7715 1.7554 22.7494 1.75858L22.7478 1.75543C22.7423 1.74674 22.7328 1.74201 22.721 1.73491L22.6926 1.64487C22.7227 1.59586 22.7859 1.5563 22.8222 1.61947L22.7717 1.55157L22.8437 1.48435L22.9218 1.57198L22.9685 1.44474L22.8579 1.44642L22.9173 1.34919L22.8573 1.305ZM3.94886 22.2405C3.94808 22.2365 3.94097 22.2294 3.93624 22.2247C3.95283 22.227 3.971 22.2231 3.98838 22.2246C3.9939 22.2333 4.00179 22.2444 4.01284 22.257C4.01126 22.2633 4.01046 22.2688 4.00808 22.2807L3.95752 22.2792C3.95516 22.2626 3.95123 22.2476 3.94886 22.2405ZM3.8722 22.2698C3.87299 22.2737 3.87535 22.2808 3.87456 22.2816C3.87377 22.2824 3.8722 22.2792 3.86983 22.2769L3.8722 22.2698ZM4.8542 23.2059L4.80677 23.2391L4.79646 23.2921L4.76496 23.172C4.80126 23.2162 4.86219 23.1079 4.8542 23.2059ZM3.72041 22.3837C3.74338 22.3228 3.805 22.3275 3.84925 22.3164L3.85004 22.3156C3.86582 22.3377 3.88791 22.3725 3.89897 22.3803C3.85392 22.397 3.77495 22.3623 3.72592 22.4066C3.77569 22.4184 3.85624 22.4515 3.81591 22.4966C3.75504 22.5385 3.72275 22.4287 3.72041 22.3837ZM4.21775 22.8336L4.15612 22.8431L4.17201 22.7372C4.23285 22.7285 4.22014 22.8122 4.21775 22.8336ZM4.28765 23.3131C4.29555 23.3051 4.30267 23.2933 4.30822 23.2783L4.31376 23.268L4.38169 23.2758C4.35718 23.3003 4.33188 23.3209 4.30264 23.3312C4.29791 23.3217 4.29396 23.3162 4.28765 23.3131ZM3.66312 22.8483C3.64502 22.7764 3.57155 22.7693 3.51783 22.7662L3.53687 22.6714C3.6087 22.7464 3.71854 22.7171 3.75163 22.8261L3.65599 22.8791L3.63058 23.0181L3.584 22.9842L3.66312 22.8483ZM3.90465 23.1088C3.90465 23.1088 3.9109 23.1925 3.90852 23.1996C3.90614 23.2162 3.88318 23.2723 3.87685 23.2834C3.87131 23.2937 3.84044 23.3624 3.84044 23.3624C3.84044 23.3624 3.84361 23.345 3.84521 23.3245C3.84681 23.304 3.85235 23.2842 3.85315 23.2787C3.85634 23.2471 3.85557 23.2194 3.85639 23.1902C3.86431 23.1633 3.87618 23.1372 3.87858 23.1064C3.87778 23.1167 3.88563 23.1799 3.88087 23.1941C3.88957 23.1902 3.89991 23.1088 3.90465 23.1088ZM3.36277 23.0018C3.35963 22.9813 3.35728 22.9599 3.36045 22.9425C3.37626 22.9362 3.39128 22.9259 3.40867 22.9133C3.41341 22.918 3.4213 22.9243 3.42841 22.9267L3.44579 22.9282C3.43634 22.8903 3.46874 22.8816 3.49166 22.8776L3.49403 22.88C3.5034 22.9985 3.42993 22.9915 3.36277 23.0018ZM3.51198 23.132L3.61868 23.0822L3.64155 23.1208L3.68581 23.1097L3.64389 23.1659L3.66125 23.1817C3.5925 23.2078 3.5475 23.1628 3.51198 23.132ZM4.39321 23.6622L4.34736 23.6843L4.27554 23.5998C4.31431 23.5421 4.37272 23.6021 4.39321 23.6622ZM4.0646 23.5977L3.93199 23.4698C4.0418 23.4736 3.97484 23.247 4.12176 23.2848C4.14853 23.3859 4.10181 23.5131 4.0646 23.5977ZM5.10057 23.3574C5.03494 23.4183 4.94811 23.3299 4.89826 23.4176C4.96454 23.5123 4.98825 23.5076 5.07675 23.4854L5.00795 23.5684L4.90446 23.5535C4.95174 23.7004 4.81511 23.6428 4.74556 23.6698L4.68002 23.6311L4.61994 23.6722L4.67204 23.7291L4.66331 23.7709C4.6199 23.7149 4.58523 23.617 4.64372 23.5869L4.61137 23.534L4.53785 23.5933L4.57495 23.6272L4.48803 23.6384L4.53155 23.5712C4.50079 23.5072 4.43366 23.4796 4.44875 23.3935C4.51041 23.3413 4.43703 23.2347 4.52395 23.2236C4.59201 23.0845 4.60288 23.3104 4.68428 23.2764L4.63289 23.3183C4.28112 23.5517 4.68801 23.5331 4.67149 23.4502L4.70543 23.492C4.66117 23.5031 4.63503 23.5861 4.6832 23.609L4.78594 23.5678C4.75201 23.526 4.79552 23.4588 4.81294 23.4177C4.89985 23.4065 4.90943 23.2975 4.98926 23.2603L4.98375 23.2374L5.06278 23.201C5.01772 23.2366 5.05716 23.3013 5.10057 23.3574ZM5.29662 23.2182C5.2863 23.2711 5.21204 23.2743 5.17333 23.2657L5.1394 23.2238C5.17736 23.1764 5.26746 23.1431 5.29662 23.2182ZM5.36861 23.113C5.33543 23.1036 5.31174 23.0988 5.2999 23.0775C5.32202 23.0791 5.34099 23.0791 5.35362 23.0806C5.35994 23.0838 5.36547 23.0877 5.37416 23.0933L5.36861 23.113ZM5.68081 22.9571L5.68468 23.048C5.66013 23.1199 5.56616 23.0623 5.53292 23.1334L5.5937 23.191C5.54627 23.2243 5.49414 23.2101 5.4855 23.1524L5.53223 23.0204L5.48721 23.0086C5.50381 22.9968 5.52278 22.9873 5.52831 22.9817C5.53305 22.9817 5.53858 22.9809 5.54332 22.9809L5.64916 23.0172L5.63893 22.9658C5.65316 22.9611 5.66659 22.9571 5.68319 22.9547L5.68081 22.9571ZM13.0024 14.622L12.9882 14.5793L13.0593 14.5745C13.0735 14.6172 13.0174 14.6212 13.0024 14.622ZM12.8771 14.1931L12.8582 14.1362L12.9546 14.1298C12.9735 14.1867 12.8969 14.1923 12.8771 14.1931ZM13.0931 13.9014L13.1279 13.8239L13.2708 13.8894C13.2163 13.9108 13.1981 13.9479 13.0931 13.9014ZM14.0861 13.1215C14.0782 13.0346 14.2401 13.1048 14.2307 12.9958L14.2544 13.0147C14.2378 13.0835 14.1555 13.1989 14.0861 13.1215ZM21.7645 2.33144C21.7732 2.35118 21.7748 2.35908 21.7542 2.39386L21.7194 2.37651L21.7645 2.33144ZM22.2626 2.83743C22.2547 2.85007 22.2412 2.8493 22.2325 2.85325L22.2167 2.88329C22.2215 2.86432 22.1867 2.88964 22.1986 2.86355L22.2183 2.86275L22.2168 2.85011C22.2239 2.82877 22.2476 2.84771 22.2626 2.83269C22.2515 2.82953 22.2373 2.82481 22.2476 2.81453C22.2618 2.80503 22.2658 2.82952 22.2626 2.83743ZM21.9454 2.39686L21.8925 2.36925L21.9304 2.32181C21.9581 2.3368 21.9809 2.37549 21.9454 2.39686ZM22.5025 2.25653C22.5056 2.28655 22.5333 2.28732 22.553 2.28651L22.538 2.32523C22.5151 2.29602 22.4693 2.3087 22.4645 2.26604L22.5064 2.2431L22.5254 2.1862L22.5412 2.19882L22.5025 2.25653ZM21.8444 1.27587L21.7779 1.42761C21.6974 1.33762 21.707 1.28547 21.8444 1.27587ZM22.2739 1.67052C22.2233 1.66898 22.2359 1.77484 22.1703 1.75988C22.1656 1.71248 22.198 1.65162 22.2234 1.6121L22.2739 1.67052ZM21.9006 1.24817C21.9029 1.24579 21.9092 1.24421 21.9187 1.2442L21.9006 1.24817ZM22.433 1.27456C22.3951 1.27933 22.3762 1.26039 22.3477 1.24146L22.358 1.21695C22.4015 1.22561 22.4354 1.23427 22.433 1.27456Z" fill="#5567AE"/>
</g>
<defs>
<clipPath id="clip0">
<path d="M26.749 21.2132L23.2135 24.7487L2.00029 3.53554L5.53582 6.19888e-06L26.749 21.2132Z" fill="white"/>
</clipPath>
<clipPath id="clip1">
<path d="M4.16138 24.8744L0.625843 21.3388L21.839 0.125637L25.3746 3.66117L4.16138 24.8744Z" fill="white"/>
</clipPath>
</defs>
</svg>
