<?xml version="1.0" encoding="utf-8"?>
<!-- Generator: Adobe Illustrator 24.0.2, SVG Export Plug-In . SVG Version: 6.00 Build 0)  -->
<svg version="1.1" id="Layer_1" xmlns="http://www.w3.org/2000/svg" xmlns:xlink="http://www.w3.org/1999/xlink" x="0px" y="0px"
	 viewBox="0 0 166.04 169.12" style="enable-background:new 0 0 166.04 169.12;" xml:space="preserve">
<style type="text/css">
	.st0{fill:#dfe8d2;}
</style>
<g>
	<g>
		<g>
			<path class="st0" d="M123.08,159.72c-0.01,0.01-1.32,0.73-1.39,0.77c0.16-0.07,1.22-0.57,1.44-0.67c0.25-0.14,1.2-0.66,1.38-0.77
				c0.19-0.1,1.35-0.83,1.35-0.83s-0.33,0.17-0.66,0.35c-0.34,0.18-0.68,0.37-0.74,0.38c-0.48,0.24-0.97,0.43-1.44,0.67
				c-0.19,0.1-1.27,0.7-1.38,0.76C121.73,160.35,123.07,159.73,123.08,159.72z"/>
			<path class="st0" d="M161.81,86.24c-0.13,0.99,0.06,1.68,0.22,1.71l0.1-1.67L161.81,86.24z"/>
			<path class="st0" d="M162.76,83.97c-0.03,1.13-0.01,1.32,0.07,1.71l0.14-1.69L162.76,83.97z"/>
			<path class="st0" d="M165.82,92.89c0.08-0.25,0.16-0.5,0.22-0.76l-0.15-0.81C165.76,91.36,165.82,92.51,165.82,92.89z"/>
			<path class="st0" d="M159.51,95.57c-0.14,1.27-0.17,1.14-0.11,2.1l0.22-0.88L159.51,95.57z"/>
			<path class="st0" d="M164.08,84.16c-0.07,1.56,0.26,0.76,0.34,0.73C164.32,84.35,164.24,83.61,164.08,84.16z"/>
			<path class="st0" d="M163.18,88.46c0.13-0.8,0.19-1.61,0.3-2.42c0.14-0.4,0.28-0.79,0.15-0.91l-0.14,0.4
				C163.27,85.41,163.28,87.35,163.18,88.46z"/>
			<path class="st0" d="M3.64,110.47c0,0,0.07,0.18,0.15,0.39c-0.03-0.41-0.18-1-0.43-1.75c-0.22-0.76-0.51-1.67-0.89-2.71
				c0.11,0.44,0.25,1.01,0.26,1.06c0.01,0.07-0.27-0.85-0.4-1.28c-0.01,0.01-0.01,0.01-0.02,0.03c0.1,0.41,0.31,1.21,0.32,1.29
				c0.18,0.56,0.29,0.92,0.48,1.5c0.12,0.4,0.3,1.1,0.44,1.51c0.06,0.15,0.15,0.41,0.25,0.67c0.01-0.05,0.02-0.09,0.02-0.15
				C3.72,110.73,3.65,110.47,3.64,110.47z"/>
			<path class="st0" d="M33.42,16.66c0.17-0.15,1.19-0.78,1.31-0.87c0.16-0.12,1.23-0.94,1.24-0.94c-0.01,0.01-1.16,0.76-1.32,0.86
				c-0.32,0.22-0.98,0.61-1.3,0.87c-0.21,0.18-1.03,0.87-1.2,1c-0.17,0.14-1.2,1.01-1.2,1.01s0.3-0.21,0.6-0.44
				c0.3-0.23,0.62-0.46,0.67-0.48C32.64,17.34,33.01,16.98,33.42,16.66z"/>
			<path class="st0" d="M76.58,158.56c0.45,0.01,0.93,0.03,1.38,0.04c0.19,0,1.37,0.04,1.37,0.04c-0.02,0-1.22-0.14-1.4-0.16
				c-0.07,0-1.22-0.04-1.37-0.04c-0.37-0.02-1.01-0.17-1.39-0.22c-0.46-0.06-0.91-0.06-1.37-0.11c0.46,0.08,0.94,0.15,1.4,0.23
				C75.38,158.38,76.58,158.56,76.58,158.56z"/>
			<path class="st0" d="M1.63,66.35c0,0-0.1,0.36-0.19,0.72c-0.08,0.37-0.17,0.76-0.18,0.81c-0.09,0.51-0.14,1.04-0.23,1.55
				c0.01-0.07,0.34-1.54,0.34-1.54s0.06-0.38,0.11-0.77C1.55,66.74,1.62,66.35,1.63,66.35z"/>
			<path class="st0" d="M91.82,158.29c-0.47,0.06-0.89,0.13-1.36,0.17c0.04,0,0.39-0.02,0.73-0.03c0.34-0.01,0.67-0.04,0.67-0.04
				c0.05-0.01,1.35-0.24,1.35-0.24S91.9,158.28,91.82,158.29z"/>
			<path class="st0" d="M165.31,80.17c0.03-0.11,0.05-0.27,0.07-0.41c-0.01-0.14-0.02-0.28-0.03-0.4c-0.02,0.23-0.06,0.38-0.15,0.35
				L165.31,80.17z"/>
			<path class="st0" d="M165.43,72.37l0.03,0.2c0.04,0.24,0.08,0.46,0.1,0.66c0.01-0.05,0.03-0.03,0.06,0.03
				c-0.03-0.48-0.08-1.03-0.15-1.62L165.43,72.37z"/>
			<path class="st0" d="M163.93,82.62l0.21-0.19c-0.1-2.09-0.2-1.99-0.34-2.59L163.93,82.62z"/>
			<path class="st0" d="M161.98,75.41l0.05,0.45l0.17,0.61c-0.02-0.38-0.06-0.75-0.11-1.12L161.98,75.41z"/>
			<path class="st0" d="M165.54,77.8l0.03-0.64c-0.04-0.22-0.19-1.08-0.22-0.45L165.54,77.8z"/>
			<polygon class="st0" points="162.37,76.71 162.42,77.98 162.5,77.47 			"/>
			<path class="st0" d="M162.67,77.67l0.03,0.51c0.14-1.16,0.45,2.01,0.56,1.08C163.19,77.48,162.81,77.26,162.67,77.67z"/>
			<path class="st0" d="M164.29,77.37l0.2,0.83c-0.04-0.33-0.14-1-0.21-1.05L164.29,77.37z"/>
			<path class="st0" d="M163.61,79c-0.1,0.48-0.03,0.74-0.05,1.17c0.05-0.21,0.1-0.42,0.14-0.63L163.61,79z"/>
			<path class="st0" d="M165.01,83.97l0.08-0.85c-0.04-0.29-0.18-1.46-0.26-0.62L165.01,83.97z"/>
			<path class="st0" d="M165.87,72.13c-0.03-0.59-0.2-1.33-0.37-2.03c0.14,0.74,0.27,1.48,0.37,2.21
				C165.86,72.22,165.86,72.15,165.87,72.13z"/>
			<polygon class="st0" points="162.33,81.23 162.33,81.26 162.34,81.23 			"/>
			<path class="st0" d="M164.72,78.68c-0.07,0.36-0.13,0.72-0.03,0.75l0.07-0.36c0.16,0,0.01-1.48-0.04-2.36L164.72,78.68z"/>
			<path class="st0" d="M165.15,68.25c0.05,0.1,0.19-0.22,0.04-0.95C165.11,67.35,165.09,67.86,165.15,68.25z"/>
			<path class="st0" d="M163.09,72.94c-0.04-0.06-0.16,0.43-0.04,1.11C163.11,73.92,163.14,73.33,163.09,72.94z"/>
			<path class="st0" d="M162.34,58.53c0.26,0.6,0.5,1.21,0.72,1.83C162.88,58.88,162.58,58.41,162.34,58.53z"/>
			<path class="st0" d="M8.41,46.76c-0.94,1.99-0.75,1.97-0.91,2.59c0.39-0.89,0.75-1.8,1.2-2.67L8.41,46.76z"/>
			<path class="st0" d="M15.73,35.14c-0.89,0.86,1.02-1.93,0.3-1.24c-1.16,1.5-1.01,1.93-0.63,1.68L15.73,35.14z"/>
			<path class="st0" d="M9.9,43.29c0.03-0.1-0.31,0.04-0.63,0.73C9.36,44.04,9.68,43.64,9.9,43.29z"/>
			<path class="st0" d="M0.2,76.81c-0.09,0.38-0.2,1.27-0.2,1.61C0.04,78.36,0.24,77.34,0.2,76.81z"/>
			<path class="st0" d="M163.78,85.86c0,1.17,0.03,2.34-0.05,3.5l-0.32-0.25c-0.71,3.4-0.23-2.5-0.79-1.84
				c-0.15,0.69-0.48,1.47-0.79,2.23c-0.16,1.19-0.4,0.15-0.55,1.93c0.03,0.51,0,1.01-0.01,1.51c0.03-0.07,0.05-0.13,0.07-0.2
				l0.02-0.5l0.03,0.36c0.24-0.62,0.41-1.14,0.51-1.09c0.1,0.05,0.1,0.65-0.16,2.25c-0.23,0.67,0.02-1.12-0.21-0.65
				c-0.03,0.19-0.05,0.34-0.07,0.47l0.02,0.22c-0.01-0.02-0.03,0-0.04,0.02c-0.02,0.31-0.01,0.47,0.02,0.59l-0.01,0.01
				c-0.07,0.12-0.14,0.35-0.21,0.56c-0.01-0.11-0.03-0.15-0.05-0.19c-0.05,0.24-0.09,0.33-0.1,0.01c-0.1,0.11-0.22,0.43-0.36,0.89
				l0.06-0.5l0-0.06c0.02-0.06,0.04-0.13,0.06-0.17c0.1-0.3,0.2-0.56,0.29-0.81l0.02-0.1c-0.12,0.09-0.25,0.25-0.38,0.42l-0.01-0.5
				l0.07-0.7l-0.18-0.33l-0.14,1.18l0.23,0.25c0,0.05,0,0.09,0,0.14l-0.2,0.26c-0.1,0.31-0.21,0.66-0.33,1.02l0.02-0.72
				c-0.07,0.26-0.12,0.51-0.2,0.76l0.02,0.4c-0.09,0.26-0.18,0.52-0.27,0.76c-0.1,0.28-0.2,0.59-0.3,0.9
				c0.04-0.09,0.08-0.19,0.11-0.25l0.14,0.23c-0.21,1.27-0.79,2.95-0.84,2.12c0.07-0.44,0.18-0.89,0.29-1.28
				c-0.2,0.36-0.4,0.78-0.69,1.59c0,0.16-0.02,0.33-0.04,0.49c-0.12,0.22-0.29,0.54-0.33,0.61c-0.07,0.12-0.17,0.32-0.27,0.53
				c0.04,0.24,0.03,0.7-0.13,1.18l0.04,0.21c0.11-0.3,0.18-0.61,0.27-0.92l-0.07-0.02l0.25-0.62l-0.18,0.8
				c0.02,0.31,0.22,0.12,0.07,0.88c-0.26,0.78-0.16,1.17-0.44,1.79c-0.38,1.5-0.14-0.21-0.43,0.56l0.21-0.64
				c1.37-3.95,0.09-1.34,0.04-0.8l-0.06-0.12c0.15-0.35,0.33-1.15,0.21-1.04l-0.37,0.93c0.06,0.12-0.16,0.91-0.27,1.33
				c-0.27,0.61-0.45,1.52-0.79,2.26l-0.02,0.15l-0.33,0.74c0.21-0.53,0.18-0.8,0.13-0.98c0.3-0.85,0.5-0.68,0.75-1.65
				c-0.09-0.34-0.16-0.16-0.46,0.54l0.31-1.05l0.3-0.5c0.03-0.85,0.38-1.23,0.63-1.85l0.16-0.1l0.2-0.69l-0.1-0.13l0.01-0.08
				l-0.08,0.18c-0.07,0.19-0.37,1.12-0.48,1.35c-0.17,0.37-0.32,0.57-0.49,0.98c-0.07,0.21-0.44,1.21-0.51,1.4
				c-0.06,0.2-0.44,1.18-0.55,1.41c-0.11,0.24-0.47,0.91-0.56,1.09c-0.08,0.15-0.46,0.92-0.57,1.17c-0.2,0.47-0.42,0.97-0.62,1.44
				c-0.17,0.34-0.46,0.85-0.64,1.24c-0.2,0.45-0.41,1.02-0.65,1.46c-0.23,0.44-0.44,1.01-0.67,1.45c-0.23,0.45-0.47,0.83-0.72,1.28
				c-0.25,0.45-0.47,0.97-0.71,1.42c-0.26,0.45-0.51,0.86-0.77,1.31c0.03-0.06,0.7-1.43,0.7-1.43s-0.75,1.27-0.79,1.35
				c-0.17,0.31-0.62,1.18-0.75,1.41l-0.74,1.38c-0.1,0.21-0.56,1.08-0.69,1.25c-0.16,0.23-0.68,0.98-0.8,1.16
				c-0.06,0.09-0.77,1.11-0.8,1.16c-0.26,0.41-0.52,0.82-0.74,1.15c-0.18,0.28-0.66,1-0.74,1.15c-0.02,0.04,0.19-0.24,0.41-0.53
				c0.22-0.29,0.45-0.59,0.45-0.59s-0.2,0.32-0.4,0.62l-1.01,1.3l-1.07,1.25c-0.68,0.82-0.78,1.06-0.76,1.18
				c-0.03,0.04-0.06,0.09-0.09,0.12c-0.11,0.16-0.87,0.97-0.94,1.04c-0.07,0.07,0.86-1.07,0.84-1.09c0,0-0.99,1.12-0.95,1.04
				c0.06-0.1,0.68-0.83,0.84-1.08c0.06-0.08,0.26-0.36,0.44-0.62c0.19-0.26,0.35-0.5,0.35-0.5s-0.22,0.25-0.43,0.51
				c-0.21,0.26-0.44,0.53-0.47,0.56c-0.54,0.73-1.13,1.44-1.69,2.16c-0.29,0.36-0.56,0.72-0.86,1.07l-0.9,1.03
				c-0.08,0.1-0.2,0.23-0.32,0.37c-0.18,0.1-0.35,0.19-0.49,0.27c-0.2,0.3-0.36,0.56-0.5,0.8c-0.24,0.21-0.5,0.44-0.62,0.55
				c-0.33,0.32-0.62,0.67-0.95,0.99c-0.39,0.35-0.65,0.58-1.05,0.94c-0.22,0.18-0.85,0.69-1.1,0.89c-0.29,0.25-0.71,0.7-1,0.94
				c-0.23,0.21-0.92,0.74-1.11,0.86c-0.22,0.16-1.07,0.79-1.14,0.83c-0.03,0.02,0.23-0.2,0.5-0.43c0.27-0.23,0.54-0.46,0.54-0.46
				s-0.27,0.19-0.54,0.39c-0.27,0.2-0.55,0.41-0.59,0.43c-0.37,0.29-0.77,0.54-1.14,0.83c-0.15,0.12-0.98,0.77-1.07,0.85
				c-0.03,0.03,0.26-0.17,0.56-0.37c0.3-0.2,0.61-0.41,0.61-0.41c0.02,0.03-1.17,0.9-1.08,0.85c0.15-0.1,0.9-0.58,1.17-0.79
				l1.14-0.83c-0.4,0.33-0.63,0.56-1.04,0.9c-0.25,0.22-0.89,0.58-1.17,0.79c-0.31,0.22-0.77,0.62-1.08,0.85
				c-0.2,0.14-1.01,0.68-1.19,0.77c-0.23,0.13-1.14,0.69-1.21,0.72c-0.04,0.02,0.24-0.18,0.54-0.38c0.29-0.2,0.58-0.41,0.58-0.41
				s-1.12,0.66-1.21,0.72c-0.18,0.13-0.98,0.69-1.12,0.79c-0.34,0.26-0.86,0.57-1.14,0.76c-0.21,0.14-1.09,0.68-1.16,0.74
				c-0.03,0.02,0.28-0.14,0.6-0.32c0.32-0.17,0.65-0.34,0.65-0.34s-1.06,0.67-1.16,0.74c-0.15,0.08-1.11,0.59-1.24,0.66l-1.28,0.6
				c-0.37,0.17-0.83,0.39-1.27,0.6c-0.14,0.07-1.01,0.58-1.21,0.66c-0.18,0.08-1.15,0.47-1.31,0.53c-0.15,0.06-1.11,0.45-1.3,0.53
				c-0.25,0.13-1.05,0.48-1.25,0.57c-0.37,0.16-0.81,0.36-1.25,0.56c-0.29,0.12-0.93,0.45-1.26,0.55c-0.45,0.15-0.9,0.25-1.35,0.4
				c0.06-0.03,1.28-0.5,1.28-0.5s-1.23,0.37-1.35,0.4c-0.15,0.06-1.13,0.44-1.28,0.5c-0.19,0.09-1.03,0.4-1.29,0.46
				c-0.44,0.13-0.93,0.21-1.37,0.34c-0.44,0.13-0.93,0.21-1.37,0.34c-0.36,0.09-0.94,0.28-1.32,0.37c-0.45,0.11-0.93,0.17-1.39,0.27
				c-0.34,0.07-0.96,0.3-1.33,0.35c-0.2,0.03-1.23,0.17-1.39,0.2c-0.22,0.03-1.12,0.16-1.4,0.2c-0.22,0.05-1.16,0.24-1.35,0.26
				c-0.21,0.04-1.1,0.19-1.35,0.23c-0.45,0.06-0.96,0.08-1.41,0.13c0.01,0.03-1.17,0.15-1.36,0.18c-0.06,0-1.27,0.05-1.41,0.06
				c-0.4,0.03-0.99,0.14-1.37,0.16c-0.47,0.03-0.98,0.07-1.37,0.09c-0.21,0.01-1.11,0.08-1.37,0.1c-0.39,0.01-1.05-0.02-1.41-0.03
				c0.13,0.02,1.38-0.08,1.38-0.08s-1.31-0.01-1.41-0.04c-0.22,0-1.2,0.02-1.37,0.03c-0.4,0.01-0.89,0.02-1.38,0.03
				c-0.31,0.01-1.04,0.03-1.38-0.01c-0.47-0.03-0.93-0.12-1.4-0.16c-0.53-0.06-0.89-0.1-1.4-0.16c0,0.03-1.2-0.09-1.37-0.1
				c-0.08-0.01-1.22-0.1-1.37-0.11c-0.29-0.05-1.15-0.19-1.4-0.23c-0.44-0.06-1.03-0.14-1.37-0.18c-0.91-0.13-1.83-0.22-2.73-0.39
				c-0.06-0.03-1.41-0.36-1.37-0.37c0.02,0-0.32-0.09-0.67-0.18c-0.35-0.09-0.7-0.19-0.7-0.19s0.32,0.05,0.64,0.12
				c0.33,0.06,0.67,0.13,0.71,0.13c0.05,0,0.38,0.07,0.71,0.13c0.33,0.06,0.64,0.12,0.64,0.12c-0.02,0-1.18-0.32-1.36-0.37
				c-0.07-0.01-1.21-0.22-1.35-0.25c-0.46-0.09-0.9-0.3-1.35-0.42c-0.45-0.13-0.89-0.19-1.34-0.32c-0.45-0.13-0.9-0.3-1.34-0.44
				l-2.64-1c-0.43-0.12-0.89-0.26-1.31-0.41c-0.18-0.06-1.3-0.45-1.3-0.45s0.34,0.15,0.67,0.29c0.33,0.14,0.65,0.28,0.63,0.27
				c-0.06,0.01,1.27,0.51,1.31,0.53c0,0-0.28-0.08-0.6-0.17c-0.31-0.09-0.64-0.22-0.72-0.24l-1.3-0.45l-1.3-0.57
				c-0.32-0.12-0.87-0.43-1.27-0.61c-0.23-0.09-1.01-0.4-1.28-0.51c-0.29-0.14-1.01-0.49-1.26-0.64c-0.44-0.25-0.85-0.48-1.24-0.69
				c-0.21-0.12-0.96-0.53-1.23-0.69c-0.17-0.07-1.11-0.53-1.23-0.61c-0.29-0.15-0.85-0.44-1.23-0.64c-0.19-0.12-0.97-0.61-1.2-0.75
				c-0.32-0.19-0.85-0.5-1.19-0.69c-0.26-0.18-0.94-0.65-1.17-0.81c-0.36-0.21-0.92-0.53-1.18-0.71c-0.36-0.23-0.74-0.48-1.16-0.75
				c-0.31-0.21-0.8-0.5-1.16-0.75c-0.31-0.2-0.78-0.67-1.1-0.91c-0.36-0.28-0.75-0.52-1.12-0.8c-0.23-0.22-0.88-0.71-1.08-0.93
				c-0.19-0.17-0.76-0.71-1.04-0.97c-0.14-0.14-1.04-0.96-1.04-0.96c0.01,0.01,1.02,0.81,1.08,0.86c-0.27-0.25-0.71-0.66-1.04-0.96
				c-0.17-0.14-0.81-0.81-1.01-1c-0.24-0.23-0.81-0.7-1.04-0.9c0.09,0.09,0.85,0.87,0.99,1.01l-1.04-0.91l-1.04-0.91
				c-0.15-0.14-0.8-0.77-1-0.96c-0.14-0.16-0.82-0.93-0.94-1.06c-0.3-0.33-0.6-0.68-0.92-1.08c-0.24-0.3-0.6-0.77-0.89-1.11
				c-0.24-0.28-0.69-0.7-0.95-1c-0.31-0.36-0.54-0.77-0.84-1.14c-0.14-0.16-0.79-0.92-0.9-1.05c-0.26-0.31-0.6-0.66-0.89-1.06
				c-0.19-0.24-0.64-0.82-0.85-1.09c-0.28-0.38-0.5-0.79-0.78-1.18c-0.19-0.24-0.62-1.02-0.74-1.21c-0.12-0.2-0.57-0.96-0.72-1.22
				c-0.1-0.17-0.71-0.99-0.79-1.13c-0.1-0.16-0.61-0.96-0.74-1.17c-0.11-0.22-0.57-1.08-0.66-1.25c-0.09-0.14-0.55-1.09-0.63-1.27
				c-0.16-0.28-0.56-0.98-0.68-1.2c-0.11-0.18-0.55-0.97-0.69-1.2c-0.17-0.35-0.39-0.98-0.54-1.31c-0.24-0.48-0.38-0.75-0.63-1.24
				c-0.15-0.34-0.39-0.95-0.52-1.32c-0.11-0.27-0.46-1.04-0.56-1.26c0.01,0.03,0.47,1.32,0.47,1.34c-0.01-0.02-0.5-1.11-0.56-1.26
				l-0.57-1.26c-0.01-0.05-0.14-0.38-0.24-0.71c-0.1-0.33-0.19-0.65-0.19-0.65s0.54,1.39,0.52,1.28c-0.06-0.17-0.34-1.02-0.43-1.35
				l-0.41-1.36c-0.08-0.25-0.3-1.02-0.4-1.36c-0.05-0.15-0.39-1.18-0.43-1.31l-0.44-1.31c-0.11-0.33-0.32-0.88-0.41-1.32
				c-0.04-0.23-0.22-1.12-0.27-1.4c-0.1-0.43-0.27-0.91-0.37-1.33c-0.13-0.5-0.13-0.91-0.22-1.41c-0.06-0.37-0.23-0.96-0.3-1.35
				c-0.09-0.47-0.12-0.94-0.2-1.41c0.02,0.09,0.31,1.35,0.31,1.35s-0.19-1.33-0.2-1.41c-0.06-0.47-0.17-0.89-0.23-1.36
				c-0.06-0.46-0.07-0.95-0.13-1.42c-0.06-0.46-0.19-0.9-0.21-1.37c-0.04-0.48-0.02-0.94-0.06-1.42c-0.03-0.43-0.13-0.94-0.17-1.37
				c-0.04-0.29-0.01-1.17-0.02-1.42C8.68,86.6,8.63,86,8.61,85.66l-0.1-1.38c-0.04-0.3-0.04-0.99-0.04-1.38
				c0.02-0.31,0.07-1.08,0.09-1.42c0.01-0.39-0.04-1.01-0.03-1.39c0.06-0.54,0.1-0.88,0.16-1.42c0,0.06-0.04,1.38-0.04,1.38
				s0.15-1.34,0.16-1.41c0.01-0.31,0.04-1.16,0.04-1.39c0.02-0.41,0-0.89,0.06-1.38c0.03-0.3,0.07-1.04,0.11-1.38
				c0.05-0.28,0.19-1.16,0.23-1.4c0.02-0.09,0.06-0.44,0.13-0.77c0.07-0.32,0.14-0.62,0.14-0.63c0,0-0.04,0.32-0.09,0.65
				c-0.05,0.33-0.07,0.68-0.07,0.72c0,0.04-0.03,0.39-0.06,0.73s-0.05,0.65-0.05,0.65s0.21-1.3,0.23-1.4
				c0.01-0.23,0.13-1.19,0.16-1.38c0.06-0.42,0.12-0.87,0.18-1.37c0.05-0.37,0.11-0.94,0.18-1.37c0.06-0.37,0.28-0.99,0.36-1.37
				c0.08-0.33,0.19-1.06,0.25-1.36l-0.37,1.37c0-0.01,0.22-1.19,0.25-1.36c0.02-0.09,0.31-1.21,0.38-1.37
				c0.11-0.36,0.22-0.97,0.32-1.35c0.08-0.24,0.37-1.15,0.44-1.35c-0.01,0.04-0.31,1.33-0.32,1.35c0.01-0.02,0.39-1.2,0.44-1.36
				c0.05-0.19,0.39-1.11,0.47-1.34c0.07-0.25,0.33-1.15,0.38-1.33L13,58.12c0.12-0.38,0.28-0.85,0.45-1.31
				c0.06-0.14,0.48-1.1,0.57-1.3c0.07-0.19,0.39-1.16,0.47-1.31l0.52-1.29c0.43-0.85,0.82-1.71,1.3-2.53
				c-0.19,0.42-0.4,0.83-0.56,1.27c-0.13,0.32-0.35,0.88-0.52,1.29c-0.11,0.22-0.5,1.01-0.63,1.27c-0.2,0.42-0.3,0.87-0.47,1.3
				c0.36-0.88,0.8-1.72,1.22-2.56l0.51-1.28c0.16-0.43,0.37-0.84,0.56-1.26c0.17-0.38,0.37-0.81,0.58-1.26
				c0.07-0.13,0.59-1.05,0.7-1.24c0.17-0.3,0.49-0.96,0.64-1.23c0.23-0.44,0.45-0.87,0.64-1.23c0.08-0.18,0.51-1,0.66-1.22
				c0.14-0.19,0.71-1.02,0.81-1.17c0.06-0.09,0.78-1.13,0.81-1.17c0.27-0.41,0.53-0.83,0.75-1.17c0.23-0.36,0.57-0.88,0.75-1.17
				c0.13-0.22,0.72-1.09,0.77-1.16c0.02-0.03-0.22,0.24-0.43,0.53c-0.22,0.29-0.45,0.59-0.45,0.59s0.17-0.28,0.36-0.56
				c0.19-0.28,0.38-0.57,0.41-0.6c0.17-0.2,0.79-0.93,0.92-1.09c0.13-0.14,0.83-1.01,0.92-1.09c0.03-0.03-0.18,0.25-0.39,0.54
				c-0.21,0.29-0.42,0.59-0.42,0.59s0.2-0.23,0.42-0.49c0.21-0.25,0.44-0.53,0.5-0.6c0.21-0.26,0.66-0.74,0.96-1.06
				c0.65-0.69,1.29-1.4,1.95-2.08l0.91-1.04c0.13-0.14,0.75-0.86,0.91-1.05c0.16-0.19,0.89-0.84,1.05-0.97
				c0.08-0.07,1-0.89,1.06-0.94c0.32-0.33,0.71-0.74,0.96-1c0.27-0.26,0.85-0.8,1.01-0.96c-0.07,0.06-1.09,0.88-1.11,0.9
				c-0.03,0,0.89-0.84,1.01-0.96l1.01-0.96c0.36-0.29,0.74-0.61,1.13-0.88c0.16-0.11,1.15-0.84,1.15-0.84
				c-0.01,0.01-1,0.86-1.05,0.9c0.19-0.14,0.89-0.65,1.15-0.84c0.29-0.23,0.74-0.66,1.05-0.91c0.19-0.17,1.02-0.67,1.18-0.8
				c0.37-0.29,0.8-0.62,1.09-0.85c0.27-0.21,0.96-0.75,1.1-0.85c0.04-0.03-0.27,0.15-0.57,0.36c-0.31,0.21-0.63,0.42-0.63,0.42
				s0.25-0.2,0.52-0.41c0.27-0.2,0.55-0.41,0.58-0.44c0.42-0.25,0.81-0.48,1.23-0.73c0.41-0.24,0.82-0.49,1.23-0.73
				c0.4-0.25,0.83-0.47,1.25-0.69c0.38-0.2,0.97-0.51,1.26-0.67c0.24-0.12,1.16-0.64,1.26-0.66c0.04-0.02-0.26,0.17-0.56,0.36
				c-0.3,0.19-0.61,0.39-0.61,0.39c0.02-0.01,1.08-0.57,1.26-0.66c0.06-0.04,1.17-0.66,1.2-0.68c0.03-0.03,0.34-0.2,0.63-0.36
				c0.29-0.16,0.57-0.33,0.57-0.33s-0.33,0.15-0.66,0.31c-0.32,0.16-0.64,0.31-0.63,0.3c0.02-0.04,1.13-0.63,1.21-0.69
				c0.03-0.02-0.29,0.13-0.62,0.29s-0.67,0.31-0.67,0.31s0.28-0.16,0.57-0.33s0.6-0.33,0.64-0.36c0.85-0.42,1.75-0.75,2.62-1.12
				l1.32-0.54c0.19-0.1,1.09-0.38,1.34-0.49c0.21-0.09,1.11-0.49,1.27-0.57c0.4-0.17,0.96-0.43,1.27-0.56
				c0.24-0.1,1.23-0.46,1.3-0.5c0.18-0.05,1.04-0.31,1.37-0.41c0.43-0.14,0.88-0.25,1.38-0.37c0.11-0.04,1.14-0.38,1.32-0.44
				c0.26-0.06,1.17-0.29,1.38-0.34c0.26-0.07,1.07-0.2,1.4-0.28c0.18-0.05,1.19-0.33,1.34-0.37c0.45-0.12,0.89-0.26,1.34-0.36
				c0.31-0.07,0.95-0.21,1.36-0.3c0.11-0.02,1.29-0.18,1.41-0.2c0.2-0.04,1.16-0.14,1.42-0.16c0.23-0.04,1.19-0.2,1.37-0.24
				c0.4-0.07,0.88-0.15,1.37-0.24c0.3-0.06,1.04-0.15,1.38-0.18c0.47-0.02,0.96-0.04,1.43-0.06c0.25-0.02,1.23-0.06,1.43-0.06
				c0.26,0,1.1,0.01,1.43,0.02c0.18-0.01,1.22-0.09,1.39-0.1c0.21-0.01,1.12-0.1,1.39-0.08c0.25,0.02,1.24,0.08,1.43,0.09
				c-0.06,0-1.38,0.03-1.39,0.03c0,0,1.33,0.08,1.42,0.09c0.25,0,1.2-0.02,1.39-0.03c0.37-0.02,0.92-0.02,1.4,0.01
				c0.19,0.02,1.17,0.13,1.42,0.16c0.2,0.01,1.23,0.04,1.39,0.04c0.22-0.01,1.1,0.07,1.39,0.1c0.41,0.05,1,0.18,1.41,0.23
				c0.37,0.05,1,0.06,1.39,0.12c0.44,0.08,0.96,0.22,1.4,0.3c0.53,0.1,0.86,0.2,1.4,0.3c0.37,0.07,0.99,0.11,1.38,0.21
				c0.47,0.11,0.91,0.26,1.38,0.37c0.22,0.04,1.2,0.22,1.37,0.25c0.19,0.02,1.12,0.23,1.36,0.3c0.24,0.08,1.17,0.38,1.36,0.44
				c0.12,0.04,1.24,0.4,1.36,0.44c0.39,0.11,1.05,0.3,1.34,0.39c0.89,0.27,1.8,0.49,2.67,0.8c0.29,0.12,1.07,0.46,1.31,0.57
				c0.08,0.04,0.41,0.18,0.72,0.31c0.31,0.13,0.6,0.26,0.6,0.26s-0.31-0.1-0.63-0.21c-0.32-0.11-0.65-0.23-0.69-0.24
				c-0.04-0.01-0.37-0.13-0.69-0.24c-0.32-0.11-0.62-0.21-0.62-0.21s0.29,0.13,0.59,0.26c0.31,0.13,0.63,0.27,0.71,0.31
				c0.09,0.03,1.29,0.44,1.32,0.45c0.44,0.17,0.86,0.44,1.29,0.62c0.42,0.19,0.87,0.33,1.29,0.52c0.49,0.22,0.8,0.29,1.29,0.53
				c0.34,0.17,0.9,0.52,1.25,0.7c0.42,0.21,0.84,0.37,1.27,0.58c0.36,0.17,0.87,0.52,1.23,0.73c0.41,0.23,0.82,0.4,1.24,0.64
				c0.41,0.23,0.8,0.52,1.21,0.75c0.17,0.1,1.06,0.62,1.2,0.7c0.33,0.19,0.99,0.57,1.21,0.7c-0.03-0.02-1.09-0.75-1.18-0.81
				c-0.16-0.11-1.17-0.8-1.18-0.81c0.01-0.03,1.12,0.67,1.21,0.7l1.18,0.82c0.39,0.27,0.79,0.53,1.17,0.83
				c0.39,0.3,0.75,0.58,1.14,0.87c0.18,0.13,0.93,0.71,1.14,0.87c0.39,0.27,0.76,0.51,1.14,0.8c-0.03-0.03-0.31-0.26-0.57-0.48
				c-0.26-0.23-0.53-0.43-0.53-0.43s0.26,0.15,0.52,0.35c0.26,0.19,0.55,0.4,0.62,0.45c0.09,0.07,0.95,0.8,1.1,0.93
				c0.15,0.13,1.01,0.71,1.13,0.82c0.23,0.18,0.79,0.63,1.1,0.87c0.24,0.22,0.79,0.74,1.05,0.98c0.36,0.3,0.73,0.57,1.07,0.9
				c0.35,0.32,0.71,0.6,1.05,0.92c0.17,0.18,0.87,0.89,1.01,1.03c0.35,0.34,0.73,0.7,1.01,0.97l0.86,0.82
				c0.41,0.47,0.9,0.93,1.21,1.2c0.28,0.3,0.58,0.61,0.9,0.96c0.02,0.03,0.1,0.12,0.19,0.23c0.04,0.08,0.07,0.15,0.09,0.2l0.21,0.18
				c0.18,0.22,0.36,0.44,0.41,0.51c0.03,0.04,0.09,0.1,0.13,0.14c0.19,0.27,0.37,0.55,0.56,0.83c0.13,0.11,0.18,0.1,0.2,0.04
				c0.01,0.01,0.03,0.04,0.04,0.05c0.26,0.31,0.53,0.62,0.77,0.89c0.02,0.06,0.04,0.12,0.03,0.15l0.73,0.95
				c0.28,0.28,0.5,0.49,0.74,0.72c0.15,0.19,0.29,0.37,0.42,0.53c-0.01-0.02-0.09-0.13-0.22-0.33c0.04,0.04,0.07,0.08,0.12,0.12
				l0.47,0.65l-0.11,0.09c0.32,0.76,0.8,1.3,1.19,1.84c0.03,0.06,0.08,0.13,0.1,0.16c0.11,0.19,0.68,1.11,0.84,1.34l0,0.01
				c0.03,0.09,0.07,0.19,0.09,0.29c0.22,0.26,0.32,0.34,0.37,0.34c0.2,0.27,0.38,0.5,0.38,0.51c0-0.02-0.16-0.28-0.35-0.56
				c0-0.03,0.01-0.06,0-0.12c0.16,0.21,0.3,0.4,0.35,0.46c-0.12-0.18-0.25-0.37-0.37-0.57l-0.05-0.23c0.34,0.47,0.65,0.94,0.95,1.42
				l-0.09,0.02c-0.17-0.24-0.35-0.51-0.44-0.64c0.12,0.21,0.25,0.43,0.38,0.65l-0.11,0.02c0.53,0.86,1.05,2.05,1.44,2.17
				c0.02,0.03,0.04,0.05,0.06,0.08c0.38,0.81,0.72,1.65,1.09,2.47c0.1-0.01,0.43,0.47,0.83,1.27c-0.05-0.35-0.61-1.2-0.57-1.03
				l-0.42-1l0.41,0.45c0.18,0.31,0.36,0.61,0.53,0.9c0.24,0.48,0.43,0.99,0.65,1.48l0.22,1.08c0.19,0.05,0.43,0.51,0.71,1.12
				c0.26,0.62,0.51,1.4,0.8,2.1l0.27,0.13l0.26,1c0.1,0.16,0.21,0.32,0.31,0.48c-0.26-0.52-0.04-0.44,0.02-0.31
				c0.03,0.26,0.04,0.53,0.05,0.79l0.66,1.55l-0.02-0.26l0.36,0.8c0.15,0.53,0.32,1.37,0.52,1.56c0-0.29,0-0.59-0.01-0.89
				c0.33,1.26,0.54,2.25,0.6,3.01c0.59,1.68,0.1-0.52,0.42,0.12c0.23,0.72,0.13,1.21,0.42,2.05l-0.01-1.12
				c-0.13-0.39-0.31-0.77-0.46-1.15l0.26-0.11c0.18,0.68,0.31,1.36,0.43,2.05l-0.03,0.8c0.13,0.51,0.41,1.61,0.6,1.9l0.45,1.97
				c0.24,0.85,0.26,0,0.2-0.46l0.19,0.21l0.05,1.14c0.34,1.14,0.48,2.02,0.7,2.38c0.31,0.4,0.35,2.1,0.54,2.48
				c0.04-0.42,0.05-0.84,0.08-1.27c0.21,0.37,0.39,1.1,0.47,2.26c0.15-0.24,0.37,0.29,0.52,0.62c-0.12-1.94-0.82-4.22-0.84-5.53
				c0.09,0.02,0.33,0.06,0.11-1.08l0.1,0.11c0.24,0.45,0.39,1.61,0.36,2.21l0.26,0.44c0.12,0.68,0.2,1.63,0.01,1.49l0.2,0.05
				c0.06,0.42,0.07,0.84,0.1,1.26l-0.28,0.06l0.25,1.49l0.1-1.11l0.17,1.38l0.15-0.24l-0.32-2.61l0.26,0.02
				c-0.04-2.56,0.46,0.86,0.69,1.02c-0.12-1.31-0.3-2.6-0.47-3.9c0.19,0.49,0.49,1.64,0.71,2.72c0.04-0.3,0.08-0.62,0.12-0.93
				c-0.08-0.97,0.25-0.32,0.07-1.75l-0.28-1.11c-0.07,1.32-0.15,2.48-0.49-0.3c0.01-0.61,0.24,0.81,0.28,0.34
				c-0.19-1.36-0.31-0.68-0.44-1.55l0.12-0.16c0.25,0.8,0.3,0.25,0.26-0.61l0.07,0.39l0.3,0.86l0.11,0.54l0.2,0.13l-0.19-0.94
				l-0.21-0.04c-0.3-0.86-0.23-1.79-0.21-2.08l0.37,1.26l-0.05-0.68l-0.31-0.68c-0.09-1.54,0.17-1.66-0.08-3.41
				c-0.35-0.66-0.37-1.76-0.4-2.41c-0.26-0.85-0.44-1.81-0.63-2.76c-0.2-0.94-0.46-1.85-0.77-2.62l-0.13,0.32
				c-0.65-1.91-0.43-2.56-0.66-3.5c-0.94-1.08,0.3,1.63,0.28,2.64c-0.27-0.69-0.56-1.37-0.89-2.03l0.05-0.04
				c0.32,0.42-0.09-0.75-0.35-1.55c0.54,0.94,0.43,0.1,0.23-0.66l-0.41-0.75l-0.09-0.23c-0.29-0.46-0.21-0.05-0.13,0.38
				c0.06,0.44,0.1,0.89-0.21,0.52c-0.02-0.62-0.49-1.66-0.73-2.5c1.06,1.83,0.01-0.9-0.35-1.97c-0.59-1.06-1.05-2.15-1.55-3.23
				c-0.51-1.07-1.11-2.08-1.85-3.03c-0.58-1.13-1.29-2.19-1.93-3.29c-0.96-1.53-0.61-0.58-0.97-0.9c-0.04-0.07-0.1-0.15-0.11-0.17
				c-0.05-0.07-0.15-0.2-0.25-0.34c0-0.14-0.22-0.46-0.39-0.9c-0.38-0.54-0.96-1.32-0.79-0.88c0.23,0.37,0.06,0.29-0.09,0.19
				c-0.17-0.26-0.32-0.5-0.37-0.57c-0.03-0.05-0.1-0.15-0.18-0.27c-0.38-0.71-0.71-1.35-0.91-1.81c-0.53-0.47-0.86-0.69-1.34-1.12
				c-0.12-0.16-0.22-0.33-0.38-0.51c-0.17-0.2-0.42-0.46-0.66-0.71c-0.21-0.38-0.5-0.84-1.25-1.62c-0.09-0.07-0.12-0.06-0.12-0.02
				c-0.33-0.42-0.71-0.88-1-1.19c-0.14-0.15-0.85-0.97-1.03-1.17c-0.22-0.21-0.93-0.91-1.11-1.09c-0.18-0.16-0.93-0.84-1.15-1.04
				c-0.17-0.18-0.95-0.98-1.08-1.12c-0.4-0.36-0.82-0.74-1.17-1.01l-2.41-1.95c0.01-0.04-1.26-1.08-1.17-1.02
				c0.16,0.11,0.96,0.69,1.24,0.93c0.17,0.13,1.19,0.96,1.2,0.98c0,0-0.98-0.92-1.14-1.06c-0.37-0.36-0.78-0.68-1.18-1.03
				l-1.25-0.92c-0.42-0.3-0.83-0.62-1.26-0.91c-0.33-0.22-0.87-0.58-1.29-0.86c-0.17-0.13-1.02-0.79-1.24-0.95
				c-0.33-0.25-0.95-0.59-1.32-0.82c-0.39-0.25-0.9-0.65-1.28-0.89c-0.33-0.19-1.08-0.64-1.33-0.79c-0.21-0.11-1.11-0.59-1.37-0.73
				c-0.46-0.27-0.86-0.56-1.32-0.83c-0.28-0.17-1.11-0.69-1.33-0.8c-0.24-0.14-1.04-0.58-1.36-0.77c-0.19-0.09-1.24-0.58-1.4-0.66
				c-0.21-0.12-1.16-0.48-1.43-0.61c-0.24-0.12-1.21-0.6-1.4-0.7c0.06,0.02,1.42,0.59,1.44,0.59c-0.01,0-1.26-0.63-1.39-0.7
				c-0.14-0.06-1.3-0.55-1.44-0.58l-2.93-1.05c-0.04-0.05-1.49-0.6-1.44-0.59c0.08-0.01,1.37,0.45,1.48,0.48
				c0.04,0.01-0.32-0.15-0.69-0.3c-0.37-0.14-0.76-0.29-0.76-0.29c0.01,0,0.4,0.12,0.78,0.24c0.38,0.14,0.74,0.27,0.7,0.25
				c-0.12-0.07-1.2-0.52-1.45-0.59c-0.39-0.14-1.08-0.31-1.49-0.45c-0.49-0.17-0.97-0.39-1.46-0.56c-0.5-0.14-1.01-0.26-1.51-0.38
				c-0.42-0.1-1.22-0.31-1.51-0.38c0.01,0-0.07-0.03-0.2-0.07c-0.12-0.04-0.29-0.1-0.47-0.15c-0.35-0.12-0.73-0.22-0.83-0.25
				c-0.23-0.06-1.2-0.33-1.51-0.41c-0.23-0.05-1.34-0.26-1.53-0.3c-0.51-0.11-1.02-0.19-1.54-0.26l-1.54-0.22
				c-1.03-0.16-2.05-0.3-3.09-0.38c-0.33-0.06-1.25-0.21-1.54-0.26c-0.19-0.03-1.51-0.24-1.55-0.24c0-0.04,1.44,0.14,1.55,0.13
				c0.05,0,0.44,0.04,0.81,0.08c0.37,0.04,0.74,0.07,0.74,0.07c-0.01,0-1.36-0.23-1.54-0.26c-0.24-0.03-1.27-0.12-1.56-0.13
				c-0.38-0.04-1.21-0.14-1.55-0.18c-0.47-0.02-1.19-0.05-1.56-0.07c-0.24-0.02-1.26-0.04-1.56-0.03c-0.44-0.01-1.13-0.09-1.56-0.1
				c-0.6,0-0.96,0.01-1.56,0.01C84.1,0.03,83.38-0.01,82.95,0c-0.52,0.01-1.04,0.07-1.55,0.09C81,0.09,80.24,0.08,79.83,0.07
				c-0.22,0-1.37,0.14-1.55,0.16c-0.2,0.02-1.3,0.14-1.55,0.17c-0.29,0.03-1.33,0.04-1.56,0.07c-0.14,0.01-1.44,0.13-1.56,0.14
				c-0.47,0.07-1.18,0.19-1.54,0.25c-0.51,0.08-1.02,0.16-1.53,0.28l-1.52,0.32c-1.01,0.22-2.03,0.42-3.03,0.7
				c-0.36,0.07-1.22,0.23-1.54,0.29c0.04-0.01,1.39-0.37,1.5-0.4c0.21-0.06,1.51-0.38,1.51-0.38s-0.34,0.03-0.69,0.11
				c-0.36,0.07-0.74,0.14-0.85,0.16c-0.38,0.07-1.05,0.2-1.54,0.29c-0.1,0.02-1.38,0.36-1.51,0.41c-0.35,0.11-1.03,0.33-1.49,0.47
				c-0.24,0.06-1.24,0.3-1.52,0.37c-0.4,0.11-1.06,0.36-1.47,0.5c-0.47,0.16-1.03,0.29-1.5,0.44c-0.42,0.12-1.18,0.35-1.5,0.44
				c-0.37,0.1-1.02,0.34-1.49,0.5c-0.26,0.11-1.13,0.49-1.43,0.62c-0.48,0.19-1,0.32-1.47,0.53c-0.25,0.12-1.21,0.59-1.4,0.69
				l-1.4,0.69c-0.25,0.11-1.06,0.55-1.38,0.72c-0.18,0.08-1.27,0.59-1.42,0.66c-0.35,0.16-0.98,0.45-1.42,0.66
				c-0.25,0.13-1.05,0.66-1.33,0.82c-0.42,0.24-0.97,0.49-1.39,0.73c-0.28,0.16-1.12,0.69-1.31,0.84c-0.34,0.24-0.85,0.59-1.29,0.88
				c-0.07,0.04-0.26,0.15-0.47,0.28c-1.55,1.07-2.9,2.23-4.38,3.05c-0.12,0.08-0.23,0.16-0.3,0.21c-0.33,0.25-0.85,0.73-1.19,1
				c-0.37,0.29-0.91,0.64-1.27,0.92c-0.31,0.23-0.95,0.83-1.17,1.03c-0.17,0.16-0.93,0.86-1.14,1.06c-0.39,0.34-0.84,0.65-1.22,0.98
				c0.08-0.08,1.15-1.06,1.15-1.06c-0.01,0.01-1.11,0.89-1.23,0.98c-0.13,0.12-0.31,0.31-0.49,0.49c0.34-0.12,0.67-0.24,1.02-0.34
				c-1,0.73-2,1.49-2.92,2.11c-0.35,0.34-0.62,0.65-0.96,1.02c-0.3,0.29-0.81,0.79-1.13,1.09c-0.37,0.38-0.67,0.78-1.04,1.16
				c-0.31,0.32-0.73,0.75-1.04,1.09c-0.26,0.35-0.64,0.84-1.18,1.5l-0.24,0.25c-0.22,0.27-0.45,0.57-0.57,0.73
				c-0.26,0.33-0.74,0.85-1.01,1.19c-0.13,0.16-0.3,0.4-0.46,0.63c-0.16,0.6-0.34,1.17-0.48,1.78c-1.53,1.78-2.82,2.86-4.06,4.56
				c-0.15,0.25-0.31,0.51-0.42,0.69c-0.55,0.88-1,1.83-1.51,2.74c-0.12,0.19-0.27,0.42-0.41,0.66c-0.52,1.05-0.93,2.22-1.41,3.28
				c-0.48,1.06-0.92,2.08-1.37,2.9L8.1,49.1c-1.23,2.35-1.68,2.64-2.1,2.87L5.95,52.1c-0.1,0.29-0.39,1.09-0.53,1.47
				c-0.07,0.15-0.57,1.3-0.63,1.44c-0.14,0.36-0.38,1-0.56,1.46c-0.08,0.27-0.36,1.19-0.45,1.5c-0.07,0.18-0.14,0.37-0.21,0.56
				L3.56,58.7c-0.14,0.32-0.26,0.65-0.39,0.98c-0.14,0.42-0.3,0.87-0.42,1.28c-0.13,0.51-0.25,1.02-0.38,1.52
				c-0.16,0.5-0.31,1.01-0.43,1.51c-0.08,0.32-0.14,0.67-0.2,1.01l0.08-0.13c0.11-0.41,0.23-0.86,0.23-0.86S2,64.33,1.92,64.69
				l0.62-1.06c-0.08,0.85-0.29,1.84-0.53,2.89c-0.25,1.04-0.45,2.15-0.67,3.19c-0.1,0.52-0.2,1.03-0.29,1.5
				c-0.06,0.48-0.11,0.93-0.14,1.33c-0.05,0.81-0.02,1.43,0.17,1.76c-1,5.62-1.36,12.78-0.36,18.27c0.09,2.17,0.14,4.35,0.39,6.53
				c0.39,0.8,0.72,1.61,1.16,2.39c-0.13,1.77,0.16,3.34,0.71,4.81c0.51,1.48,1.13,2.9,1.6,4.47l-0.16,1.7
				c0.21,0.8,0.64,1.62,1.06,2.47c0.44,0.84,0.89,1.69,1.37,2.46c0.94,1.54,1.63,2.89,1.47,3.65c1.5,3.69,3.67,6.82,5.81,9.76
				c2.21,2.9,4.33,5.66,6.16,8.7l1.23,1.16l1.28,1.11c0.86,0.73,1.69,1.49,2.59,2.16c0.61,0.76,1.24,1.54,1.85,2.3
				c0.62,0.74,1.23,1.46,1.79,2.13c0.31,0.25,0.68,0.55,0.77,0.63c0.26,0.22,0.88,0.67,1.25,0.95l0.87,0.64
				c0.05-0.07,0.15-0.11,0.39-0.04c1.3,1.23,2.98,2.24,4.58,3.28c1.67,0.94,3.27,1.92,4.67,2.78c2.25,1.5,2.23,1.79,1.97,1.97
				c0.18,0.1,0.35,0.2,0.5,0.28c0.21,0.12,1.11,0.62,1.38,0.77c0.23,0.11,1.25,0.59,1.43,0.67c0.15,0.07,0.3,0.15,0.46,0.21
				c0.18-0.27,0.38-0.49,2.51,0.48c0.65,0.51,1.51,1.09,2.49,1.64c0.16,0.06,0.29,0.1,0.34,0.12c0.26,0.09,1.13,0.41,1.48,0.53
				c0.41,0.17,1.02,0.46,1.46,0.6c0.32,0.1,1.24,0.37,1.51,0.46c0.47,0.18,1.12,0.43,1.48,0.56c0.32,0.12,1.07,0.37,1.5,0.5
				c0.34,0.08,1.15,0.29,1.53,0.38c0.51,0.14,0.99,0.36,1.51,0.47c0.51,0.12,1.02,0.3,1.53,0.42c0.5,0.1,1.05,0.21,1.55,0.3
				c-0.12-0.03-1.51-0.41-1.53-0.42c0.03,0.01,1.36,0.27,1.55,0.31c0.38,0.08,1.06,0.19,1.55,0.26c0.27,0.06,1.23,0.27,1.54,0.34
				c0.44,0.06,1.14,0.17,1.56,0.23c0.51,0.09,1.1,0.19,1.56,0.27c0.56,0.09,1.09,0.18,1.56,0.26c0.52,0.08,1.04,0.18,1.56,0.25
				l1.57,0.18c0.42,0.05,1.05,0.12,1.57,0.18c0.1,0.02,1.44,0.05,1.58,0.04c0.24,0,1.27-0.01,1.57-0.01
				c0.32,0.02,1.31,0.08,1.58,0.1c-0.04,0-1.57,0.01-1.57,0.01s0.37,0.03,0.75,0.05c0.38,0.02,0.78,0.04,0.83,0.05
				c0.53,0.03,1.05,0.06,1.58,0.05c0.18-0.01,1.48-0.08,1.58-0.09c-0.1,0-1.55-0.02-1.58-0.02c0.03,0,1.39-0.08,1.57-0.09
				c0.37-0.02,1.4-0.07,1.57-0.09c0.05-0.01-0.34-0.01-0.75-0.01c-0.41,0-0.83-0.01-0.83-0.01s0.34-0.03,0.7-0.04
				c0.37-0.02,0.76-0.04,0.86-0.05c0.33-0.02,1.11-0.11,1.56-0.16l1.56-0.17c0.03,0,1.48-0.06,1.58-0.07
				c-0.15,0.05-1.22,0.14-1.57,0.18c-0.37,0.04-1.38,0.15-1.56,0.17c0.09,0,1.52-0.06,1.58-0.06c0.04,0-0.35,0.04-0.75,0.08
				s-0.81,0.09-0.81,0.09s0.37-0.01,0.75-0.03c0.38-0.02,0.78-0.04,0.83-0.03c0.52-0.06,1.05-0.11,1.57-0.18l1.56-0.25
				c0.36-0.06,1.09-0.17,1.56-0.25c0.26-0.03,1.27-0.11,1.58-0.17c0.41-0.07,1.1-0.25,1.54-0.33c0.21-0.03,1.43-0.2,1.57-0.22
				c-0.1,0.02-1.53,0.32-1.55,0.33c0,0,1.51-0.21,1.57-0.22c0.4-0.06,1.24-0.31,1.53-0.38l1.53-0.4l1.53-0.41l1.51-0.48
				c0.35-0.08,1.23-0.3,1.54-0.37c0.2-0.03,1.53-0.4,1.53-0.4c0.01,0.03-1.6,0.54-1.49,0.51c0.2-0.04,1.17-0.28,1.54-0.41
				c0.28-0.08,1.15-0.34,1.52-0.45c0.17-0.06,1.33-0.5,1.48-0.55c0.5-0.17,0.97-0.41,1.46-0.61c0.36-0.15,0.99-0.43,1.45-0.63
				c0.21-0.09,1.23-0.41,1.49-0.53c0.39-0.17,1.01-0.51,1.42-0.7c0.5-0.2,0.97-0.4,1.47-0.6c0.47-0.2,0.95-0.49,1.4-0.73
				c0.48-0.22,0.96-0.45,1.44-0.67c0.47-0.24,0.91-0.53,1.38-0.77c0.38-0.2,1.05-0.53,1.41-0.73c0.34-0.21,1.09-0.67,1.34-0.83
				c0.44-0.28,0.9-0.54,1.33-0.85c0.3-0.21,0.91-0.63,1.31-0.9c0.22-0.13,1.1-0.65,1.36-0.8c0.37-0.22,0.91-0.68,1.27-0.94
				c0.43-0.3,0.9-0.57,1.33-0.87l-1.26,0.96c-0.37,0.28-0.99,0.75-1.27,0.94c-0.09,0.06-0.41,0.28-0.72,0.49
				c-0.3,0.21-0.58,0.4-0.58,0.4s1.24-0.73,1.37-0.8c0.33-0.19,0.95-0.71,1.27-0.94c0.47-0.32,0.86-0.54,1.33-0.87
				c0.18-0.13,1.11-0.84,1.25-0.96c0.21-0.18,0.93-0.78,1.21-1.02c0.33-0.24,0.94-0.68,1.29-0.93c0.34-0.25,0.85-0.75,1.18-1.05
				c0.41-0.35,0.83-0.64,1.24-0.99c0.35-0.3,0.81-0.77,1.16-1.08c0.39-0.34,0.8-0.7,1.19-1.04c0.39-0.36,0.81-0.69,1.19-1.05
				c0.31-0.29,0.82-0.85,1.09-1.15c-0.37,0.38-0.78,0.72-1.17,1.07c0.01-0.01,0.24-0.24,0.5-0.51c0.27-0.26,0.52-0.57,0.59-0.63
				c0.13-0.14,0.91-1.01,1.05-1.18c0.24-0.24,0.96-0.93,1.14-1.11c0.29-0.26,0.95-1.01,1.1-1.15c0.04-0.04-0.21,0.27-0.47,0.58
				c-0.26,0.31-0.53,0.63-0.54,0.64c0,0,0.27-0.26,0.53-0.55c0.26-0.28,0.54-0.57,0.57-0.61c0.21-0.26,0.84-1.03,1-1.23
				c0.33-0.41,0.67-0.81,0.98-1.24l0.94-1.27l0.93-1.27c0.27-0.34,0.59-0.85,0.9-1.3c0.13-0.17,0.8-1.04,0.97-1.25
				c0.31-0.43,0.57-0.89,0.87-1.32c0.28-0.45,0.53-0.92,0.81-1.36c0.27-0.42,0.64-0.88,0.91-1.3c0.07-0.08,0.88-1.29,0.9-1.36
				c0.02-0.02-0.18,0.34-0.38,0.71c-0.22,0.35-0.42,0.71-0.42,0.71c0.01-0.01,0.2-0.28,0.41-0.58c0.21-0.31,0.42-0.66,0.5-0.79
				c0.05-0.09,0.74-1.39,0.83-1.57c0.16-0.29,0.8-1.31,0.93-1.57c0.17-0.32,0.67-1.22,0.87-1.64c0.1-0.22,0.61-1.38,0.69-1.57
				c0.11-0.22,0.51-1.31,0.6-1.55c0.15-0.35,0.6-1.37,0.74-1.68c0.2-0.51,0.41-1.12,0.51-1.51c0.07-0.23,0.33-1.15,0.41-1.45
				c0.14-0.4,0.47-1.3,0.61-1.68c0.17-0.55,0.37-1.23,0.51-1.7c0.04-0.15,0.48-1.59,0.49-1.7c0.1-0.42,0.19-1.02,0.22-1.3
				c0.04-0.32,0.17-1.15,0.15-1.24c0.06-0.24,0.25-1.21,0.33-1.6c0.08-0.33,0.26-1.23,0.28-1.6c0.03-0.28-0.01-0.77,0.01-1.05
				c0.03-0.33,0.18-1.19,0.19-1.51c0.02-0.39-0.05-0.53-0.04-0.89c0-0.29,0.09-1.13,0.08-1.4c0-0.16-0.1-0.66-0.12-0.74
				c0-0.03-0.01-0.07-0.02-0.12c0-0.16-0.02-0.22-0.05-0.23c-0.03-0.12-0.05-0.23-0.06-0.3c-0.01-0.13,0-0.37,0-0.61l0.01-0.03
				c0.17-1.7,0.18-2.99,0.08-3.66c-0.2-0.79,0.24-2.95,0.07-3.62l-0.44,1.52c-0.16-0.66-0.16-1.71-0.03-3.28
				c-0.23,0.18-0.42-0.68-0.57-1.22c-0.02,0.96-0.04,2.02-0.07,3.07c-0.03,1.05-0.01,2.08-0.12,2.95c-0.07,0.02-0.15,0.06-0.2,0.04
				c-0.02-0.01-0.05-0.15-0.09-0.29c0.07-0.22,0.17-0.51,0.18-0.9c-0.07,0.05-0.16,0.31-0.26,0.62c0-0.01-0.01-0.02-0.01-0.02
				c-0.02-0.04-0.07,0.01-0.12,0.06c-0.05-0.25-0.1-0.5-0.17-0.76c0.04-0.93,0.2-2.15,0.4-1.81l-0.24-0.24l0.16-1.64l0.36,0.15
				c-0.01-0.7-0.06-1.39-0.09-2.09l-0.29,1.31l-0.01-1.86L163.78,85.86z M157.62,56.25c-0.02-0.02-0.04-0.02-0.06-0.03
				c-0.04-0.17-0.09-0.42-0.13-0.59c0.04,0.03,0.08,0.05,0.13,0.06c0.04,0.08,0.08,0.16,0.15,0.3l0.12,0.55
				C157.73,56.41,157.65,56.29,157.62,56.25z M157.95,57.44c0.02,0.03,0.04,0.08,0.05,0.09c0.01,0.02-0.01,0-0.02,0.01L157.95,57.44
				z M161.05,55.92l0.28,0.94l0.31,0.71l-0.59-0.95C161.23,56.66,160.47,54.75,161.05,55.92z M158.85,60.39
				c-0.37-0.9-0.46-1.58-0.6-2.2l0-0.01c0.09,0.05,0.23,0.16,0.25,0.12c0.18,0.71,0.14,1.24,0.47,2.27
				c-0.03-0.44-0.01-1.02,0.31-0.07C159.55,61.64,159.09,60.84,158.85,60.39z M160.31,59.43l0.17,0.82l-0.6-1.33
				C159.71,58.1,160.19,59.16,160.31,59.43z M162.58,63.92c-0.04-0.19-0.11-0.4-0.19-0.63l-0.06-0.19l-0.06-0.72
				c0.15,0.57,0.3,1.1,0.37,1.56C162.6,63.88,162.58,63.87,162.58,63.92z M161.08,66.12c-0.29-0.58-0.27,0.19-0.24,0.78l-0.42-1.27
				c0.26-0.01,0.06-1.63,0.5-0.8l0.3,1.71c0.19,0.62,0.43,1.23,0.59,1.86l-0.12,0.16C161.53,67.75,161.28,66.94,161.08,66.12z
				 M162.01,66.18c0,0,0.36,0.87,0.38,0.98c0.08,0.22,0.32,1.12,0.35,1.32c0.04,0.18,0.29,1.32,0.3,1.34c0-0.01-0.07-0.23-0.14-0.5
				c-0.07-0.26-0.15-0.54-0.18-0.62c-0.11-0.37-0.21-0.7-0.33-1.03c-0.12-0.39-0.25-0.84-0.37-1.21c0.04,0.13,0.31,0.75,0.37,0.95
				C162.37,67.28,162.01,66.23,162.01,66.18z M161.8,71.38L161.8,71.38c-0.08-0.19-0.15-0.41-0.22-0.63
				c-0.03-0.26-0.06-0.55-0.12-0.9c0.02,0,0.04-0.02,0.05-0.08l0-0.19c-0.14-0.31-0.17-0.79-0.19-1.1l0.01-0.01
				C161.76,69.68,161.75,70.47,161.8,71.38z M162.25,71.1l-0.21-1.82l0.14,0.16l-0.05-0.65l0.22,1.14l0.06-0.03
				C162.52,71.02,162.37,71.03,162.25,71.1z M163.99,66.63l0.14,0.82l-0.31-0.1C163.54,66.22,163.75,66.19,163.99,66.63z
				 M163.87,69.86l-0.45,0.11c0-0.63-0.21-1.4-0.41-2.18c-0.23-0.77-0.45-1.54-0.43-2.21c0.2,0.42,0.45,1.13,0.7,1.91
				C163.51,68.28,163.71,69.15,163.87,69.86z M161.33,54.62c0.56,1.44,0.2,1.55,0.8,3.1c0.38,0.25,0.31-0.07,0-1.4l0.6,1.76
				l0.13,1.08c0.67,1.08,0.58,2.12,0.82,3.26l-0.1,0.36c0.1,0.4,0.19,0.8,0.26,1.2l0.21,0.03l0.19,0.59
				c-0.22-0.12-0.57-0.84-0.82-1.88l-0.21-0.21c0.13,0.52,0.27,1.05,0.37,1.58l0.11-0.08l0.12,1.19l-0.33-1.31
				c-0.26-0.35-0.29,0.14-0.73-1.01c-0.34-1.33-0.76-1.64-0.94-2.82c-0.87-2.35,0.33,0.02-0.03-1.34c0.11,0.36,0.23,0.72,0.33,1.08
				c1.66,6.88,0.98,1.77,0.59,1.02l0.16,0.06c0.12,0.66,0.57,1.92,0.61,1.6l-0.35-1.71c-0.16-0.06-0.53-1.37-0.81-2.02
				c-0.26-1.17-0.83-2.52-1.26-3.86l-0.13-0.19l-0.43-1.34C160.81,54.3,161.1,54.53,161.33,54.62z M159.9,50.77
				c0.4,0.68,0.62,1.61,0.66,1.99l-0.16-0.04C160.05,51.73,159.5,50.32,159.9,50.77z M158.98,48.8c0.05,0.3,0.09,0.52-0.01,0.44
				c-0.06-0.24-0.12-0.48-0.16-0.61c0.01-0.03,0.01-0.07,0.02-0.1L158.98,48.8z M156.66,43.53c0.22,0.29,0.45,0.57,0.66,0.86
				c0.61,1.03,0.57,1.55,1.19,2.67l0.19-0.11c0.43,0.9,0.51,1.37,0.14,0.88l-1.13-1.91l0.09,0.41c-0.14-0.31-0.29-0.63-0.35-0.76
				c-0.02-0.06-0.05-0.13-0.07-0.19l-0.16-0.87c-0.11-0.14-0.22-0.27-0.34-0.4l-0.28-0.62L156.66,43.53z M4.55,58.03l-0.01,0.37
				c-0.14,0.28-0.3,0.56-0.43,0.84C4.11,58.88,4.47,58.2,4.55,58.03z M4.45,61.96l0.01,0.5c-0.17,0.38-0.36,0.76-0.51,1.16
				C3.91,63.11,4.35,62.19,4.45,61.96z M3.09,68.01l-0.17,1.36l-0.57,0.84C2.58,69.31,2.66,68.63,3.09,68.01z M1.06,89.55
				c0.26,0.97-0.16,2.1,0.19,3.32l-0.07,0.05C0.96,91.91,0.77,89.46,1.06,89.55z M158.91,110.24c0.01,0.14,0.01,0.23-0.17,0.85
				l-0.17,0.14L158.91,110.24z M160.93,111.16c-0.07,0.24-0.15,0.38-0.22,0.52c-0.05,0.18-0.11,0.36-0.17,0.54
				c0.08-0.28-0.22,0.39-0.07-0.05c0.04-0.07,0.09-0.14,0.13-0.22l0.01-0.14c0.09-0.34,0.19-0.36,0.32-0.7
				c-0.06,0.08-0.14,0.17-0.06-0.07C160.98,110.77,160.95,111.03,160.93,111.16z M159.86,109.16l-0.27,0.23l0.32-0.97
				C160.04,108.3,160.11,108.52,159.86,109.16z M163.04,101.46c-0.01,0.33,0.13,0.04,0.23-0.19l-0.1,0.63
				c-0.09-0.1-0.33,0.56-0.33,0.08l0.22-0.74l0.14-0.91l0.07-0.02L163.04,101.46z M160.28,96.92l-0.29,2.49
				C159.65,99.22,159.68,98.51,160.28,96.92z M162.14,96.9c-0.22,0.55-0.17,1.68-0.45,2.21c-0.01-0.52,0.13-1.6,0.24-2.35
				L162.14,96.9z M160.52,95.98C160.52,95.98,160.51,95.99,160.52,95.98c0.01-0.05,0.04-0.14,0.08-0.24
				C160.57,95.82,160.54,95.91,160.52,95.98z M162.49,90.39c-0.12,0.49-0.2,0.48-0.32,0.56l0-0.41
				C162.33,90.16,162.45,89.87,162.49,90.39z"/>
		</g>
	</g>
</g>
</svg>
