<?xml version="1.0" encoding="utf-8"?>
<!-- Generator: Adobe Illustrator 24.0.2, SVG Export Plug-In . SVG Version: 6.00 Build 0)  -->
<svg version="1.1" id="Layer_1" xmlns="http://www.w3.org/2000/svg" xmlns:xlink="http://www.w3.org/1999/xlink" x="0px" y="0px"
	 viewBox="0 0 84.66 190.61" style="enable-background:new 0 0 84.66 190.61; fill: #b44370;" xml:space="preserve">
<style type="text/css">
	.st0{fill:#FFFFFF;}
</style>
<g>
	<g>
		<g>
			<path d="M72.28,146.34c0-0.01-0.07-0.71-0.07-0.75c-0.01,0.08-0.05,0.64-0.05,0.75c0,0.14,0.06,0.65,0.07,0.75
				c0.01,0.1,0.07,0.75,0.07,0.75c0.02,0,0.03-0.7,0.05-0.75c0-0.25,0.06-0.5,0.05-0.76c0-0.1-0.07-0.69-0.07-0.75
				C72.33,145.64,72.28,146.33,72.28,146.34z"/>
			<path d="M81.27,189.38c0.11-0.52-0.12-0.87-0.3-0.88l-0.05,0.87L81.27,189.38z"/>
			<path d="M80.32,190.58c-0.01-0.58-0.04-0.68-0.14-0.87l-0.09,0.87L80.32,190.58z"/>
			<path d="M76.39,186.24l-0.14,0.38l0.24,0.38C76.62,186.98,76.46,186.43,76.39,186.24z"/>
			<path d="M82.8,184.36c-0.1-0.68-0.05-0.61-0.3-1.1l-0.06,0.48L82.8,184.36z"/>
			<path d="M78.88,190.51c0.02-0.79-0.31-0.38-0.39-0.36C78.61,190.42,78.73,190.79,78.88,190.51z"/>
			<path d="M79.68,188.29l-0.21,1.25c-0.14,0.21-0.27,0.41-0.13,0.47l0.14-0.21C79.7,189.85,79.65,188.86,79.68,188.29z"/>
			<path d="M71.53,76.26c0,0,0.01,0.09,0.02,0.2c0.23-0.38,0.2-1.18,0-2.23c-0.01,0.22-0.03,0.5-0.04,0.52
				c-0.01,0.03-0.04-0.43-0.06-0.64l-0.03,0.01c-0.01,0.2-0.03,0.6-0.04,0.64c0.01,0.28,0.07,0.46,0.08,0.75
				c0.01,0.2-0.06,0.55-0.06,0.75c0,0.08,0.01,0.21,0.03,0.34c0.03-0.02,0.06-0.04,0.08-0.07C71.52,76.39,71.53,76.26,71.53,76.26z"
				/>
			<path d="M71,25.77c0.01-0.11,0.05-0.69,0.06-0.76c-0.01-0.09-0.08-0.75-0.08-0.75s-0.06,0.67-0.06,0.76
				c-0.01,0.19-0.06,0.55-0.06,0.75c0,0.13,0.07,0.65,0.08,0.75c0,0.05,0.02,0.24,0.04,0.42c0.02,0.18,0.04,0.34,0.04,0.34
				c0.02,0,0.04-0.71,0.06-0.76C71.07,26.26,71,26.02,71,25.77z"/>
			<path d="M83.66,122.82c0.03,0.24,0.05,0.5,0.08,0.74c0.01,0.05,0.02,0.24,0.04,0.41c0.02,0.17,0.04,0.33,0.04,0.33
				s0.04-0.67,0.05-0.77c0-0.04-0.07-0.66-0.08-0.74c-0.01-0.2,0.05-0.55,0.05-0.76c-0.01-0.25-0.07-0.49-0.08-0.74
				c-0.02,0.25-0.03,0.52-0.05,0.77c0,0.05-0.01,0.24-0.02,0.42C83.68,122.66,83.66,122.82,83.66,122.82z"/>
			<path d="M71.55,54.78c0,0-0.06,0.71-0.06,0.76c0,0.25,0.07,0.5,0.08,0.75c0-0.03,0.06-0.76,0.06-0.76S71.55,54.79,71.55,54.78z"
				/>
			<path d="M84.03,131.08c-0.01-0.26-0.07-0.48-0.08-0.74c0,0.04-0.05,0.76-0.05,0.76c0,0.03,0.08,0.74,0.08,0.74
				S84.03,131.12,84.03,131.08z"/>
			<path d="M1.8,3.9c0.05,0.05,0.12,0.08,0.19,0.13c0.07,0.01,0.14,0.02,0.2,0.03C2.08,4,2.02,3.92,2.05,3.82L1.8,3.9z"/>
			<path d="M5.46,5.51L5.36,5.5c-0.12,0-0.23-0.01-0.33-0.02C5.05,5.5,5.04,5.52,5,5.54c0.23,0.08,0.49,0.14,0.78,0.18L5.46,5.51z"
				/>
			<path d="M0.86,1.92l0.05,0.28c1.06,0.1,1.03-0.05,1.35-0.16L0.86,1.92z"/>
			<polygon points="4.84,0.56 4.61,0.52 4.27,0.62 4.84,0.71 			"/>
			<path d="M2.89,4.55l0.3,0.14c0.11-0.01,0.56-0.06,0.26-0.2L2.89,4.55z"/>
			<polygon points="4.11,0.79 3.47,0.64 3.7,0.83 			"/>
			<path d="M3.57,1L3.31,0.96c0.54,0.36-1.08,0.22-0.65,0.51C3.55,1.69,3.74,1.25,3.57,1z"/>
			<path d="M3.37,3.06L2.92,3.17c0.17,0.01,0.52-0.01,0.55-0.09L3.37,3.06z"/>
			<path d="M2.72,1.95C2.5,1.76,2.36,1.77,2.15,1.72l0.29,0.25L2.72,1.95z"/>
			<path d="M0,3.14l0.4,0.18c0.15-0.02,0.75-0.08,0.35-0.26L0,3.14z"/>
			<path d="M5.46,6.11C5.74,6.19,6.11,6.2,6.47,6.19C6.1,6.13,5.74,6.09,5.38,6.06C5.42,6.07,5.45,6.09,5.46,6.11z"/>
			<path d="M1.86,0.08l-0.01,0C1.84,0.08,1.85,0.08,1.86,0.08L1.86,0.08z"/>
			<path d="M2.64,3.38C2.48,3.24,2.32,3.1,2.28,3.22l0.16,0.14C2.41,3.56,3.15,3.61,3.59,3.7L2.64,3.38z"/>
			<path d="M7.39,6.3C7.33,6.33,7.43,6.59,7.79,6.62C7.8,6.51,7.58,6.33,7.39,6.3z"/>
			<path d="M5.76,2.49C5.8,2.45,5.6,2.19,5.24,2.18C5.29,2.3,5.56,2.47,5.76,2.49z"/>
			<path d="M12.36,6.62l-0.98,0.04C12.06,7.04,12.33,6.98,12.36,6.62z"/>
			<path d="M71.33,44.78c0.07,1.06,0.21,1.01,0.36,1.31l-0.1-1.41L71.33,44.78z"/>
			<path d="M71.56,38.15c-0.26,0.59-0.38-1.04-0.59-0.56c-0.07,0.91,0.38,1.03,0.59,0.82L71.56,38.15z"/>
			<path d="M70.95,42.98c-0.04-0.05-0.27,0.09-0.25,0.46C70.81,43.42,70.94,43.18,70.95,42.98z"/>
			<path d="M71.78,59.87c-0.07,0.19-0.12,0.62-0.07,0.78C71.75,60.62,71.89,60.12,71.78,59.87z"/>
			<path d="M79.14,189.64l-0.15-1.77l0.37,0.11c0.46-1.76,0.49,1.26,0.98,0.9c0.15-0.36,0.42-0.77,0.7-1.19
				c0.06-0.62,0.42-0.1,0.42-1.03l-0.18-0.78l-0.05,0.11l0.05,0.26l-0.08-0.18c-0.31,0.68-0.61,1.11-0.55-0.56
				c0.15-0.36,0.15,0.58,0.32,0.32c0.01-0.1,0.01-0.18,0-0.25l-0.05-0.11c0.02,0.01,0.03,0,0.04-0.01c-0.02-0.16-0.06-0.24-0.11-0.3
				l0,0c0.06-0.07,0.1-0.19,0.15-0.31c0.03,0.06,0.06,0.07,0.09,0.09c0.02-0.13,0.05-0.18,0.1-0.01c0.09-0.06,0.18-0.24,0.26-0.49
				l0,0.26l0.01,0.03c-0.01,0.03-0.03,0.07-0.04,0.09c-0.06,0.17-0.13,0.31-0.2,0.44l-0.01,0.05c0.12-0.06,0.23-0.15,0.35-0.25
				l0.08,0.26l0.02,0.37l0.25,0.16l-0.02-0.62l-0.28-0.11c-0.01-0.03-0.01-0.05-0.02-0.07l0.18-0.15c0.07-0.17,0.14-0.36,0.2-0.56
				l0.08,0.38l0.1-0.42l-0.1-0.21c0.05-0.14,0.09-0.28,0.14-0.42c0.05-0.16,0.1-0.33,0.15-0.5c-0.02,0.05-0.05,0.11-0.07,0.14
				l-0.19-0.1c0.01-0.68,0.19-1.61,0.44-1.19c0.04,0.24,0.02,0.48-0.03,0.7c0.15-0.21,0.28-0.45,0.37-0.91
				c-0.04-0.08-0.07-0.17-0.08-0.26c0.07-0.13,0.17-0.32,0.2-0.36c0.04-0.07,0.1-0.19,0.15-0.31c-0.1-0.12-0.2-0.35-0.16-0.63
				l-0.1-0.1l-0.04,0.51l0.09,0l-0.11,0.36l-0.01-0.43c-0.11-0.15-0.24-0.03-0.31-0.44c0.03-0.43-0.19-0.62-0.09-0.97
				c-0.06-0.82,0.21,0.08,0.28-0.35l-0.02,0.36c-0.23,2.22,0.32,0.69,0.2,0.41l0.1,0.05c-0.05,0.2,0.01,0.64,0.1,0.56l0.1-0.53
				c-0.1-0.05-0.11-0.49-0.13-0.72c0.11-0.35,0-0.84,0.07-1.28l-0.03-0.08l0.07-0.43c-0.03,0.3,0.1,0.43,0.22,0.51
				c-0.02,0.49-0.25,0.43-0.22,0.97c0.2,0.16,0.22,0.06,0.32-0.35l0,0.59l-0.16,0.3c0.23,0.44-0.03,0.69-0.09,1.05l-0.14,0.07
				l-0.04,0.38l0.14,0.05l0.01,0.04c0.01-0.04,0.03-0.07,0.04-0.11c0.04-0.11,0.09-0.63,0.13-0.76c0.06-0.21,0.16-0.34,0.22-0.58
				c0.03-0.12,0.09-0.69,0.11-0.8c0.01-0.12,0.07-0.67,0.09-0.82c0.03-0.14,0.16-0.55,0.19-0.66c0.03-0.09,0.15-0.55,0.17-0.7
				c0.04-0.27,0.02-0.58,0.05-0.85c0.03-0.21,0.12-0.52,0.15-0.75c0.03-0.27,0-0.6,0.02-0.86c0.02-0.27-0.02-0.6,0-0.86
				c0.02-0.27,0.1-0.52,0.12-0.8c0.02-0.28-0.04-0.58-0.03-0.86c0.01-0.28,0.08-0.54,0.09-0.83c0,0.04,0.03,0.86,0.03,0.86
				s0.08-0.8,0.09-0.85c0.01-0.19-0.05-0.73-0.06-0.87l-0.06-0.85c-0.01-0.13-0.06-0.66-0.07-0.77c0-0.15,0.04-0.65,0.05-0.76
				c0-0.06,0.05-0.74,0.05-0.77c-0.02-0.26-0.05-0.53-0.08-0.74c-0.02-0.18-0.06-0.65-0.08-0.74c-0.01-0.03-0.01,0.17-0.02,0.36
				c-0.01,0.2-0.02,0.4-0.02,0.4c-0.01,0-0.03-0.2-0.04-0.4l0.15-1.79c0.03-0.58-0.05-0.71-0.16-0.75c0-0.03-0.01-0.06-0.01-0.08
				c0-0.11,0.04-0.71,0.05-0.76c0.01-0.05,0.08,0.74,0.08,0.74c0.02,0,0.03-0.81,0.05-0.77c0.02,0.06,0.06,0.58,0.08,0.74
				c0.01,0.05,0.02,0.24,0.04,0.41c0.02,0.17,0.04,0.33,0.04,0.33c0.02,0,0.03-0.71,0.05-0.76l-0.15-1.49l-0.08-0.74l-0.08-0.74
				c-0.01-0.07-0.02-0.17-0.03-0.26c0.06-0.11,0.13-0.21,0.19-0.3c-0.07-0.19-0.14-0.35-0.22-0.5c0.01-0.17,0.03-0.36,0.03-0.45
				c-0.01-0.25-0.07-0.49-0.08-0.74c0.02-0.28,0.03-0.48,0.05-0.77c0.01-0.15,0.05-0.6,0.05-0.77c0-0.21-0.08-0.54-0.08-0.74
				c0-0.17,0.04-0.64,0.05-0.76c0.01-0.14,0.03-0.72,0.05-0.77c0.02-0.04,0.06,0.75,0.08,0.74c0.02,0,0.03-0.71,0.05-0.76
				c0-0.25,0.05-0.51,0.05-0.77c0-0.1-0.07-0.68-0.08-0.74c0,0.05-0.05,0.75-0.05,0.77c0,0-0.02-0.2-0.04-0.39s-0.03-0.38-0.04-0.35
				c-0.02,0.1-0.04,0.58-0.05,0.77l-0.05,0.77c-0.01-0.28-0.07-0.46-0.08-0.74c-0.01-0.18,0.05-0.58,0.05-0.77
				c0-0.2-0.07-0.53-0.08-0.74c0-0.13,0.04-0.66,0.05-0.77c0.01-0.14,0.03-0.72,0.05-0.76c0.02-0.04,0.06,0.74,0.08,0.74
				c0,0,0.05-0.71,0.05-0.77c0-0.12-0.07-0.65-0.08-0.74c-0.02-0.23-0.06-0.56-0.08-0.74c-0.02-0.14-0.06-0.7-0.08-0.74
				c-0.02-0.04-0.03,0.76-0.05,0.76c0,0-0.07-0.68-0.08-0.74c0-0.09,0.04-0.68,0.05-0.76l0.05-0.77c0.01-0.22,0.04-0.5,0.05-0.76
				c0-0.08-0.08-0.63-0.08-0.74c0-0.11,0.04-0.67,0.05-0.77c0.01-0.09,0.05-0.65,0.05-0.76c0-0.15-0.07-0.63-0.08-0.74
				c-0.02-0.22-0.05-0.48-0.08-0.74c-0.01-0.17-0.08-0.56-0.08-0.74c-0.01-0.26,0.05-0.51,0.05-0.76c0,0.04,0.08,0.74,0.08,0.74
				s0.04-0.7,0.05-0.77c0-0.09-0.07-0.66-0.08-0.74c-0.01-0.11-0.08-0.6-0.08-0.74c-0.01-0.25,0.05-0.52,0.05-0.76
				c-0.01-0.25,0.05-0.52,0.05-0.77c0-0.2-0.08-0.53-0.08-0.74c-0.01-0.25,0.05-0.51,0.05-0.77c0-0.19-0.07-0.54-0.08-0.74
				c0-0.11,0.04-0.67,0.05-0.76c0.01-0.12,0.05-0.61,0.05-0.77c0-0.12-0.07-0.64-0.08-0.74c-0.01-0.11-0.08-0.6-0.08-0.74
				c-0.01-0.24,0.05-0.52,0.05-0.77c0,0-0.07-0.64-0.08-0.74c0-0.04,0.04-0.69,0.05-0.76c0-0.22-0.07-0.54-0.08-0.74
				c-0.01-0.26-0.06-0.53-0.08-0.74c-0.01-0.11-0.08-0.6-0.08-0.74c0-0.21,0.06-0.57,0.05-0.76c0.01,0.07,0.08,0.73,0.08,0.74
				c0,0,0.04-0.71,0.05-0.77c0-0.12-0.07-0.65-0.08-0.74c-0.02-0.22-0.06-0.48-0.08-0.74c-0.01-0.17-0.08-0.56-0.08-0.74
				c-0.01-0.25,0.05-0.51,0.05-0.76c0-0.29,0.05-0.48,0.05-0.76c-0.02,0-0.06-0.65-0.08-0.74c-0.01-0.05-0.08-0.66-0.08-0.74
				c0-0.16,0.06-0.63,0.05-0.77c-0.01-0.24-0.06-0.56-0.08-0.74l-0.16-1.48c0.02-0.03,0.03-0.79,0.05-0.76
				c0.02,0.02,0.03-0.76,0.05-0.77c0.02,0,0.06,0.69,0.08,0.74c0.02,0.05,0.06,0.75,0.08,0.74c0,0,0.04-0.66,0.05-0.76
				c0-0.04-0.07-0.66-0.08-0.74c-0.01-0.25,0.05-0.51,0.05-0.77c-0.01-0.25-0.08-0.49-0.08-0.74c-0.01-0.25,0.05-0.51,0.05-0.76
				l0.1-1.53c-0.03-0.24-0.05-0.5-0.08-0.74c-0.01-0.05-0.02-0.24-0.04-0.41c-0.02-0.17-0.04-0.33-0.04-0.33
				c-0.02,0-0.03,0.79-0.05,0.76c-0.02-0.03-0.03,0.74-0.05,0.77c0,0.01-0.02-0.16-0.04-0.33c-0.02-0.18-0.04-0.36-0.04-0.41
				l-0.08-0.74l0.05-0.77c0.01-0.19,0.05-0.52,0.05-0.76c0-0.14-0.08-0.58-0.08-0.74c0-0.17,0.04-0.61,0.05-0.76
				c0.02-0.27,0.03-0.53,0.05-0.77c0.01-0.13,0.05-0.59,0.05-0.76c0-0.1-0.07-0.66-0.08-0.74c-0.02-0.18-0.07-0.51-0.08-0.74
				c-0.01-0.12,0.05-0.62,0.05-0.76c0-0.2-0.08-0.53-0.08-0.74c0-0.17,0.06-0.61,0.05-0.77c-0.01-0.22-0.06-0.57-0.08-0.74
				c-0.03-0.23-0.05-0.47-0.08-0.74c-0.02-0.2-0.07-0.51-0.08-0.74c-0.01-0.2,0.05-0.55,0.05-0.77c-0.01-0.25-0.07-0.49-0.08-0.74
				c0.02-0.17,0.03-0.61,0.05-0.77c0.02-0.14,0.03-0.56,0.05-0.76c0-0.05,0.01-0.24,0.02-0.42c0.01-0.18,0.03-0.34,0.03-0.34
				c0,0.01,0.08,0.7,0.08,0.74c0.01-0.2,0.03-0.52,0.05-0.77c0.01-0.12,0.05-0.62,0.05-0.77c0-0.18-0.07-0.58-0.08-0.74
				c0,0.07-0.04,0.66-0.05,0.77l-0.08-0.74l-0.08-0.74c-0.01-0.11-0.08-0.59-0.08-0.74c0-0.12,0.04-0.67,0.05-0.76
				c0.02-0.24,0.03-0.49,0.05-0.77c0.01-0.21,0.05-0.53,0.05-0.77c0-0.2-0.08-0.53-0.08-0.74c-0.01-0.25,0.05-0.51,0.05-0.76
				c0-0.11-0.07-0.65-0.08-0.74c-0.02-0.22-0.06-0.48-0.08-0.74c-0.01-0.17-0.08-0.56-0.08-0.74c-0.01-0.25,0.05-0.51,0.05-0.76
				c0-0.16,0.04-0.64,0.05-0.77c0.01-0.12,0.05-0.6,0.05-0.76c0-0.11-0.07-0.66-0.08-0.74c-0.01-0.1-0.08-0.61-0.08-0.74
				c0-0.13,0.04-0.66,0.05-0.76c0.01-0.09,0.05-0.66,0.05-0.77c-0.01-0.17-0.07-0.6-0.08-0.74c-0.01-0.11-0.08-0.6-0.08-0.74
				c0-0.21,0.06-0.57,0.05-0.76c-0.01-0.29-0.07-0.45-0.08-0.74c-0.01-0.2,0.05-0.55,0.05-0.76c0-0.16-0.07-0.61-0.08-0.74
				c0,0.02-0.05,0.75-0.05,0.76c0,0.01-0.02-0.16-0.04-0.33c-0.02-0.18-0.04-0.36-0.04-0.41l-0.08-0.74
				c0.02-0.06,0.03-0.76,0.05-0.77c0,0,0.03,0.2,0.04,0.39c0.02,0.19,0.04,0.38,0.04,0.35c0.02-0.1,0.04-0.58,0.05-0.76l0.05-0.77
				c0.01-0.14,0.05-0.57,0.05-0.76c0-0.09-0.08-0.67-0.08-0.74l-0.08-0.74c-0.02-0.19-0.07-0.5-0.08-0.74
				c-0.01-0.13,0.05-0.61,0.05-0.77c-0.01-0.24-0.08-0.51-0.08-0.74c0-0.28,0.05-0.49,0.05-0.77c0-0.2-0.08-0.53-0.08-0.74
				c-0.01-0.25,0.06-0.51,0.05-0.77c0.01,0.05,0.08,0.74,0.08,0.74s0.05-0.72,0.05-0.77c-0.01-0.26-0.08-0.49-0.08-0.74
				c-0.01-0.25,0.06-0.51,0.05-0.77c-0.01-0.25-0.08-0.49-0.08-0.74c-0.01-0.26,0.05-0.51,0.05-0.77c0-0.23-0.08-0.51-0.08-0.74
				c0-0.16,0.06-0.63,0.05-0.76c-0.01-0.24-0.06-0.56-0.08-0.74l-0.08-0.74c-0.02-0.16-0.07-0.53-0.08-0.74
				c-0.01-0.16,0.05-0.58,0.05-0.76c-0.01-0.21-0.08-0.54-0.08-0.74c0-0.29,0.05-0.48,0.05-0.77c0,0.03,0.08,0.74,0.08,0.74
				s0.05-0.73,0.05-0.76c-0.01-0.17-0.07-0.62-0.08-0.74c-0.02-0.22-0.06-0.47-0.08-0.74c-0.01-0.16-0.08-0.56-0.08-0.74
				c0-0.15,0.04-0.63,0.05-0.76c0-0.1,0.05-0.77,0.05-0.77c0.02,0,0.06,0.69,0.09,0.74c0.02,0.05,0.06,0.75,0.08,0.74
				c0,0,0.05-0.71,0.05-0.76c0-0.12-0.07-0.64-0.09-0.74c-0.03-0.23-0.05-0.47-0.08-0.74c-0.02-0.2-0.08-0.51-0.08-0.74
				c-0.01-0.2,0.06-0.55,0.05-0.76c0-0.18-0.07-0.58-0.09-0.74l-0.05,0.76c0,0-0.08-0.65-0.09-0.74c0-0.05,0.04-0.67,0.05-0.76
				c0-0.2-0.08-0.53-0.08-0.74c0-0.14,0.04-0.65,0.05-0.76c0,0.02,0.08,0.73,0.09,0.74c0,0.01,0.02-0.16,0.03-0.35
				c0.01-0.18,0.02-0.38,0.02-0.42c0.01-0.1,0.05-0.63,0.05-0.76c0-0.14-0.07-0.64-0.09-0.74l-0.09-0.74
				c-0.02-0.21-0.07-0.48-0.09-0.74c-0.01-0.08,0.05-0.65,0.05-0.76c0-0.11-0.08-0.66-0.09-0.74L81.84,46l0.1-1.53l0.09,0.74
				c0.02,0.18,0.07,0.51,0.09,0.74c0.01,0.13-0.05,0.6-0.05,0.76c0.01,0.25,0.07,0.49,0.09,0.74l0.1-1.53l-0.09-0.74l-0.09-0.74
				c-0.03-0.22-0.06-0.48-0.09-0.74c-0.01-0.08,0.05-0.65,0.05-0.76c0-0.18-0.07-0.58-0.09-0.74c-0.02-0.27-0.06-0.52-0.09-0.74
				c-0.01-0.11-0.08-0.6-0.09-0.74c0-0.13,0.04-0.67,0.05-0.77c0-0.06,0.05-0.74,0.05-0.76c-0.02-0.26-0.06-0.53-0.09-0.74
				c-0.03-0.23-0.06-0.56-0.09-0.74c-0.02-0.14-0.06-0.7-0.09-0.74c-0.02-0.04-0.03,0.76-0.05,0.77c-0.02,0-0.06-0.7-0.09-0.74
				c0.02-0.14,0.03-0.66,0.05-0.77c0.02-0.1,0.03-0.7,0.05-0.76c0.02-0.04,0.07,0.74,0.09,0.74c0.02,0,0.04-0.66,0.05-0.76
				c0.02-0.18,0.04-0.53,0.05-0.77l0.1-1.53l-0.09-0.74c-0.01-0.1-0.08-0.61-0.09-0.74c0-0.13,0.04-0.66,0.05-0.77
				c0-0.06,0.05-0.72,0.05-0.76c-0.02-0.25-0.06-0.55-0.09-0.74c-0.02-0.2-0.06-0.62-0.09-0.74c-0.01-0.05-0.04,0.75-0.05,0.77
				c-0.01,0.01-0.08-0.65-0.09-0.74l-0.09-0.74c0.02-0.25,0.03-0.52,0.05-0.77c0-0.05,0.01-0.24,0.02-0.42
				c0.01-0.18,0.03-0.34,0.03-0.34c0,0.01,0.08,0.71,0.09,0.74c0.01-0.13,0.05-0.59,0.05-0.77c0-0.2-0.08-0.53-0.09-0.74
				c0-0.14,0.06-0.66,0.05-0.76c-0.02-0.25-0.06-0.54-0.09-0.74c-0.02-0.18-0.06-0.65-0.09-0.74c-0.01-0.03-0.02,0.17-0.03,0.36
				c-0.01,0.2-0.03,0.4-0.03,0.4c-0.02,0-0.06-0.7-0.09-0.74c0.02-0.26,0.03-0.5,0.05-0.77c0.02-0.26,0.04-0.51,0.05-0.76l0.05-0.77
				c0.02-0.23,0.03-0.59,0.05-0.76c0.02-0.14,0.03-0.71,0.05-0.76c0.02-0.04,0.07,0.74,0.09,0.74c0.02,0,0.04-0.66,0.05-0.77
				c0-0.04-0.08-0.72-0.09-0.74c-0.01-0.02-0.03-0.21-0.04-0.39c-0.01-0.09-0.02-0.18-0.02-0.24c-0.01-0.12-0.02-0.2-0.02-0.19
				c-0.01,0-0.01,0.1-0.01,0.21c0,0.07-0.01,0.17-0.01,0.27c-0.01,0.19-0.02,0.38-0.03,0.38c-0.01-0.01-0.03-0.18-0.04-0.36
				c-0.02-0.17-0.03-0.36-0.04-0.45C81.4,18,81.39,18.1,81.39,18.2c0,0.07-0.01,0.17-0.01,0.26c-0.01,0.2-0.02,0.4-0.03,0.4
				c-0.02-0.02-0.06-0.65-0.09-0.79l0.08-2.72l0.04-1.38c0.01-0.2,0.05-1.13,0.04-1.39c-0.01-0.22-0.09-1.13-0.1-1.29
				c-0.03-0.4-0.08-0.95-0.1-1.27c-0.02-0.23-0.08-1.2-0.1-1.25c0-0.09,0.01-0.36,0.02-0.64l0-0.21c-0.07-0.01-0.13-0.02-0.19-0.04
				c-0.12-0.02-0.23-0.04-0.31-0.06c-0.41-0.08-0.83-0.16-1.29-0.25c-0.11-0.01-1.18-0.1-1.36-0.12c-0.25-0.03-1.09-0.21-1.3-0.25
				c-0.25-0.05-0.99-0.2-1.31-0.25c-0.18-0.03-1.2-0.1-1.34-0.11l-1.33-0.11c-0.3-0.02-0.92-0.06-1.31-0.11
				c-0.03,0-0.41-0.07-0.53-0.1c-0.17-0.04-0.34-0.08-0.38-0.09c-0.11-0.02-0.61-0.15-0.75-0.17c-0.13-0.02-0.65-0.02-0.75-0.03
				c-0.22-0.01-0.48-0.01-0.75-0.03c-0.16-0.01-0.56,0-0.75-0.03c-0.25-0.03-0.5-0.14-0.75-0.17c-0.13-0.02-0.64-0.15-0.75-0.17
				c-0.13-0.03-0.57-0.14-0.75-0.17c-0.1-0.01-0.66-0.02-0.75-0.03c-0.11-0.01-0.61-0.01-0.75-0.03c-0.13-0.02-0.65-0.15-0.75-0.17
				c0.03,0,0.74,0.03,0.75,0.03c0,0-0.7-0.16-0.75-0.17c-0.13-0.02-0.64-0.02-0.75-0.03c-0.2-0.01-0.5-0.01-0.75-0.03
				c-0.1-0.01-0.62-0.15-0.75-0.17c-0.11-0.02-0.66-0.03-0.75-0.03c-0.12,0-0.59-0.01-0.75-0.03c-0.22-0.03-0.53-0.14-0.75-0.17
				c-0.2-0.03-0.54,0-0.75-0.03c-0.24-0.03-0.51-0.13-0.75-0.17c-0.29-0.05-0.46-0.13-0.75-0.17c-0.2-0.03-0.54,0-0.75-0.03
				c-0.26-0.03-0.49-0.14-0.75-0.17c-0.12-0.02-0.65-0.02-0.75-0.03c-0.1,0-0.61-0.01-0.75-0.03c-0.13-0.02-0.64-0.15-0.75-0.17
				c-0.07-0.02-0.68-0.16-0.75-0.17c-0.22-0.02-0.59-0.02-0.75-0.03l-1.49-0.06c-0.16-0.05-0.61-0.12-0.75-0.17
				c-0.09-0.03-0.75-0.15-0.75-0.17c0-0.02,0.7,0.04,0.75,0.03c0.05-0.02,0.75,0.05,0.75,0.03c0-0.02-0.66-0.14-0.75-0.17
				c0.03,0.01-0.16,0-0.35-0.01c-0.19-0.01-0.39-0.02-0.39-0.02c-0.25-0.04-0.5-0.14-0.75-0.17c-0.25-0.03-0.5,0-0.75-0.03
				c-0.29-0.03-0.46,0.01-0.75-0.03c-0.2-0.02-0.54-0.14-0.75-0.17c-0.25-0.03-0.49,0-0.75-0.03c-0.21-0.02-0.53-0.14-0.75-0.17
				c-0.25-0.03-0.49,0.01-0.75-0.03c-0.25-0.03-0.49-0.13-0.75-0.17C42,2.47,41.44,2.46,41.36,2.46c-0.21-0.01-0.61-0.03-0.75-0.03
				c0.02,0,0.69,0.16,0.75,0.17c0.05,0.01,0.24,0.05,0.41,0.09c0.17,0.04,0.33,0.07,0.34,0.08c0,0.02-0.7-0.04-0.75-0.03l-0.75-0.17
				l-0.75-0.17c-0.25-0.06-0.49-0.11-0.75-0.17C39,2.21,38.51,2.09,38.37,2.07c-0.25-0.03-0.49,0.01-0.75-0.03
				c0.04,0.01,0.75,0.17,0.75,0.17s-0.65-0.02-0.75-0.03c-0.06-0.01-0.65-0.15-0.75-0.17C36.77,2,36.21,1.99,36.13,1.99
				c-0.16-0.01-0.54,0-0.75-0.03c-0.17-0.02-0.56-0.15-0.75-0.17c-0.25-0.03-0.5,0-0.75-0.03c-0.25-0.03-0.5,0.01-0.75-0.03
				c-0.13-0.02-0.65-0.16-0.75-0.17c-0.26-0.02-0.54-0.02-0.75-0.03l-0.63-0.02c-0.32-0.09-0.68-0.08-0.91-0.03
				c-0.22-0.01-0.45-0.02-0.7-0.02c-0.02,0-0.08-0.02-0.16-0.03c-0.04-0.04-0.08-0.07-0.1-0.09L29,1.37
				c-0.15-0.03-0.3-0.07-0.34-0.08c-0.03,0-0.07,0-0.1,0l-0.51-0.17c-0.1,0.03-0.11,0.09-0.1,0.15c-0.01,0-0.03,0-0.04,0
				c-0.21-0.02-0.44-0.02-0.63-0.02c-0.03-0.03-0.06-0.07-0.06-0.1l-0.63-0.1c-0.22,0.04-0.38,0.1-0.57,0.16
				c-0.13,0-0.25-0.01-0.36-0.01c-0.01,0,0.08,0.02,0.21,0.05l-0.09,0.02L25.37,1.2l0.02-0.18c-0.39-0.28-0.78-0.26-1.14-0.24
				c-0.03-0.01-0.08-0.02-0.1-0.02c-0.11-0.03-0.68-0.13-0.83-0.14l0,0c-0.05-0.04-0.1-0.07-0.14-0.12
				C23,0.53,22.93,0.58,22.91,0.63c-0.18,0.01-0.35,0.01-0.34,0.02c0.01,0.01,0.17,0.03,0.35,0.05c0.01,0.03,0.02,0.06,0.04,0.09
				C22.81,0.8,22.68,0.8,22.64,0.8c0.11,0,0.23,0.02,0.36,0.05l0.1,0.12c-0.31-0.01-0.61-0.02-0.9-0.04l0.03-0.11
				c0.16-0.01,0.33-0.03,0.42-0.03c-0.13-0.01-0.26-0.03-0.4-0.05l0.04-0.13c-0.54-0.03-1.19-0.31-1.39,0.02l-0.05,0.01l-1.38-0.42
				c-0.04,0.12-0.35,0.15-0.82,0.11c0.16,0.14,0.71,0.1,0.63,0.03l0.55,0.19l-0.33,0.16c-0.19,0-0.38,0-0.55,0L18.1,0.55l-0.52-0.39
				c-0.19,0.37-1.1,0.02-1.88-0.07l-0.15,0.25l-0.51-0.23l-0.31,0.1c0.31-0.03,0.2,0.18,0.12,0.18l-0.36-0.32l-0.9,0.04l0.12,0.11
				l-0.47,0.04c-0.28-0.09-0.71-0.25-0.86-0.08l0.4,0.36C12.12,0.39,11.6,0.24,11.24,0c-0.94,0,0.2,0.33-0.18,0.45
				c-0.39-0.04-0.6-0.3-1.06-0.26l0.52,0.38l0.66-0.1l-0.03,0.35l-1.06-0.26L9.73,0.25C9.45,0.23,8.86,0.16,8.67,0.3L7.62,0.27
				C7.15,0.31,7.55,0.59,7.78,0.64L7.63,0.81L7.08,0.55C6.45,0.6,5.98,0.64,5.76,0.82c-0.27,0.29-1.1-0.06-1.33,0.11l0.6,0.38
				C4.8,1.48,4.4,1.51,3.82,1.45C3.9,1.67,3.59,1.85,3.4,1.99C4.38,2.1,5.62,1.84,6.26,2.1C6.22,2.22,6.15,2.46,6.74,2.53L6.66,2.61
				C6.39,2.75,5.8,2.68,5.53,2.51L5.26,2.73C4.91,2.72,4.44,2.6,4.55,2.4L4.48,2.64l-0.63-0.1l0.03-0.35L3.1,2.25l0.52,0.31
				l-0.7-0.02l0.08,0.23L4.32,2.8L4.25,3.12C5.47,3.66,3.74,3.48,3.61,3.8C4.27,3.84,4.9,3.99,5.56,4.05
				C5.29,4.17,4.68,4.28,4.12,4.3c0.13,0.11,0.27,0.24,0.41,0.36C5,4.77,4.62,5.04,5.32,5.14l0.58-0.09
				c-0.6-0.38-1.11-0.76,0.26-0.53C6.45,4.69,5.74,4.6,5.94,4.77c0.67,0.14,0.39-0.19,0.82-0.11L6.8,4.86
				C6.37,4.93,6.61,5.15,7.01,5.35l-0.2-0.02L6.35,5.44L6.07,5.43l-0.11,0.2l0.47,0.04L6.5,5.43c0.47-0.12,0.87,0.24,0.99,0.35
				L6.83,5.87L7.14,6l0.39-0.19c0.71,0.33,0.68,0.76,1.51,1.05c0.38-0.19,0.86,0.16,1.14,0.41c0.86,0.08,1.82,0.71,2.64,0.68
				l-0.09-0.3c0.98,0.11,1.15,0.72,1.59,0.96c0.73-0.49-0.72-0.57-1.12-1l1.09-0.01l0,0.08c-0.27,0.14,0.32,0.29,0.72,0.41
				c-0.54,0.12-0.18,0.44,0.17,0.61l0.43-0.07l0.12,0.03c0.54-0.12-0.72-0.57-0.22-0.88c0.24,0.29,0.79,0.4,1.19,0.6
				c-1.05,0.13,0.33,0.52,0.84,0.75c1.18,0.06,2.21,0.75,3.42,0.46l1.81,0.39c0.86,0.15,0.43-0.21,0.68-0.32
				c0.04,0.01,0.08,0.02,0.1,0.02c0.04,0,0.12,0.01,0.21,0.02c0.04,0.12,0.23,0.14,0.43,0.32c0.31,0.05,0.79,0.09,0.58-0.09
				c-0.2-0.07-0.11-0.16-0.02-0.24c0.14,0.04,0.28,0.07,0.32,0.08c0.03,0.01,0.09,0.02,0.15,0.04c0.36,0.21,0.68,0.45,0.88,0.63
				c0.35-0.11,0.56-0.25,0.89-0.34c0.09,0.03,0.19,0.05,0.3,0.07c0.12,0.02,0.3,0.02,0.47,0.03c0.19,0.14,0.43,0.28,0.96,0.29
				c0.06-0.02,0.07-0.06,0.06-0.09c0.25,0.05,0.53,0.13,0.74,0.18c0.1,0.02,0.61,0.16,0.74,0.18c0.15,0.02,0.63,0.03,0.75,0.04
				c0.11,0.01,0.61,0.02,0.75,0.04c0.12,0.02,0.65,0.17,0.74,0.18c0.26,0.02,0.54,0.03,0.75,0.04l1.51,0.08
				c0.01,0.02,0.79,0.18,0.74,0.18c-0.1,0.01-0.57-0.03-0.75-0.04c-0.05,0-0.24-0.02-0.41-0.03c-0.18-0.01-0.34-0.01-0.34-0.01
				s0.16,0.05,0.33,0.09c0.17,0.04,0.36,0.08,0.41,0.1l0.74,0.18l0.75,0.04l0.75,0.04c0.19,0.01,0.51,0.02,0.75,0.04
				c0.1,0.01,0.61,0.16,0.74,0.18c0.2,0.03,0.54,0.01,0.75,0.04c0.22,0.03,0.52,0.15,0.74,0.18c0.18,0.02,0.61,0.03,0.75,0.04
				c0.11,0.01,0.61,0.02,0.75,0.04c0.25,0.04,0.48,0.14,0.74,0.18c0.16,0.02,0.62,0.15,0.74,0.18c0.13,0.03,0.56,0.15,0.74,0.18
				c0.1,0.02,0.66,0.04,0.75,0.04c0.12,0.01,0.61,0.02,0.75,0.04c0.13,0.02,0.64,0.16,0.74,0.18c-0.03,0-0.74-0.04-0.75-0.04
				c0,0,0.66,0.17,0.74,0.18c0.07,0.01,0.68,0.04,0.75,0.04l1.51,0.08c0.03,0.02,0.76,0.16,0.74,0.18
				c-0.04,0.02-0.69-0.06-0.75-0.04c-0.04,0.01,0.74,0.16,0.74,0.18c0,0-0.8-0.06-0.75-0.04c0.06,0.02,0.61,0.16,0.74,0.18
				c0.2,0.03,0.54,0.01,0.75,0.04c0.25,0.04,0.49,0.14,0.74,0.18l0.75,0.04c0.21,0.01,0.61,0.04,0.75,0.04
				c-0.01,0.01,0.65,0.16,0.74,0.18c0.11,0.03,0.58,0.16,0.74,0.18c0.11,0.02,0.66,0.04,0.75,0.04l0.75,0.04l0.75,0.04l1.51,0.08
				c0.16,0.05,0.6,0.13,0.74,0.18c0.09,0.03,0.74,0.16,0.74,0.18c0,0.02-0.7-0.06-0.75-0.04c-0.05,0.02-0.75-0.06-0.75-0.04
				c0,0,0.65,0.16,0.74,0.18c0.11,0.02,0.62,0.02,0.76,0.04c0.18,0.03,0.57,0.16,0.74,0.18c0.23,0.03,0.57,0.03,0.75,0.04
				c0.12,0.01,0.61,0.02,0.75,0.04c0.21,0.03,0.53,0.15,0.74,0.18c0.29,0.04,0.47,0,0.75,0.04c0.2,0.03,0.53,0.15,0.74,0.18
				c0.25,0.04,0.51,0.01,0.75,0.04c0.19,0.02,0.54,0.15,0.74,0.18c0.11,0.02,0.67,0.04,0.75,0.04c0.1,0.01,0.63,0.02,0.76,0.04
				c0.14,0.02,0.63,0.15,0.74,0.18c0.07,0.02,0.68,0.17,0.74,0.18c0.23,0.03,0.58,0.03,0.75,0.04l0.75,0.04l0.38,0.02l0.19,0.01
				c0.06,0,0.05,0,0.08-0.01l0.46-0.07c0.04,0.03,0.15,0.07,0.18,0.1c-0.01,0-0.22,0.03-0.23,0.03c-0.03,0-0.22,0.02-0.22,0.03
				c0,0.01,0.15,0.09,0.17,0.1c0.04,0.02,0.1,0.08,0.15,0.1c0.01,0,0.2-0.03,0.22-0.03c0.05-0.01,0.17-0.04,0.23-0.03
				c0.03,0,0.1,0.09,0.13,0.09c0.04,0.01,0.19-0.04,0.25-0.03c0.03,0.01,0.06,0.02,0.05,0.05c-0.02,0.05-0.03,0.1-0.04,0.13
				c-0.01,0.06-0.05,0.19-0.07,0.24c-0.02,0.06-0.06,0.16-0.07,0.22c-0.01,0.03,0.07,0.1,0.07,0.14c0,0.06-0.07,0.15-0.07,0.21
				c0,0.03,0.05,0.13,0.06,0.15l0.06,0.17c0.01,0.03,0.06,0.13,0.06,0.18c0,0.01-0.01,0.03-0.01,0.05
				c-0.01,0.07-0.01,0.15-0.02,0.24c-0.02,0.17-0.03,0.33-0.03,0.37c-0.01,0.19-0.05,0.52-0.06,0.76c0,0.13,0.08,0.59,0.08,0.75
				c0,0.24-0.07,0.52-0.06,0.76c0,0.16,0.07,0.63,0.08,0.75c0.02,0.2,0.06,0.5,0.08,0.75c0,0.04-0.01,0.15-0.02,0.26
				c0.14,0.9,0.26,1.76,0.06,2.58c0,0.07-0.01,0.13-0.01,0.18c0,0.2,0.08,0.54,0.08,0.75c0,0.22-0.07,0.54-0.06,0.75
				c0,0.19,0.06,0.61,0.08,0.75c0.01,0.11,0.08,0.61,0.08,0.75c0,0.25-0.06,0.51-0.06,0.76c-0.01-0.05-0.08-0.75-0.08-0.75
				s-0.06,0.69-0.06,0.76c0,0.08,0.02,0.21,0.03,0.33l0.54-0.48c-0.15,0.6-0.34,1.21-0.55,1.74c0.01,0.23,0.06,0.43,0.07,0.67
				c0.01,0.2-0.06,0.55-0.06,0.76c0,0.25,0.07,0.49,0.08,0.75c0.01,0.21-0.05,0.5-0.06,0.73c0.05,0.21,0.09,0.51,0.13,0.92
				l-0.02,0.17c0.02,0.17,0.04,0.35,0.04,0.45c0.01,0.2-0.06,0.55-0.06,0.75c0,0.1,0.02,0.24,0.04,0.37l0.88,0.81
				c-0.24,1.14-0.73,1.94-0.9,2.95c0.01,0.14,0.03,0.29,0.04,0.39l0.15,1.5c-0.01,0.11-0.02,0.24-0.03,0.37
				c0.26,1.12,0.63,2.36,0.44,3.27l0.35-0.12c-0.15,1.29-0.53,1.51-0.91,1.69l0.01,0.07c0.02,0.15,0.07,0.56,0.08,0.75
				c0,0.08-0.05,0.68-0.06,0.76c-0.01,0.18-0.05,0.52-0.06,0.75c0,0.14,0.08,0.59,0.08,0.75c0,0.09-0.01,0.19-0.02,0.29l0.06,0.07
				l-0.1,0.5c-0.01,0.21-0.05,0.44-0.05,0.65c0,0.25,0.07,0.5,0.08,0.75c0,0.25-0.06,0.51-0.06,0.76c0,0.16,0.03,0.33,0.05,0.49
				l0.05-0.07c0.02-0.21,0.03-0.43,0.03-0.43c0-0.01,0.02,0.16,0.04,0.33l0.44-0.58c0.57,1.62-0.44,4.62,0.66,5.2
				c-0.32,2.78-0.62,6.21-0.09,8.89l-0.6,3.16l0.85,1.22c-1.26,1.67-0.01,3.05-0.19,4.64l-0.82,0.76c-0.17,1.58,1.61,3.91,0.4,4.52
				c-0.59,3.83,1.4,7.23-0.1,10.6l0.86,3.23c-0.27,0.94-0.58,1.92-0.92,2.75c0.02,0.19,0.04,0.42,0.04,0.48
				c0.03,0.16,0.05,0.53,0.08,0.75l0.05,0.52c0.11,0,0.21,0.02,0.33,0.13c-0.27,1.71,0.48,3.74,0.31,5.33
				c-0.18,1.3-0.5,1.36-0.83,1.3c-0.01,0.1-0.02,0.19-0.02,0.27c-0.01,0.11-0.06,0.61-0.06,0.75c0,0.12,0.07,0.66,0.08,0.75
				l0.02,0.24c0.37,0.02,0.71,0.05,0.73,1.18c-0.22,0.39-0.41,0.88-0.6,1.42c0.01,0.08,0.02,0.15,0.02,0.17
				c0.01,0.13,0.07,0.57,0.08,0.75c0.01,0.21-0.06,0.53-0.06,0.75c0,0.16,0.08,0.62,0.08,0.75c-0.01,0.24-0.04,0.57-0.06,0.76
				c-0.01,0.16-0.05,0.54-0.05,0.76c0,0.17,0.07,0.57,0.08,0.75c0,0.25-0.05,0.5-0.05,0.75c0,0.25-0.06,0.51-0.05,0.76
				c0,0.24,0.07,0.51,0.08,0.75c0-0.06,0.05-0.75,0.05-0.76c0-0.01,0.02,0.16,0.04,0.34c0.02,0.18,0.03,0.37,0.04,0.41
				c0.02,0.18,0.06,0.51,0.08,0.75c0.01,0.13-0.06,0.6-0.06,0.75c0,0.21,0.08,0.55,0.07,0.75c0,0.25-0.05,0.54-0.05,0.76
				c-0.02,0.27-0.04,0.53-0.05,0.76l-0.05,0.75l-0.05,0.76c-0.01,0.2-0.05,0.5-0.05,0.75c0,0.05,0.07,0.69,0.07,0.75
				c0.01,0.11,0.07,0.61,0.07,0.75c0,0.15-0.05,0.63-0.05,0.75c0-0.02-0.07-0.75-0.07-0.75c-0.02,0-0.03,0.71-0.05,0.76
				c0,0.25-0.06,0.5-0.05,0.75c0,0.09,0.07,0.71,0.07,0.75c0.01,0.05,0.04-0.74,0.05-0.75c0.01-0.01,0.07,0.66,0.07,0.75
				c0.02,0.18,0.05,0.67,0.07,0.75c0.01,0.03,0.02-0.16,0.03-0.36c0.01-0.2,0.03-0.4,0.03-0.4c0.02,0,0.06,0.65,0.07,0.75
				c0.03,0.16,0.05,0.53,0.07,0.75l0.07,0.75c-0.01,0.01-0.04,0.81-0.05,0.76c-0.02-0.07-0.06-0.58-0.07-0.75
				c-0.02-0.18-0.05-0.66-0.07-0.75c-0.01-0.04-0.04,0.73-0.05,0.76c-0.02,0.04-0.06-0.75-0.07-0.75c-0.02,0-0.03,0.71-0.05,0.75
				l0.07,0.75l0.07,0.75c0.02,0.17,0.06,0.53,0.07,0.75c0.01,0.12-0.05,0.61-0.05,0.76c0,0.2,0.07,0.54,0.07,0.75
				c0,0.1-0.05,0.69-0.05,0.76c-0.01,0.05-0.07-0.75-0.07-0.75s-0.05,0.73-0.05,0.76c0.01,0.19,0.06,0.61,0.07,0.75l0.07,0.75
				l0.15,1.5c-0.02,0.17-0.03,0.61-0.05,0.76c-0.02,0.09-0.04,0.76-0.05,0.75c0,0-0.02-0.2-0.04-0.39
				c-0.02-0.19-0.03-0.38-0.04-0.36c-0.02,0.1-0.04,0.57-0.05,0.76c-0.01,0.14-0.05,0.57-0.05,0.75c0,0.09,0.07,0.67,0.07,0.75
				l0.07,0.75c0.02,0.18,0.06,0.51,0.07,0.75c0.01,0.11-0.05,0.62-0.05,0.75c0,0.2,0.07,0.54,0.07,0.75c0,0.26-0.06,0.5-0.05,0.76
				c0,0.24,0.07,0.51,0.07,0.75c0,0.25-0.06,0.51-0.05,0.76c0,0.25,0.07,0.5,0.07,0.75c0,0.21-0.06,0.56-0.05,0.75
				c0.01,0.19,0.06,0.61,0.07,0.75l0.07,0.75c0.02,0.17,0.06,0.53,0.07,0.75c0.01,0.12-0.05,0.61-0.05,0.75
				c0,0.2,0.07,0.54,0.07,0.75c0,0.25-0.05,0.51-0.05,0.76l-0.07-0.75c-0.02-0.22-0.05-0.59-0.07-0.75
				c-0.02-0.1-0.06-0.75-0.07-0.75c0,0-0.05,0.69-0.05,0.75c0,0.18,0.07,0.56,0.07,0.75c0,0.27-0.05,0.48-0.05,0.76
				c0,0.11,0.07,0.66,0.07,0.75c0.01,0.13,0.07,0.57,0.07,0.75c0.01,0.19-0.05,0.55-0.05,0.76c0,0.2,0.07,0.54,0.07,0.75
				c0,0.25-0.05,0.5-0.05,0.75c0,0.22,0.07,0.53,0.07,0.75c0,0.25-0.05,0.5-0.05,0.75c0,0.25-0.06,0.51-0.05,0.76
				c0,0.2,0.06,0.56,0.07,0.75l0.05-0.76c0,0,0.02,0.16,0.04,0.34c0.02,0.18,0.03,0.37,0.04,0.41c0.01,0.09,0.07,0.64,0.07,0.75
				c0,0.16-0.04,0.64-0.05,0.76c-0.01,0.18-0.03,0.66-0.05,0.76c-0.01,0.03-0.02-0.16-0.04-0.36c-0.02-0.19-0.04-0.4-0.04-0.4
				s-0.05,0.72-0.05,0.76c0,0.16,0.06,0.63,0.07,0.75l0.07,0.75l0.07,0.75l0.07,0.75c0.02,0.21,0.06,0.49,0.07,0.75
				c0.01,0.1-0.05,0.62-0.05,0.75c0,0.25,0.07,0.5,0.07,0.75c0.01,0.25,0.07,0.5,0.07,0.75c0,0.24-0.06,0.52-0.05,0.75
				c0,0.05-0.05,0.74-0.05,0.78c-0.02,0.02-0.06-0.78-0.08-0.77c0,0-0.05,0.64-0.05,0.78c0.01,0.05,0.08,0.75,0.09,0.84
				c0.01,0.16-0.02,0.73-0.02,0.87c0,0.17-0.03,0.66-0.01,0.88c0.01,0.12,0.12,0.72,0.13,0.81c0.02,0.12,0.11,0.67,0.13,0.79
				c0.02,0.18,0.02,0.71,0.04,0.87c0.04,0.26,0.11,0.57,0.16,0.75c0.03,0.11,0.15,0.57,0.18,0.71c0.03,0.2,0.04,0.66,0.07,0.85
				c0.04,0.27,0.07,0.61,0.1,0.85c0.01,0.07,0.08,0.79,0.11,0.85c0.06,0.2,0.17,0.49,0.22,0.62c0.05,0.15,0.18,0.55,0.22,0.59
				c0.01,0.12,0.11,0.59,0.15,0.78c0.03,0.16,0.1,0.6,0.16,0.78c0.04,0.14,0.2,0.36,0.25,0.49c0.06,0.16,0.11,0.58,0.18,0.73
				c0.08,0.19,0.19,0.24,0.27,0.42c0.06,0.14,0.14,0.55,0.2,0.67c0.04,0.08,0.24,0.3,0.28,0.34c0.01,0.01,0.03,0.03,0.04,0.05
				c0.03,0.08,0.07,0.1,0.1,0.1c0.05,0.05,0.11,0.1,0.13,0.14c0.04,0.06,0.08,0.18,0.12,0.3l0,0.01c0.15,0.84,0.27,1.46,0.5,1.78
				c0.37,0.37,0.09,1.46,0.32,1.78l0.34-0.78c0.23,0.31,0.33,0.84,0.34,1.62c0.24-0.1,0.49,0.32,0.67,0.58
				c-0.01-0.97-0.28-2.14-0.33-3.02c0.07-0.01,0.15-0.04,0.22-0.03c0.02,0,0.08,0.07,0.14,0.14c-0.05,0.12-0.09,0.26-0.07,0.46
				c0.07-0.03,0.15-0.17,0.2-0.33l0.01,0.01c0.03,0.02,0.07-0.01,0.12-0.04l0.28,0.37c0.04,0.47-0.02,1.09-0.26,0.93l0.28,0.11
				l-0.02,0.83l-0.4-0.06l0.19,1.05l0.27-0.67l0.08,0.94L79.14,189.64z M14.87,2.22c0.02-0.01,0.02-0.04,0.03-0.06
				c0.08,0.06,0.2,0.12,0.29,0.17c-0.02,0.03-0.05,0.07-0.07,0.12c-0.05,0-0.09,0.01-0.17,0.01L14.68,2.3
				C14.76,2.27,14.84,2.24,14.87,2.22z M14.26,2.01c-0.02,0.01-0.05,0.02-0.06,0.02c-0.01,0,0-0.01,0-0.02L14.26,2.01z M13.84,6.34
				l-0.47-0.12l-0.39,0.03l0.58-0.24C13.48,6.18,14.5,6.25,13.84,6.34z M12.7,1.67c0.51,0,0.83,0.2,1.14,0.33h0.01
				c-0.05,0.08-0.14,0.19-0.14,0.23c-0.36-0.12-0.57-0.42-1.13-0.52c0.2,0.18,0.44,0.47-0.07,0.4C11.92,1.97,12.43,1.73,12.7,1.67z
				 M12.64,3.83l-0.4-0.18l0.75-0.08C13.39,3.75,12.79,3.81,12.64,3.83z M10.01,4.64c0.1,0.01,0.21,0.02,0.33,0.02l0.1,0.01
				l0.33,0.22c-0.29-0.05-0.56-0.11-0.78-0.18C10.02,4.69,10.03,4.67,10.01,4.64z M9.46,2.06C9.81,1.92,9.45,1.67,9.17,1.5l0.7-0.06
				c-0.07,0.32,0.72,0.64,0.22,0.88L9.23,2.08L8.21,2.17L8.17,1.98L9.46,2.06z M9.17,3.16c0,0-0.49,0.12-0.55,0.12
				c-0.12,0.01-0.6,0.01-0.7,0c-0.05,0-0.22-0.01-0.39-0.01c-0.16,0-0.31-0.02-0.31-0.02S7.35,3.24,7.5,3.23
				C7.64,3.21,7.79,3.2,7.83,3.19c0.2-0.02,0.38-0.06,0.56-0.09c0.21-0.01,0.45,0,0.65-0.03c-0.07,0-0.43,0.11-0.53,0.12
				C8.58,3.21,9.15,3.15,9.17,3.16z M6.82,1.3L6.82,1.3c0.11-0.04,0.23-0.07,0.36-0.09c0.13,0.04,0.28,0.08,0.46,0.11
				c0,0.02,0,0.05,0.03,0.08l0.09,0.06c0.18-0.08,0.42,0.02,0.57,0.09l0,0.01C7.63,1.74,7.27,1.49,6.82,1.3z M6.84,1.93l0.91,0.28
				L7.63,2.33l0.32,0.13L7.36,2.4l0,0.08C6.81,2.29,6.84,2.09,6.84,1.93z M8.42,5.4l-0.4-0.11l0.13-0.34C8.72,5,8.68,5.27,8.42,5.4z
				 M7,4.27l0.07-0.58c0.58,0.36,1.63-0.14,2.21,0.39C8.79,4.28,7.73,4.28,7,4.27z M14.26,7.32c-0.75-0.13-0.68-0.53-1.5-0.58
				c-0.23,0.33-0.07,0.4,0.56,0.66l-0.9-0.12l-0.48-0.35c-0.66,0.33-1.06-0.19-1.61-0.37L10.2,6.29L9.61,6.15L9.54,6.39L9.23,6.41
				c0.11-0.2,0.54-0.44,1.05-0.28l0.15-0.17L9.64,5.79l0,0.16L9.09,5.68l0.67,0.06c0.23-0.18,0.03-0.43,0.65-0.48
				c0.67,0.14,0.93-0.23,1.49,0.03c1.25,0.05-0.11,0.36,0.56,0.58l-0.55-0.11c-3.42-0.85-1.04,0.44-0.62,0.29l-0.07,0.16
				c-0.32-0.13-0.98-0.11-0.86,0.07l0.83,0.28c0.07-0.16,0.74-0.1,1.09-0.09c0.55,0.27,1.29,0.17,1.96,0.38l0.12-0.05l0.67,0.22
				C14.56,6.91,14.37,7.12,14.26,7.32z M16.22,7.78c-0.39,0.03-0.83-0.21-0.98-0.35l0.07-0.16C15.82,7.35,16.53,7.6,16.22,7.78z
				 M17.28,7.89c-0.13-0.12-0.22-0.21-0.16-0.27c0.11,0.07,0.22,0.14,0.28,0.18c0.01,0.03,0.02,0.05,0.03,0.08L17.28,7.89z M20,8.72
				l-0.54,0.12c-0.59,0.01-0.75-0.37-1.38-0.39l-0.03,0.28c-0.47-0.12-0.67-0.3-0.36-0.4l1.09-0.01L18.6,8.15
				c0.16,0.04,0.33,0.09,0.4,0.1c0.03,0.01,0.06,0.03,0.09,0.04l0.36,0.38l0.27-0.1c0.1,0.04,0.21,0.08,0.32,0.13L20,8.72z
				 M72.27,50.52l0.14,0.17l-0.17,0.46C72.1,50.98,72.23,50.62,72.27,50.52z M73.56,52.35l0.18,0.23l-0.22,0.62
				C73.34,52.97,73.52,52.47,73.56,52.35z M73.71,55.4l0.1,0.67l-0.5,0.46C73.39,56.08,73.34,55.74,73.71,55.4z M73.09,66.04
				c0.22,0.48-0.34,1.02-0.07,1.62l-0.1,0.02C72.8,67.18,72.74,65.99,73.09,66.04z M79.42,176.92c-0.07-0.07-0.09-0.11-0.12-0.43
				l0.13-0.1L79.42,176.92z M76.99,176.86c-0.01-0.13,0.02-0.2,0.04-0.28l-0.03-0.28c0.03,0.14,0.07-0.22,0.09,0.01l-0.05,0.12
				l0.04,0.07c0.03,0.17-0.07,0.2-0.08,0.38c0.03-0.05,0.09-0.1,0.08,0.02C77.08,177.06,77.02,176.93,76.99,176.86z M78.82,177.61
				l0.2-0.16l0.02,0.52C78.94,178.05,78.79,177.95,78.82,177.61z M77.78,181.79c-0.07-0.16-0.15,0-0.2,0.12l-0.06-0.32
				c0.13,0.04,0.21-0.31,0.33-0.08l-0.05,0.39l0.08,0.46l-0.07,0.02L77.78,181.79z M81.72,183.74l-0.19-1.31
				C81.93,182.49,82.04,182.86,81.72,183.74z M79.72,183.94c0.13-0.3-0.15-0.86,0.04-1.16c0.12,0.26,0.18,0.82,0.22,1.2
				L79.72,183.94z M81.65,184.25L81.65,184.25c0,0.02-0.01,0.07-0.04,0.13L81.65,184.25z M80.26,187.27
				c0.08-0.26,0.17-0.26,0.29-0.31l0.04,0.21C80.45,187.38,80.35,187.54,80.26,187.27z"/>
		</g>
	</g>
</g>
</svg>
