<svg width="90" height="5" viewBox="0 0 90 5" fill="none" xmlns="http://www.w3.org/2000/svg">
<path d="M89.6577 1.55377L89.0303 1.60065L89.0706 1.49349C88.4466 1.36288 89.5134 1.34613 89.3893 1.20213C89.2618 1.15859 89.1142 1.08156 88.97 1.00119C88.7485 0.984445 88.9364 0.880627 88.6043 0.880627L88.3292 0.937559L88.3694 0.950955L88.46 0.937559L88.3963 0.961001C88.6378 1.05142 88.7888 1.13515 88.1983 1.12175C88.0709 1.07822 88.403 1.07822 88.3091 1.02798C88.2721 1.02463 88.2453 1.02798 88.2218 1.02798L88.1816 1.04473C88.1849 1.04138 88.1782 1.03803 88.1782 1.03133C88.1212 1.03803 88.0943 1.05142 88.0709 1.06482C88.0474 1.04807 88.0038 1.03468 87.9635 1.02128C87.9836 1.01459 87.9903 1.00454 87.997 0.994491C87.9501 0.987793 87.9333 0.981095 87.9937 0.964351C87.9702 0.937559 87.9098 0.914116 87.8192 0.890673L87.9098 0.890673L87.9199 0.887325C87.9333 0.890674 87.9434 0.894022 87.9534 0.897371C88.0105 0.914116 88.0608 0.93421 88.1111 0.954304L88.1312 0.954304C88.1111 0.920814 88.0776 0.887324 88.044 0.853835L88.1346 0.830392L88.2621 0.823694L88.3191 0.750017L88.0977 0.760064L88.0608 0.843788C88.0507 0.847137 88.044 0.847137 88.034 0.847137L87.9803 0.796903C87.9199 0.776809 87.8528 0.756715 87.7823 0.73997L87.9165 0.713179L87.7689 0.686387L87.6951 0.716527C87.6448 0.703132 87.5945 0.689736 87.5475 0.67634C87.4905 0.662944 87.4301 0.649549 87.3697 0.636153C87.3865 0.64285 87.4066 0.649549 87.42 0.656246L87.3831 0.713179C87.1449 0.713179 86.8128 0.662944 86.9604 0.585918C87.0443 0.572522 87.1282 0.57922 87.2053 0.592616C87.1315 0.54908 87.0443 0.512241 86.8832 0.488798C86.8531 0.502194 86.8229 0.508892 86.7927 0.512241C86.7491 0.492148 86.6786 0.462007 86.6652 0.455309C86.6417 0.445262 86.5981 0.428517 86.5545 0.411772C86.5109 0.441913 86.4303 0.472054 86.3331 0.462007L86.2962 0.492148L86.4773 0.502194L86.4773 0.475402L86.6048 0.505543L86.4505 0.508892C86.3968 0.542382 86.4404 0.57922 86.2962 0.602663C86.1418 0.595965 86.0781 0.662944 85.954 0.629455C85.6654 0.649549 85.9808 0.569173 85.8298 0.54908L85.9573 0.555778C86.7423 0.616059 86.2022 0.462007 86.1016 0.495496L86.1217 0.468705C86.1922 0.482101 86.3465 0.465356 86.3196 0.438564L86.1318 0.411772C86.1116 0.438564 85.9607 0.445262 85.8768 0.45196C85.7527 0.421819 85.5782 0.455309 85.4273 0.435215L85.4004 0.445262L85.2495 0.425168C85.3568 0.435215 85.4038 0.395028 85.4306 0.358189C85.6017 0.361538 85.5816 0.428517 85.7728 0.41847C85.8298 0.358189 85.7929 0.351491 85.6487 0.3247L85.8567 0.3247L85.964 0.371585C86.1183 0.304606 86.2089 0.378283 86.3331 0.395028L86.3599 0.435215L86.4941 0.445262L86.5142 0.405074L86.531 0.401726C86.5176 0.398377 86.5042 0.391678 86.4941 0.38833C86.4538 0.378283 86.2727 0.361538 86.2257 0.351491C86.1485 0.334746 86.1049 0.304606 86.0211 0.29121C85.9808 0.284512 85.7762 0.267768 85.7393 0.261069C85.699 0.257721 85.5011 0.240976 85.4507 0.237627C85.4004 0.230929 85.2562 0.190741 85.2193 0.184043C85.1857 0.173997 85.0247 0.140507 84.971 0.133809C84.8737 0.123762 84.7663 0.13046 84.6724 0.120413C84.5986 0.113715 84.4879 0.0869238 84.4074 0.0802256C84.3135 0.073528 84.196 0.0802256 84.1021 0.0768768C84.0082 0.0701787 83.8907 0.0835745 83.7968 0.0802257C83.6995 0.0768768 83.6123 0.0534341 83.515 0.0500853C83.4177 0.046736 83.3104 0.0634806 83.2097 0.0601318C83.1091 0.0567829 83.0185 0.0400383 82.9178 0.036689C82.9313 0.036689 83.2231 0.0232932 83.2231 0.0232932C83.2231 0.0232932 82.938 -0.000149495 82.9246 -0.000149494C82.8575 -0.00349832 82.6696 0.0165956 82.6193 0.0199444L82.3173 0.0400379C82.2737 0.0433872 82.0858 0.0601318 82.0456 0.0634811C81.9919 0.0634811 81.8175 0.0534337 81.7772 0.0534337C81.7571 0.0534337 81.5155 0.0433872 81.5055 0.0433872C81.4149 0.0534342 81.3209 0.0601323 81.2438 0.06683C81.18 0.0735281 81.0123 0.0835746 80.9821 0.0902727C80.972 0.0936216 81.0391 0.0936216 81.1096 0.0969704C81.18 0.100319 81.2505 0.103669 81.2505 0.103669C81.2505 0.107017 81.18 0.110366 81.1096 0.117064L80.4789 0.0802258C80.2742 0.0735282 80.2273 0.0969704 80.2139 0.127111C80.2038 0.127111 80.1937 0.13046 80.1837 0.13046C80.1468 0.13046 79.9354 0.120413 79.9153 0.120413C79.8951 0.117064 80.1769 0.0969704 80.1769 0.0969704C80.1769 0.0969704 80.1065 0.0936216 80.036 0.0902728C79.9656 0.086924 79.8985 0.0869235 79.9086 0.0835747C79.932 0.0768765 80.1132 0.0634807 80.1702 0.0601319C80.2071 0.0567831 80.4319 0.0366891 80.4319 0.0366891C80.4319 0.0299915 80.1803 0.029991 80.1635 0.0266422L79.6402 0.076877L79.3785 0.100319L79.1168 0.123762C79.0933 0.127111 79.0564 0.13046 79.0229 0.133809C78.986 0.113716 78.9491 0.096971 78.9189 0.0802259C78.8518 0.10032 78.7948 0.123762 78.7411 0.143856C78.6807 0.140507 78.6136 0.137158 78.58 0.137158C78.4928 0.140507 78.4056 0.157252 78.3184 0.160601C78.2177 0.157252 78.1506 0.153903 78.0466 0.150554C77.993 0.150554 77.8353 0.137158 77.7749 0.140507C77.7011 0.143856 77.5837 0.16395 77.5132 0.16395C77.4528 0.16395 77.2884 0.153903 77.2448 0.153903C77.1945 0.150554 76.9899 0.147205 76.9731 0.140507C76.9597 0.137158 77.2381 0.120413 77.2348 0.117064C77.2348 0.110366 76.9831 0.110366 76.9664 0.103669C76.8758 0.103669 76.7852 0.0902729 76.6946 0.0902729C76.6577 0.0936218 76.4564 0.113716 76.433 0.113716C76.4497 0.113716 76.698 0.123762 76.7047 0.127111C76.7047 0.127111 76.4229 0.150554 76.443 0.150554C76.4766 0.153903 76.6477 0.160601 76.7148 0.160601L76.9865 0.173997C76.8859 0.177346 76.8255 0.19409 76.7248 0.197439C76.6611 0.200789 76.5202 0.184043 76.4531 0.184043C76.3826 0.184043 76.2652 0.207486 76.1914 0.207486C76.1444 0.207486 75.9599 0.197439 75.9197 0.19409C75.8693 0.190742 75.6647 0.187392 75.6513 0.180695C75.6446 0.177346 75.7083 0.173997 75.7754 0.167299C75.8425 0.16395 75.913 0.153903 75.913 0.153903C75.913 0.153903 75.6613 0.143856 75.6412 0.140507C75.5976 0.140507 75.4131 0.16395 75.3795 0.16395C75.299 0.170648 75.1816 0.184044 75.1179 0.187393C75.0709 0.19409 74.873 0.207486 74.8562 0.210835C74.8495 0.214184 74.9166 0.214184 74.987 0.217533C75.0575 0.217533 75.1279 0.224231 75.1279 0.224231C75.1279 0.224231 74.8897 0.247674 74.8663 0.247674C74.8361 0.247674 74.6247 0.237627 74.5979 0.234278L74.3261 0.220882C74.249 0.217533 74.1517 0.214184 74.0577 0.207486C74.0275 0.210835 73.8363 0.22758 73.7961 0.234278C73.7592 0.234278 73.5579 0.224231 73.5243 0.220882C73.4941 0.220882 73.2962 0.207486 73.2559 0.207486C73.2023 0.210835 73.0345 0.22758 72.9943 0.234278C72.9171 0.240976 72.8232 0.251023 72.7326 0.26107C72.6722 0.264419 72.5346 0.284513 72.4709 0.287862C72.3803 0.29121 72.2931 0.274466 72.1992 0.274466C72.2126 0.274466 72.4608 0.247674 72.4608 0.247674C72.4608 0.247674 72.2159 0.237627 72.1891 0.234278C72.1589 0.237627 71.9576 0.257721 71.9274 0.26107C71.8872 0.264419 71.7161 0.284513 71.6657 0.287862C71.5785 0.29121 71.4846 0.274466 71.3974 0.274466C71.3101 0.277815 71.2128 0.26107 71.1256 0.26107C71.0552 0.26107 70.9377 0.284513 70.8639 0.287862C70.7767 0.29121 70.6828 0.274466 70.5922 0.274466C70.5251 0.274466 70.401 0.297909 70.3305 0.301257C70.2936 0.301257 70.0923 0.29121 70.0621 0.287862C70.0185 0.284513 69.8474 0.274466 69.7904 0.274466C69.7468 0.274466 69.5656 0.297909 69.5287 0.301257C69.4885 0.304607 69.3174 0.3247 69.267 0.328049C69.1798 0.331398 69.0825 0.314653 68.9953 0.314653C68.9953 0.314653 68.7705 0.338096 68.7336 0.341445C68.7202 0.341445 68.4921 0.331398 68.4619 0.328049C68.3847 0.331398 68.2707 0.348143 68.2002 0.354841C68.1096 0.35819 68.0123 0.374935 67.9385 0.381633C67.8983 0.384982 67.7272 0.405075 67.6768 0.408424C67.603 0.411773 67.4756 0.395029 67.4051 0.395029C67.4286 0.39168 67.6634 0.368237 67.6668 0.368237C67.6668 0.368237 67.4152 0.35819 67.395 0.354841C67.3514 0.354841 67.1669 0.378283 67.1334 0.381633C67.0562 0.38833 66.9623 0.398377 66.8717 0.408424C66.8113 0.411773 66.6738 0.431867 66.61 0.435216C66.5194 0.438565 66.4289 0.42182 66.3416 0.42182C66.241 0.42182 66.1705 0.408424 66.0732 0.408424C66.0732 0.411773 66.0162 0.415122 65.9558 0.42182C65.8954 0.428518 65.8283 0.431867 65.8116 0.435216C65.7948 0.435216 65.5801 0.458659 65.5499 0.462008C65.4929 0.462008 65.3285 0.448612 65.2782 0.448612C65.1943 0.451961 65.0802 0.468706 65.0165 0.475403L64.4931 0.525638C64.4797 0.51894 64.2147 0.51894 64.2247 0.512242C64.2314 0.505544 63.9563 0.505544 63.953 0.498847C63.953 0.492149 64.1979 0.478752 64.2147 0.472055C64.2314 0.465356 64.4797 0.451961 64.4763 0.445263C64.4763 0.445263 64.2415 0.435216 64.208 0.431867C64.1945 0.431867 63.9731 0.455309 63.9463 0.458659C63.8557 0.462008 63.7651 0.445263 63.6745 0.445263C63.584 0.448612 63.5001 0.468706 63.4129 0.472055C63.3223 0.475403 63.2317 0.458659 63.1411 0.458659L62.601 0.435216C62.5138 0.445263 62.4232 0.451961 62.3393 0.462008C62.3024 0.465357 62.0776 0.488799 62.0776 0.488799C62.0776 0.495497 62.3561 0.495497 62.346 0.502195C62.336 0.508893 62.6077 0.508893 62.6178 0.515591C62.6211 0.515591 62.5607 0.522289 62.5004 0.528987C62.4366 0.535685 62.3729 0.539034 62.3561 0.542383L62.0642 0.582571L61.7925 0.569175C61.7254 0.565826 61.608 0.555779 61.5241 0.555779C61.4771 0.555779 61.3161 0.579221 61.2624 0.582571C61.202 0.582571 61.0477 0.572524 60.9907 0.569175C60.8934 0.565826 60.8028 0.559128 60.7189 0.555779C60.672 0.552429 60.5109 0.542383 60.4505 0.542383C60.4137 0.542383 60.2157 0.565826 60.1889 0.569175C60.1251 0.575873 60.0077 0.589268 59.9272 0.595967C59.8836 0.599315 59.7091 0.582571 59.6588 0.582571C59.5884 0.582571 59.4709 0.606013 59.3971 0.609362C59.3367 0.609362 59.1791 0.592617 59.1254 0.595967C59.0449 0.599315 58.9241 0.61606 58.8637 0.622758C58.7832 0.629456 58.696 0.639503 58.602 0.64955C58.5316 0.656248 58.4242 0.672993 58.3404 0.676341C58.2699 0.67969 58.1458 0.662946 58.0686 0.662946C57.9814 0.666294 57.8942 0.686388 57.8069 0.689737C57.7466 0.686388 57.5922 0.67969 57.5352 0.676341C57.4882 0.669644 57.3373 0.666294 57.2668 0.662946C57.2299 0.659597 56.9951 0.64955 56.9951 0.64955C56.9984 0.64955 57.2433 0.626107 57.2568 0.622758C57.1863 0.619409 57.0722 0.612711 56.985 0.609363C56.9448 0.606013 56.7636 0.595967 56.7133 0.595967C56.6495 0.595967 56.5086 0.61941 56.4516 0.622758C56.4751 0.622758 56.6831 0.632805 56.7233 0.636154L56.4617 0.662946L56.2 0.689737C56.1597 0.693086 55.992 0.71318 55.9383 0.716529C55.898 0.716529 55.7035 0.706482 55.6699 0.703133C55.586 0.699784 55.4955 0.696435 55.3982 0.689737C55.3244 0.686389 55.2103 0.676342 55.1264 0.676342C55.056 0.676342 54.9386 0.699784 54.8648 0.703133C54.7742 0.706482 54.687 0.689737 54.5964 0.689737C54.5561 0.689737 54.3682 0.71318 54.3347 0.716529C54.2575 0.723227 54.1636 0.733274 54.073 0.743321C54.0126 0.74667 53.8751 0.766763 53.8113 0.770113C53.7208 0.773461 53.6335 0.756717 53.543 0.756717C53.4859 0.756717 53.3148 0.74667 53.2712 0.743321C53.2276 0.739972 53.0599 0.729925 53.0028 0.729925C52.9659 0.729925 52.7714 0.753368 52.7412 0.756717C52.7043 0.760066 52.5264 0.783508 52.4795 0.783508C52.4325 0.783508 52.248 0.773461 52.2111 0.770113C52.1809 0.770113 51.9763 0.756717 51.9393 0.756717C51.879 0.760066 51.7246 0.780159 51.6777 0.783508C51.6374 0.786857 51.4663 0.8103 51.416 0.8103C51.3422 0.813649 51.2147 0.793555 51.1476 0.796904C51.0436 0.800253 50.9866 0.820347 50.8859 0.823696C50.8155 0.827045 50.6914 0.8103 50.6175 0.8103C50.5605 0.8103 50.4028 0.833743 50.3559 0.837092C50.3626 0.837092 50.6209 0.850487 50.6243 0.850487C50.6276 0.850487 50.5672 0.857186 50.5068 0.863883C50.4431 0.870581 50.3794 0.877279 50.3626 0.877279L50.1009 0.904071C50.0808 0.897373 49.8325 0.897373 49.8292 0.890675C49.8292 0.890675 49.8996 0.883977 49.9667 0.877279C50.0338 0.870581 50.1009 0.867233 50.0908 0.863883C50.0573 0.857186 49.8862 0.853836 49.8191 0.850487L49.5474 0.837092C49.497 0.833743 49.3461 0.823696 49.279 0.823696C49.2488 0.827045 49.0441 0.847139 49.0173 0.850488L48.7556 0.877279C48.6885 0.883977 48.5778 0.897374 48.4939 0.904071C48.4503 0.90742 48.2759 0.890675 48.2222 0.890675C48.1383 0.894024 48.041 0.917467 47.9605 0.917467C47.8632 0.920816 47.7861 0.904071 47.6888 0.904071C47.6183 0.904071 47.5009 0.927514 47.4271 0.930863C47.3365 0.934212 47.2459 0.914118 47.1554 0.917467C47.1721 0.914118 47.417 0.890675 47.417 0.890675C47.417 0.890675 47.1621 0.877279 47.1453 0.877279C47.0547 0.880628 46.9742 0.900722 46.8836 0.904071C46.7964 0.90742 46.7025 0.887326 46.6119 0.890675C46.5213 0.894024 46.4374 0.914118 46.3502 0.917467C46.2596 0.920816 46.1724 0.904071 46.0785 0.904071C45.9979 0.904071 45.9007 0.927514 45.8168 0.930863C45.7598 0.930863 45.5954 0.914118 45.5484 0.917467C45.4645 0.920816 45.3505 0.937561 45.2867 0.944259L45.015 0.981097C44.9579 0.987795 44.8271 1.00454 44.7533 1.00789C44.6963 1.01124 44.5487 0.994493 44.4849 0.994493C44.4111 0.997842 44.2937 1.02128 44.2232 1.02128C44.1192 1.02128 44.0555 1.00789 43.9515 1.00789C43.9616 1.00789 44.2132 0.981097 44.2132 0.981097C44.2132 0.981097 43.9582 0.967701 43.9448 0.967701C43.8844 0.97105 43.7267 0.991144 43.6831 0.994493C43.606 1.00119 43.5154 1.01124 43.4214 1.02128C43.3644 1.02463 43.2235 1.04808 43.1598 1.04808C43.1061 1.04808 42.935 1.03803 42.8914 1.03468C42.8545 1.03468 42.6196 1.02128 42.6196 1.02128C42.6196 1.01459 42.8645 1.00119 42.8813 0.994493C42.8981 0.987795 43.1463 0.9744 43.143 0.967701C43.143 0.967701 42.8914 0.954306 42.8746 0.954306C42.831 0.954306 42.6465 0.977748 42.6129 0.981097C42.5324 0.987795 42.4452 0.997842 42.3512 1.00789C42.2808 1.01459 42.1734 1.03133 42.0896 1.03468C42.0191 1.03803 41.895 1.01794 41.8212 1.02128C41.7574 1.02463 41.6165 1.04473 41.5595 1.04808L41.8279 1.06147C41.8279 1.06147 41.5998 1.08492 41.5662 1.08826C41.5494 1.08826 41.328 1.07822 41.2978 1.07487C41.2274 1.07487 41.11 1.10166 41.0362 1.10166C40.9858 1.10166 40.8047 1.09161 40.7678 1.08826C40.7778 1.08826 41.0261 1.06147 41.0294 1.06147C41.0294 1.06147 40.9724 1.05812 40.9087 1.05477C40.8449 1.05143 40.7745 1.04808 40.7611 1.04808C40.7242 1.04473 40.5363 1.03468 40.4927 1.03468C40.4423 1.03468 40.2679 1.05812 40.231 1.06147L39.9693 1.08826C39.8955 1.09496 39.7982 1.10501 39.7076 1.11506C39.6774 1.11506 39.4795 1.10501 39.4393 1.10166C39.4024 1.10166 39.2078 1.1251 39.1776 1.12845L38.9159 1.15524L38.3758 1.12845L38.6375 1.10166C38.7012 1.09496 38.8153 1.07822 38.8991 1.07487C38.9461 1.07152 39.1138 1.08826 39.1675 1.08826C39.2547 1.08492 39.342 1.06482 39.4292 1.06147L38.8891 1.03468L38.6274 1.06147L38.3657 1.08826C38.2885 1.09496 38.1946 1.10501 38.104 1.11506C38.0772 1.11506 37.8726 1.10501 37.8356 1.10166C37.7719 1.10501 37.631 1.1251 37.574 1.12845C37.48 1.1385 37.3895 1.14855 37.3123 1.15524C37.2754 1.15859 37.1009 1.18204 37.0506 1.18204C37.007 1.18204 36.8158 1.17199 36.7789 1.16864C36.7587 1.16864 36.5172 1.15524 36.5071 1.15524C36.4132 1.16529 36.3226 1.17534 36.2455 1.18204C36.1649 1.19208 36.0475 1.20213 35.9838 1.20883C35.9368 1.21552 35.7389 1.22892 35.7221 1.23562C35.7087 1.24232 35.9905 1.24232 35.9938 1.24901C35.9938 1.25571 35.7489 1.26911 35.7322 1.27581C35.6852 1.26911 35.5007 1.26911 35.4604 1.26241C35.4235 1.25571 35.2122 1.25571 35.1887 1.24901C35.1719 1.24232 35.4504 1.22892 35.4504 1.22222C35.4504 1.21887 35.39 1.21887 35.3296 1.21552C35.2658 1.21218 35.1988 1.20883 35.182 1.20883C35.1182 1.20548 34.9941 1.19878 34.9102 1.19543L34.3701 1.16864L34.1084 1.19543C34.0715 1.19878 33.8937 1.22222 33.8468 1.22222C33.7998 1.22222 33.6153 1.21218 33.575 1.20883C33.5549 1.20883 33.32 1.19543 33.3066 1.19543C33.2194 1.20213 33.112 1.21552 33.045 1.22222C32.9745 1.22892 32.8235 1.24232 32.7833 1.24901C32.7665 1.25236 33.0483 1.25906 33.055 1.26241C33.0584 1.26576 32.8235 1.28585 32.7933 1.2892L32.5317 1.31599C32.4444 1.31264 32.3505 1.30595 32.2599 1.3026C32.223 1.29925 31.9915 1.2892 31.9915 1.2892C31.9949 1.2892 32.2398 1.26241 32.2532 1.26241C32.2096 1.25906 32.0452 1.24901 31.9815 1.24901C31.911 1.24901 31.7936 1.27581 31.7198 1.27581C31.6728 1.27581 31.4883 1.25906 31.4481 1.26241C31.3575 1.26911 31.2568 1.2825 31.1864 1.2892C31.1226 1.2959 30.9582 1.3093 30.9247 1.31599C30.9146 1.31934 30.9817 1.31934 31.0522 1.32269C31.1226 1.32604 31.1931 1.32939 31.1931 1.32939C31.1931 1.33609 30.9482 1.34948 30.9314 1.35618C30.8408 1.35283 30.7536 1.34613 30.6597 1.34279C30.5691 1.33944 30.4785 1.33274 30.3913 1.32939L30.1195 1.31599C30.039 1.31264 29.9115 1.30595 29.8478 1.3026C29.7975 1.29925 29.5962 1.2959 29.5761 1.2892C29.5593 1.2825 29.8377 1.26576 29.8377 1.26241C29.8377 1.26241 29.7773 1.25906 29.717 1.25571C29.6532 1.25236 29.5861 1.24901 29.5693 1.24901C29.5559 1.24901 29.3144 1.27581 29.3077 1.27581C29.2909 1.2825 29.046 1.2959 29.046 1.3026C29.046 1.3093 29.3211 1.3093 29.3177 1.31599C29.311 1.32269 29.0728 1.33609 29.0561 1.34279C29.0426 1.34948 29.3244 1.34948 29.3244 1.35618C29.3244 1.36288 29.0795 1.37628 29.0628 1.38297L28.5226 1.35618L28.2509 1.34279C28.2106 1.33944 28.0328 1.32604 27.9825 1.32939C27.9389 1.32939 27.7544 1.35283 27.7208 1.35618C27.6403 1.36623 27.5229 1.37628 27.4592 1.38297C27.4088 1.38967 27.2109 1.40307 27.1975 1.40976C27.1639 1.40307 26.9928 1.39972 26.9257 1.39637C26.8385 1.39302 26.7513 1.38632 26.654 1.38297C26.6339 1.38632 26.4259 1.40642 26.3923 1.40976C26.342 1.40976 26.1642 1.39637 26.1206 1.39637C26.0703 1.39302 25.9159 1.38297 25.8488 1.38297C25.8119 1.38297 25.6174 1.40642 25.5872 1.40976L25.3255 1.43656C25.2651 1.44325 25.141 1.46 25.0638 1.46335C25.0437 1.46335 24.8189 1.44995 24.7954 1.44995C24.7585 1.4466 24.574 1.43321 24.5237 1.43656C24.4801 1.43656 24.2956 1.46 24.262 1.46335C24.1848 1.47005 24.0943 1.48009 24.0003 1.49014C23.9433 1.49349 23.8024 1.51693 23.7387 1.51693C23.6481 1.52028 23.5575 1.50019 23.4669 1.50354C23.4199 1.50354 23.2354 1.49014 23.1985 1.49014C23.1516 1.48679 22.9905 1.47674 22.9268 1.47674C22.8932 1.47674 22.6953 1.50354 22.6651 1.50354C22.6249 1.50689 22.4538 1.53033 22.4034 1.53033C22.3565 1.53033 22.1686 1.51693 22.1317 1.51693C22.1418 1.51693 22.39 1.49014 22.3934 1.49014C22.3934 1.49014 22.1418 1.47674 22.125 1.47674C22.078 1.47674 21.9002 1.50019 21.8633 1.50354C21.7929 1.51023 21.6889 1.52698 21.6016 1.53033C21.5681 1.53368 21.3769 1.51693 21.3332 1.51693C21.2963 1.51693 21.1018 1.54037 21.0716 1.54372C21.0313 1.54707 20.8636 1.57052 20.8099 1.57052C20.7327 1.57386 20.6187 1.55712 20.5381 1.55712C20.4677 1.55712 20.3503 1.58391 20.2765 1.58391C20.1926 1.58726 20.0886 1.57052 20.0047 1.57052C19.9041 1.57052 19.837 1.55377 19.733 1.55712C19.6625 1.55712 19.5451 1.58391 19.4713 1.58391C19.3807 1.58726 19.2901 1.56717 19.1996 1.57052C19.156 1.57052 18.9714 1.59396 18.9379 1.60066C18.901 1.60401 18.7232 1.62745 18.6762 1.62745C18.6292 1.62745 18.4447 1.61405 18.4045 1.61405C18.381 1.61405 18.1562 1.60066 18.1361 1.60066C18.0589 1.60401 17.9314 1.6241 17.8744 1.6308L17.3511 1.68773C17.294 1.68103 17.133 1.68103 17.0793 1.67433C17.0458 1.67098 16.8109 1.66763 16.8076 1.66094C16.8076 1.65424 17.0525 1.64084 17.0693 1.6308C17.086 1.6241 17.3343 1.6107 17.3309 1.60066C17.3309 1.59396 17.0927 1.59061 17.0625 1.58726C17.0726 1.58726 17.0055 1.59396 16.9384 1.60066C16.8713 1.60735 16.8009 1.61405 16.8009 1.61405C16.7103 1.61405 16.6197 1.59731 16.5291 1.60066C16.4419 1.60401 16.3547 1.6241 16.2674 1.6308C16.1668 1.63415 16.1064 1.65424 16.0058 1.66094C15.9353 1.66429 15.8112 1.64419 15.734 1.64754C15.6435 1.65089 15.5629 1.67098 15.4724 1.67768C15.3985 1.68103 15.2811 1.66094 15.2006 1.66429C15.0966 1.69108 15.0127 1.71452 14.9222 1.71452C14.8349 1.71787 14.741 1.69778 14.6504 1.70112C14.6135 1.70112 14.4189 1.72792 14.3887 1.73127C14.3149 1.73796 14.174 1.75136 14.1271 1.76141C14.1338 1.76141 14.3753 1.7748 14.3988 1.7748C14.4189 1.7748 14.486 1.77815 14.5464 1.7815C14.6102 1.78485 14.6672 1.7882 14.6672 1.7882C14.6672 1.7949 14.4223 1.80829 14.4055 1.81834L14.1338 1.80494L13.862 1.79155C13.7715 1.7882 13.6842 1.7815 13.5903 1.77815C13.55 1.7748 13.3689 1.76141 13.3186 1.76476C13.228 1.7681 13.1475 1.79155 13.0569 1.7949C13.0737 1.7949 13.3286 1.80829 13.3286 1.80829C13.3286 1.80829 13.1005 1.83508 13.0669 1.83843C13.0468 1.83843 12.8321 1.82504 12.7952 1.82504C12.7583 1.82504 12.5637 1.85183 12.5335 1.85518C12.4798 1.86187 12.3457 1.88197 12.2718 1.88532C12.2115 1.88867 12.0672 1.86857 12.0001 1.87192C11.9129 1.87527 11.8257 1.89871 11.7384 1.90206C11.6512 1.90541 11.564 1.92885 11.4768 1.9322C11.4298 1.9322 11.2419 1.91546 11.205 1.91881C11.1144 1.92551 11.0138 1.9389 10.9433 1.94895L10.7219 1.97239C10.6045 1.96234 10.4804 1.98244 10.4032 2.00923C10.3328 2.00253 10.2522 2.00923 10.165 2.01928C10.1583 2.01928 10.1348 2.01928 10.108 2.01593C10.0912 2.00588 10.0778 1.99918 10.0677 1.99248L10.0174 2.00923C9.96372 2.00588 9.91005 2.00253 9.89327 2.00253C9.88321 2.00253 9.86979 2.00588 9.85637 2.00588L9.6685 1.97909C9.63831 1.99248 9.63495 2.01258 9.64166 2.02932C9.63831 2.02932 9.6316 2.02932 9.62824 2.02932C9.55108 2.03602 9.47392 2.04607 9.41018 2.05277C9.39676 2.04272 9.38669 2.03602 9.38334 2.02597L9.15857 2.02597C9.08476 2.04942 9.03108 2.07621 8.9707 2.103C8.92708 2.1097 8.88347 2.11305 8.84321 2.1164C8.83986 2.1164 8.87341 2.11974 8.91702 2.11974L8.89018 2.13984L8.74257 2.14319L8.73921 2.0896C8.58489 2.02263 8.4507 2.04607 8.32992 2.07286C8.3165 2.07286 8.29973 2.07286 8.29637 2.07286C8.25612 2.06951 8.05147 2.06616 8.00115 2.06951C7.98102 2.05946 7.96425 2.05277 7.94412 2.03937C7.88038 2.05611 7.86025 2.07286 7.85354 2.09295C7.7898 2.103 7.73276 2.1164 7.73612 2.1164C7.73947 2.11975 7.79651 2.1164 7.86025 2.11305C7.8636 2.11974 7.87031 2.12979 7.88038 2.13649C7.83341 2.14654 7.78644 2.15323 7.77302 2.15658C7.80657 2.15323 7.85018 2.15323 7.8938 2.15323L7.93405 2.18672C7.8267 2.19677 7.7227 2.21017 7.61534 2.22021L7.62205 2.18672C7.67573 2.17333 7.73612 2.15993 7.76631 2.15658C7.7227 2.15993 7.67238 2.15993 7.62541 2.16328L7.63212 2.11974C7.44425 2.13649 7.19935 2.08291 7.14902 2.19677L7.12889 2.20347L6.62567 2.14654C6.61896 2.18672 6.51161 2.21017 6.34722 2.22021C6.41096 2.25705 6.59883 2.21352 6.56864 2.19677L6.77328 2.22691L6.66593 2.29389C6.59883 2.30394 6.53509 2.31398 6.4747 2.32068L6.17612 2.31064L5.97483 2.21686C5.93122 2.34078 5.59238 2.27715 5.31393 2.28719L5.26696 2.37092L5.07574 2.32738L4.97174 2.37427C5.07909 2.35082 5.05225 2.4178 5.02542 2.4245L4.88116 2.34413L4.56916 2.40106L4.61613 2.42785L4.4551 2.46469C4.35445 2.45129 4.19342 2.42115 4.14981 2.48143L4.31084 2.57185C4.06929 2.56181 3.88142 2.54171 3.74387 2.48478C3.41845 2.53167 3.83445 2.57855 3.70697 2.63214C3.56607 2.63883 3.48219 2.56851 3.32116 2.60534L3.52245 2.69912L3.74723 2.63548L3.75729 2.746L3.37149 2.71921L3.22723 2.63883C3.13329 2.64553 2.92529 2.65558 2.86491 2.70581L2.49587 2.7527C2.33484 2.78619 2.48917 2.85317 2.57304 2.85987L2.52942 2.92015L2.32142 2.86656C2.10671 2.91345 1.94568 2.95029 1.87523 3.01727C1.80143 3.12108 1.48943 3.0541 1.41897 3.12108L1.6471 3.20816C1.57665 3.27514 1.44246 3.30528 1.23446 3.31532C1.27807 3.3823 1.18078 3.45598 1.12039 3.50621C1.4693 3.48947 1.88865 3.34546 2.12349 3.39235C2.11678 3.42919 2.10671 3.50956 2.31471 3.49952L2.29459 3.52966C2.20736 3.58659 1.99936 3.59664 1.89201 3.55645L1.81149 3.63682C1.68736 3.65357 1.51626 3.64017 1.5431 3.56984L1.53304 3.65022L1.30827 3.65022L1.2982 3.5397L1.02981 3.59999L1.22775 3.67031L0.979492 3.70045L1.0231 3.76743L1.48943 3.7105L1.48272 3.81432C1.93562 3.91814 1.32504 3.95497 1.2982 4.05879C1.52968 4.03535 1.76117 4.04875 1.99265 4.032C1.90207 4.08893 1.69407 4.15256 1.50285 4.1894C1.55652 4.21954 1.6102 4.24968 1.66388 4.27982C1.83833 4.28987 1.71755 4.39369 1.96917 4.38699L2.1671 4.33006C1.93897 4.24299 1.73433 4.14921 2.22749 4.15256C2.33484 4.1894 2.08323 4.1961 2.16375 4.23964C2.40529 4.24968 2.28788 4.16261 2.4422 4.16596L2.46904 4.22289C2.32478 4.26978 2.41871 4.32336 2.56968 4.36355L2.49923 4.3669L2.34491 4.42718L2.24762 4.43723L2.22078 4.50755L2.38517 4.49416L2.39523 4.41713C2.55291 4.35685 2.71058 4.44727 2.75755 4.47406L2.53613 4.53434L2.65355 4.55779L2.77768 4.47741C3.04607 4.54104 3.05949 4.67835 3.36478 4.72189C3.4889 4.64151 3.67342 4.72524 3.78748 4.78887C4.09277 4.76877 4.4618 4.91278 4.74697 4.85919L4.69664 4.77212C5.04555 4.75538 5.13948 4.93622 5.30387 4.98311C5.532 4.79221 5.02206 4.8458 4.85767 4.73528L5.23677 4.675L5.24013 4.69844C5.1529 4.75538 5.36761 4.76877 5.51187 4.78552C5.32735 4.8525 5.47161 4.93287 5.6058 4.96301L5.75006 4.91613L5.79367 4.91947C5.97819 4.8525 5.51187 4.78217 5.66954 4.65826C5.77019 4.73528 5.96812 4.74198 6.11909 4.78217C5.76012 4.87594 6.26335 4.92617 6.45457 4.96971C6.86722 4.92617 7.2698 5.08357 7.67238 4.92952L8.32657 4.95631C8.63521 4.95631 8.46747 4.86924 8.54463 4.82236C8.55805 4.82236 8.57483 4.82236 8.58154 4.8257C8.59495 4.8257 8.62515 4.82235 8.65534 4.81901C8.67547 4.8525 8.74257 4.84915 8.82308 4.89268C8.93715 4.89268 9.10153 4.87929 9.02102 4.83575C8.94721 4.8257 8.97405 4.79221 9.00089 4.76207C9.05457 4.76542 9.10153 4.76877 9.11831 4.77212C9.12837 4.77212 9.1485 4.77547 9.17534 4.77547C9.31289 4.81901 9.43702 4.87594 9.52089 4.92282C9.63831 4.86924 9.70205 4.81901 9.81276 4.77212C9.84631 4.77547 9.87985 4.77882 9.92347 4.77882C9.96708 4.77882 10.0308 4.76877 10.0879 4.76207C10.1617 4.79556 10.2556 4.8257 10.4401 4.79891C10.4602 4.78887 10.4602 4.77882 10.4569 4.76877C10.5475 4.77212 10.6515 4.78217 10.7253 4.78552C10.7588 4.78887 10.9467 4.80226 10.9937 4.80226C11.0473 4.80226 11.2184 4.77882 11.2587 4.77547C11.2989 4.77212 11.4734 4.74868 11.5237 4.74868C11.5673 4.74868 11.7586 4.76877 11.7921 4.76542C11.886 4.75872 11.98 4.74533 12.0571 4.73863L12.5872 4.68505C12.5906 4.6884 12.8724 4.69844 12.8556 4.70179C12.822 4.70849 12.6543 4.72189 12.5906 4.72858C12.5537 4.73193 12.3255 4.75538 12.3255 4.75538C12.3255 4.75538 12.557 4.76877 12.5939 4.77212L12.8623 4.78887L13.1273 4.76207L13.3924 4.73528C13.4595 4.72858 13.5702 4.71184 13.6574 4.70849C13.6943 4.70514 13.8788 4.72523 13.9258 4.72523C13.9962 4.72523 14.117 4.69844 14.1908 4.69844C14.2713 4.69844 14.382 4.71854 14.4592 4.71519C14.5229 4.71184 14.6739 4.69175 14.7242 4.6884C14.7645 4.68505 14.9389 4.6616 14.9893 4.6616C15.0798 4.6616 15.1637 4.67835 15.2576 4.67835C15.3147 4.67835 15.4824 4.69175 15.5227 4.69509C15.5696 4.69844 15.7273 4.71184 15.7911 4.71184C15.828 4.71184 16.0259 4.6884 16.0561 4.68505C16.0829 4.68505 16.2574 4.66495 16.3077 4.66495C16.3547 4.66495 16.5392 4.67835 16.5761 4.6817C16.566 4.6817 16.3144 4.70849 16.3111 4.70849C16.3144 4.70849 16.5526 4.72523 16.5794 4.72523C16.6063 4.72189 16.821 4.70179 16.8445 4.69844L17.3745 4.64486C17.3846 4.65156 17.6496 4.65491 17.6429 4.6616C17.6295 4.6683 17.398 4.67835 17.3779 4.6884C17.3645 4.69509 17.6463 4.69844 17.6463 4.70514C17.6463 4.70514 17.3645 4.72858 17.3813 4.73193C17.4047 4.73528 17.6027 4.74868 17.6496 4.74868C17.7201 4.74868 17.8409 4.72523 17.9147 4.72189C18.0053 4.71854 18.0925 4.73863 18.1831 4.73863L18.4481 4.71184C18.5219 4.70514 18.6628 4.69509 18.7131 4.68505C18.7098 4.68505 18.7702 4.69175 18.8339 4.69509C18.8976 4.69844 18.9647 4.70179 18.9815 4.70179C19.0218 4.70514 19.1929 4.71854 19.2465 4.71854C19.2868 4.71854 19.478 4.69509 19.5116 4.69175L19.7732 4.66495L20.0383 4.63816L20.5683 4.58458C20.6254 4.59128 20.7864 4.59463 20.8367 4.60132C20.8703 4.60802 21.1051 4.61137 21.1051 4.61807C21.1051 4.62477 20.8569 4.63816 20.8401 4.64486C20.82 4.65156 20.5717 4.66495 20.5717 4.67165C20.5717 4.67165 20.8065 4.6884 20.8401 4.6884C20.8803 4.6884 21.0548 4.6616 21.1051 4.6616C21.1689 4.6616 21.3131 4.6817 21.3735 4.67835C21.454 4.675 21.5748 4.65826 21.6385 4.65156C21.6788 4.64821 21.8532 4.62477 21.9036 4.62477C21.9807 4.62477 22.0981 4.64486 22.1719 4.64151C22.2759 4.63816 22.3363 4.61807 22.437 4.61472C22.5074 4.61137 22.6316 4.63146 22.7054 4.63146C22.7926 4.62811 22.8832 4.60802 22.9704 4.60467C23.0375 4.60132 23.165 4.62142 23.2354 4.62142C23.2723 4.62142 23.4703 4.59797 23.5005 4.59463C23.534 4.59128 23.7219 4.56783 23.7655 4.56783C23.8158 4.56783 23.9936 4.58123 24.0339 4.58458C24.0574 4.58458 24.2821 4.59797 24.3023 4.60132C24.3828 4.59797 24.5069 4.58123 24.5673 4.57453L24.8323 4.54774L25.0974 4.52095L25.6274 4.46736C25.6912 4.47406 25.8388 4.47741 25.8958 4.48411C25.8891 4.48411 25.6509 4.50755 25.6308 4.5109C25.5939 4.51425 25.3657 4.53769 25.3657 4.53769C25.3657 4.53769 25.5972 4.55109 25.6341 4.55444C25.7012 4.55779 25.8153 4.56783 25.9025 4.57118C25.9193 4.56783 26.1441 4.54774 26.1676 4.54439C26.2313 4.53769 26.3521 4.52095 26.4326 4.5176C26.4762 4.51425 26.6506 4.53434 26.701 4.53434C26.7714 4.53434 26.8922 4.5109 26.966 4.50755C27.0499 4.50755 27.1505 4.5243 27.2344 4.5243C27.3082 4.5243 27.4457 4.53769 27.5028 4.54104C27.5665 4.54439 27.6873 4.55444 27.7712 4.55779C27.8181 4.55779 27.9792 4.53434 28.0362 4.53099C28.1234 4.52765 28.214 4.54774 28.3046 4.54774C28.3515 4.54774 28.5327 4.5243 28.5696 4.52095L28.8346 4.49416C28.8816 4.49081 29.0359 4.47071 29.0997 4.46736C29.1332 4.46736 29.3379 4.48076 29.3647 4.48411C29.4318 4.48746 29.5492 4.49751 29.6331 4.50085C29.6801 4.50085 29.8411 4.47741 29.8981 4.47406C29.982 4.47406 30.0826 4.49081 30.1665 4.49081C30.2235 4.49081 30.3879 4.46736 30.4315 4.46402C30.502 4.45732 30.606 4.44392 30.6966 4.43722C30.71 4.43722 30.7469 4.44057 30.7905 4.44057C31.1092 4.39369 31.4111 4.35685 31.6997 4.41378C31.7231 4.41378 31.7466 4.41713 31.7634 4.41713C31.8339 4.41713 31.9546 4.39369 32.0284 4.39034C32.109 4.39034 32.2197 4.40708 32.2968 4.40708C32.3639 4.40373 32.5115 4.38699 32.5619 4.38029C32.6021 4.37694 32.7766 4.35685 32.8269 4.3535C32.9141 4.35015 33.008 4.37024 33.0953 4.37024C33.0751 4.37359 32.8302 4.39704 32.8302 4.39704C32.8336 4.39704 33.0718 4.41043 33.0986 4.41378C33.1288 4.41378 33.1724 4.40708 33.216 4.40373L33.045 4.24298C33.2563 4.28652 33.471 4.3401 33.6589 4.40039C33.7428 4.39369 33.8099 4.38029 33.8971 4.37694C33.9675 4.37359 34.0917 4.39369 34.1655 4.39369C34.256 4.39034 34.3399 4.37024 34.4305 4.3669C34.5077 4.36355 34.6083 4.38029 34.6888 4.38029C34.7626 4.36355 34.8666 4.35015 35.0109 4.33675L35.0713 4.34345C35.1317 4.33675 35.1954 4.33006 35.2289 4.33006C35.2994 4.32671 35.4235 4.3468 35.494 4.3468C35.5309 4.3468 35.5778 4.3401 35.6248 4.33341L35.91 4.06549C36.3126 4.13247 36.5944 4.27647 36.9533 4.32671C37.0037 4.32336 37.054 4.31666 37.0909 4.31331L37.6209 4.26308C37.6578 4.26643 37.7048 4.26643 37.7518 4.26978C38.1476 4.1894 38.5838 4.07554 38.9058 4.12577L38.8622 4.02195C39.3185 4.06214 39.3956 4.176 39.4594 4.28987L39.4862 4.28652C39.5365 4.28317 39.6808 4.26308 39.7513 4.25973C39.7781 4.25973 39.9928 4.27312 40.0196 4.27647C40.0834 4.27982 40.2008 4.28987 40.288 4.29322C40.335 4.29322 40.496 4.26978 40.5531 4.26643C40.5866 4.26643 40.6202 4.26978 40.6537 4.27312L40.6805 4.25638L40.8583 4.28652C40.9322 4.28987 41.0127 4.29992 41.0865 4.29992C41.1771 4.29657 41.2643 4.27647 41.3515 4.27312C41.4421 4.26978 41.5293 4.28987 41.6199 4.28652C41.6769 4.28652 41.734 4.27647 41.7943 4.26978L41.7709 4.25303C41.6971 4.24968 41.6199 4.24298 41.6199 4.24298C41.6199 4.24298 41.6736 4.23629 41.7373 4.22959L41.5327 4.10233C42.103 3.92818 43.1665 4.21954 43.3711 3.89134C44.3507 3.97507 45.5652 4.05544 46.5112 3.89134L47.6284 4.05879L48.0612 3.80427C48.6516 4.17266 49.1414 3.79757 49.7017 3.84446L49.9701 4.08558C50.527 4.13247 51.3523 3.59663 51.567 3.95162C52.919 4.11237 54.12 3.51291 55.3143 3.94827L56.4549 3.68371C56.7871 3.76073 57.136 3.84781 57.4278 3.94493C57.4949 3.93823 57.5755 3.93153 57.5956 3.93153C57.6526 3.92483 57.7835 3.91478 57.8606 3.90809L58.0418 3.89134C58.0418 3.8612 58.0485 3.82771 58.0887 3.79422C58.696 3.8679 59.4106 3.64017 59.9708 3.68706C60.4304 3.73394 60.4539 3.82771 60.4304 3.92818C60.464 3.93153 60.4975 3.93153 60.5277 3.93488C60.568 3.93823 60.7424 3.94827 60.7927 3.94827C60.8364 3.94827 61.0242 3.92818 61.0578 3.92483L61.1416 3.91813C61.1484 3.80762 61.1584 3.7105 61.5576 3.70045C61.6952 3.76408 61.8696 3.81767 62.0609 3.87125C62.0877 3.8679 62.1145 3.86455 62.1213 3.86455C62.1682 3.8612 62.3225 3.84111 62.3863 3.84111C62.4635 3.83776 62.5742 3.85785 62.6547 3.8545C62.7117 3.8545 62.8727 3.83106 62.9197 3.83106C63.0036 3.83106 63.121 3.84111 63.1881 3.84446C63.2451 3.84781 63.3793 3.85785 63.4565 3.85785C63.5169 3.85785 63.6578 3.83441 63.7215 3.83441C63.8121 3.83106 63.8993 3.84781 63.9899 3.84781C64.0771 3.84781 64.1677 3.86455 64.2583 3.8612C64.3455 3.85785 64.4361 3.83776 64.5233 3.83776C64.5032 3.83776 64.2583 3.82436 64.2549 3.82436C64.2549 3.82436 64.312 3.81766 64.3757 3.81097C64.4394 3.80427 64.5065 3.80092 64.5233 3.79757C64.5871 3.79087 64.7045 3.77748 64.7883 3.77413C64.8353 3.77078 64.9997 3.78752 65.0567 3.78752C65.1305 3.78752 65.2513 3.76408 65.3218 3.76408C65.409 3.76408 65.5096 3.77748 65.5901 3.77748C65.6841 3.78083 65.778 3.78752 65.8585 3.79087L66.1269 3.80427L66.3953 3.81766C66.4658 3.82101 66.5731 3.83106 66.6637 3.83106C66.6805 3.83106 66.9052 3.80762 66.9287 3.80762C66.969 3.80427 67.1434 3.78418 67.1938 3.78418C67.2474 3.78418 67.4152 3.79422 67.4621 3.79757C67.4554 3.79757 67.1971 3.82101 67.1971 3.82101C67.1971 3.82771 67.4454 3.82771 67.4655 3.83441C67.5527 3.83441 67.6433 3.85115 67.7339 3.84781C67.7641 3.84446 67.9821 3.82436 67.9989 3.82436C68.0157 3.82101 67.7372 3.81432 67.7305 3.81097C67.7272 3.80762 67.9654 3.79087 67.9956 3.78752C68.0593 3.78083 68.2304 3.77078 68.2606 3.76408C68.2707 3.76073 68.2036 3.76073 68.1331 3.75738C68.0627 3.75403 67.9922 3.75069 67.9922 3.75069C67.9922 3.75069 68.0492 3.74399 68.1096 3.73729C68.17 3.73059 68.2371 3.72724 68.2572 3.72389C68.3143 3.7172 68.4451 3.70715 68.5223 3.70045L68.7873 3.67701C68.7907 3.68036 69.0725 3.68706 69.0557 3.6904C69.0288 3.6971 68.8477 3.7105 68.7907 3.71385C68.7269 3.72054 68.5558 3.73059 68.5256 3.73729C68.5089 3.74064 68.7839 3.74734 68.794 3.75069C68.8074 3.75403 68.529 3.77078 68.529 3.77413C68.529 3.78083 68.7772 3.78083 68.7974 3.78752L69.0624 3.76408L69.3274 3.74064C69.3878 3.73394 69.5119 3.72054 69.5925 3.7172C69.6361 3.71385 69.8072 3.73059 69.8608 3.73059C69.9313 3.73059 70.0487 3.70715 70.1259 3.70715C70.1594 3.7105 70.3708 3.72054 70.3943 3.72054C70.3775 3.72054 70.1326 3.74399 70.1292 3.74399C70.1292 3.74399 70.3842 3.75738 70.3976 3.75738C70.4647 3.75403 70.6123 3.73729 70.6627 3.73394L70.9277 3.7105L71.4577 3.66361C71.5181 3.66696 71.6725 3.67366 71.7261 3.67701C71.7429 3.67701 71.81 3.68036 71.8737 3.68371C71.9375 3.68706 71.9945 3.68706 71.9945 3.6904C71.9945 3.6904 71.9241 3.6971 71.8536 3.7038C71.7865 3.7105 71.7194 3.71385 71.7295 3.7172C71.763 3.72389 71.9308 3.72724 71.9979 3.73059C72.0482 3.73394 72.1992 3.74399 72.2663 3.74399C72.2965 3.74064 72.5044 3.72389 72.5313 3.72054L72.7963 3.6971C72.8601 3.6904 72.9775 3.67701 73.0614 3.67366C73.1016 3.67031 73.2794 3.68706 73.3297 3.68706C73.4002 3.68706 73.521 3.66361 73.5948 3.66361C73.6853 3.66026 73.7726 3.67701 73.8632 3.67701C73.9504 3.67701 74.041 3.65357 74.1282 3.65357C74.2188 3.65022 74.306 3.66696 74.3966 3.66696C74.4872 3.66361 74.5744 3.64352 74.6616 3.64352C74.7354 3.64352 74.8595 3.66026 74.93 3.65691C74.9971 3.65357 75.1447 3.63682 75.195 3.63347L75.4601 3.61003C75.5204 3.60333 75.6446 3.58994 75.7251 3.58659C75.7687 3.58324 75.9398 3.59998 75.9935 3.59998C76.0639 3.59998 76.1847 3.57654 76.2585 3.57654C76.3491 3.57319 76.4363 3.58993 76.5269 3.58993L76.2216 3.59328C76.1444 3.59998 76.0136 3.61338 75.9566 3.61673C75.9398 3.61673 75.8727 3.62342 75.809 3.63012C75.7486 3.63347 75.6915 3.64352 75.6915 3.64352C75.6915 3.64352 75.9331 3.65357 75.9566 3.65691C76.0203 3.65691 76.1545 3.63347 76.2216 3.63347C76.3155 3.63347 76.3927 3.64687 76.49 3.64687C76.5269 3.64687 76.7248 3.62677 76.755 3.62342C76.802 3.62008 76.9563 3.59998 77.02 3.59998C77.0905 3.59663 77.2146 3.61338 77.2884 3.61338C77.3589 3.61338 77.4797 3.58993 77.5535 3.58993C77.6441 3.58659 77.7313 3.60333 77.8219 3.60333C77.899 3.60333 78.0097 3.57989 78.0869 3.57989C78.1741 3.57654 78.2647 3.59328 78.3553 3.59328C78.4459 3.59328 78.5331 3.60668 78.6237 3.60668C78.6941 3.60668 78.8216 3.58659 78.8887 3.58324L78.6203 3.56984C78.6203 3.56984 78.6773 3.56314 78.7411 3.55645C78.8048 3.54975 78.8719 3.5464 78.8853 3.54305C78.9155 3.5397 79.1135 3.52296 79.1504 3.51961C79.2074 3.51961 79.3751 3.52965 79.4188 3.533C79.4825 3.53635 79.6536 3.5397 79.6871 3.5464C79.7073 3.54975 79.4221 3.56984 79.4221 3.56984C79.4221 3.56984 79.6771 3.58324 79.6905 3.58324C79.7475 3.57989 79.9119 3.56314 79.9555 3.55979L80.2206 3.53635L80.4856 3.51291L80.7506 3.48947C80.8244 3.48277 80.9251 3.47272 81.0157 3.46602C81.0492 3.46602 81.2371 3.47607 81.284 3.47942C81.3746 3.47607 81.4618 3.45933 81.5491 3.45598C81.6397 3.45263 81.7269 3.43253 81.8141 3.43253C81.898 3.42918 81.9953 3.44593 82.0825 3.44593C82.0993 3.44593 82.3442 3.45598 82.3576 3.45933C82.3677 3.46602 82.0825 3.47942 82.0858 3.48277C82.0858 3.48277 82.314 3.49282 82.3609 3.49616C82.3777 3.49616 82.626 3.46937 82.6562 3.46937C82.7132 3.46602 82.9145 3.47272 82.9615 3.47272C83.0218 3.47272 83.1963 3.47942 83.2735 3.47272C83.3137 3.46937 83.5251 3.43588 83.5586 3.43253C83.5989 3.42584 83.7934 3.3957 83.8371 3.39235C83.9008 3.38565 84.0887 3.38565 84.1457 3.37895C84.2363 3.36555 84.347 3.34546 84.4107 3.32872C84.451 3.32202 84.612 3.28183 84.6624 3.27513C84.7328 3.26509 84.8972 3.26174 84.9643 3.25169C85.0616 3.24164 85.179 3.22825 85.2629 3.22155C85.2897 3.2182 85.5447 3.19476 85.5614 3.18806C85.6319 3.17131 85.7359 3.13448 85.7795 3.12108C85.8332 3.10434 85.9741 3.0675 85.9875 3.0541C86.0311 3.05075 86.1955 3.02061 86.2626 3.00722C86.3196 2.99717 86.4773 2.97708 86.5377 2.95698C86.5847 2.94359 86.6652 2.8967 86.7122 2.87996C86.7692 2.86321 86.9168 2.84312 86.9705 2.82302C87.0376 2.79958 87.0577 2.76609 87.1181 2.74265C87.165 2.7259 87.3127 2.70246 87.3563 2.68237C87.3831 2.67232 87.4636 2.60869 87.4771 2.60199C87.4804 2.59864 87.4871 2.59529 87.4972 2.5886C87.524 2.57855 87.5341 2.5685 87.5341 2.55846C87.5509 2.54171 87.571 2.52831 87.581 2.51827C87.6012 2.50822 87.6448 2.49482 87.6851 2.48143L87.6884 2.48143C87.9836 2.43454 88.205 2.39771 88.3158 2.33073C88.4466 2.22021 88.8324 2.30059 88.9431 2.23026L88.668 2.13314C88.7787 2.06616 88.9632 2.03602 89.2417 2.02932C89.2048 1.95899 89.3524 1.88531 89.4463 1.83173C89.1041 1.83843 88.6915 1.9188 88.3795 1.9389C88.3761 1.9188 88.3661 1.89536 88.3661 1.87527C88.3661 1.86857 88.3896 1.85182 88.4164 1.83508C88.4567 1.84848 88.5103 1.86187 88.5808 1.85517C88.5707 1.83508 88.5204 1.81164 88.4667 1.79824L88.4701 1.79489C88.4768 1.78485 88.4667 1.7748 88.4567 1.7614L88.5875 1.67768C88.7552 1.66428 88.9733 1.68103 88.9163 1.75136L88.9532 1.66763L89.2484 1.67098L89.2283 1.78819L89.5973 1.73126L89.3591 1.65424L89.6912 1.62744L89.6577 1.55377ZM5.13613 2.98713C5.14284 2.98378 5.14284 2.97373 5.14284 2.96703C5.17303 2.98043 5.22 2.99047 5.25354 3.00387C5.24683 3.01392 5.24013 3.02731 5.23677 3.04406C5.22 3.04741 5.20658 3.05076 5.17638 3.05745L5.07238 3.02062C5.10258 3.00722 5.12606 2.99382 5.13613 2.98713ZM4.91135 2.95364C4.90464 2.95698 4.89458 2.96368 4.89122 2.96368C4.88787 2.96368 4.89122 2.96033 4.89122 2.95698L4.91135 2.95364ZM5.00864 4.30996L4.83755 4.29992L4.70335 4.33006L4.89122 4.22289C4.87445 4.27982 5.23342 4.24633 5.00864 4.30996ZM4.34774 2.92684C4.52555 2.90005 4.64632 2.94694 4.76374 2.97038L4.76709 2.97038C4.75367 2.99717 4.72684 3.03736 4.73355 3.05076C4.60271 3.03066 4.50877 2.95029 4.31084 2.94694C4.39135 2.99047 4.492 3.07085 4.31084 3.0742C4.09277 3.0608 4.25716 2.96033 4.34774 2.92684ZM4.44839 3.59664L4.29742 3.5598L4.55574 3.49617C4.70335 3.53301 4.49871 3.58324 4.44839 3.59664ZM3.57948 3.98512C3.61303 3.98512 3.65329 3.98177 3.6969 3.97507L3.73045 3.97172L3.85794 4.0253C3.75394 4.0253 3.65665 4.02195 3.57278 4.00856C3.58284 3.99851 3.58619 3.99181 3.57948 3.98512ZM3.24065 3.21485C3.35471 3.15122 3.21381 3.09429 3.10645 3.0541L3.348 3.00052C3.34129 3.10434 3.63652 3.16127 3.47549 3.26174L3.16013 3.2316L2.81123 3.31197L2.78439 3.25504L3.24065 3.21485ZM3.20039 3.56984C3.20039 3.56984 3.036 3.63347 3.01587 3.63682C2.97562 3.64687 2.80787 3.67031 2.77097 3.67366C2.73742 3.67701 2.52607 3.7038 2.52607 3.7038C2.52607 3.7038 2.56968 3.69376 2.61665 3.68036C2.66362 3.66696 2.71729 3.65692 2.73071 3.65357C2.80452 3.63347 2.86155 3.61338 2.92529 3.59329C2.9991 3.57989 3.07962 3.56984 3.15007 3.54975C3.12658 3.55645 3.00916 3.60668 2.96891 3.61338C2.99574 3.61673 3.19032 3.5665 3.20039 3.56984ZM2.27781 3.11104C2.31471 3.09429 2.35497 3.07755 2.39858 3.0675C2.44555 3.0742 2.49923 3.07755 2.56297 3.0809C2.56297 3.08759 2.56633 3.09764 2.57639 3.10434L2.60994 3.11774C2.67033 3.08425 2.75755 3.10099 2.81458 3.11439L2.81458 3.11774C2.5831 3.20816 2.4422 3.15122 2.27781 3.11104ZM2.31807 3.30863L2.6502 3.34881L2.61665 3.39235L2.73407 3.41579L2.52607 3.42584L2.52942 3.44928C2.32813 3.41914 2.32813 3.35551 2.31807 3.30863ZM3.06284 4.30662L2.91858 4.28987L2.94542 4.17936C3.15007 4.16596 3.14671 4.24968 3.06284 4.30662ZM2.50258 4.02865L2.49252 3.84446C2.71729 3.92483 3.05613 3.7172 3.28761 3.84781C3.12994 3.93823 2.76091 3.99516 2.50258 4.02865ZM5.20993 4.59128C4.94155 4.58793 4.9449 4.46402 4.65303 4.49081C4.59264 4.60467 4.65303 4.61807 4.88787 4.66495L4.5658 4.675L4.37793 4.59128C4.16658 4.72858 3.99884 4.59128 3.79419 4.56114L3.73716 4.48746L3.52245 4.47406L3.51239 4.55109L3.40503 4.57453C3.43187 4.5042 3.56607 4.41043 3.75394 4.43053L3.79755 4.37025L3.51574 4.3602L3.52245 4.41043L3.31445 4.35685L3.54929 4.34011C3.61974 4.27313 3.53587 4.20615 3.75058 4.15591C3.99213 4.16261 4.06258 4.03535 4.27058 4.08893C4.71006 4.0387 4.25381 4.20615 4.49871 4.23964L4.30077 4.23294C3.05949 4.14921 3.96194 4.42383 4.10284 4.3535L4.08606 4.40708C3.96865 4.38364 3.73716 4.42383 3.79084 4.47406L4.09613 4.5176C4.1129 4.46402 4.34774 4.44727 4.47187 4.43053C4.67987 4.48411 4.93148 4.41378 5.17974 4.44392L5.21664 4.42383L5.46154 4.45397C5.29045 4.44727 5.23677 4.52095 5.20993 4.59128ZM5.92116 4.63146C5.78696 4.66161 5.62258 4.61137 5.55883 4.57788L5.57561 4.5243C5.75677 4.5176 6.01845 4.55779 5.92116 4.63146ZM6.2969 4.60802C6.24657 4.57788 6.20632 4.55779 6.22644 4.53434C6.27006 4.55109 6.31032 4.56449 6.3338 4.57453C6.34051 4.58123 6.34386 4.58793 6.35057 4.59797L6.2969 4.60802ZM7.28993 4.71854L7.10541 4.78552C6.90077 4.81901 6.82361 4.71184 6.60219 4.73863L6.6089 4.82236C6.4378 4.81231 6.35728 4.76542 6.46128 4.71854L6.84038 4.65826L6.76993 4.61807C6.83031 4.62142 6.8907 4.62812 6.91419 4.62812C6.92425 4.63146 6.93767 4.63481 6.94773 4.63816L7.09535 4.73863L7.18257 4.69509C7.22283 4.70179 7.25973 4.70849 7.29999 4.71854L7.28993 4.71854ZM40.5027 4.00186L40.5631 3.96167L40.7242 4.00856C40.6638 4.04874 40.5363 4.01191 40.5027 4.00186ZM41.1469 3.61003L41.2274 3.55645L41.4454 3.62008C41.3649 3.67366 41.1905 3.62343 41.1469 3.61003ZM42.2238 3.55645L42.462 3.52631L42.6263 3.67366C42.4653 3.65022 42.3479 3.66361 42.2238 3.55645ZM45.9845 3.70715C46.1523 3.64017 46.3468 3.80427 46.5582 3.72055L46.5683 3.75069C46.3871 3.78752 45.9678 3.81097 45.9845 3.70715ZM85.1622 1.50688C85.1387 1.52698 85.1253 1.53367 85.0079 1.54372L84.971 1.50688L85.1622 1.50688ZM85.1454 2.21686C85.1018 2.22021 85.075 2.21016 85.0482 2.20681L84.9509 2.21686C85.0012 2.20681 84.8737 2.20012 84.9542 2.19007L84.9978 2.20347L85.0213 2.19342C85.0817 2.18337 85.0918 2.21351 85.1555 2.21351C85.1387 2.20347 85.1186 2.19007 85.1622 2.19007C85.2125 2.19342 85.1689 2.21351 85.1454 2.21686ZM85.4071 1.68103L85.3534 1.6241L85.5346 1.6174C85.5614 1.64754 85.5279 1.69107 85.4071 1.68103ZM86.8866 1.97574C86.8296 1.99918 86.8866 2.01927 86.9302 2.03267L86.8162 2.04941C86.8296 2.01257 86.7054 1.98913 86.786 1.95564L86.9235 1.96904L87.0845 1.94225L87.0912 1.96234L86.8866 1.97574ZM87.571 0.816997L87.108 0.877277C87.1281 0.756715 87.259 0.726574 87.571 0.816997ZM87.6448 1.39972C87.5408 1.36288 87.3429 1.4466 87.2355 1.38967C87.3261 1.35283 87.524 1.33274 87.6616 1.32269L87.6448 1.39972ZM87.7488 0.83709C87.7589 0.83709 87.7756 0.840439 87.7958 0.847137L87.7488 0.83709ZM88.8223 1.23227C88.7318 1.20882 88.7318 1.18203 88.7116 1.14854L88.7854 1.1385C88.8592 1.17534 88.9129 1.20548 88.8223 1.23227Z" fill="#F2E4D0"/>
</svg>
