<?xml version="1.0" encoding="utf-8"?>
<!-- Generator: Adobe Illustrator 24.0.2, SVG Export Plug-In . SVG Version: 6.00 Build 0)  -->
<svg version="1.1" id="Layer_1" xmlns="http://www.w3.org/2000/svg" xmlns:xlink="http://www.w3.org/1999/xlink" x="0px" y="0px"
	 viewBox="0 0 211.42 115.3" style="enable-background:new 0 0 211.42 115.3;" xml:space="preserve">
<style type="text/css">
	.st0{fill:#FFFFFF;}
</style>
<g>
	<g>
		<g>
			<path class="st0" d="M195.59,62.71c0-0.01,0.53-1.35,0.56-1.42c-0.07,0.15-0.56,1.16-0.66,1.37c-0.05,0.13-0.17,0.43-0.29,0.73
				c-0.14,0.29-0.28,0.58-0.32,0.67c-0.09,0.19-0.67,1.39-0.67,1.39s0.18-0.31,0.36-0.63s0.37-0.66,0.4-0.71
				c0.26-0.45,0.53-0.89,0.72-1.36c0.08-0.19,0.51-1.3,0.56-1.42C196.21,61.42,195.6,62.7,195.59,62.71z"/>
			<path class="st0" d="M117.98,115.3c1.2-0.08,1.98-0.45,1.97-0.61c-0.66,0.11-1.33,0.2-1.99,0.28L117.98,115.3z"/>
			<path class="st0" d="M115.14,114.86c1.33-0.22,1.55-0.28,1.98-0.44l-1.99,0.23L115.14,114.86z"/>
			<path class="st0" d="M124.45,109.58l-0.88,0.04l-0.82,0.38C122.83,110.11,124.06,109.72,124.45,109.58z"/>
			<path class="st0" d="M129.71,114.5c1.53-0.43,1.39-0.34,2.47-0.84l-1.1,0.2L129.71,114.5z"/>
			<path class="st0" d="M115.15,113.51c1.8-0.27,0.83-0.42,0.78-0.49C115.33,113.24,114.5,113.47,115.15,113.51z"/>
			<path class="st0" d="M120.28,113.43c-0.95,0.11-1.91,0.2-2.86,0.28c-0.49-0.05-0.97-0.1-1.08,0.05l0.48,0.05
				C116.72,114.03,118.98,113.65,120.28,113.43z"/>
			<path class="st0" d="M79.16,12.02c0,0,0.2-0.04,0.44-0.08c-0.88-0.06-2.65,0.23-4.95,0.81c0.49-0.07,1.11-0.17,1.17-0.17
				c0.07,0-0.94,0.2-1.41,0.3c0.01,0.01,0.01,0.02,0.03,0.02c0.45-0.07,1.32-0.21,1.41-0.21c0.62-0.12,1.01-0.23,1.66-0.34
				c0.44-0.08,1.22-0.15,1.68-0.22c0.17-0.03,0.46-0.08,0.75-0.14c-0.05-0.02-0.09-0.04-0.16-0.05
				C79.45,11.99,79.16,12.02,79.16,12.02z"/>
			<path class="st0" d="M17.88,70.44c0.17,0.16,1.06,1,1.17,1.11c0.08,0.06,0.39,0.32,0.67,0.56c0.31,0.22,0.59,0.43,0.59,0.43
				c0,0-0.27-0.23-0.56-0.48c-0.28-0.26-0.57-0.54-0.64-0.6c-0.3-0.27-0.85-0.82-1.17-1.1c-0.23-0.17-1.01-0.91-1.18-1.06
				c-0.16-0.15-1.15-1.06-1.16-1.07c-0.01,0,0.06,0.07,0.15,0.17c0.1,0.1,0.23,0.24,0.36,0.38c0.27,0.28,0.54,0.56,0.57,0.61
				C17.09,69.75,17.46,70.1,17.88,70.44z"/>
			<path class="st0" d="M186.27,15.41c0.52,0.3,1.09,0.61,1.61,0.91c0.22,0.13,1.59,0.91,1.61,0.92c0,0-0.35-0.23-0.72-0.48
				c-0.37-0.24-0.77-0.5-0.88-0.57c-0.08-0.04-1.44-0.81-1.62-0.91c-0.43-0.25-1.19-0.69-1.64-0.94c-0.55-0.29-1.1-0.53-1.66-0.82
				c0.54,0.31,1.11,0.64,1.64,0.94c0.11,0.07,0.52,0.3,0.91,0.52c0.19,0.11,0.37,0.21,0.51,0.29
				C186.19,15.35,186.27,15.41,186.27,15.41z"/>
			<path class="st0" d="M33.44,26.09c0,0,1.42-0.67,1.51-0.72c0.49-0.25,0.99-0.51,1.49-0.77c-0.07,0.03-1.55,0.67-1.55,0.67
				S33.45,26.08,33.44,26.09z"/>
			<path class="st0" d="M202.31,28.95c-0.41-0.55-0.82-1-1.23-1.54c0.07,0.09,1.17,1.65,1.17,1.65c0.05,0.06,1.23,1.54,1.19,1.57
				C203.48,30.6,202.38,29.05,202.31,28.95z"/>
			<path class="st0" d="M207.37,77.82c-0.12,0.03-0.29,0.09-0.45,0.14c-0.15,0.07-0.28,0.14-0.41,0.2c0.25-0.08,0.42-0.11,0.42-0.01
				L207.37,77.82z"/>
			<path class="st0" d="M199.07,80.79l0.2-0.1c0.25-0.13,0.47-0.24,0.68-0.33c-0.05,0.01-0.04-0.02,0.02-0.07
				c-0.5,0.19-1.08,0.43-1.69,0.7L199.07,80.79z"/>
			<path class="st0" d="M210.5,77.89l-0.29-0.1c-2.16,1.12-2.01,1.17-2.59,1.59L210.5,77.89z"/>
			<polygon class="st0" points="203.37,83.02 203.86,82.8 204.5,82.38 203.27,82.93 			"/>
			<path class="st0" d="M204.81,78.67l-0.67,0.25c-0.22,0.12-1.08,0.61-0.4,0.38C204.1,79.1,204.45,78.89,204.81,78.67z"/>
			<path class="st0" d="M204.71,82.12c0.47-0.2,0.93-0.39,1.39-0.61l-0.59,0.16L204.71,82.12z"/>
			<path class="st0" d="M205.67,81.42l0.55-0.26c-1.31,0.4,2.03-1.34,0.98-1.01C205.29,81.01,205.17,81.48,205.67,81.42z"/>
			<path class="st0" d="M204.79,80.04l0.82-0.56c-0.34,0.18-1.02,0.58-1.04,0.66L204.79,80.04z"/>
			<path class="st0" d="M206.78,79.94c0.55-0.13,0.82-0.29,1.27-0.5l-0.73,0.18L206.78,79.94z"/>
			<path class="st0" d="M211.42,76.25l-0.91,0.34c-0.29,0.18-1.44,0.88-0.53,0.54L211.42,76.25z"/>
			<path class="st0" d="M198.7,80.44c-0.61,0.24-1.36,0.63-2.08,0.98c0.78-0.32,1.52-0.69,2.28-1.04
				C198.79,80.42,198.72,80.45,198.7,80.44z"/>
			<polygon class="st0" points="209.69,80.03 209.72,80.01 209.69,80.03 			"/>
			<path class="st0" d="M206.03,79.05c0.41-0.1,0.81-0.2,0.81-0.3l-0.41,0.1c-0.06-0.16-1.56,0.67-2.49,1.06
				C204.66,79.65,205.34,79.33,206.03,79.05z"/>
			<path class="st0" d="M194.68,82.24c0.09-0.08-0.27-0.13-1.03,0.2C193.71,82.51,194.27,82.41,194.68,82.24z"/>
			<path class="st0" d="M200.29,82.86c-0.05,0.06,0.52,0,1.24-0.36C201.37,82.48,200.7,82.67,200.29,82.86z"/>
			<path class="st0" d="M184.25,86.64l2-0.9C184.64,86.11,184.11,86.39,184.25,86.64z"/>
			<path class="st0" d="M15.8,38.49c1.52-1.6,1.43-1.58,1.8-2.12c-0.7,0.7-1.46,1.37-2.09,2.12L15.8,38.49z"/>
			<path class="st0" d="M8.81,49.42c0.47-0.99-0.16,1.94,0.21,1.12c0.46-1.58,0.16-1.92-0.09-1.59L8.81,49.42z"/>
			<path class="st0" d="M13.57,41.45c-0.04,0.1,0.29,0,0.74-0.57C14.23,40.84,13.83,41.15,13.57,41.45z"/>
			<path class="st0" d="M43.71,21.26c0.41-0.1,1.32-0.42,1.65-0.59C45.28,20.66,44.2,20.97,43.71,21.26z"/>
			<path class="st0" d="M117.16,113.44c1.34-0.25,2.68-0.53,4.01-0.81l-0.2,0.38c4.07-0.29-2.8,0.95-1.93,1.26
				c0.84-0.01,1.82,0.08,2.8,0.16c1.44-0.2,0.28,0.36,2.42-0.06l1.76-0.52c-0.09,0-0.17,0-0.26,0l-0.59,0.16l0.4-0.16
				c-1.6,0.02-2.61-0.05,1.21-0.75c0.85-0.02-1.29,0.39-0.68,0.43c0.23-0.04,0.41-0.08,0.57-0.11l0.25-0.1
				c-0.02,0.02,0.01,0.02,0.04,0.03c0.36-0.1,0.54-0.18,0.67-0.25l0.01,0c0.16,0.02,0.45,0,0.72-0.02
				c-0.12,0.05-0.16,0.09-0.19,0.12c0.3-0.04,0.41-0.04,0.04,0.09c0.16,0.05,0.58,0.04,1.16-0.01l-0.59,0.13l-0.07,0.02
				c-0.08,0-0.16,0.01-0.22,0.01c-0.39,0.03-0.72,0.03-1.04,0.04l-0.12,0.02c0.15,0.08,0.37,0.14,0.62,0.19l-0.57,0.2l-0.83,0.19
				l-0.33,0.29l1.42-0.31l0.2-0.31c0.06-0.02,0.11-0.03,0.16-0.05c0.13,0.03,0.25,0.06,0.38,0.08c0.4-0.02,0.85-0.05,1.31-0.09
				l-0.84,0.26l0.97-0.12l0.45-0.2c0.33-0.03,0.67-0.06,0.98-0.09c0.36-0.04,0.76-0.09,1.16-0.14c-0.12,0-0.25,0.01-0.34,0.01
				l0.2-0.23c1.54-0.36,3.7-0.72,2.79-0.26c-0.53,0.17-1.09,0.28-1.59,0.36c0.5,0.01,1.09,0.01,2.13-0.18
				c0.18-0.09,0.38-0.16,0.57-0.23c0.3-0.01,0.76-0.04,0.85-0.04c0.17-0.01,0.44-0.02,0.74-0.05c0.25-0.17,0.76-0.39,1.39-0.52
				l0.21-0.16l-1.16,0.28l0.01,0.08l-0.83,0.12l0.99-0.27c0.33-0.2,0.02-0.23,0.93-0.55c0.99-0.26,1.35-0.57,2.17-0.71
				c1.83-0.59-0.14,0.24,0.86,0.02l-0.81,0.21c-5.05,1.24-1.5,0.73-0.88,0.45l-0.1,0.12c-0.47,0.09-1.44,0.42-1.25,0.46l1.23-0.26
				c0.1-0.12,1.08-0.41,1.6-0.58c0.83-0.13,1.9-0.57,2.89-0.81l0.17-0.09l0.99-0.24c-0.69,0.19-0.95,0.4-1.1,0.56
				c-1.1,0.32-1.02,0.1-2.23,0.49c-0.31,0.27-0.07,0.25,0.87,0.04c-0.44,0.14-0.89,0.27-1.33,0.39l-0.72,0.06
				c-0.94,0.49-1.57,0.43-2.39,0.6l-0.2-0.08l-0.88,0.2l-0.09,0.16l-0.1,0.03l0.25-0.02c0.26-0.03,1.45-0.3,1.76-0.36
				c0.5-0.08,0.81-0.08,1.36-0.19c0.27-0.06,1.59-0.37,1.84-0.43c0.26-0.07,1.54-0.42,1.86-0.5c0.33-0.08,1.27-0.25,1.53-0.3
				c0.22-0.03,1.29-0.27,1.62-0.37c0.63-0.18,1.3-0.43,1.92-0.61c0.47-0.13,1.21-0.29,1.73-0.47c0.6-0.22,1.33-0.48,1.93-0.7
				c0.61-0.21,1.33-0.51,1.92-0.74c0.61-0.21,1.17-0.4,1.8-0.62c0.62-0.24,1.28-0.55,1.89-0.81c0.63-0.25,1.21-0.47,1.84-0.72
				c-0.08,0.04-1.88,0.86-1.88,0.86s1.79-0.7,1.89-0.74c0.43-0.18,1.58-0.73,1.88-0.9l1.82-0.93c0.27-0.14,1.4-0.73,1.65-0.87
				c0.32-0.16,1.4-0.68,1.65-0.8c0.12-0.06,1.59-0.78,1.65-0.81c0.55-0.3,1.09-0.66,1.53-0.93c0.37-0.23,1.34-0.82,1.53-0.94
				c-0.11,0.06-1.6,0.85-1.63,0.86c0,0,0.41-0.26,0.81-0.5c1.28-0.64,2.52-1.35,3.77-2.06c1.2-0.7,1.44-0.93,1.48-1.07
				c0.05-0.04,0.11-0.08,0.16-0.12c0.22-0.14,1.46-0.92,1.58-0.99c-0.11,0.08-1.46,1.05-1.48,1.06c0,0,0.42-0.26,0.83-0.52
				c0.41-0.26,0.8-0.51,0.76-0.47c-0.13,0.09-1.16,0.83-1.48,1.06c-0.1,0.07-0.48,0.34-0.83,0.57c-0.35,0.23-0.66,0.44-0.66,0.44
				s0.38-0.21,0.76-0.44c0.38-0.22,0.77-0.48,0.83-0.51c0.98-0.72,2-1.39,2.95-2.15l1.44-1.12c0.48-0.37,0.95-0.74,1.41-1.14
				c0.13-0.11,0.31-0.27,0.49-0.42c0.25-0.11,0.47-0.22,0.67-0.31c0.33-0.34,0.6-0.63,0.85-0.91c0.34-0.25,0.69-0.55,0.86-0.69
				c0.46-0.4,0.88-0.83,1.34-1.23c0.54-0.44,0.91-0.73,1.43-1.21c0.28-0.25,1.09-0.97,1.41-1.25c0.38-0.34,0.92-0.96,1.26-1.32
				c0.3-0.29,1.13-1.1,1.35-1.31c0.27-0.23,1.25-1.27,1.32-1.35c0.04-0.03-0.26,0.32-0.56,0.68c-0.32,0.35-0.64,0.7-0.64,0.7
				s0.32-0.31,0.64-0.63c0.31-0.33,0.63-0.68,0.68-0.72c0.42-0.47,0.88-0.92,1.29-1.39c0.08-0.1,0.35-0.42,0.61-0.74
				c0.24-0.33,0.48-0.65,0.53-0.72c-0.04,0.04-0.27,0.32-0.59,0.7c-0.33,0.36-0.67,0.72-0.68,0.73c0,0,0.31-0.38,0.62-0.75
				c0.29-0.38,0.57-0.76,0.53-0.71c-0.16,0.19-0.94,1.1-1.26,1.42l-1.29,1.39c0.44-0.54,0.72-0.87,1.17-1.42
				c0.29-0.33,0.98-1.04,1.26-1.42c0.32-0.4,0.78-1.07,1.1-1.49c0.21-0.25,1.05-1.26,1.19-1.49c0.21-0.29,1.08-1.45,1.14-1.53
				c0.04-0.04-0.22,0.35-0.49,0.75c-0.27,0.4-0.54,0.81-0.54,0.81s1.06-1.43,1.15-1.54c0.18-0.24,0.88-1.37,0.98-1.59
				c0.29-0.51,0.7-1.23,0.93-1.63c0.09-0.15,0.3-0.53,0.51-0.89c0.19-0.37,0.36-0.72,0.38-0.77c0.01-0.05-0.21,0.38-0.46,0.81
				c-0.26,0.42-0.54,0.84-0.54,0.84s0.21-0.37,0.43-0.76c0.23-0.38,0.41-0.83,0.46-0.89c0.11-0.2,0.84-1.51,0.94-1.69
				c0.32-0.57,0.63-1.13,0.9-1.74c0.24-0.51,0.54-1.16,0.82-1.78c0.04-0.1,0.19-0.48,0.34-0.86c0.13-0.4,0.25-0.81,0.3-0.95
				c0.1-0.26,0.6-1.64,0.68-1.87c0.04-0.11,0.18-0.51,0.33-0.91c0.11-0.42,0.23-0.84,0.27-0.99c0.08-0.4,0.34-1.61,0.4-1.91
				c0.06-0.28,0.12-0.59,0.18-0.91c0.04-0.33,0.08-0.67,0.12-1.02c0.05-0.44,0.17-1.47,0.22-1.95c0.11-0.66,0.19-1.32,0.22-2
				c0,0.05-0.01,0.54-0.02,1.02c-0.02,0.48-0.08,0.94-0.08,0.94s0.09-0.45,0.14-0.93c0.03-0.48,0.07-0.99,0.08-1.08
				c0-0.24,0.02-1.75,0.02-1.97c0.04-0.29-0.07-1.6-0.11-1.99c-0.04-0.67-0.04-1.39-0.09-2.05c-0.03-0.33-0.02-0.68-0.07-1.03
				c-0.06-0.35-0.11-0.7-0.16-1.03c-0.1-0.54-0.33-1.41-0.44-1.97c-0.07-0.33-0.11-0.68-0.19-1.02c-0.1-0.34-0.19-0.67-0.29-1
				c-0.15-0.49-0.51-1.39-0.68-1.9c-0.06-0.13-0.16-0.59-0.33-1c-0.17-0.41-0.34-0.82-0.39-0.93c-0.13-0.3-0.64-1.52-0.82-1.9
				c-0.1-0.32-0.87-1.49-1.02-1.72c-0.16-0.25-0.87-1.36-1.08-1.67c-0.32-0.57-0.76-1.16-1.13-1.68c-0.01-0.02-1.06-1.32-1.23-1.53
				c-0.03-0.11-1.14-1.38-1.27-1.54c-0.38-0.42-0.98-1.01-1.35-1.4c-0.47-0.47-1.02-0.92-1.43-1.28c-0.22-0.19-1.16-1.01-1.44-1.26
				c-0.4-0.35-1.08-0.95-1.47-1.27c0.07,0.05,0.45,0.34,0.81,0.61c0.36,0.27,0.7,0.54,0.7,0.54s-0.34-0.3-0.69-0.61
				c-0.36-0.3-0.73-0.62-0.78-0.66c-0.25-0.19-1.32-0.99-1.51-1.13c-0.46-0.3-1.01-0.66-1.56-1.03c-0.35-0.23-1.18-0.77-1.57-1.02
				c-0.53-0.34-1.05-0.71-1.59-1.04c-0.6-0.39-1.01-0.66-1.59-1.03c-0.03-0.01-1.44-0.72-1.64-0.83c-0.1-0.05-1.46-0.72-1.65-0.82
				c-0.35-0.18-1.37-0.72-1.67-0.86c-0.53-0.23-1.27-0.55-1.68-0.73l-3.39-1.31c-0.07-0.06-1.78-0.71-1.72-0.71
				c0.03,0-0.41-0.17-0.84-0.34c-0.44-0.17-0.89-0.36-0.89-0.36s0.4,0.13,0.81,0.27c0.42,0.14,0.85,0.29,0.9,0.3
				c0.12,0.04,1.68,0.57,1.72,0.58c0,0-0.37-0.16-0.77-0.32c-0.4-0.16-0.83-0.33-0.95-0.38c-0.09-0.03-1.54-0.51-1.72-0.57
				c-0.58-0.2-1.17-0.44-1.75-0.63c-0.58-0.19-1.16-0.32-1.74-0.5c-0.57-0.18-1.16-0.37-1.72-0.55l-3.45-1.11
				c-0.56-0.12-1.16-0.26-1.72-0.38c-0.24-0.05-1.7-0.37-1.72-0.38c0,0,0.45,0.13,0.9,0.26c0.44,0.12,0.87,0.24,0.84,0.24
				c-0.06,0,1.69,0.47,1.74,0.5c-0.03-0.01-1.51-0.34-1.72-0.38l-1.72-0.38l-1.74-0.5c-0.42-0.13-1.2-0.32-1.74-0.46
				c-0.31-0.06-1.36-0.26-1.73-0.33c-0.4-0.1-1.39-0.36-1.75-0.45c-0.63-0.16-1.22-0.28-1.76-0.41c-0.3-0.07-1.37-0.31-1.76-0.4
				c-0.23-0.04-1.55-0.25-1.74-0.28c-0.42-0.06-1.2-0.17-1.75-0.25c-0.28-0.05-1.43-0.28-1.77-0.34c-0.47-0.06-1.25-0.16-1.74-0.23
				c-0.4-0.07-1.42-0.28-1.78-0.32c-0.53-0.05-1.35-0.14-1.75-0.18c-0.54-0.05-1.11-0.11-1.75-0.18c-0.47-0.04-1.19-0.11-1.75-0.16
				c-0.47-0.06-1.29-0.18-1.79-0.25c-0.58-0.06-1.16-0.07-1.75-0.13c-0.4-0.06-1.42-0.19-1.79-0.23c-0.32-0.04-1.31-0.14-1.79-0.2
				c-0.25-0.03-1.77-0.19-1.79-0.2c0.02,0,1.65,0.08,1.75,0.08c-0.46-0.05-1.23-0.13-1.79-0.2c-0.28-0.03-1.46-0.18-1.8-0.18
				c-0.43-0.01-1.37-0.03-1.75-0.03c0.16,0.01,1.54,0.13,1.8,0.15l-1.76-0.03l-1.75-0.03c-0.26,0-1.4-0.02-1.75-0.03
				c-0.27-0.02-1.57-0.09-1.79-0.1c-0.56-0.03-1.15-0.06-1.8-0.1c-0.49-0.02-1.24-0.09-1.8-0.1c-0.47,0.02-1.25,0.04-1.75,0.06
				c-0.6-0.02-1.19-0.04-1.8-0.05c-0.27,0.01-1.53,0.05-1.75,0.06c-0.51,0.03-1.13,0.06-1.75,0.1c-0.39,0.02-1.32,0.08-1.75,0.1
				c-0.6,0-1.19-0.01-1.8-0.01c-0.38,0.01-1.51,0.03-1.8,0.03c-0.29,0.01-1.42,0.03-1.8,0.04c-0.25,0.02-1.54,0.13-1.74,0.15
				c-0.24,0.02-1.43,0.15-1.75,0.18c-0.31,0.01-1.55,0.07-1.79,0.08c-0.21,0.01-1.55,0.07-1.8,0.08C93.2,0.85,92.19,1,91.87,1.04
				c-0.27,0.04-1.4,0.19-1.73,0.24c-0.49,0.04-1.33,0.1-1.79,0.13c-0.68,0.07-1.06,0.17-1.74,0.26c-0.47,0.05-1.29,0.13-1.79,0.17
				c-0.36,0.06-1.42,0.23-1.73,0.28c0.04,0,1.77-0.17,1.79-0.17c-0.03,0-1.52,0.25-1.73,0.28c-0.58,0.09-1.15,0.18-1.72,0.29
				c-0.07,0-0.51,0.06-0.94,0.11c-0.43,0.05-0.85,0.1-0.85,0.1c0.02,0,1.59-0.29,1.73-0.31c-0.23,0.03-1.35,0.16-1.79,0.21
				L77.8,2.85c-0.33,0.04-1.34,0.17-1.78,0.24c-0.2,0.04-1.54,0.32-1.72,0.36l-1.71,0.37c-0.43,0.1-1.16,0.27-1.71,0.39
				c-0.29,0.06-1.43,0.23-1.78,0.31c-0.55,0.13-1.17,0.29-1.7,0.42c-0.64,0.12-1.14,0.22-1.77,0.35c-0.46,0.1-1.21,0.34-1.7,0.46
				c-0.58,0.14-1.19,0.23-1.77,0.38c0.11-0.03,1.7-0.47,1.7-0.47s-1.67,0.36-1.77,0.38c-0.58,0.17-1.11,0.33-1.69,0.49
				c-0.58,0.15-1.19,0.26-1.76,0.42c-0.57,0.16-1.11,0.36-1.68,0.53c-0.59,0.15-1.16,0.3-1.76,0.45c-0.52,0.16-1.13,0.41-1.67,0.57
				c-0.36,0.1-1.44,0.39-1.74,0.49c-0.53,0.19-1.26,0.46-1.66,0.6l-1.65,0.63c-0.35,0.14-1.17,0.46-1.64,0.65
				c-0.37,0.14-1.31,0.41-1.72,0.57c-0.46,0.19-1.19,0.5-1.63,0.68c-0.64,0.25-1.06,0.37-1.7,0.63c0.07-0.03,1.61-0.71,1.61-0.71
				s-1.61,0.59-1.69,0.63c-0.36,0.16-1.35,0.6-1.61,0.72c-0.47,0.22-1.03,0.46-1.6,0.73c-0.35,0.17-1.2,0.58-1.59,0.77
				c-0.34,0.14-1.39,0.57-1.68,0.68c-0.11,0.04-0.53,0.22-0.91,0.4c-0.39,0.17-0.75,0.33-0.76,0.33c0,0,0.36-0.19,0.75-0.39
				c0.38-0.19,0.78-0.39,0.83-0.42c0.05-0.03,0.45-0.22,0.84-0.4c0.39-0.18,0.75-0.36,0.75-0.36s-1.57,0.64-1.68,0.68
				c-0.27,0.11-1.37,0.71-1.58,0.82c-0.48,0.25-1,0.52-1.57,0.82c-0.43,0.21-1.07,0.57-1.56,0.84c-0.43,0.21-1.19,0.58-1.64,0.8
				c-0.39,0.21-1.21,0.67-1.55,0.89c0.54-0.29,1.09-0.54,1.64-0.81c-0.01,0-0.34,0.19-0.7,0.4c-0.36,0.2-0.75,0.42-0.85,0.49
				c-0.11,0.06-1.42,0.76-1.62,0.86c-0.42,0.25-1.1,0.67-1.53,0.94c-0.29,0.17-1.36,0.79-1.59,0.93c0.05-0.03,1.48-0.99,1.5-1
				c-0.03,0.01-1.41,0.82-1.6,0.93c-0.22,0.13-1.32,0.77-1.6,0.93c-0.27,0.2-1.26,0.92-1.47,1.07l-1.47,1.08
				c-0.41,0.33-0.92,0.74-1.42,1.14c-0.15,0.13-1.3,0.91-1.52,1.1c-0.2,0.18-1.21,1.09-1.38,1.23c-0.45,0.42-0.92,0.8-1.35,1.26
				c-0.95,0.86-1.93,1.66-2.82,2.61c0.42-0.47,0.83-0.95,1.27-1.38c0.32-0.33,0.9-0.9,1.32-1.33c0.23-0.25,1.16-0.96,1.47-1.21
				c0.46-0.41,0.91-0.82,1.38-1.23c-0.98,0.8-2,1.54-2.96,2.4l-1.32,1.32c-0.45,0.43-0.86,0.92-1.28,1.39
				c-0.37,0.43-0.8,0.92-1.25,1.43c-0.13,0.15-1.1,1.27-1.29,1.49c-0.14,0.19-0.37,0.48-0.59,0.77c-0.2,0.31-0.41,0.62-0.52,0.8
				c-0.38,0.58-0.75,1.15-1.06,1.63c-0.14,0.25-0.77,1.41-0.95,1.73c-0.08,0.15-0.33,0.51-0.53,0.9c-0.2,0.39-0.39,0.77-0.46,0.9
				c-0.07,0.13-0.9,1.77-0.88,1.87c-0.22,0.69-0.45,1.38-0.63,1.94c-0.16,0.61-0.35,1.52-0.45,2.01c-0.12,0.36-0.3,1.92-0.3,2.04
				c0,0.05,0.08-0.47,0.17-1.01c0.08-0.54,0.25-1.07,0.25-1.07s-0.02,0.12-0.06,0.29c-0.03,0.18-0.1,0.41-0.13,0.66
				c-0.06,0.5-0.12,1.01-0.12,1.08c-0.03,0.19-0.1,0.64-0.17,1.08c-0.07,0.44-0.06,0.88-0.08,1.03c-0.02,0.28-0.1,1.96-0.07,2.13
				c-0.01,0.06-0.05-0.46-0.04-1c0-0.54,0-1.08,0-1.08s-0.12,1.85-0.06,2.14c0.03,0.5,0.09,1.49,0.13,2.14
				c0.21,1.4,0.42,2.83,0.84,4.16c0.22,0.65,0.43,1.3,0.73,1.91c0.12,0.25,0.69,1.51,0.84,1.84c0.16,0.32,0.79,1.57,0.91,1.83
				c0.04,0.07,0.24,0.51,0.48,0.91c0.24,0.4,0.49,0.79,0.52,0.84c0.37,0.54,0.81,1.2,1.13,1.59c0.33,0.4,1.02,1.25,1.22,1.49
				c-0.07-0.1-1.14-1.56-1.16-1.6c0.02,0.03,1.07,1.31,1.21,1.48c0.4,0.5,0.82,0.97,1.26,1.42c0.41,0.48,0.84,1,1.25,1.48
				c0.08,0.11,0.42,0.44,0.72,0.77c0.31,0.32,0.59,0.62,0.59,0.62s-1.44-1.32-1.36-1.27c0.21,0.24,1.02,1.08,1.33,1.39
				c0.36,0.35,0.98,0.91,1.38,1.24c0.25,0.23,1.19,1.1,1.39,1.29c0.48,0.41,1.04,0.85,1.44,1.13c0.36,0.26,1.29,0.94,1.48,1.08
				c-0.1-0.08-1.42-1.18-1.44-1.2c0,0,0.34,0.25,0.7,0.51c0.35,0.26,0.72,0.54,0.77,0.57c0.49,0.41,0.95,0.79,1.46,1.16
				c0.5,0.37,1,0.75,1.48,1.11c0.5,0.37,0.99,0.75,1.5,1.09c0.46,0.32,1.17,0.8,1.52,1.04c0.28,0.2,1.43,0.96,1.54,1.02
				c0.04,0.03-0.36-0.17-0.75-0.42c-0.4-0.24-0.8-0.48-0.8-0.48s0.33,0.23,0.69,0.47c0.35,0.25,0.75,0.48,0.86,0.55
				c0.08,0.04,1.54,0.83,1.58,0.85c0.05,0.02,0.45,0.24,0.83,0.45c0.38,0.21,0.75,0.4,0.75,0.4s-0.4-0.25-0.8-0.5
				c-0.4-0.24-0.79-0.48-0.77-0.48c0.05,0.01,1.47,0.81,1.58,0.85c0.04,0.02-0.35-0.22-0.75-0.47c-0.4-0.24-0.81-0.5-0.81-0.5
				s0.37,0.19,0.75,0.4c0.38,0.21,0.77,0.43,0.83,0.45l3.19,1.8c0.53,0.31,1.07,0.58,1.62,0.86c0.24,0.12,1.32,0.68,1.62,0.83
				c0.27,0.12,1.42,0.63,1.63,0.7c0.51,0.2,1.24,0.49,1.65,0.65c0.31,0.12,1.55,0.62,1.65,0.65c0.21,0.12,1.25,0.57,1.66,0.74
				c0.53,0.23,1.07,0.46,1.67,0.71c0.14,0.05,1.44,0.51,1.66,0.59c0.32,0.12,1.43,0.56,1.69,0.66c0.32,0.12,1.29,0.5,1.69,0.65
				c0.22,0.08,1.49,0.48,1.68,0.52l1.7,0.48c0.38,0.11,1.19,0.33,1.7,0.48c0.13,0.04,1.55,0.55,1.71,0.58
				c0.25,0.08,1.41,0.44,1.72,0.54c0.29,0.07,1.48,0.37,1.71,0.42c0.5,0.12,1.09,0.27,1.71,0.4c0.38,0.08,1.29,0.28,1.71,0.37
				c0.57,0.16,1.16,0.33,1.74,0.49c0.31,0.08,1.49,0.42,1.73,0.47c0.31,0.08,1.34,0.34,1.75,0.44c0.23,0.04,1.52,0.28,1.72,0.32
				c0.27,0.05,1.39,0.25,1.72,0.31c0.3,0.07,1.52,0.33,1.76,0.39c-0.07-0.01-1.72-0.27-1.73-0.27c0,0,1.64,0.36,1.75,0.39
				c0.31,0.05,1.49,0.23,1.73,0.27c0.46,0.07,1.15,0.18,1.73,0.27c0.23,0.04,1.46,0.28,1.76,0.34c0.25,0.03,1.53,0.19,1.73,0.22
				c0.27,0.03,1.37,0.17,1.73,0.22c0.51,0.09,1.25,0.22,1.77,0.3c0.47,0.05,1.25,0.12,1.74,0.17c0.56,0.09,1.22,0.2,1.77,0.28
				c0.67,0.09,1.09,0.2,1.78,0.26c0.47,0.03,1.25,0.08,1.74,0.12c0.6,0.08,1.18,0.16,1.78,0.23c0.28,0.02,1.52,0.1,1.74,0.12
				c0.24,0.01,1.43,0.06,1.74,0.07c0.31,0.03,1.54,0.16,1.79,0.18c0.16,0.02,1.63,0.17,1.78,0.18c0.51,0.04,1.37,0.04,1.74,0.04
				l3.49,0.04c0.39,0.03,1.45,0.11,1.79,0.13c0.11,0,0.56,0.02,0.98,0.04c0.42,0.02,0.82,0.04,0.82,0.04s-0.41,0.01-0.83,0.02
				c-0.42,0-0.86,0.01-0.91,0.02c-0.06,0.01-0.49,0-0.92-0.01c-0.42-0.01-0.83-0.01-0.83-0.01s0.39,0.03,0.81,0.06
				c0.42,0.03,0.86,0.06,0.97,0.07c0.12,0,1.72-0.03,1.75-0.03c0.59,0.03,1.21,0.05,1.79,0.08c0.58,0.01,1.16-0.04,1.74-0.03
				c0.68,0.01,1.06-0.04,1.74-0.06c0.47,0.01,1.3,0.02,1.79,0.03c0.59-0.01,1.15-0.07,1.74-0.08c0.49,0.01,1.28,0.02,1.8,0.03
				c0.59-0.01,1.14-0.1,1.74-0.12c0.58-0.01,1.19-0.02,1.79-0.02c0.25-0.02,1.53-0.12,1.74-0.13c0.48-0.04,1.43-0.1,1.74-0.14
				c-0.05,0-1.66,0.03-1.79,0.03c-0.25,0-1.77,0.02-1.79,0.02c0,0,0.41-0.04,0.83-0.07c0.42-0.03,0.86-0.06,0.91-0.07l1.79-0.03
				l1.79-0.08c0.61-0.03,1.18-0.05,1.79-0.08c0.28-0.01,1.46-0.06,1.79-0.08c0.59-0.05,1.13-0.13,1.73-0.2
				c-0.1,0.03-1.79,0.09-1.79,0.09s1.51-0.16,1.73-0.2c0.14-0.01,1.55-0.11,1.79-0.13c0.25-0.03,1.52-0.21,1.72-0.24
				c0.36-0.05,1.24-0.17,1.73-0.24c0.4-0.04,1.35-0.09,1.78-0.15c0.58-0.08,1.14-0.21,1.72-0.29c0.58-0.08,1.14-0.21,1.72-0.29
				c0.31-0.03,1.54-0.16,1.78-0.18c0.6-0.08,1.25-0.22,1.72-0.32l1.45-0.29c0.76-0.09,1.58-0.27,2.07-0.41
				c0.5-0.1,1.02-0.2,1.6-0.32c0.04-0.01,0.19-0.03,0.37-0.05c0.11,0.01,0.2,0.01,0.27,0.02l0.33-0.1c0.35-0.06,0.7-0.12,0.8-0.13
				c0.06-0.01,0.16-0.04,0.23-0.05l1.22-0.16c0.2-0.07,0.22-0.12,0.16-0.16c0.02-0.01,0.06-0.01,0.08-0.02
				c0.49-0.11,0.99-0.23,1.42-0.33c0.08,0.01,0.16,0.02,0.17,0.04l1.47-0.28c0.47-0.15,0.81-0.28,1.2-0.43
				c0.29-0.08,0.57-0.15,0.81-0.22c-0.03,0.01-0.19,0.04-0.48,0.09c0.06-0.02,0.12-0.05,0.19-0.07l0.96-0.22l0.04,0.13
				c1.02-0.05,1.87-0.31,2.66-0.55c0.08-0.02,0.19-0.04,0.22-0.05c0.26-0.05,1.58-0.33,1.91-0.42l0.01,0
				c0.12-0.01,0.25-0.01,0.37-0.01c0.4-0.13,0.53-0.22,0.55-0.27c0.2-0.07,0.39-0.13,0.53-0.17c0.14-0.05,0.23-0.08,0.22-0.08
				c-0.02,0-0.39,0.1-0.79,0.21c-0.03-0.01-0.07-0.02-0.13-0.03c0.31-0.1,0.59-0.2,0.67-0.22c-0.25,0.08-0.53,0.15-0.81,0.22
				l-0.28-0.02c0.69-0.19,1.36-0.4,2.02-0.6l-0.02,0.09c-0.34,0.12-0.72,0.24-0.91,0.31c0.29-0.08,0.6-0.16,0.9-0.24l-0.02,0.12
				c1.2-0.35,2.79-0.62,3.07-0.98c0.04-0.01,0.07-0.03,0.12-0.04c1.09-0.23,2.18-0.45,3.25-0.72c0.02-0.11,0.68-0.36,1.73-0.7
				c-0.43,0.03-1.6,0.48-1.38,0.46l-1.31,0.3l0.65-0.36c0.41-0.14,0.82-0.29,1.21-0.42l1.91-0.53l1.34-0.15
				c0.1-0.19,0.7-0.4,1.49-0.64c0.78-0.25,1.76-0.54,2.63-0.84l0.19-0.28l1.24-0.29l0.61-0.33c-0.66,0.28-0.53,0.05-0.37-0.01
				l0.96-0.1l1.91-0.78l-0.32,0.04l0.98-0.45c0.64-0.19,1.66-0.49,1.88-0.73l-1.05,0.14c1.5-0.52,2.67-0.89,3.58-1.07
				c1.99-0.85-0.63-0.02,0.13-0.44c0.86-0.33,1.44-0.34,2.4-0.84c-0.44,0.09-0.87,0.19-1.31,0.27l-1.35,0.66l-0.14-0.25
				c0.8-0.28,1.61-0.52,2.4-0.83l0.94-0.16c0.58-0.26,1.85-0.8,2.17-1.06l2.22-1.02c0.95-0.48-0.05-0.26-0.58-0.06l0.21-0.25
				l1.31-0.38c1.25-0.69,2.18-1.2,2.54-1.54c0.36-0.45,2.28-1.11,2.64-1.46l-1.45,0.41c0.36-0.34,1.13-0.77,2.37-1.34
				c-0.32-0.05,0.2-0.46,0.5-0.75c-2.05,0.98-4.43,2.41-5.87,2.93c0-0.11,0-0.32-1.24,0.25l0.1-0.13c0.46-0.36,1.7-0.94,2.37-1.13
				l0.41-0.41c0.72-0.36,1.75-0.78,1.65-0.55l-0.01-0.21l1.34-0.6l0.16,0.23c0.52-0.28,1.03-0.57,1.53-0.88
				c-0.41,0.13-0.81,0.28-1.23,0.39c0.48-0.24,0.95-0.51,1.42-0.76l-0.31-0.03c-0.89,0.5-1.8,0.93-2.71,1.39l-0.06-0.26
				c-2.79,0.96,0.8-0.74,0.88-1.06c-1.36,0.67-2.73,1.23-4.09,1.88c0.48-0.36,1.64-1.05,2.75-1.64c-0.34,0.07-0.69,0.14-1.04,0.22
				c-1.02,0.42-0.41-0.13-1.89,0.54l-1.12,0.65c1.43-0.4,2.71-0.71-0.21,0.58c-0.67,0.19,0.82-0.49,0.31-0.38
				c-1.44,0.61-0.66,0.52-1.6,0.89l-0.21-0.07c0.83-0.46,0.21-0.35-0.72-0.09l0.42-0.18l0.88-0.52l0.56-0.27l0.1-0.23L197,81.7
				l0,0.21c-0.88,0.52-1.92,0.69-2.22,0.74l1.3-0.69l-0.72,0.23l-0.68,0.48c-1.65,0.49-1.85,0.2-3.71,0.83
				c-0.67,0.5-1.87,0.7-2.59,0.79c-1.84,0.71-4.15,1.2-5.84,1.91l0.35,0.12c-2.12,0.73-2.82,0.48-3.86,0.69
				c-1.26,0.91,1.81-0.23,2.9-0.28l-2.29,0.9l-0.04-0.05c0.49-0.31-0.83,0.08-1.72,0.32c1.07-0.53,0.15-0.44-0.69-0.25l-0.86,0.4
				l-0.26,0.07c-1.08,0.51,1.81-0.21,0.93,0.39c-0.66,0.03-1.89,0.34-2.84,0.51c2.16-0.87-0.97-0.1-2.18,0.14
				c-2.51,0.88-5.09,1.07-7.51,2.09c-1.35,0.34-2.71,0.62-4.08,0.89c-1.93,0.42-0.84,0.4-1.3,0.63c-0.09,0.02-0.19,0.04-0.22,0.04
				c-0.09,0.02-0.26,0.07-0.46,0.11c-0.14-0.06-0.56,0.04-1.07,0.04c-0.7,0.16-1.74,0.42-1.22,0.42c0.47-0.08,0.32,0.05,0.15,0.16
				c-0.33,0.07-0.64,0.11-0.73,0.12c-0.07,0.01-0.2,0.03-0.35,0.05c-0.88,0.05-1.68,0.05-2.22,0.03c-0.72,0.27-1.1,0.48-1.78,0.72
				c-0.22,0.03-0.43,0.07-0.7,0.11c-0.28,0.05-0.66,0.15-1.04,0.24c-0.48,0-1.07,0-2.24,0.25c-0.11,0.04-0.13,0.07-0.09,0.09
				c-0.58,0.07-1.23,0.16-1.7,0.22c-0.22,0.03-1.41,0.18-1.7,0.22c-0.33,0.06-1.41,0.28-1.68,0.31c-0.26,0.04-1.36,0.22-1.68,0.27
				c-0.27,0.03-1.5,0.14-1.7,0.16c-0.59,0.1-1.2,0.19-1.68,0.27c-1.12,0.2-2.25,0.31-3.38,0.47c-0.03,0-1.59,0.1-1.71,0.11
				c0.22-0.03,1.28-0.17,1.69-0.22c0.23-0.03,1.67-0.22,1.69-0.22c-0.02,0-1.47,0.1-1.7,0.11l-1.71,0.11l-1.69,0.22
				c-0.56,0.08-1.13,0.13-1.69,0.19c-0.44,0.04-1.15,0.12-1.69,0.17c-0.23,0.01-1.42,0.05-1.71,0.06c-0.45,0.05-1.22,0.12-1.7,0.17
				c-0.51,0.03-1.22-0.01-1.71,0.02c-0.42,0.03-1.38,0.1-1.7,0.12c-0.26,0.02-1.38,0.1-1.7,0.12c-0.58,0.02-1.13,0-1.71,0
				c-0.36-0.01-1.43-0.03-1.71-0.04c-0.31-0.01-1.3-0.03-1.71-0.04c-0.23,0.01-1.5,0.06-1.7,0.07c-0.26,0.02-1.38,0.06-1.7,0.05
				c-0.3-0.02-1.48-0.08-1.71-0.09c0.07,0,1.69-0.02,1.7-0.02c-0.01,0-1.54-0.08-1.7-0.09c-0.17,0-1.54,0.02-1.7,0.02
				c-1.14,0.02-2.27,0.03-3.41,0c-0.06-0.02-1.76-0.13-1.7-0.14c0.08-0.02,1.57,0.04,1.7,0.03c0.04-0.01-0.38-0.04-0.82-0.07
				c-0.44-0.03-0.88-0.07-0.88-0.07c0.02,0,1.59,0.03,1.7,0.03c-0.15-0.01-1.42-0.12-1.71-0.14c-0.45-0.01-1.22-0.02-1.7-0.03
				c-0.57-0.03-1.14-0.1-1.7-0.16l-1.7-0.08c-0.47-0.02-1.38-0.06-1.7-0.08c-0.03,0-1.49-0.16-1.7-0.19
				c-0.26-0.04-1.34-0.18-1.69-0.23c-0.26-0.02-1.49-0.11-1.69-0.12l-1.7-0.12c-0.57-0.04-1.13-0.09-1.69-0.15l-3.39-0.35
				c-0.36-0.07-1.37-0.21-1.68-0.29c-0.1-0.02-0.52-0.1-0.92-0.18c-0.39-0.08-0.76-0.15-0.76-0.15s0.39,0.05,0.8,0.1
				c0.41,0.06,0.83,0.12,0.88,0.12c0.06,0.01,0.48,0.05,0.89,0.1c0.41,0.05,0.8,0.08,0.8,0.08c-0.01,0-1.48-0.26-1.68-0.29
				c-0.26-0.03-1.37-0.18-1.69-0.22c-0.41-0.08-1.3-0.26-1.67-0.33c-0.51-0.07-1.28-0.17-1.68-0.22c-0.26-0.04-1.36-0.22-1.68-0.27
				c-0.47-0.11-1.21-0.28-1.66-0.38c-0.65-0.1-1.04-0.17-1.68-0.27c-0.45-0.07-1.19-0.32-1.65-0.42c-0.55-0.12-1.11-0.2-1.66-0.32
				c-0.41-0.11-1.21-0.31-1.64-0.43c-0.24-0.05-1.46-0.31-1.66-0.35c-0.22-0.05-1.39-0.31-1.66-0.37c-0.3-0.09-1.39-0.41-1.63-0.47
				c-0.15-0.03-1.5-0.47-1.62-0.51c-0.5-0.13-1.26-0.32-1.64-0.41l-1.64-0.41c-0.55-0.13-1.09-0.29-1.63-0.45l-3.25-0.93
				c-0.37-0.13-1.26-0.48-1.58-0.62c-0.04-0.02,1.48,0.49,1.61,0.51c0.22,0.06,1.6,0.46,1.62,0.46c-0.02-0.01-1.38-0.49-1.59-0.57
				c-0.4-0.14-1.07-0.43-1.58-0.61c-0.1-0.03-1.47-0.47-1.6-0.52c-0.38-0.12-1.12-0.34-1.6-0.52c-0.24-0.11-1.26-0.55-1.55-0.68
				c-0.42-0.15-1.14-0.41-1.58-0.57c-0.5-0.2-1.06-0.47-1.54-0.69c-0.42-0.2-1.2-0.57-1.52-0.72c-0.37-0.18-1.04-0.5-1.52-0.73
				c-0.28-0.11-1.21-0.51-1.53-0.66c-0.49-0.26-0.99-0.52-1.48-0.78c-0.27-0.13-1.32-0.58-1.51-0.69l-1.5-0.73
				c-0.26-0.13-1.14-0.56-1.49-0.73c-0.18-0.1-1.25-0.79-1.4-0.89c-0.34-0.22-0.96-0.61-1.4-0.89c-0.26-0.14-1.14-0.64-1.43-0.83
				c-0.43-0.28-0.93-0.67-1.36-0.95c-0.3-0.18-1.18-0.73-1.39-0.88c-0.37-0.24-0.91-0.6-1.37-0.9c-0.07-0.05-0.25-0.19-0.46-0.35
				c-1.62-1.1-3.13-2.2-4.3-3.49c-0.11-0.1-0.21-0.19-0.28-0.26c-0.33-0.27-0.86-0.75-1.18-1.06c-0.32-0.34-0.77-0.82-1.09-1.16
				c-0.25-0.29-0.87-0.91-1.07-1.13c-0.17-0.17-0.88-0.91-1.04-1.15c-0.31-0.41-0.59-0.86-0.89-1.26c0.07,0.09,0.98,1.19,0.98,1.19
				c-0.01-0.01-0.81-1.14-0.89-1.26c-0.11-0.13-0.26-0.33-0.4-0.54c0.04,0.35,0.12,0.7,0.2,1.04c-0.35-0.51-0.58-1.08-0.84-1.61
				c-0.26-0.53-0.5-1.05-0.63-1.55c-0.23-0.4-0.43-0.73-0.66-1.14c-0.16-0.35-0.35-0.98-0.51-1.35c-0.21-0.44-0.38-0.85-0.52-1.32
				c-0.1-0.39-0.27-0.91-0.31-1.32c-0.09-0.37-0.28-0.9-0.38-1.64l-0.01-0.3c-0.04-0.3-0.08-0.64-0.1-0.81
				c-0.07-0.36,0.07-0.99,0.06-1.37c0.01-0.18-0.01-0.43-0.01-0.68L8.03,50.5c0.34-1.05,0.67-1.9,1.16-2.68
				c0.4-0.8,0.93-1.51,1.41-2.35c0.09-0.25,0.25-0.5,0.34-0.67l0.7-1.3c0.26-0.43,0.55-0.84,0.82-1.27c0.13-0.17,0.29-0.39,0.45-0.6
				c1.25-1.91,2.83-4.04,4.4-5.2l-0.37-0.05c1.03-0.91,1.76-1.3,2.23-1.53c0.48-0.22,0.73-0.23,0.98-0.23l0.11-0.1
				c0.22-0.22,0.92-0.76,1.25-1.02c0.14-0.1,1.2-0.84,1.34-0.93c0.34-0.21,0.95-0.6,1.38-0.87c0.24-0.17,1.04-0.76,1.32-0.96
				c0.17-0.11,0.36-0.21,0.54-0.31l0.12-0.12l0.98-0.5c0.4-0.23,0.84-0.46,1.23-0.7c0.47-0.28,0.93-0.59,1.41-0.86
				c0.49-0.26,0.99-0.51,1.48-0.77c0.3-0.17,0.63-0.36,0.94-0.54l-0.16,0.03c-0.42,0.19-0.85,0.42-0.85,0.42s0.29-0.19,0.63-0.37
				c-0.43,0.08-0.85,0.19-1.27,0.29c0.72-0.55,1.69-1.07,2.71-1.59c1.02-0.54,2.13-1.03,3.18-1.49c2.07-0.96,3.93-1.73,4.36-2.42
				c2.92-1.09,6.21-2.25,9.48-3.33c3.28-1.09,6.54-2.12,9.4-3.12c2.33-0.45,4.66-0.86,6.99-1.22l2.57-1.28
				c3.86,0.27,6.76-1.29,10.33-1.68l1.77,0.44c3.51-0.35,8.68-2.4,10.11-1.49c8.58-0.28,16.31-2.18,23.88-0.7
				c2.44-0.15,4.88-0.33,7.33-0.39c2.11,0.34,4.28,0.8,6.09,1.25c0.43,0.02,0.94,0.05,1.07,0.06c0.36,0,1.19,0.07,1.69,0.11
				l1.16,0.09c0.01-0.09,0.08-0.17,0.33-0.24c0.95,0.17,1.95,0.28,2.97,0.39c1.02,0.12,2.06,0.22,3.1,0.31
				c2.07,0.16,4.1,0.43,5.84,0.8c2.86,0.66,2.92,1.01,2.72,1.24c0.21,0.05,0.42,0.1,0.6,0.14c0.25,0.06,1.32,0.31,1.65,0.38
				c0.26,0.06,1.46,0.23,1.67,0.28l0.53,0.1c0.11-0.3,0.26-0.56,2.74,0.01c0.8,0.37,1.83,0.79,2.95,1.26
				c0.18,0.04,0.32,0.07,0.38,0.08c0.29,0.06,1.26,0.28,1.64,0.37c0.46,0.14,1.14,0.34,1.62,0.48c0.35,0.09,1.34,0.35,1.63,0.42
				c0.51,0.17,1.22,0.4,1.61,0.53c0.34,0.11,1.15,0.38,1.61,0.53c0.35,0.1,1.19,0.35,1.57,0.46c0.52,0.17,1.02,0.39,1.54,0.57
				c0.51,0.19,1,0.44,1.51,0.63c0.49,0.19,1.05,0.33,1.54,0.52c-0.12-0.05-1.5-0.62-1.51-0.63c0.03,0.01,1.37,0.46,1.55,0.52
				c0.37,0.14,1.03,0.4,1.52,0.59c0.26,0.12,1.18,0.55,1.48,0.69c0.42,0.18,1.09,0.48,1.48,0.65c0.47,0.25,1.02,0.53,1.44,0.75
				c0.5,0.29,0.98,0.58,1.39,0.82l1.39,0.82l1.33,0.89c0.35,0.23,0.88,0.59,1.32,0.88c0.08,0.05,1.2,0.79,1.32,0.86
				c0.2,0.13,1.07,0.69,1.32,0.86c0.24,0.21,0.98,0.85,1.17,1.02c-0.03-0.02-1.24-0.93-1.24-0.93s0.27,0.25,0.56,0.49
				c0.29,0.24,0.58,0.5,0.62,0.54l1.17,1.02c0.13,0.12,1.07,0.95,1.14,1c-0.07-0.07-1.05-1.07-1.07-1.09
				c0.02,0.02,1.01,0.89,1.14,1.01c0.27,0.24,1.02,0.9,1.15,1.01c0.05,0.03-0.22-0.24-0.51-0.52c-0.28-0.28-0.57-0.57-0.57-0.57
				s1,0.87,1.15,1.01c0.22,0.23,0.74,0.77,1.04,1.09c0.34,0.37,0.72,0.72,1.04,1.09c0.02,0.02,0.79,1.16,0.84,1.24
				c-0.1-0.11-0.72-0.9-0.93-1.16c-0.22-0.27-0.91-0.97-1.04-1.09c-0.07-0.05,0.96,1.1,0.96,1.17c0.07,0.05-1.03-1.09-1.03-1.09
				s0.22,0.27,0.46,0.55c0.24,0.27,0.48,0.56,0.49,0.61l0.92,1.15c0.29,0.39,0.65,0.75,0.9,1.16c0.18,0.28,0.55,0.86,0.79,1.23
				c0.12,0.21,0.59,1.02,0.66,1.3c0.15,0.35,0.47,0.91,0.64,1.28c0.04,0.09,0.16,0.39,0.29,0.69c0.14,0.29,0.17,0.61,0.2,0.66
				c0,0.05-0.08-0.3-0.25-0.63c-0.17-0.33-0.34-0.66-0.34-0.67c0,0,0.13,0.32,0.26,0.64c0.16,0.32,0.2,0.68,0.22,0.7
				c0.11,0.35,0.39,1.08,0.48,1.33c0.16,0.44,0.35,0.88,0.42,1.35l0.32,1.39c0.11,0.46,0.24,0.92,0.26,1.41
				c0.01,0.33,0.03,1.16,0.03,1.45c0,0.09,0.02,0.45,0.03,0.79c0.02,0.17,0.01,0.33-0.01,0.46c-0.01,0.12-0.02,0.2-0.02,0.2
				c0.04-0.01-0.1-1.54-0.1-1.44c-0.02,0.19,0.07,1.08-0.01,1.45c-0.03,0.27-0.11,1.1-0.13,1.46c0,0.17,0,1.31-0.06,1.46l-0.16,1.46
				c-0.04,0.36-0.08,1.01-0.21,1.47c-0.06,0.21-0.34,1.18-0.41,1.44c-0.09,0.39-0.2,1.06-0.36,1.45c-0.17,0.49-0.38,0.93-0.54,1.42
				c-0.08,0.23-0.15,0.48-0.22,0.72c-0.08,0.24-0.18,0.48-0.28,0.71c-0.21,0.47-0.46,0.92-0.66,1.39c-0.19,0.47-0.36,0.95-0.62,1.41
				c-0.2,0.37-0.59,0.99-0.77,1.34c-0.16,0.36-0.57,1.12-0.72,1.37l-0.77,1.36c-0.09,0.16-0.22,0.4-0.36,0.65
				c-0.16,0.24-0.33,0.5-0.46,0.69c-0.16,0.21-0.77,1.02-0.96,1.26c-0.24,0.35-0.62,0.96-0.91,1.3c-0.35,0.4-0.7,0.81-1.04,1.22
				l0.95-1.28c0.29-0.37,0.74-1.01,0.91-1.3c0.06-0.09,0.28-0.42,0.48-0.72c0.2-0.31,0.39-0.59,0.39-0.59s-0.87,1.14-0.96,1.26
				c-0.2,0.31-0.65,0.99-0.91,1.29c-0.36,0.44-0.68,0.76-1.04,1.21c-0.07,0.09-0.28,0.37-0.48,0.65c-0.22,0.27-0.44,0.53-0.5,0.6
				c-0.18,0.21-0.78,0.94-1.02,1.23c-0.27,0.32-0.82,0.84-1.14,1.14c-0.3,0.3-0.77,0.86-1.09,1.19c-0.38,0.39-0.78,0.73-1.19,1.09
				c-0.34,0.31-0.8,0.82-1.15,1.14c-0.39,0.37-0.82,0.7-1.25,1.04c-0.42,0.35-0.86,0.66-1.28,1.01c-0.32,0.28-0.89,0.82-1.22,1.07
				c0.45-0.31,0.87-0.65,1.3-0.99c-0.01,0.01-0.26,0.24-0.54,0.5c-0.29,0.26-0.61,0.51-0.68,0.57c-0.15,0.12-1.07,0.9-1.24,1.04
				c-0.27,0.22-1.12,0.8-1.34,0.94c-0.33,0.22-1.18,0.79-1.36,0.91c-0.1,0.06,1.29-1,1.29-1s-1.28,0.86-1.36,0.91
				c-0.27,0.21-1.09,0.82-1.3,0.96l-1.32,0.94c-0.43,0.32-0.9,0.61-1.36,0.92L169.28,90c-0.38,0.25-0.9,0.61-1.39,0.89
				c-0.2,0.1-1.22,0.63-1.47,0.76c-0.48,0.27-0.93,0.59-1.42,0.85c-0.49,0.26-0.96,0.56-1.45,0.82c-0.48,0.23-1.03,0.49-1.5,0.72
				c-0.09,0.07-1.5,0.67-1.57,0.7c-0.06,0,1.54-0.77,1.51-0.8c-0.02,0.01-1.29,0.58-1.58,0.7c-0.1,0.05-1.47,0.77-1.65,0.86
				c-0.31,0.17-1.48,0.64-1.76,0.76c-0.35,0.15-1.35,0.56-1.8,0.77c-0.23,0.11-1.43,0.7-1.62,0.79c-0.23,0.11-1.33,0.65-1.58,0.76
				c-0.36,0.18-1.48,0.58-1.8,0.72c-0.53,0.23-1.15,0.53-1.52,0.72c-0.23,0.11-1.14,0.57-1.44,0.68c-0.42,0.16-1.38,0.52-1.78,0.67
				c-0.57,0.23-1.27,0.5-1.77,0.68c-0.16,0.06-1.68,0.6-1.78,0.65c-0.42,0.18-1.01,0.48-1.28,0.61c-0.31,0.14-1.14,0.5-1.22,0.56
				c-0.25,0.09-1.25,0.46-1.66,0.61c-0.34,0.13-1.29,0.45-1.66,0.6c-0.29,0.11-0.74,0.39-1.02,0.5c-0.33,0.14-1.24,0.43-1.56,0.58
				c-0.39,0.17-0.5,0.3-0.86,0.46c-0.29,0.12-1.18,0.41-1.45,0.53c-0.16,0.07-0.63,0.38-0.7,0.43c-0.03,0.02-0.07,0.04-0.11,0.07
				c-0.16,0.07-0.22,0.11-0.21,0.15c-0.11,0.07-0.21,0.15-0.28,0.19c-0.13,0.07-0.38,0.16-0.64,0.25l-0.03,0
				c-1.83,0.53-3.21,0.96-3.88,1.29c-0.78,0.49-3.25,0.74-3.94,1.05c0.6,0,1.19,0,1.79-0.02c-0.67,0.36-1.84,0.64-3.6,0.96
				c0.26,0.18-0.66,0.58-1.24,0.84c2.19-0.38,4.8-1.09,6.76-1.55c0.04,0.06,0.11,0.12,0.11,0.18c0,0.02-0.15,0.1-0.29,0.19
				c-0.27,0-0.61,0.03-1.05,0.14c0.08,0.05,0.4,0.06,0.77,0.04c0,0-0.02,0.01-0.02,0.01c-0.04,0.04,0.03,0.06,0.1,0.09l-0.79,0.42
				c-1.05,0.25-2.47,0.44-2.14,0.16l-0.2,0.3l-1.89,0.31l0.08-0.39c-0.78,0.2-1.56,0.39-2.35,0.57l1.56,0l-2.13,0.42L117.16,113.44z
				 M181.41,91.53c-0.03,0.02-0.03,0.04-0.04,0.06c-0.2,0.04-0.5,0.09-0.71,0.13c0.04-0.04,0.06-0.08,0.08-0.13
				c0.1-0.04,0.19-0.08,0.37-0.15l0.66-0.12C181.61,91.41,181.45,91.5,181.41,91.53z M182.83,91.16c0.04-0.02,0.09-0.05,0.11-0.06
				c0.02-0.01,0,0.01,0.01,0.02L182.83,91.16z M181.31,88.06l1.06-0.31l0.8-0.34l-1.09,0.63C182.15,87.87,179.97,88.66,181.31,88.06
				z M186.35,90.02c-1.07,0.47-1.86,0.63-2.61,0.8l-0.01,0c0.07-0.09,0.2-0.24,0.16-0.26c0.84-0.21,1.46-0.24,2.68-0.67
				c-0.53,0.07-1.2,0.11-0.08-0.31C187.81,89.13,186.88,89.73,186.35,90.02z M185.25,88.62l0.95-0.25l-1.53,0.73
				C183.72,89.35,184.94,88.77,185.25,88.62z M190.26,85.76c-0.21,0.08-0.44,0.17-0.7,0.28l-0.21,0.08l-0.81,0.16
				c0.63-0.23,1.22-0.43,1.74-0.59C190.22,85.74,190.21,85.76,190.26,85.76z M192.92,86.8c-0.64,0.43,0.25,0.22,0.93,0.06
				l-1.43,0.72c-0.04-0.25-1.88,0.3-0.97-0.32l1.93-0.7l2.05-1.04l0.21,0.07L192.92,86.8z M192.87,85.85c0,0,0.95-0.55,1.06-0.61
				c0.25-0.12,1.23-0.58,1.44-0.68c0.2-0.09,1.43-0.65,1.45-0.66c-0.01,0-0.25,0.13-0.53,0.28c-0.28,0.15-0.58,0.3-0.67,0.35
				c-0.4,0.21-0.75,0.4-1.11,0.6c-0.43,0.21-0.91,0.45-1.32,0.65c0.15-0.07,0.81-0.48,1.03-0.59
				C194.07,85.25,192.93,85.84,192.87,85.85z M198.85,84.67L198.85,84.67c-0.2,0.14-0.43,0.28-0.68,0.41
				c-0.29,0.1-0.63,0.22-1.02,0.38c0-0.02-0.03-0.03-0.11-0.02l-0.22,0.05c-0.33,0.23-0.88,0.4-1.23,0.5l-0.01-0.01
				C196.9,85.2,197.81,85.01,198.85,84.67z M198.43,84.32l-2.04,0.72l0.16-0.18l-0.73,0.23l1.26-0.53l-0.05-0.04
				C198.28,84.08,198.33,84.23,198.43,84.32z M193.11,83.77l0.89-0.32l-0.06,0.33C192.71,84.31,192.65,84.1,193.11,83.77z
				 M196.7,83.08l0.21,0.41c-1.41,0.35-3.27,1.66-4.79,1.91C193.01,84.81,195.18,83.78,196.7,83.08z M179.89,87.77
				c1.64-0.53,1.72-0.22,3.47-0.86c0.29-0.4-0.08-0.3-1.55,0.05c0.65-0.23,1.31-0.43,1.95-0.68l1.19-0.21
				c1.17-0.79,2.3-0.83,3.55-1.21l0.41,0.05l1.31-0.44l0.01-0.21l0.62-0.32c-0.11,0.24-0.84,0.78-2,1.13l-0.22,0.24l1.73-0.6
				l-0.1-0.09l1.29-0.37c-0.47,0.2-0.93,0.41-1.41,0.6c-0.37,0.31,0.2,0.29-1.07,0.88c-1.47,0.51-1.81,0.98-3.11,1.31
				c-2.64,1.09,0.02-0.32-1.5,0.14l1.21-0.42c7.61-2.54,1.91-1.2,1.12-0.73l0.06-0.17c0.73-0.2,2.1-0.81,1.74-0.81l-1.88,0.56
				c-0.06,0.17-1.48,0.72-2.22,1.03c-1.29,0.35-2.81,0.98-4.33,1.41l-0.22,0.13l-1.52,0.41C179.48,88.29,179.77,88,179.89,87.77z
				 M175.5,89.06c0.82-0.3,1.85-0.52,2.26-0.56l-0.06,0.16C176.6,89.06,174.94,89.41,175.5,89.06z M173.2,89.79
				c0.34-0.02,0.58-0.03,0.47,0.06c-0.27,0.04-0.54,0.07-0.69,0.1c-0.03-0.01-0.07-0.02-0.11-0.03L173.2,89.79z M166.97,91.2
				l1.1-0.45c1.25-0.4,1.8-0.27,3.14-0.73l-0.08-0.21c1.06-0.28,1.58-0.31,0.98-0.01l-2.32,0.83l0.46-0.03
				c-0.37,0.1-0.75,0.2-0.9,0.22c-0.07,0.01-0.15,0.02-0.22,0.03l-0.97-0.01l-0.52,0.25l-0.75,0.13L166.97,91.2z M24.98,30.21
				c0.09-0.1,0.17-0.21,0.26-0.3l0.93-0.41C25.91,29.8,25.15,30.11,24.98,30.21z M27.93,27.17l0.38-0.39l1.29-0.51
				C29.22,26.67,28.19,27.07,27.93,27.17z M33.92,23.85c0.44-0.25,0.89-0.48,1.34-0.73l1.1-0.07
				C35.42,23.43,34.74,23.78,33.92,23.85z M56.47,15.68c0.99-0.49,2.28-0.36,3.54-0.94l0.07,0.06C59,15.19,56.43,15.98,56.47,15.68z
				 M145.74,106.96c0.13-0.1,0.21-0.15,0.92-0.43l0.25,0.04L145.74,106.96z M145.25,104.8c0.27-0.1,0.44-0.13,0.61-0.17l0.59-0.23
				c-0.3,0.14,0.49-0.11,0,0.09l-0.28,0.05l-0.14,0.08c-0.37,0.15-0.45,0.09-0.85,0.21c0.11-0.01,0.25,0-0.02,0.09
				C144.85,105.01,145.11,104.87,145.25,104.8z M144.07,106.92l0.39,0.06l-1.13,0.37C143.13,107.32,143.3,107.12,144.07,106.92z
				 M134.6,108.61c0.34-0.16-0.02-0.13-0.3-0.11l0.69-0.24c-0.06,0.13,0.74,0,0.25,0.24l-0.87,0.18l-1.01,0.33l-0.05-0.05
				C133.74,108.85,134.17,108.74,134.6,108.61z M130.95,113.21l2.93-0.88C133.82,112.72,133,113.02,130.95,113.21z M130.15,111.51
				c0.7-0.03,1.9-0.59,2.61-0.57c-0.57,0.24-1.8,0.62-2.67,0.83L130.15,111.51z M129.78,113.39c0,0,0.02,0,0.01,0.01
				c-0.07,0.01-0.18,0.02-0.31,0.03C129.58,113.42,129.68,113.4,129.78,113.39z M122.67,113.54c0.6-0.03,0.61,0.04,0.74,0.13
				l-0.47,0.13C122.45,113.76,122.09,113.73,122.67,113.54z"/>
		</g>
	</g>
</g>
</svg>
