<?xml version="1.0" encoding="utf-8"?>
<!-- Generator: Adobe Illustrator 24.0.2, SVG Export Plug-In . SVG Version: 6.00 Build 0)  -->
<svg version="1.1" id="Layer_1" xmlns="http://www.w3.org/2000/svg" xmlns:xlink="http://www.w3.org/1999/xlink" x="0px" y="0px"
	 viewBox="0 0 169.25 71.06" style="enable-background:new 0 0 169.25 71.06;" xml:space="preserve">
<style type="text/css">
	.st0{fill:#fffff;}
</style>
<g>
	<g>
		<g>
			<path class="st0" d="M8,35.14c0,0.01-0.11,0.59-0.11,0.62c0.02-0.07,0.16-0.51,0.19-0.6c0.02-0.11,0.1-0.54,0.11-0.62
				c0.02-0.09,0.11-0.62,0.11-0.62c-0.01,0-0.16,0.56-0.18,0.6c-0.05,0.21-0.14,0.4-0.19,0.61c-0.02,0.08-0.1,0.57-0.11,0.62
				C7.82,35.7,7.99,35.15,8,35.14z"/>
			<path class="st0" d="M25.9,0.36c-0.4,0.29-0.55,0.61-0.49,0.69l0.61-0.54L25.9,0.36z"/>
			<path class="st0" d="M27.08,0c-0.4,0.38-0.45,0.45-0.55,0.62l0.63-0.52L27.08,0z"/>
			<path class="st0" d="M25.64,4.43l0.31-0.18l0.17-0.34C26.05,3.87,25.73,4.28,25.64,4.43z"/>
			<path class="st0" d="M21.85,2.99c-0.41,0.5-0.39,0.43-0.62,0.86l0.35-0.3L21.85,2.99z"/>
			<path class="st0" d="M27.57,0.66c-0.54,0.5-0.14,0.37-0.1,0.4C27.61,0.84,27.82,0.55,27.57,0.66z"/>
			<path class="st0" d="M25.75,1.74l0.93-0.71c0.19-0.07,0.38-0.15,0.37-0.24l-0.19,0.07C26.82,0.73,26.16,1.38,25.75,1.74z"/>
			<path class="st0" d="M48.17,63.65c0,0-0.08,0.01-0.18,0.02c0.35,0.14,1.07,0.11,2.02-0.05c-0.2,0.01-0.45,0-0.48-0.01
				c-0.03-0.01,0.39-0.04,0.58-0.06l-0.01-0.02c-0.18,0.01-0.54,0.01-0.58,0c-0.26,0.01-0.42,0.05-0.68,0.07
				c-0.18,0.01-0.5-0.03-0.68-0.02c-0.07,0.01-0.19,0.02-0.31,0.03c0.02,0.02,0.03,0.04,0.06,0.05
				C48.05,63.65,48.17,63.65,48.17,63.65z"/>
			<path class="st0" d="M93.32,54.94c0.1-0.02,0.61-0.15,0.68-0.17c0.08-0.03,0.64-0.27,0.64-0.27c-0.01,0-0.59,0.16-0.67,0.18
				c-0.17,0.05-0.5,0.11-0.67,0.17c-0.12,0.04-0.55,0.22-0.64,0.26c-0.09,0.04-0.64,0.26-0.64,0.26c0,0.02,0.63-0.17,0.67-0.17
				C92.9,55.12,93.1,55.01,93.32,54.94z"/>
			<path class="st0" d="M5.2,57.17c-0.17-0.2-0.35-0.41-0.52-0.61c-0.07-0.09-0.46-0.64-0.47-0.66c0,0,0.36,0.63,0.42,0.72
				c0.02,0.03,0.47,0.55,0.53,0.61c0.12,0.18,0.35,0.49,0.48,0.68c0.17,0.21,0.36,0.4,0.54,0.61c-0.17-0.21-0.33-0.45-0.49-0.67
				C5.61,57.76,5.2,57.17,5.2,57.17z"/>
			<path class="st0" d="M67.62,61.69c0,0-0.64,0.07-0.69,0.08c-0.22,0.04-0.45,0.11-0.67,0.15c0.03,0,0.69-0.06,0.69-0.06
				S67.61,61.7,67.62,61.69z"/>
			<path class="st0" d="M1.03,49.25c0.08,0.27,0.18,0.5,0.26,0.77c-0.01-0.05-0.19-0.81-0.19-0.81c-0.01-0.03-0.26-0.77-0.26-0.77
				S1.02,49.2,1.03,49.25z"/>
			<path class="st0" d="M164.14,16.64c-0.06,0.01-0.13,0.04-0.19,0.07c-0.05,0.04-0.09,0.08-0.14,0.12c0.1-0.04,0.19-0.05,0.23,0.02
				L164.14,16.64z"/>
			<path class="st0" d="M160.97,18.42l0.06-0.06c0.08-0.08,0.15-0.15,0.22-0.21c-0.03,0-0.03-0.02-0.03-0.06
				c-0.18,0.12-0.39,0.27-0.59,0.44L160.97,18.42z"/>
			<path class="st0" d="M165.96,16.92l-0.21-0.1c-0.69,0.7-0.59,0.75-0.71,1.04L165.96,16.92z"/>
			<polygon class="st0" points="164.41,20.42 164.57,20.27 164.72,19.98 164.31,20.35 			"/>
			<path class="st0" d="M163.1,17.1l-0.26,0.14c-0.06,0.08-0.29,0.42-0.03,0.28L163.1,17.1z"/>
			<polygon class="st0" points="164.71,19.79 165.19,19.4 164.93,19.48 			"/>
			<path class="st0" d="M164.9,19.29l0.19-0.16c-0.56,0.21,0.52-0.88,0.07-0.71C164.49,18.95,164.64,19.3,164.9,19.29z"/>
			<path class="st0" d="M163.74,18.16l0.2-0.37c-0.11,0.11-0.3,0.37-0.27,0.43L163.74,18.16z"/>
			<path class="st0" d="M164.82,18.23c0.25-0.06,0.33-0.17,0.49-0.29l-0.33,0.08L164.82,18.23z"/>
			<path class="st0" d="M165.7,15.73l-0.35,0.2c-0.08,0.11-0.4,0.57-0.04,0.38L165.7,15.73z"/>
			<path class="st0" d="M160.6,18.13c-0.22,0.15-0.45,0.4-0.66,0.65c0.26-0.22,0.5-0.45,0.74-0.68
				C160.65,18.12,160.62,18.13,160.6,18.13z"/>
			<path class="st0" d="M166.53,18.52L166.53,18.52C166.54,18.51,166.53,18.52,166.53,18.52L166.53,18.52z"/>
			<path class="st0" d="M163.97,17.49c0.18-0.04,0.37-0.09,0.32-0.17l-0.19,0.04c-0.1-0.12-0.58,0.38-0.89,0.65L163.97,17.49z"/>
			<path class="st0" d="M159.32,19.35c0.01-0.06-0.21-0.11-0.45,0.12C158.94,19.53,159.18,19.47,159.32,19.35z"/>
			<path class="st0" d="M162.64,20.12c0,0.05,0.29,0.03,0.51-0.21C163.05,19.89,162.77,20,162.64,20.12z"/>
			<path class="st0" d="M156.02,22.54l0.59-0.67C155.97,22.12,155.84,22.33,156.02,22.54z"/>
			<path class="st0" d="M76.57,59.77c-0.93,0.28-0.87,0.33-1.12,0.5c0.42-0.11,0.83-0.22,1.25-0.34L76.57,59.77z"/>
			<path class="st0" d="M82.51,58.48c-0.57-0.04,0.86-0.5,0.4-0.53c-0.82,0.17-0.85,0.5-0.63,0.58L82.51,58.48z"/>
			<path class="st0" d="M78.12,59.14c0.04-0.04-0.12-0.16-0.44-0.07C77.71,59.14,77.94,59.18,78.12,59.14z"/>
			<path class="st0" d="M63.04,62.56c-0.18-0.02-0.57,0-0.71,0.05C62.36,62.64,62.82,62.67,63.04,62.56z"/>
			<path class="st0" d="M26.88,1.11l-1.15,1.2l-0.07-0.23c-1.39,0.93,0.67-1.01,0.24-1c-0.31,0.17-0.69,0.32-1.08,0.47
				c-0.45,0.38-0.23-0.11-0.88,0.49l-0.47,0.58l0.09-0.05l0.16-0.19l-0.09,0.15c0.59-0.31,0.99-0.46-0.17,0.59
				c-0.31,0.17,0.33-0.44,0.09-0.34c-0.07,0.06-0.12,0.11-0.17,0.16l-0.05,0.1c0-0.01-0.01-0.01-0.02-0.01
				c-0.1,0.11-0.14,0.19-0.16,0.25h0c-0.07,0.02-0.17,0.08-0.26,0.14c0.03-0.05,0.03-0.07,0.03-0.1c-0.1,0.08-0.14,0.1-0.05-0.04
				c-0.08,0.01-0.23,0.09-0.43,0.22l0.17-0.18l0.02-0.02c0.03-0.02,0.06-0.03,0.08-0.05c0.13-0.08,0.26-0.15,0.38-0.21l0.04-0.03
				c-0.09-0.01-0.19,0-0.31,0.02l0.14-0.21l0.24-0.25l0.01-0.2c-0.14,0.14-0.28,0.28-0.41,0.42l0.04,0.19
				C22.79,3,22.78,3.02,22.77,3.04L22.6,3.07c-0.14,0.08-0.3,0.18-0.45,0.29l0.22-0.29l-0.32,0.24l-0.1,0.18
				c-0.11,0.08-0.23,0.15-0.34,0.23c-0.13,0.09-0.26,0.18-0.39,0.28c0.04-0.02,0.09-0.05,0.12-0.07l0.01,0.15
				c-0.46,0.45-1.16,1-0.98,0.62c0.14-0.18,0.31-0.33,0.48-0.46c-0.2,0.08-0.42,0.19-0.76,0.46C20.05,4.77,20,4.84,19.95,4.9
				c-0.11,0.06-0.29,0.14-0.32,0.16c-0.07,0.04-0.17,0.09-0.27,0.15c-0.04,0.12-0.15,0.33-0.34,0.5l-0.02,0.11l0.35-0.34L19.3,5.45
				l0.28-0.2c-0.1,0.1-0.19,0.2-0.28,0.3c-0.05,0.15,0.08,0.12-0.16,0.43c-0.29,0.29-0.32,0.51-0.59,0.71
				c-0.5,0.59-0.03-0.14-0.35,0.13l0.24-0.24c1.53-1.46,0.32-0.61,0.18-0.37l-0.01-0.08c0.15-0.12,0.41-0.45,0.32-0.43l-0.39,0.33
				c0.01,0.08-0.27,0.38-0.41,0.55c-0.28,0.2-0.55,0.59-0.86,0.86l-0.04,0.07l-0.31,0.27c0.21-0.2,0.24-0.34,0.24-0.45
				c0.33-0.33,0.38-0.2,0.72-0.59c0.02-0.19-0.06-0.13-0.36,0.12l0.38-0.41l0.26-0.15c0.19-0.4,0.46-0.47,0.72-0.69l0.1,0l0.27-0.25
				l-0.02-0.09l0.03-0.03c-0.03,0.02-0.06,0.04-0.09,0.06C19.1,5.39,18.74,5.7,18.64,5.8c-0.17,0.12-0.29,0.18-0.47,0.32
				c-0.09,0.08-0.49,0.45-0.57,0.52c-0.08,0.08-0.47,0.44-0.57,0.54c-0.1,0.09-0.43,0.32-0.51,0.39c-0.07,0.05-0.43,0.33-0.53,0.42
				c-0.19,0.18-0.37,0.41-0.56,0.6c-0.14,0.14-0.38,0.34-0.54,0.49c-0.18,0.2-0.38,0.43-0.55,0.62c-0.18,0.19-0.37,0.45-0.54,0.63
				c-0.18,0.18-0.37,0.36-0.55,0.54c-0.19,0.19-0.34,0.46-0.51,0.66c-0.18,0.2-0.35,0.4-0.54,0.6c0.02-0.03,0.5-0.67,0.5-0.67
				s-0.52,0.58-0.55,0.62c-0.12,0.14-0.41,0.57-0.5,0.68l-0.48,0.67c-0.07,0.1-0.37,0.53-0.43,0.62c-0.09,0.11-0.39,0.5-0.46,0.59
				c-0.03,0.04-0.44,0.57-0.46,0.59c-0.13,0.22-0.27,0.44-0.38,0.62C9.36,16,9.11,16.39,9.06,16.47c0.03-0.04,0.44-0.57,0.46-0.59
				c0,0-0.1,0.17-0.2,0.33c-0.35,0.46-0.74,0.9-1.07,1.39c-0.32,0.47-0.35,0.61-0.32,0.67c-0.01,0.02-0.03,0.05-0.04,0.07
				c-0.06,0.08-0.4,0.57-0.43,0.62c0.03-0.05,0.35-0.62,0.36-0.64c0,0-0.45,0.66-0.43,0.62c0.02-0.06,0.28-0.5,0.36-0.64
				c0.05-0.09,0.36-0.64,0.36-0.64s-0.1,0.14-0.2,0.29c-0.1,0.15-0.21,0.31-0.22,0.32l-0.71,1.28L6.6,20.19l-0.32,0.66
				C6.25,20.91,6.21,21,6.17,21.08c-0.09,0.07-0.17,0.14-0.24,0.2c-0.06,0.19-0.1,0.34-0.13,0.5c-0.09,0.15-0.19,0.3-0.24,0.38
				c-0.12,0.22-0.2,0.44-0.32,0.66c-0.14,0.24-0.26,0.4-0.39,0.66C4.78,23.61,4.57,24,4.49,24.14c-0.09,0.19-0.2,0.5-0.29,0.69
				c-0.08,0.15-0.3,0.56-0.36,0.67c-0.07,0.13-0.34,0.63-0.36,0.68c-0.02,0.02,0.06-0.16,0.13-0.33c0.08-0.18,0.15-0.36,0.15-0.36
				s-0.09,0.16-0.17,0.32c-0.09,0.16-0.17,0.33-0.19,0.36c-0.1,0.23-0.23,0.47-0.33,0.7c-0.03,0.1-0.22,0.65-0.25,0.71
				c0.02-0.04,0.32-0.69,0.32-0.7c0,0-0.27,0.76-0.25,0.71c0.04-0.1,0.25-0.53,0.32-0.7l0.32-0.7c-0.09,0.26-0.15,0.44-0.25,0.71
				c-0.07,0.16-0.24,0.53-0.32,0.7c-0.08,0.19-0.17,0.51-0.24,0.71c-0.06,0.12-0.28,0.6-0.32,0.7c-0.05,0.13-0.26,0.68-0.28,0.72
				c-0.02,0.04,0.2-0.73,0.2-0.73s-0.26,0.67-0.28,0.73c-0.03,0.12-0.17,0.64-0.2,0.73c-0.06,0.23-0.15,0.55-0.2,0.73
				c-0.03,0.14-0.19,0.68-0.2,0.73c0,0.04,0.28-0.73,0.28-0.73s-0.18,0.67-0.2,0.73c-0.03,0.09-0.2,0.67-0.23,0.75l-0.23,0.75
				c-0.07,0.22-0.15,0.49-0.23,0.75c-0.02,0.08-0.12,0.63-0.13,0.76C0.7,35.03,0.58,35.6,0.56,35.7c-0.02,0.09-0.15,0.66-0.17,0.77
				c-0.02,0.16-0.08,0.65-0.09,0.77c-0.04,0.22-0.02,0.5-0.05,0.78c-0.01,0.17-0.02,0.59-0.03,0.78l-0.11,0.79
				c0-0.04,0.03-0.78,0.03-0.78s-0.1,0.73-0.11,0.8c-0.01,0.09-0.02,0.69,0,0.78c0.01,0.12,0.03,0.64,0.04,0.79
				c-0.01,0.26-0.03,0.55-0.04,0.81c0,0.26-0.04,0.55-0.03,0.81c0.02,0.21,0.09,0.57,0.11,0.79c0.01,0.26,0.02,0.55,0.03,0.82
				c0.02,0.2,0.09,0.58,0.11,0.79c0.01,0.11,0.09,0.72,0.1,0.82c0.02,0.13,0.09,0.66,0.11,0.82c0.03,0.13,0.16,0.67,0.19,0.78
				c0.02,0.12,0.21,0.62,0.25,0.77c0.06,0.26,0.13,0.56,0.19,0.81c0.01,0.02,0.23,0.66,0.26,0.76c0,0.04,0.23,0.71,0.26,0.79
				c0.09,0.22,0.25,0.53,0.33,0.74c0.11,0.25,0.24,0.53,0.34,0.74c0.05,0.11,0.33,0.57,0.39,0.71c0.1,0.2,0.24,0.57,0.34,0.76
				c-0.04-0.06-0.4-0.69-0.4-0.7c0,0,0.32,0.71,0.34,0.76c0.07,0.11,0.36,0.61,0.41,0.7c0.14,0.19,0.3,0.43,0.46,0.66
				c0.1,0.15,0.35,0.5,0.47,0.66c0.15,0.23,0.27,0.48,0.42,0.72c0.18,0.25,0.3,0.43,0.47,0.68c0,0,0.46,0.54,0.53,0.61
				c0.03,0.04,0.47,0.54,0.53,0.6c0.11,0.13,0.44,0.52,0.53,0.63c0.18,0.18,0.44,0.42,0.58,0.56c0.37,0.38,0.77,0.72,1.19,1.05
				c0.02,0.03,0.6,0.58,0.58,0.57c-0.01,0,0.13,0.14,0.28,0.28s0.3,0.29,0.3,0.29s-0.15-0.11-0.29-0.23s-0.3-0.25-0.32-0.26
				C9.06,61.25,8.91,61.12,8.76,61c-0.15-0.12-0.29-0.24-0.29-0.24c0.02,0.01,0.5,0.5,0.58,0.57c0.03,0.03,0.55,0.44,0.62,0.5
				c0.21,0.16,0.41,0.36,0.62,0.52c0.21,0.16,0.44,0.28,0.65,0.44c0.21,0.16,0.41,0.36,0.62,0.52l1.3,0.94
				c0.22,0.13,0.46,0.26,0.68,0.39c0.09,0.07,0.69,0.35,0.69,0.35s-0.71-0.42-0.67-0.43c0.03,0-0.64-0.44-0.65-0.47
				c0.02,0.01,0.6,0.34,0.68,0.38c0.22,0.13,0.46,0.23,0.69,0.35l0.68,0.41c0.16,0.1,0.47,0.28,0.68,0.41
				c0.12,0.07,0.55,0.25,0.71,0.31c0.16,0.08,0.56,0.29,0.7,0.36c0.25,0.13,0.48,0.25,0.7,0.36c0.12,0.06,0.54,0.29,0.7,0.36
				c0.1,0.03,0.65,0.21,0.73,0.23c0.17,0.05,0.5,0.16,0.73,0.23c0.11,0.05,0.58,0.25,0.72,0.31c0.19,0.08,0.52,0.14,0.73,0.2
				c0.16,0.06,0.59,0.22,0.73,0.27c0.22,0.05,0.57,0.14,0.73,0.18c0.23,0.06,0.47,0.11,0.73,0.18c0.2,0.04,0.51,0.1,0.74,0.14
				c0.2,0.05,0.53,0.17,0.74,0.22c0.24,0.06,0.49,0.08,0.74,0.14c0.16,0.05,0.59,0.17,0.74,0.21c0.14,0.03,0.54,0.13,0.74,0.18
				c0.1,0.03,0.74,0.18,0.74,0.18c-0.02,0-0.7-0.09-0.74-0.09c0.19,0.05,0.51,0.12,0.75,0.18c0.11,0.03,0.61,0.15,0.75,0.18
				c0.18,0.04,0.58,0.06,0.73,0.07c-0.07,0-0.63-0.13-0.74-0.16c0.25,0.03,0.49,0.06,0.74,0.07l0.72,0.05
				c0.11,0.01,0.58,0.04,0.72,0.05c0.11,0.02,0.64,0.12,0.73,0.14c0.23,0.04,0.47,0.09,0.73,0.14c0.2,0.03,0.5,0.11,0.73,0.14
				c0.19,0.02,0.52,0,0.72,0.02c0.25,0.02,0.48,0.08,0.73,0.11c0.11,0,0.63,0.02,0.72,0.02c0.21,0.01,0.47,0.01,0.72,0.02
				c0.16,0.01,0.55,0,0.72,0.02c0.25,0.02,0.49,0.09,0.73,0.1c0.16,0.02,0.62,0.06,0.74,0.08c0.12,0.01,0.58,0.06,0.74,0.08
				c0.1,0,0.64-0.01,0.72-0.01c0.1,0,0.59-0.01,0.72-0.01c0.13,0.01,0.64,0.07,0.74,0.08c0.09,0.01,0.64,0.07,0.74,0.06
				c0.17,0,0.59-0.03,0.72-0.04c0.11-0.01,0.58-0.03,0.72-0.04c0.2,0,0.55,0.05,0.74,0.05c0.28,0,0.44-0.04,0.72-0.04
				c0.19,0,0.53,0.05,0.74,0.05c0.15,0.01,0.59-0.04,0.72-0.05c-0.01,0-0.17-0.01-0.36-0.01c-0.18-0.01-0.37-0.02-0.38-0.02
				c0.02,0,0.63-0.05,0.71-0.05l0.71-0.07c0.05,0.01,0.73,0.01,0.74,0.02c0,0-0.77,0.06-0.71,0.07c0.09,0.01,0.56,0.02,0.74,0.02
				l0.74,0.02c0.14,0,0.55,0.03,0.74,0.02c0.08-0.01,0.64-0.06,0.71-0.07c0.24-0.02,0.47-0.05,0.71-0.08
				c0.18-0.02,0.48-0.06,0.71-0.09c0.12,0,0.59,0,0.74,0c0.23-0.01,0.49-0.08,0.71-0.09c0.26-0.02,0.47,0.01,0.74,0
				c0.19-0.01,0.51-0.08,0.71-0.09c0.24-0.02,0.49,0.01,0.74-0.01c-0.05,0.01-0.71,0.1-0.71,0.1s0.7,0,0.74-0.01
				c0.25-0.02,0.46-0.09,0.71-0.11c0.24-0.02,0.49,0,0.73-0.03c0.24-0.02,0.46-0.09,0.71-0.11c0.25-0.02,0.49,0,0.73-0.03
				c0.22-0.02,0.48-0.09,0.7-0.11c0.15-0.02,0.61-0.01,0.73-0.03c0.22-0.04,0.53-0.1,0.7-0.14l0.7-0.14c0.15-0.03,0.5-0.11,0.7-0.14
				c0.16-0.02,0.55-0.03,0.73-0.05c0.2-0.03,0.51-0.11,0.7-0.14c0.28-0.03,0.46-0.02,0.73-0.05c-0.03,0.01-0.7,0.14-0.7,0.14
				s0.69-0.05,0.73-0.05c0.16-0.02,0.58-0.13,0.7-0.15c0.2-0.05,0.45-0.1,0.69-0.16c0.15-0.03,0.52-0.13,0.69-0.16
				c0.15-0.02,0.6-0.06,0.73-0.07c0.1-0.01,0.73-0.07,0.73-0.07c0.01,0.01-0.65,0.13-0.69,0.16c-0.04,0.02-0.7,0.14-0.69,0.16
				c0,0,0.68-0.06,0.73-0.07c0.11-0.03,0.6-0.14,0.7-0.16c0.21-0.05,0.44-0.1,0.69-0.16c0.18-0.04,0.48-0.11,0.69-0.16
				c0.19-0.04,0.53-0.05,0.72-0.09c0.17-0.03,0.54-0.14,0.69-0.18l-0.72,0.09c0,0,0.6-0.16,0.69-0.18c0.05-0.01,0.64-0.08,0.72-0.09
				c0.19-0.03,0.49-0.14,0.69-0.18c0.13-0.02,0.62-0.08,0.72-0.09c-0.02,0.01-0.68,0.17-0.69,0.18c0,0,0.64-0.08,0.73-0.09
				c0.1-0.01,0.6-0.07,0.72-0.09c0.13-0.02,0.59-0.16,0.69-0.19l0.69-0.2c0.2-0.06,0.44-0.13,0.68-0.2
				c0.08-0.01,0.61-0.09,0.72-0.11c0.1-0.03,0.6-0.17,0.69-0.2l0.68-0.2c0.48-0.07,0.96-0.15,1.44-0.23l-0.68,0.21
				c-0.17,0.05-0.46,0.14-0.69,0.2c-0.12,0.03-0.57,0.08-0.72,0.11c-0.23,0.05-0.45,0.14-0.68,0.2l1.45-0.22l0.68-0.2l0.68-0.21
				c0.2-0.06,0.44-0.14,0.68-0.21c0.07-0.01,0.61-0.11,0.72-0.13c0.17-0.04,0.53-0.17,0.68-0.21c0.24-0.08,0.48-0.15,0.68-0.21
				c0.1-0.03,0.55-0.18,0.68-0.21c0.12-0.02,0.62-0.11,0.72-0.13c0.05-0.01,0.69-0.14,0.71-0.14c0.24-0.08,0.48-0.16,0.67-0.23
				c0.21-0.07,0.5-0.17,0.67-0.23c0.12-0.05,0.63-0.21,0.67-0.23c0.02-0.01-0.16,0.03-0.34,0.07c-0.18,0.04-0.37,0.08-0.37,0.08
				c-0.01-0.01,0.63-0.2,0.67-0.23c0.13-0.02,0.61-0.14,0.71-0.15c0.1-0.01,0.65-0.15,0.71-0.14c0.02,0-0.15,0.06-0.32,0.11
				s-0.35,0.12-0.35,0.12s0.62-0.13,0.71-0.14c0.17-0.03,0.5-0.1,0.71-0.15l1.42-0.32l0.66-0.25c0.09-0.03,0.54-0.21,0.66-0.25
				c0.12-0.04,0.61-0.14,0.71-0.16c0.06-0.01,0.67-0.15,0.71-0.16c0.23-0.07,0.49-0.19,0.66-0.26c0.18-0.07,0.56-0.21,0.66-0.26
				c0.04-0.02-0.69,0.18-0.71,0.18c-0.01,0,0.14-0.06,0.29-0.12c0.16-0.06,0.32-0.13,0.36-0.14l0.66-0.26
				c0.23-0.06,0.48-0.12,0.71-0.18c0.1-0.02,0.7-0.18,0.7-0.18c-0.01,0-0.63,0.25-0.66,0.26c0.12-0.03,0.55-0.13,0.71-0.18
				c0.18-0.06,0.47-0.2,0.66-0.26c0.13-0.03,0.61-0.15,0.71-0.18c0.23-0.08,0.48-0.2,0.65-0.27c0.16-0.07,0.57-0.24,0.65-0.28
				c0.04-0.02-0.7,0.19-0.7,0.19c-0.01-0.01,0.61-0.25,0.65-0.28c0.24-0.07,0.46-0.13,0.7-0.2c0.24-0.07,0.47-0.13,0.7-0.19l0.7-0.2
				c0.21-0.06,0.54-0.15,0.7-0.19c0.13-0.03,0.65-0.19,0.7-0.19c0.02,0-0.14,0.07-0.31,0.14c-0.17,0.07-0.34,0.15-0.34,0.15
				s0.6-0.17,0.7-0.19c0.03-0.02,0.62-0.28,0.65-0.29c0.04-0.03,0.65-0.28,0.64-0.3c-0.01-0.01-0.71,0.23-0.7,0.21
				c0.01-0.02,0.61-0.26,0.64-0.3c0.01-0.01-0.16,0.04-0.33,0.1c-0.18,0.06-0.36,0.11-0.36,0.11c-0.01-0.01,0.61-0.26,0.64-0.3
				l1.39-0.42l0.7-0.21c0.1-0.03,0.57-0.16,0.7-0.21c0.11-0.04,0.56-0.26,0.64-0.3c0.2-0.09,0.49-0.22,0.64-0.3
				c0.12-0.06,0.61-0.28,0.64-0.31c0.09-0.02,0.52-0.17,0.69-0.23c0.22-0.07,0.45-0.15,0.69-0.23c0.05-0.03,0.55-0.27,0.64-0.31
				c0.13-0.05,0.59-0.19,0.69-0.23c0.13-0.04,0.53-0.16,0.69-0.23c0.09-0.03,0.56-0.28,0.63-0.32l0.63-0.33
				c0.14-0.07,0.44-0.24,0.63-0.33c0.05-0.02,0.62-0.22,0.68-0.24c0.1-0.03,0.56-0.19,0.69-0.24c0.11-0.05,0.55-0.28,0.63-0.33
				c0.18-0.1,0.41-0.21,0.63-0.33c0.14-0.07,0.47-0.25,0.63-0.33c0.22-0.1,0.46-0.16,0.68-0.26c0.12-0.05,0.58-0.22,0.68-0.26
				c0.12-0.05,0.53-0.19,0.68-0.26c0.08-0.04,0.55-0.3,0.62-0.34c0.1-0.05,0.5-0.28,0.62-0.34c0.11-0.05,0.59-0.22,0.68-0.26
				c-0.02,0.01-0.61,0.34-0.62,0.34c0,0,0.64-0.24,0.68-0.26c0.12-0.05,0.53-0.29,0.62-0.35c0.16-0.1,0.4-0.24,0.62-0.36
				c0.09-0.04,0.56-0.23,0.67-0.27c0.09-0.04,0.54-0.31,0.61-0.36c0.1-0.06,0.48-0.29,0.61-0.36c0.19-0.09,0.48-0.18,0.68-0.27
				c0.17-0.08,0.43-0.27,0.61-0.36c0.2-0.1,0.47-0.18,0.67-0.28c0.25-0.12,0.42-0.16,0.67-0.29c0.17-0.09,0.43-0.28,0.6-0.37
				c0.22-0.11,0.45-0.18,0.67-0.29c0.1-0.05,0.53-0.32,0.6-0.37c0.08-0.05,0.49-0.31,0.6-0.37c0.11-0.06,0.58-0.25,0.67-0.29
				c0.06-0.03,0.61-0.26,0.67-0.29c0.18-0.1,0.47-0.3,0.6-0.39l1.19-0.77c0.15-0.07,0.53-0.25,0.66-0.3
				c0.09-0.03,0.65-0.32,0.66-0.31c0.01,0.01-0.56,0.35-0.59,0.39c-0.03,0.04-0.61,0.37-0.59,0.39c0,0.01,0.15-0.06,0.3-0.14
				c0.15-0.07,0.32-0.15,0.36-0.17c-0.05,0.02,0.59-0.39,0.59-0.39c0.21-0.11,0.45-0.19,0.66-0.31c0.21-0.11,0.39-0.27,0.59-0.39
				c0.24-0.14,0.35-0.26,0.59-0.4c0.16-0.1,0.48-0.22,0.66-0.32c0.21-0.12,0.38-0.28,0.59-0.4c0.17-0.1,0.47-0.21,0.66-0.32
				c0.21-0.12,0.38-0.28,0.59-0.4c0.2-0.12,0.44-0.2,0.66-0.32c0.09-0.05,0.52-0.35,0.58-0.4c0.16-0.12,0.48-0.33,0.58-0.42
				c-0.02,0.01-0.6,0.31-0.65,0.34c-0.09,0.05-0.66,0.32-0.66,0.32c-0.01-0.01,0.56-0.36,0.58-0.4l0.65-0.34l0.65-0.34
				c0.22-0.11,0.43-0.22,0.65-0.34c0.1-0.05,0.53-0.27,0.65-0.34c0.21-0.13,0.37-0.29,0.57-0.42c-0.04,0.02-0.65,0.34-0.65,0.34
				s0.5-0.36,0.58-0.42c0.05-0.03,0.56-0.29,0.65-0.34c0.09-0.05,0.51-0.37,0.57-0.42c0.12-0.09,0.4-0.32,0.57-0.43
				c0.14-0.09,0.49-0.25,0.64-0.35c0.2-0.13,0.37-0.3,0.56-0.43c0.2-0.13,0.36-0.3,0.56-0.43c0.11-0.06,0.55-0.31,0.64-0.35
				c0.2-0.14,0.41-0.31,0.56-0.43l0.48-0.37c0.28-0.15,0.53-0.38,0.67-0.54c0.16-0.13,0.33-0.27,0.52-0.42
				c0.01-0.01,0.07-0.04,0.13-0.08c0.05,0,0.09-0.01,0.12-0.01l0.09-0.11c0.13-0.07,0.25-0.15,0.29-0.17
				c0.02-0.02,0.05-0.04,0.07-0.06l0.46-0.22c0.05-0.07,0.04-0.12-0.01-0.15c0.01-0.01,0.02-0.02,0.03-0.02
				c0.16-0.13,0.32-0.26,0.46-0.37c0.04,0,0.08,0,0.09,0.02l0.51-0.33c0.13-0.15,0.22-0.29,0.32-0.43c0.09-0.08,0.18-0.15,0.26-0.22
				c0.01-0.01-0.07,0.04-0.17,0.1l0.05-0.07l0.32-0.24l0.08,0.11c0.43-0.1,0.69-0.36,0.93-0.6c0.03-0.02,0.06-0.04,0.08-0.05
				c0.09-0.06,0.55-0.36,0.66-0.45l0,0c0.05-0.01,0.1-0.03,0.16-0.03c0.12-0.13,0.14-0.2,0.12-0.24c0.12-0.12,0.23-0.23,0.23-0.23
				c-0.01,0-0.13,0.09-0.27,0.19c-0.02-0.01-0.04-0.02-0.08-0.02c0.09-0.09,0.18-0.18,0.21-0.2c-0.08,0.07-0.18,0.14-0.28,0.2h-0.14
				c0.22-0.19,0.44-0.37,0.65-0.56l0.04,0.08c-0.1,0.11-0.22,0.23-0.28,0.28c0.1-0.07,0.2-0.15,0.3-0.23l0.05,0.1
				c0.39-0.33,1.01-0.59,0.96-0.9l0.03-0.04l1.18-0.68c-0.04-0.09,0.16-0.31,0.5-0.59c-0.19,0.03-0.54,0.41-0.44,0.4l-0.48,0.26
				l0.14-0.3c0.13-0.12,0.26-0.25,0.38-0.36l0.66-0.46l0.57-0.14c-0.08-0.31,0.74-0.73,1.33-1.19l-0.04-0.23l0.48-0.23l0.15-0.26
				c-0.19,0.23-0.24,0.04-0.19-0.01l0.43-0.08l0.57-0.63l-0.14,0.03l0.29-0.34c0.24-0.14,0.62-0.35,0.62-0.54l-0.47,0.09
				c0.52-0.38,0.95-0.65,1.33-0.77c0.62-0.63-0.33-0.03-0.15-0.35c0.28-0.24,0.58-0.25,0.85-0.6l-0.56,0.17l-0.38,0.5l-0.19-0.2
				c0.28-0.2,0.57-0.38,0.85-0.59l0.42-0.09c0.18-0.18,0.6-0.56,0.64-0.76l0.69-0.72c0.27-0.34-0.15-0.2-0.34-0.07l-0.01-0.19
				l0.51-0.25c0.36-0.46,0.64-0.81,0.67-1.05c-0.01-0.32,0.72-0.74,0.75-0.99l-0.6,0.24c0.03-0.25,0.25-0.54,0.65-0.93
				c-0.19-0.05-0.12-0.36-0.09-0.56c-0.66,0.65-1.26,1.65-1.82,1.96c-0.05-0.08-0.15-0.25-0.56,0.12l0-0.09
				c0.08-0.25,0.49-0.63,0.77-0.73l0.03-0.29c0.23-0.24,0.58-0.52,0.64-0.34l-0.11-0.17l0.44-0.4l0.2,0.19l0.43-0.59l-0.5,0.22
				l0.44-0.49l-0.19-0.05l-0.83,0.92l-0.15-0.2c-1.06,0.6,0.08-0.54-0.04-0.79c-0.42,0.45-0.88,0.83-1.33,1.25
				c0.09-0.25,0.41-0.72,0.72-1.13c-0.15,0.04-0.3,0.08-0.46,0.12c-0.35,0.28-0.29-0.12-0.78,0.31l-0.3,0.44
				c0.6-0.22,1.15-0.39,0.16,0.44c-0.28,0.11,0.22-0.33-0.01-0.28c-0.5,0.39-0.12,0.36-0.44,0.61l-0.14-0.06
				c0.22-0.33-0.06-0.27-0.42-0.1l0.13-0.12l0.21-0.38l0.18-0.18l-0.06-0.18l-0.31,0.3l0.1,0.17c-0.22,0.38-0.68,0.47-0.81,0.5
				l0.35-0.5l-0.27,0.15l-0.12,0.36c-0.64,0.32-0.88,0.09-1.55,0.51c-0.12,0.36-0.63,0.5-0.95,0.56c-0.59,0.53-1.56,0.84-2.05,1.4
				l0.23,0.1c-0.68,0.59-1.14,0.39-1.55,0.56c-0.18,0.73,0.78-0.18,1.28-0.23l-0.68,0.73l-0.05-0.04c0.09-0.25-0.37,0.07-0.7,0.25
				c0.28-0.41-0.14-0.35-0.46-0.21l-0.23,0.31l-0.09,0.06c-0.28,0.41,0.79-0.17,0.64,0.32c-0.32,0-0.74,0.3-1.11,0.45
				c0.61-0.74-0.51-0.06-0.97,0.15c-0.79,0.73-1.85,1.02-2.49,1.92l-1.42,0.92c-0.66,0.46-0.18,0.38-0.28,0.59
				c-0.03,0.02-0.07,0.04-0.08,0.05c-0.03,0.02-0.09,0.07-0.15,0.12c-0.09-0.04-0.23,0.07-0.46,0.1c-0.24,0.17-0.58,0.43-0.35,0.41
				c0.18-0.09,0.16,0.02,0.14,0.12c-0.12,0.07-0.23,0.13-0.26,0.15c-0.02,0.01-0.07,0.04-0.13,0.07c-0.36,0.11-0.7,0.17-0.94,0.19
				c-0.18,0.27-0.25,0.47-0.43,0.72c-0.08,0.04-0.16,0.08-0.25,0.14c-0.1,0.06-0.22,0.17-0.34,0.27c-0.21,0.04-0.44,0.11-0.81,0.42
				c-0.03,0.05-0.02,0.07,0.01,0.09c-0.2,0.13-0.44,0.25-0.6,0.35c-0.08,0.04-0.51,0.28-0.61,0.33c-0.11,0.07-0.46,0.35-0.55,0.42
				c-0.08,0.06-0.44,0.35-0.55,0.42c-0.1,0.05-0.54,0.29-0.61,0.33c-0.19,0.15-0.39,0.3-0.55,0.42l-1.1,0.84
				c0,0-0.65,0.35-0.62,0.32c0.06-0.06,0.43-0.31,0.56-0.41c0.08-0.06,0.55-0.42,0.55-0.42s-0.53,0.29-0.61,0.33l-0.62,0.32
				l-0.56,0.41l-0.56,0.4c-0.14,0.1-0.37,0.28-0.56,0.41c-0.08,0.05-0.52,0.26-0.62,0.32c-0.16,0.09-0.4,0.3-0.56,0.41
				c-0.18,0.11-0.45,0.21-0.62,0.32c-0.14,0.1-0.46,0.32-0.57,0.39c-0.09,0.06-0.46,0.32-0.57,0.39c-0.2,0.12-0.42,0.18-0.63,0.3
				c-0.13,0.07-0.52,0.25-0.63,0.3c-0.11,0.05-0.48,0.22-0.63,0.3c-0.08,0.04-0.5,0.34-0.57,0.39c-0.09,0.06-0.46,0.33-0.57,0.39
				c-0.1,0.06-0.55,0.25-0.63,0.29c-0.03,0.01,0.58-0.38,0.58-0.38c-0.01,0-0.57,0.26-0.63,0.29c-0.06,0.04-0.53,0.34-0.58,0.38
				l-1.16,0.75c-0.03,0-0.65,0.31-0.63,0.29c0.02-0.03,0.55-0.34,0.58-0.38c0.03-0.03-0.63,0.3-0.63,0.29c0,0,0.62-0.39,0.58-0.38
				c-0.06,0.02-0.53,0.23-0.63,0.29c-0.16,0.09-0.41,0.28-0.58,0.38c-0.2,0.11-0.43,0.18-0.63,0.29l-0.59,0.37
				c-0.16,0.1-0.48,0.29-0.59,0.36c0-0.01-0.14,0.05-0.29,0.12c-0.15,0.07-0.31,0.14-0.35,0.15c-0.1,0.04-0.51,0.21-0.64,0.27
				c-0.09,0.05-0.52,0.32-0.59,0.36l-0.59,0.36l-0.59,0.36l-1.2,0.7c-0.14,0.05-0.52,0.22-0.65,0.26c-0.08,0.03-0.64,0.27-0.65,0.26
				c-0.01-0.01,0.56-0.31,0.6-0.35c0.03-0.04,0.61-0.33,0.6-0.35c-0.01,0-0.57,0.23-0.64,0.26c-0.1,0.04-0.48,0.29-0.6,0.35
				c-0.15,0.07-0.51,0.19-0.64,0.26c-0.19,0.1-0.46,0.27-0.6,0.35c-0.09,0.05-0.48,0.29-0.6,0.35c-0.18,0.09-0.48,0.17-0.65,0.25
				c-0.24,0.11-0.37,0.22-0.61,0.33c-0.17,0.08-0.48,0.16-0.65,0.24c-0.21,0.1-0.4,0.23-0.61,0.33c-0.16,0.07-0.48,0.17-0.65,0.24
				c-0.09,0.05-0.54,0.3-0.61,0.33c-0.08,0.04-0.51,0.29-0.61,0.34c-0.12,0.06-0.56,0.2-0.65,0.23c-0.06,0.02-0.61,0.21-0.66,0.23
				c-0.19,0.09-0.47,0.25-0.61,0.32l-0.61,0.32l-0.61,0.32l-1.23,0.64c-0.16,0.05-0.52,0.19-0.66,0.22
				c0.02-0.01,0.57-0.29,0.62-0.31c0.08-0.04,0.62-0.32,0.62-0.32s-0.57,0.2-0.66,0.23c-0.16,0.06-0.45,0.15-0.66,0.22
				c-0.04,0.02-0.57,0.28-0.62,0.3c-0.15,0.07-0.43,0.22-0.62,0.3c-0.1,0.04-0.54,0.17-0.66,0.21c-0.17,0.07-0.44,0.23-0.62,0.3
				c-0.21,0.08-0.46,0.14-0.66,0.21c-0.18,0.07-0.52,0.17-0.66,0.21c-0.16,0.05-0.46,0.14-0.66,0.21c-0.12,0.04-0.49,0.24-0.63,0.29
				c-0.21,0.08-0.45,0.12-0.67,0.2c-0.12,0.04-0.54,0.25-0.63,0.29l-0.63,0.29c-0.11,0.05-0.48,0.23-0.63,0.29
				c-0.08,0.02-0.59,0.18-0.66,0.2c-0.16,0.05-0.46,0.13-0.67,0.19c-0.12,0.04-0.5,0.23-0.63,0.27c-0.2,0.07-0.47,0.11-0.67,0.18
				c-0.14,0.05-0.53,0.23-0.64,0.27c-0.17,0.07-0.42,0.18-0.64,0.27c-0.03,0.01-0.13,0.04-0.23,0.07c-0.75,0.36-1.47,0.7-2.23,0.79
				c-0.06,0.02-0.12,0.03-0.16,0.04c-0.18,0.05-0.46,0.2-0.64,0.26c-0.2,0.06-0.48,0.1-0.67,0.17c-0.16,0.05-0.52,0.21-0.64,0.26
				c-0.1,0.04-0.52,0.22-0.64,0.26c-0.22,0.07-0.46,0.1-0.68,0.17c0.05-0.02,0.64-0.26,0.64-0.26c-0.01,0-0.61,0.15-0.68,0.17
				c-0.07,0.02-0.18,0.07-0.28,0.11l0.53,0.23c-0.55,0.07-1.13,0.09-1.63,0.09c-0.2,0.07-0.37,0.15-0.58,0.22
				c-0.18,0.06-0.49,0.1-0.68,0.15c-0.22,0.07-0.42,0.17-0.65,0.24c-0.19,0.06-0.45,0.09-0.65,0.15c-0.18,0.09-0.43,0.19-0.78,0.32
				l-0.15,0.03c-0.15,0.05-0.31,0.1-0.39,0.13c-0.18,0.05-0.49,0.09-0.68,0.14c-0.09,0.02-0.21,0.07-0.33,0.11l-0.57,0.78
				c-1.06,0.11-1.84-0.03-2.77,0.08c-0.12,0.04-0.25,0.08-0.34,0.11l-1.32,0.42c-0.1,0.02-0.22,0.04-0.34,0.06
				c-0.96,0.4-2.01,0.93-2.86,0.97l0.15,0.21c-1.18,0.14-1.43-0.07-1.64-0.29l-0.06,0.02c-0.13,0.04-0.49,0.15-0.66,0.19
				c-0.07,0.01-0.62,0.09-0.69,0.1c-0.17,0.02-0.47,0.06-0.68,0.1c-0.12,0.02-0.52,0.16-0.66,0.19c-0.08,0.02-0.17,0.02-0.26,0.03
				l-0.06,0.05l-0.47,0.01c-0.19,0.03-0.4,0.04-0.59,0.07c-0.23,0.04-0.44,0.13-0.67,0.17c-0.23,0.04-0.46,0.04-0.69,0.08
				c-0.14,0.03-0.29,0.07-0.44,0.11l0.07,0.02c0.19-0.02,0.39-0.05,0.39-0.05s-0.14,0.04-0.29,0.08l0.57,0.2
				c-1.4,0.67-4.22,0.38-4.64,1.2c-1.27,0.1-2.69,0.16-4.1,0.3c-1.4,0.15-2.79,0.32-3.99,0.59c-0.97-0.06-1.93-0.07-2.9-0.16
				l-1.09,0.63c-1.56-0.73-2.78,0.15-4.23,0.05l-0.7-0.53c-1.42-0.05-3.57,1.06-4.1,0.27c-1.73-0.18-3.36-0.09-4.96-0.01
				c-1.59,0.04-3.13-0.04-4.58-0.68l-2.96,0.15c-0.82-0.28-1.6-0.67-2.26-1.01c-0.17-0.02-0.36-0.04-0.41-0.05
				c-0.14,0-0.46-0.06-0.64-0.1l-0.44-0.08c-0.01,0.07-0.05,0.13-0.16,0.18c-0.7-0.26-1.51-0.37-2.28-0.55
				c-0.78-0.15-1.56-0.3-2.17-0.61c-1-0.51-0.97-0.71-0.84-0.88c-0.07-0.03-0.15-0.07-0.21-0.1c-0.09-0.04-0.45-0.24-0.56-0.29
				c-0.09-0.03-0.52-0.19-0.59-0.22l-0.19-0.07c-0.11,0.2-0.25,0.4-1.1-0.02c-0.22-0.28-0.52-0.59-0.85-0.9
				c-0.06-0.03-0.11-0.05-0.13-0.06c-0.1-0.05-0.45-0.18-0.57-0.27c-0.15-0.09-0.35-0.27-0.5-0.37c-0.11-0.06-0.45-0.24-0.54-0.3
				c-0.16-0.11-0.38-0.28-0.5-0.37c-0.1-0.09-0.33-0.3-0.47-0.4c-0.11-0.08-0.39-0.24-0.51-0.33c-0.16-0.12-0.3-0.27-0.47-0.4
				c-0.16-0.13-0.28-0.3-0.43-0.43c-0.15-0.13-0.33-0.24-0.48-0.37c0.03,0.03,0.42,0.43,0.43,0.43c-0.01-0.01-0.42-0.33-0.48-0.37
				c-0.12-0.09-0.33-0.25-0.48-0.37c-0.09-0.06-0.3-0.38-0.39-0.46c-0.11-0.12-0.33-0.29-0.44-0.41c-0.13-0.15-0.27-0.33-0.39-0.46
				c-0.14-0.16-0.24-0.35-0.34-0.49l-0.34-0.49l-0.34-0.49c-0.08-0.13-0.19-0.35-0.29-0.51c-0.02-0.03-0.32-0.43-0.35-0.47
				c-0.05-0.07-0.29-0.38-0.36-0.47c-0.06-0.1-0.19-0.45-0.23-0.54c0.01,0.01,0.3,0.5,0.3,0.5c-0.01-0.03-0.21-0.49-0.23-0.54
				c-0.09-0.17-0.14-0.36-0.23-0.54c-0.03-0.06-0.29-0.47-0.31-0.5c-0.03-0.03,0.24,0.52,0.23,0.53c0,0-0.27-0.44-0.31-0.5
				c-0.06-0.12-0.22-0.47-0.25-0.53c-0.02-0.04,0.18,0.56,0.18,0.56s-0.21-0.46-0.25-0.53c-0.06-0.11-0.18-0.38-0.26-0.53
				l-0.26-0.53c0.01-0.01-0.14-0.62-0.13-0.59c0.03,0.05,0.16,0.43,0.2,0.56c0.06,0.13,0.22,0.47,0.26,0.53
				c0.02,0.03-0.19-0.54-0.18-0.56c-0.01-0.03,0.26,0.53,0.26,0.53c0.01,0-0.19-0.52-0.18-0.56L8,47.14l-0.2-0.55
				c-0.05-0.13-0.15-0.39-0.2-0.56c-0.01-0.1-0.06-0.48-0.07-0.6c-0.03-0.16-0.12-0.41-0.15-0.58c-0.01-0.08-0.07-0.54-0.08-0.59
				c0.01,0.04,0.15,0.56,0.15,0.58c0,0-0.07-0.57-0.08-0.59c-0.02-0.15-0.08-0.48-0.09-0.59l-0.1-0.59c-0.07-0.4-0.14-0.79-0.15-1.2
				c0.01-0.14,0.03-0.49,0.04-0.61c0.01-0.08,0.03-0.61,0.03-0.61s0.04,0.65,0.04,0.61c0.01-0.08,0.03-0.46,0.03-0.61
				c0-0.11,0.04-0.46,0.07-0.61c0-0.07,0.01-0.55,0.01-0.61l0.01-0.62c0.01-0.15-0.01-0.42,0.02-0.62c0.02-0.09,0.12-0.5,0.14-0.61
				c0.03-0.17,0.03-0.45,0.06-0.62c0.03-0.21,0.1-0.4,0.14-0.61c0.02-0.2,0.05-0.42,0.09-0.62c0.05-0.21,0.14-0.4,0.19-0.61
				c0.05-0.21,0.06-0.42,0.11-0.62c0.04-0.17,0.15-0.45,0.19-0.61c0.04-0.16,0.13-0.5,0.16-0.62l0.16-0.62
				c0.04-0.14,0.11-0.44,0.16-0.62c0.04-0.1,0.19-0.49,0.23-0.6c0.07-0.16,0.14-0.45,0.2-0.62c0.08-0.2,0.19-0.39,0.28-0.59
				l-0.2,0.62c-0.06,0.18-0.16,0.48-0.2,0.61c-0.02,0.08-0.16,0.62-0.16,0.62s0.21-0.54,0.23-0.6c0.06-0.14,0.14-0.46,0.2-0.61
				c0.09-0.21,0.19-0.37,0.28-0.59c0.03-0.09,0.18-0.54,0.2-0.61c0.04-0.11,0.16-0.47,0.2-0.62c0.06-0.16,0.24-0.42,0.31-0.58
				c0.08-0.16,0.17-0.44,0.24-0.61c0.09-0.2,0.22-0.38,0.31-0.58c0.08-0.17,0.16-0.44,0.24-0.61c0.09-0.2,0.22-0.38,0.33-0.57
				c0.11-0.19,0.24-0.37,0.35-0.57c0.08-0.15,0.21-0.45,0.28-0.6l-0.35,0.57c0.01-0.02,0.25-0.53,0.28-0.6
				c0.03-0.07,0.24-0.52,0.28-0.6c0.07-0.12,0.29-0.48,0.35-0.57c0.09-0.13,0.33-0.48,0.38-0.55c0.03-0.04-0.32,0.59-0.32,0.59
				s0.36-0.52,0.38-0.55c0.07-0.12,0.27-0.49,0.32-0.59l0.32-0.59l0.32-0.59c0.11-0.19,0.21-0.39,0.32-0.58
				c0.1-0.16,0.23-0.38,0.35-0.57c0.05-0.07,0.34-0.44,0.41-0.53c0.13-0.18,0.23-0.39,0.35-0.57c0.13-0.19,0.22-0.39,0.35-0.58
				c0.12-0.18,0.29-0.36,0.41-0.53c0.03-0.04,0.43-0.51,0.45-0.54c0.01-0.01-0.09,0.14-0.19,0.28c-0.1,0.15-0.2,0.29-0.2,0.29
				s0.37-0.44,0.45-0.54c0.02-0.04,0.37-0.56,0.42-0.63c0.09-0.11,0.41-0.51,0.48-0.61c0.1-0.12,0.38-0.46,0.49-0.62
				c0.06-0.08,0.34-0.55,0.39-0.62c0.06-0.09,0.34-0.5,0.4-0.59c0.1-0.13,0.4-0.5,0.49-0.62c0.13-0.19,0.28-0.43,0.37-0.58
				c0.05-0.09,0.27-0.45,0.34-0.56c0.11-0.15,0.36-0.47,0.46-0.62c0.14-0.2,0.34-0.44,0.47-0.61c0.04-0.05,0.45-0.57,0.47-0.61
				c0.1-0.16,0.23-0.4,0.29-0.51c0.07-0.12,0.26-0.44,0.27-0.48c0.06-0.09,0.32-0.44,0.42-0.58c0.09-0.12,0.33-0.45,0.41-0.59
				c0.06-0.11,0.14-0.32,0.21-0.42c0.08-0.13,0.33-0.42,0.4-0.55c0.09-0.15,0.08-0.24,0.16-0.38C23.71,7.3,23.94,7,24,6.89
				c0.03-0.06,0.1-0.3,0.11-0.34c0-0.01,0.01-0.03,0.02-0.05c0.04-0.06,0.04-0.09,0.03-0.11c0.01-0.06,0.03-0.11,0.04-0.14
				c0.02-0.06,0.08-0.15,0.14-0.24l0.01-0.01c0.48-0.61,0.84-1.08,0.96-1.37c0.11-0.39,0.95-0.97,1.07-1.26l-0.65,0.35
				c0.12-0.3,0.44-0.67,0.97-1.17c-0.16-0.04,0.03-0.41,0.14-0.66c-0.65,0.62-1.34,1.48-1.92,2.06c-0.04-0.02-0.09-0.04-0.11-0.07
				c-0.01-0.01,0.02-0.08,0.04-0.15c0.1-0.05,0.22-0.13,0.34-0.26c-0.05-0.01-0.17,0.04-0.3,0.12l0-0.01c0-0.03-0.04-0.02-0.07-0.02
				l0.14-0.35c0.3-0.32,0.75-0.69,0.74-0.48l-0.04-0.19l0.58-0.52l0.11,0.21l0.64-0.75l-0.56,0.32l0.61-0.64L26.88,1.11z
				 M156.96,26.47c0,0.02,0.01,0.04,0.01,0.05c-0.08,0.02-0.2,0.08-0.29,0.11c0-0.03-0.01-0.07-0.02-0.11
				c0.03-0.03,0.06-0.07,0.11-0.12l0.27-0.1C157.01,26.37,156.97,26.44,156.96,26.47z M157.49,26.16c0.01-0.02,0.02-0.04,0.03-0.05
				c0.01-0.01,0.01,0.01,0.01,0.01L157.49,26.16z M155.25,23.66l0.37-0.25l0.23-0.28l-0.23,0.51
				C155.57,23.51,154.88,24.15,155.25,23.66z M158.71,25.28c-0.33,0.34-0.66,0.45-0.94,0.6l0,0c-0.01-0.07-0.02-0.19-0.05-0.21
				c0.31-0.18,0.62-0.17,1.04-0.49c-0.24,0.04-0.57,0.06-0.19-0.25C159.04,24.61,158.85,25.07,158.71,25.28z M157.48,24.14
				l0.37-0.18l-0.44,0.55C157.04,24.69,157.39,24.25,157.48,24.14z M158.68,21.98c-0.07,0.06-0.15,0.13-0.22,0.21l-0.07,0.06
				l-0.34,0.11c0.21-0.17,0.42-0.32,0.61-0.43C158.65,21.96,158.66,21.98,158.68,21.98z M160.57,22.89
				c-0.13,0.31,0.24,0.19,0.52,0.08l-0.41,0.52c-0.14-0.2-0.84,0.17-0.66-0.29l0.69-0.48l0.59-0.75l0.14,0.06L160.57,22.89z
				 M160.1,22.14c0,0,0.23-0.4,0.27-0.44c0.07-0.09,0.36-0.42,0.43-0.48c0.06-0.06,0.45-0.47,0.45-0.47s-0.07,0.09-0.15,0.2
				c-0.08,0.1-0.16,0.22-0.19,0.25c-0.11,0.15-0.2,0.29-0.3,0.43c-0.13,0.15-0.28,0.31-0.39,0.46c0.04-0.05,0.2-0.35,0.26-0.43
				C160.44,21.71,160.12,22.13,160.1,22.14z M162.7,21.45L162.7,21.45c-0.05,0.1-0.1,0.19-0.17,0.29c-0.11,0.07-0.23,0.15-0.36,0.26
				c-0.01-0.02-0.03-0.03-0.07-0.02l-0.09,0.03c-0.07,0.17-0.27,0.28-0.41,0.35l-0.01-0.01C161.92,21.79,162.3,21.66,162.7,21.45z
				 M162.3,21.14l-0.74,0.49l-0.01-0.14l-0.28,0.15l0.41-0.37l-0.05-0.04C162.11,20.95,162.21,21.07,162.3,21.14z M159.22,20.5
				l0.31-0.22l0.12,0.26C159.27,20.91,159.14,20.75,159.22,20.5z M160.78,20.09l0.31,0.33c-0.58,0.22-0.93,1.19-1.61,1.33
				C159.67,21.32,160.32,20.59,160.78,20.09z M154.42,23.44c0.55-0.43,0.73-0.18,1.28-0.7c-0.05-0.32-0.19-0.25-0.74,0.04l0.64-0.54
				l0.51-0.14c0.22-0.6,0.78-0.61,1.24-0.88l0.23,0.05l0.46-0.32l-0.1-0.17l0.18-0.23c0.06,0.18-0.07,0.59-0.49,0.84l0,0.19
				l0.6-0.44l-0.1-0.08l0.5-0.25l-0.45,0.42c-0.04,0.24,0.24,0.24-0.13,0.68c-0.51,0.37-0.46,0.74-0.97,0.97
				c-0.83,0.81-0.14-0.26-0.7,0.08l0.42-0.31c2.68-1.85,0.4-0.92,0.22-0.56l-0.05-0.13c0.28-0.14,0.69-0.59,0.5-0.61l-0.69,0.41
				c0.05,0.13-0.41,0.54-0.64,0.77c-0.51,0.23-0.92,0.78-1.47,1.11l-0.05,0.1l-0.56,0.32C154.47,23.85,154.47,23.62,154.42,23.44z
				 M152.88,24.47c0.24-0.27,0.65-0.43,0.84-0.45l0.05,0.13C153.39,24.44,152.78,24.76,152.88,24.47z M152.13,25.09
				c0.15-0.02,0.26-0.04,0.25,0.04c-0.11,0.03-0.22,0.07-0.28,0.09c-0.02-0.01-0.04-0.01-0.06-0.02L152.13,25.09z M149.89,26.4
				l0.29-0.41c0.38-0.38,0.69-0.29,1.12-0.68l-0.13-0.17c0.37-0.24,0.6-0.28,0.46-0.02l-0.7,0.71l0.21-0.03
				c-0.13,0.08-0.26,0.17-0.32,0.2c-0.02,0.01-0.06,0.03-0.09,0.04l-0.45,0.03l-0.12,0.22c-0.09,0.04-0.19,0.09-0.28,0.13
				L149.89,26.4z M71.54,61.48L71.4,61.6l-0.43-0.04C71.11,61.45,71.45,61.48,71.54,61.48z M70.03,62.65l-0.19,0.16l-0.59-0.05
				C69.45,62.6,69.92,62.64,70.03,62.65z M67.28,63.24l-0.6,0.16l-0.47-0.27C66.63,63.12,66.93,63.04,67.28,63.24z M57.52,64.09
				c-0.43,0.19-0.95-0.14-1.49,0.09l-0.03-0.06C56.47,64,57.55,63.86,57.52,64.09z M18.37,9.43c-0.01,0.07-0.03,0.11-0.22,0.35
				L18.03,9.8L18.37,9.43z M19.37,10.43c-0.07,0.09-0.13,0.13-0.19,0.17l-0.16,0.2c0.07-0.12-0.16,0.13-0.03-0.04l0.1-0.07
				l0.03-0.06c0.1-0.13,0.16-0.11,0.27-0.23c-0.04,0.02-0.1,0.04-0.02-0.05C19.46,10.26,19.41,10.37,19.37,10.43z M19.07,9.19
				l-0.18,0.03l0.32-0.36C19.3,8.84,19.3,8.97,19.07,9.19z M22.17,6.77c-0.07,0.14,0.06,0.06,0.16,0L22.14,7
				c-0.03-0.08-0.29,0.12-0.19-0.08l0.27-0.24l0.27-0.34l0.04,0.02L22.17,6.77z M21.87,3.85l-0.8,0.95
				C20.94,4.6,21.15,4.31,21.87,3.85z M22.8,4.55c-0.25,0.15-0.51,0.63-0.78,0.75c0.12-0.22,0.47-0.62,0.71-0.89L22.8,4.55z
				 M22.24,3.54L22.24,3.54c0.01-0.01,0.05-0.04,0.1-0.07L22.24,3.54z M24.83,2.15c-0.21,0.13-0.24,0.09-0.32,0.07l0.13-0.15
				C24.83,2,24.98,1.94,24.83,2.15z"/>
		</g>
	</g>
	<g>
		<g>
			<g>
				<path class="st0" d="M168.65,19.01c0,0,0.01,0.08,0.01,0.08c0.01-0.01,0.04-0.06,0.04-0.07c0-0.01-0.01-0.07-0.01-0.08
					c0-0.01-0.01-0.08-0.01-0.08c-0.01,0-0.03,0.06-0.04,0.07c-0.01,0.02-0.04,0.04-0.04,0.07c0,0.01,0.01,0.07,0.01,0.08
					C168.61,19.09,168.65,19.01,168.65,19.01z"/>
				<path class="st0" d="M165.68,14.28c-0.06,0.04,0.04,0.09,0.12,0.11l0.04-0.08L165.68,14.28z"/>
				<path class="st0" d="M166.14,14.24c-0.01,0.06,0,0.07,0.04,0.09l0.06-0.08L166.14,14.24z"/>
				<path class="st0" d="M167.82,14.94l0.07-0.03l-0.1-0.05C167.74,14.85,167.8,14.92,167.82,14.94z"/>
				<path class="st0" d="M164.88,14.64c0.03,0.07,0.01,0.06,0.11,0.13l0.04-0.04L164.88,14.64z"/>
				<path class="st0" d="M166.8,14.35c-0.03,0.07,0.13,0.06,0.17,0.06C166.92,14.38,166.87,14.34,166.8,14.35z"/>
				<path class="st0" d="M166.38,14.5l0.12-0.1c0.07-0.01,0.13-0.02,0.07-0.03l-0.07,0.01C166.41,14.35,166.41,14.45,166.38,14.5z"
					/>
				<path class="st0" d="M167.24,25.7c0,0,0-0.01,0-0.02c-0.1,0.02-0.11,0.1-0.05,0.21c0.01-0.02,0.03-0.05,0.03-0.05
					c0.01,0,0.01,0.04,0.01,0.06c0,0,0.01,0,0.01,0c0.01-0.02,0.02-0.05,0.03-0.06c0-0.03-0.02-0.05-0.01-0.08
					c0-0.02,0.04-0.05,0.04-0.07c0-0.01,0-0.02,0-0.03c-0.01,0-0.02,0-0.03,0C167.25,25.68,167.24,25.7,167.24,25.7z"/>
				<path class="st0" d="M166.26,30.52c0,0.01-0.04,0.06-0.04,0.07c0,0.01,0.01,0.08,0.01,0.08c0,0,0.04-0.06,0.04-0.07
					c0.01-0.02,0.04-0.05,0.04-0.07c0-0.01-0.01-0.07-0.01-0.08c0-0.01-0.01-0.08-0.01-0.08c-0.01,0-0.03,0.06-0.04,0.07
					C166.24,30.46,166.26,30.49,166.26,30.52z"/>
				<path class="st0" d="M163.21,20.44c-0.01-0.02-0.01-0.05-0.02-0.08c0-0.01-0.01-0.08-0.02-0.08c0,0-0.03,0.06-0.04,0.07
					c0,0,0.02,0.07,0.02,0.08c0,0.02-0.03,0.05-0.04,0.07c0,0.02,0.02,0.05,0.02,0.08c0.01-0.02,0.02-0.05,0.04-0.07
					C163.18,20.5,163.21,20.44,163.21,20.44z"/>
				<path class="st0" d="M166.72,27.73c0,0,0.04-0.06,0.04-0.07c0-0.02-0.02-0.05-0.01-0.08c0,0-0.04,0.07-0.04,0.07
					S166.72,27.73,166.72,27.73z"/>
				<path class="st0" d="M163.23,19.63c0,0.02,0.02,0.05,0.02,0.08c0,0,0.04-0.07,0.04-0.07c0,0-0.02-0.08-0.02-0.08
					S163.23,19.62,163.23,19.63z"/>
				<path class="st0" d="M163.55,38.75c0.02,0,0.03-0.01,0.04-0.01c0-0.01,0-0.01,0.01-0.02c-0.02,0.01-0.05,0.01-0.09,0
					L163.55,38.75z"/>
				<path class="st0" d="M164.03,38.45L164.03,38.45c0,0.02,0.01,0.03,0,0.04c0.01,0,0.02,0,0.03,0.01
					c0.02-0.02,0.03-0.04,0.04-0.07L164.03,38.45z"/>
				<path class="st0" d="M162.82,38.75l0.11,0.01c0-0.11-0.06-0.11-0.11-0.15L162.82,38.75z"/>
				<polygon class="st0" points="162.13,38.27 162.13,38.29 162.18,38.33 162.19,38.28 				"/>
				<path class="st0" d="M163.76,38.67l0.04-0.02c-0.01-0.01-0.05-0.06-0.09-0.04L163.76,38.67z"/>
				<polygon class="st0" points="162.25,38.36 162.22,38.42 162.28,38.4 				"/>
				<path class="st0" d="M162.36,38.42l-0.01,0.02c0.12-0.04,0.13,0.12,0.22,0.09C162.62,38.46,162.44,38.42,162.36,38.42z"/>
				<path class="st0" d="M163.16,38.54l0.06,0.05c0-0.02-0.02-0.05-0.06-0.06L163.16,38.54z"/>
				<path class="st0" d="M162.76,38.56c-0.07,0.01-0.06,0.03-0.07,0.05l0.09-0.02L162.76,38.56z"/>
				<path class="st0" d="M163.33,38.9l0.06-0.03c-0.01-0.02-0.06-0.08-0.12-0.05L163.33,38.9z"/>
				<path class="st0" d="M164.26,38.47c0.02-0.03,0.01-0.06-0.01-0.1c-0.01,0.04-0.01,0.07-0.01,0.11
					C164.25,38.48,164.26,38.47,164.26,38.47z"/>
				<polygon class="st0" points="162.06,38.56 162.06,38.56 162.06,38.56 				"/>
				<path class="st0" d="M163.32,38.64c-0.05,0.01-0.1,0.02-0.05,0.03l0.05-0.01c0.08,0.01,0.07-0.06,0.08-0.1L163.32,38.64z"/>
				<path class="st0" d="M164.26,38.28c0.02,0.01,0.11,0.01,0.11-0.03C164.33,38.25,164.27,38.26,164.26,38.28z"/>
				<path class="st0" d="M162.85,38.27c-0.02-0.01-0.11,0-0.1,0.04C162.79,38.31,162.85,38.29,162.85,38.27z"/>
				<path class="st0" d="M164.19,37.78l0.05,0.1C164.36,37.83,164.33,37.8,164.19,37.78z"/>
				<path class="st0" d="M166.58,28.69c0-0.11-0.06-0.11-0.11-0.15l0.01,0.14L166.58,28.69z"/>
				<path class="st0" d="M166.33,29.3c0.12-0.04,0.13,0.12,0.22,0.09c0.05-0.08-0.13-0.12-0.22-0.12L166.33,29.3z"/>
				<path class="st0" d="M166.69,28.89c0.02,0.01,0.11,0.01,0.11-0.03C166.75,28.85,166.69,28.87,166.69,28.89z"/>
				<path class="st0" d="M166.75,27.23c0.03-0.01,0.06-0.05,0.05-0.07C166.78,27.16,166.71,27.2,166.75,27.23z"/>
				<path class="st0" d="M166.66,14.41l0.03,0.18l-0.16-0.04c-0.25,0.13-0.19-0.16-0.43-0.16c-0.08,0.02-0.21,0.04-0.34,0.06
					c-0.04,0.05-0.19-0.02-0.21,0.07l0.07,0.09c0.01,0,0.02,0,0.02-0.01l-0.02-0.03l0.03,0.02c0.16-0.04,0.3-0.06,0.23,0.09
					c-0.08,0.02-0.05-0.07-0.14-0.05c-0.01,0.01-0.01,0.02-0.01,0.02l0.02,0.01c-0.01,0-0.01,0-0.02,0
					c0.01,0.02,0.02,0.03,0.04,0.04c0,0,0,0,0,0c-0.03,0-0.05,0.01-0.07,0.02c-0.01-0.01-0.02-0.01-0.04-0.02
					c-0.01,0.01-0.03,0.01-0.05-0.01c-0.04,0-0.09,0.01-0.13,0.03l0-0.03l0,0c0.01,0,0.01,0,0.02-0.01c0.03-0.01,0.07-0.02,0.1-0.03
					l0,0c-0.06,0-0.11,0-0.16,0l-0.03-0.03l0-0.04l-0.11-0.03l0,0.06l0.12,0.03c0,0,0,0.01,0.01,0.01c-0.03,0-0.06,0-0.08,0
					c-0.04,0.01-0.07,0.02-0.1,0.04l-0.03-0.04l-0.05,0.03l0.04,0.03c-0.02,0.01-0.05,0.02-0.07,0.03
					c-0.03,0.01-0.05,0.02-0.08,0.04c0.01,0,0.02-0.01,0.04-0.01l0.09,0.02c-0.02,0.06-0.12,0.14-0.23,0.08
					c-0.01-0.03,0-0.05,0.03-0.06c-0.07,0.01-0.14,0.02-0.18,0.06c0.02,0.01,0.03,0.02,0.03,0.03c-0.03,0.01-0.09,0.02-0.1,0.02
					c-0.02,0-0.05,0.01-0.08,0.02c0.04,0.02,0.08,0.05,0.06,0.07l0.04,0.02l0.03-0.05l-0.04-0.01l0.06-0.03l0,0.04
					c0.05,0.02,0.11,0.02,0.13,0.06c-0.02,0.04,0.07,0.07,0.02,0.1c0.01,0.08-0.09-0.02-0.13,0.01l0.02-0.03
					c0.15-0.19-0.13-0.09-0.08-0.05l-0.04-0.01c0.03-0.02,0.01-0.06-0.03-0.06l-0.06,0.04c0.04,0.01,0.04,0.05,0.04,0.08
					c-0.06,0.03-0.02,0.08-0.06,0.12l0.01,0.01l-0.04,0.04c0.02-0.03-0.04-0.05-0.09-0.07c0.02-0.04,0.12-0.02,0.12-0.08
					c-0.09-0.03-0.1-0.02-0.15,0.01l0.01-0.06l0.08-0.02c-0.09-0.06,0.03-0.06,0.06-0.09l0.06,0l0.03-0.03l-0.06-0.02l0,0
					c-0.01,0-0.02,0-0.02,0.01c-0.02,0.01-0.06,0.05-0.08,0.06c-0.03,0.02-0.08,0.02-0.11,0.04c-0.01,0.01-0.06,0.06-0.06,0.07
					c-0.01,0.01-0.04,0.06-0.06,0.07c-0.01,0.01-0.08,0.04-0.1,0.05c-0.02,0.01-0.08,0.04-0.09,0.05c-0.02,0.02-0.02,0.05-0.04,0.08
					c-0.02,0.02-0.07,0.04-0.08,0.06c-0.02,0.02-0.01,0.06-0.03,0.08c-0.02,0.02,0,0.06-0.02,0.08c-0.01,0.02-0.05,0.04-0.07,0.07
					c-0.01,0.03,0.01,0.06,0,0.08c-0.01,0.03-0.05,0.05-0.06,0.07c0,0,0-0.08,0-0.08s-0.06,0.07-0.06,0.07
					c-0.01,0.02,0.01,0.07,0.01,0.09l0.01,0.09c0,0.01,0.02,0.07,0.02,0.08c0,0.01-0.03,0.06-0.04,0.07c0,0.01-0.04,0.07-0.04,0.07
					c0,0.03,0.01,0.05,0.02,0.08c0,0.02,0.01,0.07,0.02,0.08c0,0.01,0.03-0.07,0.04-0.07c0.01,0,0.01,0.02,0.01,0.04l-0.1,0.16
					c-0.02,0.05,0.01,0.07,0.05,0.08c0,0,0,0.01,0,0.01c0,0.01-0.03,0.06-0.04,0.07c0,0-0.01-0.08-0.02-0.08
					c-0.01,0-0.03,0.08-0.04,0.07c-0.01-0.01-0.01-0.06-0.02-0.08c0-0.01-0.01-0.08-0.02-0.08c-0.01,0-0.03,0.07-0.04,0.07
					l0.04,0.15l0.02,0.08l0.02,0.08c0,0.01,0.01,0.02,0.01,0.03c-0.03,0.01-0.06,0.01-0.09,0.01c0.03,0.02,0.06,0.04,0.08,0.06
					c-0.01,0.02-0.02,0.03-0.02,0.04c0,0.02,0.02,0.05,0.02,0.08c-0.01,0.03-0.03,0.04-0.04,0.07c-0.01,0.01-0.03,0.05-0.04,0.07
					c0,0.02,0.02,0.06,0.02,0.08c0,0.02-0.03,0.06-0.04,0.07c-0.01,0.01-0.03,0.07-0.04,0.07c-0.01,0-0.01-0.08-0.02-0.08
					c-0.01,0-0.03,0.07-0.04,0.07c0,0.02-0.03,0.05-0.04,0.07c0,0.01,0.02,0.07,0.02,0.08c0,0,0.03-0.07,0.04-0.07
					c0.01,0,0.01,0.08,0.02,0.08c0.01-0.01,0.03-0.05,0.04-0.07l0.04-0.07c0,0.03,0.02,0.05,0.02,0.08c0,0.02-0.03,0.05-0.04,0.07
					c0,0.02,0.02,0.06,0.02,0.08c0,0.01-0.03,0.06-0.04,0.07c-0.01,0.01-0.03,0.07-0.04,0.07c-0.01,0-0.01-0.08-0.02-0.08
					c0,0-0.04,0.06-0.04,0.07c0,0.01,0.02,0.07,0.02,0.08c0.01,0.02,0.01,0.06,0.02,0.08c0.01,0.01,0.01,0.07,0.02,0.08
					c0.01,0.01,0.03-0.07,0.04-0.07c0,0,0.02,0.07,0.02,0.08c0,0.01-0.03,0.06-0.04,0.07l-0.04,0.07c-0.01,0.02-0.03,0.04-0.04,0.07
					c0,0.01,0.02,0.07,0.02,0.08c0,0.01-0.03,0.06-0.04,0.07c0,0.01-0.04,0.06-0.04,0.07c0,0.02,0.02,0.06,0.02,0.08
					c0.01,0.02,0.02,0.05,0.02,0.08c0,0.02,0.02,0.06,0.02,0.08c0,0.02-0.03,0.04-0.04,0.07c0,0-0.02-0.08-0.02-0.08
					s-0.04,0.06-0.04,0.07c0,0.01,0.02,0.07,0.02,0.08c0,0.01,0.02,0.06,0.02,0.08c0,0.02-0.03,0.05-0.04,0.07
					c0,0.02-0.03,0.05-0.04,0.07c0,0.02,0.02,0.06,0.02,0.08c0,0.02-0.03,0.05-0.04,0.07c0,0.02,0.02,0.06,0.02,0.08
					c0,0.01-0.03,0.06-0.04,0.07c-0.01,0.01-0.03,0.05-0.04,0.07c0,0.01,0.02,0.07,0.02,0.08c0,0.01,0.02,0.06,0.02,0.08
					c0,0.02-0.03,0.05-0.04,0.07c0,0,0.02,0.07,0.02,0.08c0,0-0.04,0.06-0.04,0.07c0,0.02,0.02,0.06,0.02,0.08
					c0,0.03,0.01,0.05,0.02,0.08c0,0.01,0.02,0.06,0.02,0.08c0,0.02-0.04,0.05-0.04,0.07c0-0.01-0.02-0.08-0.02-0.08
					c0,0-0.04,0.06-0.04,0.07c0,0.01,0.02,0.07,0.02,0.08c0.01,0.02,0.02,0.05,0.02,0.08c0,0.02,0.02,0.06,0.02,0.08
					c0,0.02-0.03,0.04-0.04,0.07c-0.01,0.03-0.03,0.04-0.04,0.07c0.01,0,0.01,0.07,0.02,0.08c0,0,0.02,0.07,0.02,0.08
					c0,0.02-0.04,0.06-0.04,0.07c0,0.02,0.01,0.06,0.02,0.08l0.04,0.15c-0.01,0-0.03,0.07-0.04,0.07c-0.01,0-0.03,0.07-0.04,0.07
					c-0.01,0-0.01-0.07-0.02-0.08c-0.01-0.01-0.01-0.08-0.02-0.08c0,0-0.03,0.06-0.04,0.07c0,0,0.02,0.07,0.02,0.08
					c0,0.02-0.03,0.05-0.04,0.07c0,0.02,0.02,0.05,0.02,0.08c0,0.02-0.03,0.05-0.04,0.07l-0.07,0.14c0.01,0.03,0.01,0.05,0.02,0.08
					c0,0.01,0.01,0.08,0.02,0.08c0.01,0,0.03-0.07,0.04-0.07c0.01,0,0.03-0.07,0.04-0.07c0,0,0.02,0.07,0.02,0.08l0.02,0.08
					l-0.04,0.07c-0.01,0.02-0.03,0.05-0.04,0.07c0,0.01,0.02,0.06,0.02,0.08c0,0.02-0.03,0.05-0.04,0.07
					c-0.01,0.03-0.03,0.05-0.04,0.07c-0.01,0.01-0.03,0.05-0.04,0.07c0,0.01,0.02,0.07,0.02,0.08c0,0.02,0.02,0.05,0.02,0.08
					c0,0.01-0.03,0.06-0.04,0.07c0,0.02,0.02,0.06,0.02,0.08c0,0.02-0.04,0.05-0.04,0.07c0,0.02,0.01,0.06,0.02,0.08
					c0.01,0.02,0.02,0.05,0.02,0.08c0,0.02,0.02,0.05,0.02,0.08c0,0.02-0.03,0.05-0.04,0.07c0,0.02,0.02,0.05,0.02,0.08
					c-0.01,0.01-0.02,0.06-0.04,0.07c-0.01,0.01-0.03,0.05-0.04,0.07c-0.01,0.01-0.03,0.07-0.04,0.07c0,0-0.02-0.08-0.02-0.08
					c-0.01,0.02-0.03,0.05-0.04,0.07c-0.01,0.01-0.03,0.06-0.04,0.07c0,0.02,0.02,0.06,0.02,0.08c0-0.01,0.03-0.06,0.04-0.07
					l0.02,0.08l0.02,0.08c0,0.01,0.02,0.06,0.02,0.08c0,0.01-0.03,0.06-0.04,0.07c-0.01,0.02-0.03,0.04-0.04,0.07
					c-0.01,0.02-0.03,0.05-0.04,0.07c0,0.02,0.02,0.06,0.02,0.08c0,0.02-0.03,0.04-0.04,0.07c0,0.01,0.02,0.07,0.02,0.08
					c0.01,0.02,0.02,0.05,0.02,0.08c0,0.02,0.02,0.06,0.02,0.08c0,0.02-0.03,0.04-0.04,0.07c0,0.02-0.03,0.06-0.04,0.07
					c-0.01,0.01-0.03,0.05-0.04,0.07c0,0.01,0.02,0.07,0.02,0.08c0,0.01,0.02,0.06,0.02,0.08c0,0.01-0.03,0.06-0.04,0.07
					c0,0.01-0.04,0.06-0.04,0.07c0,0.02,0.02,0.06,0.02,0.08c0,0.01,0.02,0.06,0.02,0.08c0,0.02-0.04,0.05-0.04,0.07
					c0,0.03,0.02,0.05,0.02,0.08c0,0.02-0.03,0.05-0.04,0.07c0,0.02,0.02,0.06,0.02,0.08c0,0,0.03-0.07,0.04-0.07
					c0,0,0.02,0.07,0.02,0.08l0.02,0.08c-0.01,0-0.03,0.07-0.04,0.07c-0.01,0-0.01-0.08-0.02-0.08c-0.01,0.01-0.03,0.05-0.04,0.07
					l-0.04,0.07c-0.01,0.01-0.03,0.05-0.04,0.07c0,0.01,0.02,0.07,0.02,0.08l0.02,0.08c0,0.02,0.02,0.05,0.02,0.08
					c0,0.01-0.03,0.05-0.04,0.07c0,0.02,0.02,0.05,0.02,0.08c0,0.03-0.03,0.04-0.04,0.07c0,0.02,0.02,0.06,0.02,0.08
					c0,0.02-0.03,0.04-0.04,0.07c0,0-0.02-0.08-0.02-0.08s-0.04,0.07-0.04,0.07c0,0.02,0.02,0.05,0.02,0.08
					c0,0.02-0.03,0.05-0.04,0.07c0,0.02,0.02,0.05,0.02,0.08c0,0.02-0.03,0.04-0.04,0.07c0,0.02,0.02,0.05,0.02,0.08
					c0,0.02-0.04,0.06-0.04,0.07c0,0.02,0.01,0.06,0.02,0.08l0.02,0.08c0,0.02,0.02,0.06,0.02,0.08c0,0.02-0.03,0.05-0.04,0.07
					c0,0.02,0.02,0.06,0.02,0.08c-0.01,0.03-0.03,0.04-0.04,0.07c0,0-0.02-0.08-0.02-0.08s-0.04,0.07-0.04,0.07
					c0,0.02,0.02,0.06,0.02,0.08c0.01,0.02,0.02,0.05,0.02,0.08c0,0.02,0.02,0.06,0.02,0.08c0,0.01-0.03,0.06-0.04,0.07
					c0,0.01-0.03,0.07-0.04,0.07c-0.01,0-0.01-0.07-0.02-0.08c-0.01-0.01-0.01-0.08-0.02-0.08c0,0-0.04,0.06-0.04,0.07
					c0,0.01,0.02,0.07,0.02,0.08c0.01,0.02,0.02,0.05,0.02,0.08c0,0.02,0.02,0.05,0.02,0.08c0,0.02-0.03,0.05-0.04,0.07
					c0,0.02,0.02,0.06,0.02,0.08l0.04-0.07c0,0,0.02,0.07,0.02,0.08c0,0.01-0.03,0.06-0.04,0.07c0,0.02,0.02,0.06,0.02,0.08
					c0,0.01-0.03,0.06-0.04,0.07c0,0-0.02-0.08-0.02-0.08c0,0-0.03,0.06-0.04,0.07c-0.01,0.01-0.04,0.06-0.04,0.07
					c0,0.01,0.02,0.07,0.02,0.08l0.02,0.08c0.01,0.02,0.02,0.05,0.02,0.08c0,0.01-0.03,0.06-0.04,0.07c0,0.01,0.02,0.07,0.02,0.08
					l0.02,0.08l-0.07,0.14l-0.02-0.08c0-0.02-0.02-0.05-0.02-0.08c0-0.01,0.03-0.05,0.04-0.07c0-0.02-0.02-0.05-0.02-0.08
					l-0.07,0.14l0.02,0.08l0.02,0.08c0.01,0.02,0.02,0.05,0.02,0.08c0,0.01-0.04,0.06-0.04,0.07c0,0.02,0.02,0.06,0.02,0.08
					c0,0.03,0.01,0.05,0.02,0.08c0,0.01,0.02,0.06,0.02,0.08c0,0.01-0.03,0.06-0.04,0.07c0,0.01-0.04,0.07-0.04,0.07
					c0,0.03,0.01,0.05,0.02,0.08c0.01,0.02,0.01,0.06,0.02,0.08c0.01,0.01,0.01,0.07,0.02,0.08c0.01,0,0.03-0.07,0.04-0.07
					c0.01,0,0.01,0.07,0.02,0.08c-0.01,0.01-0.02,0.06-0.04,0.07c-0.01,0.01-0.03,0.07-0.04,0.07c-0.01,0-0.01-0.08-0.02-0.08
					c-0.01,0-0.03,0.06-0.04,0.07c-0.01,0.02-0.03,0.05-0.04,0.07l-0.07,0.14l0.02,0.08c0,0.01,0.02,0.06,0.02,0.08
					s-0.03,0.06-0.04,0.07c0,0.01-0.04,0.07-0.04,0.07c0,0.02,0.01,0.06,0.02,0.08c0.01,0.02,0.01,0.06,0.02,0.08
					c0,0.01,0.03-0.07,0.04-0.07c0,0,0.02,0.07,0.02,0.08l0.02,0.08c-0.01,0.02-0.02,0.05-0.04,0.07c-0.01,0.01-0.03,0.07-0.04,0.07
					c0,0-0.02-0.08-0.02-0.08c-0.01,0.01-0.03,0.05-0.04,0.07c0,0.02,0.02,0.06,0.02,0.08c0,0.01-0.04,0.06-0.04,0.07
					c0,0.03,0.01,0.06,0.02,0.08c0,0.02,0.01,0.07,0.02,0.08c0,0.01,0.03-0.07,0.04-0.07c0.01,0,0.01,0.07,0.02,0.08
					c-0.01,0.02-0.02,0.05-0.04,0.07c-0.01,0.02-0.02,0.05-0.04,0.07L162,30.27c-0.01,0.02-0.02,0.05-0.04,0.07
					c-0.01,0.01-0.03,0.07-0.04,0.07c-0.01,0-0.01-0.08-0.02-0.08c-0.01,0-0.03,0.06-0.04,0.07c0,0,0.02,0.07,0.02,0.08
					c0.01,0.01,0.01,0.08,0.02,0.08c0.01,0,0.03-0.07,0.04-0.07c0.01,0,0.01,0.07,0.02,0.08c0.01,0,0.03-0.07,0.04-0.07
					c0.01,0,0.01,0.07,0.02,0.08l-0.07,0.14l-0.04,0.07c-0.01,0.01-0.03,0.06-0.04,0.07c0,0.01,0.02,0.07,0.02,0.08
					c0.01,0.02,0.01,0.06,0.02,0.08c0.01,0.01,0.01,0.07,0.02,0.08c-0.01,0.01-0.03,0.05-0.04,0.07c-0.01,0.02-0.03,0.04-0.04,0.07
					c0,0.01,0.02,0.07,0.02,0.08c0,0.01-0.03,0.06-0.04,0.07c-0.01,0.01-0.03,0.05-0.04,0.07c0,0.01,0.02,0.07,0.02,0.08l0.02,0.08
					c0,0.02,0.02,0.05,0.02,0.08c0,0.01-0.03,0.06-0.04,0.07c-0.01,0.01-0.03,0.06-0.04,0.07c0,0.01,0.02,0.07,0.02,0.08
					c0.01,0.02,0.02,0.05,0.02,0.08c0,0.02,0.02,0.06,0.02,0.08c0,0.02-0.03,0.04-0.04,0.07c0,0.01-0.03,0.06-0.04,0.07
					c-0.01,0.01-0.03,0.05-0.04,0.07c0,0.01,0.02,0.07,0.02,0.08c0,0.01,0.02,0.06,0.02,0.08c0,0.01-0.03,0.06-0.04,0.07
					c0,0-0.02-0.08-0.02-0.08c0,0-0.04,0.06-0.04,0.07c0,0.01,0.02,0.07,0.02,0.08c0.01,0.02,0.02,0.05,0.02,0.08
					c0,0.01-0.03,0.06-0.04,0.07c0,0.01,0.02,0.07,0.02,0.08c0,0.01,0.02,0.06,0.02,0.08c0,0.02-0.03,0.05-0.04,0.07
					c0,0.02,0.02,0.06,0.02,0.08c0,0.02-0.03,0.05-0.04,0.07c-0.01,0.03-0.03,0.04-0.04,0.07c0,0.02,0.02,0.06,0.02,0.08
					c0,0.02-0.03,0.04-0.04,0.07c0,0.01,0.02,0.07,0.02,0.08c0,0.01,0.02,0.06,0.02,0.08c0,0.01-0.03,0.06-0.04,0.07
					c0,0.01-0.04,0.06-0.04,0.07c0,0.02,0.01,0.06,0.02,0.08l0.04,0.15c-0.01,0.01-0.02,0.06-0.04,0.07
					c-0.01,0.01-0.03,0.07-0.04,0.07c-0.01,0-0.01-0.07-0.02-0.08c-0.01-0.01-0.01-0.08-0.02-0.08c-0.01,0-0.03,0.06-0.04,0.07
					c0,0,0.01,0.07,0.02,0.08c0,0.02-0.03,0.05-0.04,0.07c0,0.02,0.02,0.05,0.02,0.08c0,0.03,0.02,0.05,0.02,0.08
					c0,0.02-0.03,0.05-0.04,0.07c0,0.02,0.02,0.05,0.02,0.08c0,0.02-0.03,0.05-0.04,0.07c0,0.02,0.02,0.05,0.02,0.08
					c0,0.02-0.03,0.04-0.04,0.07c0,0.01,0.02,0.07,0.02,0.08c0.01,0.02,0.01,0.06,0.02,0.08c0,0,0.03-0.06,0.04-0.07
					c0.01-0.01,0.03-0.07,0.04-0.07c0.01,0,0.01,0.07,0.02,0.08l-0.04,0.07l-0.04,0.07c-0.01,0.02-0.02,0.05-0.04,0.07
					c-0.01,0.01-0.03,0.06-0.04,0.07c0,0.02,0.02,0.05,0.02,0.08c0,0,0.04-0.07,0.04-0.07c0,0,0.02,0.07,0.02,0.08
					c0,0.01-0.04,0.06-0.04,0.07c0,0.01,0.02,0.07,0.02,0.08c0,0.02,0.02,0.06,0.02,0.08c0,0.02-0.03,0.05-0.04,0.07
					c0,0.02,0.02,0.05,0.02,0.08c0,0.02,0.02,0.05,0.02,0.08c0,0.01-0.04,0.06-0.04,0.07c0,0.03,0.01,0.06,0.02,0.08l0.02,0.06
					c-0.02,0.03,0,0.07,0.02,0.09c0.01,0.02,0.01,0.05,0.02,0.07c0,0,0,0.01-0.01,0.01c-0.01,0-0.02,0-0.03,0.01l0.02,0.02
					c-0.01,0.01-0.02,0.03-0.02,0.03c0,0,0,0.01,0,0.01l-0.05,0.04c0.01,0.01,0.04,0.02,0.06,0.02c0,0,0,0,0,0
					c0,0.02,0.01,0.04,0.02,0.06c-0.01,0-0.02,0-0.04,0l-0.02,0.06c0.02,0.02,0.05,0.04,0.08,0.07c0,0.01,0.01,0.03,0.01,0.04
					c0,0,0-0.01,0.01-0.02c0,0,0.01,0.01,0.01,0.01l-0.01,0.04l-0.07-0.01c-0.09,0.03-0.07,0.07-0.05,0.11c0,0,0,0.01,0,0.01
					c-0.01,0.01-0.03,0.06-0.02,0.08c0,0,0,0,0,0c-0.01,0-0.02,0.01-0.04,0.01c0.02,0.02,0.04,0.03,0.06,0.03
					c0.01,0.02,0.02,0.04,0.02,0.04c0,0,0-0.02,0.01-0.03c0.01,0,0.02,0,0.03,0c0.01,0.01,0.02,0.03,0.02,0.03c0-0.01,0-0.02,0-0.03
					c0.01,0,0.03,0,0.04,0c0.01,0.03,0.01,0.06,0.02,0.09l-0.04-0.01c-0.01-0.02-0.02-0.04-0.03-0.04c0,0.01,0,0.03,0,0.04
					l-0.05-0.01c0.01,0.05-0.07,0.11,0.06,0.15c0,0,0,0,0.01,0.01l-0.11,0.12c0.05,0.01,0.07,0.04,0.07,0.09
					c0.05-0.01,0.01-0.07-0.01-0.06l0.05-0.05l0.07,0.04c0.01,0.02,0.01,0.04,0.02,0.06l-0.03,0.08l-0.13,0.04
					c0.15,0.04,0.05,0.11,0.04,0.19l0.1,0.03l-0.07,0.04l0.05,0.04c-0.02-0.03,0.06-0.01,0.07,0l-0.11,0.02l0.05,0.09l0.04-0.01
					l0.03,0.05c-0.03,0.02-0.07,0.06,0,0.09l0.12-0.02c-0.03,0.06-0.07,0.11-0.15,0.13c0.04,0.1,0.12-0.01,0.18,0.04
					c0,0.04-0.09,0.05-0.06,0.1l0.13-0.04l-0.06-0.07l0.14,0.02l-0.06,0.1l-0.11,0.02c0,0.03,0,0.09,0.06,0.11l0.03,0.11
					c0.03,0.05,0.13,0.02,0.14,0l0.07,0.02l-0.08,0.04c0.04,0.07,0.08,0.12,0.16,0.15c0.12,0.04,0.02,0.11,0.1,0.14l0.12-0.04
					c0.08,0.03,0.1,0.07,0.1,0.13c0.08,0,0.17,0.04,0.23,0.07c0.01-0.1-0.14-0.24-0.07-0.29c0.05,0.01,0.14,0.03,0.15-0.03
					l0.04,0.01c0.06,0.03,0.06,0.09,0.01,0.11l0.09,0.04c0.01,0.04-0.02,0.08-0.1,0.06l0.1,0.02l-0.02,0.06l-0.14-0.02l0.06,0.08
					l0.1-0.04l0.02,0.07l0.08,0l-0.04-0.14l0.13,0.02c0.16-0.1,0.16,0.07,0.29,0.1c-0.01-0.07,0.02-0.13,0.02-0.19
					c0.06,0.03,0.12,0.1,0.15,0.16c0.04-0.01,0.08-0.02,0.12-0.03c0.03-0.04,0.15,0.01,0.15-0.06l-0.06-0.06
					c-0.12,0.04-0.25,0.08-0.22-0.05c0.06-0.02,0.05,0.05,0.11,0.04c0.03-0.06-0.09-0.05-0.07-0.09l0.07,0
					c0.05,0.05,0.12,0.03,0.18,0l0,0.02l0.06,0.05l0,0.03l0.08,0.02l0-0.05l-0.1-0.02c-0.06-0.05,0.06-0.08,0.1-0.09l0.06,0.07
					l0.04-0.03l-0.09-0.05c0.1-0.06,0.27-0.03,0.35-0.11c-0.09-0.05,0.03-0.08,0.11-0.1c0-0.09,0.2-0.15,0.16-0.24l-0.11-0.01
					c0.01-0.1,0.24-0.08,0.31-0.12c-0.22-0.1-0.19,0.05-0.34,0.07l-0.05-0.11l0.03,0c0.06,0.03,0.1-0.02,0.13-0.05
					c0.07,0.06,0.18,0.04,0.23,0.01l-0.05-0.05l0.01-0.01c-0.07-0.06-0.19,0.05-0.33-0.02c0.1-0.01,0.12-0.06,0.19-0.09
					c0.09,0.12,0.19-0.01,0.26-0.05c-0.02-0.12,0.2-0.19,0.04-0.33l0.08-0.17c0.02-0.08-0.1-0.05-0.15-0.09c0,0,0-0.01,0.01-0.01
					c0,0,0-0.01,0-0.02c0.04,0,0.04-0.02,0.11-0.03c0.01-0.03,0-0.08-0.06-0.07c-0.02,0.02-0.06,0-0.09-0.01
					c0.01-0.01,0.02-0.03,0.02-0.03c0,0,0.01-0.01,0.01-0.01c0.07-0.03,0.15-0.05,0.21-0.06c-0.06-0.04-0.12-0.07-0.17-0.11
					c0.01-0.01,0.01-0.02,0.02-0.03c0-0.01,0-0.03-0.01-0.05c0.05-0.01,0.09-0.03,0.08-0.09c-0.01-0.01-0.02-0.01-0.04-0.01
					c0.01-0.02,0.03-0.05,0.04-0.07c0.01-0.01,0.04-0.06,0.04-0.07c0-0.01-0.01-0.06-0.01-0.08c0-0.01-0.02-0.06-0.01-0.08
					c0-0.01,0.04-0.06,0.04-0.07c0-0.03-0.01-0.05-0.01-0.08l-0.03-0.15c0.01,0,0.04-0.07,0.04-0.07c0.01,0.01,0.01,0.06,0.01,0.08
					c0,0.01,0.01,0.08,0.01,0.08s0.04-0.06,0.04-0.07l0.04-0.07l-0.01-0.08l-0.01-0.08c0-0.02-0.01-0.05-0.01-0.08
					c0-0.01,0.04-0.06,0.04-0.07c0.01-0.02-0.02-0.06-0.01-0.08c0-0.02,0.04-0.05,0.04-0.07c0-0.02-0.01-0.06-0.01-0.08
					c0-0.01-0.02-0.06-0.01-0.08c0-0.02,0.04-0.04,0.04-0.07c0-0.02,0.04-0.06,0.04-0.07c0.01-0.01,0.04-0.05,0.04-0.07
					c0-0.01-0.01-0.07-0.01-0.08c0-0.01-0.02-0.06-0.01-0.08c0-0.01,0.04-0.06,0.04-0.07c0,0,0.01,0.08,0.01,0.08
					c0,0,0.04-0.06,0.04-0.07c0-0.01-0.01-0.07-0.01-0.08l-0.03-0.15c0.01,0,0.03-0.07,0.04-0.07c0.01,0,0,0.07,0.01,0.08
					c0.01,0,0.03-0.07,0.04-0.07c0,0,0.01,0.08,0.01,0.08c0.01-0.01,0.04-0.06,0.04-0.07c0.01-0.02-0.02-0.06-0.01-0.08
					c0-0.02,0.04-0.04,0.04-0.07l-0.01-0.08c0-0.02-0.01-0.06-0.01-0.08c0,0,0.04-0.06,0.04-0.07c0.01-0.01,0.04-0.05,0.04-0.07
					c0-0.01-0.01-0.07-0.01-0.08l-0.01-0.08l-0.01-0.08l-0.03-0.15c0.01-0.01,0.03-0.06,0.04-0.07c0.01-0.01,0.03-0.07,0.04-0.07
					c0.01,0,0.01,0.07,0.01,0.08c0.01,0.01,0,0.07,0.01,0.08c0,0,0.04-0.06,0.04-0.07c0-0.01-0.02-0.06-0.01-0.08
					c0-0.02,0.04-0.05,0.04-0.07c0-0.02-0.01-0.06-0.01-0.08c0-0.01-0.02-0.06-0.01-0.08c0-0.02,0.04-0.05,0.04-0.07
					c0-0.03-0.02-0.05-0.01-0.08c0-0.02,0.04-0.05,0.04-0.07c0-0.02-0.02-0.05-0.01-0.08c0-0.02,0.04-0.05,0.04-0.07
					c0-0.01-0.01-0.07-0.01-0.08c0-0.01-0.02-0.06-0.01-0.08c0-0.01,0.04-0.06,0.04-0.07c0-0.01,0.04-0.06,0.04-0.07
					c0-0.02-0.01-0.06-0.01-0.08l-0.01-0.08l-0.01-0.08l-0.03-0.15c0.01-0.02,0.03-0.05,0.04-0.07c0,0,0.01,0.07,0.01,0.08
					c0,0.01,0.01,0.08,0.01,0.08c0,0,0.04-0.06,0.04-0.07c0.01-0.02,0.03-0.05,0.04-0.07c0,0-0.01-0.07-0.01-0.08
					c0-0.02-0.01-0.05-0.01-0.08c0-0.01,0.04-0.05,0.04-0.07c0.01-0.02-0.02-0.06-0.01-0.08c0-0.02,0.04-0.05,0.04-0.07
					c0.01-0.02,0.03-0.05,0.04-0.07c0.01-0.02,0.03-0.05,0.04-0.07c0-0.01-0.02-0.06-0.01-0.08c0-0.02,0.04-0.04,0.04-0.07
					c0-0.01-0.01-0.07-0.01-0.08l-0.01-0.08c0-0.01-0.02-0.06-0.01-0.08c0-0.01,0.04-0.06,0.04-0.07c0.01-0.02,0.03-0.05,0.04-0.07
					c0-0.01-0.02-0.06-0.01-0.08c0-0.02,0.04-0.05,0.04-0.07c0-0.02-0.01-0.06-0.01-0.08c0-0.02-0.01-0.05-0.01-0.08
					c0,0,0.01-0.01,0.01-0.02c-0.04-0.09-0.06-0.18,0.03-0.25c0-0.01,0.01-0.01,0.01-0.02c0.01-0.02-0.02-0.06-0.01-0.08
					c0-0.02,0.04-0.05,0.04-0.07c0-0.02-0.01-0.06-0.01-0.08c0-0.01-0.02-0.06-0.01-0.08c0-0.02,0.04-0.04,0.04-0.07
					c0,0.01,0.01,0.08,0.01,0.08c0,0,0.04-0.06,0.04-0.07c0-0.01,0-0.02-0.01-0.03l-0.23,0.01c0.07-0.05,0.16-0.09,0.26-0.13
					c0-0.02-0.02-0.04-0.01-0.07c0-0.02,0.04-0.05,0.04-0.07c0-0.02-0.02-0.05-0.01-0.08c0-0.02,0.03-0.04,0.04-0.07
					c-0.02-0.02-0.03-0.05-0.03-0.1l0.01-0.01c0-0.02-0.01-0.04-0.01-0.05c0-0.02,0.04-0.05,0.04-0.07c0-0.01,0-0.02-0.01-0.04
					l-0.34-0.14c0.12-0.09,0.34-0.14,0.43-0.22c0-0.01,0-0.03-0.01-0.04l-0.03-0.15c0.01-0.01,0.01-0.02,0.02-0.03
					c-0.08-0.12-0.2-0.27-0.1-0.34l-0.14-0.01c0.09-0.11,0.25-0.11,0.41-0.1l0-0.01c0-0.01-0.02-0.06-0.01-0.08
					c0-0.01,0.04-0.06,0.04-0.07c0.01-0.02,0.03-0.05,0.04-0.07c0-0.01-0.02-0.06-0.01-0.08c0-0.01,0.01-0.02,0.02-0.03l-0.02-0.01
					l0.05-0.04c0.01-0.02,0.03-0.04,0.04-0.06c0-0.02-0.02-0.05-0.01-0.08c0-0.02,0.04-0.04,0.04-0.07c0-0.02,0-0.03-0.01-0.05
					l-0.02,0c-0.01,0.02-0.02,0.04-0.02,0.04c0,0-0.01-0.02-0.01-0.03l-0.19,0.03c-0.19-0.19,0.29-0.41-0.14-0.54
					c0.19-0.24,0.4-0.55,0.25-0.84l0.32-0.26l-0.32-0.17c0.56-0.07,0.08-0.29,0.19-0.43l0.36-0.02c0.11-0.14-0.57-0.48-0.06-0.46
					c0.33-0.32-0.41-0.78,0.3-1l-0.28-0.36c0.14-0.07,0.29-0.14,0.45-0.2c0-0.02,0-0.04-0.01-0.05c-0.01-0.02-0.01-0.05-0.01-0.08
					l-0.01-0.05c-0.04-0.01-0.09-0.02-0.13-0.03c0.15-0.14-0.11-0.39,0-0.53c0.11-0.11,0.24-0.09,0.38-0.07
					c0.01-0.01,0.01-0.02,0.02-0.02c0.01-0.01,0.04-0.05,0.04-0.07c0-0.01-0.01-0.07-0.01-0.08l0-0.02
					c-0.16-0.03-0.3-0.05-0.28-0.16c0.1-0.02,0.2-0.05,0.29-0.09c0-0.01,0-0.02,0-0.02c0-0.01-0.02-0.06-0.01-0.08
					c0-0.02,0.04-0.05,0.04-0.07c0-0.02-0.02-0.06-0.01-0.08c0.01-0.02,0.03-0.05,0.04-0.07c0.01-0.01,0.04-0.05,0.04-0.07
					c0.01-0.02-0.02-0.06-0.01-0.08c0-0.02,0.04-0.04,0.04-0.07c0.01-0.02,0.04-0.04,0.04-0.07c0-0.02-0.02-0.05-0.01-0.08
					c0,0.01-0.04,0.07-0.04,0.07c0,0-0.01-0.07-0.01-0.08c0-0.02-0.01-0.05-0.01-0.08c0-0.01,0.04-0.05,0.04-0.07
					c0-0.02-0.02-0.06-0.01-0.08c0.01-0.02,0.03-0.05,0.04-0.07c0.01-0.02,0.03-0.05,0.04-0.07l0.04-0.07l0.04-0.07
					c0.01-0.02,0.03-0.04,0.04-0.07c0,0-0.01-0.07-0.01-0.08c0-0.01-0.02-0.06-0.01-0.08c0-0.01,0.04-0.06,0.04-0.07
					c0,0,0.01,0.08,0.01,0.08c0.01,0,0.03-0.06,0.04-0.07c0.01-0.02,0.04-0.04,0.04-0.07c0-0.01-0.01-0.07-0.01-0.08
					c0-0.01-0.04,0.07-0.04,0.07c0,0-0.01-0.07-0.01-0.08c0-0.02-0.01-0.07-0.01-0.08c0-0.01-0.04,0.07-0.04,0.07
					c-0.01,0-0.01-0.07-0.01-0.08c-0.01-0.02-0.01-0.05-0.01-0.08l-0.01-0.08c0.01,0,0.04-0.07,0.04-0.07
					c0.01,0.01,0.01,0.06,0.01,0.08c0,0.02,0.01,0.07,0.01,0.08c0,0,0.04-0.07,0.04-0.07c0.01,0,0.01,0.08,0.01,0.08
					c0.01,0,0.03-0.06,0.04-0.07l-0.01-0.08l-0.01-0.08c0-0.02-0.01-0.05-0.01-0.08c0-0.01,0.04-0.05,0.04-0.07
					c0.01-0.02-0.02-0.06-0.01-0.08c0-0.01,0.04-0.06,0.04-0.07c0,0,0.01,0.08,0.01,0.08c0,0,0.04-0.06,0.04-0.07
					c0-0.02-0.01-0.06-0.01-0.08l-0.01-0.08l-0.03-0.15c0.01-0.01,0.03-0.06,0.04-0.07c0.01-0.01,0.03-0.07,0.04-0.07
					c0.01,0,0.01,0.08,0.01,0.08c0.01-0.01,0.03-0.05,0.04-0.07c0.01-0.01,0.04-0.05,0.04-0.07c0-0.01-0.01-0.07-0.01-0.08
					l-0.01-0.08c0-0.02-0.01-0.05-0.01-0.08c0-0.01,0.04-0.05,0.04-0.07c0.01-0.02-0.02-0.06-0.01-0.08c0-0.02,0.04-0.04,0.04-0.07
					c0.01-0.02-0.02-0.05-0.01-0.08c0-0.02,0.04-0.04,0.04-0.07s-0.02-0.05-0.01-0.08c0-0.02,0.04-0.05,0.04-0.07
					c0-0.02-0.01-0.06-0.01-0.08l-0.01-0.08c0-0.02-0.01-0.05-0.01-0.08c0-0.01,0.04-0.05,0.04-0.07c0.01-0.02-0.02-0.06-0.01-0.08
					c0-0.02,0.04-0.04,0.04-0.07l0.01,0.08c0,0.02,0.01,0.06,0.01,0.08c0,0.01,0.01,0.08,0.01,0.08c0,0,0.04-0.06,0.04-0.07
					c0.01-0.02-0.02-0.06-0.01-0.08c0.01-0.03,0.04-0.04,0.04-0.07c0-0.01-0.01-0.07-0.01-0.08c0-0.01-0.02-0.06-0.01-0.08
					c0-0.02,0.04-0.05,0.04-0.07c0.01-0.02-0.02-0.06-0.01-0.08c0-0.02,0.04-0.04,0.04-0.07c0.01-0.02-0.02-0.06-0.01-0.08
					c0-0.02,0.04-0.04,0.04-0.07c0.01-0.02,0.04-0.04,0.04-0.07c0-0.02-0.01-0.06-0.01-0.08l-0.04,0.07c0,0-0.01-0.07-0.01-0.08
					c0-0.01-0.02-0.07-0.01-0.08c0-0.02,0.04-0.06,0.04-0.07c0.01-0.02,0.03-0.06,0.04-0.07c0.01,0,0.01,0.08,0.01,0.08
					c0,0,0.04-0.06,0.04-0.07c0-0.02-0.01-0.06-0.01-0.08l-0.01-0.08l-0.01-0.08l-0.01-0.08c0-0.02-0.01-0.05-0.01-0.08
					c0-0.01,0.04-0.06,0.04-0.07c0-0.02-0.02-0.05-0.01-0.08c0-0.02-0.02-0.05-0.01-0.08c0-0.02,0.04-0.04,0.04-0.07
					c0,0,0.04-0.07,0.04-0.07c0.01,0,0.01,0.08,0.01,0.08c0,0,0.04-0.06,0.04-0.07c0,0-0.02-0.08-0.02-0.09
					c0-0.02,0.03-0.07,0.03-0.08c0-0.02,0.03-0.06,0.03-0.08c0-0.01-0.03-0.08-0.04-0.09c-0.01-0.01-0.03-0.07-0.04-0.08
					c0-0.02,0.01-0.07,0-0.09c-0.01-0.03-0.04-0.06-0.05-0.08c-0.01-0.01-0.05-0.06-0.06-0.08c-0.01-0.02,0-0.07-0.01-0.09
					c-0.01-0.03-0.02-0.06-0.02-0.09c0-0.01-0.02-0.08-0.03-0.09c-0.02-0.02-0.07-0.06-0.08-0.08c-0.02-0.02-0.07-0.07-0.09-0.07
					c0-0.01-0.03-0.06-0.05-0.08c-0.01-0.02-0.03-0.06-0.05-0.09c-0.02-0.02-0.08-0.05-0.1-0.07c-0.02-0.02-0.04-0.06-0.06-0.08
					c-0.03-0.02-0.08-0.04-0.11-0.06c-0.02-0.02-0.05-0.06-0.08-0.08c-0.01-0.01-0.1-0.05-0.12-0.05c0,0-0.01-0.01-0.02-0.01
					c-0.01-0.01-0.03-0.01-0.04-0.02c-0.02-0.01-0.04-0.02-0.06-0.02c-0.02-0.01-0.03-0.02-0.05-0.04l0,0
					c-0.05-0.09-0.09-0.16-0.18-0.21c-0.16-0.06-0.01-0.15-0.1-0.19l-0.17,0.05c-0.1-0.05-0.13-0.1-0.11-0.18
					c-0.11-0.01-0.22-0.07-0.29-0.11c-0.02,0.09,0.08,0.22,0.08,0.31c-0.03,0-0.07-0.01-0.1-0.01c-0.01,0-0.04-0.01-0.06-0.02
					c0.03-0.01,0.05-0.02,0.04-0.04c-0.03,0-0.07,0-0.1,0.02c0,0,0,0,0,0c-0.01,0-0.03,0-0.05-0.01l-0.12-0.06
					c-0.01-0.05,0.03-0.1,0.14-0.07l-0.12-0.03l0.03-0.08l0.18,0.04l-0.06-0.11l-0.14,0.04l-0.02-0.1L166.66,14.41z M162.39,37.31
					c-0.01,0-0.02,0-0.02-0.01c0.02-0.01,0.04-0.02,0.05-0.02c0.01,0,0.03,0.01,0.05,0.01c0,0.01,0.01,0.01,0.01,0.02l-0.05,0.02
					C162.41,37.32,162.4,37.31,162.39,37.31z M162.33,37.36c0,0,0.01,0.01,0.01,0.01C162.34,37.37,162.33,37.37,162.33,37.36
					L162.33,37.36z M164.02,37.61L164,37.66l0.03,0.04l-0.12-0.07C163.97,37.64,163.96,37.54,164.02,37.61z M162.26,37.51
					c-0.02-0.05,0.05-0.08,0.08-0.1l0,0c0.03,0.01,0.08,0.02,0.1,0.03c-0.03,0.03-0.14,0.04-0.16,0.09
					c0.06-0.01,0.16-0.02,0.16,0.03C162.41,37.6,162.29,37.54,162.26,37.51z M163.1,37.62l-0.06,0.03l-0.06-0.08
					C163.04,37.54,163.09,37.6,163.1,37.62z M163.52,37.93c0-0.01,0-0.02,0-0.03l0-0.01l0.07-0.02c-0.01,0.03-0.02,0.05-0.04,0.07
					C163.53,37.93,163.52,37.93,163.52,37.93z M162.54,37.86c-0.07-0.04-0.15-0.02-0.21,0l-0.05-0.08c0.13,0.02,0.22-0.04,0.33,0.02
					l-0.06,0.08l0.07,0.11l-0.07,0L162.54,37.86z M162.97,37.95c0,0,0.07,0.06,0.07,0.06c0.01,0.01,0.03,0.06,0.03,0.07
					c0,0.01,0.02,0.07,0.02,0.07c0,0-0.01-0.01-0.02-0.03c-0.01-0.02-0.02-0.03-0.03-0.04c-0.02-0.02-0.04-0.04-0.06-0.06
					c-0.01-0.02-0.02-0.05-0.04-0.07c0,0.01,0.06,0.05,0.07,0.06C163.02,38.01,162.97,37.95,162.97,37.95z M162.34,38.1L162.34,38.1
					c-0.02-0.01-0.03-0.03-0.05-0.04c0.01-0.01,0.02-0.02,0.03-0.04c0.01,0,0.02,0,0.03,0l0.02-0.01c-0.04-0.02-0.01-0.04,0.01-0.05
					l0.01,0C162.48,38.04,162.4,38.06,162.34,38.1z M162.59,38.13l0.07-0.08l0.05,0.02l0.04-0.03l0,0.06l0.03,0
					C162.73,38.15,162.65,38.14,162.59,38.13z M163.87,38.13l-0.03,0.04l-0.14-0.03C163.71,38.08,163.81,38.1,163.87,38.13z
					 M163.49,38.23l-0.23-0.03c0.12-0.04-0.12-0.18,0.06-0.21C163.42,38.04,163.47,38.15,163.49,38.23z M164.39,37.62
					c-0.02,0.07-0.18,0.04-0.16,0.13c0.14,0.04,0.16,0.03,0.23-0.03l-0.01,0.09l-0.12,0.03c0.15,0.08-0.03,0.1-0.08,0.15l-0.1,0
					l-0.03,0.05l0.1,0.02l0.02,0.03c-0.08-0.02-0.19-0.08-0.15-0.12l-0.07-0.02l-0.03,0.07l0.06,0.01l-0.08,0.04l0-0.07
					c-0.08-0.03-0.17-0.02-0.21-0.09c0.03-0.06-0.13-0.11-0.05-0.15c-0.03-0.13,0.14,0.03,0.2-0.03l-0.02,0.05
					c-0.19,0.31,0.21,0.13,0.14,0.08l0.07,0.02c-0.04,0.03-0.01,0.1,0.06,0.09l0.08-0.07c-0.07-0.02-0.07-0.08-0.08-0.12
					c0.08-0.04,0.01-0.13,0.07-0.19l-0.02-0.01l0.06-0.06C164.21,37.57,164.3,37.6,164.39,37.62z M164.49,37.44
					c0.03,0.04-0.05,0.08-0.1,0.09l-0.07-0.02C164.34,37.46,164.41,37.4,164.49,37.44z M164.49,37.33c-0.04,0.01-0.07,0.01-0.1,0
					c0.02-0.01,0.04-0.02,0.06-0.02c0.01,0,0.02,0,0.03,0L164.49,37.33z M164.7,37.09l0.07,0.06c0.03,0.06-0.11,0.06-0.1,0.12
					l0.11,0.02c-0.03,0.04-0.09,0.06-0.14,0.02l-0.05-0.11l-0.05,0.01c0.01-0.02,0.02-0.03,0.02-0.04c0,0,0.01-0.01,0.01-0.01
					l0.13-0.02l-0.05-0.03C164.67,37.1,164.69,37.09,164.7,37.09C164.7,37.09,164.7,37.09,164.7,37.09z M166.33,28.08l-0.05-0.03
					l0.08-0.03C166.41,28.05,166.35,28.08,166.33,28.08z M165.85,27.83l-0.07-0.03l0.1-0.04C165.96,27.78,165.87,27.82,165.85,27.83
					z M165.86,27.53l-0.02-0.07l0.21-0.01C166.01,27.48,166.02,27.52,165.86,27.53z M166.36,26.56c-0.08-0.06,0.16-0.07,0.06-0.15
					l0.04,0C166.51,26.47,166.5,26.59,166.36,26.56z M166.24,15.6c0.03,0.01,0.04,0.02,0.05,0.05l-0.06,0L166.24,15.6z
					 M167.32,15.78c0,0.01-0.01,0.02-0.02,0.02l0.01,0.03c-0.01-0.02-0.03,0.02-0.04-0.01l0.03-0.01l-0.01-0.01
					C167.27,15.79,167.31,15.8,167.32,15.78c-0.02,0-0.05,0-0.04-0.01C167.29,15.76,167.32,15.78,167.32,15.78z M166.52,15.58
					l-0.09,0l0-0.05C166.48,15.53,166.54,15.55,166.52,15.58z M167.09,15.26c0.03,0.02,0.07,0.01,0.09,0l0.02,0.03
					c-0.06-0.01-0.1,0.01-0.15-0.02l0.03-0.03l-0.03-0.05l0.03,0L167.09,15.26z M165.36,14.78l0.06,0.14
					C165.23,14.89,165.19,14.84,165.36,14.78z M166.26,14.91c-0.06,0.02,0.05,0.09-0.05,0.11c-0.05-0.03-0.06-0.09-0.07-0.13
					L166.26,14.91z M165.4,14.74C165.4,14.74,165.39,14.74,165.4,14.74c0,0,0.01-0.01,0.02-0.01
					C165.41,14.73,165.41,14.74,165.4,14.74z M166.1,14.56c-0.04,0.02-0.08,0.01-0.14,0.01l-0.01-0.02
					C166.01,14.53,166.06,14.52,166.1,14.56z"/>
			</g>
		</g>
	</g>
	<g>
		<g>
			<g>
				<path class="st0" d="M165.45,18.18c0,0-0.07,0.04-0.07,0.04c0.01,0,0.07,0.02,0.08,0.02c0.01,0,0.06-0.03,0.07-0.04
					c0.01-0.01,0.07-0.03,0.07-0.04c0-0.01-0.07-0.01-0.08-0.02c-0.02,0-0.05-0.02-0.08-0.02c-0.01,0-0.06,0.03-0.07,0.04
					C165.37,18.16,165.45,18.17,165.45,18.18z"/>
				<path class="st0" d="M168.93,13.8c-0.06-0.04-0.07,0.07-0.06,0.14l0.09,0.01L168.93,13.8z"/>
				<path class="st0" d="M169.12,14.22c-0.06,0.01-0.06,0.02-0.07,0.07l0.09,0.03L169.12,14.22z"/>
				<path class="st0" d="M169.02,16.04l0.05,0.06l0.02-0.11C169.07,15.94,169.03,16.01,169.02,16.04z"/>
				<path class="st0" d="M168.32,13.16c-0.06,0.05-0.06,0.03-0.08,0.15l0.05,0.02L168.32,13.16z"/>
				<path class="st0" d="M169.23,14.88c-0.08,0-0.01,0.14,0,0.18C169.24,15,169.27,14.95,169.23,14.88z"/>
				<path class="st0" d="M168.95,14.54l0.14,0.08c0.03,0.06,0.06,0.12,0.06,0.06l-0.03-0.06C169.1,14.51,169.01,14.54,168.95,14.54z
					"/>
				<path class="st0" d="M158.68,19.06c0,0,0.01,0,0.02-0.01c-0.05-0.09-0.13-0.07-0.22,0.02c0.02,0,0.05,0.01,0.05,0.01
					c0,0.01-0.04,0.02-0.06,0.03c0,0,0,0.01,0,0.01c0.02,0,0.06,0.01,0.06,0.01c0.03-0.01,0.04-0.03,0.07-0.04
					c0.02,0,0.06,0.02,0.08,0.02c0.01,0,0.02-0.01,0.03-0.02c0-0.01-0.01-0.02-0.01-0.03C158.69,19.07,158.68,19.06,158.68,19.06z"
					/>
				<path class="st0" d="M153.8,19.73c-0.01,0-0.07-0.02-0.08-0.02c-0.01,0-0.07,0.03-0.07,0.04c0,0,0.07,0.02,0.08,0.02
					c0.02,0,0.06,0.02,0.08,0.02c0.01,0,0.06-0.03,0.07-0.04s0.07-0.03,0.07-0.04c0-0.01-0.07-0.01-0.08-0.02
					C153.85,19.7,153.83,19.73,153.8,19.73z"/>
				<path class="st0" d="M162.3,13.52c0.02-0.01,0.04-0.03,0.07-0.04c0.01-0.01,0.07-0.04,0.07-0.04c0,0-0.07-0.01-0.08-0.01
					c0,0-0.06,0.04-0.07,0.04c-0.02,0.01-0.06-0.02-0.08-0.01c-0.02,0.01-0.04,0.04-0.07,0.04c0.03,0,0.05,0.01,0.08,0.01
					C162.23,13.51,162.3,13.51,162.3,13.52z"/>
				<path class="st0" d="M156.59,19.25c0,0,0.07,0.02,0.08,0.02c0.02,0,0.04-0.03,0.07-0.04c0,0-0.08-0.02-0.08-0.02
					S156.59,19.24,156.59,19.25z"/>
				<path class="st0" d="M163.07,13.26c-0.02,0.01-0.04,0.04-0.07,0.04c0,0,0.08,0.01,0.08,0.01c0,0,0.07-0.04,0.07-0.04
					S163.07,13.26,163.07,13.26z"/>
				<path class="st0" d="M145.14,19.91c0.01,0.01,0.02,0.02,0.03,0.04c0.01,0,0.01,0,0.02,0c-0.01-0.02-0.03-0.04-0.03-0.08
					L145.14,19.91z"/>
				<path class="st0" d="M145.58,20.26L145.58,20.26c-0.02,0.01-0.03,0.02-0.04,0.02c0,0.01,0,0.02,0,0.03
					c0.03,0.01,0.05,0.02,0.08,0.01L145.58,20.26z"/>
				<path class="st0" d="M144.89,19.22l0.03,0.1c0.1-0.04,0.08-0.09,0.1-0.16L144.89,19.22z"/>
				<polygon class="st0" points="145.12,18.41 145.1,18.41 145.08,18.47 145.13,18.47 				"/>
				<path class="st0" d="M145.29,20.08l0.04,0.03c0.01-0.01,0.04-0.06,0.01-0.09L145.29,20.08z"/>
				<polygon class="st0" points="145.08,18.55 145.01,18.54 145.05,18.6 				"/>
				<path class="st0" d="M145.05,18.67l-0.03,0c0.08,0.1-0.07,0.16-0.01,0.24C145.1,18.93,145.08,18.75,145.05,18.67z"/>
				<path class="st0" d="M145.2,19.47l-0.03,0.07c0.01-0.01,0.04-0.04,0.04-0.07H145.2z"/>
				<path class="st0" d="M145.05,19.1c-0.03-0.06-0.04-0.04-0.07-0.05l0.05,0.08L145.05,19.1z"/>
				<path class="st0" d="M144.92,19.75l0.05,0.04c0.01-0.02,0.06-0.09,0.01-0.13L144.92,19.75z"/>
				<path class="st0" d="M145.63,20.49c0.03,0.01,0.06-0.01,0.09-0.04c-0.04,0.01-0.07,0.02-0.1,0.03
					C145.63,20.48,145.63,20.48,145.63,20.49z"/>
				<polygon class="st0" points="144.83,18.44 144.82,18.44 144.83,18.44 				"/>
				<path class="st0" d="M145.17,19.65c-0.03-0.04-0.05-0.09-0.04-0.04l0.03,0.04c0.01,0.08,0.08,0.05,0.12,0.05L145.17,19.65z"/>
				<path class="st0" d="M145.81,20.42c0,0.02,0.03,0.11,0.06,0.1C145.87,20.48,145.83,20.42,145.81,20.42z"/>
				<path class="st0" d="M145.36,19.08c0-0.02-0.04-0.1-0.07-0.08C145.3,19.04,145.34,19.09,145.36,19.08z"/>
				<path class="st0" d="M146.26,20.19l-0.08,0.09C146.27,20.37,146.29,20.33,146.26,20.19z"/>
				<path class="st0" d="M155.63,19.43c0.1-0.04,0.08-0.09,0.1-0.16l-0.13,0.05L155.63,19.43z"/>
				<path class="st0" d="M154.97,19.4c0.08,0.1-0.07,0.16-0.01,0.24c0.09,0.02,0.07-0.16,0.04-0.24L154.97,19.4z"/>
				<path class="st0" d="M155.48,19.6c0,0.02,0.03,0.11,0.06,0.1C155.53,19.65,155.5,19.59,155.48,19.6z"/>
				<path class="st0" d="M157.06,19.11c0.02,0.03,0.07,0.04,0.08,0.02C157.14,19.11,157.08,19.06,157.06,19.11z"/>
				<path class="st0" d="M169.13,14.77l-0.16,0.08l-0.02-0.17c-0.21-0.19,0.08-0.23,0.01-0.46c-0.05-0.07-0.11-0.18-0.17-0.3
					c-0.07-0.02-0.04-0.19-0.13-0.18l-0.06,0.09c0.01,0.01,0.01,0.01,0.01,0.02l0.02-0.02l-0.01,0.04c0.09,0.13,0.16,0.26-0.01,0.25
					c-0.05-0.07,0.04-0.07,0.01-0.15c-0.01,0-0.02,0-0.02,0L168.58,14c0-0.01,0-0.01,0-0.02c-0.01,0.01-0.02,0.03-0.02,0.05
					c0,0,0,0,0,0c-0.01-0.02-0.03-0.04-0.04-0.06c0-0.01,0-0.03,0-0.04c-0.01-0.01-0.02-0.02-0.01-0.05
					c-0.01-0.04-0.04-0.08-0.07-0.11l0.03,0l0,0c0,0.01,0.01,0.01,0.01,0.02c0.02,0.03,0.04,0.06,0.06,0.08l0.01,0
					c-0.02-0.05-0.03-0.1-0.05-0.16l0.02-0.04l0.03-0.01l0-0.11l-0.06,0.02l0.01,0.13c0,0,0,0-0.01,0.01
					c-0.01-0.03-0.02-0.05-0.03-0.08c-0.02-0.03-0.05-0.06-0.07-0.09l0.03-0.04l-0.05-0.04l-0.01,0.05
					c-0.02-0.02-0.03-0.04-0.05-0.06c-0.02-0.02-0.04-0.04-0.06-0.06c0.01,0.01,0.01,0.02,0.02,0.03l0.01,0.09
					c-0.07,0-0.17-0.07-0.15-0.19c0.02-0.02,0.04-0.01,0.07,0c-0.03-0.06-0.07-0.12-0.12-0.15c0,0.02-0.01,0.03-0.02,0.04
					c-0.02-0.03-0.04-0.07-0.05-0.08c-0.01-0.02-0.03-0.04-0.04-0.07c0,0.05-0.02,0.1-0.05,0.08l0,0.05l0.05,0.01l-0.01-0.04
					l0.04,0.04l-0.04,0.01c-0.01,0.05,0.02,0.11-0.02,0.15c-0.04-0.01-0.04,0.09-0.09,0.05c-0.07,0.04-0.01-0.09-0.06-0.12
					l0.04,0.01c0.23,0.08,0.04-0.15,0.02-0.1l0-0.04c0.02,0.02,0.06-0.01,0.05-0.05l-0.06-0.04c0,0.04-0.04,0.05-0.06,0.07
					c-0.04-0.04-0.08,0.01-0.13-0.02l0,0.02l-0.05-0.03c0.03,0.01,0.03-0.05,0.03-0.1c0.05,0,0.06,0.11,0.11,0.09
					c0-0.09-0.01-0.1-0.06-0.14l0.06-0.01l0.04,0.07c0.02-0.11,0.07,0,0.11,0.03l0.02,0.06l0.04,0.01l-0.01-0.06l0,0
					c0-0.01-0.01-0.01-0.01-0.02c-0.01-0.02-0.07-0.04-0.08-0.05c-0.03-0.03-0.05-0.07-0.07-0.09c-0.01-0.01-0.07-0.03-0.09-0.04
					c-0.01-0.01-0.07-0.02-0.09-0.03c-0.02-0.01-0.07-0.07-0.08-0.08c-0.01-0.01-0.07-0.06-0.08-0.07c-0.03-0.01-0.06,0-0.09-0.01
					c-0.02-0.01-0.06-0.05-0.08-0.06c-0.03-0.01-0.06,0.01-0.09,0c-0.03-0.01-0.06,0.02-0.08,0.01c-0.03,0-0.06-0.04-0.09-0.04
					c-0.03-0.01-0.05,0.02-0.08,0.02c-0.03,0-0.06-0.03-0.09-0.03c0,0,0.08-0.03,0.08-0.03s-0.08-0.03-0.09-0.03
					c-0.02,0-0.07,0.03-0.08,0.04l-0.08,0.04c-0.01,0-0.06,0.04-0.07,0.04c-0.01,0-0.07-0.01-0.08-0.01c-0.01,0-0.07-0.01-0.08-0.01
					c-0.02,0.01-0.05,0.03-0.07,0.04c-0.02,0.01-0.06,0.03-0.07,0.04c0,0.01,0.08,0.01,0.08,0.01c0,0.01-0.02,0.01-0.04,0.02
					l-0.18-0.04c-0.06,0-0.06,0.03-0.06,0.08c0,0,0,0-0.01,0c-0.01,0-0.07-0.01-0.08-0.01c-0.01,0,0.07-0.04,0.07-0.04
					c0-0.01-0.08,0-0.08-0.01c0-0.01,0.05-0.03,0.07-0.04c0.01-0.01,0.07-0.04,0.07-0.04c0-0.01-0.07,0-0.08-0.01l-0.13,0.09
					l-0.07,0.04l-0.07,0.04c-0.01,0-0.01,0.01-0.02,0.02c-0.02-0.03-0.03-0.05-0.04-0.08c-0.01,0.03-0.02,0.07-0.03,0.1
					c-0.02,0-0.04-0.01-0.05-0.01c-0.02,0.01-0.04,0.04-0.07,0.04c-0.03,0-0.05-0.01-0.08-0.01c-0.02,0-0.06-0.01-0.08-0.01
					c-0.02,0-0.05,0.04-0.07,0.04c-0.02,0-0.06-0.01-0.08-0.01c-0.01,0-0.07-0.01-0.08-0.01c-0.01-0.01,0.07-0.04,0.07-0.04
					c0-0.01-0.07,0-0.08-0.01c-0.02,0-0.05-0.02-0.08-0.01c-0.01,0-0.06,0.04-0.07,0.04c0,0,0.08,0.01,0.08,0.01
					c0,0.01-0.07,0.04-0.07,0.04c0.01,0.01,0.06,0.01,0.08,0.01l0.08,0.01c-0.03,0.01-0.04,0.04-0.07,0.04
					c-0.02,0.01-0.06-0.01-0.08-0.01c-0.02,0-0.05,0.04-0.07,0.04c-0.01,0-0.07-0.01-0.08-0.01c-0.01,0-0.07-0.01-0.08-0.01
					c-0.01-0.01,0.07-0.04,0.07-0.04c0,0-0.07-0.01-0.08-0.01c-0.01,0-0.06,0.04-0.07,0.04c-0.02,0.01-0.05,0.03-0.07,0.04
					c-0.01,0.01-0.06,0.03-0.07,0.04c0,0.01,0.08,0,0.08,0.01c0,0-0.06,0.04-0.07,0.04c-0.01,0-0.07-0.01-0.08-0.01l-0.08-0.01
					c-0.02,0-0.05-0.01-0.08-0.01c-0.01,0-0.05,0.04-0.07,0.04c-0.01,0-0.07-0.01-0.08-0.01c-0.01,0-0.07-0.01-0.08-0.01
					c-0.01,0-0.06,0.04-0.07,0.04c-0.02,0.01-0.04,0.03-0.07,0.04c-0.02,0.01-0.05,0.04-0.07,0.04c-0.02,0.01-0.05-0.02-0.08-0.01
					c0,0,0.07-0.04,0.07-0.04s-0.07-0.01-0.08-0.01c-0.01,0-0.06,0.04-0.07,0.04c-0.01,0.01-0.05,0.04-0.07,0.04
					c-0.02,0.01-0.05-0.02-0.08-0.01c-0.02,0.01-0.05-0.02-0.08-0.01c-0.02,0-0.05,0.04-0.07,0.04c-0.02,0.01-0.05-0.01-0.08-0.01
					c-0.02,0-0.05,0.04-0.07,0.04c-0.01,0-0.07-0.01-0.08-0.01c-0.01,0-0.06-0.01-0.08-0.01c-0.01,0-0.06,0.04-0.07,0.04
					c-0.01,0.01-0.05,0.04-0.07,0.04c-0.02,0.01-0.05-0.01-0.08-0.01c0,0-0.06,0.04-0.07,0.04c0,0-0.07-0.01-0.08-0.01
					c-0.02,0-0.05,0.04-0.07,0.04c-0.02,0.01-0.05,0.03-0.07,0.04c-0.01,0.01-0.05,0.04-0.07,0.04c-0.02,0-0.06-0.02-0.08-0.01
					c0.01,0,0.07-0.04,0.07-0.04c0,0-0.07-0.01-0.08-0.01c-0.01,0-0.06,0.04-0.07,0.04c-0.02,0.01-0.04,0.03-0.07,0.04
					c-0.02,0.01-0.05,0.04-0.07,0.04c-0.02,0.01-0.05-0.02-0.08-0.01c-0.03,0-0.05-0.01-0.08-0.01c0,0.01-0.06,0.03-0.07,0.04
					c0,0-0.06,0.04-0.07,0.04c-0.02,0-0.07-0.02-0.08-0.01c-0.02,0.01-0.05,0.03-0.07,0.04l-0.13,0.09c0-0.01-0.08,0-0.08-0.01
					c0-0.01-0.08,0-0.08-0.01c0-0.01,0.06-0.03,0.07-0.04s0.07-0.03,0.07-0.04c0,0-0.07-0.01-0.08-0.01c0,0-0.06,0.04-0.07,0.04
					c-0.02,0.01-0.05-0.02-0.08-0.01c-0.02,0.01-0.04,0.04-0.07,0.04c-0.02,0.01-0.05-0.02-0.08-0.01l-0.16-0.02
					c-0.02,0.01-0.04,0.03-0.07,0.04c-0.01,0.01-0.07,0.04-0.07,0.04c0,0.01,0.08,0,0.08,0.01c0,0.01,0.07,0,0.08,0.01
					c0,0-0.06,0.04-0.07,0.04l-0.07,0.04l-0.08-0.01c-0.02,0-0.05-0.01-0.08-0.01c-0.01,0-0.05,0.04-0.07,0.04
					c-0.02,0-0.06-0.01-0.08-0.01c-0.03,0-0.05-0.01-0.08-0.01c-0.01,0-0.06-0.01-0.08-0.01c-0.01,0-0.06,0.04-0.07,0.04
					c-0.02,0.01-0.04,0.04-0.07,0.04c-0.01,0-0.06-0.01-0.08-0.01c-0.02,0-0.05,0.04-0.07,0.04c-0.02,0-0.06-0.02-0.08-0.01
					c-0.02,0.01-0.05,0.03-0.07,0.04c-0.02,0.01-0.04,0.03-0.07,0.04c-0.02,0.01-0.04,0.04-0.07,0.04
					c-0.02,0.01-0.06-0.02-0.08-0.01c-0.02,0.01-0.04,0.04-0.07,0.04c-0.02-0.01-0.06,0-0.08-0.01c-0.01-0.01-0.06-0.01-0.08-0.01
					c-0.01,0-0.08-0.01-0.08-0.01c0,0,0.07-0.04,0.07-0.04c-0.02-0.01-0.05-0.01-0.08-0.01c-0.01,0-0.06-0.01-0.08-0.01
					c-0.02,0-0.05,0.04-0.07,0.04c0.01,0,0.07,0.01,0.08,0.01l-0.07,0.04l-0.07,0.04c-0.01,0.01-0.05,0.04-0.07,0.04
					c-0.01,0-0.07-0.01-0.08-0.01c-0.02,0-0.05-0.01-0.08-0.01c-0.02,0-0.05-0.01-0.08-0.01c-0.02,0-0.05,0.04-0.07,0.04
					c-0.02,0.01-0.05-0.02-0.08-0.01c-0.01,0-0.06,0.04-0.07,0.04c-0.02,0.01-0.04,0.03-0.07,0.04c-0.02,0.01-0.05,0.04-0.07,0.04
					c-0.02,0.01-0.05-0.02-0.08-0.01c-0.02,0-0.07-0.01-0.08-0.01c-0.01,0-0.06-0.01-0.08-0.01c-0.01,0-0.06,0.04-0.07,0.04
					c-0.01,0.01-0.05,0.04-0.07,0.04c-0.01,0-0.07-0.01-0.08-0.01c-0.01,0-0.07-0.01-0.08-0.01c-0.02,0-0.05,0.04-0.07,0.04
					c-0.01,0.01-0.05,0.04-0.07,0.04c-0.02,0-0.06-0.02-0.08-0.01c-0.03,0.01-0.04,0.03-0.07,0.04c-0.02,0.01-0.06-0.02-0.08-0.01
					c-0.01,0-0.05,0.04-0.07,0.04c0,0,0.08,0.01,0.08,0.01c0,0-0.06,0.04-0.07,0.04l-0.07,0.04c-0.01-0.01-0.08,0-0.08-0.01
					c0-0.01,0.07-0.04,0.07-0.04c-0.01-0.01-0.06-0.01-0.08-0.01l-0.08-0.01c-0.01,0-0.06-0.01-0.08-0.01
					c-0.01,0-0.06,0.04-0.07,0.04l-0.07,0.04c-0.02,0.01-0.04,0.03-0.07,0.04c-0.01,0-0.06-0.01-0.08-0.01
					c-0.02,0.01-0.04,0.04-0.07,0.04c-0.03,0-0.05-0.02-0.08-0.01c-0.02,0-0.05,0.04-0.07,0.04c-0.02,0.01-0.05-0.02-0.08-0.01
					c0,0,0.07-0.04,0.07-0.04s-0.07-0.01-0.08-0.01c-0.02,0.01-0.04,0.04-0.07,0.04c-0.02,0.01-0.05-0.02-0.08-0.01
					c-0.02,0.01-0.04,0.04-0.07,0.04c-0.02,0.01-0.05-0.02-0.08-0.01c-0.02,0-0.04,0.04-0.07,0.04c-0.01,0-0.07-0.02-0.08-0.01
					c-0.02,0.01-0.05,0.03-0.07,0.04l-0.07,0.04c-0.01,0.01-0.05,0.04-0.07,0.04c-0.02,0.01-0.06-0.02-0.08-0.01
					c-0.02,0-0.05,0.04-0.07,0.04c-0.03,0-0.05-0.02-0.08-0.01c0,0,0.07-0.04,0.07-0.04s-0.07-0.01-0.08-0.01
					c-0.02,0-0.05,0.04-0.07,0.04c-0.02,0.01-0.04,0.03-0.07,0.04c-0.02,0.01-0.05,0.04-0.07,0.04c-0.01,0-0.06-0.01-0.08-0.01
					c-0.01,0-0.08-0.01-0.08-0.01c0-0.01,0.06-0.03,0.07-0.04c0-0.01,0.07-0.03,0.07-0.04c0,0-0.07-0.01-0.08-0.01
					c-0.01,0-0.06,0.04-0.07,0.04c-0.02,0.01-0.04,0.03-0.07,0.04c-0.02,0.01-0.04,0.04-0.07,0.04c-0.02,0.01-0.06-0.02-0.08-0.01
					c-0.02,0-0.05,0.04-0.07,0.04l0.08,0.01c0,0-0.06,0.04-0.07,0.04c0,0-0.07-0.01-0.08-0.01c-0.02,0-0.05,0.04-0.07,0.04
					c-0.01,0-0.07-0.01-0.08-0.01c0,0,0.07-0.04,0.07-0.04c0,0-0.07-0.01-0.08-0.01c-0.01,0-0.07-0.01-0.08-0.01
					c-0.01,0-0.06,0.04-0.07,0.04l-0.07,0.04c-0.02,0.01-0.04,0.03-0.07,0.04c-0.01,0-0.07-0.01-0.08-0.01
					c-0.01,0-0.06,0.04-0.07,0.04L155,15.19l-0.16-0.02l0.07-0.04c0.02-0.01,0.04-0.03,0.07-0.04c0.01,0,0.06,0.01,0.08,0.01
					c0.02-0.01,0.04-0.04,0.07-0.04l-0.16-0.02l-0.07,0.04l-0.07,0.04c-0.02,0.01-0.04,0.03-0.07,0.04c-0.01,0-0.07-0.01-0.08-0.01
					c-0.02,0-0.05,0.04-0.07,0.04c-0.02,0.01-0.05,0.03-0.07,0.04c-0.01,0.01-0.05,0.04-0.07,0.04c-0.01,0-0.07-0.01-0.08-0.01
					c-0.01,0-0.07-0.01-0.08-0.01c-0.02,0.01-0.05,0.03-0.07,0.04c-0.02,0.01-0.05,0.03-0.07,0.04c-0.01,0.01-0.06,0.03-0.07,0.04
					c0,0.01,0.08,0,0.08,0.01c0,0.01-0.06,0.03-0.07,0.04c-0.01-0.01-0.07,0-0.08-0.01c-0.01-0.01-0.07,0-0.08-0.01
					c-0.01-0.01,0.07-0.04,0.07-0.04c0-0.01-0.07-0.01-0.08-0.01c-0.02-0.01-0.05-0.01-0.08-0.01l-0.16-0.02l-0.07,0.04
					c-0.01,0.01-0.05,0.04-0.07,0.04c-0.01,0-0.07-0.01-0.08-0.01c-0.01,0-0.07-0.01-0.08-0.01c-0.02,0.01-0.05,0.03-0.07,0.04
					c-0.02,0.01-0.06,0.03-0.07,0.04c0,0,0.08,0.01,0.08,0.01c0,0-0.06,0.04-0.07,0.04l-0.07,0.04c-0.03,0-0.05-0.01-0.08-0.01
					c-0.01,0-0.08-0.01-0.08-0.01c0,0,0.07-0.04,0.07-0.04c-0.01,0-0.06-0.01-0.08-0.01c-0.02,0-0.05,0.04-0.07,0.04
					c-0.01,0-0.07-0.02-0.08-0.01c-0.02,0.01-0.05,0.03-0.07,0.04c-0.02,0.01-0.06,0.03-0.07,0.04c0,0.01,0.08,0.01,0.08,0.01
					c0,0.01-0.06,0.03-0.07,0.04c-0.03,0-0.05-0.01-0.08-0.01c-0.03,0-0.05-0.01-0.08-0.01l-0.08-0.01c-0.02,0-0.06-0.01-0.08-0.01
					c-0.01,0-0.07,0-0.08-0.01c-0.01-0.01,0.07-0.04,0.07-0.04c0-0.01-0.07-0.01-0.08-0.01c0,0-0.06,0.04-0.07,0.04
					c0,0.01-0.07,0.03-0.07,0.04c0,0.01,0.08,0,0.08,0.01c0,0.01-0.06,0.03-0.07,0.04c0,0.01,0.08,0,0.08,0.01
					c0,0.01-0.06,0.03-0.07,0.04l-0.16-0.02l-0.08-0.01c-0.01,0-0.06-0.01-0.08-0.01c-0.01,0-0.06,0.04-0.07,0.04
					c-0.02,0.01-0.05,0.03-0.07,0.04c-0.01,0.01-0.06,0.03-0.07,0.04c-0.01-0.01-0.06-0.01-0.08-0.01c-0.02,0-0.05-0.01-0.08-0.01
					c-0.01,0-0.06,0.04-0.07,0.04c-0.01,0-0.07-0.01-0.08-0.01c-0.01,0-0.06-0.01-0.08-0.01c-0.01,0-0.06,0.04-0.07,0.04l-0.07,0.04
					c-0.01,0.01-0.05,0.04-0.07,0.04c-0.01,0-0.07-0.01-0.08-0.01c-0.01,0-0.06-0.01-0.08-0.01c-0.01,0-0.06,0.04-0.07,0.04
					c-0.02,0.01-0.04,0.03-0.07,0.04c-0.02,0.01-0.05,0.04-0.07,0.04c-0.02,0.01-0.05-0.02-0.08-0.01c-0.01,0-0.07-0.01-0.08-0.01
					c-0.01,0-0.06-0.01-0.08-0.01c-0.01,0-0.06,0.04-0.07,0.04c-0.01,0.01-0.05,0.04-0.07,0.04c-0.01,0-0.07-0.01-0.08-0.01
					c0,0,0.07-0.04,0.07-0.04c0,0-0.07-0.01-0.08-0.01c-0.01,0-0.06,0.04-0.07,0.04c-0.02,0.01-0.04,0.03-0.07,0.04
					c-0.01,0-0.06-0.01-0.08-0.01c-0.01,0-0.06,0.04-0.07,0.04c-0.01,0.01-0.05,0.04-0.07,0.04c-0.02,0.01-0.06-0.01-0.08-0.01
					c-0.02,0-0.05,0.04-0.07,0.04c-0.02,0.01-0.05-0.01-0.08-0.01c-0.03,0-0.05-0.02-0.08-0.01c-0.02,0-0.05,0.04-0.07,0.04
					c-0.02,0.01-0.05-0.02-0.08-0.01c-0.01,0-0.06,0.04-0.07,0.04c-0.01,0.01-0.05,0.04-0.07,0.04c-0.01,0-0.07-0.01-0.08-0.01
					c-0.01,0-0.07-0.01-0.08-0.01c-0.02,0.01-0.05,0.03-0.07,0.04l-0.13,0.09c-0.02-0.01-0.06,0-0.08-0.01
					c-0.01-0.01-0.08,0-0.08-0.01c0-0.01,0.06-0.03,0.07-0.04c0-0.01,0.07-0.03,0.07-0.04c0-0.01-0.07-0.01-0.08-0.01
					c0.01,0-0.07,0.04-0.07,0.04c-0.02,0-0.05-0.02-0.08-0.01c-0.02,0.01-0.04,0.04-0.07,0.04c-0.03,0.01-0.04,0.04-0.07,0.04
					c-0.02,0.01-0.06-0.02-0.08-0.01c-0.02,0.01-0.04,0.04-0.07,0.04c-0.02,0.01-0.06-0.02-0.08-0.01
					c-0.02,0.01-0.04,0.04-0.07,0.04c-0.02,0.01-0.05-0.02-0.08-0.01c-0.01,0-0.06,0.04-0.07,0.04c-0.02,0.01-0.05,0.03-0.07,0.04
					c0,0,0.07,0.01,0.08,0.01c0.01,0,0.08,0.01,0.08,0.01c0,0.01-0.06,0.03-0.07,0.04l-0.08-0.01l-0.08-0.01
					c-0.03,0-0.05-0.01-0.08-0.01c-0.01,0-0.06-0.01-0.08-0.01c-0.02,0.01-0.04,0.04-0.07,0.04c0,0,0.08,0.01,0.08,0.01
					c0,0-0.06,0.04-0.07,0.04c-0.01,0-0.07-0.01-0.08-0.01c-0.01,0-0.06,0.04-0.07,0.04c-0.01,0.01-0.05,0.04-0.07,0.04
					c-0.02,0.01-0.06-0.02-0.08-0.01c-0.02,0.01-0.04,0.04-0.07,0.04c-0.02,0.01-0.04,0.04-0.07,0.04c-0.01,0-0.07-0.02-0.08-0.01
					c-0.02,0.01-0.05,0.03-0.07,0.04l-0.06,0.04c-0.03-0.01-0.06,0.02-0.08,0.05c-0.02,0.01-0.04,0.03-0.06,0.04c0,0-0.01,0-0.02,0
					c-0.01-0.01-0.01-0.02-0.02-0.03L147.24,17c-0.02,0-0.03-0.01-0.04-0.01c0,0-0.01,0-0.01,0.01l-0.06-0.03
					c-0.01,0.02,0,0.04,0,0.07c0,0,0,0,0,0c-0.02,0.01-0.04,0.02-0.06,0.04c-0.01-0.01-0.01-0.02-0.01-0.03l-0.06,0.01
					c-0.02,0.03-0.02,0.07-0.04,0.1c-0.01,0.01-0.02,0.01-0.03,0.02c0,0,0.01,0,0.02,0c0,0,0,0.01-0.01,0.01l-0.04,0.01l-0.01-0.07
					c-0.06-0.08-0.09-0.05-0.12-0.01c0,0-0.01,0-0.01,0c-0.01,0-0.07,0-0.08,0c0,0,0,0,0,0c-0.01-0.01-0.01-0.02-0.02-0.03
					c-0.01,0.02-0.02,0.04-0.01,0.07c-0.01,0.02-0.03,0.03-0.03,0.03c0,0,0.02,0,0.03-0.01c0,0.01,0.01,0.02,0.01,0.03
					c-0.01,0.01-0.02,0.03-0.02,0.03c0.01-0.01,0.02-0.01,0.03-0.01c0.01,0.01,0.01,0.03,0.02,0.04c-0.03,0.01-0.05,0.03-0.08,0.05
					l-0.01-0.04c0.01-0.02,0.03-0.03,0.03-0.04c-0.01,0.01-0.02,0.01-0.04,0.01l-0.01-0.05c-0.05,0.03-0.13-0.03-0.12,0.11
					c0,0,0,0,0,0.01l-0.15-0.06c0.01,0.05-0.02,0.08-0.06,0.1c0.03,0.04,0.07-0.01,0.06-0.03l0.06,0.03l-0.02,0.08
					c-0.02,0.01-0.03,0.03-0.05,0.04l-0.08-0.01l-0.08-0.11c0.01,0.15-0.09,0.08-0.17,0.1l0.01,0.1l-0.06-0.05l-0.02,0.06
					c0.02-0.03,0.03,0.05,0.03,0.06l-0.06-0.1l-0.07,0.08l0.02,0.03l-0.04,0.05c-0.03-0.02-0.08-0.05-0.08,0.03l0.06,0.11
					c-0.07-0.01-0.12-0.03-0.18-0.09c-0.08,0.07,0.05,0.11,0.02,0.18c-0.04,0.01-0.08-0.07-0.11-0.02l0.08,0.11l0.05-0.08l0.03,0.14
					l-0.11-0.02l-0.06-0.1c-0.02,0.01-0.08,0.03-0.09,0.09l-0.09,0.06c-0.04,0.05,0.02,0.13,0.05,0.13l0,0.07l-0.07-0.06
					c-0.05,0.06-0.09,0.11-0.09,0.2c0,0.13-0.1,0.05-0.1,0.14l0.08,0.1c0,0.08-0.04,0.12-0.09,0.14c0.03,0.08,0.02,0.17,0.01,0.24
					c0.09-0.03,0.18-0.22,0.25-0.16c0.01,0.05,0.02,0.15,0.08,0.13l0,0.04c-0.01,0.07-0.07,0.09-0.1,0.04l0,0.1
					c-0.03,0.02-0.08,0.01-0.09-0.08l0.01,0.1l-0.06,0.01l-0.03-0.14l-0.06,0.08l0.07,0.08l-0.06,0.04l0.03,0.08l0.12-0.08
					l0.02,0.13c0.15,0.12-0.01,0.17,0,0.31c0.06-0.03,0.13-0.02,0.19-0.05c-0.01,0.07-0.06,0.15-0.1,0.2
					c0.02,0.03,0.04,0.07,0.06,0.11c0.05,0.01,0.04,0.14,0.11,0.13l0.04-0.08c-0.08-0.1-0.16-0.21-0.02-0.22
					c0.04,0.05-0.03,0.06,0,0.11c0.07,0.01,0.02-0.1,0.06-0.1l0.02,0.07c-0.03,0.06,0.01,0.12,0.06,0.17l-0.02,0.01l-0.03,0.08
					l-0.02,0.01l0.01,0.09l0.04-0.02l-0.01-0.1c0.03-0.08,0.09,0.03,0.11,0.06l-0.05,0.08l0.04,0.03l0.02-0.1
					c0.09,0.08,0.12,0.24,0.22,0.29c0.02-0.1,0.09,0,0.13,0.08c0.08-0.03,0.21,0.14,0.28,0.07l-0.03-0.11
					c0.09-0.03,0.16,0.19,0.21,0.25c0.02-0.24-0.11-0.16-0.18-0.3l0.09-0.08l0.01,0.03c-0.01,0.07,0.05,0.09,0.09,0.1
					c-0.04,0.09,0.02,0.18,0.07,0.22l0.03-0.06l0.01,0c0.04-0.09-0.11-0.16-0.09-0.32c0.04,0.09,0.1,0.1,0.15,0.15
					c-0.08,0.12,0.07,0.18,0.13,0.23c0.1-0.06,0.25,0.13,0.33-0.07l0.19,0.02c0.09,0,0.02-0.11,0.03-0.17c0,0,0.01,0,0.01,0
					c0,0,0.01,0,0.02-0.01c0.01,0.04,0.03,0.04,0.06,0.09c0.03,0,0.07-0.02,0.04-0.08c-0.02-0.01-0.02-0.05-0.02-0.09
					c0.02,0,0.03,0.01,0.03,0.01c0,0,0.01,0,0.02,0c0.05,0.05,0.09,0.12,0.13,0.18c0.02-0.07,0.03-0.13,0.05-0.19
					c0.01,0,0.02,0.01,0.03,0.01c0.01,0,0.03-0.01,0.04-0.02c0.03,0.04,0.06,0.08,0.11,0.04c0-0.01,0-0.03,0-0.04
					c0.03,0,0.06,0.01,0.08,0.02c0.01,0,0.07,0.02,0.08,0.02c0.01,0,0.06-0.03,0.07-0.04c0.01-0.01,0.05-0.04,0.07-0.04
					c0.01,0,0.07,0.02,0.08,0.02c0.02-0.01,0.05-0.03,0.07-0.04l0.14-0.08c0,0.01,0.08,0.01,0.08,0.02
					c-0.01,0.01-0.05,0.03-0.07,0.04c-0.01,0.01-0.07,0.03-0.07,0.04c0,0.01,0.07,0.01,0.08,0.02l0.08,0.02l0.07-0.04l0.07-0.04
					c0.02-0.01,0.04-0.03,0.07-0.04c0.01,0,0.07,0.02,0.08,0.02c0.02,0,0.05-0.04,0.07-0.04c0.02,0,0.06,0.02,0.08,0.02
					c0.02,0,0.05-0.03,0.07-0.04c0.01-0.01,0.05-0.04,0.07-0.04c0.02,0,0.05,0.02,0.08,0.02c0.02,0,0.07,0.01,0.08,0.02
					c0.01,0,0.06,0.02,0.08,0.02c0.01,0,0.06-0.03,0.07-0.04c0.01-0.01,0.05-0.04,0.07-0.04c0.01,0,0.07,0.01,0.08,0.02
					c0,0-0.07,0.04-0.07,0.04c0,0,0.07,0.02,0.08,0.02c0.01,0,0.06-0.03,0.07-0.04l0.14-0.08c0,0.01,0.08,0.01,0.08,0.02
					c0,0.01-0.06,0.03-0.07,0.04c0,0.01,0.08,0.01,0.08,0.02c0,0-0.07,0.04-0.07,0.04c0.01,0,0.07,0.02,0.08,0.02
					c0.02,0,0.05-0.03,0.07-0.04c0.02,0,0.05,0.02,0.08,0.02l0.07-0.04c0.02-0.01,0.06-0.03,0.07-0.04c0,0,0.07,0.02,0.08,0.02
					c0.01,0,0.06,0.02,0.08,0.02c0.01,0,0.06-0.03,0.07-0.04l0.07-0.04l0.07-0.04l0.14-0.08c0.02,0.01,0.06,0.01,0.08,0.02
					c0.01,0.01,0.08,0.01,0.08,0.02c0,0.01-0.06,0.03-0.07,0.04c0,0.01-0.07,0.03-0.07,0.04c0,0,0.07,0.02,0.08,0.02
					c0.01,0,0.05-0.04,0.07-0.04c0.02,0,0.06,0.02,0.08,0.02c0.02-0.01,0.05-0.03,0.07-0.04c0.01-0.01,0.05-0.04,0.07-0.04
					c0.02,0,0.06,0.02,0.08,0.02c0.03-0.01,0.04-0.03,0.07-0.04c0.02,0,0.06,0.02,0.08,0.02c0.02,0,0.04-0.03,0.07-0.04
					c0.02,0,0.06,0.02,0.08,0.02c0.01,0,0.06-0.03,0.07-0.04c0.01-0.01,0.06-0.04,0.07-0.04c0.01,0,0.07,0.01,0.08,0.02
					c0.01,0,0.07,0.02,0.08,0.02c0.02-0.01,0.05-0.03,0.07-0.04l0.07-0.04l0.07-0.04l0.13-0.08c0.02,0.01,0.06,0.01,0.08,0.02
					c0,0-0.06,0.04-0.07,0.04c-0.01,0.01-0.07,0.03-0.07,0.04c0,0,0.07,0.01,0.08,0.02c0.02,0,0.05,0.02,0.08,0.02
					c0,0,0.06-0.03,0.07-0.04c0.02-0.01,0.05-0.03,0.07-0.04c0.01,0,0.06,0.02,0.08,0.02c0.02,0,0.05-0.04,0.07-0.04
					c0.02,0,0.05,0.02,0.08,0.02c0.02,0,0.06,0.01,0.08,0.02c0.02,0,0.05,0.02,0.08,0.02c0.01,0,0.05-0.04,0.07-0.04
					c0.02,0,0.05,0.02,0.08,0.02c0.01,0,0.06-0.03,0.07-0.04l0.07-0.04c0.01-0.01,0.05-0.03,0.07-0.04c0.01,0,0.07,0.02,0.08,0.02
					c0.02,0,0.05,0.02,0.08,0.02c0.01,0,0.05-0.04,0.07-0.04c0.02,0,0.06,0.02,0.08,0.02c0.02,0,0.06-0.03,0.07-0.04
					c0.02-0.01,0.04-0.03,0.07-0.04c0,0,0.01,0,0.03,0.01c0.08-0.07,0.15-0.12,0.25-0.05c0.01,0,0.01,0,0.02,0
					c0.02,0,0.05-0.04,0.07-0.04c0.02,0,0.06,0.02,0.08,0.02c0.02,0,0.05-0.03,0.07-0.04c0.01-0.01,0.05-0.04,0.07-0.04
					c0.02,0,0.05,0.02,0.08,0.02c-0.01,0-0.07,0.04-0.07,0.04c0,0,0.07,0.02,0.08,0.02c0.01,0,0.02-0.01,0.03-0.02l-0.08-0.21
					c0.07,0.05,0.14,0.12,0.21,0.2c0.02-0.01,0.04-0.03,0.06-0.03c0.02,0,0.06,0.02,0.08,0.02c0.02,0,0.04-0.03,0.07-0.04
					c0.02,0,0.05,0.02,0.07,0.02c0.02-0.02,0.04-0.04,0.08-0.06l0.02,0.01c0.01-0.01,0.03-0.02,0.04-0.02
					c0.02,0,0.06,0.02,0.08,0.02c0.01,0,0.02-0.01,0.03-0.02l0.02-0.36c0.13,0.08,0.24,0.27,0.35,0.33
					c0.01-0.01,0.03-0.01,0.04-0.02l0.14-0.08c0.01,0,0.02,0.01,0.04,0.01c0.09-0.11,0.18-0.27,0.29-0.21l-0.04-0.14
					c0.14,0.05,0.18,0.2,0.23,0.35l0.01,0c0.01-0.01,0.05-0.03,0.07-0.04c0.01,0,0.07,0.02,0.08,0.02c0.02,0,0.05,0.02,0.08,0.02
					c0.01,0,0.05-0.04,0.07-0.04c0.01,0,0.02,0,0.03,0.01l0-0.02l0.06,0.04c0.02,0,0.05,0.02,0.07,0.01c0.02,0,0.04-0.03,0.07-0.04
					c0.02,0,0.05,0.02,0.08,0.02c0.02,0,0.03-0.01,0.04-0.02l-0.01-0.02c-0.02,0-0.04-0.01-0.04-0.01c0,0,0.01-0.01,0.03-0.02
					l-0.09-0.17c0.12-0.24,0.48,0.14,0.46-0.31c0.29,0.1,0.65,0.19,0.87-0.04l0.35,0.22l0.06-0.36c0.25,0.5,0.3-0.02,0.46,0.04
					l0.13,0.33c0.17,0.06,0.26-0.7,0.41-0.2c0.41,0.21,0.6-0.64,1.04-0.05l0.25-0.39c0.11,0.11,0.23,0.23,0.34,0.36
					c0.02-0.01,0.04-0.02,0.04-0.02c0.01-0.01,0.05-0.03,0.07-0.04l0.05-0.03c-0.01-0.04-0.01-0.09-0.01-0.14
					c0.19,0.1,0.33-0.23,0.5-0.18c0.14,0.06,0.17,0.2,0.19,0.34c0.01,0,0.02,0.01,0.03,0.01c0.01,0,0.06,0.02,0.08,0.02
					c0.01,0,0.06-0.03,0.07-0.04l0.02-0.01c-0.03-0.16-0.05-0.3,0.06-0.31c0.05,0.09,0.12,0.17,0.18,0.24
					c0.01,0,0.01-0.01,0.02-0.01c0.01-0.01,0.05-0.03,0.07-0.04c0.02,0,0.06,0.02,0.08,0.02c0.02,0,0.05-0.04,0.07-0.04
					c0.02,0,0.06,0.01,0.08,0.02c0.02,0,0.06,0.02,0.08,0.02c0.02,0,0.05-0.04,0.07-0.04c0.02,0,0.05,0.02,0.08,0.02
					c0.02,0,0.05,0.02,0.08,0.02c0.02,0,0.04-0.03,0.07-0.04c-0.01,0-0.08-0.01-0.08-0.02c0,0,0.06-0.03,0.07-0.04
					c0.02-0.01,0.05-0.03,0.07-0.04c0.01,0,0.06,0.02,0.08,0.02c0.02,0,0.05-0.04,0.07-0.04c0.02,0,0.06,0.02,0.08,0.02
					c0.03,0,0.05,0.01,0.08,0.02l0.08,0.02l0.08,0.02c0.02,0,0.05,0.02,0.08,0.02c0,0,0.06-0.03,0.07-0.04
					c0.01-0.01,0.05-0.04,0.07-0.04c0.01,0,0.06,0.01,0.08,0.02c0,0-0.07,0.04-0.07,0.04c0,0.01,0.07,0.01,0.08,0.02
					c0.02,0,0.05,0.02,0.08,0.02c0.01,0,0.06-0.03,0.07-0.04c0,0-0.08-0.01-0.08-0.02c0,0,0.06-0.03,0.07-0.04
					c0.02-0.01,0.06-0.03,0.07-0.04c0-0.01-0.08-0.01-0.08-0.02c0-0.01,0.06-0.03,0.07-0.04c0.01-0.01,0.05-0.03,0.07-0.04
					l0.07-0.04c0,0.01,0.08,0.01,0.08,0.02c-0.01,0.01-0.05,0.03-0.07,0.04c-0.02,0.01-0.06,0.03-0.07,0.04c0,0,0.07,0.01,0.08,0.02
					c0.01,0.01-0.07,0.03-0.07,0.04c0,0.01,0.07,0.01,0.08,0.02l0.07-0.04l0.07-0.04c0.02-0.01,0.05-0.03,0.07-0.04
					c0.01,0,0.06,0.02,0.08,0.02c0.02,0,0.05-0.04,0.07-0.04c0.01,0,0.07,0.01,0.08,0.02c0.01,0-0.07,0.03-0.07,0.04
					c0,0,0.07,0.02,0.08,0.02c0.02,0,0.05-0.03,0.07-0.04l0.07-0.04l0.14-0.08c0.02,0.01,0.06,0.01,0.08,0.02
					c0.01,0.01,0.08,0.01,0.08,0.02c0,0.01-0.07,0.03-0.07,0.04c0.01,0.01,0.06,0.01,0.08,0.02c0.01,0,0.06,0.02,0.08,0.02
					c0.01,0,0.06-0.03,0.07-0.04l0.07-0.04c0.02-0.01,0.05-0.03,0.07-0.04c0.01,0,0.06,0.02,0.08,0.02c0.02,0,0.05-0.04,0.07-0.04
					c0.02,0,0.05,0.02,0.08,0.02c0.02,0,0.04-0.03,0.07-0.04c0.02,0,0.05,0.02,0.08,0.02c0.02,0,0.04-0.03,0.07-0.04
					c0.02,0,0.06,0.02,0.08,0.02c0.02,0,0.05-0.03,0.07-0.04l0.07-0.04c0.02-0.01,0.05-0.03,0.07-0.04c0.01,0,0.06,0.02,0.08,0.02
					c0.02,0,0.05-0.03,0.07-0.04c0.02,0,0.05,0.02,0.08,0.02l-0.07,0.04c-0.02,0.01-0.05,0.03-0.07,0.04
					c-0.01,0.01-0.07,0.03-0.07,0.04c0,0,0.07,0.02,0.08,0.02c0.02,0,0.05-0.03,0.07-0.04c0.03,0,0.05,0.02,0.08,0.02
					c0.01,0,0.06-0.03,0.07-0.04c0.01-0.01,0.05-0.03,0.07-0.04c0.02,0,0.06,0.02,0.08,0.02c0.02,0,0.05-0.04,0.07-0.04
					c0.02,0,0.05,0.02,0.08,0.02c0.02,0,0.05-0.03,0.07-0.04c0.02,0,0.05,0.02,0.08,0.02c0.02,0,0.05,0.02,0.08,0.02
					c0.02,0,0.05-0.03,0.07-0.04l-0.08-0.02c0,0,0.06-0.03,0.07-0.04c0.01,0,0.06-0.04,0.07-0.04c0.02,0,0.07,0.01,0.08,0.02
					c0.02,0,0.07,0.01,0.08,0.02c0.01,0-0.07,0.03-0.07,0.04c0,0,0.07,0.02,0.08,0.02c0.02,0,0.06-0.03,0.07-0.04l0.07-0.04
					l0.07-0.04l0.07-0.04c0.02-0.01,0.04-0.03,0.07-0.04c0.01,0,0.07,0.02,0.08,0.02c0.02,0,0.04-0.03,0.07-0.04
					c0.02-0.01,0.04-0.03,0.07-0.04c0.02,0,0.05,0.02,0.08,0.02c0.01,0,0.08,0.02,0.08,0.02c0,0.01-0.07,0.03-0.07,0.04
					c0,0,0.07,0.02,0.08,0.02c0.01,0,0.07-0.04,0.08-0.04c0.01,0,0.07,0,0.09,0c0.02,0,0.07,0.01,0.09,0c0.01,0,0.06-0.06,0.07-0.06
					c0.01-0.01,0.06-0.06,0.07-0.07c0.02-0.01,0.07-0.01,0.08-0.02c0.02-0.02,0.05-0.05,0.06-0.08c0.01-0.01,0.04-0.07,0.06-0.08
					c0.02-0.02,0.06-0.02,0.08-0.04c0.02-0.02,0.05-0.04,0.07-0.05c0.01,0,0.07-0.04,0.07-0.05c0.02-0.03,0.03-0.08,0.04-0.1
					c0.01-0.02,0.04-0.09,0.04-0.1c0.01-0.01,0.05-0.05,0.06-0.07c0.01-0.02,0.05-0.05,0.06-0.08c0.01-0.02,0.02-0.09,0.03-0.12
					c0.01-0.03,0.05-0.06,0.06-0.09c0.01-0.04,0.01-0.09,0.02-0.12c0.01-0.03,0.04-0.07,0.05-0.1c0-0.02,0.01-0.11,0.01-0.13
					c0,0,0-0.01,0-0.02c0.01-0.01,0-0.03,0-0.05c0-0.02,0-0.05,0-0.06c0-0.02,0.01-0.04,0.02-0.06l0,0
					c0.07-0.08,0.12-0.13,0.13-0.24c0.01-0.17,0.13-0.05,0.15-0.16l-0.1-0.15c0.01-0.11,0.06-0.15,0.13-0.17
					c-0.03-0.11-0.01-0.23,0-0.31c-0.09,0.01-0.19,0.15-0.27,0.18c-0.01-0.03-0.02-0.07-0.02-0.1c0-0.01,0-0.04,0-0.06
					c0.02,0.02,0.03,0.04,0.05,0.03c-0.01-0.03-0.03-0.07-0.05-0.09c0,0,0,0,0-0.01c0-0.01-0.01-0.03-0.01-0.05l0.01-0.13
					c0.04-0.02,0.11,0,0.11,0.11l-0.01-0.13l0.08,0l0.03,0.18l0.09-0.1l-0.09-0.12l0.08-0.05L169.13,14.77z M146.11,18.33
					c0-0.01,0-0.02,0-0.02c0.01,0.02,0.03,0.03,0.04,0.04c0,0.01,0,0.03,0,0.05c0,0.01-0.01,0.01-0.01,0.02l-0.04-0.04
					C146.11,18.36,146.11,18.34,146.11,18.33z M146.04,18.3c0,0,0,0.01,0,0.01C146.04,18.31,146.04,18.3,146.04,18.3L146.04,18.3z
					 M146.36,19.98l-0.05-0.01l-0.03,0.04l0.03-0.13C146.32,19.94,146.41,19.89,146.36,19.98z M145.88,18.28
					c0.04-0.04,0.09,0.02,0.12,0.05l0,0c0,0.03,0,0.08,0.01,0.1c-0.04-0.02-0.08-0.12-0.14-0.12c0.03,0.05,0.08,0.15,0.03,0.16
					C145.84,18.45,145.86,18.32,145.88,18.28z M146.05,19.1L146,19.06l0.06-0.09C146.11,19.02,146.07,19.09,146.05,19.1z
					 M145.9,19.6c0.01,0,0.02-0.01,0.03-0.01l0.01,0l0.05,0.06c-0.03,0-0.06,0-0.08-0.01C145.9,19.62,145.9,19.61,145.9,19.6z
					 M145.64,18.66c0.02-0.08-0.03-0.15-0.07-0.19l0.05-0.07c0.02,0.13,0.11,0.19,0.09,0.32l-0.09-0.03l-0.08,0.1l-0.02-0.07
					L145.64,18.66z M145.7,19.1c0,0-0.03,0.08-0.04,0.08c-0.01,0.01-0.05,0.05-0.06,0.05c-0.01,0.01-0.06,0.05-0.06,0.04
					c0,0,0.01-0.01,0.02-0.03c0.01-0.02,0.02-0.03,0.03-0.04c0.02-0.02,0.03-0.05,0.04-0.07c0.02-0.02,0.04-0.03,0.05-0.06
					c-0.01,0.01-0.03,0.07-0.04,0.08C145.66,19.16,145.7,19.09,145.7,19.1z M145.35,18.55L145.35,18.55
					c0.01-0.02,0.01-0.04,0.02-0.06c0.01,0.01,0.03,0.01,0.05,0.01c0,0.01,0,0.02,0.01,0.03l0.01,0.02
					c0.01-0.04,0.04-0.02,0.06-0.01l0,0.01C145.46,18.66,145.4,18.59,145.35,18.55z M145.4,18.79l0.1,0.04l0,0.06l0.04,0.03
					l-0.06,0.02l0.01,0.03C145.43,18.93,145.42,18.85,145.4,18.79z M145.83,20.01l-0.04-0.01l-0.02-0.14
					C145.82,19.83,145.84,19.94,145.83,20.01z M145.61,19.67l-0.04-0.22c0.08,0.1,0.13-0.17,0.22-0.01
					C145.76,19.55,145.67,19.63,145.61,19.67z M146.48,20.32c-0.07,0-0.1-0.15-0.18-0.11c0.01,0.14,0.03,0.16,0.1,0.21l-0.09,0.02
					l-0.07-0.1c-0.03,0.17-0.11,0.01-0.17-0.03l-0.03-0.09l-0.06-0.01l0.01,0.1l-0.02,0.03c-0.01-0.09,0.01-0.2,0.07-0.18l0-0.08
					l-0.08-0.01l0.01,0.06l-0.07-0.06l0.06-0.02c0-0.08-0.03-0.17,0.02-0.23c0.07,0.01,0.06-0.16,0.13-0.09
					c0.11-0.07,0.02,0.15,0.1,0.18l-0.06,0c-0.36-0.08-0.05,0.24-0.03,0.15l0.01,0.07c-0.04-0.03-0.09,0.03-0.07,0.09l0.09,0.05
					c-0.01-0.07,0.05-0.09,0.09-0.11c0.07,0.06,0.12-0.03,0.2,0.01l0.01-0.03l0.07,0.03C146.47,20.14,146.47,20.24,146.48,20.32z
					 M146.69,20.36c-0.03,0.04-0.09-0.02-0.11-0.06l-0.01-0.07C146.62,20.22,146.7,20.26,146.69,20.36z M146.79,20.32
					c-0.02-0.03-0.04-0.06-0.04-0.09c0.01,0.02,0.03,0.04,0.04,0.05c0,0.01,0.01,0.02,0.01,0.03L146.79,20.32z M147.09,20.44
					l-0.04,0.09c-0.05,0.05-0.09-0.09-0.15-0.05l0.02,0.11c-0.05-0.01-0.08-0.06-0.06-0.13l0.09-0.08l-0.03-0.05
					c0.02,0,0.04,0.01,0.04,0.01c0,0,0.01,0.01,0.01,0.01l0.06,0.12l0.01-0.06C147.06,20.42,147.07,20.43,147.09,20.44
					C147.09,20.44,147.09,20.44,147.09,20.44z M156.12,19l0.01-0.06l0.06,0.06C156.18,19.06,156.13,19.01,156.12,19z M156.21,18.45
					l0.01-0.08l0.08,0.08C156.28,18.54,156.22,18.47,156.21,18.45z M156.49,18.37l0.06-0.05l0.08,0.2
					C156.58,18.49,156.55,18.51,156.49,18.37z M157.57,18.52c0.03-0.1,0.12,0.13,0.16,0.01l0.01,0.04
					C157.7,18.62,157.59,18.66,157.57,18.52z M167.87,14.76c0,0.03,0,0.04-0.03,0.06l-0.02-0.06L167.87,14.76z M168.05,15.85
					c-0.01,0.01-0.02-0.01-0.03-0.01L168,15.85c0.01-0.02-0.03-0.03-0.01-0.04l0.02,0.02l0-0.02
					C168.03,15.8,168.04,15.84,168.05,15.85c-0.01-0.02-0.02-0.04,0-0.04C168.07,15.81,168.06,15.84,168.05,15.85z M167.98,15.03
					l-0.03-0.09l0.05-0.01C168.02,14.97,168.02,15.04,167.98,15.03z M168.47,15.46c-0.01,0.03,0.01,0.07,0.03,0.09l-0.03,0.03
					c-0.01-0.06-0.05-0.09-0.03-0.15L168.47,15.46l0.05-0.05l0.01,0.03L168.47,15.46z M168.35,13.66l-0.11,0.1
					C168.21,13.58,168.24,13.53,168.35,13.66z M168.53,14.56c-0.04-0.05-0.07,0.08-0.12-0.01c0.02-0.06,0.06-0.09,0.1-0.11
					L168.53,14.56z M168.4,13.69C168.4,13.69,168.4,13.68,168.4,13.69c0,0,0.01,0.01,0.02,0.02
					C168.41,13.7,168.41,13.69,168.4,13.69z M168.81,14.28c-0.03-0.04-0.04-0.07-0.05-0.13l0.02-0.02
					C168.8,14.2,168.82,14.24,168.81,14.28z"/>
			</g>
		</g>
	</g>
</g>
</svg>
