<?xml version="1.0" encoding="utf-8"?>
<!-- Generator: Adobe Illustrator 24.0.2, SVG Export Plug-In . SVG Version: 6.00 Build 0)  -->
<svg version="1.1" id="Layer_1" xmlns="http://www.w3.org/2000/svg" xmlns:xlink="http://www.w3.org/1999/xlink" x="0px" y="0px"
	 viewBox="0 0 211.74 108.95" style="enable-background:new 0 0 211.74 108.95;" xml:space="preserve">
<style type="text/css">
	.st0{fill:#FFFFFF;}
</style>
<g>
	<g>
		<g>
			<path class="st0" d="M11.5,55.94c0,0.01-0.31,1.12-0.33,1.18c0.05-0.13,0.38-0.96,0.44-1.14c0.03-0.11,0.1-0.36,0.17-0.61
				c0.1-0.24,0.2-0.48,0.23-0.56c0.07-0.16,0.47-1.16,0.47-1.16s-0.14,0.26-0.27,0.53c-0.13,0.27-0.27,0.55-0.3,0.59
				c-0.09,0.19-0.19,0.38-0.29,0.56c-0.08,0.19-0.15,0.38-0.21,0.58c-0.05,0.16-0.3,1.08-0.33,1.18
				C11.08,57.01,11.49,55.95,11.5,55.94z"/>
			<path class="st0" d="M82.98,12.78c-1.08,0.07-1.78,0.41-1.77,0.57L83,13.1L82.98,12.78z"/>
			<path class="st0" d="M85.55,13.25c-1.19,0.2-1.39,0.26-1.79,0.42l1.8-0.21L85.55,13.25z"/>
			<path class="st0" d="M77.16,18.3l0.8-0.02l0.75-0.35C78.63,17.81,77.52,18.16,77.16,18.3z"/>
			<path class="st0" d="M72.41,13.22c-1.38,0.36-1.26,0.29-2.23,0.71l1-0.14L72.41,13.22z"/>
			<path class="st0" d="M85.57,14.6c-1.62,0.24-0.74,0.41-0.7,0.48C85.41,14.87,86.15,14.65,85.57,14.6z"/>
			<path class="st0" d="M80.93,14.6l2.58-0.22c0.44,0.06,0.88,0.11,0.97-0.03l-0.44-0.06C84.13,14.06,82.11,14.43,80.93,14.6z"/>
			<path class="st0" d="M125.21,98.05c0,0-0.18,0.03-0.4,0.07c0.79,0.1,2.39-0.12,4.5-0.55c-0.44,0.05-1.01,0.1-1.06,0.09
				c-0.07-0.01,0.86-0.13,1.28-0.21c-0.01-0.01-0.01-0.02-0.02-0.02c-0.41,0.05-1.2,0.13-1.28,0.13c-0.56,0.09-0.93,0.15-1.51,0.25
				c-0.4,0.05-1.1,0.08-1.52,0.14c-0.15,0.02-0.42,0.07-0.68,0.11c0.05,0.02,0.08,0.04,0.14,0.05
				C124.94,98.07,125.2,98.05,125.21,98.05z"/>
			<path class="st0" d="M203.07,50.64c-0.02-0.18-0.01-1.18-0.07-1.3c-0.03-0.16-0.27-1.26-0.28-1.27c0,0,0.14,1.14,0.17,1.29
				c0.08,0.32,0.03,0.95,0.07,1.29c0,0.23,0.16,1.1,0.12,1.28c0,0.18,0.02,1.29,0.02,1.29s0.02-0.3,0.04-0.62
				c0.02-0.31,0.04-0.64,0.05-0.68C203.21,51.49,203.08,51.07,203.07,50.64z"/>
			<path class="st0" d="M28.36,95.26c-0.48-0.21-1-0.43-1.49-0.64c-0.1-0.04-0.48-0.21-0.82-0.36c-0.34-0.16-0.66-0.31-0.66-0.31
				c0.01,0,0.32,0.18,0.66,0.37c0.35,0.18,0.72,0.36,0.82,0.41c0.07,0.03,1.33,0.57,1.49,0.64c0.39,0.2,1.08,0.55,1.48,0.75
				c0.5,0.22,1.01,0.37,1.52,0.58c-0.5-0.23-1.02-0.47-1.51-0.7C29.64,95.91,28.38,95.27,28.36,95.26z"/>
			<path class="st0" d="M167.31,87.93c0,0-1.34,0.48-1.43,0.52c-0.46,0.19-0.92,0.42-1.39,0.59c0.03-0.01,0.39-0.13,0.75-0.24
				c0.35-0.13,0.69-0.25,0.69-0.25S167.3,87.94,167.31,87.93z"/>
			<path class="st0" d="M12.47,85.88c0.45,0.41,0.92,0.66,1.39,1.03c-0.04-0.03-0.38-0.31-0.72-0.58c-0.17-0.13-0.33-0.27-0.44-0.39
				c-0.12-0.11-0.19-0.18-0.19-0.18c-0.05-0.04-1.34-1.11-1.34-1.11S12.39,85.81,12.47,85.88z"/>
			<path class="st0" d="M44.68,15.26c0.11-0.01,0.27-0.04,0.42-0.07c0.14-0.05,0.26-0.1,0.39-0.13c-0.24,0.03-0.39,0.04-0.39-0.05
				L44.68,15.26z"/>
			<path class="st0" d="M52.44,13.63l-0.19,0.06c-0.24,0.08-0.45,0.15-0.64,0.21c0.05,0,0.04,0.03-0.02,0.07
				c0.47-0.1,1.01-0.25,1.59-0.42L52.44,13.63z"/>
			<path class="st0" d="M41.84,14.77l0.26,0.14c2.04-0.8,1.91-0.87,2.47-1.2L41.84,14.77z"/>
			<polygon class="st0" points="48.74,10.77 48.27,10.92 47.66,11.25 48.82,10.87 			"/>
			<path class="st0" d="M47.08,14.85l0.63-0.13c0.2-0.09,1.02-0.46,0.39-0.32L47.08,14.85z"/>
			<polygon class="st0" points="47.45,11.48 46.14,11.87 46.69,11.82 			"/>
			<path class="st0" d="M46.52,12.03l-0.52,0.16c1.23-0.17-1.97,0.97-0.98,0.82C46.84,12.49,46.98,12.06,46.52,12.03z"/>
			<path class="st0" d="M47.21,13.52l-0.79,0.41c0.32-0.12,0.98-0.39,1-0.47L47.21,13.52z"/>
			<path class="st0" d="M45.38,13.29c-0.51,0.03-0.77,0.15-1.2,0.29l0.68-0.07L45.38,13.29z"/>
			<path class="st0" d="M40.9,16.24l0.85-0.21c0.27-0.13,1.37-0.66,0.52-0.45L40.9,16.24z"/>
			<path class="st0" d="M52.75,14.03c0.58-0.14,1.29-0.39,1.96-0.63c-0.73,0.2-1.44,0.44-2.15,0.66
				C52.66,14.04,52.73,14.03,52.75,14.03z"/>
			<polygon class="st0" points="42.73,12.78 42.71,12.79 42.74,12.78 			"/>
			<path class="st0" d="M45.99,14.28c-0.38,0.03-0.76,0.06-0.77,0.16l0.38-0.03c0.04,0.15,1.48-0.37,2.35-0.64L45.99,14.28z"/>
			<path class="st0" d="M56.53,12.89c-0.09,0.06,0.23,0.17,0.94-0.04C57.43,12.78,56.92,12.8,56.53,12.89z"/>
			<path class="st0" d="M51.52,11.41c0.05-0.05-0.47-0.08-1.16,0.16C50.51,11.61,51.13,11.53,51.52,11.41z"/>
			<path class="st0" d="M66.36,10.25l-1.9,0.54C65.95,10.71,66.46,10.52,66.36,10.25z"/>
			<path class="st0" d="M184.9,78.71c-1.71,1.19-1.56,1.24-2.02,1.65c0.79-0.5,1.53-1.05,2.29-1.58L184.9,78.71z"/>
			<path class="st0" d="M194.92,70.71c-0.47,0.33-0.18-0.08,0.14-0.51c0.32-0.42,0.6-0.89,0.25-0.61c-1.21,1.21-1.15,1.63-0.74,1.47
				L194.92,70.71z"/>
			<path class="st0" d="M187.61,76.44c0.06-0.09-0.27-0.08-0.83,0.35C186.86,76.85,187.3,76.66,187.61,76.44z"/>
			<path class="st0" d="M157.71,91.55c-0.38,0.06-1.21,0.29-1.52,0.41C156.26,91.98,157.25,91.8,157.71,91.55z"/>
			<path class="st0" d="M83.75,14.64l-3.62,0.72L80.31,15c-3.68,0.16,2.52-0.86,1.74-1.2c-0.76-0.02-1.65-0.13-2.53-0.24
				c-1.3,0.15-0.25-0.35-2.19-0.04l-1.59,0.48c0.08,0,0.15,0,0.23,0l0.53-0.14L76.14,14c1.44,0.01,2.35,0.12-1.09,0.72
				c-0.77,0,1.16-0.36,0.61-0.41c-0.21,0.04-0.37,0.07-0.51,0.09l-0.22,0.09c0.02-0.02-0.01-0.02-0.03-0.03
				c-0.33,0.08-0.49,0.15-0.6,0.22l-0.01,0c-0.15-0.02-0.4-0.02-0.65-0.02c0.11-0.05,0.15-0.08,0.18-0.11
				c-0.27,0.03-0.37,0.02-0.04-0.09c-0.15-0.05-0.52-0.07-1.05-0.04l0.54-0.11l0.06-0.02c0.07,0,0.15,0,0.2,0
				c0.35-0.01,0.65,0,0.94,0l0.11-0.02c-0.14-0.09-0.34-0.15-0.56-0.22l0.52-0.18l0.75-0.16l0.29-0.29l-1.28,0.27l-0.18,0.3
				c-0.05,0.02-0.1,0.03-0.15,0.04l-0.34-0.1c-0.36,0-0.77,0.02-1.18,0.04l0.76-0.23l-0.87,0.07L71.9,14
				c-0.3,0.01-0.6,0.03-0.89,0.04c-0.33,0.02-0.69,0.04-1.06,0.07c0.11,0,0.23,0,0.3,0.01l-0.19,0.22c-1.4,0.28-3.34,0.56-2.52,0.14
				c0.48-0.15,0.98-0.24,1.44-0.3c-0.45-0.04-0.98-0.05-1.92,0.09c-0.17,0.08-0.34,0.14-0.52,0.19c-0.27,0-0.68-0.01-0.77-0.01
				c-0.15,0-0.4,0-0.67,0.01c-0.23,0.15-0.69,0.35-1.26,0.44l-0.2,0.14l1.06-0.2l-0.01-0.08l0.75-0.07l-0.89,0.21
				c-0.3,0.17-0.02,0.23-0.85,0.48c-0.9,0.17-1.23,0.45-1.98,0.55c-1.66,0.49,0.13-0.23-0.77-0.06l0.74-0.17
				c4.59-0.87,1.37-0.62,0.8-0.39l0.09-0.11c0.43-0.05,1.32-0.3,1.14-0.35L62.62,15c-0.09,0.1-0.98,0.35-1.45,0.48
				c-0.75,0.09-1.73,0.45-2.63,0.61l-0.15,0.07l-0.9,0.16c0.63-0.13,0.87-0.32,1.01-0.47c1-0.24,0.93-0.01,2.02-0.32
				c0.28-0.26,0.07-0.23-0.78-0.1l1.21-0.31l0.65-0.02c0.85-0.45,1.42-0.31,2.17-0.42l0.18,0.09l0.8-0.14l0.09-0.15l0.09-0.03
				l-0.22,0.01c-0.23,0.02-1.32,0.21-1.6,0.24c-0.45,0.05-0.74,0.01-1.24,0.09c-0.25,0.05-1.44,0.29-1.66,0.33
				c-0.24,0.05-1.4,0.3-1.69,0.36c-0.3,0.05-1.16,0.15-1.39,0.18c-0.2,0.02-1.17,0.16-1.48,0.22c-0.57,0.11-1.18,0.33-1.75,0.46
				c-0.43,0.1-1.1,0.21-1.57,0.33c-0.56,0.14-1.22,0.36-1.77,0.51c-0.56,0.15-1.22,0.37-1.77,0.53c-0.56,0.17-1.08,0.27-1.65,0.45
				c-0.57,0.18-1.18,0.44-1.74,0.62c-0.58,0.17-1.12,0.32-1.71,0.49c0.08-0.03,1.75-0.63,1.75-0.63s-1.66,0.48-1.75,0.51
				c-0.4,0.11-1.46,0.57-1.74,0.69l-1.69,0.71c-0.25,0.11-1.3,0.56-1.54,0.66c-0.3,0.12-1.32,0.46-1.55,0.57
				c-0.11,0.05-1.48,0.6-1.54,0.62c-0.51,0.25-1.03,0.5-1.45,0.71c-0.35,0.17-1.27,0.62-1.45,0.71c0.1-0.04,1.51-0.62,1.54-0.63
				c0,0-0.39,0.2-0.77,0.38c-1.21,0.45-2.38,1.03-3.56,1.55c-1.14,0.54-1.37,0.73-1.41,0.86c-0.05,0.03-0.11,0.06-0.16,0.09
				c-0.21,0.09-1.39,0.68-1.5,0.75c-0.05,0.03,0.3-0.19,0.66-0.41c0.37-0.21,0.74-0.41,0.75-0.42c-0.02-0.03-1.59,0.8-1.5,0.75
				c0.11-0.09,1.1-0.68,1.41-0.83c0.1-0.05,0.46-0.25,0.79-0.43c0.33-0.18,0.63-0.35,0.63-0.35s-0.36,0.16-0.72,0.33
				c-0.36,0.17-0.74,0.35-0.79,0.37c-0.95,0.52-1.87,1.13-2.81,1.7l-1.39,0.86c-0.47,0.28-0.92,0.59-1.37,0.91
				c-0.12,0.09-0.3,0.21-0.48,0.34c-0.23,0.08-0.45,0.15-0.64,0.21c-0.33,0.28-0.59,0.53-0.84,0.76c-0.33,0.2-0.69,0.41-0.86,0.52
				c-0.47,0.29-0.87,0.69-1.32,1.01c-0.53,0.36-0.88,0.61-1.41,0.98c-0.28,0.2-1.11,0.74-1.41,1c-0.35,0.32-0.91,0.83-1.25,1.14
				c-0.3,0.24-1.14,0.91-1.36,1.09c-0.27,0.18-1.23,1.11-1.32,1.17c-0.04,0.03,0.26-0.28,0.57-0.6c0.15-0.16,0.31-0.32,0.44-0.43
				c0.12-0.11,0.2-0.19,0.2-0.19c-0.04-0.04-1.22,1.09-1.31,1.17c-0.42,0.41-0.89,0.8-1.3,1.21c-0.08,0.09-0.35,0.37-0.62,0.65
				c-0.25,0.29-0.48,0.6-0.53,0.65c0.04-0.04,0.27-0.29,0.59-0.62c0.33-0.31,0.67-0.63,0.68-0.64c0,0-0.32,0.34-0.62,0.66
				c-0.3,0.34-0.57,0.69-0.53,0.64c0.08-0.08,0.31-0.34,0.56-0.6c0.26-0.25,0.54-0.51,0.7-0.66l1.29-1.2
				c-0.44,0.47-0.73,0.77-1.18,1.25c-0.29,0.29-0.98,0.89-1.26,1.25c-0.31,0.36-0.77,0.98-1.09,1.36c-0.2,0.24-1.05,1.12-1.19,1.35
				c-0.21,0.27-1.05,1.37-1.1,1.45c-0.04,0.04,0.21-0.33,0.47-0.71c0.26-0.38,0.52-0.77,0.52-0.77s-1.03,1.35-1.11,1.46
				c-0.16,0.24-0.88,1.28-0.96,1.51c-0.27,0.5-0.65,1.2-0.86,1.59c-0.16,0.29-0.81,1.49-0.81,1.62c-0.01,0.05,0.17-0.39,0.43-0.79
				c0.24-0.41,0.5-0.82,0.5-0.82s-0.79,1.44-0.81,1.61c-0.1,0.2-0.73,1.51-0.82,1.69c-0.28,0.56-0.55,1.13-0.75,1.75
				c-0.18,0.52-0.42,1.18-0.64,1.81c-0.11,0.19-0.34,1.56-0.38,1.85c-0.06,0.27-0.37,1.67-0.43,1.9c-0.03,0.23-0.2,1.65-0.22,1.95
				c-0.04,0.4-0.07,1.61-0.01,1.91c0.04,0.56,0.09,1.23,0.14,1.91c-0.01,0.43,0.21,1.42,0.29,1.88c0.11,0.64,0.14,1.29,0.28,1.93
				c-0.04-0.09-0.38-1.86-0.38-1.86s0.22,1.77,0.29,1.94c0.07,0.22,0.5,1.6,0.56,1.81c0.04,0.14,0.16,0.5,0.28,0.87
				c0.13,0.37,0.3,0.72,0.37,0.89c0.23,0.58,0.43,1.22,0.67,1.79c0.22,0.58,0.53,1.17,0.8,1.72c0.24,0.44,0.66,1.14,0.93,1.59
				c0.32,0.52,0.66,1.07,0.99,1.59c0.25,0.38,0.77,1.08,1.09,1.44c0.16,0.21,0.98,1.29,1.11,1.46c0.09,0.11,0.31,0.41,0.54,0.71
				c0.25,0.28,0.51,0.56,0.63,0.7c0.21,0.2,1.09,1.06,1.27,1.23c0.18,0.21,1.06,0.94,1.31,1.16c0.42,0.39,0.9,0.84,1.31,1.23
				c0,0,0.07,0.05,0.18,0.15c0.11,0.09,0.26,0.22,0.43,0.33c0.33,0.23,0.68,0.49,0.77,0.56c0.06,0.05,1.24,1,1.37,1.11
				c0.39,0.32,1.05,0.67,1.44,0.93c0.5,0.3,1.04,0.64,1.45,0.89c0.11,0.07,0.4,0.24,0.71,0.42c0.3,0.16,0.6,0.33,0.74,0.4
				c0.39,0.24,1.06,0.66,1.43,0.89c-0.13-0.07-1.44-0.77-1.45-0.77c0,0,1.33,0.83,1.43,0.89c0.23,0.13,1.26,0.68,1.45,0.76
				c0.43,0.21,0.95,0.45,1.47,0.7c0.33,0.16,1.11,0.53,1.47,0.7c0.49,0.26,0.96,0.55,1.47,0.78c0.56,0.28,0.94,0.48,1.48,0.75
				c0,0,0.33,0.13,0.68,0.28c0.35,0.15,0.72,0.31,0.81,0.35c0.09,0.04,1.34,0.51,1.51,0.58c0.31,0.14,1.24,0.57,1.51,0.69
				c0.48,0.19,1.14,0.44,1.52,0.56l3.04,1.03c0.06,0.05,1.58,0.62,1.53,0.61c-0.02,0,0.36,0.14,0.75,0.28
				c0.39,0.14,0.79,0.3,0.79,0.3s-0.36-0.1-0.73-0.22c-0.37-0.12-0.76-0.24-0.81-0.24c-0.05-0.01-0.44-0.13-0.81-0.24
				C37.79,99.12,37.43,99,37.43,99s0.33,0.14,0.68,0.29c0.36,0.13,0.74,0.28,0.85,0.32c0.08,0.02,1.37,0.41,1.54,0.46
				c0.51,0.19,1.04,0.39,1.54,0.58c0.51,0.18,1.03,0.26,1.54,0.42c0.52,0.16,1.04,0.37,1.56,0.53c1.04,0.36,2.08,0.7,3.13,1.01
				c0.51,0.12,1.05,0.24,1.56,0.36c0.11,0.03,0.5,0.12,0.86,0.2c0.36,0.09,0.7,0.15,0.7,0.15s-1.63-0.48-1.57-0.48
				c0.06,0-1.52-0.45-1.57-0.48c0.03,0.01,1.37,0.32,1.55,0.36l1.55,0.36l1.58,0.43c0.38,0.11,1.08,0.3,1.57,0.43
				c0.28,0.07,1.23,0.24,1.56,0.31c0.36,0.09,1.26,0.31,1.58,0.39c0.57,0.14,1.1,0.27,1.59,0.39c0.27,0.06,1.23,0.32,1.59,0.38
				c0.21,0.03,1.4,0.2,1.57,0.23c0.38,0.05,1.09,0.16,1.58,0.23c0.25,0.04,1.29,0.3,1.59,0.34c0.43,0.07,1.13,0.12,1.57,0.19
				c0.36,0.07,1.29,0.24,1.6,0.3c0.47,0.06,1.21,0.15,1.57,0.18c0.49,0.04,1.01,0.09,1.58,0.15c0.43,0.04,1.08,0.1,1.58,0.15
				c0.42,0.05,1.16,0.21,1.61,0.26c0.53,0.05,1.05,0.06,1.58,0.11c0.36,0.05,1.28,0.18,1.61,0.22c0.29,0.04,1.18,0.16,1.61,0.22
				c0.22,0.03,1.59,0.18,1.61,0.19c-0.02,0-1.49-0.07-1.58-0.07c0.42,0.05,1.11,0.13,1.62,0.18c0.25,0.03,1.32,0.15,1.62,0.18
				c0.38,0.02,1.24,0.05,1.58,0.07c-0.15-0.02-1.39-0.16-1.62-0.18l1.59,0.07l1.58,0.04c0.23,0,1.26,0.02,1.58,0.03
				c0.25,0.02,1.41,0.13,1.61,0.14c0.5,0.05,1.04,0.08,1.62,0.12c0.44,0.03,1.12,0.07,1.62,0.11c0.43,0.02,1.13-0.02,1.58-0.01
				c0.54,0.02,1.07,0.08,1.62,0.09c0.24-0.01,1.38-0.04,1.58-0.04c0.46-0.01,1.02-0.03,1.58-0.04c0.35-0.01,1.19-0.04,1.58-0.06
				c0.54,0.01,1.07,0.02,1.62,0.03c0.34,0.01,1.36,0.03,1.62,0.03c0.26,0,1.28,0.04,1.62,0.02c0.23-0.02,1.39-0.1,1.57-0.12
				c0.22-0.02,1.29-0.1,1.58-0.12c0.28,0,1.4-0.01,1.62-0.01c0.19-0.01,1.4-0.04,1.62-0.04c0.36-0.04,1.28-0.12,1.57-0.15
				c0.24-0.02,1.27-0.12,1.57-0.15c0.44-0.02,1.21-0.04,1.62-0.07c0.61-0.07,0.96-0.12,1.57-0.19c0.42-0.02,1.17-0.06,1.62-0.08
				c0.33-0.02,1.29-0.17,1.57-0.21c-0.02,0-0.38,0.03-0.79,0.06c-0.41,0.02-0.82,0.05-0.83,0.05c0.03,0,1.38-0.19,1.56-0.21
				l1.56-0.23c0.06,0,0.46-0.03,0.85-0.06c0.39-0.03,0.77-0.06,0.77-0.06s-0.42,0.06-0.83,0.12c-0.41,0.06-0.8,0.11-0.74,0.11
				c0.21-0.02,1.23-0.09,1.62-0.12c0.54-0.04,1.08-0.08,1.62-0.14c0.3-0.03,1.21-0.12,1.61-0.16c0.18-0.03,1.4-0.24,1.56-0.27
				c0.52-0.09,1.04-0.17,1.56-0.28c0.39-0.08,1.05-0.21,1.55-0.3c0.27-0.03,1.3-0.16,1.61-0.2c0.5-0.08,1.06-0.22,1.55-0.31
				c0.58-0.09,1.03-0.16,1.61-0.24c0.42-0.08,1.1-0.26,1.54-0.34c0.53-0.08,1.08-0.16,1.61-0.24c-0.1,0.02-1.55,0.35-1.55,0.35
				s1.52-0.23,1.61-0.24c0.54-0.12,1.01-0.27,1.54-0.38c0.53-0.09,1.08-0.19,1.6-0.28c0.52-0.13,1.02-0.25,1.54-0.38
				c0.54-0.11,1.06-0.21,1.6-0.32c0.48-0.11,1.04-0.31,1.53-0.43c0.33-0.07,1.32-0.27,1.59-0.33c0.49-0.13,1.15-0.35,1.52-0.46
				l1.52-0.47c0.32-0.1,1.08-0.34,1.52-0.47c0.34-0.09,1.2-0.3,1.58-0.41c0.43-0.13,1.09-0.39,1.5-0.51
				c0.6-0.16,0.98-0.26,1.58-0.42c-0.07,0.02-1.5,0.51-1.5,0.51s1.5-0.4,1.58-0.42c0.34-0.1,1.25-0.46,1.5-0.55
				c0.44-0.16,0.96-0.36,1.49-0.56c0.33-0.12,1.12-0.42,1.49-0.56c0.31-0.1,1.29-0.42,1.55-0.51c0.2-0.07,1.54-0.52,1.56-0.52
				c0,0-0.34,0.15-0.7,0.29s-0.73,0.29-0.78,0.32c-0.09,0.05-1.48,0.6-1.48,0.6s0.37-0.11,0.74-0.24c0.37-0.13,0.76-0.26,0.81-0.27
				c0.25-0.1,1.28-0.53,1.48-0.61c0.45-0.19,0.94-0.39,1.47-0.61c0.39-0.18,1-0.45,1.46-0.66c0.4-0.15,1.11-0.41,1.54-0.57
				c0.37-0.15,1.13-0.52,1.45-0.66l-1.54,0.57c0.01-0.01,1.27-0.58,1.45-0.66c0.1-0.04,1.34-0.55,1.52-0.63
				c0.4-0.18,1.03-0.53,1.44-0.72c0.27-0.13,1.3-0.53,1.51-0.64c0.02-0.01-0.32,0.19-0.69,0.36c-0.36,0.18-0.73,0.37-0.74,0.37
				c0.01-0.01,0.33-0.13,0.69-0.28c0.36-0.15,0.74-0.33,0.83-0.37c0.2-0.09,1.25-0.57,1.5-0.69c0.26-0.14,1.22-0.67,1.41-0.77
				c0.48-0.25,0.94-0.53,1.4-0.81c0.4-0.24,0.89-0.53,1.39-0.83c0.15-0.09,1.26-0.63,1.47-0.76c0.2-0.13,1.2-0.79,1.36-0.89
				l1.35-0.89c0.97-0.54,1.9-1.17,2.85-1.75l-1.32,0.96c-0.33,0.23-0.9,0.67-1.34,0.94c-0.25,0.14-1.15,0.65-1.45,0.82
				c-0.47,0.28-0.89,0.6-1.36,0.89l2.91-1.64c0.46-0.29,0.89-0.62,1.34-0.94l1.32-0.96c0.39-0.29,0.85-0.61,1.31-0.98
				c0.14-0.1,1.18-0.82,1.38-0.96c0.33-0.24,0.99-0.8,1.28-1.03c0.44-0.39,0.87-0.78,1.24-1.1c0.18-0.16,1-0.89,1.23-1.1
				c0.22-0.17,1.13-0.97,1.3-1.11c0.09-0.08,1.24-1.08,1.29-1.12c0.43-0.41,0.8-0.88,1.13-1.24c0.34-0.39,0.84-0.94,1.12-1.25
				c0.21-0.22,1-1.23,1.06-1.31c0.04-0.08-1.14,1.3-1.18,1.27c0,0,0.26-0.29,0.51-0.61c0.26-0.32,0.52-0.65,0.55-0.69
				c0.21-0.23,0.99-1.1,1.16-1.29c0.17-0.16,0.98-1.27,1.09-1.37c0.07-0.07-0.97,1.4-0.97,1.4s0.07-0.06,0.16-0.18
				c0.09-0.12,0.21-0.27,0.34-0.43c0.25-0.32,0.52-0.67,0.59-0.76c0.25-0.32,0.76-0.96,1.07-1.4c0.64-1,1.36-1.94,1.94-3l0.76-1.58
				c0.13-0.2,0.56-1.34,0.67-1.63c0.13-0.29,0.64-1.43,0.74-1.66c0.05-0.14,0.58-1.63,0.61-1.73c0.18-0.57,0.35-1.28,0.42-1.75
				c0.09-0.48,0.29-1.49,0.33-1.78c-0.03,0.11-0.44,1.76-0.45,1.8c0.01-0.04,0.29-1.56,0.32-1.76c0.11-0.59,0.13-1.19,0.19-1.79
				c0.07-0.6,0.22-1.23,0.23-1.84c0.01-0.26,0.09-1.83,0.09-1.86c0,0.01,0.02,1.73,0.02,1.81c0.02-0.31,0.08-1.44,0.09-1.87
				c0.04-0.49-0.13-1.3-0.15-1.81c-0.04-0.33-0.05-1.6-0.13-1.86c-0.13-0.6-0.27-1.29-0.37-1.77c-0.06-0.44-0.4-1.53-0.48-1.74
				c-0.02-0.06,0.09,0.39,0.21,0.85c0.12,0.46,0.17,0.96,0.17,0.96c0,0-0.03-0.1-0.06-0.25c-0.04-0.15-0.07-0.37-0.13-0.58
				c-0.12-0.42-0.25-0.85-0.28-0.9c-0.15-0.6-0.3-1.18-0.45-1.79c-0.2-0.58-0.4-1.16-0.6-1.72c-0.2-0.58-0.4-1.15-0.67-1.7
				c-0.23-0.5-0.58-1.27-0.75-1.65c-0.1-0.33-0.81-1.46-0.85-1.59c-0.02-0.05,0.22,0.32,0.46,0.71c0.25,0.37,0.47,0.79,0.47,0.79
				c0.04-0.03-0.73-1.37-0.85-1.59c0.04,0.08-0.92-1.44-0.96-1.46c-0.04-0.04-0.3-0.39-0.55-0.72c-0.25-0.34-0.5-0.65-0.5-0.65
				s0.25,0.38,0.51,0.75c0.25,0.37,0.5,0.74,0.48,0.72c-0.04-0.03-0.96-1.29-1.05-1.37c-0.03-0.03,0.22,0.33,0.47,0.71
				c0.25,0.37,0.51,0.76,0.51,0.76s-0.25-0.32-0.5-0.65c-0.25-0.33-0.51-0.68-0.55-0.72c-0.63-1-1.36-1.91-2.08-2.83
				c-0.36-0.46-0.71-0.93-1.11-1.35c-0.17-0.19-0.94-1.04-1.16-1.29c-0.19-0.21-1.06-1.02-1.24-1.14c-0.4-0.34-0.96-0.82-1.27-1.08
				c-0.24-0.2-1.19-1.03-1.29-1.06c-0.17-0.15-0.97-0.84-1.29-1.11c-0.41-0.35-0.82-0.73-1.3-1.1c-0.11-0.07-1.18-0.79-1.37-0.91
				c-0.25-0.19-1.13-0.87-1.34-1.03c-0.25-0.2-1.04-0.74-1.37-0.97c-0.19-0.11-1.24-0.74-1.4-0.83c-0.47-0.28-0.94-0.56-1.42-0.8
				c-0.32-0.17-1-0.53-1.43-0.76c-0.11-0.07-1.29-0.8-1.41-0.88c-0.21-0.12-1.18-0.67-1.44-0.82c-0.25-0.12-1.26-0.6-1.46-0.69
				c-0.43-0.2-0.94-0.44-1.47-0.67c-0.33-0.14-1.11-0.47-1.48-0.63c-0.48-0.25-0.99-0.5-1.47-0.75c-0.26-0.14-1.28-0.6-1.49-0.7
				c-0.27-0.12-1.15-0.53-1.5-0.69c-0.2-0.08-1.32-0.51-1.5-0.56c-0.23-0.08-1.22-0.42-1.51-0.51c-0.26-0.11-1.31-0.55-1.52-0.63
				c0.06,0.02,1.5,0.51,1.51,0.51c0,0-1.42-0.59-1.51-0.63c-0.27-0.11-1.31-0.43-1.52-0.49c-0.41-0.12-1.01-0.3-1.53-0.46
				c-0.2-0.08-1.27-0.48-1.53-0.58c-0.22-0.09-1.35-0.38-1.53-0.42c-0.24-0.06-1.21-0.32-1.54-0.41c-0.45-0.14-1.09-0.38-1.55-0.53
				c-0.41-0.13-1.11-0.25-1.54-0.37c-0.5-0.13-1.07-0.34-1.56-0.48c-0.59-0.18-0.96-0.3-1.56-0.48c-0.41-0.1-1.12-0.21-1.55-0.31
				c-0.53-0.15-1.04-0.29-1.57-0.43c-0.25-0.05-1.36-0.27-1.55-0.31c-0.21-0.04-1.28-0.22-1.56-0.27c-0.27-0.07-1.36-0.33-1.58-0.39
				c-0.14-0.03-1.44-0.36-1.58-0.38c-0.45-0.07-1.23-0.18-1.56-0.23l-3.13-0.45c-0.35-0.07-1.29-0.25-1.59-0.3
				c-0.1-0.02-0.5-0.09-0.87-0.16c-0.37-0.07-0.73-0.14-0.73-0.14s0.37,0.04,0.75,0.09c0.38,0.05,0.77,0.1,0.82,0.1
				c0.05,0,0.44,0.05,0.82,0.1s0.74,0.09,0.74,0.09s-0.35-0.07-0.72-0.14c-0.37-0.07-0.77-0.14-0.87-0.16
				c-0.11-0.01-1.54-0.18-1.57-0.18c-0.53-0.08-1.07-0.22-1.6-0.3c-0.52-0.07-1.05-0.08-1.57-0.15c-0.61-0.06-0.96-0.09-1.57-0.14
				c-0.42-0.07-1.16-0.19-1.6-0.26c-0.53-0.06-1.04-0.05-1.57-0.11c-0.44-0.06-1.14-0.16-1.61-0.22c-0.53-0.04-1.04-0.07-1.57-0.11
				c-0.53-0.05-1.07-0.14-1.61-0.19c-0.23-0.01-1.39-0.06-1.57-0.07c-0.44-0.02-1.29-0.06-1.57-0.07c0.04,0,1.49,0.17,1.61,0.18
				c0.22,0.03,1.59,0.18,1.61,0.18c0,0-0.37-0.01-0.75-0.03c-0.38-0.02-0.77-0.04-0.82-0.04l-1.61-0.18
				c-0.54-0.07-1.07-0.1-1.61-0.16c-0.55-0.05-1.06-0.1-1.61-0.14c-0.25-0.02-1.31-0.12-1.61-0.14c-0.54-0.03-1.03,0.01-1.57-0.01
				c0.05,0,0.45,0.03,0.84,0.05c0.39,0.03,0.77,0.07,0.77,0.07c-0.02,0-1.37-0.01-1.58-0.01c-0.13-0.01-1.4-0.09-1.62-0.11
				c-0.23,0-1.39,0.01-1.57,0.01c-0.33,0-1.13,0.02-1.57,0.02c-0.36-0.02-1.22-0.05-1.61-0.07c-0.53,0-1.04,0.04-1.57,0.04
				c-0.53,0-1.04,0.04-1.57,0.05c-0.28-0.01-1.4-0.03-1.61-0.03c-0.54,0.03-1.14,0.06-1.57,0.08l-1.33,0.07
				c-0.69-0.02-1.45,0.06-1.9,0.13c-0.46,0.03-0.94,0.07-1.47,0.11c-0.04,0-0.17,0-0.34,0c-0.09-0.02-0.18-0.04-0.24-0.05l-0.3,0.05
				c-0.32,0-0.64,0-0.74,0c-0.05,0-0.15,0.01-0.21,0.01L96.1,0.46c-0.19,0.04-0.21,0.09-0.16,0.14c-0.02,0-0.06,0.01-0.07,0.01
				c-0.45,0.04-0.91,0.09-1.31,0.13c-0.07-0.02-0.14-0.04-0.15-0.06l-1.34,0.07c-0.44,0.08-0.76,0.16-1.13,0.25
				c-0.27,0.03-0.53,0.06-0.75,0.09c0.03,0,0.17-0.01,0.44-0.02c-0.06,0.01-0.12,0.03-0.18,0.04l-0.89,0.08l-0.02-0.14
				c-0.92-0.1-1.71,0.02-2.45,0.14c-0.07,0-0.17,0.01-0.21,0.01c-0.24,0-1.46,0.1-1.76,0.15l-0.01,0C86,1.33,85.89,1.32,85.77,1.29
				c-0.37,0.08-0.5,0.14-0.52,0.18c-0.37,0.06-0.7,0.13-0.7,0.13c0.02,0,0.36-0.04,0.73-0.08c0.03,0.02,0.06,0.03,0.12,0.05
				c-0.29,0.05-0.55,0.1-0.63,0.11c0.24-0.04,0.49-0.06,0.75-0.08l0.25,0.06c-0.64,0.09-1.26,0.18-1.88,0.27l0.03-0.09
				c0.32-0.06,0.68-0.12,0.85-0.16c-0.27,0.03-0.55,0.06-0.83,0.1l0.03-0.11c-1.12,0.15-2.57,0.17-2.86,0.5
				c-0.04,0.01-0.07,0.02-0.11,0.03l-3,0.22c-0.03,0.11-0.66,0.22-1.64,0.41c0.39,0.03,1.49-0.22,1.3-0.24l1.21-0.07l-0.62,0.24
				c-0.39,0.07-0.77,0.14-1.13,0.21L75.32,3.2L74.1,3.14c-0.23,0.35-2.24,0.47-3.87,0.8l-0.2,0.25l-1.15,0.08L68.3,4.5
				c0.62-0.17,0.49,0.03,0.33,0.07l-0.87-0.06c-0.6,0.15-1.2,0.33-1.8,0.49l0.29,0.01L65.31,5.3c-0.6,0.08-1.55,0.2-1.78,0.4
				l0.97,0.04c-1.41,0.25-2.51,0.43-3.34,0.48C59.28,6.78,61.72,6.34,61,6.64c-0.81,0.2-1.33,0.14-2.25,0.45l1.22-0.04l1.28-0.46
				l0.1,0.26L59.1,7.3l-0.87-0.01c-0.56,0.14-1.75,0.49-2.07,0.7l-2.11,0.66c-0.91,0.33,0.02,0.26,0.52,0.15l-0.22,0.21l-1.23,0.18
				c-1.2,0.47-2.1,0.83-2.46,1.11c-0.37,0.38-2.18,0.72-2.53,1.03c0.45-0.07,0.9-0.14,1.35-0.19c-0.36,0.27-1.09,0.59-2.26,0.99
				c0.28,0.08-0.21,0.43-0.51,0.67c1.93-0.69,4.22-1.73,5.58-1.99c-0.01,0.11-0.03,0.32,1.15-0.05l-0.11,0.11
				c-0.45,0.28-1.63,0.64-2.25,0.72l-0.41,0.33c-0.69,0.24-1.66,0.49-1.55,0.28l-0.01,0.21l-1.26,0.41l-0.13-0.25l-1.46,0.63
				L47.41,13l-1.36,0.52l0.28,0.08l2.57-0.97l0.03,0.26c2.6-0.54-0.79,0.6-0.87,0.93c1.27-0.49,2.57-0.82,3.86-1.23
				c-0.47,0.28-1.59,0.75-2.63,1.18c0.31-0.03,0.64-0.05,0.96-0.06c0.96-0.25,0.36,0.19,1.76-0.23l1.07-0.46
				c-1.33,0.16-2.52,0.26,0.24-0.53c0.62-0.08-0.79,0.35-0.31,0.33c1.35-0.36,0.65-0.4,1.52-0.63l0.18,0.1
				c-0.79,0.32-0.22,0.31,0.64,0.2l-0.39,0.11c-0.28,0.13-0.56,0.24-0.84,0.38l-0.53,0.18l-0.11,0.21l0.91-0.3l0.02-0.21
				c0.84-0.37,1.79-0.39,2.07-0.39l-1.23,0.48l0.67-0.11l0.65-0.37c1.54-0.21,1.68,0.06,3.42-0.22c0.66-0.35,1.75-0.38,2.41-0.37
				c1.71-0.46,3.86-0.47,5.44-0.93l-0.3-0.17c1.97-0.43,2.58-0.04,3.53-0.08c1.23-0.69-1.65-0.07-2.63-0.19l2.15-0.52l0.03,0.05
				c-0.47,0.23,0.75,0.05,1.58-0.04c-1.02,0.35-0.18,0.41,0.59,0.36c0.27-0.09,0.54-0.17,0.81-0.25l0.25-0.03
				c1.03-0.32-1.65-0.1-0.79-0.55c0.6,0.11,1.73-0.04,2.6-0.06c-2.03,0.53,0.86,0.24,1.96,0.19C80,9.27,82.31,9.35,84.6,8.77
				c1.25-0.09,2.5-0.21,3.75-0.27c1.78-0.12,0.8-0.27,1.24-0.43c0.08,0,0.17-0.01,0.21-0.01c0.09-0.01,0.24-0.02,0.42-0.04
				c0.12,0.08,0.5,0.04,0.97,0.12c0.65-0.05,1.61-0.15,1.14-0.23c-0.43,0-0.28-0.09-0.12-0.18c0.3-0.01,0.59-0.01,0.67-0.02
				c0.06,0,0.18,0,0.32,0c0.79,0.08,1.51,0.19,1.99,0.28c0.67-0.17,1.04-0.32,1.68-0.46c0.2,0,0.39-0.01,0.63-0.01
				c0.26-0.01,0.61-0.04,0.96-0.06c0.43,0.08,0.96,0.14,2.03,0.05c0.11-0.03,0.13-0.06,0.09-0.08c0.53,0,1.12,0.01,1.54,0.01
				c0.2,0.01,1.28,0.03,1.54,0.04c0.3-0.01,1.29-0.06,1.54-0.07c0.23-0.01,1.24-0.06,1.54-0.07c0.25-0.01,1.36,0.07,1.54,0.07
				c0.53-0.01,1.09-0.02,1.53-0.03c1.03-0.01,2.05-0.06,3.08-0.05c0,0,0.42,0.03,0.82,0.06c0.4,0.03,0.78,0.05,0.72,0.06
				c-0.2,0-1.17,0-1.54,0c-0.11,0-0.49,0-0.85,0c-0.36,0.01-0.69,0.02-0.69,0.02c0.02,0,1.33,0.08,1.54,0.1l1.54,0.12l1.54,0
				c0.51,0,1.02,0,1.54,0.02c0.4,0.01,1.04,0.03,1.54,0.04c0.21,0.02,1.27,0.13,1.54,0.15c0.41,0.03,1.11,0,1.53,0.05
				c0.46,0.04,1.09,0.15,1.53,0.19c0.37,0.02,1.24,0.06,1.53,0.08c0.23,0.01,1.24,0.05,1.53,0.08c0.52,0.06,1,0.16,1.53,0.23
				c0.32,0.05,1.28,0.19,1.52,0.22c0.27,0.04,1.16,0.17,1.53,0.22c0.2,0.02,1.34,0.13,1.52,0.15c0.24,0.02,1.23,0.12,1.53,0.15
				c0.26,0.05,1.31,0.23,1.52,0.26c-0.06-0.01-1.51-0.15-1.53-0.15c0.01,0,1.37,0.24,1.51,0.26c0.15,0.02,1.38,0.17,1.52,0.19
				l3.04,0.38c0.06,0.02,1.55,0.33,1.5,0.33c-0.07,0.01-1.4-0.23-1.51-0.22c-0.04,0,0.34,0.07,0.72,0.16
				c0.38,0.08,0.78,0.18,0.78,0.18s-1.61-0.26-1.51-0.22c0.13,0.03,1.25,0.28,1.5,0.33c0.4,0.08,1.09,0.15,1.51,0.23
				c0.5,0.09,1,0.24,1.5,0.34l1.5,0.26c0.42,0.07,1.22,0.22,1.5,0.27c0.03,0.01,1.31,0.33,1.49,0.38c0.23,0.06,1.17,0.33,1.47,0.42
				c0.23,0.05,1.31,0.27,1.49,0.31l1.49,0.31l1.48,0.35l2.97,0.71c0.31,0.11,1.17,0.41,1.44,0.51c0.09,0.03,0.45,0.16,0.79,0.27
				c0.34,0.12,0.65,0.23,0.65,0.23s-0.34-0.09-0.7-0.19c-0.35-0.1-0.72-0.2-0.77-0.21c-0.05-0.01-0.42-0.11-0.77-0.21
				c-0.35-0.1-0.7-0.19-0.7-0.19c0.01,0,1.27,0.45,1.44,0.51c0.22,0.06,1.2,0.32,1.47,0.4c0.35,0.11,1.11,0.4,1.43,0.52
				c0.44,0.13,1.1,0.34,1.45,0.44c0.23,0.07,1.18,0.36,1.45,0.44c0.41,0.14,1.02,0.42,1.41,0.57c0.55,0.19,0.88,0.3,1.43,0.49
				c0.38,0.14,1,0.45,1.4,0.6c0.47,0.18,0.95,0.34,1.41,0.53c0.35,0.14,1,0.49,1.36,0.65c0.2,0.09,1.25,0.47,1.4,0.55
				c0.18,0.08,1.16,0.5,1.38,0.6c0.25,0.13,1.14,0.59,1.33,0.7c0.13,0.05,1.23,0.66,1.32,0.73c0.41,0.2,1.03,0.5,1.35,0.65
				l1.35,0.65l1.31,0.7c0.86,0.48,1.77,0.91,2.61,1.44c0.29,0.2,0.97,0.68,1.22,0.86c-0.03-0.02-1.17-0.7-1.27-0.76
				c-0.09-0.05-0.41-0.24-0.7-0.42c-0.31-0.17-0.59-0.31-0.59-0.31s0.27,0.18,0.56,0.36c0.28,0.2,0.59,0.41,0.67,0.47
				c0.3,0.21,0.83,0.59,1.21,0.86c0.08,0.06,1.17,0.69,1.26,0.77c0.29,0.2,0.84,0.57,1.22,0.82c0.18,0.14,0.94,0.74,1.16,0.91
				c0.32,0.23,0.85,0.61,1.17,0.87c0.36,0.3,0.74,0.67,1.1,0.97c0.33,0.25,0.83,0.79,1.04,1c0.25,0.25,0.7,0.7,1.02,1.02
				c0.2,0.17,0.85,0.74,1.05,0.97c0.32,0.34,0.62,0.73,0.94,1.07c0.2,0.17,0.84,0.88,0.97,1.02l0.94,1.05
				c0.18,0.17,0.68,0.82,0.87,1.09c0.09,0.15,0.68,1.04,0.76,1.17c0.18,0.29,0.44,0.84,0.66,1.21c0.11,0.22,0.63,0.89,0.73,1.15
				c0.18,0.38,0.35,0.87,0.54,1.24c0.07,0.12,0.2,0.37,0.32,0.62c0.11,0.25,0.21,0.49,0.25,0.59c0.14,0.33,0.35,0.81,0.52,1.22
				c0.03,0.06,0.08,0.24,0.12,0.45c0.55,1.49,0.95,2.96,0.89,4.38c0,0.12,0.01,0.23,0.01,0.31c0.01,0.34,0.16,0.93,0.13,1.29
				c-0.01,0.39-0.09,0.93-0.09,1.3c0.02,0.32-0.04,1.05-0.06,1.3c-0.03,0.2-0.06,1.06-0.12,1.31c-0.1,0.43-0.26,0.86-0.35,1.28
				c0.02-0.09,0.24-1.3,0.24-1.3c0,0.01-0.31,1.16-0.35,1.28c-0.03,0.14-0.07,0.36-0.1,0.57l0.61-0.71l-0.27,0.75
				c-0.1,0.25-0.23,0.49-0.35,0.72c-0.24,0.47-0.46,0.92-0.69,1.33c-0.15,0.39-0.27,0.72-0.43,1.13c-0.15,0.33-0.41,0.88-0.61,1.21
				c-0.22,0.41-0.37,0.82-0.59,1.23c-0.16,0.35-0.49,0.78-0.72,1.12c-0.17,0.35-0.44,0.82-0.82,1.48l-0.2,0.24
				c-0.18,0.26-0.37,0.54-0.47,0.69c-0.23,0.29-0.64,0.79-0.88,1.1c-0.13,0.14-0.28,0.35-0.44,0.55l-0.48,1.65
				c-1.63,1.49-2.99,2.25-4.54,3.43c-0.19,0.19-0.4,0.38-0.54,0.52l-2.19,1.94c-0.16,0.13-0.39,0.27-0.6,0.42
				c-0.84,0.72-1.67,1.54-2.56,2.22c-0.89,0.68-1.75,1.3-2.55,1.71l0.34,0.13c-2.27,1.21-2.79,1.15-3.24,1.06l-0.12,0.08
				c-0.24,0.16-0.94,0.58-1.28,0.77c-0.14,0.07-1.21,0.6-1.35,0.67c-0.33,0.16-0.92,0.46-1.35,0.65c-0.24,0.13-1.04,0.56-1.32,0.71
				c-0.17,0.08-0.34,0.15-0.52,0.23l-0.12,0.11l-0.94,0.36c-0.38,0.18-0.82,0.32-1.19,0.49c-0.45,0.22-0.9,0.44-1.35,0.66
				c-0.47,0.19-0.94,0.38-1.4,0.57c-0.29,0.13-0.6,0.27-0.9,0.41l0.14-0.01c0.39-0.14,0.8-0.29,0.8-0.29s-0.06,0.04-0.18,0.09
				c-0.11,0.05-0.27,0.12-0.43,0.19c0.4-0.03,0.8-0.07,1.19-0.11c-1.42,0.84-3.61,1.64-5.56,2.32c-1.96,0.67-3.65,1.3-4.09,1.9
				c-5.41,1.56-12.19,3.08-17.44,4.62c-2.13,0.25-4.25,0.54-6.38,0.71l-2.36,1.13c-1.75-0.27-3.28-0.05-4.79,0.29
				c-1.51,0.3-2.99,0.7-4.6,0.82l-1.59-0.53c-3.18,0.2-7.88,2.02-9.15,1.07c-7.75-0.06-14.77,1.61-21.56,0.03
				c-2.21,0.17-4.41,0.23-6.63,0.33c-1.89-0.4-3.85-0.83-5.47-1.29c-0.39-0.03-0.85-0.07-0.97-0.07c-0.33-0.02-1.08-0.08-1.52-0.11
				l-1.05-0.08c-0.01,0.09-0.07,0.17-0.3,0.24c-1.71-0.34-3.6-0.5-5.47-0.67c-1.86-0.21-3.7-0.35-5.26-0.74
				c-2.57-0.65-2.62-0.94-2.43-1.19c-0.19-0.04-0.38-0.09-0.54-0.12c-0.22-0.05-1.19-0.29-1.48-0.37c-0.24-0.04-1.31-0.23-1.5-0.27
				l-0.48-0.08c-0.11,0.29-0.26,0.59-2.48,0.06c-0.71-0.37-1.63-0.77-2.64-1.19c-0.16-0.03-0.29-0.06-0.34-0.07
				c-0.26-0.05-1.13-0.25-1.47-0.34c-0.42-0.11-1.02-0.34-1.45-0.46c-0.31-0.07-1.21-0.29-1.47-0.35c-0.45-0.16-1.09-0.38-1.43-0.5
				c-0.31-0.11-1.03-0.36-1.43-0.5c-0.32-0.11-1.11-0.28-1.45-0.4c-0.48-0.17-0.93-0.38-1.41-0.55s-0.93-0.38-1.41-0.55
				c-0.46-0.16-0.98-0.28-1.43-0.46c0.05,0.02,0.4,0.17,0.73,0.3c0.34,0.13,0.66,0.26,0.67,0.26c0,0-0.31-0.09-0.65-0.2
				c-0.34-0.1-0.7-0.24-0.78-0.26c-0.35-0.12-0.97-0.33-1.42-0.49c-0.24-0.1-1.1-0.47-1.38-0.59c-0.4-0.14-1.04-0.36-1.4-0.52
				c-0.45-0.21-0.96-0.46-1.36-0.64c-0.48-0.23-0.95-0.45-1.36-0.64l-1.32-0.69l-1.33-0.69c-0.35-0.18-0.88-0.46-1.3-0.71
				c-0.08-0.04-1.22-0.59-1.34-0.64c-0.2-0.1-1.08-0.52-1.33-0.64c-0.27-0.14-1.04-0.66-1.25-0.79c0.02,0.01,0.31,0.16,0.63,0.34
				c0.32,0.18,0.66,0.35,0.66,0.35s-1.17-0.73-1.25-0.79c-0.42-0.25-0.82-0.54-1.24-0.79c-0.16-0.08-1.2-0.66-1.25-0.71
				c-0.04-0.02,0.23,0.18,0.54,0.39c0.32,0.2,0.65,0.41,0.66,0.42c0.01,0.01-0.28-0.14-0.58-0.31c-0.31-0.16-0.59-0.36-0.67-0.4
				c-0.28-0.17-1.06-0.66-1.2-0.73c-0.04-0.02,0.24,0.18,0.54,0.39c0.3,0.21,0.6,0.43,0.6,0.43s-0.26-0.15-0.54-0.33
				c-0.28-0.17-0.58-0.36-0.66-0.41c-0.25-0.15-0.87-0.5-1.18-0.75l-1.13-0.81c0,0-0.29-0.25-0.57-0.47
				c-0.29-0.22-0.51-0.47-0.48-0.44c0.09,0.09,0.86,0.64,1.12,0.82c0.27,0.19,1,0.71,1.13,0.8c0.07,0.04-1.03-0.86-1.07-0.9
				c-0.02-0.03,0.26,0.18,0.54,0.38c0.29,0.21,0.58,0.42,0.58,0.42s-0.24-0.21-0.5-0.43c-0.26-0.21-0.53-0.43-0.56-0.47
				c-0.37-0.27-0.77-0.51-1.11-0.82l-1.05-0.87c-0.24-0.21-0.77-0.59-1.03-0.89c-0.15-0.17-0.71-0.82-0.89-1.02
				c-0.25-0.25-0.71-0.65-0.92-0.96c-0.1-0.14-0.71-0.97-0.78-1.07c0.05,0.06,0.86,0.98,0.86,0.99c0,0-0.75-1.02-0.78-1.06
				c-0.24-0.25-0.65-0.82-0.79-1.02l-0.76-1.04c-0.44-0.72-0.87-1.45-1.27-2.19c-0.09-0.27-0.32-0.94-0.41-1.18
				c-0.03-0.07-0.13-0.36-0.22-0.64c-0.06-0.28-0.11-0.54-0.11-0.54s0.1,0.31,0.19,0.61c0.13,0.29,0.26,0.57,0.25,0.53
				c-0.02-0.08-0.1-0.3-0.19-0.53c-0.07-0.24-0.11-0.5-0.15-0.64c-0.05-0.22-0.19-0.89-0.27-1.17c-0.06-0.13-0.21-1.04-0.25-1.16
				c-0.06-0.39-0.21-0.77-0.21-1.17c-0.02-0.29-0.06-0.81-0.09-1.19c0-0.09-0.02-0.33,0.01-0.58c0.04-0.25,0.07-0.5,0.09-0.61
				c0.03-0.32,0.02-0.86,0.04-1.19c0.07-0.4,0.22-0.78,0.3-1.18c0.1-0.38,0.06-0.82,0.22-1.19c0.13-0.39,0.32-0.77,0.44-1.16
				c0.06-0.2,0.11-0.4,0.16-0.6c0.08-0.19,0.15-0.39,0.24-0.58c0.15-0.31,0.44-0.83,0.57-1.13c0.1-0.3,0.45-0.93,0.56-1.15l0.6-1.15
				c0.11-0.28,0.48-0.79,0.71-1.12c0.14-0.17,0.67-0.85,0.83-1.05c0.19-0.3,0.57-0.78,0.82-1.08c0.31-0.33,0.63-0.67,0.94-1
				l-0.85,1.06c-0.25,0.31-0.69,0.82-0.82,1.07c-0.05,0.07-0.23,0.35-0.4,0.61c-0.17,0.26-0.32,0.5-0.32,0.5s0.74-0.94,0.82-1.04
				c0.16-0.26,0.6-0.81,0.81-1.07c0.32-0.36,0.61-0.62,0.93-0.99c0.07-0.07,0.24-0.31,0.44-0.53c0.21-0.22,0.41-0.43,0.46-0.49
				c0.17-0.17,0.73-0.77,0.95-1.01c0.26-0.25,0.74-0.69,1.06-0.92c0.29-0.24,0.74-0.69,1.04-0.95c0.36-0.31,0.75-0.56,1.12-0.87
				c0.3-0.27,0.78-0.65,1.11-0.9c0.38-0.28,0.8-0.52,1.19-0.8c0.4-0.28,0.79-0.53,1.2-0.79c0.33-0.21,0.88-0.62,1.19-0.83
				l-1.26,0.74c0.02-0.01,1.05-0.73,1.19-0.83c0.14-0.1,1.03-0.71,1.19-0.83c0.26-0.17,1.06-0.62,1.28-0.72
				c0.32-0.16,1.15-0.59,1.32-0.67c0.1-0.04-1.25,0.77-1.25,0.77s1.24-0.64,1.32-0.67c0.26-0.16,1.05-0.64,1.25-0.77
				c0.42-0.26,0.83-0.52,1.27-0.75l1.3-0.71l1.3-0.71c0.36-0.19,0.84-0.48,1.31-0.7c0.19-0.07,1.16-0.45,1.4-0.55
				c0.46-0.2,0.89-0.45,1.34-0.65c0.46-0.2,0.89-0.45,1.35-0.65c0.43-0.2,0.98-0.33,1.42-0.51c0.1-0.03,1.4-0.49,1.47-0.51
				c0.03,0-0.33,0.15-0.7,0.3s-0.72,0.31-0.72,0.31S43.74,30.6,44,30.5c0.09-0.04,1.37-0.6,1.54-0.67c0.29-0.12,1.37-0.5,1.63-0.57
				c0.33-0.11,1.27-0.39,1.69-0.55c0.21-0.09,1.33-0.55,1.51-0.63c0.21-0.09,1.24-0.52,1.47-0.62c0.33-0.14,1.38-0.42,1.68-0.54
				c0.49-0.18,1.07-0.42,1.42-0.57c0.21-0.09,1.07-0.45,1.34-0.56c0.39-0.13,1.27-0.42,1.64-0.55c0.53-0.16,1.19-0.37,1.64-0.51
				c0.14-0.04,1.55-0.47,1.64-0.52c0.39-0.15,0.93-0.4,1.18-0.51c0.29-0.12,1.04-0.44,1.12-0.49c0.23-0.07,1.14-0.39,1.52-0.5
				c0.32-0.1,1.19-0.35,1.52-0.48c0.26-0.1,0.68-0.34,0.93-0.44c0.3-0.12,1.14-0.36,1.43-0.48c0.36-0.15,0.46-0.28,0.79-0.42
				c0.26-0.11,1.07-0.36,1.32-0.48c0.15-0.06,0.58-0.34,0.64-0.38c0.02-0.01,0.06-0.04,0.1-0.06c0.15-0.06,0.2-0.1,0.2-0.13
				c0.1-0.07,0.19-0.13,0.26-0.17c0.12-0.06,0.35-0.14,0.58-0.22l0.03,0c1.67-0.46,2.92-0.8,3.52-1.14c0.35-0.24,1.09-0.4,1.81-0.55
				c0.73-0.12,1.45-0.23,1.76-0.38l-1.62-0.05c0.61-0.31,1.67-0.57,3.26-0.84c-0.23-0.19,0.59-0.55,1.11-0.8
				c-1.97,0.35-4.35,0.92-6.12,1.34c-0.04-0.06-0.1-0.12-0.1-0.18c0-0.02,0.13-0.1,0.26-0.18c0.24,0,0.55-0.02,0.95-0.11
				c-0.07-0.05-0.36-0.07-0.69-0.06c0,0,0.02-0.01,0.02-0.01c0.04-0.04-0.03-0.06-0.09-0.09l0.71-0.4c0.96-0.21,2.24-0.35,1.94-0.07
				l0.18-0.29l1.71-0.25l-0.07,0.39l2.12-0.52l-1.41-0.02l1.92-0.39L83.75,14.64z M69.45,5.87c0.03-0.02,0.03-0.04,0.04-0.06
				c0.19-0.01,0.46-0.01,0.65-0.02c-0.04,0.03-0.07,0.07-0.09,0.12c-0.1,0.03-0.18,0.05-0.35,0.09L69.1,6.02
				C69.26,5.96,69.4,5.9,69.45,5.87z M68.13,6.01c-0.04,0.02-0.09,0.03-0.11,0.04c-0.02,0,0-0.01,0-0.02L68.13,6.01z M69.15,9.31
				l-0.99,0.14l-0.75,0.23c0.35-0.16,0.69-0.32,1.04-0.47C68.38,9.36,70.42,8.93,69.15,9.31z M64.84,6.59
				c1.02-0.27,1.75-0.3,2.44-0.37l0.01,0c-0.07,0.08-0.21,0.21-0.17,0.24c-0.77,0.1-1.34,0.01-2.49,0.23
				c0.48,0.02,1.1,0.1,0.04,0.32C63.42,7.21,64.32,6.78,64.84,6.59z M65.68,8.14L64.8,8.22l1.46-0.46
				C67.14,7.68,65.97,8.05,65.68,8.14z M60.86,10.16c0.2-0.05,0.42-0.1,0.66-0.17l0.19-0.05l0.74-0.03
				c-0.59,0.14-1.14,0.25-1.62,0.33C60.9,10.19,60.91,10.17,60.86,10.16z M58.57,8.7c0.62-0.3-0.21-0.27-0.84-0.21
				c0.45-0.17,0.91-0.31,1.37-0.46c0.01,0.26,1.74,0.02,0.85,0.48l-1.83,0.34l-1.96,0.71l-0.18-0.1C56.84,9.2,57.7,8.93,58.57,8.7z
				 M58.52,9.63c0,0-0.91,0.4-1.02,0.43c-0.23,0.08-1.16,0.38-1.36,0.45c-0.19,0.06-1.36,0.42-1.37,0.43c0.01,0,0.24-0.09,0.51-0.19
				c0.27-0.1,0.55-0.21,0.64-0.24c0.38-0.15,0.71-0.28,1.06-0.42c0.41-0.14,0.87-0.29,1.25-0.43c-0.14,0.05-0.78,0.35-0.99,0.42
				C57.37,10.04,58.46,9.62,58.52,9.63z M53,9.87L53,9.87c0.2-0.1,0.42-0.21,0.66-0.3c0.27-0.05,0.59-0.12,0.96-0.22
				c0,0.02,0.03,0.03,0.09,0.04l0.2-0.02c0.32-0.17,0.83-0.26,1.16-0.31l0.01,0.01C54.81,9.65,53.97,9.69,53,9.87z M53.34,10.29
				l1.91-0.4l-0.16,0.16l0.68-0.11l-1.19,0.33l0.04,0.05C53.46,10.53,53.43,10.39,53.34,10.29z M58.1,11.63l-0.83,0.18l0.09-0.31
				C58.51,11.17,58.54,11.38,58.1,11.63z M54.8,11.76l-0.15-0.43c1.31-0.12,3.11-1.15,4.51-1.13C58.28,10.61,56.23,11.31,54.8,11.76
				z M70.4,9.81c-1.53,0.27-1.57-0.08-3.2,0.32c-0.3,0.35,0.04,0.31,1.39,0.17l-1.82,0.38l-1.09,0c-1.14,0.57-2.16,0.42-3.32,0.61
				l-0.36-0.11l-1.22,0.24l-0.03,0.21l-0.6,0.2c0.12-0.21,0.84-0.61,1.91-0.8l0.22-0.21l-1.61,0.34l0.08,0.11l-1.21,0.14l1.33-0.34
				c0.37-0.25-0.15-0.31,1.05-0.71c1.37-0.3,1.72-0.7,2.94-0.8c2.49-0.62-0.06,0.31,1.36,0.11l-1.13,0.21
				c-7.1,1.31-1.85,0.87-1.09,0.53l-0.07,0.15c-0.68,0.07-1.97,0.48-1.64,0.53c0.58-0.09,1.16-0.2,1.74-0.27
				c0.07-0.15,1.41-0.46,2.11-0.64c1.2-0.11,2.62-0.56,4.04-0.71l0.21-0.09l1.41-0.16C70.82,9.37,70.53,9.61,70.4,9.81z M74.48,9.25
				c-0.76,0.18-1.72,0.2-2.09,0.18l0.08-0.15C73.5,9.09,75.02,9,74.48,9.25z M76.62,8.88c-0.3-0.03-0.53-0.06-0.42-0.13
				c0.24,0,0.49,0.01,0.63,0.01c0.03,0.01,0.06,0.03,0.09,0.04L76.62,8.88z M82.36,8.45l-1.04,0.29c-1.16,0.23-1.64,0.01-2.9,0.22
				l0.04,0.22c-0.99,0.09-1.45,0.06-0.88-0.15l2.17-0.42l-0.42-0.05c0.34-0.03,0.69-0.06,0.84-0.07c0.06,0,0.14,0,0.2,0l0.87,0.15
				l0.5-0.17l0.68-0.02L82.36,8.45z M175.35,85.03l-0.27,0.25l-0.88,0.28C174.47,85.3,175.18,85.08,175.35,85.03z M172.43,87.57
				l-0.37,0.33l-1.22,0.34C171.22,87.91,172.19,87.64,172.43,87.57z M166.75,90.07c-0.42,0.19-0.83,0.39-1.25,0.57l-1.01-0.07
				C165.37,90.32,166,90.05,166.75,90.07z M145.87,95.86c-0.92,0.39-2.08,0.21-3.24,0.66l-0.06-0.07
				C143.57,96.17,145.91,95.54,145.87,95.86z M57.8,19.74c-0.12,0.09-0.2,0.14-0.85,0.34l-0.23-0.06L57.8,19.74z M58.2,21.92
				c-0.25,0.08-0.41,0.09-0.56,0.11l-0.55,0.17c0.28-0.11-0.45,0.07,0-0.09l0.26-0.02l0.13-0.07c0.34-0.12,0.42-0.04,0.78-0.13
				c-0.1,0-0.23-0.02,0.02-0.09C58.57,21.75,58.33,21.87,58.2,21.92z M59.32,19.92l-0.35-0.09L60,19.54
				C60.18,19.58,60.02,19.77,59.32,19.92z M67.95,18.84c-0.31,0.14,0.02,0.13,0.28,0.13l-0.63,0.2c0.05-0.13-0.67-0.05-0.22-0.26
				l0.79-0.13l0.92-0.28l0.04,0.06L67.95,18.84z M71.29,14.45c-0.89,0.23-1.78,0.46-2.66,0.72C68.68,14.79,69.42,14.49,71.29,14.45z
				 M72,16.17c-0.63,0.01-1.74,0.46-2.37,0.43c0.51-0.24,1.64-0.49,2.43-0.68L72,16.17z M72.34,14.31
				C72.34,14.31,72.33,14.31,72.34,14.31c0.05-0.01,0.15-0.01,0.27-0.02C72.52,14.3,72.43,14.3,72.34,14.31z M78.76,14.41
				c-0.54,0.01-0.55-0.07-0.67-0.16l0.43-0.1C78.96,14.2,79.29,14.24,78.76,14.41z"/>
		</g>
	</g>
</g>
</svg>
