<?xml version="1.0" encoding="utf-8"?>
<!-- Generator: Adobe Illustrator 24.0.2, SVG Export Plug-In . SVG Version: 6.00 Build 0)  -->
<svg version="1.1" id="Layer_1" xmlns="http://www.w3.org/2000/svg" xmlns:xlink="http://www.w3.org/1999/xlink" x="0px" y="0px"
	 viewBox="0 0 29.58 98.42" style="enable-background:new 0 0 29.58 98.42;" xml:space="preserve">
<style type="text/css">
	.st0{fill:#ffffff;}
</style>
<g>
	<g>
		<g>
			<path class="st0" d="M17.97,27.08c0,0.01,0.04,0.23,0.04,0.25c0-0.03,0.02-0.21,0.02-0.25c0-0.04-0.04-0.21-0.04-0.25
				c-0.01-0.03-0.04-0.25-0.04-0.25c-0.01,0-0.01,0.23-0.02,0.25c0,0.08-0.02,0.17-0.02,0.25c0.01,0.03,0.04,0.22,0.04,0.25
				C17.95,27.31,17.97,27.09,17.97,27.08z"/>
			<path class="st0" d="M13.86,12.92c-0.05,0.17,0.05,0.29,0.12,0.29L14,12.92L13.86,12.92z"/>
			<path class="st0" d="M14.26,12.52c0,0.19,0.02,0.22,0.06,0.29l0.04-0.29L14.26,12.52z"/>
			<path class="st0" d="M15.89,13.94l0.06-0.13l-0.1-0.13C15.79,13.69,15.86,13.88,15.89,13.94z"/>
			<path class="st0" d="M13.2,14.58c0.04,0.22,0.02,0.2,0.12,0.36l0.03-0.16L13.2,14.58z"/>
			<path class="st0" d="M14.85,12.54c-0.01,0.26,0.13,0.12,0.16,0.12C14.96,12.57,14.91,12.45,14.85,12.54z"/>
			<path class="st0" d="M14.52,13.27l0.09-0.41c0.06-0.07,0.11-0.14,0.06-0.15l-0.06,0.07C14.51,12.76,14.53,13.08,14.52,13.27z"/>
			<path class="st0" d="M18.82,50.19c0,0-0.01-0.03-0.01-0.07c-0.13,0.13-0.11,0.39,0.01,0.74c0.01-0.07,0.02-0.17,0.02-0.17
				c0.01-0.01,0.03,0.14,0.04,0.21l0.02,0c0.01-0.07,0.01-0.2,0.02-0.21c-0.01-0.09-0.04-0.15-0.05-0.25c0-0.07,0.03-0.18,0.03-0.25
				c0-0.03-0.01-0.07-0.02-0.11c-0.02,0.01-0.03,0.01-0.05,0.02C18.82,50.14,18.82,50.19,18.82,50.19z"/>
			<path class="st0" d="M19.35,66.84c0,0.04-0.04,0.23-0.04,0.25c0,0.03,0.05,0.25,0.05,0.25c0,0,0.04-0.22,0.04-0.25
				c0-0.06,0.04-0.18,0.04-0.25c0-0.04-0.05-0.21-0.05-0.25s-0.05-0.25-0.05-0.25c-0.01,0-0.02,0.23-0.04,0.25
				C19.3,66.67,19.35,66.75,19.35,66.84z"/>
			<path class="st0" d="M12.3,34.9c-0.01-0.08-0.02-0.16-0.03-0.24c-0.01-0.03-0.03-0.24-0.03-0.24c-0.01,0-0.03,0.22-0.03,0.25
				c0,0.01,0.03,0.22,0.03,0.24c0,0.07-0.03,0.18-0.03,0.25c0,0.08,0.03,0.16,0.03,0.25c0.01-0.08,0.02-0.17,0.03-0.25
				C12.28,35.11,12.3,34.9,12.3,34.9z"/>
			<path class="st0" d="M18.9,57.27c0,0,0.03-0.24,0.03-0.25c0-0.08-0.04-0.16-0.05-0.25c0,0.01-0.03,0.25-0.03,0.25
				S18.9,57.26,18.9,57.27z"/>
			<path class="st0" d="M12.2,32.17c0,0.08,0.03,0.16,0.03,0.24c0-0.01,0.03-0.25,0.03-0.25c0-0.01-0.03-0.24-0.03-0.24
				S12.2,32.16,12.2,32.17z"/>
			<path class="st0" d="M18.06,95.87c0.03-0.02,0.05-0.04,0.08-0.07l0-0.07c-0.04,0.04-0.09,0.06-0.17,0.06L18.06,95.87z"/>
			<path class="st0" d="M18.86,94.59l0.01,0.03c0.01,0.04,0.02,0.08,0.02,0.11c0.01-0.01,0.03-0.01,0.06,0.01
				c0.03-0.08,0.05-0.17,0.05-0.27L18.86,94.59z"/>
			<path class="st0" d="M16.63,96.3l0.22-0.04c-0.05-0.35-0.16-0.33-0.28-0.43L16.63,96.3z"/>
			<polygon class="st0" points="15.1,95.1 15.1,95.17 15.22,95.28 15.22,95.09 			"/>
			<path class="st0" d="M18.43,95.48l0.07-0.1c-0.02-0.04-0.11-0.18-0.18-0.07L18.43,95.48z"/>
			<polygon class="st0" points="15.37,95.32 15.33,95.54 15.45,95.45 			"/>
			<path class="st0" d="M15.6,95.48l-0.01,0.09c0.22-0.2,0.3,0.34,0.47,0.18C16.13,95.44,15.77,95.41,15.6,95.48z"/>
			<path class="st0" d="M17.22,95.42l0.14,0.14c-0.01-0.05-0.07-0.17-0.13-0.17L17.22,95.42z"/>
			<path class="st0" d="M16.43,95.7c-0.12,0.08-0.1,0.13-0.11,0.2l0.16-0.11L16.43,95.7z"/>
			<path class="st0" d="M17.68,96.5l0.09-0.14c-0.03-0.05-0.15-0.24-0.25-0.1L17.68,96.5z"/>
			<path class="st0" d="M19.32,94.55c0.03-0.1-0.01-0.22-0.06-0.33c0,0.12,0.02,0.24,0.03,0.36C19.3,94.56,19.31,94.55,19.32,94.55z
				"/>
			<polygon class="st0" points="15.07,96.09 15.07,96.1 15.07,96.09 			"/>
			<path class="st0" d="M17.55,95.63c-0.09,0.06-0.18,0.12-0.09,0.13l0.09-0.06c0.16,0,0.11-0.25,0.12-0.39L17.55,95.63z"/>
			<path class="st0" d="M19.23,93.91c0.04,0.02,0.22-0.03,0.2-0.15C19.34,93.76,19.23,93.85,19.23,93.91z"/>
			<path class="st0" d="M16.49,94.68c-0.04-0.01-0.21,0.07-0.18,0.19C16.4,94.84,16.5,94.74,16.49,94.68z"/>
			<path class="st0" d="M18.87,92.28l0.15,0.31C19.22,92.35,19.14,92.27,18.87,92.28z"/>
			<path class="st0" d="M19.08,60.57c-0.05-0.35-0.13-0.33-0.23-0.43l0.07,0.46L19.08,60.57z"/>
			<path class="st0" d="M18.95,62.76c0.17-0.2,0.25,0.34,0.38,0.18c0.04-0.3-0.24-0.34-0.37-0.27L18.95,62.76z"/>
			<path class="st0" d="M19.32,61.16c0.03,0.02,0.17-0.03,0.15-0.15C19.41,61.01,19.32,61.09,19.32,61.16z"/>
			<path class="st0" d="M18.74,55.59c0.04-0.06,0.07-0.2,0.04-0.26C18.75,55.35,18.68,55.51,18.74,55.59z"/>
			<path class="st0" d="M14.74,12.83l0.06,0.58l-0.15-0.04c-0.19,0.58-0.2-0.41-0.41-0.29c-0.06,0.12-0.18,0.26-0.29,0.39
				c-0.03,0.21-0.17,0.03-0.18,0.34l0.07,0.26l0.02-0.04l-0.02-0.09l0.03,0.06c0.13-0.23,0.26-0.37,0.23,0.18
				c-0.07,0.12-0.06-0.19-0.13-0.1c0,0.04,0,0.06,0,0.08l0.02,0.04c-0.01,0-0.01,0-0.02,0c0.01,0.05,0.03,0.08,0.04,0.1l0,0
				c-0.02,0.02-0.04,0.06-0.06,0.1c-0.01-0.02-0.02-0.02-0.04-0.03c-0.01,0.04-0.02,0.06-0.04,0c-0.04,0.02-0.08,0.08-0.11,0.16
				l0-0.09l0-0.01c0.01-0.01,0.01-0.02,0.02-0.03c0.03-0.05,0.06-0.1,0.08-0.15l0-0.02c-0.05,0.02-0.1,0.05-0.15,0.08l-0.03-0.08
				l-0.01-0.12l-0.1-0.05l0.01,0.21l0.12,0.04c0,0.01,0,0.02,0.01,0.02l-0.07,0.05c-0.03,0.06-0.06,0.12-0.09,0.19l-0.03-0.12
				l-0.04,0.14l0.04,0.07l-0.06,0.14c-0.02,0.06-0.04,0.11-0.06,0.17l0.03-0.05l0.08,0.03c-0.01,0.22-0.09,0.53-0.19,0.39
				c-0.02-0.08-0.01-0.16,0.02-0.23c-0.06,0.07-0.12,0.15-0.16,0.3c0.02,0.03,0.03,0.06,0.03,0.08c-0.03,0.04-0.08,0.11-0.09,0.12
				c-0.02,0.03-0.04,0.07-0.07,0.1c0.04,0.04,0.08,0.12,0.07,0.21l0.04,0.03l0.02-0.17l-0.04,0l0.05-0.12l0,0.14
				c0.05,0.05,0.1,0.01,0.13,0.14c-0.02,0.14,0.08,0.2,0.03,0.32c0.02,0.27-0.09-0.03-0.12,0.12l0.01-0.12
				c0.11-0.73-0.13-0.23-0.08-0.14l-0.04-0.02c0.02-0.07,0-0.21-0.04-0.19l-0.05,0.18c0.04,0.02,0.04,0.16,0.05,0.24
				c-0.05,0.12-0.01,0.28-0.04,0.42l0.01,0.03l-0.03,0.14c0.02-0.1-0.04-0.14-0.09-0.17c0.01-0.16,0.11-0.14,0.1-0.32
				c-0.08-0.05-0.1-0.02-0.14,0.12l0.01-0.19l0.07-0.1c-0.09-0.14,0.02-0.23,0.05-0.35l0.06-0.02l0.02-0.13l-0.06-0.02l0-0.01
				C13.01,15.78,13,15.8,13,15.81c-0.02,0.04-0.04,0.21-0.06,0.25c-0.03,0.07-0.07,0.11-0.1,0.19c-0.01,0.05-0.04,0.23-0.05,0.26
				c-0.01,0.05-0.03,0.21-0.04,0.27c-0.01,0.05-0.07,0.18-0.09,0.22c-0.01,0.03-0.07,0.18-0.08,0.23c-0.02,0.09-0.01,0.19-0.03,0.28
				c-0.01,0.07-0.06,0.17-0.07,0.25c-0.01,0.09-0.01,0.2-0.02,0.28c-0.01,0.09,0,0.2-0.01,0.29c-0.01,0.09-0.05,0.17-0.06,0.26
				c-0.01,0.09,0.01,0.19,0,0.28c-0.01,0.09-0.04,0.18-0.05,0.27c0-0.01-0.01-0.28-0.01-0.28s-0.05,0.27-0.05,0.28
				c-0.01,0.06,0.01,0.24,0.02,0.29l0.02,0.28c0,0.04,0.02,0.22,0.03,0.26c0,0.05-0.02,0.21-0.03,0.25c0,0.02-0.03,0.24-0.03,0.25
				c0.01,0.08,0.02,0.17,0.03,0.24c0.01,0.06,0.02,0.21,0.03,0.24c0.01,0.02,0.02-0.25,0.03-0.25c0.01,0,0.01,0.07,0.02,0.13
				l-0.08,0.59c-0.02,0.19,0.02,0.23,0.06,0.25l0,0.03c0,0.03-0.03,0.23-0.03,0.25c0,0.02-0.03-0.24-0.03-0.24
				c-0.01,0-0.02,0.27-0.03,0.25c-0.01-0.02-0.02-0.19-0.03-0.24c0-0.03-0.02-0.25-0.03-0.24c-0.01,0-0.02,0.23-0.03,0.25l0.06,0.49
				l0.03,0.24l0.03,0.24c0,0.02,0.01,0.05,0.01,0.09c-0.03,0.03-0.06,0.07-0.09,0.1c0.03,0.06,0.06,0.11,0.09,0.16
				c-0.01,0.06-0.02,0.12-0.02,0.15c0,0.08,0.03,0.16,0.03,0.24c-0.01,0.09-0.02,0.16-0.03,0.25c0,0.05-0.03,0.2-0.03,0.25
				c0,0.07,0.03,0.18,0.03,0.24c0,0.06-0.02,0.21-0.03,0.25c-0.01,0.05-0.02,0.24-0.03,0.25c-0.01,0.01-0.02-0.25-0.03-0.24
				c-0.01,0-0.02,0.23-0.03,0.25c0,0.08-0.03,0.17-0.03,0.25c0,0.03,0.03,0.22,0.03,0.24c0-0.02,0.03-0.24,0.03-0.25
				c0.01,0,0.02,0.26,0.03,0.25c0.01-0.03,0.02-0.19,0.03-0.25l0.03-0.25c0,0.09,0.03,0.15,0.03,0.24c0,0.06-0.03,0.19-0.03,0.25
				c0,0.07,0.03,0.17,0.03,0.24c0,0.04-0.03,0.22-0.03,0.25c-0.01,0.05-0.02,0.24-0.03,0.25c-0.01,0.01-0.02-0.25-0.03-0.24
				c0,0-0.03,0.24-0.03,0.25c0,0.04,0.03,0.21,0.03,0.24c0.01,0.08,0.02,0.18,0.03,0.24c0.01,0.05,0.02,0.23,0.03,0.24
				c0.01,0.01,0.02-0.25,0.03-0.25c0,0,0.03,0.23,0.03,0.24c0,0.03-0.03,0.23-0.03,0.25l-0.03,0.25c-0.01,0.07-0.02,0.17-0.03,0.25
				c0,0.03,0.03,0.21,0.03,0.25c0,0.03-0.03,0.22-0.03,0.25c0,0.03-0.03,0.21-0.03,0.25c0,0.05,0.03,0.21,0.03,0.24
				c0.01,0.07,0.02,0.16,0.03,0.24c0,0.06,0.03,0.18,0.03,0.24c0,0.08-0.03,0.17-0.03,0.25c0-0.01-0.03-0.24-0.03-0.24
				s-0.03,0.23-0.03,0.25c0,0.03,0.03,0.22,0.03,0.24c0,0.04,0.03,0.2,0.03,0.24c0,0.08-0.03,0.17-0.03,0.25
				c0,0.08-0.03,0.17-0.03,0.25c0,0.07,0.03,0.17,0.03,0.24c0,0.08-0.03,0.17-0.03,0.25c0,0.06,0.03,0.18,0.03,0.24
				c0,0.04-0.03,0.22-0.03,0.25c0,0.04-0.03,0.2-0.03,0.25c0,0.04,0.03,0.21,0.03,0.24c0,0.04,0.03,0.2,0.03,0.24
				c0,0.08-0.03,0.17-0.03,0.25c0.01,0,0.03,0.21,0.03,0.24c0,0.01-0.03,0.23-0.03,0.25c0,0.07,0.03,0.18,0.03,0.24
				c0,0.08,0.02,0.18,0.03,0.24c0,0.04,0.03,0.2,0.03,0.24c0,0.07-0.03,0.19-0.03,0.25c0-0.02-0.03-0.24-0.03-0.24
				c0,0-0.03,0.24-0.03,0.25c0,0.04,0.03,0.21,0.03,0.24c0.01,0.07,0.02,0.16,0.03,0.24c0,0.06,0.03,0.18,0.03,0.25
				c0,0.08-0.03,0.17-0.03,0.25c0,0.09-0.03,0.16-0.03,0.25c0.01,0,0.03,0.21,0.03,0.24c0,0.02,0.03,0.22,0.03,0.24
				c0,0.05-0.04,0.21-0.03,0.25c0,0.08,0.03,0.19,0.03,0.25l0.07,0.49c-0.01,0.01-0.02,0.26-0.03,0.25
				c-0.01-0.01-0.02,0.25-0.03,0.25c-0.01,0-0.02-0.23-0.03-0.24c-0.01-0.02-0.02-0.25-0.03-0.24c-0.01,0-0.03,0.22-0.03,0.25
				c0,0.01,0.03,0.22,0.03,0.24c0,0.08-0.03,0.17-0.03,0.25c0,0.08,0.03,0.16,0.03,0.24c0,0.08-0.03,0.17-0.03,0.25l-0.07,0.51
				l0.04,0.24c0.01,0.03,0.03,0.24,0.04,0.24c0.01,0,0.02-0.26,0.03-0.25c0.01,0.01,0.02-0.24,0.03-0.25c0.01,0,0.03,0.22,0.04,0.24
				l0.04,0.24l-0.03,0.25c-0.01,0.06-0.03,0.17-0.03,0.25c0,0.04,0.04,0.19,0.04,0.24c0,0.06-0.03,0.2-0.03,0.25
				c-0.01,0.09-0.02,0.17-0.03,0.25c-0.01,0.04-0.03,0.2-0.03,0.25c0,0.03,0.03,0.22,0.04,0.24c0.01,0.06,0.03,0.17,0.04,0.25
				c0,0.04-0.03,0.2-0.03,0.25c0,0.07,0.04,0.17,0.04,0.24c0,0.06-0.04,0.2-0.03,0.25c0,0.07,0.03,0.19,0.04,0.24
				c0.01,0.08,0.02,0.16,0.04,0.24c0.01,0.07,0.03,0.17,0.04,0.24c0,0.07-0.03,0.18-0.03,0.25c0,0.08,0.03,0.16,0.04,0.24
				c-0.01,0.06-0.02,0.2-0.03,0.25c-0.01,0.05-0.02,0.18-0.03,0.25c-0.01,0.04-0.03,0.25-0.04,0.25c0-0.01-0.04-0.23-0.04-0.24
				c-0.01,0.07-0.02,0.17-0.04,0.25c0,0.04-0.04,0.21-0.04,0.25c0,0.06,0.03,0.19,0.04,0.24c0-0.02,0.03-0.22,0.04-0.25l0.04,0.25
				l0.04,0.24c0.01,0.04,0.04,0.2,0.04,0.24c0,0.04-0.03,0.22-0.04,0.25c-0.01,0.08-0.02,0.17-0.04,0.25
				c-0.01,0.07-0.03,0.17-0.04,0.25c0,0.07,0.04,0.17,0.04,0.24c0,0.08-0.04,0.17-0.04,0.25c0,0.04,0.03,0.21,0.04,0.24
				c0.01,0.07,0.03,0.16,0.04,0.24c0.01,0.06,0.04,0.18,0.04,0.25c0,0.08-0.04,0.17-0.04,0.25c0,0.05-0.03,0.21-0.04,0.25
				c-0.01,0.04-0.04,0.2-0.04,0.25c0,0.04,0.03,0.22,0.04,0.24c0.01,0.03,0.04,0.2,0.04,0.25c0,0.04-0.03,0.22-0.04,0.25
				c0,0.03-0.04,0.22-0.04,0.25c0,0.06,0.03,0.2,0.04,0.24c0.01,0.04,0.04,0.2,0.04,0.24c0,0.07-0.04,0.19-0.04,0.25
				c0,0.1,0.04,0.15,0.04,0.25c0,0.07-0.04,0.18-0.04,0.25c0,0.05,0.03,0.2,0.04,0.24c0-0.01,0.04-0.24,0.04-0.25
				c0.01,0,0.04,0.22,0.04,0.24l0.04,0.24c-0.01,0.02-0.02,0.25-0.04,0.25c-0.01,0-0.03-0.26-0.04-0.24
				c-0.01,0.03-0.03,0.19-0.04,0.25l-0.04,0.25c-0.01,0.05-0.04,0.19-0.04,0.25c0,0.03,0.04,0.22,0.04,0.24l0.04,0.24
				c0.01,0.06,0.04,0.17,0.04,0.24c0,0.04-0.04,0.2-0.04,0.25c0,0.08,0.04,0.17,0.04,0.24c0,0.09-0.04,0.16-0.04,0.25
				c0,0.07,0.04,0.17,0.04,0.24c0,0.08-0.04,0.17-0.04,0.25c0-0.01-0.04-0.25-0.04-0.25s-0.04,0.24-0.04,0.25
				c0,0.08,0.04,0.16,0.04,0.24c0,0.08-0.04,0.17-0.04,0.25c0,0.08,0.04,0.16,0.04,0.24c0,0.08-0.04,0.17-0.04,0.25
				c0,0.08,0.04,0.17,0.04,0.24c0,0.05-0.04,0.21-0.04,0.25c0.01,0.08,0.03,0.18,0.04,0.25l0.04,0.24c0.01,0.05,0.04,0.17,0.04,0.24
				c0,0.05-0.04,0.19-0.04,0.25c0,0.07,0.04,0.18,0.04,0.24c0,0.1-0.04,0.16-0.04,0.25c0-0.01-0.04-0.24-0.04-0.24
				s-0.04,0.24-0.04,0.25c0,0.06,0.04,0.2,0.04,0.25c0.01,0.07,0.03,0.16,0.04,0.24c0.01,0.05,0.04,0.18,0.04,0.24
				c0,0.05-0.03,0.21-0.04,0.25c0,0.03-0.03,0.25-0.04,0.25c-0.01,0-0.03-0.23-0.04-0.24c-0.01-0.02-0.03-0.25-0.04-0.24
				c0,0-0.04,0.24-0.04,0.25c0,0.04,0.04,0.21,0.04,0.25c0.01,0.08,0.03,0.16,0.04,0.24c0.01,0.07,0.04,0.17,0.04,0.24
				c0,0.07-0.04,0.18-0.04,0.25c0,0.06,0.04,0.19,0.04,0.24l0.04-0.25c0.01,0,0.04,0.21,0.04,0.24c0,0.02-0.03,0.22-0.04,0.25
				c0,0.07,0.04,0.18,0.04,0.25c0,0.05-0.03,0.22-0.04,0.25c0-0.01-0.04-0.23-0.04-0.24c-0.01,0-0.03,0.22-0.04,0.25
				c-0.01,0.03-0.04,0.21-0.04,0.25c0,0.05,0.04,0.21,0.04,0.24l0.04,0.24c0.01,0.07,0.04,0.16,0.04,0.24
				c0,0.03-0.04,0.21-0.04,0.25c0,0.04,0.04,0.22,0.04,0.24l0.05,0.24l-0.08,0.51l-0.05-0.24c-0.01-0.06-0.04-0.17-0.04-0.25
				c0-0.04,0.04-0.2,0.04-0.25c0-0.08-0.04-0.16-0.04-0.24l-0.08,0.51l0.04,0.24l0.04,0.24c0.01,0.07,0.03,0.16,0.05,0.25
				c0,0.03-0.04,0.21-0.04,0.25c0,0.06,0.04,0.19,0.05,0.24c0.01,0.09,0.03,0.17,0.05,0.24c0.01,0.03,0.04,0.2,0.05,0.24
				c0,0.04-0.04,0.22-0.04,0.25c0,0.02-0.04,0.24-0.04,0.25c0.01,0.09,0.03,0.17,0.05,0.24c0.01,0.08,0.03,0.18,0.05,0.24
				c0.01,0.04,0.03,0.23,0.05,0.24c0.01,0.01,0.03-0.25,0.04-0.25c0.01,0,0.03,0.23,0.05,0.24c-0.02,0.05-0.02,0.22-0.04,0.25
				c-0.02,0.03-0.02,0.23-0.04,0.25c-0.01,0.01-0.03-0.25-0.05-0.24c-0.01,0-0.03,0.22-0.04,0.25c-0.02,0.06-0.03,0.18-0.04,0.25
				l-0.08,0.51l0.05,0.24c0.01,0.03,0.05,0.2,0.05,0.24c0,0.04-0.04,0.22-0.04,0.25c0,0.02-0.04,0.24-0.04,0.25
				c0.01,0.08,0.03,0.18,0.05,0.24c0.01,0.07,0.03,0.21,0.05,0.25c0.01,0.02,0.03-0.25,0.04-0.25c0.01,0,0.04,0.22,0.05,0.24
				l0.05,0.24c-0.01,0.08-0.03,0.17-0.04,0.25c-0.01,0.03-0.03,0.25-0.04,0.25c0-0.01-0.05-0.23-0.05-0.24
				c-0.01,0.04-0.04,0.2-0.04,0.25c0,0.07,0.05,0.17,0.05,0.24c0,0.05-0.05,0.22-0.04,0.25c0.01,0.08,0.03,0.18,0.05,0.24
				c0.01,0.06,0.03,0.21,0.05,0.24c0.01,0.02,0.03-0.25,0.04-0.25c0.02,0,0.03,0.23,0.05,0.24c-0.01,0.09-0.03,0.17-0.04,0.25
				l-0.04,0.25l-0.04,0.25c-0.01,0.08-0.03,0.19-0.04,0.25c-0.01,0.05-0.03,0.24-0.04,0.25c-0.01,0.01-0.04-0.25-0.05-0.24
				c-0.01,0-0.03,0.22-0.04,0.25c0-0.01,0.04,0.24,0.05,0.24c0.02,0.02,0.03,0.25,0.05,0.24c0.01,0,0.03-0.26,0.04-0.25
				c0.02,0.01,0.03,0.23,0.05,0.24c0.01,0.01,0.03-0.25,0.04-0.25c0.02,0,0.03,0.23,0.05,0.24l-0.09,0.51l-0.04,0.25
				c-0.01,0.04-0.04,0.21-0.04,0.25c0,0.04,0.04,0.21,0.05,0.24c0.02,0.08,0.03,0.18,0.05,0.24c0.01,0.05,0.03,0.23,0.05,0.24
				c-0.01,0.03-0.03,0.19-0.04,0.25c-0.01,0.08-0.03,0.17-0.04,0.25c0,0.02,0.04,0.21,0.05,0.24c0,0.05-0.04,0.21-0.04,0.25
				c-0.01,0.05-0.04,0.19-0.04,0.25c0,0.03,0.04,0.22,0.05,0.24l0.05,0.24c0.01,0.06,0.04,0.17,0.05,0.24
				c0,0.02-0.04,0.23-0.04,0.25c-0.01,0.04-0.04,0.21-0.04,0.25c0,0.04,0.04,0.21,0.05,0.24c0.01,0.07,0.04,0.16,0.05,0.24
				c0.01,0.05,0.05,0.18,0.05,0.24c0,0.08-0.04,0.17-0.04,0.25c0,0.04-0.04,0.22-0.04,0.25c-0.01,0.05-0.04,0.19-0.04,0.25
				c0,0.03,0.05,0.21,0.05,0.24c0.01,0.04,0.05,0.2,0.05,0.24c0,0.04-0.04,0.22-0.04,0.25c0-0.01-0.05-0.23-0.05-0.24
				c0,0-0.04,0.24-0.04,0.25c0,0.04,0.04,0.21,0.05,0.24c0.01,0.07,0.04,0.16,0.05,0.24c0,0.03-0.04,0.21-0.04,0.25
				c0,0.04,0.05,0.21,0.05,0.24c0.01,0.04,0.05,0.19,0.05,0.24c0,0.07-0.04,0.18-0.04,0.25c0,0.07,0.05,0.17,0.05,0.24
				c0,0.08-0.04,0.17-0.04,0.25c0,0.1-0.04,0.16-0.05,0.25c0,0.07,0.05,0.17,0.05,0.24c0,0.08-0.05,0.17-0.05,0.25
				c0,0.04,0.05,0.21,0.05,0.24c0.01,0.03,0.05,0.2,0.05,0.24c0,0.04-0.04,0.22-0.05,0.25c0,0.02-0.05,0.23-0.05,0.25
				c0.01,0.07,0.04,0.19,0.05,0.24l0.11,0.49c-0.02,0.06-0.03,0.21-0.05,0.25c-0.01,0.03-0.03,0.25-0.05,0.25
				c-0.02,0-0.04-0.23-0.05-0.24c-0.02-0.02-0.04-0.25-0.05-0.24c-0.01,0-0.03,0.22-0.05,0.25c0.01-0.02,0.04,0.24,0.05,0.24
				c0,0.08-0.05,0.17-0.05,0.25c0,0.08,0.05,0.16,0.05,0.24c0.01,0.1,0.05,0.15,0.05,0.24c0,0.07-0.05,0.18-0.05,0.25
				c0,0.08,0.05,0.16,0.05,0.24c0,0.07-0.05,0.18-0.05,0.25c0,0.08,0.05,0.16,0.05,0.24c0,0.08-0.05,0.17-0.05,0.25
				c0,0.04,0.05,0.22,0.05,0.24c0.02,0.07,0.04,0.2,0.06,0.24c0-0.01,0.04-0.23,0.05-0.25c0.01-0.04,0.04-0.25,0.05-0.25
				c0.02,0,0.04,0.23,0.06,0.24l-0.05,0.25l-0.05,0.25l-0.05,0.25c-0.01,0.04-0.05,0.21-0.05,0.25c0,0.08,0.05,0.16,0.06,0.24
				c0-0.01,0.05-0.25,0.05-0.25c0.01,0,0.05,0.21,0.06,0.24c0,0.02-0.05,0.22-0.05,0.25c0,0.04,0.05,0.22,0.06,0.24
				c0.01,0.05,0.05,0.18,0.06,0.24c0,0.06-0.05,0.19-0.05,0.25c0,0.08,0.05,0.16,0.06,0.24c0.01,0.08,0.05,0.16,0.06,0.24
				c0,0.04-0.05,0.22-0.05,0.25c0.01,0.08,0.04,0.18,0.06,0.24l0.05,0.21c-0.03,0.11,0.01,0.23,0.07,0.3
				c0.02,0.07,0.04,0.15,0.05,0.23c0,0.01,0,0.03-0.01,0.05c-0.02,0.01-0.04,0.03-0.06,0.04l0.04,0.05
				c-0.01,0.05-0.02,0.1-0.02,0.12c0,0.01,0.01,0.02,0.01,0.03l-0.07,0.18c0.03,0.03,0.07,0.03,0.12,0.02l0,0.01
				c0.01,0.07,0.03,0.14,0.05,0.2c-0.02,0.01-0.04,0.02-0.07,0.02l-0.01,0.21c0.05,0.07,0.11,0.12,0.17,0.17
				c0.01,0.04,0.02,0.08,0.03,0.12c0,0,0.01-0.03,0.01-0.07l0.03,0.03l0,0.14l-0.13,0c-0.17,0.15-0.11,0.27-0.06,0.38
				c0,0.01,0,0.03,0,0.03c-0.01,0.04-0.03,0.23-0.02,0.28l0,0c-0.02,0.02-0.04,0.04-0.07,0.05c0.04,0.06,0.08,0.08,0.12,0.08
				c0.02,0.06,0.05,0.11,0.05,0.11c0.01,0,0-0.06,0-0.12c0.02,0,0.04-0.01,0.06-0.02c0.02,0.05,0.04,0.09,0.04,0.1
				c-0.01-0.04-0.01-0.08,0-0.12l0.08-0.04c0.02,0.1,0.04,0.2,0.07,0.3l-0.08,0c-0.03-0.05-0.06-0.11-0.06-0.13
				c0.01,0.04,0.01,0.09,0.01,0.13l-0.1,0c0.03,0.18-0.11,0.4,0.16,0.45l0.01,0.02l-0.17,0.47c0.09,0,0.15,0.1,0.17,0.26
				c0.09-0.06,0-0.24-0.05-0.2l0.08-0.19l0.15,0.1c0.02,0.06,0.04,0.12,0.06,0.18l-0.04,0.28l-0.23,0.19
				c0.3,0.04,0.13,0.35,0.14,0.61l0.2,0.03l-0.12,0.18l0.11,0.09c-0.05-0.1,0.11-0.08,0.13-0.05L13.68,92l0.12,0.29l0.07-0.05
				l0.08,0.15c-0.04,0.1-0.12,0.25,0.03,0.28l0.23-0.15c-0.03,0.23-0.09,0.4-0.24,0.53c0.1,0.3,0.23-0.09,0.36,0.03
				c0.01,0.13-0.16,0.21-0.08,0.36l0.24-0.19l-0.15-0.21l0.27-0.01l-0.08,0.36l-0.21,0.14c0.02,0.09,0.03,0.28,0.15,0.34l0.1,0.34
				c0.08,0.15,0.25,0,0.27-0.08l0.15,0.04l-0.14,0.2c0.11,0.2,0.19,0.35,0.35,0.41c0.26,0.07,0.07,0.36,0.24,0.42l0.22-0.22
				c0.16,0.06,0.23,0.19,0.25,0.38c0.17-0.04,0.34,0.05,0.47,0.1c-0.03-0.32-0.37-0.71-0.24-0.93c0.1,0,0.29,0.01,0.27-0.18
				l0.07,0.02c0.14,0.08,0.15,0.27,0.05,0.37l0.2,0.07c0.03,0.11,0,0.27-0.17,0.25l0.19,0.01l-0.01,0.21l-0.28,0.01l0.14,0.25
				l0.18-0.19l0.07,0.23l0.17-0.04l-0.12-0.43l0.25,0c0.27-0.43,0.34,0.14,0.6,0.17c-0.05-0.22-0.01-0.43-0.04-0.65
				c0.13,0.08,0.28,0.27,0.37,0.45c0.07-0.05,0.15-0.1,0.23-0.16c0.03-0.16,0.28-0.05,0.27-0.29l-0.14-0.18
				c-0.22,0.22-0.46,0.41-0.44-0.05c0.1-0.1,0.11,0.13,0.22,0.06c0.03-0.23-0.19-0.11-0.18-0.26l0.14-0.03
				c0.11,0.13,0.24,0.04,0.35-0.1l0.01,0.07l0.15,0.14l0.02,0.09l0.17,0.02l-0.03-0.15l-0.19-0.01c-0.15-0.14,0.08-0.3,0.15-0.34
				l0.15,0.21l0.06-0.11l-0.19-0.11c0.17-0.25,0.5-0.27,0.62-0.56c-0.19-0.11,0.02-0.29,0.17-0.4c-0.04-0.29,0.32-0.63,0.19-0.9
				l-0.22,0.05c-0.03-0.32,0.41-0.42,0.53-0.57c-0.46-0.21-0.34,0.27-0.62,0.43l-0.14-0.35l0.06-0.01c0.14,0.08,0.18-0.12,0.22-0.26
				c0.16,0.17,0.36,0.03,0.44-0.09l-0.11-0.13l0.01-0.04c-0.16-0.17-0.34,0.27-0.63,0.13c0.19-0.1,0.21-0.28,0.31-0.42
				c0.22,0.33,0.35-0.14,0.46-0.32c-0.1-0.38,0.29-0.76-0.07-1.14l0.07-0.61c0.01-0.29-0.2-0.13-0.32-0.2c0-0.01,0-0.03,0-0.03
				c0-0.01-0.01-0.04-0.01-0.07c0.08-0.02,0.07-0.08,0.18-0.16c0-0.11-0.03-0.26-0.13-0.18c-0.03,0.07-0.11,0.05-0.18,0.02
				c0.01-0.05,0.02-0.1,0.02-0.11c0-0.01,0.01-0.03,0.01-0.05c0.11-0.13,0.25-0.25,0.36-0.33c-0.12-0.11-0.25-0.17-0.35-0.27
				c0.01-0.03,0.02-0.06,0.02-0.1c0-0.04-0.02-0.1-0.04-0.15c0.08-0.07,0.16-0.16,0.1-0.33c-0.02-0.02-0.05-0.02-0.07-0.01
				c0.01-0.09,0.03-0.18,0.05-0.25c0.01-0.03,0.05-0.21,0.05-0.25c0-0.05-0.05-0.21-0.06-0.25c-0.01-0.04-0.06-0.2-0.06-0.25
				c0-0.04,0.05-0.22,0.05-0.25c-0.01-0.09-0.04-0.18-0.06-0.25l-0.12-0.49c0.01,0,0.04-0.27,0.05-0.25
				c0.02,0.03,0.04,0.19,0.06,0.25c0.01,0.03,0.05,0.25,0.06,0.25c0.01,0,0.04-0.22,0.05-0.25l0.05-0.25l-0.06-0.25l-0.06-0.25
				c-0.01-0.06-0.05-0.17-0.06-0.25c0-0.03,0.04-0.21,0.04-0.25c0-0.07-0.06-0.18-0.06-0.25c0-0.07,0.05-0.18,0.04-0.25
				c0-0.06-0.05-0.2-0.06-0.25c-0.01-0.04-0.06-0.2-0.06-0.25c0-0.08,0.04-0.16,0.04-0.25c0-0.05,0.04-0.21,0.04-0.25
				c0.01-0.05,0.04-0.19,0.04-0.25c0-0.03-0.05-0.22-0.06-0.25c-0.01-0.04-0.06-0.2-0.06-0.25c0-0.04,0.04-0.22,0.04-0.25
				c0,0.01,0.05,0.24,0.06,0.25c0,0,0.04-0.23,0.04-0.25c0-0.02-0.05-0.22-0.06-0.25l-0.11-0.49c0.01-0.01,0.03-0.26,0.04-0.25
				c0.02,0.01,0.04,0.23,0.06,0.25c0.01,0.01,0.03-0.25,0.04-0.25c0.01,0,0.05,0.26,0.06,0.25c0.01-0.02,0.04-0.21,0.04-0.25
				c0-0.07-0.05-0.18-0.06-0.25c0-0.08,0.04-0.17,0.04-0.25l-0.06-0.25c-0.02-0.07-0.04-0.2-0.06-0.25c0.01,0,0.04-0.22,0.04-0.25
				c0.01-0.04,0.04-0.2,0.04-0.25c0-0.04-0.05-0.22-0.06-0.25l-0.06-0.25l-0.06-0.25l-0.11-0.49c0.02-0.05,0.02-0.2,0.04-0.25
				c0.01-0.03,0.03-0.25,0.04-0.25c0.02,0,0.04,0.23,0.06,0.25c0.02,0.02,0.04,0.25,0.06,0.25c0.01,0,0.04-0.22,0.04-0.25
				c0-0.04-0.05-0.2-0.06-0.25c0-0.06,0.05-0.19,0.04-0.25c-0.01-0.08-0.04-0.19-0.06-0.25c-0.01-0.04-0.05-0.2-0.06-0.25
				c0-0.07,0.05-0.18,0.04-0.25c-0.01-0.1-0.05-0.15-0.06-0.25c0-0.07,0.04-0.18,0.04-0.25c0-0.08-0.05-0.16-0.06-0.25
				c0-0.06,0.04-0.18,0.04-0.25c0-0.04-0.05-0.22-0.06-0.25c-0.01-0.03-0.05-0.21-0.06-0.25c0-0.05,0.03-0.21,0.04-0.25
				c0-0.02,0.04-0.23,0.04-0.25c-0.01-0.08-0.04-0.19-0.05-0.25l-0.05-0.25l-0.05-0.25l-0.11-0.49c0.02-0.06,0.02-0.2,0.04-0.25
				c0,0.01,0.05,0.23,0.05,0.25c0.01,0.03,0.05,0.25,0.05,0.25c0.01,0,0.03-0.22,0.04-0.25c0.01-0.06,0.04-0.17,0.04-0.25
				c0-0.02-0.05-0.23-0.05-0.25c-0.01-0.06-0.05-0.17-0.05-0.25c0-0.04,0.04-0.2,0.04-0.25c0-0.07-0.05-0.18-0.05-0.25
				c0-0.08,0.04-0.17,0.04-0.25c0-0.07,0.03-0.2,0.04-0.25c0.01-0.06,0.04-0.17,0.04-0.25c0-0.04-0.05-0.19-0.05-0.25
				c0-0.08,0.04-0.17,0.04-0.25c0-0.04-0.05-0.21-0.05-0.25l-0.05-0.25c-0.01-0.04-0.05-0.19-0.05-0.25c0-0.03,0.03-0.22,0.04-0.25
				c0.01-0.06,0.03-0.17,0.04-0.25c0-0.04-0.05-0.2-0.05-0.25c0-0.08,0.04-0.17,0.04-0.25c0-0.05-0.04-0.21-0.05-0.25
				c-0.01-0.07-0.04-0.16-0.05-0.25c0-0.01,0-0.05,0.01-0.09c-0.1-0.3-0.17-0.58-0.05-0.85c0-0.02,0.01-0.05,0.01-0.06
				c0-0.07-0.05-0.18-0.05-0.25c0-0.07,0.04-0.18,0.04-0.25c0-0.06-0.04-0.2-0.05-0.25c-0.01-0.04-0.05-0.2-0.05-0.25
				c0-0.08,0.04-0.17,0.04-0.25c0,0.02,0.05,0.25,0.05,0.25s0.04-0.23,0.04-0.25c0-0.03-0.01-0.07-0.02-0.11l-0.35,0.16
				c0.09-0.2,0.21-0.4,0.35-0.58c-0.01-0.08-0.04-0.14-0.05-0.22c0-0.07,0.04-0.18,0.04-0.25c0-0.08-0.05-0.16-0.05-0.25
				c0-0.07,0.03-0.17,0.03-0.24c-0.03-0.07-0.06-0.17-0.09-0.3l0.01-0.06c-0.01-0.05-0.03-0.12-0.03-0.15
				c0-0.07,0.04-0.18,0.04-0.25c0-0.03-0.01-0.08-0.03-0.12l-0.56-0.26c0.15-0.38,0.46-0.64,0.56-0.98
				c-0.01-0.05-0.02-0.09-0.02-0.13L19,61.37c0.01-0.04,0.01-0.08,0.02-0.12c-0.17-0.37-0.4-0.77-0.29-1.07l-0.22,0.04
				c0.09-0.43,0.33-0.5,0.56-0.56l0-0.02c-0.01-0.05-0.05-0.18-0.05-0.25c0-0.03,0.03-0.23,0.03-0.25c0.01-0.06,0.03-0.17,0.03-0.25
				c0-0.04-0.05-0.2-0.05-0.25c0-0.03,0.01-0.06,0.01-0.09l-0.03-0.02l0.06-0.17c0.01-0.07,0.03-0.15,0.03-0.21
				c0-0.08-0.05-0.16-0.05-0.25c0-0.08,0.04-0.17,0.03-0.25c0-0.05-0.02-0.11-0.03-0.16l-0.03,0.02C19.01,57.57,19,57.64,19,57.64
				s-0.01-0.05-0.02-0.11l-0.27,0.19c-0.35-0.53,0.25-1.53-0.41-1.71c0.18-0.92,0.35-2.05,0.03-2.93l0.34-1.05l-0.5-0.4
				c0.73-0.56,0-1.01,0.09-1.53l0.47-0.26c0.09-0.52-0.94-1.28-0.25-1.49c0.31-1.27-0.82-2.37,0.01-3.5l-0.49-1.06
				c0.15-0.31,0.31-0.64,0.49-0.91c-0.01-0.06-0.02-0.14-0.03-0.16c-0.01-0.05-0.03-0.17-0.05-0.25l-0.03-0.17
				c-0.06,0-0.12-0.01-0.18-0.04c0.14-0.57-0.28-1.23-0.19-1.75c0.09-0.43,0.26-0.45,0.44-0.43c0-0.03,0.01-0.06,0.01-0.09
				c0-0.04,0.03-0.2,0.03-0.25c0-0.04-0.04-0.22-0.05-0.25l-0.01-0.08c-0.2,0-0.38-0.01-0.39-0.38c0.11-0.13,0.21-0.29,0.31-0.47
				c-0.01-0.03-0.01-0.05-0.01-0.06c-0.01-0.04-0.04-0.19-0.04-0.25c0-0.07,0.03-0.18,0.02-0.25c0-0.05-0.04-0.2-0.04-0.25
				c0-0.08,0.02-0.19,0.02-0.25c0.01-0.05,0.02-0.18,0.02-0.25c0-0.06-0.04-0.19-0.04-0.25c0-0.08,0.02-0.17,0.02-0.25
				c0-0.08,0.03-0.17,0.02-0.25c0-0.08-0.04-0.17-0.04-0.25c0,0.02-0.02,0.24-0.02,0.25c0,0-0.04-0.22-0.04-0.25
				c-0.01-0.06-0.04-0.17-0.04-0.25c0-0.04,0.03-0.2,0.02-0.25c0-0.07-0.04-0.18-0.04-0.25c0-0.08,0.02-0.18,0.02-0.25
				c0.01-0.08,0.02-0.18,0.02-0.25l0.02-0.25l0.02-0.25c0.01-0.07,0.02-0.17,0.02-0.25c0-0.01-0.04-0.23-0.04-0.25
				c-0.01-0.04-0.04-0.2-0.04-0.25c0-0.05,0.02-0.21,0.02-0.25c0,0.01,0.04,0.25,0.04,0.25c0.01,0,0.01-0.23,0.02-0.25
				c0-0.08,0.03-0.17,0.02-0.25c0-0.03-0.04-0.23-0.04-0.25c0-0.02-0.02,0.24-0.02,0.25c0,0-0.04-0.22-0.04-0.25
				c-0.01-0.06-0.03-0.22-0.04-0.25c-0.01-0.02-0.01,0.25-0.02,0.25c-0.01,0-0.03-0.21-0.04-0.25c-0.01-0.06-0.03-0.17-0.04-0.25
				l-0.04-0.25c0.01,0,0.01-0.27,0.02-0.25c0.01,0.02,0.03,0.19,0.04,0.25c0.01,0.06,0.03,0.22,0.04,0.25
				c0.01,0.01,0.02-0.24,0.02-0.25c0.01-0.01,0.03,0.25,0.04,0.25c0.01,0,0.01-0.23,0.02-0.25l-0.04-0.25l-0.04-0.25
				c-0.01-0.06-0.04-0.17-0.04-0.25c0-0.04,0.02-0.2,0.02-0.25c0-0.07-0.04-0.18-0.04-0.25c0-0.03,0.02-0.23,0.02-0.25
				c0,0.02,0.04,0.23,0.04,0.25c0,0,0.02-0.24,0.02-0.25c0-0.06-0.03-0.2-0.04-0.25l-0.04-0.25l-0.08-0.49
				c0.01-0.07,0.02-0.19,0.02-0.25c0.01-0.03,0.01-0.25,0.02-0.25c0.01,0,0.04,0.26,0.04,0.25c0.01-0.03,0.02-0.19,0.02-0.25
				c0-0.05,0.02-0.19,0.02-0.25c0-0.03-0.04-0.22-0.04-0.25l-0.04-0.25c-0.01-0.06-0.03-0.17-0.04-0.25c0-0.04,0.02-0.2,0.02-0.25
				c0-0.07-0.04-0.18-0.04-0.25c0-0.08,0.02-0.17,0.02-0.25c0-0.08-0.04-0.17-0.04-0.25c0-0.08,0.02-0.17,0.02-0.25
				c0-0.08-0.04-0.16-0.04-0.25c0-0.07,0.02-0.18,0.02-0.25c0-0.06-0.03-0.2-0.04-0.25l-0.04-0.25c-0.01-0.06-0.03-0.17-0.04-0.25
				c0-0.04,0.02-0.2,0.02-0.25c0-0.07-0.04-0.18-0.04-0.25c0-0.08,0.02-0.17,0.02-0.25l0.04,0.25c0.01,0.07,0.03,0.19,0.04,0.25
				c0.01,0.03,0.03,0.25,0.04,0.25c0,0,0.02-0.23,0.02-0.25c0-0.06-0.04-0.18-0.04-0.25c0-0.09,0.02-0.16,0.02-0.25
				c-0.01-0.03-0.04-0.22-0.04-0.25c-0.01-0.04-0.04-0.19-0.04-0.25c0-0.06,0.02-0.18,0.02-0.25c0-0.07-0.04-0.18-0.04-0.25
				c0-0.08,0.02-0.17,0.02-0.25c0-0.07-0.04-0.17-0.04-0.25c0-0.08,0.02-0.17,0.02-0.25c0-0.08,0.02-0.17,0.02-0.25
				c0-0.07-0.03-0.18-0.04-0.25l-0.02,0.25c0,0-0.04-0.22-0.04-0.25c0-0.03-0.03-0.21-0.04-0.25c0-0.05,0.01-0.21,0.02-0.25
				c0-0.06,0.01-0.22,0.02-0.25c0-0.02,0.03,0.25,0.04,0.25c0,0,0.02-0.24,0.02-0.25c0-0.05-0.03-0.21-0.04-0.25l-0.04-0.25
				l-0.04-0.25l-0.04-0.25c-0.01-0.07-0.03-0.17-0.04-0.25c0-0.03,0.01-0.21,0.02-0.25c0-0.08-0.03-0.16-0.04-0.25
				c-0.01-0.08-0.04-0.17-0.04-0.25c0-0.08,0.02-0.17,0.02-0.25c0-0.02,0.01-0.24,0.02-0.26c0.01-0.01,0.03,0.26,0.04,0.25
				c0,0,0.01-0.21,0.01-0.26c0-0.02-0.04-0.25-0.05-0.28c0-0.05,0-0.24,0-0.29c0-0.06,0.01-0.22,0-0.29
				c-0.01-0.03-0.06-0.24-0.06-0.27c-0.01-0.04-0.06-0.22-0.07-0.26c-0.01-0.06-0.01-0.24-0.02-0.29c-0.02-0.09-0.05-0.19-0.08-0.25
				c-0.01-0.04-0.07-0.19-0.08-0.23c-0.01-0.08-0.03-0.2-0.04-0.28c-0.02-0.1-0.03-0.2-0.05-0.28c0-0.02-0.04-0.26-0.05-0.28
				c-0.03-0.07-0.08-0.16-0.1-0.2c-0.02-0.05-0.08-0.18-0.1-0.19c0-0.04-0.05-0.19-0.07-0.26c-0.01-0.05-0.05-0.2-0.07-0.26
				c-0.02-0.04-0.09-0.12-0.11-0.16c-0.03-0.05-0.05-0.19-0.08-0.24c-0.03-0.06-0.08-0.08-0.12-0.14c-0.02-0.04-0.06-0.18-0.09-0.22
				c-0.02-0.02-0.1-0.1-0.12-0.11c0,0-0.01-0.01-0.02-0.02c-0.01-0.03-0.03-0.03-0.04-0.03c-0.02-0.02-0.04-0.04-0.06-0.04
				c-0.02-0.02-0.03-0.06-0.05-0.1l0,0c-0.07-0.28-0.12-0.48-0.22-0.58c-0.16-0.12-0.04-0.48-0.14-0.59l-0.14,0.26
				c-0.1-0.1-0.14-0.28-0.14-0.53c-0.1,0.03-0.2-0.1-0.28-0.19c0.01,0.32,0.12,0.7,0.14,0.99c-0.03,0-0.06,0.01-0.09,0.01
				c-0.01,0-0.03-0.02-0.06-0.05c0.02-0.04,0.04-0.09,0.03-0.15c-0.03,0.01-0.06,0.06-0.08,0.11l0,0c-0.01-0.01-0.03,0-0.05,0.01
				l-0.12-0.12c-0.02-0.15,0.01-0.36,0.11-0.31l-0.12-0.03l0.01-0.28l0.17,0.02l-0.08-0.34l-0.11,0.22l-0.03-0.31L14.74,12.83z
				 M15.26,91.74c-0.01,0-0.03,0-0.05-0.01c0.03-0.03,0.06-0.07,0.09-0.1c0.02,0.01,0.06,0.01,0.1,0.01
				c0.01,0.02,0.02,0.03,0.03,0.06l-0.09,0.1C15.31,91.77,15.28,91.75,15.26,91.74z M15.17,91.95c0.01,0.01,0.02,0.02,0.02,0.02
				s-0.01,0-0.02,0L15.17,91.95z M18.49,91.82l-0.03,0.16l0.07,0.12l-0.25-0.17C18.4,91.94,18.34,91.61,18.49,91.82z M15.08,92.48
				c-0.06-0.16,0.06-0.28,0.13-0.39l0,0c0.06,0.01,0.16,0.03,0.19,0.03c-0.05,0.12-0.25,0.21-0.27,0.4c0.11-0.08,0.31-0.17,0.31,0
				C15.4,92.71,15.16,92.56,15.08,92.48z M16.73,92.36l-0.09,0.14l-0.15-0.24C16.58,92.12,16.7,92.32,16.73,92.36z M17.65,93.16
				c0-0.03-0.01-0.07-0.02-0.11l0-0.03l0.13-0.12c0,0.1-0.02,0.19-0.05,0.27C17.68,93.16,17.66,93.16,17.65,93.16z M15.74,93.5
				c-0.15-0.1-0.3,0.03-0.4,0.13l-0.12-0.22c0.25,0,0.41-0.27,0.65-0.13l-0.08,0.3l0.18,0.32l-0.14,0.03L15.74,93.5z M16.62,93.53
				c0,0,0.15,0.15,0.15,0.17c0.02,0.04,0.08,0.19,0.08,0.23c0.01,0.03,0.07,0.23,0.06,0.23c0,0-0.03-0.04-0.05-0.08
				c-0.03-0.04-0.06-0.09-0.07-0.11c-0.04-0.06-0.09-0.12-0.13-0.18c-0.03-0.07-0.05-0.14-0.1-0.21c0.01,0.02,0.14,0.13,0.15,0.17
				C16.72,93.72,16.61,93.54,16.62,93.53z M15.45,94.41L15.45,94.41c-0.04-0.03-0.08-0.07-0.11-0.11c0.02-0.04,0.03-0.1,0.04-0.16
				c0.02,0,0.04,0,0.06-0.01l0.04-0.03c-0.08-0.05-0.03-0.14,0-0.19l0.01,0C15.71,94.12,15.55,94.25,15.45,94.41z M15.94,94.36
				l0.11-0.31l0.11,0.03l0.06-0.11l0.02,0.19l0.06-0.01C16.22,94.35,16.06,94.35,15.94,94.36z M18.42,93.63l-0.04,0.14l-0.27-0.02
				C18.08,93.56,18.29,93.56,18.42,93.63z M17.72,94.17l-0.45,0.01c0.21-0.21-0.29-0.52,0.04-0.74
				C17.51,93.58,17.64,93.93,17.72,94.17z M19.18,91.62c-0.01,0.25-0.32,0.25-0.26,0.52c0.28,0.05,0.31,0,0.43-0.22l0.02,0.3
				l-0.21,0.18c0.33,0.19-0.01,0.35-0.09,0.55L18.88,93l-0.04,0.2l0.19,0.01l0.06,0.1c-0.17-0.02-0.4-0.15-0.34-0.32l-0.15-0.04
				l-0.03,0.27l0.12-0.01l-0.14,0.2l-0.03-0.22c-0.16-0.06-0.33,0.02-0.45-0.18c0.03-0.23-0.29-0.29-0.15-0.48
				c-0.11-0.41,0.29,0.01,0.37-0.22l-0.02,0.19c-0.24,1.16,0.46,0.31,0.29,0.18l0.13,0.01c-0.06,0.11,0.03,0.33,0.16,0.27l0.11-0.29
				c-0.13-0.01-0.17-0.23-0.2-0.35c0.14-0.2-0.03-0.43,0.05-0.66l-0.05-0.03l0.08-0.23C18.83,91.55,19.01,91.6,19.18,91.62z
				 M19.29,90.96c0.07,0.12-0.05,0.28-0.14,0.34l-0.13-0.01C19.01,91.11,19.11,90.87,19.29,90.96z M19.24,90.6
				c-0.07,0.05-0.13,0.09-0.18,0.07c0.04-0.04,0.08-0.08,0.1-0.1c0.02-0.01,0.03-0.01,0.05-0.02L19.24,90.6z M19.53,89.67l0.16,0.17
				c0.08,0.19-0.18,0.27-0.13,0.47l0.21-0.01c-0.03,0.16-0.14,0.24-0.25,0.14l-0.14-0.35l-0.1,0.07c0.01-0.06,0.02-0.11,0.03-0.14
				c0-0.01,0.02-0.02,0.02-0.03l0.24-0.14l-0.11-0.08c0.02-0.03,0.04-0.07,0.06-0.11L19.53,89.67z M18.48,58.68l-0.08-0.06l0.1-0.15
				C18.58,58.53,18.5,58.65,18.48,58.68z M17.68,58.09l-0.11-0.07l0.14-0.21C17.81,57.88,17.7,58.05,17.68,58.09z M17.58,57.08
				l-0.06-0.22l0.3-0.16C17.78,56.86,17.81,56.97,17.58,57.08z M17.94,53.57c-0.13-0.16,0.2-0.34,0.03-0.54l0.06-0.01
				C18.11,53.19,18.15,53.58,17.94,53.57z M14.61,17.03c0.03,0.02,0.04,0.03,0.05,0.14l-0.06,0.03L14.61,17.03z M15.66,17.03
				c0.01,0.04-0.01,0.07-0.02,0.09l0.01,0.09c-0.02-0.05-0.03,0.07-0.04,0l0.02-0.04l-0.02-0.02
				C15.61,17.09,15.66,17.09,15.66,17.03c-0.02,0.01-0.04,0.03-0.04-0.02C15.63,16.97,15.65,17.01,15.66,17.03z M14.87,16.8
				l-0.08,0.05l-0.01-0.17C14.82,16.65,14.89,16.68,14.87,16.8z M15.32,15.41c0.03,0.05,0.06,0,0.08-0.04l0.03,0.1
				c-0.05-0.01-0.09,0.1-0.14,0.03l0.02-0.13l-0.04-0.15l0.03-0.01L15.32,15.41z M13.65,14.78l0.07,0.43
				C13.56,15.2,13.51,15.07,13.65,14.78z M14.49,14.71c-0.05,0.1,0.06,0.28-0.02,0.38c-0.05-0.09-0.08-0.27-0.09-0.4L14.49,14.71z
				 M13.68,14.62L13.68,14.62c0-0.01,0.01-0.02,0.02-0.04L13.68,14.62z M14.28,13.61c-0.04,0.09-0.07,0.09-0.12,0.1l-0.02-0.07
				C14.2,13.58,14.24,13.52,14.28,13.61z"/>
		</g>
	</g>
</g>
<g>
	<g>
		<g>
			<path class="st0" d="M14.83,8.81c0,0-0.02,0.08-0.02,0.08c0.01,0,0.06-0.04,0.07-0.04c0.01-0.01,0.02-0.06,0.02-0.08
				c0-0.01,0.02-0.07,0.02-0.08c-0.01-0.01-0.05,0.05-0.07,0.04c-0.02,0.02-0.05,0.02-0.07,0.05c-0.01,0.01-0.02,0.07-0.02,0.08
				C14.76,8.86,14.82,8.81,14.83,8.81z"/>
			<path class="st0" d="M14.02,3.28c-0.07,0.01,0,0.1,0.06,0.14l0.07-0.06L14.02,3.28z"/>
			<path class="st0" d="M14.46,3.43c-0.03,0.05-0.02,0.06,0,0.1l0.09-0.05L14.46,3.43z"/>
			<path class="st0" d="M15.71,4.75l0.08,0.01l-0.07-0.09C15.67,4.64,15.7,4.72,15.71,4.75z"/>
			<path class="st0" d="M13.14,3.29c0,0.08-0.02,0.06,0.05,0.16l0.05-0.02L13.14,3.29z"/>
			<path class="st0" d="M15.01,3.8c-0.05,0.06,0.1,0.11,0.13,0.13C15.11,3.87,15.09,3.82,15.01,3.8z"/>
			<path class="st0" d="M14.57,3.77l0.16-0.04c0.06,0.02,0.13,0.04,0.08,0L14.74,3.7C14.66,3.64,14.62,3.73,14.57,3.77z"/>
			<path class="st0" d="M10.83,14.36c0,0,0-0.01,0-0.02c-0.1-0.02-0.14,0.05-0.14,0.17c0.02-0.01,0.04-0.03,0.05-0.03
				c0.01,0-0.01,0.04-0.02,0.06c0,0,0.01,0,0.01,0.01c0.02-0.01,0.04-0.04,0.05-0.04c0.01-0.02,0-0.05,0.02-0.08
				c0.01-0.02,0.05-0.03,0.07-0.04c0-0.01,0.01-0.02,0.01-0.03c-0.01,0-0.02-0.01-0.03-0.01C10.85,14.35,10.83,14.36,10.83,14.36z"
				/>
			<path class="st0" d="M7.98,18.36c-0.01,0.01-0.06,0.04-0.07,0.05c0,0.01-0.02,0.07-0.02,0.08c0,0,0.06-0.04,0.07-0.05
				c0.01-0.01,0.05-0.03,0.07-0.04c0.01-0.01,0.02-0.06,0.02-0.08c0-0.01,0.02-0.07,0.02-0.08C8.06,18.24,8.01,18.29,8,18.29
				C7.99,18.31,8,18.34,7.98,18.36z"/>
			<path class="st0" d="M9.27,7.92c0-0.03,0.01-0.05,0.01-0.08c0-0.01,0.02-0.07,0.01-0.08c0,0-0.05,0.04-0.06,0.05
				c0,0-0.01,0.07-0.01,0.08C9.22,7.91,9.17,7.92,9.16,7.94c-0.01,0.02,0,0.06-0.01,0.08C9.17,8,9.19,7.98,9.21,7.97
				C9.22,7.96,9.27,7.92,9.27,7.92z"/>
			<path class="st0" d="M9.54,16c0,0,0.06-0.04,0.07-0.05c0.01-0.02,0.01-0.05,0.02-0.08c0,0-0.07,0.05-0.07,0.05S9.53,16,9.54,16z"
				/>
			<path class="st0" d="M9.61,7.18C9.6,7.2,9.61,7.24,9.6,7.26c0,0,0.06-0.05,0.06-0.05c0,0,0.01-0.08,0.01-0.08
				S9.62,7.18,9.61,7.18z"/>
			<path class="st0" d="M2.18,24.8c0.02,0,0.03,0,0.04,0c0-0.01,0.01-0.01,0.01-0.02c-0.02,0-0.05-0.01-0.08-0.03L2.18,24.8z"/>
			<path class="st0" d="M2.74,24.72L2.74,24.72c0,0.02-0.01,0.03-0.01,0.04c0.01,0,0.02,0.01,0.02,0.02
				c0.03-0.01,0.05-0.03,0.07-0.05L2.74,24.72z"/>
			<path class="st0" d="M1.51,24.5l0.1,0.05c0.04-0.1-0.01-0.12-0.04-0.18L1.51,24.5z"/>
			<polygon class="st0" points="1.07,23.79 1.06,23.81 1.09,23.86 1.12,23.82 			"/>
			<path class="st0" d="M2.4,24.81l0.05-0.01c0-0.01-0.02-0.07-0.06-0.07L2.4,24.81z"/>
			<polygon class="st0" points="1.15,23.91 1.09,23.96 1.16,23.97 			"/>
			<path class="st0" d="M1.22,24.02L1.2,24.04c0.13,0.01,0.07,0.17,0.17,0.18C1.44,24.16,1.3,24.05,1.22,24.02z"/>
			<path class="st0" d="M1.91,24.46l0.03,0.07C1.94,24.51,1.94,24.47,1.91,24.46L1.91,24.46z"/>
			<path class="st0" d="M1.53,24.3c-0.07-0.01-0.06,0-0.08,0.02l0.09,0.02L1.53,24.3z"/>
			<path class="st0" d="M1.91,24.85l0.06-0.01c0-0.02-0.02-0.1-0.09-0.09L1.91,24.85z"/>
			<path class="st0" d="M2.94,24.84c0.03-0.02,0.04-0.05,0.03-0.1c-0.02,0.03-0.04,0.06-0.05,0.1C2.93,24.83,2.93,24.83,2.94,24.84z
				"/>
			<polygon class="st0" points="0.89,24.02 0.89,24.02 0.89,24.02 			"/>
			<path class="st0" d="M2.01,24.6c-0.05-0.01-0.1-0.02-0.06,0.01L2,24.62c0.07,0.04,0.09-0.03,0.12-0.06L2.01,24.6z"/>
			<path class="st0" d="M3.01,24.66c0.01,0.01,0.1,0.05,0.11,0.02C3.09,24.66,3.03,24.65,3.01,24.66z"/>
			<path class="st0" d="M1.73,24.07c-0.01-0.01-0.1-0.04-0.11,0C1.66,24.09,1.72,24.09,1.73,24.07z"/>
			<path class="st0" d="M3.15,24.17l0.01,0.12C3.29,24.29,3.27,24.25,3.15,24.17z"/>
			<path class="st0" d="M9.01,16.83c0.04-0.1-0.01-0.12-0.04-0.18l-0.05,0.13L9.01,16.83z"/>
			<path class="st0" d="M8.54,17.29c0.13,0.01,0.07,0.17,0.17,0.18c0.08-0.05-0.07-0.16-0.15-0.19L8.54,17.29z"/>
			<path class="st0" d="M9.03,17.05c0.01,0.01,0.1,0.05,0.11,0.02C9.11,17.05,9.05,17.03,9.03,17.05z"/>
			<path class="st0" d="M9.76,15.56c0.04,0,0.08-0.02,0.07-0.04C9.82,15.51,9.74,15.52,9.76,15.56z"/>
			<path class="st0" d="M14.86,3.8l-0.05,0.17l-0.13-0.1c-0.28,0.02-0.11-0.22-0.33-0.32c-0.08-0.01-0.21-0.05-0.34-0.08
				c-0.06,0.03-0.17-0.1-0.22-0.03l0.02,0.11c0.01,0,0.02,0,0.03,0l0-0.03l0.02,0.03c0.16,0.03,0.3,0.07,0.18,0.18
				c-0.08-0.01-0.02-0.08-0.1-0.1c-0.01,0.01-0.01,0.01-0.02,0.02l0.01,0.02c-0.01,0-0.01-0.01-0.02-0.01
				c0,0.02,0.01,0.03,0.02,0.05c0,0,0,0,0,0c-0.03-0.01-0.05-0.01-0.08-0.01c-0.01-0.01-0.02-0.02-0.03-0.03
				c-0.02,0-0.03,0-0.04-0.03c-0.04-0.02-0.08-0.03-0.13-0.03l0.01-0.02l0,0c0.01,0,0.02,0,0.02,0c0.03,0,0.07,0.01,0.1,0.02l0.01,0
				c-0.05-0.03-0.1-0.05-0.15-0.07L13.63,3.5l0.01-0.03l-0.09-0.07l-0.03,0.05l0.1,0.08c0,0,0,0.01,0,0.01
				c-0.03-0.01-0.05-0.02-0.08-0.03C13.52,3.5,13.48,3.5,13.45,3.5l-0.01-0.05l-0.06,0.01L13.4,3.5c-0.03,0-0.05,0-0.08,0
				c-0.03,0-0.06,0-0.09,0c0.01,0,0.03,0,0.04,0.01l0.07,0.06c-0.04,0.05-0.17,0.08-0.24-0.02c0-0.03,0.02-0.04,0.05-0.05
				c-0.07-0.02-0.13-0.04-0.19-0.02c0.01,0.02,0.02,0.03,0.02,0.04c-0.03-0.01-0.09-0.02-0.1-0.02c-0.02,0-0.05-0.01-0.08-0.01
				c0.03,0.04,0.06,0.08,0.03,0.09l0.03,0.03l0.04-0.03l-0.03-0.02l0.06,0l-0.02,0.04c0.03,0.04,0.09,0.06,0.09,0.11
				c-0.04,0.03,0.04,0.1-0.02,0.1c-0.02,0.08-0.07-0.06-0.13-0.04l0.03-0.02c0.22-0.12-0.08-0.13-0.05-0.08l-0.03-0.03
				c0.03,0,0.03-0.05-0.01-0.07l-0.07,0.02c0.03,0.03,0.01,0.07,0.01,0.09c-0.06,0-0.05,0.07-0.1,0.08l0.01,0.01l-0.05,0.02
				c0.03-0.02-0.01-0.06-0.05-0.1c0.04-0.03,0.12,0.03,0.14-0.02C12.61,3.59,12.6,3.6,12.53,3.6l0.04-0.05l0.08,0.02
				c-0.06-0.09,0.05-0.05,0.1-0.06l0.06,0.03l0.04-0.02l-0.05-0.04l0-0.01c-0.01,0-0.02,0-0.02,0c-0.02,0-0.07,0.03-0.09,0.03
				c-0.04,0-0.08-0.01-0.12-0.01c-0.02,0-0.07,0.03-0.09,0.04c-0.01,0-0.06,0.04-0.08,0.04c-0.02,0-0.09,0-0.11,0
				c-0.02,0-0.09,0.01-0.11,0.01c-0.03,0.01-0.04,0.04-0.07,0.05c-0.02,0.01-0.08,0.01-0.1,0.02c-0.03,0.01-0.03,0.05-0.06,0.06
				c-0.02,0.02-0.03,0.05-0.05,0.07c-0.02,0.02-0.07,0.02-0.09,0.03c-0.02,0.02-0.02,0.06-0.04,0.07c-0.02,0.02-0.06,0.02-0.08,0.04
				c0,0,0.04-0.08,0.04-0.08s-0.08,0.04-0.08,0.04C11.63,3.93,11.62,3.99,11.61,4l-0.02,0.08c-0.01,0.01-0.01,0.07-0.02,0.08
				c-0.01,0.01-0.05,0.04-0.06,0.05c0,0-0.06,0.05-0.06,0.05c-0.01,0.03-0.01,0.05-0.01,0.08c0,0.02-0.02,0.06-0.01,0.08
				c0,0.01,0.06-0.05,0.06-0.05c0,0,0,0.02-0.01,0.04l-0.16,0.1c-0.04,0.04-0.02,0.07,0.02,0.1c0,0,0,0.01,0,0.01
				c-0.01,0.01-0.06,0.05-0.06,0.05c-0.01,0,0.02-0.07,0.01-0.08c-0.01,0-0.06,0.06-0.06,0.05c0-0.01,0.01-0.06,0.01-0.08
				c0-0.01,0.02-0.07,0.01-0.08c-0.01,0-0.05,0.05-0.06,0.05l-0.03,0.15l-0.01,0.08l-0.01,0.08c0,0.01,0,0.02,0,0.03
				c-0.03-0.01-0.06-0.01-0.09-0.02c0.02,0.03,0.03,0.06,0.05,0.09c-0.02,0.01-0.03,0.02-0.04,0.03c-0.01,0.02,0,0.06-0.01,0.08
				c-0.02,0.02-0.04,0.03-0.06,0.05c-0.01,0.01-0.05,0.03-0.06,0.05c-0.01,0.02,0,0.06-0.01,0.08c-0.01,0.01-0.05,0.04-0.06,0.05
				c-0.01,0.01-0.05,0.05-0.06,0.05c-0.01,0,0.02-0.07,0.01-0.08c-0.01,0-0.05,0.05-0.06,0.05c-0.01,0.02-0.05,0.03-0.06,0.05
				c-0.01,0.01-0.01,0.07-0.01,0.08c0,0.01,0.06-0.05,0.06-0.05c0.01,0-0.02,0.08-0.01,0.08c0.01,0,0.05-0.04,0.06-0.05l0.06-0.05
				c-0.01,0.03,0,0.05-0.01,0.08c-0.01,0.02-0.05,0.03-0.06,0.05c-0.01,0.02,0,0.06-0.01,0.08c-0.01,0.01-0.05,0.04-0.06,0.05
				c-0.01,0.01-0.05,0.05-0.06,0.05c-0.01,0,0.02-0.07,0.01-0.08c0,0-0.06,0.04-0.06,0.05c-0.01,0.01-0.01,0.07-0.01,0.08
				c0,0.02-0.01,0.06-0.01,0.08c0,0.02-0.02,0.07-0.01,0.08c0,0.01,0.05-0.05,0.06-0.05c0,0-0.01,0.07-0.01,0.08
				c0,0.01-0.05,0.04-0.06,0.05l-0.06,0.05c-0.02,0.01-0.04,0.03-0.06,0.05c-0.01,0.01-0.01,0.07-0.01,0.08
				c-0.01,0.01-0.05,0.04-0.06,0.05c-0.01,0.01-0.06,0.04-0.06,0.05c-0.01,0.01-0.01,0.07-0.01,0.08c0,0.02-0.01,0.05-0.01,0.08
				c-0.01,0.02,0,0.06-0.01,0.08c-0.01,0.02-0.05,0.03-0.06,0.05c0,0,0.01-0.08,0.01-0.08s-0.06,0.04-0.06,0.05
				c-0.01,0.01-0.01,0.07-0.01,0.08c0,0.01-0.01,0.07-0.01,0.08c-0.01,0.02-0.05,0.03-0.06,0.05C10.01,6.68,9.98,6.69,9.96,6.7
				c-0.01,0.02,0,0.06-0.01,0.08C9.94,6.8,9.9,6.81,9.89,6.83c-0.01,0.01,0,0.06-0.01,0.08C9.87,6.92,9.82,6.95,9.81,6.96
				C9.8,6.96,9.76,6.99,9.75,7.01C9.74,7.02,9.74,7.07,9.74,7.08c0,0.01-0.01,0.07-0.01,0.08C9.71,7.18,9.68,7.19,9.66,7.21
				c0,0-0.01,0.07-0.01,0.08c0,0-0.06,0.04-0.06,0.05C9.58,7.35,9.58,7.39,9.57,7.41C9.56,7.44,9.56,7.47,9.56,7.49
				c0,0.01-0.01,0.07-0.01,0.08C9.54,7.59,9.49,7.6,9.48,7.62c0-0.01,0.02-0.08,0.01-0.08c0,0-0.06,0.04-0.06,0.05
				C9.43,7.6,9.42,7.66,9.42,7.67c0,0.02-0.01,0.05-0.01,0.08C9.4,7.76,9.4,7.8,9.4,7.82C9.38,7.84,9.35,7.85,9.33,7.87
				C9.32,7.89,9.29,7.9,9.27,7.92c0.01,0-0.01,0.07-0.01,0.08c0,0.01-0.01,0.07-0.01,0.08C9.24,8.09,9.19,8.11,9.18,8.12
				C9.18,8.14,9.17,8.18,9.17,8.2L9.14,8.35c-0.01,0-0.06,0.06-0.06,0.05C9.08,8.4,9.03,8.46,9.02,8.45c-0.01,0,0.02-0.07,0.01-0.08
				C9.03,8.36,9.06,8.3,9.05,8.3c0,0-0.05,0.04-0.06,0.05c0,0-0.01,0.07-0.01,0.08C8.96,8.44,8.92,8.45,8.91,8.47
				c-0.01,0.02,0,0.06-0.01,0.08C8.88,8.57,8.85,8.58,8.84,8.6l-0.12,0.1c0,0.03-0.01,0.05-0.01,0.08c0,0.01-0.02,0.07-0.01,0.08
				c0.01,0,0.06-0.06,0.06-0.05C8.75,8.81,8.8,8.75,8.81,8.75c0,0-0.01,0.07-0.01,0.08L8.78,8.91L8.72,8.96
				C8.71,8.97,8.67,8.99,8.66,9C8.65,9.01,8.65,9.07,8.65,9.08C8.64,9.1,8.59,9.12,8.58,9.13C8.56,9.15,8.54,9.16,8.52,9.18
				C8.51,9.19,8.47,9.21,8.46,9.23C8.46,9.24,8.45,9.3,8.45,9.31c0,0.02,0,0.06-0.01,0.08c0,0.01-0.05,0.04-0.06,0.05
				c-0.01,0.02,0,0.06-0.01,0.08C8.35,9.52,8.3,9.54,8.3,9.56C8.29,9.58,8.29,9.62,8.28,9.64c0,0.02-0.01,0.05-0.01,0.08
				c-0.01,0.02,0,0.06-0.01,0.08C8.25,9.81,8.21,9.82,8.19,9.84c-0.01,0.02,0,0.06-0.01,0.08C8.16,9.92,8.14,9.96,8.12,9.97
				C8.1,9.97,8.08,10,8.06,10.01C8.05,10.02,8,10.07,8,10.06c0,0,0.02-0.08,0.01-0.08C7.99,10,7.97,10.02,7.95,10.03
				c-0.01,0.01-0.05,0.04-0.06,0.05c-0.01,0.02-0.01,0.06-0.01,0.08c0-0.01,0.06-0.04,0.06-0.05l-0.01,0.08l-0.01,0.08
				c0,0.01-0.01,0.06-0.01,0.08c-0.01,0.01-0.05,0.04-0.06,0.05c-0.02,0.02-0.04,0.03-0.06,0.05c-0.01,0.01-0.05,0.03-0.06,0.05
				c-0.01,0.02,0,0.06-0.01,0.08c-0.01,0.02-0.05,0.03-0.06,0.05c-0.01,0.01-0.01,0.07-0.01,0.08c0,0.02-0.01,0.05-0.01,0.08
				c-0.01,0.02,0,0.06-0.01,0.08c-0.01,0.02-0.05,0.03-0.06,0.05c-0.01,0.01-0.05,0.04-0.06,0.05c-0.01,0.01-0.05,0.04-0.06,0.05
				C7.4,11,7.4,11.06,7.4,11.07c0,0.01-0.01,0.07-0.01,0.08c-0.01,0.01-0.05,0.04-0.06,0.05c-0.01,0.01-0.06,0.04-0.06,0.05
				c-0.01,0.02-0.01,0.06-0.01,0.08c0,0.01-0.01,0.07-0.01,0.08c-0.01,0.02-0.05,0.03-0.06,0.05c-0.01,0.03,0,0.05-0.01,0.08
				c-0.01,0.02-0.05,0.03-0.06,0.05c-0.01,0.01-0.01,0.06-0.01,0.08c0,0,0.06-0.05,0.06-0.05c0,0-0.01,0.07-0.01,0.08l-0.01,0.08
				c-0.01,0-0.05,0.05-0.06,0.05c-0.01,0,0.02-0.08,0.01-0.08c-0.01,0-0.05,0.04-0.06,0.05l-0.06,0.05
				c-0.01,0.01-0.05,0.03-0.06,0.05c0,0.01-0.01,0.07-0.01,0.08l-0.01,0.08c0,0.02,0,0.06-0.01,0.08c0,0.01-0.05,0.04-0.06,0.05
				c-0.01,0.02,0,0.06-0.01,0.08c-0.01,0.02-0.05,0.03-0.06,0.05c-0.01,0.02,0,0.06-0.01,0.08c-0.01,0.02-0.05,0.03-0.06,0.05
				c0,0,0.01-0.08,0.01-0.08s-0.06,0.05-0.06,0.05c-0.01,0.02,0,0.06-0.01,0.08c-0.01,0.02-0.05,0.03-0.06,0.05
				c-0.01,0.02,0,0.06-0.01,0.08c-0.01,0.02-0.05,0.03-0.06,0.05c-0.01,0.02,0,0.06-0.01,0.08c-0.01,0.01-0.06,0.04-0.06,0.05
				c-0.01,0.02-0.01,0.06-0.01,0.08l-0.01,0.08c0,0.02,0,0.06-0.01,0.08c-0.01,0.01-0.05,0.03-0.06,0.05
				c-0.01,0.02,0,0.06-0.01,0.08c-0.02,0.02-0.05,0.03-0.06,0.05c0,0,0.01-0.08,0.01-0.08s-0.06,0.05-0.06,0.05
				c-0.01,0.01-0.01,0.06-0.01,0.08c0,0.02-0.01,0.05-0.01,0.08c-0.01,0.02,0,0.06-0.01,0.08c-0.01,0.01-0.05,0.04-0.06,0.05
				c-0.01,0.01-0.06,0.05-0.06,0.05c-0.01,0,0.02-0.07,0.01-0.08C5.98,13.38,6,13.32,6,13.31c0,0-0.06,0.04-0.06,0.05
				c-0.01,0.01-0.01,0.07-0.01,0.08c0,0.02-0.01,0.05-0.01,0.08c-0.01,0.02,0,0.06-0.01,0.08c-0.01,0.02-0.05,0.03-0.06,0.05
				c-0.01,0.02-0.01,0.06-0.01,0.08l0.06-0.05c0,0-0.01,0.07-0.01,0.08c0,0.01-0.06,0.04-0.06,0.05c-0.01,0.02,0,0.06-0.01,0.08
				c-0.01,0.01-0.05,0.04-0.06,0.05c0,0,0.02-0.08,0.01-0.08c0,0-0.05,0.04-0.06,0.05c-0.01,0.01-0.05,0.04-0.06,0.05
				c-0.01,0.01-0.01,0.07-0.01,0.08L5.59,14.1c0,0.02-0.01,0.05-0.01,0.08c0,0.01-0.06,0.04-0.06,0.05
				c-0.01,0.01-0.01,0.07-0.01,0.08l-0.01,0.08l-0.12,0.1l0.01-0.08c0-0.02,0-0.06,0.01-0.08c0-0.01,0.05-0.04,0.06-0.05
				c0.01-0.02,0-0.06,0.01-0.08l-0.12,0.1l-0.01,0.08l-0.01,0.08c0,0.02-0.01,0.05-0.01,0.08c0,0.01-0.06,0.04-0.06,0.05
				c-0.01,0.02-0.01,0.06-0.01,0.08c-0.01,0.03-0.01,0.05-0.01,0.08c0,0.01-0.01,0.07-0.01,0.08c-0.01,0.01-0.05,0.04-0.06,0.05
				c0,0-0.06,0.05-0.06,0.05c-0.01,0.03-0.01,0.05-0.01,0.08c0,0.02-0.01,0.06-0.01,0.08c0,0.02-0.02,0.07-0.01,0.08
				c0,0.01,0.05-0.05,0.06-0.05c0.01,0-0.02,0.07-0.01,0.08c-0.02,0.01-0.05,0.05-0.06,0.05c-0.01,0-0.05,0.05-0.06,0.05
				c-0.01,0,0.02-0.07,0.01-0.08c-0.01,0-0.05,0.04-0.06,0.05c-0.02,0.01-0.04,0.03-0.06,0.05l-0.12,0.1l-0.01,0.08
				c0,0.01-0.01,0.07-0.01,0.08s-0.05,0.04-0.06,0.05c0,0-0.06,0.04-0.06,0.05c-0.01,0.02-0.01,0.06-0.01,0.08
				c0,0.02-0.02,0.06-0.01,0.08c0,0.01,0.06-0.05,0.06-0.05c0,0-0.01,0.07-0.01,0.08l-0.01,0.08c-0.02,0.02-0.04,0.03-0.06,0.05
				c-0.01,0.01-0.06,0.05-0.06,0.05c0,0,0.02-0.08,0.01-0.08c-0.01,0.01-0.05,0.04-0.06,0.05c-0.01,0.02,0,0.06-0.01,0.08
				c-0.01,0.01-0.06,0.04-0.06,0.05c-0.01,0.02-0.01,0.06-0.01,0.08c0,0.02-0.02,0.06-0.01,0.08c0,0.01,0.06-0.05,0.06-0.05
				c0.01,0-0.02,0.07-0.01,0.08c-0.02,0.02-0.04,0.03-0.06,0.05c-0.02,0.02-0.04,0.03-0.06,0.05l-0.06,0.05
				c-0.02,0.01-0.04,0.04-0.06,0.05c-0.01,0.01-0.05,0.05-0.06,0.05c-0.01,0,0.02-0.07,0.01-0.08c-0.01,0-0.05,0.04-0.06,0.05
				c0,0-0.02,0.07-0.01,0.08c0.01,0.01-0.02,0.07-0.01,0.08c0.01,0,0.06-0.05,0.06-0.05c0.01,0.01-0.02,0.07-0.01,0.08
				c0,0.01,0.05-0.05,0.06-0.05c0.01,0-0.02,0.07-0.01,0.08l-0.12,0.1L3.9,16.85c-0.01,0.01-0.05,0.04-0.06,0.05
				c-0.01,0.01-0.01,0.07-0.01,0.08c0,0.02-0.01,0.06-0.01,0.08c0,0.02-0.02,0.07-0.01,0.08c-0.01,0-0.05,0.04-0.06,0.05
				c-0.02,0.02-0.04,0.03-0.06,0.05c0,0-0.01,0.07-0.01,0.08c-0.01,0.01-0.05,0.04-0.06,0.05c-0.01,0.01-0.05,0.03-0.06,0.05
				c-0.01,0.01-0.01,0.07-0.01,0.08l-0.01,0.08c0,0.02,0,0.06-0.01,0.08c0,0.01-0.06,0.04-0.06,0.05c-0.01,0.01-0.05,0.04-0.06,0.05
				c-0.01,0.01-0.01,0.07-0.01,0.08c0,0.02-0.01,0.05-0.01,0.08c-0.01,0.02,0,0.06-0.01,0.08c-0.01,0.02-0.05,0.03-0.06,0.05
				c-0.01,0.01-0.05,0.04-0.06,0.05c-0.01,0.01-0.05,0.03-0.06,0.05c-0.01,0.01-0.01,0.07-0.01,0.08c0,0.01-0.01,0.07-0.01,0.08
				c-0.01,0.01-0.05,0.04-0.06,0.05c0,0,0.02-0.08,0.01-0.08c0,0-0.06,0.04-0.06,0.05C3,18.29,3,18.35,2.99,18.36
				c0,0.02,0,0.05-0.01,0.08c0,0.01-0.05,0.04-0.06,0.05c-0.01,0.01-0.01,0.07-0.01,0.08c0,0.01-0.01,0.06-0.01,0.08
				c-0.01,0.02-0.05,0.03-0.06,0.05c-0.01,0.02,0,0.06-0.01,0.08c-0.01,0.02-0.05,0.03-0.06,0.05c-0.02,0.02-0.05,0.03-0.06,0.05
				c-0.01,0.02,0,0.06-0.01,0.08c-0.01,0.02-0.05,0.03-0.06,0.05C2.61,19,2.61,19.06,2.61,19.07c0,0.01-0.01,0.07-0.01,0.08
				c-0.01,0.01-0.05,0.04-0.06,0.05c-0.01,0-0.06,0.04-0.06,0.05c-0.01,0.02-0.01,0.06-0.01,0.08l-0.03,0.15
				c-0.02,0.01-0.04,0.04-0.06,0.05c-0.01,0-0.05,0.05-0.06,0.05c-0.01,0,0.02-0.07,0.01-0.08c-0.01-0.01,0.02-0.07,0.01-0.08
				c-0.01,0-0.05,0.04-0.06,0.05c0.01,0-0.02,0.07-0.01,0.08c-0.01,0.02-0.05,0.03-0.06,0.05c-0.01,0.02,0,0.06-0.01,0.08
				c-0.01,0.03,0,0.05-0.01,0.08c-0.01,0.02-0.05,0.03-0.06,0.05c-0.01,0.02,0,0.06-0.01,0.08c-0.01,0.02-0.05,0.03-0.06,0.05
				c-0.01,0.02,0,0.06-0.01,0.08c-0.01,0.02-0.05,0.03-0.06,0.05c-0.01,0.01-0.01,0.07-0.01,0.08c0,0.02-0.01,0.06-0.01,0.08
				c0,0,0.06-0.05,0.06-0.05C2,20.15,2.05,20.1,2.05,20.11c0.01,0-0.02,0.07-0.01,0.08l-0.06,0.05l-0.06,0.05
				c-0.02,0.02-0.04,0.03-0.06,0.05c-0.01,0.01-0.05,0.04-0.06,0.05c-0.01,0.02,0,0.06-0.01,0.08c0,0,0.06-0.05,0.06-0.05
				c0,0-0.01,0.07-0.01,0.08c0,0.01-0.06,0.04-0.06,0.05c-0.01,0.01-0.01,0.07-0.01,0.08c0,0.02-0.01,0.06-0.01,0.08
				c-0.01,0.02-0.05,0.03-0.06,0.05c-0.01,0.02,0,0.06-0.01,0.08c-0.01,0.02,0,0.06-0.01,0.08c-0.01,0.01-0.06,0.04-0.06,0.05
				C1.58,20.96,1.58,21,1.58,21.02l-0.01,0.07c-0.03,0.02-0.03,0.06-0.02,0.09c0,0.02-0.01,0.05-0.01,0.07c0,0-0.01,0.01-0.01,0.01
				c-0.01,0-0.02-0.01-0.03-0.01l0.01,0.02c-0.01,0.01-0.03,0.02-0.03,0.02c0,0,0,0.01,0,0.01l-0.06,0.02
				c0.01,0.02,0.03,0.03,0.05,0.04c0,0,0,0,0,0c-0.01,0.02-0.01,0.04-0.01,0.06c-0.01,0-0.02-0.01-0.03-0.01l-0.04,0.05
				c0.01,0.03,0.03,0.06,0.05,0.09c0,0.01,0,0.03-0.01,0.04c0,0,0.01,0,0.02-0.01c0,0,0,0.01,0.01,0.01l-0.02,0.04l-0.06-0.04
				c-0.1-0.01-0.09,0.03-0.09,0.08c0,0-0.01,0.01-0.01,0.01c-0.01,0.01-0.05,0.05-0.05,0.06l0,0c-0.01,0-0.02,0-0.04-0.01
				c0.01,0.03,0.02,0.04,0.04,0.06c0,0.02,0,0.04,0,0.04c0,0,0.01-0.01,0.02-0.03c0.01,0,0.02,0.01,0.03,0.01c0,0.02,0,0.03,0,0.04
				c0-0.01,0.01-0.02,0.02-0.03c0.01,0,0.03,0.01,0.04,0.01c-0.01,0.03-0.01,0.06-0.02,0.09l-0.04-0.03c0-0.02-0.01-0.04-0.01-0.05
				c0,0.01-0.01,0.02-0.02,0.03l-0.04-0.03c-0.01,0.05-0.11,0.07,0,0.16c0,0,0,0,0,0.01l-0.15,0.07c0.04,0.03,0.05,0.07,0.03,0.11
				c0.05,0.01,0.04-0.06,0.01-0.06l0.07-0.02l0.05,0.07c0,0.02,0,0.04,0,0.06l-0.06,0.06L1.02,22.3c0.12,0.09,0,0.12-0.04,0.19
				l0.08,0.07l-0.08,0.01l0.03,0.06c-0.01-0.04,0.06,0.01,0.06,0.02l-0.11-0.02l0.01,0.11l0.04,0.01l0.01,0.06
				c-0.03,0.01-0.09,0.03-0.03,0.08l0.12,0.03c-0.05,0.05-0.1,0.07-0.19,0.06c-0.01,0.1,0.11,0.04,0.15,0.11
				c-0.02,0.03-0.1,0.01-0.09,0.07l0.13,0.02l-0.03-0.09l0.12,0.07l-0.09,0.07L1,23.18c-0.01,0.03-0.03,0.08,0.01,0.13l-0.02,0.11
				C1,23.48,1.1,23.49,1.12,23.48l0.06,0.05l-0.09,0.01c0.01,0.08,0.02,0.14,0.08,0.2c0.1,0.09-0.03,0.11,0.03,0.17l0.13,0.01
				c0.06,0.06,0.07,0.11,0.04,0.16c0.08,0.04,0.14,0.11,0.18,0.16c0.04-0.09-0.04-0.28,0.06-0.29c0.04,0.03,0.12,0.08,0.15,0.03
				L1.77,24c0.05,0.06,0.02,0.11-0.04,0.11l0.07,0.07c-0.01,0.04-0.05,0.07-0.12,0.01l0.08,0.06L1.73,24.3l-0.12-0.07l0.02,0.1
				l0.11,0L1.72,24.4l0.08,0.04l0.02-0.14l0.11,0.07c0.19-0.03,0.12,0.13,0.22,0.21c0.02-0.07,0.07-0.11,0.09-0.17
				c0.04,0.06,0.07,0.14,0.08,0.21c0.04,0.01,0.08,0.02,0.12,0.03c0.04-0.03,0.13,0.07,0.17,0.01l-0.03-0.08
				c-0.13-0.01-0.26-0.03-0.18-0.14c0.06,0,0.02,0.06,0.08,0.08c0.05-0.05-0.06-0.08-0.03-0.11l0.06,0.03
				c0.02,0.06,0.1,0.08,0.17,0.08l-0.01,0.02l0.04,0.08l-0.01,0.03l0.07,0.05l0.02-0.04l-0.08-0.06c-0.04-0.08,0.09-0.05,0.12-0.04
				l0.03,0.09l0.05-0.01l-0.06-0.08c0.12-0.01,0.26,0.08,0.36,0.04c-0.06-0.08,0.06-0.06,0.14-0.04c0.03-0.08,0.25-0.06,0.24-0.16
				l-0.1-0.05c0.04-0.09,0.25,0.02,0.33,0.02c-0.16-0.18-0.19-0.03-0.34-0.08l0-0.12l0.03,0.02c0.05,0.06,0.1,0.02,0.14,0
				c0.04,0.09,0.15,0.11,0.21,0.1l-0.02-0.06l0.01-0.01c-0.04-0.09-0.19-0.03-0.3-0.15c0.1,0.03,0.14-0.01,0.21-0.01
				c0.04,0.14,0.18,0.07,0.26,0.06c0.03-0.12,0.27-0.09,0.17-0.29l0.14-0.12c0.06-0.07-0.07-0.09-0.1-0.14c0,0,0.01-0.01,0.01-0.01
				c0,0,0-0.01,0.01-0.02c0.04,0.02,0.05,0,0.11,0.02c0.02-0.02,0.04-0.07-0.03-0.08c-0.02,0.01-0.06-0.02-0.08-0.05
				c0.01-0.01,0.03-0.02,0.03-0.02c0,0,0.01-0.01,0.01-0.01c0.07,0,0.15,0.01,0.22,0.03c-0.04-0.06-0.08-0.11-0.11-0.17
				c0.01,0,0.02-0.01,0.03-0.02c0.01-0.01,0.01-0.03,0.01-0.05c0.05,0.01,0.1,0.01,0.1-0.05c-0.01-0.01-0.02-0.02-0.03-0.03
				c0.02-0.02,0.05-0.03,0.07-0.04c0.01-0.01,0.06-0.03,0.07-0.04c0.01-0.01,0.02-0.06,0.02-0.08c0-0.01,0.01-0.06,0.02-0.08
				c0.01-0.01,0.06-0.04,0.07-0.04c0.01-0.02,0.01-0.05,0.02-0.08l0.04-0.15c0.01,0,0.06-0.05,0.07-0.04c0,0.01-0.01,0.06-0.02,0.08
				c0,0.01-0.02,0.07-0.02,0.08c0,0,0.06-0.04,0.07-0.04l0.07-0.04l0.02-0.08L5,22.46c0-0.02,0.01-0.05,0.02-0.08
				c0-0.01,0.06-0.04,0.07-0.05c0.01-0.02,0.01-0.06,0.02-0.08c0.01-0.02,0.05-0.03,0.07-0.05c0.01-0.02,0.01-0.06,0.02-0.08
				c0-0.01,0.01-0.06,0.02-0.08c0.01-0.02,0.05-0.02,0.07-0.05c0.01-0.01,0.06-0.04,0.07-0.04c0.01-0.01,0.05-0.03,0.07-0.05
				c0.01-0.01,0.02-0.07,0.02-0.08c0-0.01,0.01-0.06,0.02-0.08c0.01-0.01,0.06-0.04,0.07-0.05c0,0-0.02,0.07-0.02,0.08
				c0,0,0.06-0.04,0.07-0.04c0-0.01,0.02-0.07,0.02-0.08l0.04-0.15c0.01,0,0.06-0.05,0.07-0.04c0.01,0.01-0.02,0.06-0.02,0.08
				c0,0.01,0.06-0.05,0.07-0.04c0,0-0.02,0.08-0.02,0.08c0.01,0,0.06-0.04,0.07-0.05c0.01-0.02,0.01-0.06,0.02-0.08
				c0.01-0.02,0.05-0.03,0.07-0.05l0.02-0.08c0.01-0.02,0.02-0.06,0.02-0.08c0,0,0.06-0.04,0.07-0.05c0.01-0.01,0.06-0.03,0.07-0.04
				c0.01-0.01,0.02-0.07,0.02-0.08l0.02-0.08l0.02-0.08l0.04-0.15c0.02-0.01,0.05-0.04,0.07-0.04c0.01,0,0.06-0.05,0.07-0.05
				c0.01,0.01-0.02,0.07-0.02,0.08c0.01,0.01-0.03,0.07-0.02,0.08c0,0,0.06-0.04,0.07-0.04c0.01-0.01,0.01-0.06,0.02-0.08
				c0.01-0.01,0.06-0.03,0.07-0.04c0.01-0.02,0.01-0.06,0.02-0.08c0-0.01,0.01-0.06,0.02-0.08c0.01-0.02,0.06-0.03,0.07-0.05
				c0.01-0.02,0-0.05,0.02-0.08c0.01-0.02,0.05-0.03,0.07-0.05c0.01-0.02,0.01-0.05,0.02-0.08c0.01-0.02,0.05-0.03,0.07-0.04
				c0.01-0.01,0.02-0.07,0.02-0.08c0-0.01,0.01-0.07,0.02-0.08c0.01-0.01,0.06-0.04,0.07-0.04c0.01,0,0.06-0.04,0.07-0.05
				c0.01-0.02,0.01-0.06,0.02-0.08l0.02-0.08l0.02-0.08l0.04-0.15c0.02-0.01,0.05-0.04,0.07-0.05c0,0-0.02,0.07-0.02,0.08
				c0,0.01-0.02,0.07-0.02,0.08c0,0,0.06-0.04,0.07-0.04c0.02-0.01,0.05-0.03,0.07-0.05c0,0,0.02-0.07,0.02-0.08
				c0-0.02,0.01-0.05,0.02-0.08c0.01-0.01,0.06-0.03,0.07-0.04c0.01-0.02,0.01-0.06,0.02-0.08c0.01-0.02,0.05-0.03,0.07-0.05
				c0.01-0.02,0.05-0.04,0.07-0.04c0.02-0.01,0.05-0.03,0.07-0.05c0.01-0.01,0.01-0.06,0.02-0.08c0.01-0.02,0.05-0.02,0.07-0.04
				c0.01-0.01,0.02-0.06,0.02-0.08l0.02-0.08c0-0.01,0.01-0.06,0.02-0.08c0-0.01,0.06-0.04,0.07-0.04c0.02-0.01,0.05-0.03,0.07-0.05
				c0.01-0.01,0.01-0.06,0.02-0.08c0.01-0.02,0.05-0.03,0.07-0.04c0.01-0.01,0.02-0.06,0.02-0.08c0.01-0.02,0.01-0.05,0.02-0.08
				c0,0,0.01-0.01,0.02-0.02c0.01-0.1,0.02-0.19,0.13-0.21c0.01,0,0.01-0.01,0.01-0.01c0.01-0.02,0.01-0.06,0.02-0.08
				c0.01-0.02,0.05-0.03,0.07-0.04c0.01-0.02,0.01-0.06,0.02-0.08c0-0.01,0.01-0.06,0.02-0.08c0.01-0.02,0.05-0.03,0.07-0.05
				c0,0-0.02,0.08-0.02,0.08c0,0,0.06-0.04,0.07-0.05c0.01-0.01,0.01-0.02,0.01-0.03l-0.21-0.08c0.09-0.01,0.19-0.02,0.29-0.01
				c0.01-0.02,0-0.05,0.02-0.07c0.01-0.02,0.05-0.03,0.07-0.05c0.01-0.02,0.01-0.05,0.02-0.08c0.01-0.02,0.05-0.03,0.06-0.04
				c0-0.03,0-0.06,0.01-0.1l0.02-0.01c0-0.02,0.01-0.04,0.01-0.04c0.01-0.02,0.05-0.03,0.07-0.04c0.01-0.01,0.01-0.02,0.01-0.04
				L8.28,17.2c0.15-0.04,0.36,0.01,0.48-0.03c0-0.01,0.01-0.03,0.01-0.04l0.04-0.15c0.01-0.01,0.02-0.01,0.03-0.02
				c-0.02-0.14-0.07-0.32,0.04-0.35l-0.13-0.07c0.13-0.07,0.27,0,0.41,0.07l0-0.01c0-0.01,0.01-0.06,0.02-0.08
				c0-0.01,0.06-0.04,0.07-0.05c0.02-0.01,0.05-0.03,0.07-0.04c0.01-0.01,0.01-0.06,0.02-0.08c0.01-0.01,0.02-0.01,0.02-0.02
				l-0.01-0.02l0.07-0.02c0.02-0.01,0.04-0.02,0.06-0.04c0.01-0.02,0-0.06,0.02-0.08c0.01-0.02,0.05-0.03,0.07-0.05
				c0.01-0.01,0.01-0.03,0.01-0.05L9.56,16.1c-0.02,0.01-0.04,0.03-0.04,0.03c0,0,0-0.02,0.01-0.03l-0.18-0.05
				c-0.1-0.25,0.43-0.26,0.09-0.55c0.27-0.14,0.59-0.34,0.56-0.66l0.4-0.11l-0.22-0.29c0.54,0.16,0.19-0.23,0.34-0.31l0.33,0.13
				c0.16-0.08-0.33-0.67,0.13-0.44c0.44-0.16-0.06-0.88,0.68-0.79l-0.11-0.45c0.15-0.01,0.32-0.01,0.49,0
				c0.01-0.02,0.01-0.04,0.01-0.05c0-0.02,0.01-0.05,0.02-0.08l0.01-0.05c-0.04-0.02-0.07-0.05-0.11-0.09
				c0.2-0.07,0.05-0.4,0.21-0.48c0.14-0.06,0.26,0.01,0.37,0.09c0.01-0.01,0.02-0.01,0.02-0.02c0.01-0.01,0.06-0.03,0.07-0.04
				c0.01-0.01,0.02-0.07,0.02-0.08l0.01-0.02c-0.13-0.09-0.25-0.17-0.19-0.26c0.1,0.02,0.2,0.03,0.3,0.03c0-0.01,0-0.02,0-0.02
				c0-0.01,0.01-0.06,0.02-0.08c0.01-0.02,0.05-0.03,0.07-0.04c0.01-0.01,0.01-0.07,0.02-0.08c0.02-0.02,0.05-0.03,0.07-0.05
				c0.01-0.01,0.05-0.03,0.07-0.05c0.01-0.01,0.01-0.06,0.02-0.08c0.01-0.02,0.05-0.03,0.07-0.04c0.02-0.02,0.05-0.03,0.07-0.05
				c0.01-0.02,0-0.06,0.02-0.08c0,0-0.06,0.05-0.07,0.05c0,0,0.02-0.07,0.02-0.08c0-0.02,0.01-0.05,0.02-0.08
				c0.01-0.01,0.06-0.03,0.07-0.04c0.01-0.02,0.01-0.06,0.02-0.08c0.02-0.02,0.05-0.03,0.07-0.05c0.02-0.02,0.05-0.03,0.07-0.05
				l0.07-0.04l0.07-0.05c0.02-0.01,0.05-0.03,0.07-0.04c0,0,0.02-0.07,0.02-0.08c0-0.01,0.01-0.06,0.02-0.08
				c0.01-0.01,0.06-0.04,0.07-0.04c0,0-0.02,0.08-0.02,0.08c0.01,0.01,0.06-0.05,0.07-0.05c0.02-0.02,0.05-0.02,0.07-0.04
				c0-0.01,0.02-0.07,0.02-0.08c0-0.01-0.06,0.05-0.07,0.04c0,0,0.02-0.07,0.02-0.08c0-0.02,0.02-0.06,0.02-0.08
				c0-0.01-0.06,0.05-0.07,0.04c-0.01,0,0.02-0.06,0.02-0.08c0-0.02,0.01-0.05,0.02-0.08l0.02-0.08c0.01,0,0.06-0.05,0.07-0.05
				c0,0.01-0.01,0.06-0.02,0.08c0,0.02-0.02,0.06-0.02,0.08c0,0.01,0.06-0.05,0.07-0.05c0.01,0-0.03,0.07-0.02,0.08
				c0.01,0.01,0.06-0.05,0.07-0.04l0.02-0.08l0.02-0.08c0-0.02,0.01-0.06,0.02-0.08c0.01-0.01,0.06-0.03,0.07-0.05
				c0.01-0.02,0.01-0.06,0.02-0.08c0.01-0.01,0.06-0.04,0.07-0.05c0,0-0.02,0.07-0.02,0.08c0,0,0.06-0.04,0.07-0.04
				c0.01-0.02,0.02-0.06,0.02-0.08l0.02-0.08l0.04-0.15c0.02-0.01,0.05-0.04,0.07-0.05c0.01,0,0.06-0.05,0.07-0.04
				c0.01,0-0.03,0.08-0.02,0.08c0.01,0,0.05-0.03,0.07-0.05c0.01-0.01,0.05-0.03,0.07-0.04c0.01-0.01,0.02-0.07,0.02-0.08l0.02-0.08
				c0-0.02,0.01-0.05,0.02-0.08c0-0.01,0.06-0.03,0.07-0.04c0.01-0.02,0.01-0.06,0.02-0.08c0.01-0.02,0.05-0.02,0.07-0.05
				c0.01-0.02,0.01-0.06,0.02-0.08c0.01-0.02,0.05-0.03,0.07-0.05c0.01-0.02,0-0.06,0.02-0.08c0.01-0.02,0.06-0.03,0.07-0.04
				c0.01-0.02,0.02-0.06,0.02-0.08l0.02-0.08c0-0.02,0.01-0.06,0.02-0.08c0.01-0.01,0.06-0.03,0.07-0.04C15,8.38,14.99,8.34,15,8.32
				c0.01-0.02,0.05-0.03,0.07-0.05l-0.02,0.08c-0.01,0.02-0.02,0.06-0.02,0.08c0,0.01-0.02,0.07-0.02,0.08c0,0,0.06-0.04,0.07-0.04
				c0.01-0.01,0.01-0.06,0.02-0.08c0.02-0.02,0.05-0.02,0.07-0.05c0.01-0.01,0.02-0.07,0.02-0.08c0-0.01,0.01-0.06,0.02-0.08
				c0.01-0.02,0.05-0.03,0.07-0.04c0.01-0.02,0.01-0.06,0.02-0.08c0.01-0.02,0.05-0.03,0.07-0.04c0.01-0.02,0.01-0.06,0.02-0.08
				c0.01-0.02,0.05-0.03,0.07-0.04c0.02-0.02,0.05-0.02,0.07-0.05c0.01-0.02,0.01-0.06,0.02-0.08l-0.07,0.05
				c0,0,0.02-0.07,0.02-0.08c0-0.01,0.01-0.07,0.02-0.08c0.01-0.01,0.06-0.04,0.07-0.04c0.02-0.01,0.05-0.04,0.07-0.05
				c0.01,0-0.02,0.07-0.02,0.08c0,0,0.06-0.04,0.07-0.05c0.01-0.01,0.02-0.06,0.02-0.08l0.02-0.08l0.02-0.08l0.02-0.08
				c0.01-0.02,0.01-0.05,0.02-0.08c0-0.01,0.06-0.03,0.07-0.04c0.01-0.02,0.01-0.05,0.02-0.08c0.01-0.02,0-0.06,0.02-0.08
				c0.01-0.02,0.05-0.03,0.07-0.04c0,0,0.06-0.05,0.07-0.05c0.01,0-0.03,0.07-0.02,0.08c0,0,0.06-0.04,0.07-0.05
				c0,0,0.02-0.08,0.02-0.09c0.01-0.01,0.05-0.05,0.06-0.06c0.01-0.01,0.05-0.04,0.06-0.06c0-0.01,0-0.08,0-0.09
				c0-0.01,0-0.08,0-0.09c0-0.02,0.04-0.06,0.04-0.08c0-0.03-0.01-0.07-0.01-0.1c0-0.02-0.02-0.08-0.02-0.1
				c0-0.02,0.03-0.06,0.02-0.08c0-0.03,0.01-0.06,0.02-0.09c0-0.01,0.02-0.08,0.01-0.09c-0.01-0.03-0.04-0.08-0.05-0.1
				c-0.01-0.02-0.04-0.09-0.05-0.1c0-0.01-0.01-0.07-0.01-0.1c0-0.02,0-0.07-0.01-0.1c-0.01-0.02-0.06-0.08-0.07-0.1
				c-0.01-0.03-0.01-0.07-0.03-0.1c-0.02-0.03-0.06-0.07-0.08-0.1c-0.01-0.02-0.02-0.08-0.04-0.1c-0.01-0.01-0.08-0.08-0.08-0.1
				c0,0-0.01-0.01-0.01-0.02c-0.01-0.01-0.02-0.02-0.03-0.03c-0.02-0.02-0.03-0.03-0.04-0.04c-0.01-0.01-0.02-0.03-0.03-0.05h0
				c-0.01-0.1-0.01-0.18-0.08-0.26c-0.12-0.12,0.05-0.14-0.02-0.22L15.44,4.5c-0.07-0.08-0.08-0.15-0.03-0.21
				c-0.1-0.05-0.17-0.15-0.22-0.21c-0.05,0.08-0.02,0.23-0.05,0.32c-0.03-0.02-0.06-0.04-0.08-0.05C15.04,4.34,15.02,4.32,15,4.3
				c0.03,0,0.05,0,0.06-0.02c-0.03-0.02-0.07-0.02-0.1-0.03c0,0,0,0,0,0c-0.01-0.01-0.03-0.02-0.05-0.03l-0.09-0.1
				c0.01-0.05,0.07-0.08,0.16-0.01l-0.1-0.08l0.06-0.06l0.15,0.11l-0.01-0.13l-0.14-0.02l0.02-0.09L14.86,3.8z M1.7,23.01
				c0,0-0.01-0.01-0.02-0.02c0.02,0,0.04,0,0.06,0c0.01,0.01,0.02,0.02,0.04,0.03c0,0.01,0,0.01,0,0.02l-0.06,0
				C1.71,23.03,1.7,23.02,1.7,23.01z M1.62,23.04c0,0,0.01,0.01,0.01,0.01C1.63,23.05,1.62,23.04,1.62,23.04L1.62,23.04z
				 M3.07,23.95l-0.04,0.03l0.01,0.05l-0.08-0.11C3.01,23.96,3.04,23.86,3.07,23.95z M1.5,23.14c0-0.06,0.07-0.05,0.12-0.06v0
				c0.03,0.02,0.06,0.05,0.08,0.06c-0.04,0.02-0.14-0.02-0.18,0.02c0.06,0.01,0.16,0.05,0.13,0.09C1.59,23.29,1.52,23.18,1.5,23.14z
				 M2.22,23.58l-0.06,0.01l-0.02-0.1C2.2,23.48,2.21,23.56,2.22,23.58z M2.48,24.04c0.01-0.01,0.01-0.02,0.01-0.03l0-0.01L2.57,24
				c-0.02,0.02-0.04,0.04-0.07,0.05C2.49,24.05,2.48,24.04,2.48,24.04z M1.61,23.58c-0.05-0.07-0.13-0.08-0.19-0.08L1.4,23.41
				c0.11,0.07,0.22,0.05,0.3,0.15l-0.09,0.05l0.02,0.13L1.57,23.7L1.61,23.58z M1.97,23.83c0,0,0.04,0.08,0.04,0.08
				c0,0.01,0,0.07,0,0.08c0,0.01-0.01,0.08-0.01,0.07c0,0,0-0.02-0.01-0.04c0-0.02-0.01-0.04-0.01-0.04
				c-0.01-0.03-0.02-0.05-0.03-0.08c0-0.03,0-0.05-0.01-0.08c0,0.01,0.04,0.07,0.04,0.08C1.99,23.91,1.97,23.83,1.97,23.83z
				 M1.33,23.72L1.33,23.72c-0.01-0.02-0.02-0.04-0.03-0.06c0.02-0.01,0.03-0.01,0.04-0.03c0.01,0.01,0.02,0.01,0.03,0.01l0.02,0
				C1.37,23.61,1.4,23.6,1.43,23.6l0,0C1.49,23.72,1.4,23.71,1.33,23.72z M1.55,23.84l0.1-0.04l0.04,0.04l0.05-0.01l-0.03,0.05
				l0.03,0.02C1.67,23.92,1.6,23.87,1.55,23.84z M2.72,24.37l-0.04,0.02l-0.11-0.08C2.59,24.25,2.68,24.31,2.72,24.37z M2.33,24.3
				l-0.19-0.12C2.26,24.18,2.1,23.96,2.28,24C2.35,24.1,2.34,24.22,2.33,24.3z M3.4,24.1c-0.05,0.06-0.18-0.03-0.2,0.05
				c0.11,0.09,0.13,0.09,0.22,0.07L3.37,24.3l-0.12-0.02c0.11,0.14-0.07,0.08-0.13,0.1l-0.09-0.04l-0.05,0.04l0.08,0.06l0.01,0.04
				C3,24.43,2.92,24.33,2.98,24.31l-0.06-0.05l-0.06,0.05l0.05,0.03l-0.09,0.01l0.02-0.06c-0.06-0.06-0.14-0.09-0.16-0.17
				c0.05-0.05-0.07-0.15,0.02-0.16c0.02-0.13,0.12,0.08,0.2,0.05l-0.04,0.04c-0.3,0.21,0.14,0.2,0.09,0.13l0.05,0.04
				c-0.05,0.01-0.04,0.09,0.02,0.11l0.1-0.03c-0.05-0.04-0.03-0.1-0.02-0.14c0.09-0.01,0.06-0.11,0.14-0.14l-0.02-0.02l0.08-0.03
				C3.26,23.99,3.33,24.05,3.4,24.1z M3.56,23.98c0.01,0.05-0.07,0.05-0.12,0.04l-0.05-0.04C3.42,23.94,3.51,23.91,3.56,23.98z
				 M3.61,23.88c-0.04-0.01-0.07-0.02-0.09-0.04c0.02,0,0.05,0,0.06,0c0.01,0,0.02,0.01,0.03,0.01L3.61,23.88z M3.9,23.75l0.04,0.09
				c0,0.07-0.13,0.01-0.14,0.07l0.09,0.06c-0.04,0.03-0.1,0.02-0.14-0.04l0-0.12L3.7,23.79c0.01-0.01,0.03-0.02,0.04-0.02
				c0,0,0.01,0,0.02,0l0.13,0.04l-0.03-0.05C3.87,23.75,3.88,23.75,3.9,23.75C3.9,23.74,3.9,23.75,3.9,23.75z M9.03,16.17L9,16.13
				l0.08,0C9.12,16.17,9.05,16.17,9.03,16.17z M8.7,15.74l-0.05-0.06l0.11,0C8.81,15.74,8.72,15.74,8.7,15.74z M8.83,15.47
				l0.01-0.07l0.2,0.08C8.98,15.49,8.98,15.53,8.83,15.47z M9.68,14.79c-0.05-0.09,0.18,0,0.12-0.11l0.03,0.02
				C9.85,14.77,9.8,14.87,9.68,14.79z M14,4.71c0.02,0.02,0.03,0.03,0.02,0.06l-0.05-0.02L14,4.71z M14.92,5.32
				c0,0.01-0.02,0.01-0.03,0.01l-0.01,0.03c0-0.02-0.04,0-0.03-0.02l0.03,0l-0.01-0.01C14.86,5.31,14.9,5.33,14.92,5.32
				C14.9,5.31,14.87,5.3,14.88,5.3C14.9,5.29,14.91,5.31,14.92,5.32z M14.26,4.81l-0.08-0.04l0.02-0.04
				C14.25,4.75,14.3,4.79,14.26,4.81z M14.91,4.75c0.02,0.03,0.06,0.04,0.08,0.04l0,0.04c-0.05-0.03-0.1-0.03-0.13-0.07l0.04-0.02
				l0-0.06l0.03,0.02L14.91,4.75z M13.52,3.61l0,0.15C13.37,3.65,13.35,3.6,13.52,3.61z M14.3,4.1c-0.07-0.01,0.01,0.11-0.09,0.08
				c-0.03-0.05-0.02-0.11-0.01-0.15L14.3,4.1z M13.58,3.59C13.58,3.59,13.57,3.59,13.58,3.59c0,0,0.01,0,0.02,0
				C13.59,3.59,13.59,3.59,13.58,3.59z M14.29,3.7c-0.05,0-0.08-0.02-0.13-0.05l0-0.03C14.22,3.65,14.27,3.66,14.29,3.7z"/>
		</g>
	</g>
</g>
<g>
	<g>
		<g>
			<path class="st0" d="M17.51,4.19c0,0,0.07,0.05,0.06,0.04c0-0.01-0.01-0.07-0.02-0.08c-0.01-0.01-0.06-0.04-0.06-0.04
				c-0.01-0.01-0.06-0.05-0.06-0.04c-0.01,0.01,0.02,0.07,0.02,0.08c0.01,0.02,0.01,0.06,0.02,0.08c0.01,0.01,0.06,0.04,0.06,0.04
				C17.54,4.27,17.51,4.19,17.51,4.19z"/>
			<path class="st0" d="M12.03,3.11c-0.01,0.07,0.09,0.04,0.16-0.01l-0.03-0.08L12.03,3.11z"/>
			<path class="st0" d="M12.31,2.75c0.03,0.05,0.05,0.04,0.1,0.03l-0.01-0.1L12.31,2.75z"/>
			<path class="st0" d="M13.98,2.01l0.03-0.07L13.9,1.97C13.86,2.01,13.94,2.01,13.98,2.01z"/>
			<path class="st0" d="M11.74,3.95c0.07,0.03,0.05,0.04,0.17,0.01l0-0.06L11.74,3.95z"/>
			<path class="st0" d="M12.84,2.35c0.04,0.07,0.13-0.06,0.16-0.08C12.95,2.28,12.89,2.29,12.84,2.35z"/>
			<path class="st0" d="M12.67,2.76l0.01-0.16c0.04-0.06,0.08-0.11,0.02-0.08l-0.04,0.06C12.58,2.63,12.65,2.7,12.67,2.76z"/>
			<path class="st0" d="M21.42,9.79c0,0-0.01-0.01-0.02-0.01c-0.06,0.09,0,0.15,0.12,0.18c-0.01-0.02-0.02-0.05-0.01-0.05
				c0-0.01,0.04,0.03,0.05,0.04c0,0,0.01-0.01,0.01-0.01c-0.01-0.02-0.02-0.06-0.02-0.06c-0.02-0.02-0.05-0.02-0.06-0.04
				c-0.01-0.02-0.01-0.06-0.02-0.08c0-0.01-0.02-0.01-0.03-0.02c-0.01,0.01-0.02,0.02-0.02,0.03C21.41,9.78,21.42,9.79,21.42,9.79z"
				/>
			<path class="st0" d="M24.25,13.81c0.01,0.01,0.02,0.07,0.02,0.08c0.01,0.01,0.06,0.04,0.06,0.04c0,0-0.02-0.07-0.02-0.08
				c-0.01-0.02-0.01-0.06-0.02-0.08c-0.01-0.01-0.06-0.04-0.06-0.04c-0.01-0.01-0.06-0.05-0.06-0.04c-0.01,0.01,0.03,0.07,0.02,0.08
				C24.21,13.79,24.24,13.79,24.25,13.81z"/>
			<path class="st0" d="M14.83,9.13c-0.02-0.01-0.05-0.03-0.07-0.04c-0.01,0-0.06-0.04-0.07-0.04c0,0,0.02,0.06,0.03,0.07
				c0,0,0.06,0.03,0.07,0.04c0.01,0.01,0.01,0.06,0.03,0.07c0.02,0.02,0.05,0.02,0.07,0.04c-0.01-0.02-0.02-0.05-0.03-0.07
				C14.85,9.2,14.82,9.14,14.83,9.13z"/>
			<path class="st0" d="M22.54,11.57c0,0-0.02-0.07-0.02-0.08c-0.01-0.02-0.05-0.02-0.06-0.04c0,0,0.02,0.08,0.02,0.08
				S22.54,11.57,22.54,11.57z"/>
			<path class="st0" d="M14.24,8.57c0.02,0.02,0.05,0.02,0.07,0.04c0,0-0.03-0.07-0.03-0.07c0,0-0.07-0.04-0.07-0.04
				S14.24,8.56,14.24,8.57z"/>
			<path class="st0" d="M28.4,21.42c0.01-0.01,0.01-0.03,0.02-0.04c0-0.01-0.01-0.01-0.01-0.02c-0.01,0.02-0.03,0.04-0.06,0.07
				L28.4,21.42z"/>
			<path class="st0" d="M28.51,20.87L28.51,20.87c0.02,0.01,0.03,0.02,0.03,0.03c0-0.01,0.01-0.01,0.02-0.02
				c0-0.03-0.01-0.06-0.03-0.08L28.51,20.87z"/>
			<path class="st0" d="M27.9,21.96l0.08-0.07c-0.08-0.07-0.12-0.03-0.19-0.02L27.9,21.96z"/>
			<polygon class="st0" points="27.08,22.13 27.09,22.15 27.16,22.14 27.12,22.09 			"/>
			<path class="st0" d="M28.48,21.22l0.01-0.05c-0.02,0-0.08-0.01-0.09,0.04L28.48,21.22z"/>
			<polygon class="st0" points="27.22,22.1 27.24,22.17 27.28,22.11 			"/>
			<path class="st0" d="M27.34,22.07l0.01,0.02c0.05-0.11,0.18-0.01,0.22-0.1C27.55,21.9,27.4,22,27.34,22.07z"/>
			<path class="st0" d="M27.99,21.57l0.08-0.01C28.05,21.55,28.01,21.54,27.99,21.57L27.99,21.57z"/>
			<path class="st0" d="M27.72,21.87c-0.04,0.06-0.02,0.06-0.01,0.08l0.05-0.08L27.72,21.87z"/>
			<path class="st0" d="M28.35,21.69l0.01-0.06c-0.02,0-0.1-0.01-0.12,0.05L28.35,21.69z"/>
			<path class="st0" d="M28.69,20.72c-0.01-0.03-0.04-0.05-0.08-0.06c0.02,0.03,0.05,0.05,0.07,0.08
				C28.68,20.73,28.68,20.72,28.69,20.72z"/>
			<polygon class="st0" points="27.24,22.38 27.24,22.38 27.24,22.38 			"/>
			<path class="st0" d="M28.16,21.52c-0.03,0.04-0.05,0.08-0.01,0.06l0.03-0.04c0.06-0.05,0-0.09-0.02-0.13L28.16,21.52z"/>
			<path class="st0" d="M28.55,20.59c0.02-0.01,0.08-0.07,0.06-0.1C28.57,20.52,28.54,20.57,28.55,20.59z"/>
			<path class="st0" d="M27.57,21.61c-0.02,0.01-0.07,0.08-0.04,0.1C27.56,21.68,27.58,21.62,27.57,21.61z"/>
			<path class="st0" d="M28.13,20.3l0.11,0.03C28.29,20.21,28.24,20.21,28.13,20.3z"/>
			<path class="st0" d="M23.14,12.33c-0.08-0.07-0.12-0.03-0.19-0.02l0.11,0.09L23.14,12.33z"/>
			<path class="st0" d="M23.42,12.93c0.05-0.11,0.18-0.01,0.22-0.1c-0.03-0.09-0.18,0.01-0.23,0.08L23.42,12.93z"/>
			<path class="st0" d="M23.36,12.39c0.02-0.01,0.08-0.07,0.06-0.1C23.38,12.31,23.35,12.37,23.36,12.39z"/>
			<path class="st0" d="M22.2,11.21c0.01-0.03,0.01-0.08-0.02-0.08C22.17,11.14,22.15,11.21,22.2,11.21z"/>
			<path class="st0" d="M12.79,2.5l0.15,0.1L12.8,2.69c-0.08,0.27-0.24,0.03-0.41,0.2c-0.04,0.07-0.11,0.18-0.19,0.29
				c0.01,0.07-0.15,0.12-0.1,0.2l0.11,0.01c0-0.01,0.01-0.02,0.01-0.02l-0.03-0.01l0.04-0.01c0.08-0.14,0.16-0.26,0.23-0.11
				c-0.04,0.07-0.08-0.01-0.13,0.06c0,0.01,0.01,0.02,0.01,0.02l0.02-0.01c-0.01,0-0.01,0.01-0.01,0.01c0.02,0.01,0.04,0,0.06-0.01
				c0,0,0,0,0,0c-0.02,0.02-0.03,0.04-0.04,0.07c-0.01,0-0.02,0.01-0.04,0.02c0,0.02-0.01,0.03-0.04,0.03
				c-0.03,0.03-0.05,0.07-0.07,0.11l-0.02-0.02l-0.01,0c0-0.01,0.01-0.01,0.01-0.02c0.01-0.03,0.03-0.06,0.05-0.09l0-0.01
				c-0.04,0.04-0.08,0.08-0.11,0.12l-0.04,0l-0.03-0.02l-0.1,0.06l0.04,0.04l0.11-0.07c0,0,0.01,0,0.01,0
				c-0.02,0.02-0.04,0.04-0.06,0.06c-0.02,0.03-0.03,0.07-0.04,0.1l-0.05-0.01l-0.01,0.06l0.05-0.01C12.02,3.79,12.01,3.82,12,3.84
				c-0.01,0.03-0.02,0.05-0.03,0.08c0.01-0.01,0.01-0.02,0.02-0.03l0.08-0.05c0.03,0.06,0.02,0.18-0.1,0.22
				C11.94,4.06,11.94,4.03,11.94,4c-0.04,0.06-0.08,0.12-0.08,0.17c0.02-0.01,0.03,0,0.04,0c-0.02,0.03-0.05,0.07-0.05,0.08
				c-0.01,0.02-0.03,0.04-0.04,0.07c0.04-0.02,0.09-0.03,0.09,0.01l0.04-0.02l-0.01-0.05L11.9,4.28l0.02-0.06l0.03,0.03
				C12,4.24,12.04,4.19,12.09,4.2c0.01,0.04,0.1,0,0.08,0.05c0.07,0.05-0.08,0.05-0.08,0.11l-0.01-0.04
				c-0.04-0.24-0.15,0.03-0.1,0.02l-0.04,0.02c0.01-0.03-0.04-0.05-0.07-0.02l-0.01,0.07c0.04-0.02,0.07,0.01,0.09,0.02
				C11.94,4.51,12.01,4.52,12,4.57l0.02,0l0,0.06c-0.01-0.03-0.06-0.01-0.11,0.02c-0.02-0.05,0.07-0.1,0.02-0.14
				c-0.08,0.04-0.08,0.06-0.1,0.12l-0.03-0.05l0.04-0.07c-0.11,0.03-0.03-0.06-0.02-0.11l0.05-0.04l-0.01-0.04l-0.05,0.03l-0.01,0
				c0,0.01-0.01,0.01-0.01,0.02c-0.01,0.02,0,0.08-0.01,0.1c-0.01,0.03-0.04,0.07-0.05,0.11c0,0.02,0.01,0.08,0.01,0.09
				c0,0.02,0.02,0.07,0.01,0.09c0,0.02-0.03,0.09-0.03,0.11c-0.01,0.02-0.02,0.09-0.02,0.1c0,0.03,0.03,0.05,0.03,0.08
				c0,0.02-0.02,0.08-0.01,0.1c0.01,0.03,0.03,0.05,0.04,0.08c0.01,0.03,0.04,0.04,0.05,0.07c0.01,0.03-0.01,0.07,0,0.1
				c0.01,0.03,0.05,0.04,0.06,0.06c0.01,0.03,0,0.06,0.01,0.09c0,0-0.06-0.06-0.06-0.06s0.01,0.09,0.02,0.09
				c0.01,0.02,0.06,0.04,0.07,0.05l0.07,0.05c0.01,0.01,0.06,0.03,0.07,0.04c0.01,0.01,0.02,0.06,0.03,0.07
				c0,0.01,0.02,0.07,0.03,0.07c0.02,0.02,0.05,0.03,0.07,0.04c0.02,0.01,0.06,0.04,0.07,0.04c0.01,0-0.03-0.07-0.03-0.07
				c0,0,0.02,0.01,0.04,0.02l0.05,0.18c0.02,0.05,0.06,0.04,0.1,0.02c0,0,0.01,0,0.01,0c0.01,0.01,0.03,0.07,0.03,0.07
				c0,0.01-0.06-0.04-0.07-0.04c-0.01,0,0.03,0.07,0.03,0.07c-0.01,0-0.05-0.03-0.07-0.04c-0.01-0.01-0.06-0.04-0.07-0.04
				c-0.01,0.01,0.03,0.06,0.03,0.07l0.14,0.08l0.07,0.04l0.07,0.04c0.01,0,0.02,0.01,0.03,0.01c-0.02,0.03-0.03,0.05-0.05,0.07
				c0.04,0,0.07-0.01,0.1-0.02c0,0.02,0.01,0.04,0.01,0.04c0.02,0.02,0.05,0.02,0.07,0.04c0.01,0.03,0.01,0.05,0.03,0.07
				c0.01,0.01,0.02,0.06,0.03,0.07c0.01,0.02,0.06,0.02,0.07,0.04c0.01,0.01,0.02,0.06,0.03,0.07c0,0.01,0.03,0.07,0.03,0.07
				c0,0.01-0.06-0.04-0.07-0.04c-0.01,0.01,0.03,0.06,0.03,0.07c0.01,0.02,0.01,0.06,0.03,0.07c0.01,0.01,0.06,0.04,0.07,0.04
				c0,0-0.03-0.07-0.03-0.07c0,0,0.07,0.05,0.07,0.04c0-0.01-0.02-0.06-0.03-0.07L12.92,6.8c0.02,0.02,0.05,0.02,0.07,0.04
				C13,6.86,13,6.9,13.01,6.92c0.01,0.02,0.06,0.02,0.07,0.04c0.01,0.01,0.02,0.06,0.03,0.07c0,0.01,0.03,0.07,0.03,0.07
				c0,0.01-0.06-0.04-0.07-0.04c0,0,0.02,0.07,0.03,0.07c0.01,0.01,0.06,0.03,0.07,0.04c0.02,0.01,0.05,0.03,0.07,0.04
				c0.01,0.01,0.06,0.04,0.07,0.04c0.01,0-0.03-0.07-0.03-0.07c0,0,0.06,0.03,0.07,0.04c0.01,0.01,0.02,0.07,0.03,0.07l0.03,0.07
				c0.01,0.02,0.01,0.05,0.03,0.07c0,0.01,0.06,0.03,0.07,0.04c0.01,0.01,0.02,0.07,0.03,0.07c0,0.01,0.02,0.07,0.03,0.07
				c0.01,0.01,0.06,0.03,0.07,0.04c0.02,0.01,0.05,0.02,0.07,0.04c0.01,0.01,0.06,0.02,0.07,0.04c0.02,0.02,0.01,0.05,0.03,0.07
				c0,0-0.07-0.04-0.07-0.04s0.02,0.07,0.03,0.07c0.01,0.01,0.06,0.03,0.07,0.04c0.01,0.01,0.06,0.03,0.07,0.04
				c0.02,0.02,0.01,0.06,0.03,0.07c0.02,0.02,0.01,0.05,0.03,0.07c0.01,0.02,0.06,0.02,0.07,0.04c0.02,0.02,0.01,0.05,0.03,0.07
				c0.01,0.02,0.06,0.02,0.07,0.04c0.01,0.01,0.02,0.07,0.03,0.07c0,0.01,0.02,0.06,0.03,0.07c0.01,0.01,0.06,0.03,0.07,0.04
				c0.01,0.01,0.06,0.03,0.07,0.04c0.02,0.02,0.01,0.05,0.03,0.07c0,0,0.06,0.03,0.07,0.04c0,0,0.02,0.07,0.03,0.07
				c0.01,0.02,0.05,0.03,0.07,0.04c0.02,0.02,0.05,0.03,0.07,0.04c0.01,0.01,0.06,0.03,0.07,0.04c0.01,0.02,0.01,0.06,0.03,0.07
				c0,0-0.07-0.04-0.07-0.04c0,0,0.02,0.07,0.03,0.07c0.01,0.01,0.06,0.03,0.07,0.04c0.02,0.01,0.05,0.02,0.07,0.04
				c0.01,0.01,0.06,0.02,0.07,0.04C14.79,9,14.79,9.04,14.8,9.06c0.02,0.02,0.01,0.05,0.03,0.07c0.01,0,0.06,0.04,0.07,0.04
				c0.01,0,0.06,0.03,0.07,0.04c0.01,0.01,0.02,0.07,0.03,0.07c0.02,0.02,0.05,0.03,0.07,0.04l0.14,0.08c0,0.01,0.03,0.07,0.03,0.07
				c-0.01,0,0.03,0.07,0.03,0.07c-0.01,0.01-0.06-0.04-0.07-0.04s-0.06-0.04-0.07-0.04c0,0,0.02,0.06,0.03,0.07
				c0,0,0.06,0.03,0.07,0.04c0.02,0.02,0.01,0.06,0.03,0.07c0.02,0.02,0.05,0.02,0.07,0.04c0.02,0.02,0.01,0.05,0.03,0.07l0.05,0.15
				c0.02,0.01,0.05,0.03,0.07,0.04c0.01,0.01,0.06,0.04,0.07,0.04c0.01-0.01-0.03-0.07-0.03-0.07c0.01,0-0.03-0.07-0.03-0.07
				c0,0,0.06,0.03,0.07,0.04l0.07,0.04L15.62,10c0.01,0.02,0.01,0.05,0.03,0.07c0.01,0.01,0.06,0.03,0.07,0.04
				c0.01,0.01,0.02,0.06,0.03,0.07c0.01,0.02,0.02,0.05,0.03,0.07c0,0.01,0.02,0.06,0.03,0.07c0.01,0.01,0.06,0.03,0.07,0.04
				c0.02,0.01,0.05,0.02,0.07,0.04c0.01,0.01,0.02,0.06,0.03,0.07c0.01,0.02,0.06,0.02,0.07,0.04c0.01,0.01,0.01,0.06,0.03,0.07
				c0.02,0.02,0.05,0.03,0.07,0.04c0.02,0.01,0.05,0.02,0.07,0.04c0.02,0.01,0.05,0.02,0.07,0.04c0.01,0.01,0.01,0.06,0.03,0.07
				c0.02,0.02,0.05,0.02,0.07,0.04c0,0.02,0.02,0.06,0.03,0.07c0,0.02,0.02,0.05,0.03,0.07c0,0.01,0.03,0.07,0.03,0.07
				c0,0-0.07-0.04-0.07-0.04c0,0.02,0.02,0.05,0.03,0.07c0,0.01,0.02,0.06,0.03,0.07c0.01,0.01,0.06,0.03,0.07,0.04
				c-0.01,0-0.02-0.07-0.03-0.07l0.07,0.04l0.07,0.04c0.01,0.01,0.06,0.03,0.07,0.04c0.01,0.01,0.02,0.06,0.03,0.07
				c0.01,0.02,0.01,0.05,0.03,0.07c0.01,0.02,0.01,0.06,0.03,0.07c0.01,0.02,0.06,0.02,0.07,0.04c0.02,0.02,0.01,0.05,0.03,0.07
				c0.01,0.01,0.06,0.03,0.07,0.04c0.02,0.01,0.05,0.02,0.07,0.04c0.01,0.01,0.06,0.02,0.07,0.04c0.02,0.02,0.01,0.05,0.03,0.07
				c0.01,0.01,0.02,0.06,0.03,0.07c0,0.01,0.02,0.06,0.03,0.07c0.01,0.01,0.06,0.03,0.07,0.04c0.01,0.01,0.06,0.03,0.07,0.04
				c0.01,0.01,0.02,0.06,0.03,0.07c0,0.01,0.02,0.07,0.03,0.07c0.01,0.01,0.06,0.03,0.07,0.04c0.01,0.01,0.06,0.03,0.07,0.04
				c0.01,0.02,0.01,0.06,0.03,0.07c0.02,0.02,0.05,0.02,0.07,0.04c0.01,0.01,0.01,0.06,0.03,0.07c0.01,0.01,0.06,0.03,0.07,0.04
				c0,0-0.03-0.07-0.03-0.07c0,0,0.06,0.03,0.07,0.04l0.07,0.04c0,0.01,0.03,0.07,0.03,0.07c0,0-0.07-0.05-0.07-0.04
				c0,0.01,0.02,0.06,0.03,0.07l0.03,0.07c0,0.01,0.01,0.06,0.03,0.07c0.01,0.01,0.06,0.03,0.07,0.04l0.07,0.04
				c0.02,0.01,0.05,0.02,0.07,0.04c0.01,0.01,0.02,0.06,0.03,0.07c0.01,0.02,0.05,0.02,0.07,0.04c0.02,0.02,0.01,0.05,0.03,0.07
				c0.01,0.02,0.06,0.02,0.07,0.04c0.02,0.02,0.01,0.06,0.03,0.07c0,0-0.07-0.04-0.07-0.04s0.02,0.07,0.03,0.07
				c0.02,0.02,0.05,0.02,0.07,0.04c0.02,0.02,0.01,0.06,0.03,0.07c0.02,0.02,0.05,0.02,0.07,0.04c0.02,0.02,0.01,0.05,0.03,0.07
				c0.01,0.02,0.05,0.02,0.07,0.04c0.01,0.01,0.02,0.07,0.03,0.07c0.02,0.02,0.05,0.03,0.07,0.04l0.07,0.04
				c0.01,0.01,0.05,0.02,0.07,0.04c0.01,0.01,0.01,0.06,0.03,0.07c0.01,0.02,0.06,0.02,0.07,0.04c0.02,0.02,0.01,0.05,0.03,0.07
				c0,0-0.07-0.04-0.07-0.04s0.02,0.07,0.03,0.07c0.01,0.01,0.06,0.03,0.07,0.04c0.02,0.01,0.05,0.02,0.07,0.04
				c0.01,0.01,0.06,0.02,0.07,0.04c0.01,0.01,0.02,0.06,0.03,0.07c0,0.01,0.03,0.07,0.03,0.07c-0.01,0.01-0.06-0.04-0.07-0.04
				c-0.01,0-0.06-0.04-0.07-0.04c0,0,0.02,0.07,0.03,0.07c0.01,0.01,0.06,0.03,0.07,0.04c0.02,0.01,0.05,0.02,0.07,0.04
				c0.02,0.01,0.05,0.02,0.07,0.04c0.01,0.01,0.01,0.06,0.03,0.07c0.01,0.01,0.06,0.03,0.07,0.04l-0.03-0.07
				c0,0,0.06,0.03,0.07,0.04c0,0,0.02,0.07,0.03,0.07c0.01,0.02,0.06,0.02,0.07,0.04c0.01,0.01,0.02,0.06,0.03,0.07
				c0,0-0.07-0.04-0.07-0.04c0,0,0.02,0.07,0.03,0.07c0,0.01,0.02,0.06,0.03,0.07c0.01,0.01,0.06,0.03,0.07,0.04l0.07,0.04
				c0.02,0.01,0.05,0.02,0.07,0.04c0.01,0.01,0.02,0.07,0.03,0.07c0.01,0.01,0.06,0.03,0.07,0.04l0.07,0.04l0.05,0.15l-0.07-0.04
				c-0.02-0.01-0.05-0.02-0.07-0.04c-0.01-0.01-0.02-0.06-0.03-0.07c-0.02-0.02-0.05-0.02-0.07-0.04l0.05,0.15l0.07,0.04l0.07,0.04
				c0.02,0.01,0.05,0.02,0.07,0.04c0.01,0,0.02,0.07,0.03,0.07c0.01,0.01,0.06,0.03,0.07,0.04c0.02,0.02,0.05,0.03,0.07,0.04
				c0.01,0.01,0.06,0.03,0.07,0.04c0.01,0.01,0.02,0.06,0.03,0.07c0,0.01,0.02,0.07,0.03,0.07c0.02,0.02,0.05,0.03,0.07,0.04
				c0.02,0.01,0.05,0.03,0.07,0.04c0.01,0.01,0.06,0.04,0.07,0.04c0.01,0-0.03-0.07-0.03-0.07c0.01-0.01,0.06,0.04,0.07,0.04
				c0,0.02,0.03,0.06,0.03,0.07c0,0.01,0.03,0.06,0.03,0.07c0,0.01-0.06-0.04-0.07-0.04c-0.01,0,0.02,0.06,0.03,0.07
				c0,0.02,0.02,0.05,0.03,0.07l0.05,0.15l0.07,0.04c0.01,0.01,0.06,0.03,0.07,0.04c0.01,0.01,0.02,0.06,0.03,0.07
				c0,0.01,0.02,0.07,0.03,0.07c0.02,0.02,0.05,0.03,0.07,0.04c0.02,0.01,0.05,0.04,0.07,0.04c0.01,0-0.03-0.07-0.03-0.07
				c0,0,0.06,0.03,0.07,0.04l0.07,0.04c0.01,0.02,0.02,0.05,0.03,0.07c0,0.01,0.03,0.07,0.03,0.07c0,0-0.07-0.04-0.07-0.04
				c0,0.01,0.02,0.06,0.03,0.07c0.01,0.02,0.06,0.02,0.07,0.04c0.01,0.01,0.02,0.07,0.03,0.07c0.02,0.02,0.05,0.03,0.07,0.04
				c0.02,0.01,0.06,0.04,0.07,0.04c0.01,0-0.03-0.07-0.03-0.07c0.01-0.01,0.06,0.04,0.07,0.04c0.01,0.03,0.02,0.05,0.03,0.07
				c0.01,0.03,0.02,0.05,0.03,0.07l0.03,0.07c0.01,0.02,0.02,0.05,0.03,0.07c0,0.02,0.03,0.06,0.03,0.07c0,0.01-0.06-0.04-0.07-0.04
				c0,0,0.02,0.06,0.03,0.07c0,0,0.06,0.04,0.07,0.04c0.01,0,0.06,0.04,0.07,0.04c0.01-0.01-0.03-0.07-0.03-0.07
				c0.01,0,0.06,0.04,0.07,0.04c0.01,0-0.03-0.07-0.03-0.07c0.01-0.01,0.06,0.04,0.07,0.04l0.05,0.15l0.03,0.07
				c0,0.01,0.02,0.06,0.03,0.07c0.01,0.01,0.06,0.03,0.07,0.04c0.02,0.01,0.05,0.03,0.07,0.04c0.01,0.01,0.06,0.04,0.07,0.04
				c0,0.01,0.02,0.06,0.03,0.07c0.01,0.02,0.01,0.05,0.03,0.07c0,0.01,0.06,0.03,0.07,0.04c0.01,0.01,0.02,0.06,0.03,0.07
				c0.01,0.01,0.01,0.06,0.03,0.07c0.01,0.01,0.06,0.03,0.07,0.04L22,17.77c0.02,0.01,0.05,0.02,0.07,0.04c0,0,0.02,0.07,0.03,0.07
				c0,0.01,0.02,0.06,0.03,0.07c0.01,0.01,0.06,0.03,0.07,0.04c0.02,0.01,0.05,0.02,0.07,0.04c0.01,0.01,0.06,0.02,0.07,0.04
				c0.02,0.02,0.01,0.06,0.03,0.07c0.01,0.01,0.02,0.06,0.03,0.07c0,0.01,0.02,0.06,0.03,0.07c0.01,0.01,0.06,0.03,0.07,0.04
				c0.01,0.01,0.06,0.03,0.07,0.04c0.01,0.01,0.02,0.06,0.03,0.07c0,0-0.07-0.04-0.07-0.04c0,0,0.02,0.07,0.03,0.07
				c0.01,0.01,0.06,0.03,0.07,0.04c0.02,0.01,0.05,0.02,0.07,0.04c0.01,0.01,0.02,0.06,0.03,0.07c0.01,0.01,0.06,0.03,0.07,0.04
				c0.01,0.01,0.06,0.03,0.07,0.04c0.01,0.02,0.01,0.06,0.03,0.07c0.01,0.02,0.06,0.02,0.07,0.04c0.02,0.02,0.01,0.05,0.03,0.07
				c0.02,0.02,0.01,0.05,0.03,0.07c0.01,0.02,0.06,0.02,0.07,0.04c0.02,0.02,0.01,0.05,0.03,0.07c0.01,0.01,0.06,0.03,0.07,0.04
				c0.01,0.01,0.06,0.03,0.07,0.04c0.01,0.01,0.02,0.06,0.03,0.07c0,0.01,0.02,0.07,0.03,0.07c0.02,0.01,0.05,0.03,0.07,0.04
				l0.14,0.08c0,0.02,0.03,0.06,0.03,0.07c0,0.01,0.03,0.07,0.03,0.07c-0.01,0.01-0.06-0.04-0.07-0.04c-0.01,0-0.06-0.04-0.07-0.04
				c-0.01,0,0.03,0.06,0.03,0.07c0-0.01,0.06,0.04,0.07,0.04c0.01,0.02,0.01,0.06,0.03,0.07c0.02,0.02,0.05,0.02,0.07,0.04
				c0.02,0.02,0.05,0.02,0.07,0.04c0.01,0.01,0.01,0.06,0.03,0.07c0.02,0.02,0.05,0.02,0.07,0.04c0.01,0.01,0.01,0.06,0.03,0.07
				c0.02,0.02,0.05,0.02,0.07,0.04c0.02,0.02,0.01,0.05,0.03,0.07c0.01,0.01,0.06,0.03,0.07,0.04c0.02,0.01,0.05,0.03,0.07,0.04
				c0,0-0.02-0.07-0.03-0.07c0-0.01-0.03-0.07-0.03-0.07c0.01-0.01,0.06,0.04,0.07,0.04l0.03,0.07l0.03,0.07
				c0.01,0.03,0.02,0.05,0.03,0.07c0,0.01,0.02,0.06,0.03,0.07c0.02,0.02,0.05,0.02,0.07,0.04c0,0-0.03-0.07-0.03-0.07
				c0,0,0.06,0.03,0.07,0.04c0.01,0,0.02,0.07,0.03,0.07c0.01,0.01,0.06,0.03,0.07,0.04c0.01,0.01,0.05,0.02,0.07,0.04
				c0.01,0.01,0.01,0.06,0.03,0.07c0.02,0.02,0.05,0.02,0.07,0.04c0.02,0.02,0.05,0.02,0.07,0.04c0.01,0.01,0.02,0.07,0.03,0.07
				c0.02,0.02,0.05,0.03,0.07,0.04l0.06,0.03c0.01,0.03,0.05,0.05,0.08,0.05c0.02,0.01,0.04,0.02,0.06,0.04c0,0,0,0.01,0.01,0.01
				c-0.01,0.01-0.01,0.02-0.02,0.03l0.03,0c0,0.02,0.01,0.03,0.01,0.03c0,0,0.01,0,0.01,0.01V21c0.02,0,0.04-0.02,0.06-0.03
				c0,0,0,0,0,0c0.02,0.01,0.04,0.02,0.06,0.03c-0.01,0.01-0.01,0.02-0.02,0.03L25,21.08c0.03,0,0.07-0.01,0.11-0.01
				c0.01,0.01,0.02,0.01,0.03,0.02c0,0,0-0.01-0.01-0.02c0.01,0,0.01,0,0.02,0l0.03,0.03l-0.05,0.04c-0.04,0.09,0,0.1,0.04,0.11
				c0,0,0,0.01,0,0.01c0,0.01,0.03,0.06,0.04,0.07c0,0,0,0,0,0c-0.01,0.01-0.01,0.02-0.02,0.04c0.03,0,0.05-0.01,0.07-0.02
				c0.02,0.01,0.04,0.01,0.04,0.01c0,0-0.01-0.01-0.02-0.03c0.01-0.01,0.01-0.01,0.02-0.02c0.02,0,0.03,0.01,0.04,0.01
				c-0.01-0.01-0.02-0.02-0.02-0.03c0.01-0.01,0.02-0.02,0.03-0.03c0.03,0.02,0.05,0.03,0.08,0.05l-0.04,0.03
				c-0.02,0-0.04-0.01-0.05-0.01c0.01,0.01,0.02,0.02,0.03,0.03l-0.04,0.03c0.05,0.03,0.03,0.13,0.15,0.05c0,0,0,0,0.01,0l0.02,0.16
				c0.04-0.03,0.08-0.02,0.12,0.01c0.03-0.04-0.04-0.05-0.06-0.03l0-0.07l0.08-0.03c0.02,0.01,0.04,0.02,0.06,0.02l0.03,0.08
				l-0.06,0.12c0.13-0.08,0.12,0.04,0.17,0.1l0.09-0.06l-0.02,0.08l0.06-0.01c-0.04-0.01,0.03-0.05,0.04-0.05l-0.06,0.1l0.1,0.03
				l0.02-0.03l0.06,0.01c0,0.04,0,0.09,0.06,0.06l0.07-0.11c0.03,0.06,0.03,0.12,0,0.2c0.1,0.04,0.08-0.09,0.15-0.1
				c0.03,0.03-0.03,0.1,0.03,0.11l0.06-0.12l-0.1,0l0.11-0.09l0.03,0.11L26.48,22c0.02,0.02,0.06,0.06,0.12,0.03l0.1,0.05
				c0.06,0.01,0.1-0.08,0.1-0.1l0.07-0.04l-0.02,0.09c0.08,0.01,0.14,0.02,0.22-0.01c0.12-0.06,0.09,0.06,0.17,0.03l0.05-0.12
				c0.08-0.03,0.13-0.03,0.17,0.02c0.06-0.06,0.15-0.09,0.21-0.12c-0.07-0.07-0.27-0.06-0.26-0.15c0.04-0.03,0.12-0.09,0.08-0.13
				l0.03-0.02c0.07-0.02,0.11,0.02,0.09,0.07l0.09-0.04c0.03,0.02,0.05,0.07-0.03,0.11l0.08-0.06l0.03,0.05l-0.11,0.09l0.1,0.02
				l0.04-0.1l0.07,0.03l0.06-0.06l-0.12-0.07l0.1-0.08c0.04-0.18,0.16-0.07,0.27-0.14c-0.06-0.04-0.08-0.1-0.13-0.14
				c0.07-0.02,0.16-0.02,0.22,0c0.02-0.03,0.04-0.07,0.07-0.11c-0.01-0.05,0.11-0.1,0.06-0.15l-0.09,0
				c-0.05,0.12-0.12,0.24-0.19,0.12c0.02-0.05,0.07,0,0.1-0.05c-0.03-0.06-0.1,0.03-0.12-0.01l0.05-0.05c0.07,0,0.11-0.06,0.13-0.13
				l0.01,0.01l0.08-0.01l0.02,0.02l0.07-0.05l-0.04-0.03l-0.08,0.06c-0.08,0.01-0.02-0.1,0-0.13l0.1,0l0.01-0.05l-0.1,0.03
				c0.03-0.11,0.16-0.22,0.16-0.33c-0.1,0.03-0.04-0.08,0.01-0.15c-0.06-0.06,0.03-0.25-0.07-0.28l-0.08,0.08
				c-0.07-0.07,0.1-0.23,0.13-0.31c-0.22,0.09-0.1,0.17-0.19,0.3l-0.12-0.04l0.02-0.02c0.07-0.02,0.05-0.08,0.05-0.13
				c0.09-0.01,0.15-0.1,0.17-0.16l-0.07,0l0-0.01c-0.09,0.01-0.1,0.17-0.24,0.23c0.06-0.08,0.04-0.13,0.06-0.2
				c0.15,0.01,0.12-0.14,0.14-0.22c-0.1-0.06,0-0.28-0.21-0.26l-0.07-0.18c-0.04-0.07-0.11,0.03-0.17,0.05c0,0,0-0.01,0-0.01
				c0,0-0.01-0.01-0.02-0.01c0.03-0.03,0.02-0.04,0.05-0.1c-0.02-0.03-0.05-0.06-0.09,0c0,0.03-0.04,0.05-0.07,0.06
				c0-0.02-0.01-0.03-0.01-0.03c0,0,0-0.01,0-0.02c0.03-0.07,0.06-0.14,0.1-0.2c-0.07,0.01-0.13,0.04-0.19,0.05
				c0-0.01,0-0.02-0.01-0.03c-0.01-0.01-0.02-0.02-0.04-0.03c0.02-0.04,0.04-0.09-0.01-0.11c-0.01,0-0.02,0.01-0.03,0.02
				c-0.01-0.02-0.02-0.06-0.02-0.08c0-0.01-0.01-0.07-0.02-0.08c-0.01-0.01-0.05-0.04-0.06-0.04c-0.01-0.01-0.06-0.03-0.06-0.04
				c-0.01-0.01-0.01-0.07-0.02-0.08c-0.02-0.02-0.05-0.03-0.06-0.04l-0.13-0.09c0,0-0.03-0.08-0.02-0.08c0.01,0,0.05,0.03,0.06,0.04
				c0.01,0.01,0.06,0.05,0.06,0.04c0,0-0.02-0.07-0.02-0.08l-0.02-0.08l-0.06-0.04l-0.06-0.04c-0.02-0.01-0.05-0.03-0.06-0.04
				c-0.01-0.01-0.01-0.07-0.02-0.08c-0.01-0.02-0.05-0.03-0.06-0.04c-0.01-0.02-0.01-0.06-0.02-0.08c-0.01-0.01-0.05-0.03-0.06-0.04
				c-0.01-0.01-0.06-0.03-0.06-0.04c-0.01-0.02-0.01-0.06-0.02-0.08c-0.01-0.01-0.02-0.06-0.02-0.08c0-0.01-0.01-0.06-0.02-0.08
				c-0.01-0.01-0.06-0.04-0.06-0.04c-0.01-0.01-0.06-0.03-0.06-0.04c-0.01-0.01-0.02-0.07-0.02-0.08c0,0,0.06,0.04,0.06,0.04
				c0,0-0.02-0.07-0.02-0.08c0-0.01-0.06-0.04-0.06-0.04l-0.13-0.08c0-0.01-0.03-0.07-0.02-0.08c0.01,0,0.05,0.04,0.06,0.04
				c0.01,0-0.03-0.07-0.02-0.08c0,0,0.06,0.05,0.06,0.04c0-0.01-0.01-0.07-0.02-0.08c-0.01-0.02-0.05-0.03-0.06-0.04
				c-0.01-0.02-0.01-0.06-0.02-0.08l-0.06-0.04c-0.02-0.01-0.05-0.04-0.06-0.04c0,0-0.02-0.07-0.02-0.08c0-0.01-0.01-0.06-0.02-0.08
				c-0.01-0.01-0.06-0.04-0.06-0.04l-0.06-0.04l-0.06-0.04l-0.13-0.09c0-0.02-0.02-0.06-0.02-0.08c0-0.01-0.03-0.07-0.02-0.08
				c0.01-0.01,0.05,0.04,0.06,0.04c0.01,0,0.06,0.05,0.06,0.04c0,0-0.02-0.07-0.02-0.08c0-0.01-0.06-0.03-0.07-0.04
				c-0.01-0.01-0.01-0.06-0.02-0.08c-0.01-0.02-0.05-0.03-0.06-0.04c-0.01-0.01-0.06-0.03-0.06-0.04c-0.01-0.02-0.01-0.06-0.02-0.08
				c-0.02-0.02-0.05-0.02-0.06-0.04c-0.01-0.02-0.01-0.06-0.02-0.08c-0.01-0.02-0.05-0.02-0.06-0.04c-0.01-0.01-0.01-0.06-0.02-0.08
				c-0.01-0.01-0.06-0.04-0.06-0.04c-0.01-0.01-0.06-0.03-0.06-0.04c-0.01-0.01-0.02-0.07-0.02-0.08c0-0.01-0.02-0.07-0.02-0.08
				c-0.02-0.02-0.05-0.03-0.06-0.04l-0.06-0.04l-0.06-0.04l-0.13-0.08c0-0.02-0.02-0.06-0.02-0.08c0,0,0.06,0.04,0.06,0.04
				c0.01,0.01,0.06,0.05,0.06,0.04c0,0-0.02-0.07-0.02-0.08c-0.01-0.02-0.01-0.06-0.02-0.08c0,0-0.06-0.04-0.06-0.04
				c-0.02-0.01-0.05-0.03-0.06-0.04c-0.01-0.01-0.01-0.07-0.02-0.08c-0.01-0.02-0.05-0.03-0.06-0.04c-0.01-0.02-0.01-0.06-0.02-0.08
				c-0.01-0.02-0.02-0.06-0.02-0.08c-0.01-0.02-0.01-0.06-0.02-0.08c-0.01-0.01-0.06-0.03-0.06-0.04c-0.01-0.02-0.01-0.06-0.02-0.08
				c-0.01-0.01-0.06-0.04-0.06-0.04l-0.06-0.04c-0.01-0.01-0.05-0.03-0.06-0.04c-0.01-0.01-0.02-0.07-0.02-0.08
				c-0.01-0.02-0.01-0.06-0.02-0.08c-0.01-0.01-0.06-0.03-0.06-0.04c-0.01-0.02-0.01-0.06-0.02-0.08c-0.01-0.01-0.05-0.04-0.06-0.04
				c-0.02-0.01-0.05-0.03-0.06-0.04c0,0-0.01-0.01-0.01-0.03c-0.09-0.04-0.18-0.08-0.16-0.2c0-0.01,0-0.01-0.01-0.02
				c-0.01-0.02-0.05-0.03-0.06-0.04c-0.01-0.02-0.01-0.06-0.02-0.08c-0.01-0.01-0.05-0.03-0.06-0.04C24.05,13.68,24,13.65,24,13.64
				c-0.01-0.02-0.01-0.06-0.02-0.08c0,0,0.06,0.04,0.06,0.04c0,0-0.02-0.07-0.02-0.08c0-0.01-0.02-0.01-0.03-0.02l-0.15,0.17
				c0.02-0.09,0.04-0.18,0.08-0.28c-0.02-0.02-0.04-0.02-0.06-0.04c-0.01-0.01-0.01-0.06-0.02-0.08c-0.01-0.02-0.05-0.02-0.06-0.04
				c-0.01-0.02-0.01-0.05-0.02-0.07c-0.03,0-0.06-0.02-0.09-0.04l0-0.02c-0.02-0.01-0.03-0.02-0.04-0.03
				c-0.01-0.02-0.01-0.06-0.02-0.08C23.61,13,23.59,13,23.58,12.99l-0.33,0.15c0.02-0.15,0.13-0.34,0.14-0.47
				c-0.01-0.01-0.02-0.02-0.03-0.02l-0.13-0.09c0-0.01-0.01-0.02-0.01-0.04c-0.14-0.03-0.33-0.04-0.32-0.16l-0.11,0.1
				c-0.02-0.14,0.09-0.26,0.21-0.37l-0.01,0c-0.01-0.01-0.05-0.03-0.06-0.04c-0.01-0.01-0.02-0.07-0.02-0.08
				c0-0.02-0.01-0.06-0.02-0.08c-0.01-0.01-0.06-0.03-0.06-0.04c-0.01-0.01-0.01-0.02-0.01-0.03l-0.02,0.01l0.01-0.07
				c-0.01-0.02-0.01-0.05-0.02-0.07c-0.01-0.02-0.05-0.02-0.06-0.04c-0.01-0.02-0.01-0.06-0.02-0.08c-0.01-0.01-0.03-0.02-0.04-0.03
				l-0.01,0.02c0.01,0.02,0.01,0.04,0.01,0.04c0,0-0.02-0.01-0.03-0.02l-0.11,0.16c-0.27,0.01-0.1-0.49-0.49-0.26
				c-0.04-0.31-0.13-0.67-0.44-0.75l0.03-0.41l-0.34,0.11c0.33-0.46-0.16-0.25-0.18-0.43l0.23-0.27c-0.03-0.17-0.74,0.09-0.37-0.27
				c-0.01-0.46-0.85-0.24-0.52-0.9l-0.46-0.05c0.04-0.15,0.09-0.31,0.16-0.46c-0.02-0.01-0.03-0.03-0.04-0.03
				C20.08,8.03,20.05,8.01,20.03,8l-0.04-0.03c-0.04,0.03-0.07,0.05-0.12,0.07c0-0.21-0.36-0.18-0.38-0.36
				c-0.01-0.15,0.1-0.24,0.21-0.32c0-0.01,0-0.02-0.01-0.03c0-0.01-0.01-0.06-0.02-0.08c-0.01-0.01-0.06-0.04-0.07-0.04L19.58,7.2
				c-0.13,0.09-0.24,0.18-0.31,0.09c0.05-0.09,0.09-0.18,0.13-0.27c-0.01,0-0.01-0.01-0.02-0.01C19.38,7,19.33,6.98,19.32,6.96
				c-0.01-0.02-0.01-0.06-0.02-0.08c-0.01-0.01-0.06-0.03-0.06-0.04c-0.01-0.02-0.02-0.06-0.02-0.08c0-0.02-0.01-0.06-0.02-0.08
				c-0.01-0.01-0.05-0.03-0.06-0.04c-0.01-0.02-0.01-0.06-0.02-0.08s-0.01-0.06-0.02-0.08c-0.01-0.02-0.05-0.02-0.06-0.04
				c0,0,0.02,0.07,0.02,0.08c0,0-0.06-0.04-0.06-0.04c-0.02-0.01-0.05-0.03-0.06-0.04c-0.01-0.01-0.01-0.06-0.02-0.08
				c-0.01-0.02-0.05-0.03-0.06-0.04c-0.01-0.02-0.01-0.06-0.02-0.08c-0.01-0.03-0.01-0.05-0.02-0.08l-0.02-0.08l-0.02-0.08
				C18.74,6,18.74,5.96,18.73,5.94c0,0-0.06-0.04-0.06-0.04c-0.01-0.01-0.06-0.03-0.06-0.04c-0.01-0.01-0.02-0.06-0.02-0.08
				c0,0,0.06,0.04,0.06,0.04c0.01-0.01-0.03-0.07-0.02-0.08c-0.01-0.02-0.01-0.06-0.02-0.08c0-0.01-0.06-0.04-0.06-0.04
				c-0.01,0,0.02,0.07,0.02,0.08c0,0-0.06-0.04-0.06-0.04c-0.02-0.01-0.05-0.04-0.06-0.04c-0.01,0,0.03,0.07,0.02,0.08
				c-0.01,0-0.05-0.04-0.06-0.04c-0.02-0.01-0.05-0.03-0.06-0.04l-0.06-0.04c0,0-0.03-0.08-0.02-0.08c0.01,0,0.05,0.03,0.06,0.04
				c0.02,0.01,0.05,0.04,0.06,0.04c0.01,0-0.02-0.07-0.02-0.08c0-0.01,0.06,0.05,0.06,0.04c0.01-0.01-0.03-0.07-0.02-0.08
				l-0.06-0.04l-0.06-0.04c-0.02-0.01-0.05-0.03-0.06-0.04c-0.01-0.01-0.01-0.06-0.02-0.08c-0.01-0.02-0.05-0.03-0.06-0.04
				c-0.01-0.01-0.02-0.07-0.02-0.08c0-0.01,0.06,0.05,0.06,0.04c0,0-0.02-0.07-0.02-0.08c-0.01-0.01-0.05-0.03-0.06-0.04L18,5.02
				l-0.13-0.09c0-0.02-0.02-0.06-0.02-0.08c0-0.01-0.03-0.07-0.02-0.08c0,0,0.06,0.05,0.06,0.04c0-0.01-0.02-0.06-0.02-0.08
				c0-0.01-0.01-0.06-0.02-0.08c0-0.01-0.06-0.04-0.06-0.04l-0.06-0.04c-0.02-0.01-0.05-0.03-0.07-0.04
				c-0.01-0.01-0.01-0.07-0.02-0.08c-0.01-0.02-0.05-0.03-0.06-0.04c-0.01-0.02-0.01-0.06-0.02-0.08c-0.01-0.02-0.05-0.02-0.06-0.04
				c-0.01-0.02-0.01-0.06-0.02-0.08C17.46,4.2,17.42,4.2,17.4,4.18c-0.01-0.02-0.01-0.06-0.02-0.08c-0.01-0.01-0.05-0.03-0.06-0.04
				l-0.06-0.04c-0.01-0.01-0.05-0.03-0.06-0.04c-0.01-0.01-0.01-0.06-0.02-0.08c-0.01-0.02-0.05-0.03-0.06-0.04
				c-0.01-0.02-0.01-0.06-0.02-0.08l0.06,0.04c0.02,0.01,0.05,0.04,0.06,0.04c0.01,0,0.06,0.05,0.06,0.04c0,0-0.02-0.07-0.02-0.08
				c-0.01-0.02-0.05-0.03-0.06-0.04c-0.01-0.02-0.01-0.05-0.02-0.08c-0.01-0.01-0.06-0.04-0.06-0.04c-0.01-0.01-0.05-0.03-0.06-0.04
				c-0.01-0.01-0.01-0.06-0.02-0.08c-0.01-0.02-0.05-0.03-0.06-0.04c-0.01-0.02-0.01-0.06-0.02-0.08c-0.01-0.02-0.05-0.03-0.06-0.04
				c-0.01-0.02-0.01-0.06-0.02-0.08c-0.01-0.02-0.01-0.06-0.02-0.08c-0.01-0.02-0.05-0.03-0.06-0.04l0.02,0.08
				c0,0-0.06-0.04-0.06-0.04c-0.01-0.01-0.06-0.03-0.06-0.04c-0.01-0.01-0.02-0.06-0.02-0.08c-0.01-0.02-0.02-0.06-0.02-0.08
				c0-0.01,0.06,0.05,0.06,0.04c0,0-0.02-0.07-0.02-0.08c-0.01-0.01-0.05-0.04-0.06-0.04l-0.06-0.04l-0.06-0.04L16.4,2.83
				c-0.02-0.01-0.05-0.03-0.06-0.04c-0.01-0.01-0.01-0.07-0.02-0.08c-0.01-0.02-0.05-0.02-0.06-0.04c-0.02-0.02-0.05-0.02-0.06-0.04
				c-0.01-0.02-0.01-0.06-0.02-0.08c0,0-0.02-0.07-0.02-0.08c0.01-0.01,0.06,0.05,0.07,0.04c0,0-0.02-0.07-0.02-0.08
				c0,0-0.07-0.04-0.07-0.05c-0.01-0.01-0.03-0.07-0.04-0.08c-0.01-0.01-0.02-0.06-0.04-0.08c-0.01-0.01-0.08-0.03-0.09-0.03
				c-0.01,0-0.07-0.02-0.09-0.03c-0.02-0.01-0.04-0.06-0.06-0.06c-0.03-0.01-0.07-0.02-0.1-0.02c-0.02,0-0.08,0-0.1-0.01
				c-0.02-0.01-0.05-0.04-0.07-0.05C15.5,2.02,15.47,2,15.45,1.99c-0.01,0-0.07-0.04-0.08-0.04c-0.03,0-0.09,0.01-0.11,0.01
				c-0.03,0-0.09,0-0.11,0.01c-0.01-0.01-0.07-0.02-0.09-0.02c-0.02-0.01-0.07-0.02-0.1-0.02c-0.02,0-0.09,0.03-0.12,0.03
				c-0.03,0-0.07-0.02-0.1-0.01c-0.04,0.01-0.08,0.03-0.12,0.04c-0.03,0-0.08-0.01-0.11,0c-0.02,0-0.1,0.04-0.12,0.05
				c0,0-0.01,0-0.02,0.01c-0.02,0-0.03,0.01-0.04,0.02c-0.02,0.01-0.04,0.02-0.05,0.02c-0.02,0.01-0.04,0.01-0.06,0.01l0,0
				c-0.1-0.03-0.17-0.05-0.27-0.01c-0.15,0.07-0.11-0.09-0.21-0.06l-0.08,0.16c-0.1,0.04-0.16,0.02-0.21-0.04
				c-0.08,0.08-0.2,0.11-0.28,0.14c0.06,0.08,0.21,0.1,0.28,0.15c-0.02,0.02-0.05,0.05-0.08,0.06c-0.01,0.01-0.03,0.02-0.06,0.03
				c0.01-0.02,0.02-0.05,0-0.06c-0.02,0.02-0.05,0.06-0.06,0.08c0,0,0,0,0,0c-0.01,0.01-0.03,0.02-0.04,0.04l-0.12,0.05
				c-0.04-0.03-0.05-0.09,0.05-0.15l-0.11,0.07l-0.04-0.07l0.15-0.11l-0.12-0.03l-0.06,0.13l-0.08-0.05L12.79,2.5z M26.55,21.29
				c-0.01,0-0.01,0.01-0.02,0.01c0.01-0.02,0.01-0.04,0.02-0.05c0.01-0.01,0.03-0.02,0.04-0.03c0.01,0,0.01,0,0.02,0l-0.02,0.05
				C26.58,21.28,26.56,21.28,26.55,21.29z M26.55,21.36c0,0,0.01,0,0.01,0C26.57,21.36,26.56,21.37,26.55,21.36L26.55,21.36z
				 M27.9,20.3l0.01,0.05l0.05,0.01l-0.13,0.04C27.88,20.36,27.8,20.3,27.9,20.3z M26.61,21.52c-0.05-0.02-0.02-0.09-0.02-0.13l0,0
				c0.03-0.02,0.07-0.04,0.08-0.05c0,0.05-0.07,0.13-0.04,0.18c0.03-0.05,0.1-0.14,0.13-0.1C26.78,21.47,26.66,21.51,26.61,21.52z
				 M27.26,20.98l-0.01,0.06l-0.1-0.01C27.16,20.97,27.24,20.98,27.26,20.98z M27.78,20.89c-0.01-0.01-0.01-0.01-0.03-0.02
				l-0.01-0.01l0.03-0.07c0.02,0.02,0.02,0.05,0.03,0.08C27.79,20.88,27.78,20.88,27.78,20.89z M27.06,21.56
				c-0.08,0.02-0.12,0.1-0.14,0.15l-0.09-0.02c0.1-0.08,0.12-0.19,0.24-0.23l0.02,0.1l0.13,0.02l-0.05,0.05L27.06,21.56z
				 M27.42,21.29c0,0,0.09-0.01,0.09-0.01c0.01,0,0.06,0.02,0.07,0.03c0.01,0,0.07,0.03,0.06,0.04c0,0-0.02,0-0.04,0
				c-0.02,0-0.04-0.01-0.04-0.01c-0.03,0-0.06,0-0.08,0c-0.02-0.01-0.05-0.02-0.07-0.02c0.01,0,0.08-0.01,0.09-0.01
				C27.5,21.31,27.42,21.3,27.42,21.29z M27.1,21.86L27.1,21.86c-0.02,0.01-0.04,0.01-0.06,0.01c0-0.02,0-0.03-0.01-0.05
				c0.01-0.01,0.02-0.01,0.02-0.02l0.01-0.02c-0.04,0.01-0.04-0.02-0.03-0.05l0,0C27.15,21.71,27.11,21.79,27.1,21.86z M27.29,21.7
				l-0.01-0.11l0.05-0.03l0.01-0.05l0.04,0.04l0.02-0.02C27.4,21.61,27.33,21.66,27.29,21.7z M28.17,20.77l0.01,0.05l-0.11,0.08
				C28.02,20.85,28.1,20.79,28.17,20.77z M27.97,21.11l-0.18,0.14c0.05-0.11-0.21-0.04-0.11-0.19
				C27.79,21.03,27.91,21.08,27.97,21.11z M28.15,20.04c0.04,0.06-0.09,0.16-0.02,0.21c0.12-0.07,0.13-0.1,0.14-0.19l0.06,0.07
				l-0.06,0.11c0.17-0.05,0.05,0.09,0.05,0.16l-0.07,0.07l0.02,0.06l0.08-0.06l0.04,0.01c-0.07,0.05-0.19,0.09-0.19,0.03l-0.07,0.04
				l0.03,0.08l0.05-0.04l-0.02,0.09l-0.05-0.04c-0.08,0.03-0.13,0.11-0.21,0.09c-0.03-0.06-0.17,0.02-0.14-0.07
				c-0.11-0.07,0.12-0.09,0.12-0.17l0.02,0.05c0.1,0.36,0.24-0.07,0.15-0.05l0.06-0.04c-0.01,0.05,0.07,0.07,0.11,0.02l0-0.11
				c-0.06,0.04-0.11-0.01-0.14-0.02c0.02-0.09-0.08-0.1-0.09-0.18l-0.03,0.01l0-0.08C27.99,20.13,28.08,20.09,28.15,20.04z
				 M28.09,19.84c0.05,0.01,0.02,0.09,0,0.13l-0.06,0.04C28,19.97,28,19.88,28.09,19.84z M28.01,19.77
				c-0.02,0.03-0.04,0.06-0.06,0.07c0.01-0.02,0.02-0.04,0.02-0.06c0.01-0.01,0.01-0.01,0.02-0.02L28.01,19.77z M27.98,19.45
				l0.09-0.01c0.06,0.02-0.03,0.12,0.02,0.16l0.09-0.07c0.01,0.05-0.02,0.1-0.08,0.11l-0.12-0.04l-0.03,0.05
				c0-0.02-0.01-0.03-0.01-0.04c0,0,0-0.01,0-0.02l0.08-0.11l-0.06,0.01C27.97,19.48,27.97,19.46,27.98,19.45
				C27.98,19.45,27.98,19.45,27.98,19.45z M22.53,12.09l-0.05,0.02l0.03-0.08C22.56,12.02,22.54,12.08,22.53,12.09z M22.01,12.27
				l-0.07,0.03l0.04-0.11C22.05,12.16,22.02,12.25,22.01,12.27z M21.8,12.06l-0.07-0.03l0.14-0.16
				C21.87,11.92,21.91,11.93,21.8,12.06z M21.44,11.03c-0.1,0.02,0.06-0.17-0.06-0.15l0.03-0.03
				C21.48,10.86,21.56,10.94,21.44,11.03z M13.37,3.61c0.03-0.01,0.04-0.02,0.07,0L13.4,3.66L13.37,3.61z M14.25,2.95
				c0.01,0.01,0,0.02,0,0.03L14.28,3c-0.02,0-0.01,0.04-0.03,0.02L14.25,3l-0.02,0C14.22,3,14.25,2.97,14.25,2.95
				c-0.02,0.01-0.03,0.03-0.04,0.02C14.21,2.95,14.24,2.95,14.25,2.95z M13.55,3.39l-0.06,0.07l-0.03-0.04
				C13.48,3.39,13.54,3.35,13.55,3.39z M13.71,2.76c0.04-0.01,0.05-0.04,0.07-0.07l0.04,0.01c-0.05,0.03-0.06,0.08-0.11,0.1l0-0.04
				l-0.05-0.01l0.02-0.02L13.71,2.76z M12.17,3.7l0.14,0.05C12.16,3.86,12.1,3.86,12.17,3.7z M12.89,3.12
				c-0.03,0.06,0.1,0.03,0.05,0.11c-0.06,0.01-0.11-0.02-0.14-0.04L12.89,3.12z M12.17,3.64C12.17,3.64,12.17,3.64,12.17,3.64
				c0,0,0-0.01,0.01-0.02C12.17,3.62,12.17,3.63,12.17,3.64z M12.51,3c-0.02,0.04-0.05,0.07-0.09,0.11L12.4,3.1
				C12.44,3.05,12.47,3.01,12.51,3z"/>
		</g>
	</g>
</g>
</svg>
