<?xml version="1.0" encoding="utf-8"?>
<!-- Generator: Adobe Illustrator 24.0.2, SVG Export Plug-In . SVG Version: 6.00 Build 0)  -->
<svg version="1.1" id="Layer_1" xmlns="http://www.w3.org/2000/svg" xmlns:xlink="http://www.w3.org/1999/xlink" x="0px" y="0px"
	 viewBox="0 0 44.35 257.84" style="enable-background:new 0 0 44.35 257.84;" xml:space="preserve">
<style type="text/css">
	.st0{fill:#FFFFFF;}
</style>
<g>
	<path class="st0" d="M25.19,213.45c0-0.02-0.13-0.72-0.13-0.76c-0.01,0.09-0.06,0.65-0.05,0.77c0.01,0.14,0.11,0.65,0.13,0.76
		c0.02,0.1,0.12,0.76,0.13,0.76c0.03,0,0.02-0.71,0.05-0.77c-0.01-0.26,0.07-0.52,0.05-0.77c-0.01-0.1-0.12-0.69-0.13-0.76
		C25.23,212.63,25.19,213.45,25.19,213.45z"/>
	<path class="st0" d="M39.64,255.53l-0.04,0.88l0.53-0.02C40.27,255.86,39.9,255.52,39.64,255.53z"/>
	<path class="st0" d="M38.39,257.7l0.34-0.01c-0.03-0.59-0.09-0.68-0.25-0.87L38.39,257.7z"/>
	<path class="st0" d="M32.4,254.01l0.38,0.37c0.2-0.04-0.06-0.59-0.17-0.77L32.4,254.01z"/>
	<path class="st0" d="M41.66,250.59l0.57,0.6c-0.18-0.68-0.1-0.61-0.5-1.09L41.66,250.59z"/>
	<path class="st0" d="M35.93,257.39c0.2,0.26,0.39,0.63,0.61,0.33C36.53,256.93,36.05,257.37,35.93,257.39z"/>
	<path class="st0" d="M37.4,256.7c-0.2,0.22-0.4,0.44-0.18,0.48l0.2-0.22c0.35,0.04,0.24-0.96,0.26-1.54L37.4,256.7z"/>
	<path class="st0" d="M40.64,188.86c0.05,0.24,0.1,0.5,0.15,0.75c0.02,0.1,0.13,0.75,0.15,0.75c0,0,0.03-0.68,0.03-0.78
		c-0.01-0.03-0.13-0.67-0.15-0.75c-0.02-0.2,0.05-0.56,0.03-0.78c-0.02-0.25-0.12-0.49-0.15-0.75c-0.01,0.26-0.02,0.52-0.03,0.78
		C40.67,188.19,40.66,188.85,40.64,188.86z"/>
	<path class="st0" d="M41.55,197.19c-0.02-0.26-0.13-0.49-0.15-0.75c0,0.04-0.03,0.78-0.03,0.78c0.01,0.03,0.15,0.75,0.15,0.75
		S41.55,197.23,41.55,197.19z"/>
	<path class="st0" d="M21.16,2.17L21,1.94C20.95,2,20.92,2.08,20.88,2.15c0,0.07,0,0.14,0,0.2C20.94,2.24,21.02,2.16,21.16,2.17z"/>
	<path class="st0" d="M19.75,5.89l-0.01-0.1c-0.03-0.12-0.04-0.23-0.04-0.33c-0.02,0.02-0.06,0.02-0.1-0.02
		c-0.05,0.24-0.07,0.52-0.06,0.82L19.75,5.89z"/>
	<path class="st0" d="M23.49,2.05l-0.15-1.43l-0.35,0.11C23.1,1.8,23.27,1.75,23.49,2.05z"/>
	<polygon class="st0" points="25.97,4.32 25.97,4.08 25.77,3.76 25.78,4.35 	"/>
	<path class="st0" d="M20.61,3.69l-0.2-0.54L20.3,3.47C20.34,3.58,20.5,4.01,20.61,3.69z"/>
	<polygon class="st0" points="25.56,2.98 25.37,3.25 25.52,3.64 	"/>
	<path class="st0" d="M25.12,3.14l0-0.27c-0.35,0.61-0.52-1.04-0.8-0.55C24.24,3.25,24.84,3.36,25.12,3.14z"/>
	<path class="st0" d="M22.42,3.45l0-0.11l-0.24-0.42C22.21,3.09,22.31,3.43,22.42,3.45z"/>
	<path class="st0" d="M23.88,1.87L23.62,2.2l0.09,0.27C23.91,2.23,23.86,2.09,23.88,1.87z"/>
	<path class="st0" d="M21.85,0.73L21.58,0l-0.15,0.43C21.49,0.58,21.7,1.17,21.85,0.73z"/>
	<path class="st0" d="M19.02,5.91C19.01,5.96,19,6,18.98,6.01C18.94,6.3,19,6.68,19.1,7.03C19.09,6.65,19.06,6.28,19.02,5.91z"/>
	<polygon class="st0" points="25.94,1.25 25.93,1.27 25.94,1.26 	"/>
	<path class="st0" d="M21.85,2.68C22,2.49,22.15,2.3,21.99,2.29l-0.15,0.19c-0.26,0-0.17,0.76-0.18,1.2L21.85,2.68z"/>
	<path class="st0" d="M18.84,8.43c0.14-0.02,0.32-0.27,0.33-0.47C19.1,7.91,18.8,8.07,18.84,8.43z"/>
	<path class="st0" d="M23.97,5.04c-0.14,0.06-0.3,0.37-0.28,0.57C23.75,5.64,24.04,5.39,23.97,5.04z"/>
	<path class="st0" d="M19.58,12.02c-0.33,0.74-0.19,1,0.27,0.97L19.58,12.02z"/>
	<path class="st0" d="M44.07,241.34c0.03-0.27-0.03-0.6-0.01-0.88c0.02-0.27-0.06-0.6-0.04-0.87c0.01-0.28,0.12-0.53,0.14-0.82
		c0.02-0.28-0.09-0.59-0.08-0.87c0-0.29,0.09-0.55,0.09-0.84c0,0.04,0.09,0.87,0.09,0.87s0.09-0.82,0.09-0.87
		c0-0.2-0.11-0.73-0.13-0.87l-0.14-0.86c-0.02-0.13-0.12-0.66-0.15-0.78c-0.01-0.15,0.03-0.66,0.03-0.78c0-0.06,0.03-0.75,0.03-0.78
		c-0.04-0.26-0.11-0.53-0.15-0.74c-0.04-0.18-0.11-0.65-0.15-0.74c-0.02-0.05-0.01,0.77-0.03,0.78c-0.02,0-0.05-0.2-0.08-0.4
		l0.13-1.82c0.01-0.58-0.11-0.72-0.27-0.75c-0.01-0.03-0.01-0.06-0.02-0.08c-0.01-0.11,0.03-0.72,0.03-0.78
		c0.01-0.06,0.13,0.75,0.15,0.74c0.02,0,0.01-0.83,0.03-0.78c0.03,0.06,0.11,0.59,0.15,0.74c0.02,0.11,0.13,0.75,0.15,0.74
		c0.03,0,0.01-0.72,0.03-0.78l-0.3-1.49l-0.15-0.74l-0.15-0.74c-0.01-0.07-0.04-0.17-0.06-0.26c0.09-0.11,0.18-0.22,0.26-0.31
		c-0.11-0.19-0.23-0.34-0.34-0.49c0.01-0.18,0.03-0.37,0.02-0.46c-0.02-0.25-0.12-0.49-0.15-0.74c0.01-0.29,0.02-0.49,0.03-0.78
		c0-0.15,0.05-0.61,0.03-0.78c-0.02-0.21-0.14-0.54-0.15-0.75c-0.01-0.17,0.03-0.65,0.03-0.78c0.01-0.15,0.01-0.73,0.03-0.78
		c0.02-0.04,0.12,0.75,0.15,0.74c0.03-0.01,0.01-0.72,0.03-0.78c-0.01-0.25,0.05-0.52,0.03-0.78c-0.01-0.1-0.13-0.68-0.15-0.75
		c-0.01-0.05-0.03,0.78-0.03,0.78c-0.02,0-0.14-0.8-0.15-0.75c-0.02,0.1-0.02,0.59-0.03,0.78l-0.03,0.78
		c-0.03-0.28-0.12-0.46-0.15-0.75c-0.02-0.18,0.04-0.59,0.03-0.78c-0.01-0.21-0.13-0.53-0.15-0.74c-0.01-0.13,0.03-0.67,0.03-0.78
		c0.01-0.14,0.01-0.73,0.03-0.78c0.02-0.05,0.12,0.75,0.15,0.75c0,0,0.03-0.72,0.03-0.78c-0.01-0.12-0.13-0.65-0.15-0.75
		c-0.05-0.23-0.11-0.56-0.15-0.74c-0.04-0.14-0.12-0.7-0.15-0.74c-0.03-0.04-0.01,0.77-0.03,0.78c0,0-0.14-0.68-0.15-0.74
		c-0.01-0.09,0.03-0.69,0.03-0.78l0.03-0.78c0.01-0.22,0.04-0.51,0.03-0.78c0-0.09-0.14-0.63-0.15-0.75
		c-0.01-0.11,0.03-0.68,0.03-0.78c0-0.09,0.04-0.66,0.03-0.78c-0.01-0.16-0.13-0.63-0.15-0.75c-0.04-0.22-0.11-0.48-0.15-0.74
		c-0.03-0.17-0.14-0.56-0.15-0.75c-0.02-0.26,0.05-0.52,0.03-0.78c0.01,0.04,0.15,0.75,0.15,0.75s0.03-0.71,0.03-0.78
		c0-0.09-0.13-0.66-0.15-0.75c-0.02-0.11-0.14-0.6-0.15-0.74c-0.02-0.25,0.05-0.53,0.03-0.78c-0.02-0.25,0.05-0.53,0.03-0.78
		c-0.01-0.2-0.13-0.53-0.15-0.75c-0.02-0.25,0.05-0.52,0.03-0.78c-0.01-0.19-0.13-0.54-0.15-0.75c-0.01-0.11,0.03-0.68,0.03-0.78
		c0-0.12,0.04-0.62,0.03-0.78c-0.01-0.12-0.13-0.64-0.15-0.75c-0.02-0.11-0.14-0.6-0.15-0.75c-0.02-0.25,0.04-0.53,0.03-0.78
		c-0.02,0-0.13-0.64-0.15-0.75c0-0.04,0.03-0.7,0.03-0.78c-0.02-0.22-0.12-0.54-0.15-0.75c-0.03-0.26-0.11-0.53-0.15-0.75
		c-0.02-0.11-0.14-0.6-0.15-0.75c-0.02-0.21,0.05-0.58,0.03-0.78c0.01,0.07,0.15,0.75,0.15,0.75s0.03-0.72,0.03-0.78
		c-0.01-0.12-0.13-0.65-0.15-0.74c-0.04-0.22-0.11-0.48-0.15-0.75c-0.03-0.17-0.14-0.56-0.15-0.75c-0.02-0.25,0.05-0.52,0.03-0.78
		c-0.02-0.29,0.04-0.49,0.03-0.78c-0.02,0-0.12-0.65-0.15-0.75c-0.01-0.05-0.14-0.66-0.15-0.75c-0.01-0.16,0.05-0.64,0.03-0.78
		c-0.03-0.24-0.11-0.56-0.15-0.75l-0.3-1.49c0.03-0.04,0-0.8,0.03-0.78c0.03,0.02,0-0.77,0.03-0.78c0.03-0.01,0.11,0.7,0.15,0.75
		c0.03,0.05,0.12,0.75,0.15,0.75c0,0,0.03-0.67,0.03-0.78c-0.01-0.04-0.13-0.67-0.15-0.75c-0.02-0.25,0.05-0.52,0.03-0.78
		c-0.02-0.25-0.13-0.49-0.15-0.75c-0.02-0.25,0.05-0.52,0.03-0.78l0.07-1.55c-0.05-0.24-0.1-0.5-0.15-0.75
		c-0.02-0.1-0.13-0.75-0.15-0.75c-0.03,0.01,0,0.8-0.03,0.78c-0.03-0.02-0.01,0.75-0.03,0.78c-0.01,0.01-0.13-0.66-0.15-0.75
		l-0.15-0.75l0.03-0.78c0.01-0.19,0.04-0.53,0.03-0.78c0-0.14-0.14-0.59-0.15-0.75c-0.01-0.18,0.03-0.62,0.03-0.78
		c0.01-0.28,0.02-0.54,0.03-0.78c0.01-0.13,0.04-0.6,0.03-0.78c-0.01-0.1-0.13-0.66-0.15-0.75c-0.04-0.18-0.12-0.51-0.15-0.75
		c-0.01-0.12,0.04-0.63,0.03-0.78c-0.01-0.2-0.13-0.53-0.15-0.75c-0.01-0.17,0.05-0.63,0.03-0.78c-0.03-0.23-0.12-0.58-0.15-0.75
		c-0.05-0.23-0.1-0.48-0.15-0.75c-0.03-0.2-0.13-0.51-0.15-0.75c-0.02-0.2,0.05-0.56,0.03-0.78c-0.02-0.25-0.12-0.49-0.15-0.75
		c0.02-0.18,0.01-0.62,0.03-0.78c0.02-0.14,0.02-0.57,0.03-0.77c0.01-0.11,0.02-0.77,0.03-0.78c0,0.02,0.14,0.7,0.15,0.75
		c0.01-0.2,0.02-0.53,0.03-0.78c0-0.12,0.04-0.63,0.03-0.78c-0.01-0.18-0.12-0.58-0.15-0.75c0,0.07-0.03,0.67-0.03,0.78l-0.15-0.75
		l-0.15-0.75c-0.02-0.11-0.14-0.6-0.15-0.75c-0.01-0.12,0.03-0.68,0.03-0.78c0.01-0.24,0.02-0.5,0.03-0.78
		c0-0.21,0.05-0.54,0.03-0.78c-0.01-0.2-0.13-0.53-0.15-0.75c-0.02-0.26,0.05-0.51,0.03-0.77c-0.01-0.12-0.13-0.65-0.15-0.75
		c-0.04-0.22-0.11-0.48-0.15-0.75c-0.03-0.17-0.14-0.56-0.15-0.75c-0.02-0.26,0.05-0.51,0.03-0.78c-0.01-0.16,0.03-0.65,0.03-0.78
		c0.01-0.12,0.04-0.61,0.03-0.78c-0.01-0.11-0.13-0.66-0.15-0.75c-0.02-0.1-0.14-0.61-0.15-0.75c-0.01-0.13,0.03-0.67,0.03-0.77
		c0-0.09,0.04-0.67,0.03-0.78c-0.02-0.17-0.12-0.61-0.15-0.75c-0.02-0.11-0.14-0.6-0.15-0.75c-0.02-0.21,0.05-0.58,0.03-0.77
		c-0.03-0.29-0.12-0.45-0.15-0.75c-0.02-0.2,0.05-0.56,0.03-0.77c-0.01-0.16-0.13-0.61-0.15-0.75c0,0.02-0.03,0.76-0.03,0.78
		c-0.01,0.01-0.13-0.66-0.15-0.75l-0.15-0.75c0.03-0.06,0-0.77,0.03-0.78c0.02,0,0.14,0.8,0.15,0.75c0.02-0.1,0.03-0.59,0.03-0.78
		l0.03-0.78c0.01-0.14,0.04-0.58,0.03-0.77c0-0.09-0.13-0.67-0.15-0.75l-0.15-0.75c-0.04-0.19-0.12-0.5-0.15-0.75
		c-0.02-0.13,0.04-0.62,0.03-0.78c-0.02-0.24-0.13-0.51-0.15-0.75c-0.02-0.28,0.05-0.5,0.03-0.78c-0.01-0.2-0.13-0.53-0.15-0.75
		c-0.02-0.26,0.05-0.52,0.03-0.78c0.01,0.05,0.15,0.75,0.15,0.75s0.03-0.73,0.03-0.78c-0.02-0.26-0.13-0.49-0.15-0.75
		c-0.02-0.25,0.05-0.52,0.03-0.78c-0.02-0.25-0.13-0.49-0.15-0.75c-0.02-0.26,0.05-0.51,0.03-0.78c-0.02-0.23-0.13-0.51-0.15-0.75
		c-0.01-0.16,0.05-0.64,0.03-0.77c-0.03-0.24-0.11-0.56-0.15-0.75l-0.15-0.75c-0.03-0.16-0.13-0.53-0.15-0.75
		c-0.02-0.17,0.05-0.59,0.03-0.77c-0.02-0.21-0.14-0.54-0.15-0.75c-0.02-0.29,0.05-0.48,0.03-0.78c0.01,0.03,0.15,0.75,0.15,0.75
		s0.03-0.74,0.03-0.77c-0.02-0.17-0.12-0.62-0.15-0.75c-0.04-0.22-0.11-0.48-0.15-0.75c-0.03-0.17-0.14-0.56-0.15-0.75
		c-0.01-0.16,0.03-0.64,0.03-0.77c0-0.1,0.03-0.78,0.03-0.78c0.03-0.01,0.12,0.7,0.15,0.75c0.03,0.05,0.12,0.75,0.15,0.75
		c0,0,0.03-0.72,0.03-0.77c-0.01-0.13-0.13-0.65-0.15-0.75c-0.05-0.23-0.1-0.48-0.15-0.75c-0.03-0.2-0.11-0.51-0.13-0.75
		c-0.02-0.2,0.06-0.56,0.05-0.78c-0.01-0.19-0.11-0.58-0.13-0.75l-0.05,0.78c0,0-0.12-0.65-0.13-0.75c0-0.05,0.05-0.68,0.05-0.78
		c-0.01-0.21-0.12-0.54-0.13-0.75c-0.01-0.14,0.05-0.66,0.05-0.78c0,0.02,0.13,0.73,0.13,0.75c0.01,0.01,0.05-0.69,0.05-0.78
		c0.01-0.11,0.06-0.64,0.05-0.78c-0.01-0.14-0.11-0.64-0.13-0.75l-0.13-0.75c-0.04-0.21-0.1-0.48-0.13-0.75
		c-0.01-0.08,0.06-0.66,0.05-0.78c0-0.11-0.12-0.66-0.13-0.75l-0.13-0.75l0.11-1.55l0.13,0.75c0.03,0.18,0.11,0.51,0.13,0.75
		c0.01,0.13-0.06,0.61-0.05,0.78c0.01,0.25,0.11,0.49,0.13,0.75l0.11-1.55l-0.13-0.75l-0.13-0.75c-0.04-0.22-0.1-0.48-0.13-0.75
		c-0.01-0.08,0.06-0.66,0.05-0.78c-0.01-0.19-0.11-0.58-0.13-0.75c-0.03-0.27-0.09-0.53-0.13-0.75c-0.02-0.11-0.12-0.61-0.13-0.75
		c-0.01-0.13,0.05-0.68,0.05-0.78c0-0.06,0.05-0.75,0.05-0.78c-0.03-0.27-0.09-0.53-0.13-0.75c-0.04-0.23-0.1-0.56-0.13-0.75
		c-0.03-0.14-0.1-0.7-0.13-0.75c-0.03-0.04-0.03,0.77-0.05,0.78c-0.03,0-0.1-0.7-0.13-0.75c0.03-0.14,0.02-0.67,0.05-0.78
		c0.03-0.1,0.02-0.71,0.05-0.78c0.02-0.04,0.1,0.75,0.13,0.75c0.02,0,0.04-0.67,0.05-0.78c0.02-0.18,0.04-0.54,0.05-0.78l0.11-1.55
		l-0.13-0.75c-0.02-0.1-0.12-0.61-0.13-0.75c-0.01-0.13,0.05-0.67,0.05-0.78c0-0.06,0.05-0.73,0.05-0.78
		c-0.03-0.25-0.1-0.55-0.13-0.75c-0.03-0.2-0.09-0.63-0.13-0.75c-0.02-0.05-0.04,0.76-0.05,0.78c-0.01,0.01-0.11-0.66-0.13-0.75
		l-0.13-0.75c0.02-0.25,0.04-0.52,0.05-0.78c0.01-0.11,0.04-0.77,0.05-0.78c0,0.02,0.12,0.71,0.13,0.75
		c0.01-0.13,0.06-0.6,0.05-0.78c-0.01-0.2-0.12-0.53-0.13-0.75c-0.01-0.14,0.06-0.67,0.05-0.78c-0.03-0.25-0.1-0.55-0.13-0.75
		c-0.03-0.18-0.1-0.66-0.13-0.75c-0.02-0.05-0.03,0.78-0.05,0.78c-0.03,0.01-0.1-0.7-0.13-0.75c0.02-0.26,0.03-0.51,0.05-0.78
		c0.02-0.26,0.04-0.52,0.05-0.78l0.05-0.78c0.02-0.24,0.03-0.6,0.05-0.78c0.02-0.14,0.03-0.72,0.05-0.78
		c0.02-0.04,0.1,0.75,0.13,0.75c0.02,0,0.04-0.67,0.05-0.78c-0.01-0.04-0.13-0.72-0.13-0.75c-0.03-0.05-0.1-0.75-0.13-0.75
		c-0.03,0.01-0.02,0.79-0.05,0.78c-0.03-0.02-0.09-0.7-0.13-0.75c-0.03-0.04-0.03,0.77-0.05,0.78c-0.03,0-0.1-0.7-0.13-0.75
		l0.11-1.55l0.05-0.78c0.01-0.11,0.06-0.63,0.05-0.78c-0.01-0.12-0.11-0.65-0.13-0.75c-0.04-0.23-0.1-0.56-0.13-0.75
		c-0.03-0.14-0.1-0.71-0.13-0.75c0.02-0.1,0.04-0.59,0.05-0.78c0.02-0.25,0.03-0.5,0.05-0.78c-0.01-0.06-0.11-0.65-0.13-0.75
		c-0.01-0.15,0.05-0.66,0.05-0.78c0.01-0.15,0.06-0.59,0.05-0.78c0-0.1-0.12-0.66-0.13-0.75l-0.13-0.75
		c-0.03-0.17-0.11-0.52-0.13-0.75c0-0.06,0.05-0.71,0.05-0.78c0.01-0.11,0.06-0.64,0.05-0.78c-0.01-0.13-0.11-0.65-0.13-0.75
		c-0.04-0.22-0.1-0.48-0.13-0.75c-0.02-0.17-0.12-0.56-0.13-0.75c-0.01-0.25,0.07-0.52,0.05-0.78c-0.01-0.14,0.05-0.67,0.05-0.78
		c0.01-0.14,0.06-0.6,0.05-0.78c0-0.1-0.12-0.66-0.13-0.75c-0.02-0.12-0.12-0.6-0.13-0.75c-0.01-0.13,0.05-0.67,0.05-0.78
		c0.01,0.03,0.13,0.73,0.13,0.75c0,0,0.05-0.73,0.05-0.78c-0.01-0.14-0.11-0.64-0.13-0.75c-0.04-0.2-0.1-0.49-0.13-0.75
		c-0.01-0.1,0.06-0.64,0.05-0.78c0-0.11-0.11-0.66-0.13-0.75c-0.02-0.12-0.12-0.59-0.13-0.75c-0.01-0.22,0.06-0.55,0.05-0.78
		c-0.01-0.2-0.12-0.54-0.13-0.75c-0.01-0.24,0.06-0.54,0.05-0.78c0-0.29,0.06-0.48,0.05-0.78c-0.01-0.2-0.12-0.53-0.13-0.75
		c-0.01-0.26,0.06-0.52,0.05-0.78c-0.01-0.12-0.11-0.65-0.13-0.75c-0.02-0.1-0.12-0.61-0.13-0.75c-0.01-0.13,0.05-0.67,0.05-0.78
		c0-0.07,0.05-0.71,0.05-0.78c-0.02-0.22-0.1-0.59-0.13-0.75l-0.26-1.5c0.03-0.17,0.02-0.63,0.05-0.78c0.02-0.1,0.03-0.77,0.05-0.78
		c0.03,0,0.1,0.7,0.13,0.75c0.03,0.05,0.1,0.75,0.13,0.75c0.03,0,0.03-0.68,0.05-0.78c-0.01,0.05-0.11-0.74-0.13-0.75
		c-0.01-0.26,0.07-0.52,0.05-0.78c-0.01-0.25-0.11-0.5-0.13-0.75c-0.02-0.29-0.11-0.46-0.13-0.75c-0.02-0.2,0.06-0.56,0.05-0.78
		c-0.01-0.26-0.11-0.49-0.13-0.75c-0.02-0.21,0.06-0.55,0.05-0.78c-0.01-0.25-0.12-0.49-0.13-0.75c-0.01-0.25,0.06-0.52,0.05-0.78
		c0-0.11-0.12-0.66-0.13-0.75c-0.04-0.21-0.09-0.62-0.13-0.75c0,0.02-0.05,0.72-0.05,0.78c-0.01,0.11-0.04,0.77-0.05,0.78
		c-0.03,0-0.1-0.7-0.13-0.75l0.05-0.78l0.05-0.78c0.02-0.26,0.03-0.51,0.05-0.78c0.01-0.12,0.06-0.63,0.05-0.78
		c-0.01-0.26-0.12-0.49-0.13-0.75c0,0.04-0.05,0.78-0.05,0.78s-0.12-0.65-0.13-0.75c0-0.06,0.05-0.68,0.05-0.78
		c0-0.11-0.12-0.66-0.13-0.75c-0.03-0.16-0.11-0.54-0.13-0.75c-0.01-0.17,0.06-0.59,0.05-0.78c-0.01-0.25-0.11-0.49-0.13-0.75
		c-0.02-0.25-0.12-0.49-0.13-0.75c-0.01-0.13,0.06-0.67,0.05-0.78c-0.03-0.26-0.1-0.54-0.13-0.75l-0.11-0.63
		c0.04-0.33-0.05-0.69-0.16-0.91c-0.04-0.22-0.08-0.45-0.12-0.7c0-0.02,0-0.08,0.01-0.16c0.04-0.05,0.07-0.09,0.1-0.12l-0.08-0.14
		c0.01-0.16,0.02-0.31,0.02-0.35c0-0.03-0.01-0.07-0.02-0.1l0.11-0.54c-0.06-0.09-0.14-0.1-0.22-0.07c0-0.01-0.01-0.04-0.01-0.04
		c-0.03-0.22-0.07-0.44-0.11-0.63c0.04-0.04,0.07-0.07,0.11-0.08l-0.01-0.65c-0.1-0.21-0.21-0.36-0.33-0.54
		c-0.02-0.13-0.05-0.25-0.07-0.36c0-0.01-0.01,0.08-0.02,0.21l-0.05-0.09l-0.02-0.43l0.23-0.01c0.27-0.45,0.17-0.83,0.06-1.18
		c0-0.04,0-0.08,0-0.1c0.01-0.12,0.02-0.7,0-0.85l0,0c0.04-0.05,0.06-0.11,0.12-0.16c-0.07-0.18-0.14-0.24-0.22-0.25
		c-0.05-0.18-0.1-0.34-0.1-0.34c-0.01,0.01,0,0.17,0.01,0.35c-0.03,0.01-0.07,0.03-0.1,0.06c-0.04-0.14-0.08-0.27-0.09-0.3
		c0.02,0.11,0.02,0.24,0.02,0.36l-0.13,0.12l-0.15-0.91l0.14,0.01c0.05,0.15,0.11,0.32,0.12,0.41c-0.01-0.13-0.02-0.27-0.03-0.4
		l0.18,0.01c-0.08-0.54,0.13-1.24-0.33-1.38l-0.02-0.05l0.23-1.45c-0.16-0.01-0.26-0.32-0.32-0.79c-0.15,0.19,0.03,0.72,0.11,0.63
		l-0.12,0.59l-0.28-0.3c-0.04-0.19-0.08-0.37-0.12-0.55l0.03-0.86l0.38-0.59c-0.51-0.11-0.26-1.09-0.32-1.88l-0.35-0.1l0.18-0.56
		l-0.2-0.29c0.1,0.31-0.18,0.23-0.21,0.16l0.33-0.42l-0.24-0.89l-0.11,0.14l-0.15-0.46c0.06-0.29,0.17-0.76-0.08-0.87l-0.37,0.47
		c0.03-0.69,0.11-1.23,0.35-1.64c-0.21-0.93-0.38,0.27-0.61-0.1c-0.03-0.4,0.26-0.65,0.1-1.11l-0.38,0.59l0.27,0.64l-0.46,0.04
		l0.1-1.11l0.33-0.42c-0.04-0.28-0.08-0.87-0.3-1.04l-0.2-1.06c-0.15-0.46-0.42-0.01-0.45,0.24l-0.25-0.12l0.22-0.6
		c-0.21-0.61-0.36-1.07-0.63-1.26c-0.44-0.21-0.16-1.11-0.44-1.3l-0.35,0.67c-0.28-0.19-0.4-0.58-0.45-1.18
		c-0.27,0.13-0.57-0.14-0.79-0.31c0.07,1,0.68,2.19,0.49,2.87c-0.16-0.01-0.49-0.04-0.44,0.56l-0.13-0.06
		c-0.24-0.24-0.28-0.84-0.12-1.15l-0.34-0.23c-0.07-0.35-0.02-0.84,0.27-0.77l-0.32-0.02l-0.01-0.65l0.46-0.04l-0.26-0.77
		l-0.28,0.57L23,2.78l-0.27,0.13l0.24,1.33l-0.42-0.01c-0.42,1.31-0.58-0.44-1.02-0.51c0.1,0.67,0.04,1.32,0.12,1.99
		C21.42,5.46,21.15,4.88,21,4.33c-0.12,0.15-0.24,0.31-0.37,0.48c-0.04,0.49-0.47,0.16-0.44,0.88l0.24,0.56
		c0.35-0.67,0.73-1.26,0.74,0.16C21.01,6.72,20.98,6,20.8,6.23c-0.03,0.69,0.33,0.35,0.32,0.8l-0.24,0.08
		c-0.19-0.41-0.41-0.13-0.58,0.3l-0.01-0.2l-0.25-0.44l-0.04-0.28L19.7,6.42l0.05,0.47l0.32,0.03c0.25,0.44-0.12,0.91-0.23,1.05
		l-0.27-0.64l-0.1,0.34l0.33,0.35c-0.27,0.77-0.83,0.83-1.01,1.71c0.33,0.35-0.02,0.89-0.27,1.22c0.08,0.88-0.5,1.95-0.29,2.76
		l0.37-0.14c0.07,1-0.67,1.29-0.88,1.77c0.79,0.63,0.56-0.83,1.03-1.31l0.26,1.09l-0.1,0.02c-0.24-0.24-0.3,0.37-0.37,0.79
		c-0.28-0.52-0.61-0.1-0.74,0.29l0.19,0.41l-0.01,0.12c0.28,0.52,0.56-0.83,1.08-0.39c-0.32,0.3-0.34,0.87-0.51,1.3
		c-0.4-1.02-0.59,0.43-0.77,0.98c0.18,1.14-0.41,2.26,0.11,3.36c-0.04,0.04-0.08,0.06-0.11,0.11c0.32,0.23-0.11,0.47-0.42,0.61
		c0,0.48-0.74,0.97-0.59,1.43l0.41-0.02c-0.02,0.54-0.85,0.59-1.12,0.82c0.78,0.45,0.69-0.36,1.24-0.55L17.5,25l-0.11-0.01
		c-0.23-0.16-0.36,0.16-0.47,0.37c-0.25-0.32-0.65-0.14-0.83,0.05l0.16,0.25l-0.02,0.06c0.25,0.32,0.69-0.36,1.2-0.06
		c-0.38,0.11-0.45,0.41-0.68,0.62c-0.32-0.6-0.68,0.14-0.93,0.42c0.08,0.66-0.75,1.19-0.17,1.89l-0.3,0.99
		c-0.09,0.47,0.35,0.26,0.54,0.4c-0.01,0.02-0.02,0.05-0.02,0.05c0,0.02,0,0.07,0,0.11c-0.16,0.01-0.16,0.12-0.38,0.22
		c-0.03,0.17-0.02,0.44,0.2,0.34c0.07-0.11,0.21-0.05,0.34,0.01c-0.03,0.08-0.06,0.15-0.07,0.17c-0.01,0.02-0.02,0.05-0.03,0.08
		c-0.24,0.19-0.53,0.35-0.76,0.45c0.2,0.21,0.42,0.33,0.6,0.53c-0.03,0.05-0.05,0.1-0.06,0.16c-0.01,0.07,0.01,0.17,0.03,0.26
		c-0.17,0.1-0.34,0.22-0.28,0.52c0.04,0.03,0.09,0.04,0.14,0.04c-0.04,0.14-0.11,0.29-0.15,0.4c-0.02,0.05-0.15,0.33-0.15,0.4
		c-0.01,0.08,0.04,0.35,0.04,0.42c0.01,0.06,0.06,0.34,0.05,0.42c-0.01,0.07-0.15,0.35-0.15,0.4c0,0.15,0.03,0.3,0.04,0.42
		l0.09,0.84c-0.02,0-0.14,0.43-0.16,0.4c-0.02-0.06-0.03-0.32-0.04-0.42c-0.01-0.06-0.03-0.42-0.04-0.42c-0.02,0-0.13,0.35-0.15,0.4
		l-0.16,0.4l0.05,0.42l0.04,0.42c0.01,0.11,0.05,0.29,0.04,0.42c0,0.06-0.14,0.33-0.15,0.4c-0.02,0.11,0.06,0.31,0.05,0.42
		c-0.02,0.12-0.14,0.28-0.16,0.4c-0.01,0.1,0.04,0.34,0.04,0.42c0.01,0.06,0.06,0.34,0.04,0.42c-0.02,0.14-0.13,0.26-0.15,0.4
		c-0.01,0.09-0.13,0.34-0.15,0.4c-0.03,0.07-0.14,0.3-0.15,0.4c-0.01,0.05,0.04,0.37,0.04,0.42c0.01,0.07,0.06,0.34,0.04,0.42
		c-0.01,0.07-0.13,0.35-0.15,0.4c0-0.02-0.04-0.4-0.04-0.42c-0.01,0-0.15,0.36-0.15,0.4c-0.01,0.04,0.04,0.38,0.04,0.42l0.09,0.84
		c-0.03,0.01-0.13,0.42-0.15,0.4c-0.03-0.02-0.01-0.39-0.04-0.42c-0.02-0.02-0.13,0.4-0.15,0.4c-0.02,0-0.03-0.45-0.04-0.42
		c-0.02,0.03-0.14,0.33-0.15,0.4c-0.02,0.11,0.06,0.31,0.04,0.42c-0.02,0.14-0.13,0.26-0.15,0.4l0.04,0.42
		c0.01,0.12,0.02,0.34,0.04,0.42c-0.01-0.01-0.14,0.35-0.15,0.4c-0.02,0.06-0.14,0.32-0.15,0.4c-0.01,0.06,0.04,0.37,0.04,0.42
		l0.04,0.42l0.04,0.42l0.09,0.84c-0.05,0.08-0.1,0.33-0.15,0.4c-0.03,0.05-0.13,0.4-0.16,0.4c-0.03,0-0.02-0.39-0.04-0.42
		c-0.03-0.03-0.01-0.42-0.04-0.42c-0.01,0-0.14,0.35-0.15,0.4c-0.02,0.06,0.05,0.35,0.05,0.42c-0.01,0.1-0.15,0.31-0.15,0.4
		c-0.01,0.13,0.04,0.32,0.04,0.42c0.01,0.07,0.05,0.34,0.04,0.42c-0.02,0.12-0.14,0.29-0.15,0.4c-0.01,0.16,0.06,0.26,0.04,0.42
		c-0.01,0.11-0.14,0.29-0.15,0.4c-0.02,0.14,0.06,0.28,0.04,0.42c-0.01,0.1-0.14,0.29-0.15,0.4c-0.01,0.06,0.04,0.37,0.04,0.42
		c0.01,0.06,0.05,0.35,0.04,0.42c-0.01,0.08-0.13,0.34-0.15,0.4c-0.01,0.04-0.15,0.37-0.15,0.4c-0.01,0.13,0.03,0.32,0.04,0.42
		l0.04,0.42l0.04,0.42l0.09,0.84c-0.05,0.09-0.1,0.32-0.15,0.4c-0.01,0.01-0.04-0.39-0.04-0.42c-0.01-0.06-0.03-0.42-0.04-0.42
		c-0.02,0-0.13,0.35-0.15,0.4c-0.04,0.1-0.12,0.27-0.15,0.4c-0.01,0.03,0.04,0.39,0.04,0.42c0.01,0.1,0.05,0.29,0.05,0.42
		c0,0.07-0.14,0.32-0.16,0.4c-0.02,0.11,0.06,0.31,0.05,0.42c-0.02,0.13-0.13,0.27-0.15,0.4c-0.02,0.11-0.12,0.32-0.15,0.4
		c-0.04,0.1-0.12,0.27-0.15,0.4c-0.02,0.07,0.06,0.33,0.04,0.42c-0.02,0.14-0.14,0.26-0.15,0.4c-0.01,0.07,0.04,0.36,0.04,0.42
		l0.04,0.42c0.01,0.07,0.05,0.32,0.04,0.42c-0.01,0.05-0.14,0.36-0.15,0.4c-0.04,0.1-0.12,0.27-0.15,0.4
		c-0.02,0.07,0.06,0.34,0.04,0.42c-0.02,0.13-0.14,0.27-0.16,0.4c-0.01,0.09,0.04,0.35,0.05,0.42c0.01,0.11,0.05,0.28,0.04,0.42
		c0,0.02-0.02,0.08-0.05,0.14c0.12,0.51,0.21,1-0.14,1.41c-0.02,0.04-0.03,0.07-0.03,0.09c-0.02,0.11,0.06,0.31,0.04,0.42
		c-0.02,0.12-0.14,0.28-0.15,0.4c-0.01,0.1,0.04,0.34,0.04,0.42c0.01,0.06,0.06,0.34,0.04,0.42c-0.02,0.14-0.14,0.27-0.15,0.4
		c0-0.03-0.04-0.42-0.04-0.42c-0.01,0-0.15,0.36-0.16,0.4c-0.01,0.05,0,0.12,0.02,0.19l0.82-0.17c-0.26,0.3-0.59,0.6-0.94,0.85
		c0,0.13,0.05,0.24,0.04,0.38c-0.01,0.11-0.14,0.29-0.15,0.4c-0.02,0.14,0.06,0.28,0.04,0.42c-0.01,0.12-0.12,0.26-0.15,0.39
		c0.05,0.12,0.09,0.29,0.11,0.52l-0.04,0.09c0.01,0.09,0.03,0.2,0.02,0.25c-0.01,0.11-0.13,0.29-0.15,0.4
		c-0.01,0.06,0,0.13,0.02,0.21l1.2,0.59c-0.44,0.58-1.23,0.93-1.57,1.45c0.01,0.08,0.01,0.16,0.02,0.22l0.09,0.84
		c-0.02,0.06-0.05,0.13-0.08,0.2c0.28,0.65,0.7,1.39,0.35,1.85l0.52-0.01c-0.33,0.67-0.91,0.73-1.48,0.76l0,0.04
		c0.01,0.08,0.05,0.31,0.04,0.42c0,0.04-0.14,0.36-0.15,0.4c-0.04,0.1-0.12,0.27-0.15,0.4c-0.02,0.07,0.06,0.34,0.04,0.42
		c-0.01,0.05-0.03,0.1-0.06,0.15l0.07,0.05l-0.2,0.26c-0.04,0.11-0.12,0.23-0.13,0.34c-0.02,0.14,0.06,0.29,0.05,0.42
		c-0.02,0.14-0.14,0.26-0.15,0.4c-0.01,0.09,0.01,0.18,0.03,0.28l0.08-0.03c0.04-0.11,0.09-0.23,0.09-0.23s0.02,0.09,0.03,0.19
		l0.69-0.24c0.68,0.98-1.06,2.44,0.49,2.94c-0.71,1.45-1.47,3.27-0.93,4.81L7.94,90.3l1.14,0.81c-2.01,0.69-0.29,1.66-0.7,2.49
		L7.1,93.87c-0.4,0.83,2.04,2.41,0.18,2.53c-1.22,1.98,1.44,4.17-1.13,5.74l1,1.9c-0.5,0.46-1.05,0.94-1.64,1.33
		c0.01,0.11,0.01,0.23,0.02,0.27c0.02,0.09,0.03,0.3,0.05,0.42l0.03,0.29c0.16,0.02,0.32,0.05,0.48,0.13
		c-0.56,0.88,0.38,2.12-0.02,2.95c-0.39,0.68-0.88,0.65-1.38,0.56c-0.02,0.05-0.04,0.1-0.06,0.14c-0.02,0.06-0.14,0.32-0.15,0.4
		c-0.01,0.06,0.04,0.37,0.04,0.42l0.01,0.13c0.56,0.07,1.07,0.15,0.99,0.77c-0.37,0.17-0.71,0.41-1.04,0.66
		c0.01,0.05,0.01,0.08,0.01,0.1c0.01,0.07,0.05,0.32,0.04,0.42c-0.01,0.12-0.14,0.28-0.15,0.4c-0.01,0.09,0.06,0.35,0.04,0.42
		c-0.03,0.13-0.12,0.3-0.15,0.4c-0.03,0.09-0.13,0.29-0.15,0.4c-0.02,0.09,0.06,0.32,0.05,0.42c-0.02,0.14-0.13,0.26-0.15,0.4
		c-0.03,0.14-0.14,0.26-0.15,0.4c-0.02,0.13,0.06,0.29,0.04,0.42c0-0.03,0.15-0.4,0.15-0.4c0.01,0,0.04,0.37,0.04,0.42
		c0.01,0.1,0.05,0.29,0.05,0.42c0,0.07-0.14,0.32-0.15,0.4c-0.02,0.12,0.06,0.31,0.04,0.42c-0.02,0.13-0.12,0.28-0.15,0.4
		c-0.04,0.14-0.11,0.28-0.15,0.4l-0.15,0.4l-0.15,0.4c-0.04,0.11-0.12,0.26-0.15,0.4c-0.01,0.02,0.04,0.39,0.04,0.42
		c0.01,0.06,0.06,0.34,0.04,0.42c-0.01,0.08-0.13,0.33-0.15,0.4c0-0.01-0.04-0.42-0.04-0.42c-0.03,0-0.12,0.38-0.16,0.4
		c-0.02,0.14-0.14,0.26-0.15,0.4c-0.01,0.05,0.04,0.4,0.04,0.42c0.01,0.03,0.14-0.39,0.15-0.4c0.02-0.01,0.04,0.37,0.04,0.42
		c0.01,0.1,0.02,0.37,0.04,0.42c0.02,0.03,0.13-0.4,0.15-0.4c0.02,0,0.03,0.36,0.04,0.42c0.02,0.09,0.03,0.3,0.04,0.42l0.04,0.42
		c-0.02,0-0.14,0.43-0.15,0.4c-0.02-0.04-0.03-0.33-0.04-0.42c-0.01-0.1-0.02-0.37-0.05-0.42c-0.01-0.03-0.13,0.39-0.15,0.4
		c-0.03,0.02-0.02-0.42-0.05-0.42c-0.03,0-0.12,0.38-0.15,0.4l0.04,0.42l0.04,0.42c0.01,0.1,0.05,0.3,0.04,0.42
		c0,0.08-0.14,0.29-0.16,0.43c-0.03,0.21,0.03,0.58,0,0.8c-0.01,0.1-0.18,0.72-0.2,0.79c-0.02,0.05,0-0.8,0-0.8s-0.19,0.77-0.2,0.8
		c-0.02,0.21,0,0.65,0,0.8l0,0.79l0.01,1.57c-0.06,0.18-0.14,0.65-0.2,0.81c-0.04,0.1-0.17,0.81-0.2,0.82
		c-0.02,0.01,0.02-0.84-0.01-0.78c-0.04,0.11-0.15,0.63-0.2,0.83c-0.04,0.15-0.17,0.63-0.2,0.84c-0.01,0.1,0,0.7,0,0.78l0.01,0.77
		c0,0.19,0.02,0.52,0.01,0.77c-0.01,0.12-0.18,0.7-0.2,0.85c-0.03,0.22,0.04,0.53,0.01,0.76c-0.03,0.27-0.17,0.58-0.21,0.86
		c-0.03,0.26,0.04,0.49,0.01,0.75c-0.03,0.27-0.17,0.6-0.21,0.87c-0.03,0.27,0.04,0.48,0.01,0.75c-0.03,0.22-0.19,0.67-0.21,0.88
		c-0.02,0.2,0.01,0.6,0.01,0.74l0.01,0.73c0,0.17,0.03,0.49,0.01,0.73c-0.01,0.13-0.18,0.73-0.21,0.89
		c-0.03,0.22,0.04,0.49,0.01,0.72c-0.03,0.27-0.17,0.63-0.21,0.91l-0.01-0.72c0-0.21,0.01-0.58-0.01-0.72
		c-0.01-0.09,0.02-0.75-0.01-0.73c0,0-0.19,0.83-0.21,0.91c-0.03,0.2,0.03,0.53,0.01,0.73c-0.05,0.3-0.17,0.62-0.21,0.92
		c-0.02,0.12,0.01,0.64,0.01,0.73c0,0.08,0.01,0.28,0.02,0.45c0.14-0.01,0.25-0.02,0.33-0.03c0.21-0.01,0.49,0.09,0.7,0.1
		c0.21,0,0.69-0.11,0.91-0.11c0.27,0,0.44,0.09,0.71,0.1c0.23,0,0.67-0.11,0.91-0.11c0.27,0,0.45,0.09,0.72,0.1
		c0.27,0,0.46,0.1,0.73,0.1c0.22,0,0.68-0.09,0.9-0.11l-0.73-0.1c0,0,0.79-0.09,0.89-0.11c0.11-0.01,0.77-0.11,0.88-0.11
		c0.17,0,0.62,0.08,0.73,0.1c0.18,0.02,0.66,0.06,0.74,0.1c0.05,0.02-0.87,0.09-0.89,0.11c0,0,0.72,0.09,0.75,0.1
		c0.18,0,0.74-0.09,0.89-0.11l0.88-0.11l0.87-0.11l0.86-0.11c0.24-0.03,0.57-0.09,0.85-0.11c0.11-0.01,0.62,0.1,0.76,0.1
		c0.27,0,0.58-0.1,0.85-0.11c0.27-0.01,0.57-0.1,0.84-0.11c0.26,0,0.52,0.1,0.77,0.1c0.05,0.01,0.77,0.09,0.81,0.09
		c0.02,0.03-0.86,0.08-0.86,0.11c0,0,0.67,0.09,0.82,0.09c0.05,0,0.84-0.11,0.94-0.13c0.17-0.01,0.78,0.04,0.93,0.05
		c0.19,0,0.71,0.06,0.96,0.03c0.13-0.01,0.8-0.17,0.9-0.2c0.13-0.03,0.72-0.17,0.86-0.2c0.1-0.02,0.29-0.02,0.48-0.02
		c0.22,0,0.23-0.01,0.3-0.02c0.14-0.06,0.31-0.17,0.41-0.24c0.01,0,0.03-0.02,0.04-0.03c0.58,1.18,1.31,2.32,0.22,2.78
		c-0.67,3.91,2.2,7.24,0.23,10.76l1.31,3.22c-0.35,0.97-0.74,1.98-1.19,2.84c0.03,0.19,0.07,0.42,0.08,0.48
		c0.04,0.16,0.09,0.53,0.13,0.76l0.09,0.52c0.15-0.01,0.3,0.01,0.46,0.11c-0.31,1.75,0.81,3.76,0.62,5.38
		c-0.2,1.33-0.65,1.41-1.12,1.37c-0.01,0.1-0.02,0.2-0.02,0.28c-0.01,0.12-0.06,0.62-0.05,0.77c0.01,0.12,0.12,0.66,0.13,0.76
		l0.04,0.24c0.52-0.01,1,0.01,1.06,1.15c-0.29,0.41-0.55,0.92-0.79,1.48c0.02,0.08,0.03,0.15,0.03,0.17
		c0.02,0.13,0.12,0.58,0.13,0.76c0.02,0.22-0.06,0.54-0.05,0.77c0.01,0.16,0.13,0.62,0.13,0.76c0,0.24-0.04,0.58-0.05,0.77
		c-0.01,0.16-0.06,0.55-0.05,0.77c0,0.17,0.12,0.57,0.13,0.76c0.01,0.26-0.06,0.51-0.05,0.77c0.01,0.26-0.07,0.52-0.05,0.77
		c0.01,0.25,0.12,0.51,0.13,0.76c0-0.06,0.05-0.75,0.05-0.77c0.01-0.01,0.12,0.67,0.13,0.76c0.03,0.19,0.11,0.51,0.13,0.76
		c0.01,0.13-0.06,0.61-0.05,0.77c0.01,0.21,0.13,0.55,0.13,0.76c0.01,0.25-0.05,0.55-0.05,0.77c-0.01,0.27-0.04,0.54-0.05,0.77
		l-0.05,0.77l-0.05,0.77c-0.01,0.2-0.05,0.51-0.05,0.77c0.01,0.05,0.12,0.69,0.13,0.76c0.02,0.12,0.12,0.61,0.13,0.76
		c0.01,0.15-0.05,0.64-0.05,0.77c0-0.02-0.13-0.76-0.13-0.76c-0.03,0-0.02,0.72-0.05,0.77c0.01,0.26-0.07,0.51-0.05,0.77
		c0,0.09,0.12,0.71,0.13,0.76c0.01,0.05,0.04-0.76,0.05-0.77c0.01-0.01,0.12,0.67,0.13,0.76c0.03,0.18,0.1,0.67,0.13,0.76
		c0.02,0.05,0.03-0.77,0.05-0.77c0.02,0,0.11,0.65,0.13,0.76c0.04,0.16,0.09,0.53,0.13,0.76l0.13,0.76
		c-0.02,0.01-0.03,0.82-0.05,0.77c-0.03-0.07-0.1-0.59-0.13-0.76c-0.03-0.18-0.1-0.67-0.13-0.76c-0.02-0.04-0.04,0.74-0.05,0.77
		c-0.02,0.04-0.11-0.76-0.13-0.76c-0.03,0-0.02,0.72-0.05,0.77l0.13,0.76l0.13,0.76c0.03,0.18,0.11,0.53,0.13,0.76
		c0.01,0.13-0.06,0.62-0.05,0.77c0.01,0.2,0.12,0.54,0.13,0.76c0.01,0.1-0.04,0.7-0.05,0.77c-0.01,0.05-0.13-0.76-0.13-0.76
		s-0.05,0.74-0.05,0.77c0.01,0.19,0.11,0.61,0.13,0.76l0.13,0.76l0.26,1.51c-0.03,0.17-0.02,0.62-0.05,0.77
		c-0.02,0.1-0.03,0.77-0.05,0.77c-0.02,0-0.12-0.81-0.13-0.76c-0.02,0.1-0.04,0.58-0.05,0.77c-0.01,0.14-0.06,0.58-0.05,0.77
		c0,0.09,0.12,0.68,0.13,0.76l0.13,0.76c0.03,0.19,0.11,0.52,0.13,0.76c0.01,0.11-0.06,0.63-0.05,0.77
		c0.01,0.21,0.12,0.54,0.13,0.76c0.01,0.26-0.06,0.51-0.05,0.77c0.01,0.25,0.12,0.51,0.13,0.76c0.01,0.26-0.07,0.52-0.05,0.77
		c0.01,0.26,0.12,0.5,0.13,0.76c0.01,0.21-0.07,0.57-0.05,0.77c0.02,0.19,0.11,0.61,0.13,0.76l0.13,0.76
		c0.03,0.18,0.11,0.53,0.13,0.76c0.01,0.13-0.06,0.62-0.05,0.77c0.01,0.21,0.12,0.54,0.13,0.76c0.01,0.26-0.06,0.52-0.05,0.77
		l-0.13-0.76c-0.04-0.22-0.09-0.6-0.13-0.76c-0.03-0.1-0.11-0.76-0.13-0.76c0,0-0.05,0.7-0.05,0.77c0,0.18,0.12,0.56,0.13,0.76
		c0.01,0.27-0.06,0.49-0.05,0.77c0,0.11,0.12,0.67,0.13,0.76c0.02,0.13,0.12,0.58,0.13,0.76c0.01,0.2-0.06,0.57-0.05,0.77
		c0.01,0.2,0.12,0.54,0.13,0.76c0.01,0.26-0.06,0.51-0.05,0.77c0.01,0.22,0.12,0.53,0.13,0.76c0.01,0.25-0.06,0.51-0.05,0.77
		c0.01,0.26-0.07,0.52-0.05,0.77c0.01,0.2,0.11,0.56,0.13,0.76l0.05-0.77c0.01-0.01,0.12,0.67,0.13,0.76
		c0.02,0.09,0.13,0.65,0.13,0.76c0.01,0.16-0.04,0.65-0.05,0.77c-0.01,0.19-0.03,0.67-0.05,0.77c-0.01,0.06-0.11-0.76-0.13-0.76
		c0,0-0.05,0.73-0.05,0.77c0.01,0.16,0.11,0.63,0.13,0.76l0.13,0.76l0.13,0.76l0.13,0.76c0.04,0.21,0.1,0.5,0.13,0.76
		c0.01,0.1-0.06,0.64-0.05,0.77c0.01,0.25,0.11,0.5,0.13,0.76c0.02,0.26,0.12,0.5,0.13,0.76c0.01,0.24-0.07,0.53-0.05,0.77
		c0,0.05-0.05,0.76-0.05,0.79c-0.03,0.03-0.11-0.79-0.14-0.78c0,0-0.05,0.66-0.05,0.8c0.01,0.05,0.14,0.75,0.16,0.85
		c0.02,0.16-0.01,0.74,0,0.88c0,0.18-0.03,0.67,0.01,0.9c0.02,0.12,0.19,0.72,0.22,0.81c0.03,0.12,0.19,0.67,0.22,0.79
		c0.04,0.18,0.05,0.72,0.09,0.88c0.07,0.26,0.19,0.57,0.26,0.75c0.04,0.11,0.25,0.56,0.29,0.71c0.06,0.2,0.08,0.67,0.14,0.86
		c0.07,0.27,0.12,0.62,0.17,0.85c0.01,0.07,0.15,0.8,0.18,0.85c0.09,0.2,0.28,0.48,0.35,0.61c0.08,0.15,0.29,0.54,0.35,0.58
		c0.02,0.12,0.18,0.59,0.25,0.78c0.05,0.16,0.17,0.61,0.26,0.78c0.07,0.13,0.32,0.35,0.4,0.48c0.09,0.16,0.19,0.58,0.3,0.73
		c0.12,0.18,0.29,0.23,0.41,0.4c0.09,0.13,0.22,0.54,0.33,0.67c0.06,0.07,0.38,0.29,0.43,0.32c0.01,0.01,0.04,0.03,0.07,0.05
		c0.05,0.08,0.1,0.1,0.16,0.1c0.08,0.05,0.16,0.1,0.2,0.13c0.06,0.06,0.13,0.17,0.19,0.29l-0.01,0.01c0.26,0.84,0.46,1.46,0.82,1.76
		c0.58,0.35,0.19,1.47,0.55,1.78l0.48-0.81c0.36,0.3,0.52,0.82,0.57,1.61c0.36-0.12,0.76,0.28,1.04,0.54
		c-0.06-0.98-0.5-2.14-0.62-3.03c0.1-0.02,0.23-0.05,0.32-0.05c0.03,0,0.13,0.06,0.22,0.13c-0.07,0.12-0.13,0.28-0.09,0.47
		c0.11-0.04,0.22-0.18,0.3-0.35l0.02,0.01c0.05,0.02,0.11-0.02,0.17-0.05l0.44,0.35c0.08,0.47,0.01,1.11-0.37,0.97l0.43,0.09l0,0.85
		l-0.61-0.03L36,256.7l0.38-0.7l0.16,0.95l0.36-0.12l-0.29-1.79l0.56,0.08c0.63-1.82,0.79,1.24,1.53,0.84
		c0.22-0.38,0.61-0.82,1.01-1.26c0.07-0.64,0.63-0.13,0.6-1.08L40,252.84l-0.07,0.11l0.08,0.26l-0.13-0.18
		c-0.44,0.71-0.87,1.17-0.85-0.53c0.22-0.38,0.25,0.57,0.49,0.3c0.01-0.1,0-0.18,0-0.25l-0.08-0.11c0.02,0.01,0.04-0.01,0.06-0.02
		c-0.04-0.16-0.1-0.24-0.18-0.3l0.01,0c0.08-0.07,0.15-0.2,0.21-0.32c0.04,0.05,0.09,0.07,0.13,0.09c0.03-0.13,0.07-0.18,0.16-0.02
		c0.13-0.07,0.26-0.26,0.37-0.52l0.02,0.26l0.02,0.03c-0.02,0.04-0.04,0.07-0.05,0.1c-0.09,0.17-0.18,0.32-0.28,0.47l-0.01,0.06
		c0.18-0.07,0.35-0.17,0.52-0.28l0.13,0.25l0.05,0.37l0.38,0.14l-0.06-0.63l-0.43-0.09c-0.01-0.03-0.02-0.05-0.03-0.07l0.26-0.17
		c0.1-0.18,0.19-0.38,0.28-0.58l0.14,0.37l0.13-0.43l-0.17-0.2l0.19-0.44c0.07-0.16,0.14-0.34,0.2-0.52
		c-0.03,0.05-0.07,0.11-0.1,0.15l-0.3-0.09c-0.01-0.69,0.22-1.65,0.62-1.24c0.07,0.24,0.05,0.48-0.01,0.71
		c0.21-0.22,0.41-0.48,0.51-0.95c-0.07-0.08-0.11-0.17-0.13-0.25c0.1-0.13,0.25-0.34,0.28-0.38c0.06-0.07,0.14-0.2,0.22-0.33
		c-0.06-0.04-0.11-0.11-0.16-0.18l0.2,0.04l0.01,0.04c0.02-0.04,0.04-0.08,0.06-0.11c0.05-0.11,0.11-0.65,0.16-0.78
		c0.09-0.22,0.23-0.36,0.3-0.6c0.04-0.12,0.1-0.71,0.12-0.82c0.01-0.13,0.07-0.68,0.09-0.83c0.03-0.15,0.21-0.57,0.25-0.68
		c0.04-0.1,0.2-0.57,0.23-0.72c0.04-0.28,0-0.58,0.04-0.86C43.92,241.9,44.04,241.57,44.07,241.34z M10.29,79.77
		c-0.18-0.12,0.04-0.29,0.1-0.34l0.18,0.12L10.29,79.77z M9.97,88.88l-0.14,0c-0.14-0.3-0.12-0.95,0.39-0.87
		C10.5,88.31,9.61,88.51,9.97,88.88z M17.9,23.39l0,0.07C17.89,23.44,17.89,23.42,17.9,23.39z M19.62,17.92
		c-0.06,0.12-0.13,0.25-0.16,0.31c-0.03,0.02-0.06,0.03-0.09,0.05l-0.05-0.15C19.43,17.98,19.53,17.87,19.62,17.92z M19.22,17.05
		c-0.13-0.38,0.08-0.86,0.23-1.05l0.22,0.04C19.69,16.57,19.52,17.32,19.22,17.05z M21.77,10.25c0.04,0.03,0.07,0.04,0.1,0.02
		c0,0.1,0.02,0.21,0.04,0.33l0.01,0.1l-0.21,0.37C21.7,10.77,21.72,10.49,21.77,10.25z M20.54,14.4l0.05-0.49l-0.13-0.38l0.44,0.53
		C20.67,14.01,20.8,15.04,20.54,14.4z M18.29,24.55c0.05,0,0.09,0.02,0.13,0.06c0,0.04-0.01,0.09-0.01,0.1
		c0,0.04,0.01,0.12,0.02,0.21c-0.08,0.04-0.12,0.12-0.17,0.23c-0.11-0.07-0.26-0.12-0.4-0.16C17.92,24.75,18.13,24.67,18.29,24.55z
		 M25.97,14.97c-0.04-0.02-0.1-0.03-0.17-0.05c-0.02-0.05-0.03-0.09-0.05-0.17l0.15-0.3c0.06,0.08,0.11,0.15,0.14,0.17
		c0.02,0.01,0.06,0.01,0.08,0.02C26.07,14.74,26.02,14.88,25.97,14.97z M26.14,13.93c0-0.01,0.02,0,0.03,0l0.01,0.05
		C26.16,13.96,26.14,13.94,26.14,13.93z M26.27,12.36c0.12,0.51-0.08,0.86-0.17,1.2l0,0.01c-0.11-0.04-0.28-0.11-0.33-0.09
		c0.08-0.38,0.41-0.65,0.42-1.22c-0.19,0.23-0.51,0.53-0.52,0.01C25.71,11.65,26.13,12.1,26.27,12.36z M25.46,6.44L25.46,6.44
		c0.08,0.1,0.14,0.22,0.19,0.34c-0.03,0.14-0.05,0.29-0.05,0.48c-0.03,0-0.07,0.01-0.1,0.04l-0.06,0.1
		c0.14,0.17,0.07,0.42,0.01,0.58l-0.02,0.01C25.06,7.33,25.3,6.92,25.46,6.44z M24.88,7.91l0.17,1.3c0.26,0.32,0.5-0.09,0.66-0.4
		l0.23,0.69c-0.42-0.01-0.67,0.84-1.08,0.39l0.12-0.91l-0.33-0.99L24.88,7.91z M24.65,6.58l-0.15,0.95l-0.19-0.09l-0.1,0.34
		l-0.04-0.6l-0.1,0.02C24.19,6.62,24.45,6.61,24.65,6.58z M23.64,12.28l0.27,0.73c-0.15,0.43-0.36-0.15-0.42-0.3L23.64,12.28z
		 M23.13,7.48c0.05,0.14,0.1,0.28,0.12,0.33c0.07,0.2,0.16,0.37,0.24,0.54c0.06,0.21,0.1,0.44,0.18,0.64
		c-0.02-0.07-0.24-0.4-0.27-0.51c-0.01,0.07,0.2,0.63,0.19,0.66c0,0-0.27-0.47-0.27-0.52c-0.04-0.12-0.15-0.59-0.16-0.69
		c-0.02-0.1-0.14-0.7-0.12-0.7C23.03,7.22,23.07,7.34,23.13,7.48z M22.44,7.14c-0.33,0.65,0.53,1.59-0.01,2.28
		c-0.37-0.45-0.61-1.5-0.75-2.23L22.44,7.14z M20.6,8.4l0.46,0.06c0.06,0.59-0.29,0.59-0.52,0.36L20.6,8.4z M19.07,14.09l-0.05-0.92
		l0.34-0.54c-0.56-0.59,0-1.09,0.12-1.68l0.31-0.17l0.06-0.62l-0.32-0.03l-0.1-0.31c0.29,0.07,0.68,0.45,0.59,0.99l0.25,0.12
		l0.04-0.81l-0.2,0.03l0.22-0.6l0.07,0.68c0.28,0.19,0.56-0.06,0.76,0.56c-0.03,0.69,0.51,0.88,0.29,1.49
		c0.21,1.26-0.49-0.04-0.62,0.67l0.02-0.57c0.33-3.57-0.79-0.95-0.5-0.56l-0.22-0.04c0.1-0.34-0.07-1-0.28-0.84l-0.18,0.88
		c0.22,0.04,0.29,0.72,0.36,1.07c-0.22,0.6,0.07,1.32-0.06,2.03l0.09,0.11l-0.13,0.71c0.05-0.49-0.27-0.64-0.55-0.71
		c0.01-0.77,0.53-0.78,0.41-1.61C19.31,13.24,19.26,13.41,19.07,14.09z M18.85,18.61l0.26,1.09l0.16-0.21
		c-0.02,0.17-0.04,0.34-0.05,0.42c-0.01,0.03-0.02,0.07-0.04,0.1c0-0.02-0.01-0.05,0-0.07c-0.03,0.01-0.06,0-0.1-0.02
		c-0.06,0.09-0.09,0.21-0.12,0.33l-0.19,0.2l0.19,0.25c-0.02,0.08-0.05,0.17-0.07,0.25l-0.01-0.03l-0.04,0.05l-0.26-0.49
		c-0.14-0.58,0.3-0.82,0.2-1.45l-0.36,0.02C18.46,18.56,18.64,18.32,18.85,18.61z M17.87,23.85L17.86,24c0,0.09,0.01,0.15,0.01,0.21
		c-0.07,0.06-0.15,0.13-0.24,0.25l0.04-0.5L17.87,23.85z M16.85,27.97c-0.04,0.05-0.09,0.11-0.14,0.17l-0.01-0.02l-0.25-0.32
		c-0.09-0.33,0.41-0.4,0.36-0.75l-0.39-0.04c0.1-0.26,0.32-0.36,0.51-0.17l0.17,0.62l0.2-0.09c-0.03,0.09-0.07,0.18-0.09,0.22
		c-0.01,0.02-0.03,0.03-0.05,0.05l-0.49,0.17L16.85,27.97z M11.38,82.88c0.15-0.23,0.11-0.42,0.68-0.55l0.08,0.38L11.38,82.88z
		 M11.98,81.11c-0.25-0.16,0.06-0.4,0.13-0.45l0.25,0.16L11.98,81.11z M17.63,26.73c-0.03,0-0.06,0.01-0.1,0.01l-0.04-0.09
		c0.14-0.06,0.26-0.11,0.35-0.07C17.76,26.64,17.68,26.7,17.63,26.73z M17.49,26.06c-0.1-0.22,0.17-0.45,0.35-0.53l0.24,0.05
		C18.05,25.87,17.79,26.25,17.49,26.06z M33.23,243.76l-0.05-0.28c0.06,0.14,0.09-0.23,0.14,0l-0.07,0.13l0.06,0.07
		c0.05,0.17-0.09,0.21-0.1,0.39c-0.01-0.01-0.02-0.02-0.02-0.03C33.16,243.92,33.21,243.84,33.23,243.76z M33.21,244.08
		c0.05-0.05,0.12-0.11,0.13,0.02C33.32,244.22,33.25,244.14,33.21,244.08z M34.61,249.57l-0.07-0.59c-0.12-0.16-0.22,0.01-0.3,0.14
		l-0.1-0.32c0.19,0.03,0.3-0.33,0.49-0.11l-0.06,0.4l0.14,0.46L34.61,249.57z M35.96,244.66l0.29-0.17l0.05,0.52
		C36.15,245.1,35.92,245.02,35.96,244.66z M36.62,243.49l0.19-0.11l0.02,0.54C36.72,243.86,36.69,243.82,36.62,243.49z
		 M37.56,251.01c0.18-0.31-0.27-0.86,0.02-1.17c0.19,0.25,0.31,0.81,0.37,1.2L37.56,251.01z M38.93,254.01l0.07,0.21
		c-0.2,0.22-0.35,0.38-0.5,0.13C38.62,254.07,38.75,254.07,38.93,254.01z M40.43,251.3l0.05-0.13l0.01,0
		C40.48,251.19,40.46,251.24,40.43,251.3z M40.56,250.65l-0.34-1.31C40.83,249.37,41.01,249.73,40.56,250.65z M42.75,245.89
		c0.36,0.43-0.01,0.7-0.09,1.07l-0.2,0.09l-0.04,0.38c-0.08-0.12-0.13-0.26-0.1-0.42l-0.16-0.1l-0.03,0.52l0.13-0.01l-0.15,0.37
		l-0.04-0.44c-0.18-0.15-0.36-0.01-0.49-0.42c0.03-0.44-0.32-0.61-0.17-0.98c-0.13-0.82,0.31,0.07,0.41-0.38l-0.02,0.36
		c-0.24,2.26,0.51,0.68,0.32,0.4l0.15,0.05c-0.07,0.21,0.04,0.65,0.18,0.56l0.12-0.55c-0.15-0.05-0.18-0.49-0.22-0.72
		c0.15-0.37-0.04-0.85,0.05-1.3l-0.06-0.08l0.09-0.44c-0.03,0.31,0.17,0.43,0.35,0.5c-0.01,0.49-0.35,0.45-0.28,0.99
		c0.31,0.14,0.34,0.04,0.47-0.38l0.02,0.6L42.75,245.89z"/>
	<path class="st0" d="M6.8,93.46c0.04-0.01,0.09-0.01,0.13-0.02c0.03-0.08,0.06-0.15,0.06-0.15S6.99,93.34,7,93.4
		c0.38-0.17,0.4-0.61,0.21-1.21c-0.04,0.12-0.09,0.27-0.11,0.28c-0.02,0.02-0.02-0.24-0.03-0.36l-0.05,0
		c-0.04,0.11-0.09,0.32-0.12,0.34c-0.01,0.16,0.06,0.26,0.04,0.42c-0.01,0.11-0.14,0.29-0.15,0.4C6.78,93.31,6.79,93.39,6.8,93.46z"
		/>
	<path class="st0" d="M10.66,66.59c0.03,0,0.12-0.38,0.15-0.4c0.01-0.14-0.06-0.28-0.05-0.42c0.01-0.06,0.16-0.36,0.15-0.4
		c0-0.05-0.03-0.42-0.04-0.42c-0.01,0-0.14,0.35-0.15,0.4c-0.03,0.1-0.14,0.29-0.15,0.4c-0.01,0.07,0.04,0.36,0.04,0.42
		C10.62,66.23,10.64,66.59,10.66,66.59z"/>
	<path class="st0" d="M8.8,82.03c-0.02,0.14,0.06,0.28,0.04,0.42C8.85,82.44,9,82.05,9,82.05s-0.04-0.41-0.04-0.42
		C8.96,81.63,8.81,82.01,8.8,82.03z"/>
	<path class="st0" d="M9.92,76.15l-0.39,0.01c0.01,0.59,0.21,0.58,0.41,0.77L9.92,76.15z"/>
	<path class="st0" d="M10.43,72.74l0.03-0.14c-0.44,0.28-0.46-0.63-0.81-0.4C9.47,72.67,10.11,72.81,10.43,72.74z"/>
	<path class="st0" d="M9.15,75.12c-0.06-0.03-0.4,0-0.4,0.21C8.9,75.33,9.12,75.22,9.15,75.12z"/>
	<path class="st0" d="M8.84,84.44c-0.12,0.09-0.23,0.32-0.18,0.41C8.73,84.84,8.97,84.59,8.84,84.44z"/>
</g>
</svg>
