<?xml version="1.0" encoding="utf-8"?>
<!-- Generator: Adobe Illustrator 24.0.2, SVG Export Plug-In . SVG Version: 6.00 Build 0)  -->
<svg version="1.1" id="Layer_1" xmlns="http://www.w3.org/2000/svg" xmlns:xlink="http://www.w3.org/1999/xlink" x="0px" y="0px"
	 viewBox="0 0 157.22 171.9" style="enable-background:new 0 0 157.22 171.9;" xml:space="preserve">
<style type="text/css">
	.st0{fill:#FFFFFF;}
</style>
<g>
	<g>
		<g>
			<path class="st0" d="M151.98,73.62c0,0.01,0.49,1.35,0.51,1.43c-0.05-0.16-0.35-1.24-0.41-1.46c-0.08-0.26-0.44-1.23-0.53-1.42
				c-0.08-0.19-0.57-1.4-0.57-1.4s0.1,0.34,0.22,0.68c0.12,0.35,0.24,0.71,0.24,0.76c0.18,0.48,0.27,0.98,0.42,1.46
				c0.07,0.19,0.47,1.3,0.51,1.42C152.37,74.99,151.99,73.64,151.98,73.62z"/>
			<path class="st0" d="M94.3,14.98c0.8,0.54,1.5,0.67,1.59,0.54l-1.41-0.81L94.3,14.98z"/>
			<path class="st0" d="M92.74,13.15c0.97,0.51,1.15,0.57,1.52,0.67l-1.41-0.85L92.74,13.15z"/>
			<path class="st0" d="M101.88,14.16l-0.58-0.5l-0.77-0.2C100.52,13.59,101.54,14.03,101.88,14.16z"/>
			<path class="st0" d="M101.55,20.98c1.11,0.6,0.95,0.61,1.84,0.94l-0.69-0.56C102.32,21.21,101.93,21.09,101.55,20.98z"/>
			<path class="st0" d="M93.49,12.05c1.33,0.73,0.78,0.09,0.79,0.01C93.76,11.91,93.08,11.67,93.49,12.05z"/>
			<path class="st0" d="M96.86,14.69c-0.65-0.44-1.33-0.86-1.99-1.29c-0.28-0.29-0.57-0.59-0.73-0.53l0.29,0.3
				C94.23,13.3,95.92,14.14,96.86,14.69z"/>
			<path class="st0" d="M85.63,171.41c0,0,0.18,0.02,0.4,0.04c-0.37-0.15-0.96-0.28-1.72-0.4c-0.76-0.15-1.69-0.29-2.76-0.43
				c0.44,0.1,0.99,0.23,1.04,0.25c0.06,0.02-0.86-0.14-1.29-0.21c0,0.01,0.01,0.02,0.01,0.03c0.4,0.09,1.19,0.27,1.27,0.29
				c0.57,0.09,0.93,0.15,1.52,0.24c0.4,0.07,1.09,0.22,1.52,0.29c0.16,0.02,0.42,0.05,0.69,0.08c-0.04-0.03-0.07-0.06-0.12-0.09
				C85.9,171.46,85.64,171.41,85.63,171.41z"/>
			<path class="st0" d="M10.17,109.96c-0.08-0.2-0.51-1.26-0.57-1.39c-0.08-0.17-0.66-1.33-0.66-1.34c0,0.01,0.5,1.23,0.57,1.39
				c0.15,0.35,0.4,1.03,0.56,1.39c0.1,0.25,0.6,1.14,0.7,1.32c0.1,0.18,0.71,1.32,0.71,1.32s-0.14-0.32-0.29-0.65
				c-0.15-0.33-0.31-0.67-0.32-0.72C10.65,110.84,10.37,110.42,10.17,109.96z"/>
			<path class="st0" d="M145.99,118.5c0.06-0.43,0.12-0.89,0.18-1.32c0.03-0.18,0.12-1.33,0.12-1.33c0,0.01-0.05,0.3-0.1,0.61
				c-0.05,0.32-0.11,0.65-0.13,0.74c-0.01,0.06-0.16,1.17-0.17,1.32c-0.06,0.35-0.23,0.96-0.29,1.33c-0.07,0.44-0.1,0.88-0.21,1.31
				c0.13-0.43,0.23-0.89,0.32-1.33c0.02-0.09,0.09-0.43,0.16-0.74C145.92,118.79,145.99,118.5,145.99,118.5z"/>
			<path class="st0" d="M46.35,154.21c0,0,1.12,0.86,1.2,0.92c0.41,0.29,0.85,0.54,1.26,0.82c-0.05-0.04-1.2-0.92-1.2-0.92
				S46.36,154.22,46.35,154.21z"/>
			<path class="st0" d="M146.84,103.73c0.01,0.46,0.07,0.87,0.09,1.34c0-0.08,0.02-1.37,0.02-1.37c0-0.05-0.09-1.34-0.09-1.34
				S146.84,103.65,146.84,103.73z"/>
			<path class="st0" d="M90.58,9.22c-0.08-0.07-0.21-0.16-0.33-0.24c-0.13-0.06-0.24-0.11-0.36-0.16c0.19,0.12,0.3,0.23,0.23,0.29
				L90.58,9.22z"/>
			<path class="st0" d="M83.88,5.67l0.18,0.06c0.23,0.07,0.44,0.14,0.62,0.2c-0.04-0.03-0.01-0.04,0.06-0.04
				C84.31,5.7,83.81,5.5,83.27,5.3L83.88,5.67z"/>
			<path class="st0" d="M92.08,11.52l-0.07-0.27c-1.86-0.82-1.82-0.68-2.4-0.82L92.08,11.52z"/>
			<path class="st0" d="M84.95,10.09c0.14,0.05,0.28,0.1,0.41,0.16l0.61,0.13c-0.34-0.14-0.67-0.29-1.02-0.41L84.95,10.09z"/>
			<path class="st0" d="M88.63,7.97l-0.54-0.3c-0.21-0.06-1.02-0.3-0.49,0L88.63,7.97z"/>
			<polygon class="st0" points="86.25,10.33 87.38,10.83 86.98,10.54 			"/>
			<path class="st0" d="M87.23,10.48l0.45,0.2c-0.94-0.63,1.95,0.48,1.19-0.02C87.29,9.93,86.93,10.17,87.23,10.48z"/>
			<path class="st0" d="M87.69,8.9l0.81,0.19c-0.3-0.11-0.93-0.31-1-0.27L87.69,8.9z"/>
			<path class="st0" d="M88.8,10.22c0.37,0.29,0.62,0.36,0.99,0.56c-0.16-0.13-0.32-0.28-0.49-0.4L88.8,10.22z"/>
			<path class="st0" d="M93.73,11.13l-0.7-0.44c-0.27-0.09-1.35-0.47-0.66-0.03L93.73,11.13z"/>
			<path class="st0" d="M83.87,5.16c-0.53-0.23-1.23-0.44-1.92-0.58c0.71,0.2,1.39,0.43,2.08,0.67C83.95,5.21,83.89,5.18,83.87,5.16
				z"/>
			<polygon class="st0" points="90.17,12.34 90.19,12.35 90.16,12.34 			"/>
			<path class="st0" d="M89.02,9.09c0.28,0.22,0.56,0.43,0.64,0.36l-0.28-0.22c0.07-0.14-1.28-0.66-2.06-0.99L89.02,9.09z"/>
			<path class="st0" d="M80.2,4.07c0.11,0-0.11-0.26-0.8-0.46C79.4,3.7,79.83,3.95,80.2,4.07z"/>
			<path class="st0" d="M83.32,8c-0.07,0.01,0.3,0.33,0.94,0.53C84.18,8.42,83.67,8.13,83.32,8z"/>
			<path class="st0" d="M70.51,2.2c0.64,0.03,1.27,0.09,1.9,0.18C71.06,1.88,70.51,1.94,70.51,2.2z"/>
			<path class="st0" d="M31.4,141.06c1.48,1.5,1.49,1.36,2.02,1.69c-0.69-0.63-1.32-1.32-1.99-1.98L31.4,141.06z"/>
			<path class="st0" d="M23.11,130.83c0.52,1.07-1.48-1.48-1.06-0.62c1.03,1.49,1.48,1.47,1.37,1.04L23.11,130.83z"/>
			<path class="st0" d="M28.75,138.6c-0.09-0.05-0.05,0.28,0.44,0.82C29.24,139.34,29.01,138.9,28.75,138.6z"/>
			<path class="st0" d="M54.92,159.69c0.29,0.24,1.01,0.71,1.31,0.85C56.2,160.47,55.4,159.87,54.92,159.69z"/>
			<path class="st0" d="M94.84,13.05c1.02,0.5,2.06,0.97,3.04,1.53l-0.36,0.18c2.67,2.07-2.3-0.84-1.96-0.06
				c0.54,0.43,1.08,1.04,1.61,1.66c0.98,0.65-0.05,0.42,1.46,1.32c0.45,0.2,0.9,0.4,1.34,0.63l-0.15-0.15l-0.43-0.23
				c0.11,0.03,0.22,0.08,0.33,0.12c-0.46-0.46-0.84-0.83-0.75-0.9c0.08-0.06,0.63,0.17,1.92,1.06c0.49,0.49-0.98-0.48-0.67-0.09
				c0.16,0.1,0.28,0.19,0.39,0.26l0.2,0.08c-0.02,0-0.01,0.03,0,0.04c0.26,0.15,0.41,0.2,0.53,0.23l0,0.01
				c0.08,0.11,0.25,0.27,0.4,0.43c-0.1-0.04-0.15-0.03-0.19-0.03c0.19,0.15,0.25,0.22-0.04,0.09c0.06,0.13,0.28,0.38,0.64,0.7
				l-0.41-0.26l-0.05-0.02c-0.05-0.04-0.09-0.09-0.13-0.12c-0.23-0.22-0.41-0.41-0.59-0.6l-0.08-0.06c0.03,0.15,0.11,0.33,0.21,0.52
				l-0.45-0.2l-0.58-0.36l-0.37,0.03l0.99,0.62l0.32-0.1c0.04,0.02,0.08,0.04,0.12,0.06l0.15,0.29c0.23,0.23,0.49,0.47,0.76,0.72
				l-0.63-0.32l0.59,0.5l0.38,0.13c0.2,0.18,0.39,0.37,0.57,0.55c0.21,0.2,0.44,0.43,0.68,0.65c-0.06-0.07-0.14-0.15-0.18-0.21
				l0.26-0.03c1.02,0.74,2.33,1.88,1.55,1.61c-0.38-0.22-0.73-0.5-1.04-0.77c0.23,0.33,0.53,0.69,1.16,1.24
				c0.15,0.06,0.29,0.15,0.42,0.24c0.15,0.19,0.36,0.48,0.41,0.55c0.08,0.11,0.21,0.28,0.36,0.46c0.24,0.06,0.63,0.26,1.01,0.59
				l0.21,0.04l-0.72-0.6l-0.05,0.06l-0.46-0.48l0.64,0.48c0.29,0.1,0.18-0.14,0.83,0.28c0.62,0.51,1.02,0.57,1.45,1.07
				c1.2,0.94-0.24,0.05,0.33,0.61l-0.49-0.44c-3.07-2.73-1.19-0.58-0.7-0.35l-0.13,0c-0.27-0.27-0.94-0.72-0.88-0.57l0.72,0.67
				c0.14-0.01,0.75,0.5,1.09,0.76c0.43,0.5,1.19,1,1.75,1.57l0.13,0.07c0.19,0.18,0.37,0.38,0.55,0.58
				c-0.39-0.41-0.66-0.46-0.85-0.48c-0.67-0.59-0.45-0.68-1.23-1.29c-0.34-0.05-0.21,0.09,0.3,0.64l-0.82-0.7l-0.33-0.47
				c-0.75-0.37-0.96-0.82-1.44-1.27l-0.03-0.18l-0.53-0.46l-0.16,0.04l-0.07-0.04l0.13,0.15c0.14,0.15,0.86,0.78,1.03,0.95
				c0.28,0.28,0.4,0.5,0.7,0.82c0.16,0.15,0.91,0.88,1.06,1.02c0.15,0.14,0.9,0.85,1.09,1.02c0.19,0.18,0.66,0.76,0.79,0.92
				c0.1,0.14,0.65,0.79,0.84,0.98c0.35,0.36,0.77,0.72,1.11,1.08c0.26,0.27,0.62,0.73,0.9,1.05c0.33,0.36,0.77,0.77,1.11,1.12
				c0.33,0.36,0.79,0.75,1.12,1.11c0.33,0.37,0.58,0.75,0.92,1.13c0.34,0.38,0.76,0.75,1.1,1.13c0.34,0.38,0.63,0.76,0.96,1.17
				c-0.03-0.06-1.09-1.14-1.09-1.14s0.95,1.12,0.99,1.19c0.23,0.27,0.9,0.97,1.08,1.16l1.06,1.13c0.17,0.17,0.82,0.88,0.95,1.05
				c0.16,0.22,0.71,0.95,0.84,1.11c0.06,0.08,0.81,1.07,0.84,1.11c0.31,0.37,0.62,0.74,0.88,1.04c0.21,0.25,0.75,0.93,0.87,1.05
				c0.03,0.03-0.17-0.25-0.38-0.54c-0.21-0.29-0.42-0.6-0.42-0.6s0.24,0.28,0.46,0.56c0.61,0.9,1.25,1.78,1.82,2.71
				c0.58,0.88,0.78,1.05,0.9,1.06c0.03,0.04,0.06,0.08,0.09,0.12c0.1,0.16,0.7,1.09,0.76,1.17c-0.06-0.08-0.82-1.06-0.83-1.08
				c0,0,0.2,0.31,0.4,0.62c0.2,0.3,0.39,0.59,0.36,0.56c-0.08-0.09-0.65-0.85-0.83-1.08c-0.06-0.08-0.26-0.35-0.46-0.6
				c-0.19-0.25-0.37-0.48-0.37-0.48s0.17,0.28,0.36,0.56c0.19,0.28,0.38,0.57,0.4,0.61c0.56,0.71,1.1,1.44,1.62,2.19l0.79,1.11
				l0.79,1.11c0.07,0.1,0.17,0.25,0.27,0.4c0.05,0.2,0.09,0.39,0.13,0.55c0.23,0.27,0.44,0.49,0.63,0.69
				c0.15,0.28,0.32,0.58,0.39,0.72c0.23,0.39,0.51,0.75,0.74,1.14c0.23,0.47,0.39,0.78,0.63,1.25c0.12,0.25,0.49,0.97,0.63,1.25
				c0.18,0.34,0.54,0.83,0.7,1.17c0.13,0.28,0.48,1.07,0.58,1.27c0.11,0.24,0.56,1.19,0.58,1.27c0.01,0.04-0.15-0.26-0.32-0.57
				c-0.17-0.31-0.34-0.62-0.34-0.62s0.13,0.3,0.27,0.6s0.29,0.62,0.3,0.66c0.2,0.41,0.38,0.86,0.56,1.28
				c0.08,0.17,0.56,1.1,0.62,1.21c-0.03-0.08-0.53-1.28-0.53-1.29c0,0,0.17,0.32,0.33,0.64c0.16,0.32,0.31,0.62,0.29,0.57
				c-0.07-0.17-0.4-0.98-0.53-1.29c-0.17-0.43-0.38-0.85-0.57-1.28c0.23,0.46,0.44,0.72,0.65,1.2c0.14,0.3,0.39,0.98,0.53,1.29
				c0.15,0.34,0.46,0.86,0.62,1.21c0.11,0.22,0.46,1.12,0.51,1.3c0.09,0.24,0.47,1.24,0.48,1.31c0.01,0.04-0.13-0.27-0.27-0.59
				c-0.14-0.32-0.3-0.64-0.3-0.64s0.45,1.21,0.48,1.31c0.09,0.2,0.5,1.08,0.57,1.23c0.19,0.38,0.41,0.94,0.55,1.24
				c0.1,0.23,0.48,1.18,0.52,1.25c0.02,0.03-0.09-0.3-0.21-0.64c-0.11-0.34-0.23-0.69-0.23-0.69s0.48,1.14,0.52,1.25
				c0.05,0.16,0.39,1.18,0.43,1.32c0.15,0.44,0.27,0.89,0.4,1.34c0.11,0.39,0.25,0.87,0.38,1.34c0.05,0.14,0.4,1.08,0.48,1.28
				c0.08,0.18,0.29,1.19,0.34,1.35c0.04,0.16,0.28,1.15,0.33,1.35c0.09,0.27,0.36,1.09,0.43,1.29c0.11,0.38,0.24,0.84,0.37,1.3
				c0.08,0.29,0.29,0.98,0.37,1.3c0.11,0.45,0.17,0.91,0.27,1.36c0-0.07-0.37-1.3-0.37-1.3s0.25,1.24,0.26,1.37
				c0.04,0.16,0.28,1.16,0.32,1.31c0.05,0.2,0.26,1.06,0.32,1.31c0.09,0.44,0.14,0.93,0.2,1.37c0.07,0.44,0.09,0.94,0.16,1.38
				c0.05,0.36,0.2,0.94,0.26,1.32c0.08,0.45,0.08,0.93,0.13,1.38c0.03,0.34,0.16,0.97,0.21,1.33c0.01,0.19,0.09,1.21,0.1,1.38
				c0.03,0.22,0.03,1.1,0.05,1.38c0.02,0.22,0.13,1.15,0.15,1.33c0.02,0.2,0.13,1.08,0.15,1.34c0.01,0.44-0.03,0.95-0.03,1.38
				c0,0,0.07,1.15,0.09,1.34c0,0.06-0.02,1.24-0.04,1.38c-0.01,0.39,0.03,0.97,0.02,1.34c0.01,0.46,0.02,0.96,0.02,1.34
				c0.01,0.21,0.02,1.08-0.01,1.34c-0.03,0.37-0.13,1.01-0.16,1.37c0-0.12,0.04-1.33,0.04-1.34c0,0-0.14,1.27-0.16,1.37
				c-0.01,0.22-0.03,1.17-0.04,1.34c-0.01,0.39-0.06,0.86-0.1,1.33c-0.03,0.3-0.07,1-0.11,1.34c-0.06,0.45-0.15,0.9-0.23,1.35
				c-0.11,0.5-0.19,0.85-0.29,1.33c0,0-0.03,0.29-0.08,0.6c-0.04,0.31-0.09,0.64-0.1,0.72c0,0.08-0.15,1.17-0.2,1.32
				c-0.08,0.27-0.3,1.09-0.36,1.32c-0.08,0.42-0.18,0.99-0.24,1.31c-0.17,0.87-0.41,1.72-0.61,2.58c-0.04,0.05-0.41,1.34-0.44,1.29
				c0-0.02-0.12,0.3-0.25,0.62c-0.12,0.32-0.26,0.65-0.26,0.65s0.08-0.29,0.18-0.6c0.1-0.3,0.2-0.62,0.2-0.66
				c0.01-0.04,0.1-0.36,0.18-0.67c0.08-0.31,0.15-0.61,0.15-0.61s-0.1,0.28-0.2,0.58c-0.09,0.3-0.21,0.62-0.24,0.7
				c-0.02,0.06-0.34,1.13-0.38,1.26c-0.15,0.42-0.35,0.84-0.5,1.26c-0.14,0.43-0.26,0.83-0.43,1.24c-0.17,0.41-0.4,0.82-0.57,1.22
				c-0.36,0.83-0.79,1.61-1.21,2.4c-0.17,0.39-0.35,0.81-0.52,1.2c-0.03,0.08-0.17,0.38-0.31,0.65c-0.14,0.27-0.26,0.52-0.26,0.52
				s0.19-0.3,0.36-0.59c0.18-0.29,0.32-0.59,0.32-0.56c-0.01,0.05,0.6-1.15,0.64-1.19c-0.01,0.02-0.46,1.06-0.52,1.21
				c-0.16,0.41-0.38,0.79-0.57,1.18l-0.71,1.15c-0.17,0.27-0.48,0.79-0.72,1.13c-0.12,0.2-0.52,0.89-0.66,1.13
				c-0.17,0.25-0.61,0.87-0.77,1.1c-0.3,0.38-0.58,0.72-0.83,1.05c-0.14,0.17-0.65,0.8-0.83,1.04c-0.09,0.15-0.68,0.94-0.76,1.05
				c-0.19,0.25-0.54,0.71-0.79,1.04c-0.13,0.16-0.73,0.8-0.91,0.97c-0.24,0.25-0.59,0.71-0.85,0.98c-0.21,0.22-0.77,0.74-0.96,0.93
				c-0.28,0.27-0.7,0.71-0.9,0.92c-0.28,0.29-0.58,0.59-0.9,0.93c-0.24,0.26-0.64,0.61-0.95,0.88c-0.27,0.22-0.78,0.57-1.06,0.81
				c-0.33,0.29-0.64,0.58-0.99,0.83c-0.25,0.17-0.88,0.59-1.11,0.74c-0.2,0.12-0.8,0.55-1.12,0.71c-0.16,0.09-1.15,0.66-1.15,0.66
				c0.01-0.01,1-0.7,1.06-0.74c-0.3,0.17-0.79,0.45-1.15,0.66c-0.18,0.1-0.93,0.55-1.15,0.65c-0.28,0.15-0.86,0.53-1.1,0.67
				c0.11-0.05,1.02-0.51,1.19-0.59l-1.11,0.67l-1.11,0.67c-0.16,0.1-0.91,0.49-1.14,0.61c-0.19,0.08-1.07,0.45-1.23,0.52
				c-0.37,0.17-0.8,0.3-1.25,0.47c-0.34,0.12-0.87,0.29-1.26,0.44c-0.32,0.13-0.84,0.4-1.2,0.5c-0.42,0.14-0.86,0.22-1.28,0.36
				c-0.19,0.06-1.06,0.42-1.22,0.45c-0.37,0.11-0.8,0.25-1.24,0.39c-0.28,0.09-0.94,0.29-1.25,0.39c-0.43,0.11-0.88,0.13-1.32,0.22
				c-0.28,0.04-1.12,0.18-1.33,0.21c-0.21,0.05-1.05,0.13-1.33,0.16c-0.19,0.03-1.14,0.21-1.29,0.24c-0.18,0.03-1.06,0.22-1.3,0.22
				c-0.23,0.01-1.16,0.05-1.35,0.06c-0.16,0.01-1.16,0.05-1.35,0.06c-0.3,0.02-1.07,0.08-1.31,0.1c-0.2,0.01-1.06,0.07-1.32,0.09
				c-0.37,0.02-1.01-0.04-1.35-0.06c-0.52-0.01-0.81,0.03-1.33,0.02c-0.36-0.01-0.98-0.08-1.35-0.1c-0.28-0.02-1.09-0.04-1.32-0.06
				c0.03,0,1.34,0.17,1.35,0.17c-0.03,0-1.17-0.05-1.33-0.06l-1.33-0.05c-0.1-0.01-1.35-0.18-1.35-0.21c0,0,0.36,0.03,0.7,0.07
				c0.35,0.02,0.68,0.03,0.63,0.03c-0.17-0.02-1.02-0.14-1.35-0.21l-1.35-0.24c-0.25-0.05-1.01-0.18-1.34-0.24
				c-0.15-0.02-1.18-0.18-1.32-0.2l-1.32-0.2c-0.34-0.04-0.9-0.12-1.32-0.23c-0.22-0.06-1.06-0.31-1.32-0.38
				c-0.42-0.1-0.91-0.16-1.31-0.26c-0.48-0.12-0.84-0.3-1.31-0.44c-0.35-0.11-0.94-0.22-1.3-0.33c-0.44-0.14-0.87-0.3-1.3-0.46
				c0.08,0.05,1.3,0.34,1.3,0.34s-1.23-0.41-1.3-0.46c-0.44-0.15-0.85-0.24-1.29-0.39c-0.43-0.15-0.86-0.36-1.29-0.51
				c-0.43-0.15-0.86-0.24-1.28-0.42c-0.43-0.18-0.83-0.4-1.26-0.58c-0.39-0.16-0.87-0.3-1.27-0.46c-0.27-0.09-1.02-0.51-1.24-0.61
				c-0.4-0.16-0.95-0.39-1.25-0.52l-1.25-0.52c-0.27-0.1-0.88-0.39-1.23-0.56c-0.26-0.15-0.92-0.52-1.21-0.69
				c-0.34-0.18-0.91-0.4-1.23-0.57c-0.47-0.25-0.73-0.48-1.19-0.74c0.03,0.01,0.33,0.17,0.62,0.33c0.29,0.16,0.58,0.3,0.58,0.3
				s-0.28-0.17-0.57-0.35c-0.29-0.18-0.58-0.37-0.61-0.38c-0.27-0.14-1.01-0.53-1.21-0.63c-0.35-0.18-0.77-0.4-1.2-0.63
				c-0.26-0.15-0.89-0.5-1.18-0.68c-0.23-0.16-0.95-0.66-1.15-0.8c-0.08-0.05-0.36-0.25-0.63-0.43c-0.27-0.18-0.52-0.37-0.52-0.37
				s1.09,0.65,1.17,0.69c0.04,0.02,0.33,0.19,0.62,0.36s0.56,0.32,0.56,0.32s-1.07-0.74-1.14-0.79c-0.2-0.11-1.02-0.6-1.18-0.69
				c-0.35-0.23-0.73-0.47-1.15-0.73c-0.31-0.2-0.79-0.49-1.15-0.73c-0.3-0.21-0.8-0.61-1.11-0.85c-0.27-0.2-0.87-0.6-1.12-0.78
				l1.08,0.89c-0.01-0.01-0.98-0.68-1.12-0.78c-0.07-0.06-0.95-0.78-1.08-0.89c-0.29-0.23-0.82-0.54-1.12-0.8
				c-0.19-0.17-0.89-0.8-1.04-0.94c0.04,0.03,1.07,0.82,1.09,0.83c-0.02-0.02-0.92-0.83-1.05-0.94c-0.14-0.13-0.86-0.77-1.04-0.93
				c-0.2-0.16-0.94-0.71-1.07-0.84l-1.06-0.87c-0.3-0.25-0.68-0.56-1.05-0.87c-0.12-0.09-0.84-0.83-0.99-0.99
				c-0.15-0.13-0.9-0.81-1.02-0.91L39.4,137c-0.66-0.66-1.25-1.4-1.88-2.09l0.98,0.95c0.24,0.24,0.68,0.64,1,0.93
				c0.17,0.18,0.76,0.8,0.97,1.01c0.33,0.32,0.68,0.59,1.02,0.91l-1.94-2.03c-0.34-0.3-0.67-0.61-1-0.93l-0.98-0.95
				c-0.3-0.29-0.64-0.61-0.99-0.95c-0.11-0.09-0.77-0.91-0.9-1.07c-0.22-0.25-0.74-0.76-0.95-0.99c-0.34-0.35-0.67-0.7-0.95-0.99
				c-0.14-0.13-0.76-0.81-0.92-1.01c-0.14-0.19-0.74-0.98-0.85-1.13c-0.06-0.08-0.82-1.08-0.85-1.12c-0.32-0.36-0.62-0.75-0.88-1.05
				c-0.27-0.33-0.66-0.8-0.87-1.06c-0.16-0.19-0.81-1-0.88-1.06c-0.03-0.02,0.18,0.26,0.39,0.56c0.21,0.29,0.42,0.6,0.42,0.6
				s-0.21-0.24-0.42-0.5c-0.21-0.26-0.43-0.53-0.46-0.56c-0.15-0.21-0.68-1-0.78-1.18c-0.09-0.17-0.72-1.08-0.77-1.19
				c-0.02-0.04,0.19,0.24,0.4,0.52c0.21,0.28,0.43,0.57,0.43,0.57s-0.16-0.26-0.34-0.53c-0.18-0.27-0.37-0.57-0.42-0.65
				c-0.18-0.28-0.53-0.82-0.77-1.18l-1.45-2.42l-0.79-1.12c-0.1-0.16-0.62-0.94-0.75-1.15c-0.12-0.21-0.58-1.07-0.68-1.24
				c-0.05-0.1-0.63-1.16-0.67-1.23c-0.24-0.39-0.52-0.87-0.71-1.17c-0.19-0.31-0.6-0.98-0.71-1.18c0.04,0.08,0.62,1.23,0.63,1.26
				c-0.01-0.02-0.63-1.04-0.71-1.17c-0.23-0.39-0.48-0.78-0.71-1.18c-0.19-0.42-0.39-0.86-0.59-1.29c-0.08-0.18-0.58-1.28-0.58-1.28
				c0.01,0.01,0.64,1.14,0.67,1.2c-0.1-0.21-0.45-0.99-0.59-1.28c-0.16-0.33-0.5-0.85-0.66-1.2c-0.1-0.23-0.46-1.12-0.54-1.3
				c-0.21-0.41-0.45-0.89-0.62-1.22c-0.16-0.3-0.53-1.08-0.61-1.23c-0.06-0.08,0.52,1.31,0.52,1.31s-0.15-0.28-0.3-0.58
				c-0.14-0.3-0.29-0.61-0.31-0.65c-0.17-0.45-0.32-0.87-0.49-1.33c-0.16-0.44-0.33-0.89-0.49-1.32c-0.17-0.44-0.32-0.88-0.46-1.33
				c-0.13-0.41-0.33-1.03-0.44-1.34c-0.08-0.25-0.42-1.24-0.44-1.34c-0.01-0.04,0.12,0.28,0.25,0.6c0.13,0.33,0.27,0.66,0.27,0.66
				s-0.09-0.29-0.19-0.6c-0.1-0.31-0.21-0.64-0.24-0.73c0.01,0.07-0.48-1.24-0.49-1.27c-0.02-0.04-0.14-0.36-0.25-0.67
				c-0.11-0.31-0.23-0.61-0.23-0.61s0.1,0.35,0.2,0.69c0.1,0.34,0.2,0.68,0.19,0.66c-0.03-0.03-0.43-1.2-0.48-1.28
				c-0.02-0.03,0.08,0.3,0.18,0.65c0.1,0.34,0.2,0.7,0.2,0.7s-0.12-0.3-0.23-0.61c-0.11-0.31-0.23-0.64-0.25-0.67
				c-0.26-0.9-0.52-1.8-0.73-2.72l-0.33-1.37c-0.05-0.2-0.27-1.11-0.33-1.36c-0.06-0.22-0.33-1.14-0.38-1.31
				c-0.12-0.41-0.28-0.99-0.38-1.31c-0.07-0.25-0.35-1.23-0.37-1.32c-0.03-0.18-0.17-1.05-0.22-1.39c-0.07-0.44-0.14-0.89-0.22-1.39
				c-0.02-0.11-0.29-1.15-0.3-1.33c-0.03-0.26-0.14-1.18-0.16-1.39c-0.03-0.26-0.12-1.06-0.16-1.39c-0.04-0.18-0.22-1.19-0.23-1.34
				l-0.21-1.35c-0.05-0.3-0.15-0.94-0.21-1.35c-0.03-0.11-0.05-1.27-0.05-1.39c-0.01-0.2-0.03-1.14-0.04-1.4
				c-0.03-0.23-0.13-1.17-0.15-1.35c-0.03-0.4-0.06-0.87-0.09-1.35c-0.01-0.3-0.08-1.02-0.09-1.36c0-0.46,0.02-0.93,0.04-1.4
				c0.02-0.25,0.08-1.19,0.09-1.39c0.02-0.25,0.07-1.06,0.09-1.39c-0.01-0.18,0-1.19,0.01-1.35c0.01-0.21,0.03-1.09,0.04-1.35
				c0.03-0.24,0.13-1.2,0.16-1.38c0,0.05-0.04,1.34-0.04,1.35c0,0,0.15-1.29,0.16-1.38c0.02-0.24,0.09-1.16,0.1-1.34
				c0.03-0.36,0.07-0.89,0.11-1.35c0.02-0.18,0.18-1.13,0.23-1.36c0.03-0.19,0.16-1.17,0.18-1.33c0.03-0.21,0.14-1.06,0.18-1.34
				c0.06-0.39,0.22-0.96,0.32-1.35c0.08-0.35,0.16-0.95,0.25-1.32c0.1-0.43,0.26-0.92,0.36-1.33c0.11-0.51,0.28-0.81,0.42-1.31
				c0.1-0.35,0.21-0.94,0.32-1.3c0.13-0.44,0.29-0.87,0.45-1.3c0.06-0.2,0.34-1.12,0.39-1.28c0.05-0.18,0.32-1.05,0.39-1.28
				c0.06-0.23,0.46-1.09,0.55-1.26c0.05-0.11,0.53-1.14,0.57-1.24c0.15-0.36,0.35-0.99,0.47-1.25l1.06-2.45
				c0.13-0.27,0.55-0.97,0.69-1.18c0.05-0.07,0.22-0.36,0.39-0.64c0.16-0.27,0.33-0.53,0.33-0.53s-0.13,0.28-0.28,0.56
				c-0.15,0.29-0.3,0.58-0.31,0.62c-0.03,0.08-0.62,1.18-0.58,1.19c0,0,0.6-1.03,0.69-1.17c0.04-0.08,0.59-1.16,0.6-1.18
				c0.22-0.39,0.48-0.78,0.74-1.14c0.24-0.37,0.43-0.77,0.67-1.14c0.26-0.44,0.41-0.7,0.66-1.14c0.21-0.29,0.63-0.76,0.85-1.06
				c0.27-0.36,0.47-0.73,0.73-1.1c0.21-0.31,0.64-0.72,0.89-1.03c0.28-0.34,0.51-0.7,0.8-1.05c0.28-0.34,0.61-0.67,0.93-0.98
				c0.12-0.14,0.76-0.88,0.86-1c0.24-0.28,0.71-0.82,0.86-1c0.01-0.04-0.9,0.88-0.97,0.94c-0.07,0.07-0.31,0.3-0.53,0.53
				c-0.22,0.22-0.44,0.43-0.44,0.43s0.2-0.24,0.41-0.48c0.21-0.24,0.43-0.49,0.45-0.52l0.97-0.95l1.03-0.89
				c0.35-0.3,0.68-0.59,1.02-0.89c0.15-0.15,0.88-0.66,1.07-0.83c0.35-0.29,0.63-0.59,0.98-0.88c-0.06,0.05-1.08,0.82-1.08,0.82
				c0.01-0.01,0.86-0.77,0.98-0.89c0.07-0.09,0.95-0.69,1.11-0.78c0.15-0.12,0.91-0.72,1.03-0.82c0.22-0.17,0.73-0.61,1.05-0.8
				c0.26-0.15,0.89-0.51,1.18-0.68c0.38-0.24,0.71-0.52,1.09-0.75c0.39-0.22,0.74-0.47,1.13-0.69c0.21-0.11,1.06-0.53,1.22-0.61
				c0.4-0.23,0.85-0.45,1.17-0.63l1-0.52c0.54-0.23,1.11-0.51,1.45-0.7c0.36-0.16,0.73-0.33,1.14-0.51c0.03-0.01,0.14-0.05,0.27-0.1
				c0.08-0.01,0.16-0.01,0.21-0.02l0.23-0.14c0.26-0.1,0.52-0.15,0.6-0.18c0.04-0.02,0.12-0.04,0.17-0.06l0.92-0.22
				c0.14-0.08,0.15-0.13,0.1-0.17c0.02-0.01,0.04-0.02,0.06-0.02c0.36-0.14,0.73-0.27,1.05-0.4c0.06,0,0.12,0.01,0.14,0.03
				l1.11-0.28c0.35-0.15,0.6-0.28,0.9-0.42c0.22-0.07,0.43-0.14,0.62-0.19c0.02-0.01-0.14,0.03-0.37,0.08
				c0.05-0.02,0.09-0.04,0.14-0.06c0.25-0.06,0.49-0.14,0.74-0.19l0.04,0.13c0.8,0.02,1.45-0.16,2.06-0.34
				c0.06-0.01,0.14-0.03,0.17-0.03c0.2-0.05,1.23-0.19,1.49-0.22l0.01,0c0.1,0.01,0.19,0.01,0.29,0.04
				c0.31-0.08,0.42-0.14,0.44-0.19c0.31-0.07,0.6-0.14,0.6-0.14c-0.01,0-0.31,0.04-0.62,0.09c-0.03-0.02-0.05-0.03-0.1-0.05
				c0.24-0.05,0.47-0.1,0.54-0.12c-0.2,0.04-0.42,0.06-0.64,0.09L51.8,7.55c0.54-0.1,1.08-0.2,1.61-0.29l-0.02,0.09
				c-0.28,0.06-0.58,0.13-0.73,0.17c0.23-0.03,0.47-0.07,0.71-0.11l-0.03,0.11c0.96-0.17,2.21-0.08,2.47-0.39
				c0.03-0.01,0.06-0.01,0.09-0.02c0.86-0.03,1.73,0,2.59,0.05c0.03-0.1,0.59-0.17,1.44-0.21c-0.33-0.09-1.3,0.03-1.13,0.08
				l-1.04-0.06l0.56-0.17c0.34-0.03,0.68-0.06,1-0.08c0.52,0,1.03-0.01,1.55,0.04l1.03,0.28c0.25-0.3,1.98-0.09,3.42,0.06l0.23-0.19
				l0.98,0.21l0.55-0.07c-0.56,0.01-0.4-0.15-0.25-0.15c0.24,0.09,0.47,0.19,0.71,0.3l1.62,0.1l-0.23-0.1l0.85,0.04
				c0.52,0.1,1.33,0.33,1.58,0.23l-0.77-0.39c1.24,0.27,2.18,0.52,2.86,0.81c1.71,0.23-0.4-0.32,0.29-0.32
				c0.72,0.12,1.1,0.44,1.95,0.55L74.7,7.61c-0.4-0.06-0.8-0.08-1.2-0.11l0.02-0.28c0.66,0.14,1.31,0.35,1.96,0.54l0.67,0.39
				c0.5,0.11,1.57,0.34,1.91,0.33l1.9,0.48c0.84,0.17,0.12-0.23-0.31-0.38l0.27-0.07l1.01,0.46c1.13,0.23,1.96,0.48,2.37,0.44
				c0.48-0.1,1.98,0.61,2.38,0.62c-0.34-0.23-0.7-0.43-1.06-0.64c0.42-0.03,1.13,0.16,2.17,0.59c-0.14-0.24,0.42-0.2,0.77-0.19
				c-1.74-0.74-4.02-1.15-5.16-1.7c0.06-0.07,0.2-0.26-0.88-0.59l0.14-0.04c0.5-0.01,1.57,0.39,2.07,0.67l0.49-0.04
				c0.64,0.2,1.5,0.54,1.3,0.65l0.13-0.16c0.38,0.14,0.75,0.31,1.13,0.47l-0.07,0.27l1.41,0.43l-0.92-0.58l1.27,0.45l-0.14-0.24
				l-2.4-0.87l0.14-0.22c-2.22-1.12,0.94-0.02,1.19-0.16c-1.19-0.47-2.38-0.9-3.59-1.31c0.51,0.05,1.64,0.29,2.67,0.58
				c-0.24-0.17-0.5-0.34-0.75-0.52c-0.88-0.36-0.16-0.36-1.48-0.83L83.04,5.8c1.12,0.64,2.07,1.24-0.48,0.3
				c-0.52-0.29,0.8,0.17,0.42-0.09c-1.25-0.46-0.72-0.03-1.54-0.31l-0.09-0.18c0.81,0.13,0.35-0.15-0.41-0.5l0.37,0.11l0.88,0.12
				l0.52,0.14l0.2-0.11c-0.29-0.1-0.59-0.17-0.89-0.26l-0.13,0.16c-0.88-0.12-1.65-0.6-1.89-0.74l1.26,0.23l-0.61-0.25L79.94,4.4
				c-1.37-0.62-1.36-0.91-2.99-1.47c-0.73,0.02-1.68-0.47-2.27-0.73c-0.85-0.15-1.77-0.42-2.68-0.68c-0.91-0.25-1.82-0.42-2.63-0.49
				l0.22,0.26c-1.96-0.28-2.42-0.75-3.35-0.97c-1.36,0.37,1.56,0.45,2.43,0.92c-0.72-0.07-1.44-0.09-2.17-0.11L66.5,1.09
				c0.51-0.09-0.7-0.25-1.51-0.37c1.06-0.07,0.27-0.35-0.48-0.5c-0.28,0.01-0.56,0.02-0.84,0.05l-0.24-0.02
				c-1.06,0.11,1.57,0.43,0.65,0.69c-0.55-0.22-1.68-0.29-2.52-0.43c2.07-0.13-0.79-0.43-1.89-0.52c-1.19,0.08-2.36-0.02-3.53,0.02
				c-1.16,0.05-2.33,0.09-3.48,0.41c-1.25,0.15-2.5,0.24-3.75,0.44c-1.76,0.32-0.77,0.36-1.19,0.56c-0.08,0.01-0.17,0.03-0.2,0.03
				c-0.08,0.02-0.24,0.05-0.41,0.09c-0.13-0.06-0.5,0.02-0.98-0.01c-0.64,0.15-1.56,0.42-1.09,0.42c0.43-0.08,0.29,0.04,0.14,0.16
				c-0.29,0.06-0.57,0.12-0.65,0.14c-0.06,0.01-0.18,0.04-0.31,0.07c-0.79,0.09-1.52,0.09-2.01,0.14c-0.62,0.33-0.94,0.57-1.51,0.87
				c-0.19,0.05-0.38,0.11-0.61,0.17c-0.24,0.08-0.58,0.19-0.9,0.34c-0.43,0.07-0.95,0.19-1.93,0.63c-0.09,0.06-0.1,0.09-0.06,0.11
				c-0.5,0.19-1.06,0.36-1.45,0.54c-0.19,0.08-1.19,0.5-1.43,0.6c-0.27,0.13-1.16,0.59-1.37,0.7c-0.2,0.12-1.08,0.63-1.33,0.78
				c-0.22,0.11-1.22,0.61-1.39,0.69c-0.47,0.27-0.92,0.61-1.29,0.85c-0.85,0.59-1.73,1.12-2.53,1.78c-0.03,0.02-1.2,0.8-1.29,0.85
				c0.16-0.12,0.93-0.71,1.22-0.94c0.08-0.06,0.39-0.3,0.68-0.52c0.29-0.2,0.56-0.39,0.57-0.39c0,0-0.29,0.16-0.6,0.35
				c-0.3,0.2-0.62,0.41-0.71,0.47l-1.3,0.86c-0.41,0.32-0.82,0.62-1.2,0.97l-1.16,1.02c-0.3,0.26-0.78,0.69-1.15,1.03
				c-0.16,0.14-0.98,0.84-1.18,1.01c-0.3,0.28-0.78,0.79-1.09,1.09c-0.34,0.31-0.81,0.75-1.12,1.07c-0.25,0.28-0.83,0.93-1.02,1.15
				c-0.17,0.16-0.8,0.96-0.98,1.19c-0.35,0.39-0.68,0.76-1.04,1.15c-0.21,0.25-0.87,0.96-1.02,1.16c-0.17,0.22-0.74,0.92-0.97,1.21
				c-0.12,0.17-0.77,1.12-0.87,1.27c-0.12,0.2-0.64,1.07-0.8,1.32c-0.15,0.22-0.77,1.09-0.89,1.27c0.03-0.05,0.79-1.31,0.79-1.32
				c-0.01,0.01-0.8,1.14-0.89,1.26c-0.1,0.12-0.68,1.22-0.74,1.35c-0.47,0.91-0.97,1.81-1.4,2.73c-0.04,0.04-0.74,1.4-0.73,1.35
				c0.01-0.07,0.6-1.29,0.63-1.4c0.01-0.04-0.17,0.3-0.35,0.65c-0.18,0.35-0.38,0.7-0.38,0.7c0.01-0.02,0.59-1.31,0.63-1.4
				c-0.07,0.12-0.61,1.13-0.73,1.36c-0.18,0.37-0.44,1.02-0.63,1.4C6.43,34.26,6.21,34.72,6,35.19l-0.55,1.43
				C5.3,37.02,5,37.78,4.93,38.06c-0.01,0.03-0.5,1.26-0.57,1.43c-0.09,0.22-0.45,1.13-0.57,1.43c-0.1,0.21-0.35,1.29-0.4,1.47
				l-0.38,1.48c-0.12,0.49-0.27,0.98-0.36,1.48l-0.6,2.98c-0.11,0.31-0.3,1.2-0.37,1.48c-0.02,0.09-0.1,0.46-0.18,0.81
				c-0.07,0.35-0.15,0.68-0.15,0.68s0.05-0.35,0.1-0.71c0.06-0.36,0.12-0.74,0.12-0.79c-0.02-0.1,0.26-1.5,0.26-1.5
				c0,0.01-0.09,0.33-0.19,0.67c-0.08,0.35-0.16,0.72-0.18,0.81C1.44,50,1.29,51,1.25,51.28c-0.07,0.37-0.27,1.15-0.33,1.49
				c-0.08,0.45-0.11,1.15-0.15,1.51c-0.02,0.23-0.11,1.23-0.14,1.51c-0.05,0.43-0.21,1.09-0.24,1.5c-0.03,0.58-0.04,0.94-0.07,1.51
				c-0.05,0.4-0.13,1.09-0.18,1.51c-0.04,0.5-0.03,1.01-0.03,1.51C0.1,62.21,0.02,62.94,0,63.34c0,0.22,0.01,1.34,0.01,1.51
				c-0.01,0.2,0.05,1.26,0.06,1.51c-0.01,0.28-0.03,1.29-0.03,1.51C0.03,68.01,0,69.28,0,69.4c0.03,0.46,0.11,1.15,0.14,1.5
				l0.15,1.5c0.05,0.5,0.09,1,0.16,1.5l0.42,2.97c0.01,0.35,0.09,1.2,0.13,1.5c-0.01,0.04-0.23-1.37-0.24-1.48
				c-0.03-0.2-0.21-1.49-0.21-1.49s0.09,1.3,0.1,1.51c0.02,0.38,0.06,1.03,0.13,1.51c0.02,0.1,0.25,1.36,0.28,1.48
				c0.07,0.35,0.19,1.02,0.28,1.48c0.03,0.24,0.15,1.22,0.2,1.5c0.07,0.39,0.26,1.05,0.34,1.46c0.09,0.47,0.15,1.03,0.23,1.49
				c0.08,0.41,0.22,1.17,0.28,1.48c0.07,0.36,0.2,1.02,0.29,1.48c0.07,0.26,0.31,1.14,0.4,1.45c0.13,0.48,0.21,0.98,0.35,1.46
				c0.08,0.26,0.39,1.23,0.45,1.43c0.16,0.48,0.3,0.96,0.46,1.43c0.09,0.24,0.39,1.08,0.51,1.41c0.05,0.18,0.36,1.29,0.4,1.45
				c0.1,0.35,0.26,1,0.42,1.45c0.1,0.25,0.44,1.1,0.56,1.39c0.16,0.44,0.3,1,0.46,1.43c0.1,0.3,0.48,1.16,0.59,1.38
				c0.16,0.37,0.41,0.91,0.61,1.36c0.03,0.07,0.1,0.27,0.18,0.49c0.75,1.64,1.57,3.14,2.07,4.68c0.05,0.13,0.1,0.25,0.14,0.33
				c0.15,0.37,0.51,0.95,0.7,1.32c0.2,0.4,0.42,0.98,0.61,1.37c0.18,0.32,0.58,1.06,0.71,1.31c0.1,0.21,0.61,1.04,0.75,1.29
				c0.24,0.43,0.43,0.92,0.67,1.35c-0.05-0.09-0.76-1.29-0.76-1.29c0.01,0.01,0.6,1.22,0.67,1.35c0.08,0.15,0.21,0.36,0.34,0.57
				l-0.06-1.04c0.44,1.09,0.88,2.22,1.28,3.21c0.25,0.39,0.46,0.72,0.73,1.13c0.2,0.34,0.5,0.96,0.72,1.32
				c0.27,0.43,0.57,0.8,0.85,1.23c0.23,0.36,0.5,0.87,0.73,1.25c0.26,0.33,0.59,0.81,1.07,1.48l0.17,0.28
				c0.2,0.27,0.42,0.56,0.53,0.71c0.23,0.33,0.57,0.92,0.81,1.26c0.11,0.17,0.28,0.38,0.45,0.6c0.5,0.32,1.02,0.61,1.54,0.9
				c0.59,0.96,1.04,1.81,1.48,2.64c0.44,0.82,0.91,1.59,1.47,2.42c0.18,0.21,0.37,0.43,0.51,0.58c0.64,0.76,1.34,1.48,2.02,2.21
				c0.14,0.17,0.3,0.37,0.47,0.58c0.8,0.78,1.68,1.57,2.51,2.33c0.83,0.76,1.57,1.52,2.14,2.21l0.04-0.36
				c1.72,1.88,1.8,2.4,1.84,2.88l0.11,0.1c0.21,0.2,0.83,0.74,1.13,0.99c0.11,0.11,0.97,0.95,1.08,1.06
				c0.26,0.26,0.74,0.72,1.07,1.05c0.19,0.19,0.92,0.74,1.17,0.94c0.14,0.12,0.28,0.25,0.42,0.38l0.14,0.06l0.71,0.71
				c0.32,0.28,0.64,0.6,0.96,0.87c0.38,0.33,0.82,0.58,1.21,0.89c0.39,0.32,0.78,0.65,1.16,0.97c0.25,0.19,0.53,0.39,0.8,0.57
				l-0.08-0.12c-0.32-0.26-0.66-0.55-0.66-0.55s0.26,0.18,0.54,0.38l-0.68-0.98c0.71,0.4,1.49,0.99,2.33,1.6
				c0.83,0.61,1.7,1.26,2.52,1.86c1.65,1.2,3.19,2.13,3.91,2.08c4.49,3.18,10.52,6.58,15.71,8.13c1.91,0.88,3.82,1.81,5.81,2.57
				c0.87,0.02,1.72,0.06,2.58,0.04c2.96,1.87,5.98,1.51,9.1,2.1l1.41,0.91c3.22,0.57,8.07-0.68,9.26,0.24
				c3.92,0.26,7.65-0.43,11.15-1.28c3.52-0.82,6.82-1.87,10.3-2.51c1.01-0.51,2.01-1.02,2.97-1.62c0.97-0.58,1.94-1.13,2.85-1.78
				c1.84-0.67,3.69-1.52,5.3-2.19c0.33-0.23,0.7-0.53,0.8-0.6c0.27-0.21,0.88-0.68,1.25-0.96l0.85-0.66
				c-0.06-0.07-0.07-0.18,0.05-0.39c3-1.98,5.62-5.38,7.88-7.72c1.86-1.95,2.15-1.88,2.28-1.59c0.14-0.15,0.26-0.31,0.36-0.44
				c0.15-0.18,0.79-0.99,0.98-1.23c0.14-0.2,0.78-1.14,0.89-1.3l0.26-0.43c-0.24-0.22-0.43-0.45,0.84-2.4
				c0.62-0.56,1.24-1.36,1.94-2.24c0.08-0.15,0.14-0.27,0.17-0.32c0.12-0.24,0.56-1.06,0.7-1.39c0.21-0.39,0.52-0.97,0.74-1.37
				c0.14-0.3,0.52-1.17,0.64-1.42c0.24-0.44,0.51-1.07,0.68-1.41c0.14-0.3,0.47-1.02,0.66-1.42c0.14-0.32,0.42-1.1,0.53-1.46
				c0.18-0.49,0.4-0.96,0.58-1.44c0.18-0.49,0.4-0.96,0.58-1.45c0.18-0.47,0.25-1.02,0.41-1.49c-0.03,0.12-0.49,1.46-0.52,1.47
				c0,0,0.02-0.08,0.06-0.2c0.04-0.12,0.09-0.29,0.13-0.47c0.09-0.35,0.19-0.73,0.22-0.82c0.09-0.37,0.26-1.02,0.38-1.49
				c0.07-0.26,0.41-1.16,0.48-1.47c0.08-0.42,0.22-1.11,0.3-1.51c0.14-0.49,0.29-1.06,0.41-1.49c0.15-0.53,0.28-1.05,0.37-1.5
				l0.33-1.5l0.33-1.51c0.1-0.4,0.19-1.01,0.27-1.52c0.01-0.09,0.13-1.4,0.14-1.53c0.02-0.23,0.11-1.24,0.13-1.53
				c0.04-0.31,0.15-1.27,0.18-1.53c0,0.04-0.07,1.53-0.07,1.53s0.05-0.36,0.09-0.73c0.04-0.37,0.08-0.75,0.09-0.8
				c0.04-0.51,0.14-1.02,0.18-1.53c0.02-0.18,0.06-1.44,0.04-1.53c0.01-0.1-0.13,1.5-0.15,1.53c-0.01,0.01,0.01-0.32,0.03-0.69
				c0.02-0.36,0.01-0.75,0.01-0.84c0-0.36,0.01-1.36-0.01-1.53c0-0.05-0.03,0.33-0.05,0.73c-0.02,0.4-0.05,0.8-0.05,0.8
				s-0.01-0.33-0.01-0.69c0-0.36,0-0.74,0-0.84c0-0.32-0.01-1.08-0.01-1.53c0.01-0.51-0.03-1.02-0.05-1.52
				c0-0.01,0.01-0.11,0.01-0.26c0-0.15,0.01-0.35,0.01-0.55c0.01-0.39,0.01-0.77,0.02-0.72c0.02,0.15,0.06,1.18,0.08,1.53
				c0.02,0.36,0.05,1.34,0.05,1.52c0.02,0.09,0.06-1.48,0.06-1.53c0.02-0.08,0.05,1.53,0.05,1.53c0.04,0,0.05-1.43,0.06-1.53
				l-0.08-1.53l-0.08-1.52c-0.03-0.35-0.1-1.06-0.14-1.52c-0.01-0.25-0.03-1.23-0.04-1.53c-0.03-0.4-0.11-1.08-0.16-1.51
				c-0.01-0.2-0.09-1.39-0.1-1.52c0.01,0.09,0.21,1.49,0.21,1.51c0,0-0.1-1.46-0.1-1.52c-0.05-0.38-0.17-1.22-0.21-1.51
				c-0.07-0.5-0.14-1-0.24-1.5l-0.56-2.99c-0.02-0.34-0.17-1.21-0.21-1.51c-0.01-0.09-0.07-0.47-0.13-0.82
				c-0.06-0.35-0.1-0.68-0.1-0.68s0.09,0.39,0.18,0.78c0.08,0.38,0.17,0.75,0.16,0.7c-0.03-0.19-0.18-1.14-0.23-1.51
				c-0.04-0.28-0.18-1.13-0.23-1.51c-0.02-0.18-0.35-1.32-0.39-1.47l-0.4-1.46c-0.1-0.36-0.28-1-0.4-1.46
				c-0.05-0.22-0.28-1.21-0.35-1.48c-0.11-0.39-0.34-1.03-0.46-1.44c-0.14-0.49-0.21-0.99-0.36-1.48c-0.15-0.47-0.36-0.96-0.51-1.42
				c-0.14-0.49-0.27-0.98-0.41-1.47c-0.16-0.48-0.35-0.94-0.53-1.41c-0.14-0.39-0.33-1.07-0.46-1.44c-0.15-0.36-0.46-1.14-0.57-1.4
				c-0.19-0.47-0.38-0.93-0.59-1.39c-0.14-0.32-0.43-0.96-0.62-1.38c-0.09-0.23-0.42-1.15-0.52-1.42c-0.14-0.38-0.47-0.98-0.64-1.36
				c-0.21-0.46-0.37-0.94-0.57-1.41l0.67,1.35c0.2,0.39,0.51,1.07,0.65,1.36c0.04,0.09,0.2,0.44,0.34,0.76
				c0.14,0.32,0.28,0.62,0.28,0.62s-0.47-1.29-0.52-1.42c-0.12-0.34-0.48-1.02-0.65-1.36c-0.22-0.5-0.35-0.91-0.57-1.41
				c-0.1-0.19-0.59-1.19-0.67-1.35c-0.11-0.24-0.54-1.02-0.7-1.34c-0.18-0.35-0.44-1.02-0.62-1.38c-0.18-0.36-0.53-0.95-0.72-1.33
				c-0.22-0.46-0.42-0.91-0.66-1.36c-0.2-0.38-0.56-0.91-0.77-1.3c-0.24-0.44-0.43-0.91-0.67-1.36c-0.24-0.45-0.46-0.9-0.71-1.34
				c-0.2-0.35-0.61-0.94-0.81-1.27l0.72,1.34c-0.01-0.02-0.72-1.12-0.81-1.27c-0.1-0.15-0.7-1.09-0.81-1.27
				c-0.16-0.28-0.64-1.1-0.77-1.31c-0.19-0.32-0.67-1.14-0.77-1.31c-0.02-0.05,0.19,0.26,0.41,0.59s0.45,0.66,0.45,0.66
				s-0.73-1.24-0.77-1.31c-0.18-0.26-0.72-1.04-0.86-1.24l-0.9-1.21l-0.9-1.21l-0.91-1.2c-0.26-0.32-0.62-0.77-0.95-1.17
				c-0.11-0.16-0.71-1.03-0.86-1.24c-0.31-0.4-0.64-0.78-0.95-1.16c-0.32-0.39-0.68-0.75-0.99-1.14c-0.3-0.38-0.61-0.84-0.91-1.21
				c-0.06-0.08-0.89-1.19-0.95-1.24c-0.01-0.02,0.26,0.26,0.51,0.57c0.26,0.3,0.52,0.59,0.52,0.59s-0.76-1.04-0.96-1.24
				c-0.07-0.07-1.03-1.09-1.16-1.23c-0.21-0.24-0.94-1.12-1.12-1.33c-0.22-0.27-0.87-1.01-1.18-1.32c-0.17-0.16-1.06-0.98-1.2-1.11
				c-0.17-0.16-0.99-0.91-1.17-1.08c-0.26-0.25-1.03-0.99-1.26-1.21c-0.39-0.34-0.88-0.73-1.17-0.97c-0.18-0.14-0.9-0.71-1.13-0.89
				c-0.31-0.26-1.01-0.86-1.3-1.11c-0.42-0.35-0.94-0.78-1.31-1.08c-0.1-0.11-1.24-1-1.34-1.05c-0.34-0.23-0.85-0.52-1.08-0.66
				c-0.26-0.16-0.94-0.59-1.03-0.61c-0.19-0.15-0.96-0.69-1.29-0.89c-0.27-0.18-1.01-0.67-1.31-0.85c-0.24-0.14-0.68-0.3-0.91-0.42
				c-0.28-0.15-0.97-0.63-1.25-0.76c-0.35-0.16-0.5-0.15-0.82-0.29c-0.25-0.12-0.96-0.53-1.2-0.63c-0.14-0.06-0.62-0.17-0.7-0.19
				c-0.03-0.01-0.07-0.02-0.11-0.03c-0.14-0.07-0.2-0.07-0.22-0.05c-0.11-0.02-0.22-0.04-0.29-0.06c-0.12-0.04-0.33-0.14-0.54-0.25
				l-0.02-0.02c-1.46-0.79-2.55-1.38-3.18-1.54c-0.78-0.14-2.5-1.41-3.14-1.56l1.14,1.03c-0.64-0.13-1.56-0.58-2.88-1.34
				c0.06,0.28-0.78,0.1-1.31,0c0.83,0.42,1.75,0.89,2.66,1.35c0.9,0.47,1.81,0.89,2.54,1.33c-0.01,0.07-0.01,0.16-0.06,0.2
				c-0.02,0.01-0.15-0.01-0.29-0.04c-0.16-0.17-0.39-0.34-0.73-0.52c0.01,0.08,0.2,0.28,0.44,0.48c-0.01,0-0.02,0-0.02,0
				c-0.05,0-0.02,0.07,0,0.13l-0.75-0.14c-0.8-0.43-1.79-1.08-1.41-1.12l-0.31,0.11l-1.37-0.83l0.29-0.26l-1.87-0.8l1.02,0.83
				l-1.63-0.79L94.84,13.05z M66.46,5.42c-0.03,0.01-0.03,0.03-0.05,0.04c-0.16-0.04-0.4-0.11-0.57-0.15
				c0.04-0.02,0.08-0.05,0.1-0.09c0.09,0,0.17,0,0.32,0l0.53,0.14C66.65,5.39,66.5,5.41,66.46,5.42z M67.63,5.64
				c0.04,0,0.08-0.01,0.1-0.01c0.02,0,0,0.01,0,0.02L67.63,5.64z M67.67,2.19l0.94,0.17l0.76,0.04l-1.09,0.1
				C68.4,2.36,66.4,2.2,67.67,2.19z M70.58,6.15c-0.94-0.07-1.56-0.29-2.17-0.44l-0.01,0c0.08-0.05,0.24-0.13,0.22-0.17
				c0.69,0.16,1.13,0.43,2.17,0.59c-0.4-0.17-0.89-0.45,0.08-0.31C71.97,6.09,71.07,6.15,70.58,6.15z M70.4,4.42
				c0.26,0.07,0.53,0.13,0.79,0.22c-0.47-0.03-0.95-0.04-1.42-0.06C68.98,4.37,70.11,4.41,70.4,4.42z M75.29,4.42
				c-0.18-0.05-0.39-0.1-0.63-0.12l-0.19-0.03l-0.65-0.27c0.56,0.12,1.08,0.22,1.52,0.38C75.27,4.38,75.25,4.39,75.29,4.42z
				 M76.53,6.74c-0.63,0,0.05,0.32,0.57,0.56l-1.29-0.19c0.11-0.24-1.38-0.78-0.47-0.8l1.62,0.5c0.62,0.1,1.25,0.18,1.87,0.32
				l0.09,0.18C78.13,7.07,77.32,6.92,76.53,6.74z M76.99,5.94c0,0,0.92,0.07,1.02,0.1c0.23,0.02,1.11,0.24,1.3,0.29
				c0.18,0.05,1.28,0.33,1.29,0.33c-0.01,0-0.23-0.04-0.49-0.09c-0.26-0.05-0.54-0.1-0.62-0.12c-0.37-0.06-0.7-0.12-1.04-0.18
				c-0.39-0.07-0.84-0.16-1.21-0.21c0.13,0.02,0.79,0.06,0.99,0.09C78.1,6.11,77.04,5.96,76.99,5.94z M81.39,8.45L81.39,8.45
				c-0.2-0.02-0.42-0.05-0.65-0.08c-0.23-0.09-0.51-0.19-0.84-0.29c0.01-0.02,0-0.04-0.05-0.08l-0.16-0.09
				c-0.33-0.02-0.76-0.2-1.04-0.32l-0.01-0.01C79.9,7.73,80.57,8.09,81.39,8.45z M81.35,7.92l-1.67-0.63l0.2-0.06L79.3,6.99
				l1.08,0.32l0-0.06C81.4,7.64,81.34,7.79,81.35,7.92z M78.28,4.37c0.26,0.08,0.52,0.15,0.77,0.25l-0.22,0.22
				C77.71,4.58,77.78,4.38,78.28,4.37z M81.01,5.93L80.9,6.37c-0.55-0.28-1.31-0.43-2.07-0.61c-0.76-0.16-1.53-0.29-2.1-0.62
				c0.45,0.01,1.18,0.09,1.97,0.23C79.48,5.55,80.32,5.75,81.01,5.93z M66.66,1.37c1.51,0.14,1.44,0.5,3.06,0.66
				c0.39-0.23,0.07-0.31-1.22-0.63l1.8,0.25l1,0.36c1.24-0.11,2.1,0.43,3.2,0.73L74.77,3c0.39,0.08,0.77,0.2,1.16,0.32l0.12-0.17
				l0.6,0.09c-0.2,0.14-0.99,0.14-2-0.12l-0.28,0.1c0.52,0.11,1.03,0.24,1.53,0.39l-0.02-0.13l1.09,0.42L75.68,3.6
				c-0.42,0.07-0.01,0.32-1.2,0.19c-1.31-0.29-1.76-0.05-2.86-0.42c-2.42-0.28,0.16-0.28-1.17-0.58c0.36,0.06,0.73,0.11,1.09,0.19
				c6.71,1.6,1.97-0.08,1.15-0.07L72.8,2.8c0.63,0.19,1.92,0.36,1.66,0.17l-1.64-0.45c-0.13,0.12-1.42-0.14-2.12-0.18
				c-1.13-0.29-2.55-0.4-3.92-0.59l-0.22,0.03L65.2,1.57C66.15,1.69,66.48,1.53,66.66,1.37z M62.66,0.96
				c0.77-0.05,1.69,0.13,2.04,0.27l-0.11,0.13C63.57,1.25,62.09,1.13,62.66,0.96z M60.53,0.92c0.29,0.09,0.5,0.15,0.38,0.2
				c-0.23-0.05-0.47-0.1-0.6-0.12c-0.03-0.02-0.05-0.03-0.09-0.05C60.32,0.93,60.43,0.92,60.53,0.92z M54.87,0.79l1.04-0.24
				c1.17-0.18,1.62,0.14,2.87,0.04l-0.02-0.22c0.98,0.02,1.43,0.13,0.84,0.25l-2.17,0.18l0.4,0.1c-0.34-0.01-0.68-0.02-0.82-0.02
				c-0.06-0.01-0.13-0.01-0.2-0.02l-0.84-0.2l-0.5,0.15L54.8,0.81L54.87,0.79z M40.14,148.45l0.34,0.14l0.6,0.68
				C40.74,149.13,40.26,148.58,40.14,148.45z M43.6,149.99l0.46,0.17l0.84,0.89C44.44,150.87,43.77,150.16,43.6,149.99z
				 M48.44,153.52l1.12,0.7l0.49,0.85C49.37,154.51,48.8,154.15,48.44,153.52z M66.36,164.37c0.95,0.2,1.75,1.05,2.95,1.29
				l0.01,0.09C68.35,165.47,66.15,164.59,66.36,164.37z M114.52,27.19c0.13,0.04,0.21,0.08,0.69,0.48l0.06,0.21L114.52,27.19z
				 M116.12,25.66c0.19,0.16,0.28,0.28,0.38,0.39l0.42,0.35c-0.23-0.17,0.27,0.33-0.07,0.05l-0.15-0.2l-0.12-0.07
				c-0.27-0.21-0.24-0.31-0.5-0.55c0.05,0.08,0.1,0.19-0.08,0.03C115.79,25.46,116.01,25.59,116.12,25.66z M113.91,25.91l0.1,0.32
				l-0.77-0.63C113.2,25.44,113.43,25.46,113.91,25.91z M108.28,20.1c0.29,0.14,0.09-0.11-0.07-0.28l0.52,0.34
				c-0.13,0.04,0.36,0.52-0.06,0.33l-0.56-0.49l-0.77-0.46l0.01-0.07C107.66,19.67,107.97,19.88,108.28,20.1z M103.09,20.81
				l2.09,1.28C104.86,22.32,104.25,22.01,103.09,20.81z M103.86,19.11c0.39,0.42,1.41,0.84,1.76,1.31c-0.47-0.2-1.36-0.77-1.98-1.17
				L103.86,19.11z M102.34,20.23c0,0,0.01,0.01,0,0.01c-0.04-0.04-0.11-0.1-0.19-0.17C102.22,20.12,102.28,20.17,102.34,20.23z
				 M98.24,16.13c0.38,0.32,0.34,0.38,0.36,0.52l-0.36-0.17C97.97,16.18,97.77,15.95,98.24,16.13z"/>
		</g>
	</g>
</g>
</svg>
