<?xml version="1.0" encoding="utf-8"?>
<!-- Generator: Adobe Illustrator 24.0.2, SVG Export Plug-In . SVG Version: 6.00 Build 0)  -->
<svg version="1.1" id="Layer_1" xmlns="http://www.w3.org/2000/svg" xmlns:xlink="http://www.w3.org/1999/xlink" x="0px" y="0px"
	 viewBox="0 0 56.04 237.9" style="enable-background:new 0 0 56.04 237.9;" xml:space="preserve">
<style type="text/css">
	.st0{fill:#FFFFFF;}
</style>
<g>
	<path class="st0" d="M27.43,208.59c-0.01,0-0.1-0.53-0.11-0.5c-0.01,0.06-0.08,0.43-0.08,0.51c0,0.09,0.09,0.43,0.11,0.5
		c0.01,0.07,0.09,0.5,0.11,0.5c0.03,0,0.05-0.47,0.08-0.51c0-0.17,0.08-0.34,0.08-0.51c0-0.07-0.09-0.46-0.11-0.5
		C27.5,208.05,27.44,208.59,27.43,208.59z"/>
	<path class="st0" d="M40.34,236.37l-0.07,0.58l0.52-0.01C40.96,236.58,40.6,236.36,40.34,236.37z"/>
	<path class="st0" d="M39.15,237.22l-0.13,0.59l0.34-0.01C39.35,237.4,39.3,237.34,39.15,237.22z"/>
	<path class="st0" d="M33.23,235.38l0.36,0.24c0.2-0.03-0.04-0.39-0.15-0.51L33.23,235.38z"/>
	<path class="st0" d="M42.59,232.76l-0.09,0.32l0.54,0.4C42.89,233.04,42.97,233.08,42.59,232.76z"/>
	<path class="st0" d="M36.6,237.61c0.19,0.17,0.36,0.42,0.59,0.22C37.22,237.3,36.73,237.59,36.6,237.61z"/>
	<path class="st0" d="M38.08,237.15c-0.2,0.15-0.41,0.29-0.2,0.32l0.2-0.15c0.34,0.02,0.27-0.64,0.3-1.02L38.08,237.15z"/>
	<path class="st0" d="M26.35,160.64c-0.02,0.02-0.06-0.28-0.08-0.43c-0.01,0-0.03,0-0.04,0.01c-0.02,0.14-0.03,0.4-0.06,0.43
		c0.02,0.19,0.09,0.31,0.11,0.5c0.01,0.13-0.08,0.37-0.08,0.51c0,0.05,0.02,0.14,0.04,0.23c0.04-0.02,0.08-0.03,0.11-0.05
		c0.01-0.1,0.03-0.18,0.03-0.19c0,0,0.01,0.06,0.03,0.13c0.31-0.27,0.27-0.8,0-1.5C26.39,160.43,26.36,160.62,26.35,160.64z"/>
	<path class="st0" d="M43.78,193.21c0.01,0,0.05-0.45,0.06-0.52c0-0.02-0.12-0.44-0.12-0.49c-0.01-0.13,0.07-0.37,0.06-0.51
		c-0.01-0.17-0.11-0.33-0.12-0.49c-0.02,0.17-0.04,0.35-0.06,0.52c-0.01,0.07-0.04,0.51-0.06,0.52c0.04,0.16,0.08,0.33,0.12,0.49
		C43.68,192.78,43.76,193.21,43.78,193.21z"/>
	<path class="st0" d="M44.16,197.73c-0.01-0.17-0.11-0.32-0.12-0.49c0,0.03-0.06,0.51-0.06,0.51c0,0.02,0.12,0.49,0.12,0.49
		S44.17,197.76,44.16,197.73z"/>
	<path class="st0" d="M26.58,151.18c0.06-0.02,0.24-0.36,0.1-0.53C26.58,150.79,26.52,151.08,26.58,151.18z"/>
	<g>
		<path class="st0" d="M25.48,126.82c-0.01,0-0.07,0.45-0.08,0.51c-0.01,0.13-0.08,0.37-0.08,0.51c0,0.09,0.09,0.43,0.11,0.5
			c0.01,0.07,0.09,0.5,0.11,0.5c0.03,0,0.05-0.47,0.08-0.51c-0.01-0.17-0.1-0.33-0.11-0.5c0-0.07,0.08-0.46,0.08-0.51
			C25.58,127.26,25.49,126.82,25.48,126.82z"/>
		<path class="st0" d="M26.26,147.77c0,0.17,0.09,0.33,0.11,0.5c0-0.02,0.08-0.51,0.08-0.51s-0.1-0.5-0.11-0.5
			C26.34,147.26,26.26,147.73,26.26,147.77z"/>
		<path class="st0" d="M26.36,140.48l-0.35,0.08c0.1,0.71,0.28,0.66,0.49,0.86L26.36,140.48z"/>
		<path class="st0" d="M26.29,136.28l0.01-0.18c-0.35,0.41-0.51-0.68-0.79-0.35C25.42,136.37,26.02,136.43,26.29,136.28z"/>
		<path class="st0" d="M25.17,139.69c0.14-0.01,0.32-0.18,0.33-0.32C25.44,139.34,25.14,139.45,25.17,139.69z"/>
		<path class="st0" d="M55.7,49.75c0.02-0.09,0.08-0.52,0.07-0.64c0-0.11-0.07-0.56-0.08-0.64c-0.03-0.2-0.05-0.48-0.08-0.64
			c-0.02-0.12-0.06-0.6-0.08-0.64c0.02-0.08,0.04-0.49,0.05-0.64c0.01-0.2,0.03-0.41,0.05-0.64c-0.01-0.05-0.07-0.55-0.08-0.63
			c-0.01-0.12,0.01-0.54,0.01-0.64c0-0.12,0.02-0.48,0-0.64c-0.01-0.08-0.1-0.55-0.12-0.62l-0.12-0.62
			c-0.03-0.14-0.09-0.43-0.11-0.62c0-0.05,0-0.58,0-0.63c0-0.09,0.01-0.52-0.01-0.63c-0.02-0.1-0.13-0.53-0.15-0.61
			c-0.04-0.18-0.1-0.39-0.15-0.61c-0.03-0.14-0.12-0.46-0.15-0.61c-0.03-0.21-0.01-0.42-0.04-0.63c-0.02-0.11-0.04-0.54-0.04-0.62
			c-0.01-0.11-0.02-0.48-0.04-0.63c-0.01-0.08-0.13-0.53-0.15-0.6c-0.03-0.09-0.15-0.48-0.17-0.59c-0.02-0.11-0.07-0.53-0.08-0.61
			c0.01,0.02,0.17,0.58,0.17,0.59c0,0-0.07-0.57-0.08-0.61c-0.02-0.11-0.15-0.51-0.17-0.59c-0.05-0.16-0.12-0.39-0.17-0.59
			c-0.01-0.08-0.07-0.5-0.08-0.61c-0.02-0.08-0.15-0.51-0.17-0.58c-0.03-0.09-0.14-0.46-0.16-0.58c-0.04-0.17-0.05-0.43-0.08-0.61
			c-0.03-0.16-0.13-0.42-0.18-0.58c-0.05-0.19-0.07-0.42-0.11-0.61c-0.05-0.23-0.06-0.37-0.11-0.61c-0.04-0.16-0.15-0.41-0.19-0.58
			c-0.05-0.2-0.06-0.4-0.12-0.6c-0.03-0.09-0.16-0.5-0.19-0.58c-0.03-0.08-0.15-0.47-0.18-0.58c-0.02-0.1-0.1-0.52-0.12-0.6
			c0-0.05-0.12-0.55-0.14-0.6c-0.06-0.16-0.17-0.45-0.21-0.57l-0.42-1.14c-0.03-0.13-0.12-0.48-0.15-0.59
			c-0.02-0.08-0.14-0.56-0.15-0.59c0,0,0.19,0.53,0.21,0.57c0.02,0.03,0.21,0.57,0.21,0.57s-0.14-0.52-0.15-0.59
			c-0.02-0.04-0.2-0.55-0.21-0.57c-0.05-0.19-0.1-0.4-0.16-0.59c-0.06-0.19-0.14-0.38-0.22-0.56c-0.09-0.21-0.15-0.34-0.24-0.56
			c-0.05-0.15-0.14-0.43-0.19-0.59l-0.24-0.56c-0.05-0.16-0.14-0.42-0.19-0.58l-0.23-0.55c-0.06-0.19-0.13-0.39-0.19-0.58
			c-0.02-0.08-0.22-0.48-0.25-0.55c-0.07-0.15-0.22-0.44-0.27-0.54c0.01,0.02,0.21,0.53,0.23,0.57c0.04,0.08,0.23,0.57,0.21,0.58
			c0,0-0.22-0.52-0.25-0.55l-0.23-0.57l-0.23-0.57c-0.08-0.19-0.15-0.37-0.23-0.57c-0.04-0.09-0.19-0.46-0.23-0.57
			c-0.09-0.18-0.17-0.36-0.26-0.54c0.01,0.03,0.23,0.57,0.23,0.57c-0.01-0.01-0.22-0.47-0.26-0.54c-0.01-0.05-0.2-0.49-0.25-0.56
			c-0.04-0.07-0.26-0.46-0.3-0.52c-0.06-0.11-0.22-0.38-0.3-0.52c-0.06-0.12-0.21-0.41-0.28-0.55c-0.1-0.17-0.2-0.35-0.29-0.52
			c-0.1-0.17-0.19-0.35-0.29-0.52c-0.04-0.1-0.26-0.46-0.31-0.53c-0.11-0.17-0.24-0.36-0.34-0.5l-0.28-0.42
			c-0.14-0.22-0.3-0.46-0.4-0.6c-0.1-0.15-0.2-0.3-0.31-0.46C44.73,10,44.7,9.96,44.67,9.91c-0.01-0.03-0.03-0.06-0.04-0.08
			l-0.07-0.09c-0.07-0.1-0.15-0.19-0.17-0.22c-0.01-0.02-0.04-0.04-0.05-0.06L44.1,9.11c-0.05-0.05-0.06-0.06-0.06-0.04
			c0-0.01-0.01-0.02-0.02-0.02c-0.11-0.13-0.22-0.27-0.31-0.39c-0.01-0.02-0.03-0.05-0.02-0.05l-0.31-0.4
			c-0.1-0.11-0.19-0.21-0.29-0.32c-0.06-0.08-0.12-0.15-0.18-0.22c0.01,0.01,0.04,0.05,0.1,0.13l-0.04-0.05l-0.2-0.26l0.01-0.02
			c-0.21-0.27-0.43-0.48-0.63-0.67c-0.02-0.02-0.04-0.05-0.05-0.06c-0.06-0.07-0.38-0.4-0.46-0.48l0,0
			c-0.02-0.03-0.05-0.06-0.08-0.1c-0.1-0.1-0.14-0.13-0.15-0.14c-0.1-0.1-0.18-0.18-0.19-0.19c0.01,0.01,0.09,0.1,0.19,0.2
			l0.02,0.03c-0.08-0.08-0.15-0.15-0.17-0.17c0.06,0.07,0.13,0.13,0.2,0.2l0.06,0.07c-0.17-0.17-0.33-0.34-0.5-0.51l0.02,0
			c0.09,0.09,0.18,0.18,0.23,0.23c-0.07-0.07-0.14-0.15-0.22-0.23l0.02,0c-0.28-0.32-0.72-0.64-0.83-0.71l-0.03-0.03l-0.85-0.73
			c-0.02,0-0.2-0.16-0.49-0.39l-0.05,0.01c-0.1-0.07-0.2-0.15-0.3-0.22l-0.37-0.26c-0.1-0.04-0.72-0.46-1.24-0.79l-0.08-0.04
			l-0.38-0.19l-0.21-0.1c0.22,0.1,0.15,0.08,0.1,0.06l-0.28-0.15l-0.62-0.3l0.09,0.05l-0.32-0.16c-0.2-0.1-0.51-0.27-0.61-0.29
			c0.11,0.03,0.21,0.1,0.31,0.15c-0.48-0.23-0.89-0.33-1.17-0.44c-0.69-0.23,0.18,0.07-0.09-0.02c-0.28-0.1-0.45-0.16-0.8-0.28
			l0.42,0.15l0.48,0.16l0.01,0.01l-0.8-0.28L32.66,0.8c-0.2-0.09-0.86-0.21-0.99-0.24l-0.28,0.11c-0.25-0.06-0.33-0.23-0.59-0.28
			L30.7,0.35c-1.28-0.26-0.65,0.08-0.84,0.07c-0.6-0.09-0.02-0.24-0.64-0.28l-1.27-0.12l0.07,0.01c-0.04,0-0.09-0.01-0.13-0.01
			c0.08,0,0.1,0-0.03,0c0,0,0.01,0,0.01,0c-0.77-0.04-1.54-0.03-2.33,0.01c-0.75,0.04-1.49,0.12-2.21,0.24c-0.01,0-0.01,0-0.02,0
			c-0.01,0-0.01,0-0.02,0c-0.05,0.01-0.11,0.02-0.16,0.03c-0.01,0-0.02,0-0.03,0c-0.01,0-0.01,0-0.01,0
			c-0.06,0.01-0.07,0.01-0.12,0.02c-0.5,0.09-0.98,0.19-1.47,0.32l-0.07,0.02l-0.09,0.02c-0.02,0-0.04,0.01-0.06,0.01l-0.11,0.02
			c-0.02,0-0.04,0.01-0.06,0.02c0,0,0,0,0,0c0.1-0.02,0.19-0.04,0.29-0.06c-0.02,0.01-0.05,0.01-0.07,0.02
			c-0.06,0.01-0.13,0.03-0.2,0.04c0.03-0.01,0.05-0.01,0.07-0.02c-0.1,0.02-0.14,0.03-0.01,0c-0.02,0-0.06,0.01-0.09,0.02
			c-0.1,0.02-0.2,0.04-0.31,0.08l-0.09,0.03l0,0c0.02-0.01,0.05-0.02,0.09-0.03c-0.01,0-0.03,0-0.04,0.01
			c0.09-0.03,0.19-0.06,0.28-0.08c-0.11,0.02-0.21,0.05-0.31,0.09l-0.15,0.05c-0.1,0.03-0.21,0.07-0.31,0.1
			c-0.12,0.04-0.24,0.08-0.37,0.12c0.04-0.01,0.07-0.02,0.1-0.03l-0.08,0.03c-0.5,0.17-1.19,0.4-0.88,0.29
			c0.18-0.06,0.34-0.11,0.52-0.17c-0.21,0.07-0.41,0.13-0.67,0.22c-0.08,0.03-0.14,0.05-0.19,0.07c-0.09,0.04-0.22,0.1-0.25,0.12
			c-0.05,0.02-0.14,0.06-0.22,0.1c-0.04,0.02-0.08,0.04-0.12,0.06l0.02-0.01l0.03-0.01c-0.02,0.01-0.05,0.02-0.07,0.03
			c-0.09,0.04-0.44,0.2-0.54,0.25c-0.14,0.06-0.27,0.12-0.41,0.19c-0.08,0.04-0.49,0.22-0.57,0.26c-0.08,0.05-0.45,0.28-0.54,0.34
			c-0.09,0.05-0.37,0.22-0.44,0.27c-0.07,0.04-0.38,0.23-0.47,0.28c-0.19,0.12-0.38,0.23-0.57,0.35c-0.12,0.09-0.33,0.26-0.47,0.36
			c-0.17,0.14-0.37,0.29-0.54,0.42c-0.17,0.14-0.37,0.29-0.54,0.43c-0.16,0.14-0.34,0.24-0.49,0.4c-0.16,0.16-0.33,0.33-0.48,0.49
			l-0.47,0.46c0.02-0.02,0.48-0.49,0.48-0.49s-0.46,0.45-0.48,0.47c-0.11,0.11-0.41,0.41-0.49,0.49c-0.16,0.16-0.32,0.32-0.45,0.51
			c-0.06,0.08-0.32,0.42-0.38,0.49c-0.07,0.09-0.33,0.4-0.39,0.47C9.84,8.26,9.49,8.69,9.48,8.7C9.35,8.87,9.21,9.04,9.11,9.18
			C9.02,9.3,8.83,9.62,8.79,9.68C8.77,9.72,9.12,9.17,9.13,9.17c0,0-0.09,0.13-0.17,0.27l-0.79,1.19c-0.26,0.39-0.31,0.49-0.31,0.52
			c-0.01,0.02-0.02,0.04-0.03,0.05l-0.03,0.01c0,0-0.37,0.55-0.34,0.52c0.02-0.05,0.25-0.4,0.31-0.51c0.05-0.07,0.31-0.49,0.32-0.51
			c-0.02,0.03-0.31,0.47-0.34,0.51c-0.23,0.34-0.41,0.69-0.58,1.05l0.24,0.83l-0.77,0.24c-0.02,0.05-0.06,0.12-0.09,0.19
			c-0.05,0.07,0.35,0.48,0.3,0.54c-0.05,0.14-0.55-0.09-0.6,0.03c-0.07,0.12-0.57,0.51-0.86,0.62c-0.26,0.1,0.52,0.36-0.07,0.79
			c-0.19,0.13,0.42,0.21,0.33,0.43C5.59,16.05,5.39,16,5.33,16.12c-0.06,0.15-0.16,0.41-0.22,0.56c0,0-0.22,0.48-0.26,0.57
			c-0.05,0.11-0.25,0.54-0.25,0.57c-0.03,0.03,0.21-0.57,0.21-0.57s-0.25,0.53-0.25,0.57c-0.07,0.19-0.15,0.39-0.21,0.58
			c-0.02,0.08-0.16,0.52-0.17,0.58c0.01-0.04,0.21-0.57,0.22-0.58c-0.01,0.02-0.16,0.53-0.17,0.58c0.03-0.08,0.16-0.44,0.21-0.58
			l0.21-0.58c-0.06,0.21-0.11,0.36-0.17,0.57c-0.05,0.13-0.16,0.44-0.21,0.58c-0.05,0.15-0.13,0.42-0.17,0.58
			c-0.04,0.1-0.19,0.5-0.22,0.59c-0.04,0.11-0.2,0.55-0.22,0.59c0.01-0.04,0.17-0.55,0.17-0.58c0,0-0.21,0.55-0.22,0.59
			c-0.03,0.09-0.15,0.51-0.17,0.58c-0.04,0.18-0.1,0.44-0.13,0.59c-0.03,0.11-0.12,0.54-0.13,0.59c0.01-0.04,0.17-0.56,0.18-0.59
			c0,0-0.12,0.54-0.13,0.59C3.19,22.54,3.05,23,3.03,23.07l-0.18,0.6c-0.05,0.17-0.12,0.39-0.18,0.6c-0.01,0.07-0.11,0.5-0.13,0.59
			c-0.02,0.09-0.17,0.53-0.18,0.6c-0.02,0.07-0.13,0.51-0.15,0.6c-0.02,0.12-0.08,0.5-0.09,0.59c-0.03,0.17-0.06,0.39-0.09,0.6
			c-0.02,0.13-0.06,0.45-0.09,0.6c-0.05,0.2-0.11,0.41-0.16,0.61c0-0.03,0.09-0.6,0.09-0.6s-0.15,0.56-0.16,0.61
			C1.68,28.55,1.61,29,1.6,29.07c-0.01,0.09-0.07,0.49-0.09,0.6c-0.04,0.2-0.09,0.42-0.13,0.61c-0.03,0.2-0.1,0.42-0.13,0.61
			c-0.03,0.16-0.03,0.43-0.05,0.6c-0.03,0.2-0.1,0.41-0.13,0.62c-0.03,0.15-0.03,0.44-0.05,0.6C1,32.8,0.91,33.26,0.89,33.33
			c-0.02,0.1-0.11,0.5-0.13,0.62c-0.01,0.1-0.05,0.52-0.05,0.6c0,0.09-0.02,0.49-0.02,0.6c0,0.01,0,0.02-0.01,0.03
			c0,0,0-0.02,0-0.02s-0.1,0.58-0.11,0.62c-0.02,0.21,0,0.39-0.02,0.6c0,0,0.01-0.04,0.01-0.06c0,0.01,0,0.03,0,0.04
			C0.56,36.4,0.47,36.93,0.46,37c-0.02,0.17,0,0.44-0.01,0.6c-0.01,0.21-0.01,0.43-0.01,0.6c0,0.09,0,0.49-0.01,0.6
			c-0.02,0.17-0.1,0.47-0.11,0.63c0-0.05,0.01-0.6,0.01-0.6c0,0-0.1,0.58-0.11,0.63c-0.02,0.1,0,0.53,0.01,0.61
			c0.01,0.18,0.02,0.4,0.02,0.61c0,0.14,0.03,0.46,0.03,0.62c-0.01,0.21-0.07,0.43-0.08,0.64c0,0.06-0.01,0.11-0.02,0.16
			c0-0.04,0-0.09-0.01-0.13c-0.01-0.08-0.03-0.62-0.03-0.62s-0.07,0.56-0.08,0.64c0,0.03,0.02,0.55,0.03,0.62
			c0,0.17-0.07,0.47-0.08,0.65C0,43.46,0.04,43.66,0.03,43.87c0.03-0.21,0.05-0.44,0.08-0.65c0-0.03,0.01-0.09,0.02-0.17
			c0,0.06,0,0.12,0.01,0.14c0,0.04,0.03,0.55,0.03,0.62c-0.01,0.13-0.08,0.54-0.06,0.65c0.01,0.2,0.05,0.47,0.07,0.62l0.15,1.23
			c-0.02,0.03-0.02,0.67-0.04,0.65c-0.02-0.01-0.02,0.65-0.04,0.66C0.24,47.63,0.2,47.04,0.18,47c-0.02-0.04-0.06-0.63-0.08-0.62
			c0,0-0.04,0.57-0.04,0.65c0,0.03,0.07,0.56,0.08,0.62c0.01,0.21-0.05,0.45-0.04,0.66c0,0.21,0.09,0.41,0.1,0.62
			c0.02,0.21-0.02,0.45-0.01,0.66l-0.01,1.33c0.04,0.2,0.08,0.42,0.12,0.62c0.02,0.09,0.12,0.63,0.13,0.62
			c0.02-0.01-0.02-0.69,0-0.67c0.02,0.02-0.01-0.64,0-0.67c0.01-0.01,0.11,0.55,0.13,0.62l0.13,0.62l0.01,0.67
			c0.01,0.16-0.15,0.74,0.04,0.67c0.84-0.33,0.15,0.48,0.17,0.62c0.03,0.15,0.78,0.25,0.79,0.39c0.02,0.24-0.72,0.75-0.71,0.96
			c0.01,0.11-0.05,0.79,0.05,0.68c0.72-0.87,1.28,0.15,1.3,0.22c0.04,0.15-0.95,0.82-0.89,1.02c0.03,0.1,0.06,0.55,0.09,0.68
			c0.04,0.17-0.33,0.55-0.28,0.73c0.04,0.15,0.57,0.43,0.61,0.56c0.06,0.19,0.18,0.47,0.24,0.61c0.07,0.19,0.35-0.25,0.42-0.03
			C2.6,60,2.92,60.27,2.98,60.47c0.06,0.17-0.27,1.1-0.2,1.27c0.07,0.21,0.21,0.39,0.29,0.6c0.02,0.16,0.14,0.53,0.15,0.68
			c0.01,0.13,0.11,0.5,0.15,0.68c0.02,0.1,0.16,0.66,0.16,0.68c-0.02,0.01-0.31-0.64-0.31-0.6c0.04,0.18,0.1,0.47,0.16,0.69
			c0.03,0.1,0.15,0.56,0.21,0.68c0.07,0.15,0.28,0.46,0.35,0.59c-0.03-0.06-0.17-0.59-0.21-0.68l0.35,0.59l0.35,0.58
			c0.05,0.09,0.3,0.46,0.36,0.58c0.04,0.1,0.19,0.59,0.22,0.68c0.06,0.21,0.15,0.44,0.26,0.68c0.08,0.18,0.17,0.47,0.28,0.67
			c0.09,0.17,0.25,0.67,0.42,0.56c0.76-0.47,0.16,0.46,0.28,0.67c0.05,0.09,0.37,0.49,0.42,0.56c0.12,0.17,0.65-0.18,0.81,0.01
			c0.1,0.13-0.32,1.21,0.13,1.07c0.23-0.07,0.1,0.13,0.24,0.33c0.09,0.13-0.11,1.33,0.47,0.98c0.1-0.06,0.27,0.53,0.36,0.66
			c0.05,0.09,0.46,0.46,0.53,0.51c0.08,0.07,0.47,0.4,0.56,0.5c0.09,0.1,0.38,0.55,0.44,0.63c0.05,0.07,0.37,0.56,0.45,0.64
			c0.12,0.13,0.46,0.4,0.57,0.49c0.08,0.08,0.52,0.36,0.62,0.46c0.16,0.15,0.37,0.47,0.52,0.6c0.23,0.2,0.41,0.25,0.64,0.44
			c0.16,0.13,0.37,0.45,0.54,0.6c0.12,0.11,0.53,0.35,0.67,0.41c0,0.02-0.57-0.56-0.56-0.58c0-0.02,0.56,0.38,0.66,0.41l0.7,0.38
			c0.03,0.06,0.63,0.51,0.62,0.54c-0.01,0.02-0.75-0.42-0.71-0.37c0.07,0.08,0.47,0.41,0.62,0.55l0.63,0.54
			c0.12,0.1,0.46,0.43,0.64,0.53c0.08,0.05,0.7,0.27,0.78,0.3l0.78,0.29c0.2,0.07,0.54,0.17,0.78,0.28
			c0.13,0.06,0.57,0.39,0.73,0.46c0.25,0.11,0.58,0.11,0.83,0.2c0.3,0.11,0.5,0.27,0.8,0.37c0.22,0.08,0.61,0.1,0.84,0.17
			c0.28,0.09,0.53,0.27,0.81,0.36c-0.05-0.01-0.84-0.16-0.84-0.16s0.77,0.34,0.82,0.36c0.29,0.08,0.58,0.02,0.87,0.08
			c0.01,0,0.01,0,0.02,0c0.06,0.12,0.18,0.1,0.3,0.09c0.07,0.02,0.13,0.04,0.2,0.06c0,0.02-0.01,0.04-0.01,0.05
			c0,0.03,0.01,0.08,0.02,0.14c-0.14,0.04-0.13,0.17-0.31,0.33c0,0.21,0.05,0.53,0.24,0.37c0.04-0.14,0.18-0.1,0.3-0.05
			c-0.02,0.1-0.03,0.19-0.04,0.22c0,0.02-0.01,0.06-0.02,0.11c-0.19,0.27-0.42,0.51-0.62,0.67c0.22,0.21,0.43,0.33,0.62,0.53
			c-0.01,0.07-0.03,0.13-0.03,0.21c0,0.08,0.03,0.2,0.06,0.31c-0.14,0.15-0.27,0.33-0.17,0.67c0.04,0.03,0.09,0.04,0.13,0.02
			c-0.01,0.17-0.06,0.37-0.08,0.51c-0.01,0.07-0.08,0.42-0.08,0.51c0,0.1,0.09,0.42,0.11,0.5c0.02,0.08,0.1,0.4,0.11,0.5
			c0,0.08-0.08,0.45-0.08,0.51c0.02,0.17,0.08,0.36,0.11,0.5l0.21,1c-0.02,0.01-0.06,0.54-0.08,0.51c-0.03-0.06-0.08-0.38-0.11-0.5
			c-0.01-0.07-0.09-0.5-0.11-0.5c-0.02,0-0.07,0.44-0.08,0.51L24.59,92l0.11,0.5L24.8,93c0.03,0.13,0.09,0.34,0.11,0.5
			c0.01,0.07-0.08,0.42-0.08,0.51c0,0.13,0.1,0.36,0.11,0.5c0,0.15-0.09,0.36-0.08,0.51c0.01,0.12,0.09,0.4,0.11,0.5
			c0.01,0.08,0.1,0.4,0.11,0.5c0,0.17-0.08,0.34-0.08,0.51c0,0.11-0.06,0.43-0.08,0.51c-0.01,0.09-0.08,0.39-0.08,0.51
			c0,0.07,0.09,0.44,0.11,0.5c0.01,0.08,0.1,0.4,0.11,0.5c0,0.09-0.07,0.44-0.08,0.51c0,0.02-0.1-0.5-0.11-0.5
			c-0.01,0-0.08,0.46-0.08,0.51c0,0.05,0.1,0.45,0.11,0.5l0.21,1c-0.03,0.02-0.05,0.52-0.08,0.51c-0.03-0.02-0.07-0.46-0.11-0.5
			c-0.02-0.03-0.05,0.51-0.08,0.51c-0.02,0-0.1-0.53-0.11-0.5c-0.01,0.05-0.08,0.43-0.08,0.51c0,0.14,0.1,0.36,0.11,0.5
			c0.01,0.17-0.08,0.34-0.08,0.51l0.11,0.5c0.03,0.14,0.07,0.41,0.11,0.5c-0.01-0.01-0.07,0.45-0.08,0.51
			c-0.01,0.08-0.08,0.41-0.08,0.51c0,0.08,0.09,0.44,0.11,0.5l0.11,0.5l0.11,0.5l0.21,1c-0.03,0.11-0.04,0.41-0.08,0.51
			c-0.02,0.06-0.05,0.51-0.08,0.51c-0.03,0-0.07-0.47-0.11-0.5c-0.03-0.03-0.08-0.5-0.11-0.5c-0.01,0-0.07,0.45-0.08,0.51
			c0,0.08,0.1,0.41,0.11,0.5c0,0.12-0.09,0.4-0.08,0.51c0.01,0.15,0.08,0.38,0.11,0.5c0.01,0.08,0.1,0.4,0.11,0.5
			c0,0.14-0.09,0.37-0.08,0.51c0.01,0.19,0.09,0.31,0.11,0.5c0.01,0.13-0.08,0.37-0.08,0.51c0,0.17,0.09,0.33,0.11,0.5
			c0.01,0.12-0.08,0.37-0.08,0.51c0,0.07,0.09,0.44,0.11,0.5c0.01,0.07,0.1,0.42,0.11,0.5c0,0.09-0.07,0.43-0.08,0.51
			c-0.01,0.05-0.08,0.47-0.08,0.51c0.01,0.15,0.08,0.38,0.11,0.5l0.11,0.5l0.11,0.5l0.21,1c-0.03,0.12-0.04,0.4-0.08,0.51
			c0,0.01-0.1-0.46-0.11-0.5c-0.01-0.07-0.09-0.5-0.11-0.5c-0.02,0-0.07,0.44-0.08,0.51c-0.02,0.13-0.07,0.35-0.08,0.51
			c0,0.03,0.1,0.46,0.11,0.5c0.03,0.12,0.09,0.35,0.11,0.5c0.01,0.08-0.08,0.41-0.08,0.51c0,0.13,0.1,0.36,0.11,0.5
			c0,0.16-0.07,0.35-0.08,0.51c0,0.14-0.06,0.4-0.08,0.51c-0.02,0.12-0.07,0.35-0.08,0.51c0,0.09,0.1,0.39,0.11,0.5
			c0.01,0.17-0.08,0.34-0.08,0.51c0,0.09,0.09,0.43,0.11,0.5l0.11,0.5c0.02,0.09,0.1,0.38,0.11,0.5c0,0.06-0.07,0.45-0.08,0.51
			c-0.02,0.13-0.07,0.35-0.08,0.51c0,0.09,0.1,0.39,0.11,0.5c0,0.16-0.08,0.35-0.08,0.51c0.01,0.11,0.09,0.42,0.11,0.5
			c0.03,0.13,0.09,0.33,0.11,0.5c0,0.03-0.01,0.1-0.02,0.18c0.19,0.6,0.35,1.17,0.1,1.72c-0.01,0.05-0.01,0.09-0.01,0.12
			c0,0.13,0.1,0.36,0.11,0.5c0,0.15-0.09,0.36-0.08,0.51c0.01,0.12,0.09,0.4,0.11,0.5c0.01,0.08,0.1,0.4,0.11,0.5
			c0,0.17-0.08,0.35-0.08,0.51c0-0.04-0.11-0.5-0.11-0.5c-0.01,0-0.08,0.46-0.08,0.51c0,0.06,0.02,0.14,0.05,0.22l0.71-0.35
			c-0.19,0.41-0.44,0.83-0.72,1.19c0.02,0.16,0.08,0.29,0.1,0.45c0.01,0.13-0.08,0.37-0.08,0.51c0,0.17,0.1,0.33,0.11,0.5
			c0.01,0.14-0.07,0.34-0.07,0.49c0.07,0.14,0.13,0.33,0.18,0.61l-0.02,0.11c0.03,0.11,0.05,0.23,0.06,0.3
			c0.01,0.13-0.08,0.37-0.08,0.51c0,0.07,0.03,0.16,0.05,0.25l1.18,0.5c-0.31,0.78-0.96,1.33-1.19,2.02
			c0.02,0.09,0.04,0.19,0.05,0.26l0.21,1c-0.01,0.07-0.03,0.16-0.04,0.25c0.35,0.74,0.85,1.55,0.6,2.17l0.47-0.1
			c-0.19,0.87-0.7,1.04-1.21,1.18l0.01,0.05c0.02,0.1,0.1,0.37,0.11,0.5c0,0.05-0.07,0.46-0.08,0.51c-0.02,0.12-0.07,0.35-0.08,0.51
			c0,0.09,0.1,0.39,0.11,0.5c0,0.06-0.01,0.13-0.03,0.19l0.07,0.05l-0.14,0.34c-0.02,0.14-0.07,0.3-0.07,0.44
			c0.01,0.17,0.1,0.33,0.11,0.5c0,0.17-0.08,0.34-0.08,0.51c0,0.11,0.04,0.22,0.07,0.33l0.07-0.05c0.02-0.14,0.05-0.29,0.05-0.29
			c0.01,0,0.03,0.1,0.05,0.22l0.59-0.41c0.77,1.06-0.58,3.12,0.9,3.45c-0.41,1.88-0.81,4.19-0.09,5.96l-0.8,2.15l1.16,0.78
			c-1.7,1.19-0.01,2.05-0.24,3.12l-1.12,0.55c-0.23,1.07,2.21,2.54,0.56,3.01c-0.79,2.59,1.94,4.77-0.13,7.11l1.19,2.12
			c-0.38,0.65-0.8,1.32-1.27,1.89c0.02,0.13,0.05,0.28,0.06,0.32c0.04,0.11,0.08,0.35,0.11,0.5l0.07,0.34c0.15-0.01,0.3,0,0.45,0.07
			c-0.37,1.16,0.67,2.48,0.44,3.55c-0.24,0.88-0.69,0.94-1.15,0.92c-0.01,0.07-0.02,0.13-0.03,0.18c-0.01,0.08-0.08,0.41-0.08,0.51
			c0,0.08,0.09,0.44,0.11,0.5l0.03,0.16c0.52-0.01,0.99,0,1.01,0.75c-0.3,0.27-0.58,0.61-0.83,0.98c0.01,0.05,0.02,0.1,0.03,0.11
			c0.02,0.09,0.1,0.38,0.11,0.5c0.01,0.14-0.08,0.36-0.08,0.51c0,0.11,0.11,0.41,0.11,0.5c-0.01,0.16-0.06,0.39-0.08,0.51
			c-0.02,0.11-0.07,0.37-0.08,0.51c0,0.11,0.1,0.38,0.11,0.5c0,0.17-0.08,0.34-0.08,0.51c0,0.17-0.08,0.34-0.08,0.51
			c0,0.16,0.1,0.34,0.11,0.5c0-0.04,0.07-0.51,0.08-0.51c0.01-0.01,0.09,0.44,0.11,0.5c0.03,0.12,0.09,0.34,0.11,0.5
			c0.01,0.09-0.08,0.41-0.08,0.51c0,0.14,0.11,0.36,0.11,0.5c0,0.17-0.06,0.36-0.08,0.51c-0.01,0.18-0.05,0.36-0.08,0.51l-0.08,0.51
			l-0.08,0.51c-0.02,0.13-0.07,0.34-0.08,0.51c0,0.03,0.1,0.46,0.11,0.5c0.02,0.08,0.1,0.4,0.11,0.5c0,0.1-0.07,0.42-0.08,0.51
			c0,0.01-0.11-0.5-0.11-0.5c-0.03,0-0.05,0.48-0.08,0.51c0,0.17-0.08,0.34-0.08,0.51c0,0.06,0.09,0.47,0.11,0.5
			c0.01,0.03,0.06-0.5,0.08-0.51c0.01-0.01,0.09,0.44,0.11,0.5c0.03,0.12,0.08,0.45,0.11,0.5c0.02,0.03,0.06-0.51,0.08-0.51
			c0.02,0,0.08,0.43,0.11,0.5c0.04,0.1,0.07,0.35,0.11,0.5l0.11,0.5c-0.02,0.01-0.06,0.54-0.08,0.51c-0.03-0.05-0.08-0.39-0.11-0.5
			c-0.03-0.12-0.08-0.44-0.11-0.5c-0.02-0.03-0.06,0.49-0.08,0.51c-0.02,0.03-0.08-0.5-0.11-0.5c-0.03,0-0.05,0.48-0.08,0.51
			l0.11,0.5l0.11,0.5c0.02,0.12,0.09,0.35,0.11,0.5c0.01,0.08-0.08,0.41-0.08,0.51c0,0.13,0.1,0.36,0.11,0.5
			c0,0.07-0.07,0.47-0.08,0.51c-0.01,0.03-0.09-0.5-0.11-0.5c0,0-0.08,0.49-0.08,0.51c0.01,0.13,0.09,0.4,0.11,0.5l0.11,0.5l0.21,1
			c-0.03,0.11-0.04,0.41-0.08,0.51c-0.02,0.06-0.05,0.51-0.08,0.51c-0.02,0-0.09-0.54-0.11-0.5c-0.03,0.07-0.06,0.39-0.08,0.51
			c-0.01,0.09-0.08,0.38-0.08,0.51c0,0.06,0.09,0.45,0.11,0.5l0.11,0.5c0.03,0.12,0.09,0.34,0.11,0.5c0.01,0.07-0.08,0.42-0.08,0.51
			c0,0.14,0.1,0.36,0.11,0.5c0,0.17-0.08,0.34-0.08,0.51c0,0.16,0.1,0.34,0.11,0.5c0,0.17-0.08,0.34-0.08,0.51
			c0,0.17,0.1,0.33,0.11,0.5c0,0.14-0.09,0.38-0.08,0.51c0.01,0.13,0.09,0.41,0.11,0.5l0.11,0.5c0.02,0.12,0.09,0.35,0.11,0.5
			c0.01,0.08-0.08,0.41-0.08,0.51c0,0.14,0.1,0.36,0.11,0.5c0,0.17-0.08,0.34-0.08,0.51l-0.11-0.5c-0.03-0.15-0.07-0.39-0.11-0.5
			c-0.02-0.07-0.08-0.5-0.11-0.5c0,0-0.08,0.46-0.08,0.51c0,0.12,0.1,0.37,0.11,0.5c0,0.18-0.08,0.33-0.08,0.51
			c0,0.07,0.09,0.44,0.11,0.5c0.02,0.09,0.1,0.38,0.11,0.5c0.01,0.13-0.08,0.37-0.08,0.51c0,0.13,0.1,0.36,0.11,0.5
			c0.01,0.17-0.08,0.34-0.08,0.51c0,0.15,0.1,0.35,0.11,0.5c0,0.17-0.08,0.34-0.08,0.51c0,0.17-0.08,0.34-0.08,0.51
			c0,0.13,0.09,0.37,0.11,0.5l0.08-0.51c0.01-0.01,0.09,0.44,0.11,0.5c0.01,0.06,0.1,0.43,0.11,0.5c0,0.11-0.07,0.43-0.08,0.51
			c-0.02,0.12-0.05,0.45-0.08,0.51c-0.02,0.04-0.09-0.5-0.11-0.5c0,0-0.08,0.48-0.08,0.51c0.01,0.11,0.09,0.42,0.11,0.5l0.11,0.5
			l0.11,0.5l0.11,0.5c0.03,0.14,0.08,0.33,0.11,0.5c0.01,0.07-0.08,0.42-0.08,0.51c0,0.17,0.09,0.33,0.11,0.5
			c0.01,0.17,0.1,0.33,0.11,0.5c0,0.16-0.08,0.35-0.08,0.51c0,0.03-0.07,0.5-0.07,0.53c-0.03,0.02-0.08-0.52-0.11-0.51
			c-0.01,0-0.07,0.43-0.07,0.53c0,0.03,0.11,0.5,0.13,0.56c0.01,0.11-0.03,0.49-0.03,0.58c0,0.12-0.05,0.45-0.02,0.59
			c0.01,0.08,0.17,0.47,0.19,0.54c0.03,0.08,0.17,0.44,0.2,0.52c0.03,0.12,0.02,0.48,0.06,0.58c0.06,0.17,0.16,0.37,0.23,0.5
			c0.04,0.07,0.23,0.37,0.26,0.47c0.05,0.13,0.06,0.44,0.11,0.57c0.06,0.18,0.1,0.41,0.14,0.56c0.01,0.05,0.12,0.53,0.15,0.56
			c0.08,0.13,0.26,0.32,0.33,0.4c0.08,0.1,0.27,0.36,0.33,0.38c0.01,0.08,0.16,0.39,0.22,0.52c0.05,0.11,0.15,0.4,0.24,0.51
			c0.06,0.09,0.3,0.23,0.38,0.31c0.08,0.1,0.17,0.38,0.27,0.48c0.11,0.12,0.28,0.15,0.4,0.26c0.08,0.09,0.2,0.36,0.3,0.44
			c0.05,0.05,0.37,0.19,0.41,0.21c0.01,0.01,0.04,0.02,0.07,0.03c0.05,0.05,0.1,0.07,0.15,0.06c0.08,0.03,0.16,0.06,0.2,0.08
			c0.06,0.04,0.12,0.11,0.18,0.19l-0.01,0.01c0.23,0.55,0.4,0.97,0.75,1.16c0.56,0.23,0.14,0.97,0.49,1.17l0.5-0.54
			c0.35,0.2,0.49,0.54,0.51,1.07c0.36-0.08,0.74,0.19,1.01,0.35c-0.02-0.65-0.43-1.42-0.51-2c0.1-0.01,0.23-0.03,0.32-0.03
			c0.03,0,0.12,0.04,0.21,0.08c-0.08,0.08-0.14,0.18-0.11,0.31c0.11-0.02,0.22-0.12,0.3-0.23c0,0,0.01,0.01,0.02,0.01
			c0.05,0.01,0.11-0.01,0.17-0.03l0.42,0.23c0.06,0.31-0.02,0.73-0.39,0.64l0.42,0.06l-0.03,0.56l-0.6-0.02l0.29,0.69l0.4-0.47
			l0.13,0.63l0.36-0.08l-0.23-1.18l0.55,0.05c0.69-1.21,0.74,0.81,1.49,0.55c0.23-0.25,0.63-0.54,1.04-0.84
			c0.09-0.42,0.63-0.09,0.63-0.72l-0.28-0.51c-0.02,0.03-0.05,0.05-0.07,0.08l0.07,0.17l-0.12-0.12c-0.46,0.47-0.9,0.78-0.82-0.35
			c0.23-0.25,0.22,0.38,0.48,0.2c0.01-0.07,0.01-0.12,0-0.17l-0.08-0.07c0.02,0.01,0.04,0,0.06-0.01c-0.03-0.11-0.1-0.16-0.17-0.2
			c0,0,0.01,0,0.01,0c0.08-0.05,0.15-0.13,0.22-0.21c0.04,0.04,0.09,0.05,0.13,0.06c0.03-0.09,0.08-0.12,0.16-0.01
			c0.13-0.05,0.26-0.17,0.39-0.35l0.01,0.17l0.01,0.02c-0.02,0.02-0.04,0.05-0.06,0.06c-0.09,0.11-0.19,0.21-0.29,0.31l-0.01,0.04
			c0.18-0.05,0.35-0.11,0.52-0.19l0.12,0.17l0.04,0.24l0.37,0.09l-0.04-0.42l-0.42-0.06c-0.01-0.02-0.02-0.03-0.02-0.05
			c0.09-0.04,0.17-0.08,0.26-0.11c0.11-0.12,0.21-0.25,0.3-0.39l0.13,0.25l0.15-0.28l-0.16-0.13c0.07-0.1,0.13-0.2,0.2-0.29
			c0.08-0.11,0.15-0.23,0.21-0.34c-0.04,0.04-0.07,0.08-0.11,0.1l-0.29-0.06c0.01-0.45,0.27-1.09,0.65-0.82
			c0.07,0.16,0.03,0.32-0.03,0.47c0.22-0.15,0.42-0.32,0.54-0.63c-0.07-0.05-0.1-0.11-0.12-0.17c0.1-0.09,0.26-0.22,0.29-0.25
			c0.06-0.05,0.15-0.13,0.23-0.22c-0.06-0.03-0.1-0.07-0.15-0.12l0.19,0.03l0.01,0.03c0.02-0.02,0.05-0.05,0.06-0.07
			c0.05-0.08,0.13-0.43,0.19-0.52c0.09-0.15,0.24-0.24,0.32-0.4c0.04-0.08,0.13-0.47,0.15-0.54c0.03-0.08,0.08-0.46,0.12-0.55
			c0.04-0.1,0.23-0.38,0.27-0.45c0.05-0.06,0.22-0.38,0.25-0.48c0.05-0.19,0.02-0.39,0.07-0.57c0.04-0.14,0.18-0.36,0.21-0.51
			c0.04-0.18-0.01-0.4,0.02-0.58c0.03-0.18-0.04-0.4-0.01-0.58c0.02-0.18,0.14-0.35,0.16-0.54c0.02-0.19-0.07-0.39-0.05-0.57
			c0.01-0.19,0.11-0.37,0.12-0.56c0,0.03,0.06,0.58,0.06,0.58s0.12-0.54,0.12-0.57c0.01-0.13-0.08-0.48-0.1-0.58l-0.11-0.57
			c-0.01-0.09-0.11-0.44-0.12-0.51c-0.01-0.1,0.05-0.44,0.06-0.51c0-0.04,0.06-0.5,0.06-0.52c-0.03-0.17-0.09-0.35-0.12-0.49
			c-0.03-0.12-0.09-0.43-0.12-0.49c-0.02-0.03-0.04,0.51-0.06,0.52c-0.02,0-0.04-0.13-0.07-0.26l0.19-1.2
			c0.03-0.39-0.09-0.47-0.24-0.5c0-0.02-0.01-0.04-0.01-0.05c0-0.07,0.05-0.48,0.06-0.51c0.01-0.04,0.11,0.49,0.12,0.49
			c0.02,0,0.04-0.55,0.06-0.52c0.03,0.04,0.09,0.39,0.12,0.49c0.02,0.07,0.11,0.5,0.12,0.49c0.03,0,0.03-0.48,0.06-0.51l-0.25-0.99
			l-0.12-0.49l-0.12-0.49c-0.01-0.05-0.03-0.11-0.05-0.17c0.09-0.08,0.18-0.15,0.27-0.21c-0.11-0.12-0.22-0.23-0.32-0.32
			c0.02-0.12,0.04-0.24,0.04-0.3c-0.01-0.17-0.11-0.33-0.12-0.49c0.01-0.19,0.05-0.32,0.06-0.52c0.01-0.1,0.07-0.4,0.06-0.52
			c-0.01-0.14-0.12-0.36-0.12-0.49c0-0.11,0.05-0.43,0.06-0.51c0.01-0.1,0.04-0.48,0.06-0.52c0.02-0.03,0.1,0.5,0.12,0.49
			c0.03,0,0.03-0.48,0.06-0.51c-0.01-0.17,0.07-0.35,0.06-0.52c0-0.07-0.11-0.45-0.12-0.49c-0.01-0.03-0.05,0.51-0.06,0.52
			c-0.02,0-0.11-0.53-0.12-0.49c-0.02,0.07-0.04,0.39-0.06,0.52l-0.06,0.52c-0.02-0.19-0.1-0.3-0.12-0.49
			c-0.01-0.12,0.06-0.39,0.06-0.52c0-0.14-0.11-0.35-0.12-0.49c-0.01-0.09,0.05-0.44,0.06-0.52c0.01-0.1,0.04-0.49,0.06-0.51
			c0.02-0.03,0.1,0.49,0.12,0.49c0,0,0.06-0.48,0.06-0.52c-0.01-0.08-0.11-0.43-0.12-0.49c-0.04-0.15-0.08-0.37-0.12-0.49
			c-0.03-0.09-0.09-0.46-0.12-0.49c-0.03-0.03-0.03,0.51-0.06,0.51c0,0-0.12-0.45-0.12-0.49c-0.01-0.06,0.05-0.46,0.06-0.51
			l0.06-0.52c0.02-0.15,0.05-0.34,0.06-0.51c0-0.06-0.12-0.42-0.12-0.49c-0.01-0.07,0.05-0.45,0.06-0.52
			c0.01-0.06,0.06-0.44,0.06-0.51c-0.01-0.1-0.1-0.42-0.12-0.49c-0.04-0.14-0.09-0.32-0.12-0.49c-0.02-0.11-0.12-0.37-0.12-0.49
			c-0.01-0.17,0.07-0.34,0.06-0.51c0,0.03,0.12,0.49,0.12,0.49s0.06-0.47,0.06-0.52c0-0.06-0.11-0.44-0.12-0.49
			c-0.02-0.07-0.12-0.4-0.12-0.49c-0.01-0.17,0.07-0.35,0.06-0.51c-0.01-0.16,0.06-0.35,0.06-0.52c0-0.13-0.11-0.35-0.12-0.49
			c-0.01-0.17,0.06-0.35,0.06-0.52c0-0.13-0.11-0.36-0.12-0.49c-0.01-0.07,0.05-0.45,0.06-0.51c0.01-0.08,0.06-0.41,0.06-0.52
			c0-0.08-0.11-0.42-0.12-0.49c-0.02-0.08-0.12-0.4-0.12-0.49c-0.01-0.16,0.06-0.35,0.06-0.52c-0.02,0-0.11-0.42-0.12-0.49
			c-0.01-0.02,0.06-0.46,0.06-0.51c-0.01-0.14-0.1-0.36-0.12-0.49c-0.02-0.17-0.09-0.35-0.12-0.49c-0.02-0.08-0.12-0.4-0.12-0.49
			c-0.01-0.14,0.07-0.38,0.06-0.51c0.01,0.05,0.12,0.49,0.12,0.49c0,0,0.06-0.48,0.06-0.52c0-0.08-0.11-0.43-0.12-0.49
			c-0.04-0.14-0.09-0.32-0.12-0.49c-0.02-0.11-0.12-0.37-0.12-0.49c-0.01-0.17,0.06-0.34,0.06-0.51c-0.01-0.19,0.06-0.33,0.06-0.51
			c-0.02,0-0.1-0.43-0.12-0.49c-0.01-0.03-0.12-0.44-0.12-0.49c-0.01-0.11,0.07-0.43,0.06-0.52c-0.02-0.16-0.09-0.37-0.12-0.49
			l-0.25-0.99c0.03-0.02,0.03-0.53,0.06-0.51c0.03,0.01,0.03-0.51,0.06-0.52c0.03,0,0.09,0.46,0.12,0.49
			c0.03,0.03,0.09,0.5,0.12,0.49c0.02,0,0.05-0.45,0.06-0.51c0-0.03-0.12-0.44-0.12-0.49c-0.01-0.17,0.07-0.35,0.06-0.52
			c-0.01-0.17-0.11-0.32-0.12-0.49c-0.01-0.17,0.06-0.35,0.06-0.51l0.12-1.03c-0.04-0.16-0.08-0.33-0.12-0.49
			c-0.02-0.07-0.11-0.49-0.12-0.49c-0.03,0-0.03,0.53-0.06,0.51c-0.03-0.02-0.03,0.5-0.06,0.52c-0.01,0.01-0.11-0.43-0.12-0.49
			l-0.12-0.49l0.06-0.52c0.01-0.12,0.06-0.35,0.06-0.51c0-0.09-0.12-0.39-0.12-0.49c-0.01-0.12,0.05-0.41,0.06-0.51
			c0.01-0.18,0.04-0.36,0.06-0.52c0.01-0.09,0.06-0.4,0.06-0.51c0-0.07-0.11-0.44-0.12-0.49c-0.03-0.12-0.1-0.34-0.12-0.49
			c-0.01-0.08,0.06-0.42,0.06-0.51c0-0.14-0.11-0.35-0.12-0.49c-0.01-0.12,0.07-0.41,0.06-0.52c-0.02-0.15-0.1-0.38-0.12-0.49
			c-0.04-0.15-0.09-0.31-0.12-0.49c-0.03-0.13-0.11-0.34-0.12-0.49c-0.01-0.13,0.07-0.37,0.06-0.52c-0.01-0.17-0.11-0.32-0.12-0.49
			c0.03-0.12,0.03-0.41,0.06-0.52c0.03-0.09,0.04-0.38,0.06-0.51c0.01-0.07,0.04-0.51,0.06-0.51c0.01,0,0.12,0.52,0.12,0.49
			c0.02-0.13,0.04-0.35,0.06-0.52c0.01-0.08,0.06-0.42,0.06-0.52c-0.01-0.12-0.1-0.38-0.12-0.49c0.01,0.05-0.06,0.44-0.06,0.52
			l-0.12-0.49l-0.12-0.49c-0.02-0.07-0.12-0.39-0.12-0.49c-0.01-0.08,0.05-0.45,0.06-0.51c0.02-0.16,0.05-0.33,0.06-0.52
			c0.01-0.14,0.06-0.36,0.06-0.52c0-0.13-0.11-0.35-0.12-0.49c-0.01-0.17,0.07-0.34,0.06-0.51c0-0.08-0.11-0.43-0.12-0.49
			c-0.04-0.14-0.09-0.32-0.12-0.49c-0.02-0.11-0.12-0.37-0.12-0.49c-0.01-0.17,0.07-0.34,0.06-0.51c-0.01-0.11,0.05-0.43,0.06-0.52
			c0.01-0.08,0.06-0.41,0.06-0.51c0-0.07-0.11-0.44-0.12-0.49c-0.02-0.07-0.12-0.4-0.12-0.49c-0.01-0.09,0.05-0.44,0.06-0.51
			c0.01-0.06,0.06-0.45,0.06-0.52c-0.01-0.12-0.1-0.4-0.12-0.49c-0.02-0.08-0.12-0.4-0.12-0.49c-0.01-0.14,0.07-0.38,0.06-0.51
			c-0.02-0.19-0.1-0.3-0.12-0.49c-0.01-0.13,0.07-0.37,0.06-0.51c-0.01-0.1-0.1-0.4-0.12-0.49c0-0.01-0.05,0.51-0.06,0.51
			c-0.01,0.01-0.11-0.43-0.12-0.49l-0.12-0.49c0.03-0.04,0.03-0.51,0.06-0.52c0.02,0,0.11,0.53,0.12,0.49
			c0.02-0.07,0.04-0.39,0.06-0.51l0.06-0.52c0.01-0.1,0.06-0.39,0.06-0.51c0-0.06-0.11-0.44-0.12-0.49l-0.12-0.49
			c-0.03-0.12-0.1-0.33-0.12-0.49c-0.01-0.08,0.07-0.41,0.06-0.52c-0.01-0.16-0.12-0.34-0.12-0.49c-0.01-0.18,0.06-0.33,0.06-0.52
			c0-0.13-0.11-0.35-0.12-0.49c-0.01-0.17,0.07-0.35,0.06-0.52c0,0.03,0.12,0.49,0.12,0.49s0.06-0.49,0.06-0.52
			c-0.01-0.17-0.11-0.32-0.12-0.49c-0.01-0.17,0.07-0.35,0.06-0.52c-0.01-0.17-0.11-0.32-0.12-0.49c-0.01-0.17,0.07-0.34,0.06-0.52
			c-0.01-0.15-0.11-0.33-0.12-0.49c-0.01-0.1,0.07-0.43,0.06-0.51c-0.02-0.16-0.09-0.37-0.12-0.49l-0.12-0.49
			c-0.03-0.11-0.11-0.35-0.12-0.49c-0.01-0.11,0.07-0.39,0.06-0.51c-0.01-0.14-0.12-0.36-0.12-0.49c-0.01-0.19,0.06-0.32,0.06-0.52
			c0,0.02,0.12,0.49,0.12,0.49s0.06-0.49,0.06-0.51c-0.01-0.11-0.1-0.41-0.12-0.49c-0.04-0.14-0.09-0.31-0.12-0.49
			c-0.02-0.11-0.12-0.37-0.12-0.49c-0.01-0.1,0.05-0.43,0.06-0.51c0.01-0.07,0.04-0.51,0.06-0.52c0.03,0,0.09,0.46,0.12,0.49
			c0.03,0.03,0.09,0.5,0.12,0.49c0,0,0.06-0.48,0.06-0.51c0-0.08-0.11-0.43-0.12-0.49c-0.04-0.15-0.09-0.31-0.12-0.49
			c-0.03-0.13-0.11-0.34-0.12-0.49c-0.01-0.13,0.07-0.37,0.06-0.51c-0.01-0.12-0.1-0.38-0.12-0.49l-0.06,0.51
			c-0.01,0-0.11-0.43-0.12-0.49c-0.01-0.03,0.06-0.45,0.06-0.51c0-0.14-0.11-0.35-0.12-0.49c-0.01-0.09,0.05-0.44,0.06-0.51
			c0-0.02,0.11,0.49,0.12,0.49c0.01,0.01,0.05-0.46,0.06-0.52c0.01-0.07,0.06-0.43,0.06-0.51c-0.01-0.09-0.11-0.42-0.12-0.49
			l-0.12-0.49c-0.04-0.14-0.09-0.32-0.12-0.49c-0.01-0.05,0.06-0.44,0.06-0.51c0-0.07-0.11-0.44-0.12-0.49l-0.12-0.49l0.12-1.03
			l0.12,0.49c0.03,0.12,0.1,0.34,0.12,0.49c0.01,0.09-0.06,0.41-0.06,0.51c0.01,0.17,0.11,0.32,0.12,0.49l0.12-1.03l-0.12-0.49
			l-0.12-0.49c-0.04-0.15-0.09-0.32-0.12-0.49c-0.01-0.05,0.06-0.44,0.06-0.51c-0.01-0.12-0.1-0.38-0.12-0.49
			c-0.03-0.18-0.09-0.35-0.12-0.49c-0.02-0.07-0.12-0.4-0.12-0.49c-0.01-0.09,0.05-0.45,0.06-0.52c0-0.04,0.06-0.5,0.06-0.51
			c-0.03-0.18-0.09-0.35-0.12-0.49c-0.04-0.15-0.08-0.37-0.12-0.49c-0.03-0.09-0.09-0.46-0.12-0.49c-0.03-0.02-0.03,0.51-0.06,0.52
			c-0.03,0-0.09-0.46-0.12-0.49c0.03-0.09,0.03-0.44,0.06-0.52c0.03-0.07,0.03-0.47,0.06-0.51c0.02-0.03,0.1,0.5,0.12,0.49
			c0.02,0,0.04-0.44,0.06-0.51c0.03-0.12,0.04-0.36,0.06-0.52l0.12-1.03l-0.12-0.49c-0.02-0.07-0.12-0.4-0.12-0.49
			c-0.01-0.09,0.05-0.44,0.06-0.52c0-0.04,0.06-0.49,0.06-0.51c-0.02-0.17-0.09-0.36-0.12-0.49c-0.03-0.13-0.09-0.42-0.12-0.49
			c-0.01-0.03-0.04,0.51-0.06,0.52c-0.01,0.01-0.11-0.43-0.12-0.49l-0.12-0.49c0.02-0.17,0.04-0.35,0.06-0.52
			c0.01-0.07,0.04-0.51,0.06-0.51c0.01,0,0.12,0.52,0.12,0.49c0.01-0.08,0.06-0.4,0.06-0.52c0-0.13-0.11-0.35-0.12-0.49
			c-0.01-0.09,0.07-0.44,0.06-0.51c-0.03-0.17-0.09-0.36-0.12-0.49c-0.03-0.12-0.09-0.43-0.12-0.49c-0.02-0.03-0.04,0.51-0.06,0.52
			c-0.03,0-0.09-0.46-0.12-0.49c0.02-0.17,0.04-0.34,0.06-0.52c0.02-0.17,0.04-0.34,0.06-0.51l0.06-0.52
			c0.02-0.16,0.03-0.39,0.06-0.51c0.02-0.1,0.03-0.48,0.06-0.51c0.02-0.03,0.1,0.5,0.12,0.49c0.02,0,0.05-0.44,0.06-0.52
			c-0.01,0.03-0.11-0.48-0.12-0.49c-0.03-0.03-0.09-0.5-0.12-0.49c-0.03,0-0.03,0.53-0.06,0.52c-0.03-0.01-0.09-0.46-0.12-0.49
			c-0.03-0.02-0.03,0.51-0.06,0.51c-0.03,0-0.09-0.46-0.12-0.49l0.12-1.03l0.06-0.52c0.01-0.08,0.06-0.42,0.06-0.51
			c0-0.08-0.11-0.43-0.12-0.49c-0.04-0.15-0.08-0.37-0.12-0.49c-0.03-0.09-0.09-0.47-0.12-0.49c0.02-0.07,0.04-0.39,0.06-0.51
			c0.02-0.16,0.05-0.33,0.06-0.52c0-0.04-0.12-0.43-0.12-0.49c-0.01-0.1,0.05-0.44,0.06-0.51c0.01-0.1,0.06-0.39,0.06-0.51
			c0-0.07-0.11-0.44-0.12-0.49l-0.12-0.49c-0.03-0.11-0.1-0.34-0.12-0.49c-0.01-0.04,0.05-0.47,0.06-0.51
			c0.01-0.07,0.06-0.42,0.06-0.51c-0.01-0.08-0.11-0.43-0.12-0.49c-0.04-0.14-0.09-0.32-0.12-0.49c-0.02-0.11-0.12-0.37-0.12-0.49
			c-0.01-0.17,0.07-0.35,0.06-0.52c-0.01-0.09,0.05-0.44,0.06-0.51c0.01-0.09,0.06-0.39,0.06-0.52c0-0.07-0.11-0.43-0.12-0.49
			c-0.02-0.08-0.12-0.4-0.12-0.49c-0.01-0.09,0.05-0.45,0.06-0.52c0-0.02,0.11,0.49,0.12,0.49c0,0,0.06-0.48,0.06-0.51
			c-0.01-0.09-0.11-0.42-0.12-0.49c-0.03-0.13-0.1-0.33-0.12-0.49c-0.01-0.07,0.06-0.43,0.06-0.51c0-0.07-0.11-0.43-0.12-0.49
			c-0.02-0.08-0.11-0.39-0.12-0.49c-0.01-0.15,0.06-0.36,0.06-0.52c0-0.13-0.11-0.35-0.12-0.49c-0.01-0.16,0.06-0.36,0.06-0.51
			c0-0.19,0.06-0.32,0.06-0.51c0-0.13-0.11-0.35-0.12-0.49c-0.01-0.17,0.07-0.34,0.06-0.52c0-0.08-0.11-0.43-0.12-0.49
			c-0.02-0.07-0.12-0.4-0.12-0.49c-0.01-0.09,0.05-0.44,0.06-0.52c0.01-0.05,0.06-0.47,0.06-0.51c-0.02-0.14-0.1-0.39-0.12-0.49
			l-0.25-0.99c0.03-0.11,0.03-0.42,0.06-0.51c0.02-0.07,0.03-0.51,0.06-0.52c0.03,0,0.09,0.46,0.12,0.49
			c0.03,0.03,0.09,0.5,0.12,0.49c0.03,0,0.04-0.45,0.06-0.51c-0.01,0.04-0.11-0.49-0.12-0.49c0-0.17,0.07-0.35,0.06-0.52
			c-0.01-0.17-0.11-0.33-0.12-0.49c-0.02-0.19-0.1-0.3-0.12-0.49c-0.01-0.13,0.07-0.37,0.06-0.52c-0.01-0.17-0.11-0.32-0.12-0.49
			c-0.01-0.14,0.07-0.37,0.06-0.52c-0.01-0.17-0.11-0.32-0.12-0.49c-0.01-0.17,0.07-0.34,0.06-0.51c0-0.07-0.11-0.43-0.12-0.49
			c-0.03-0.14-0.09-0.41-0.12-0.49c-0.01-0.01-0.05,0.48-0.06,0.51C37.25,94.56,37.22,95,37.2,95c-0.03,0-0.09-0.46-0.12-0.49
			L37.13,94l0.06-0.51c0.02-0.17,0.04-0.34,0.06-0.51c0.01-0.08,0.06-0.42,0.06-0.52c-0.01-0.17-0.11-0.32-0.12-0.49
			c0,0.03-0.06,0.52-0.06,0.52c-0.01,0-0.11-0.43-0.12-0.49c-0.01-0.04,0.06-0.45,0.06-0.52c0-0.07-0.11-0.43-0.12-0.49
			c-0.03-0.1-0.11-0.35-0.12-0.49c-0.01-0.11,0.07-0.39,0.06-0.51c-0.01-0.17-0.11-0.33-0.12-0.49c-0.02-0.17-0.11-0.33-0.12-0.49
			c-0.01-0.09,0.07-0.45,0.06-0.51c-0.03-0.17-0.09-0.36-0.12-0.49l-0.1-0.42c0.04-0.22-0.04-0.46-0.15-0.6
			c-0.04-0.14-0.08-0.29-0.12-0.46c0-0.01,0-0.05,0.01-0.11c0.04-0.03,0.07-0.06,0.1-0.08l-0.08-0.09c0.01-0.1,0.03-0.2,0.03-0.23
			c0-0.02-0.01-0.05-0.02-0.07l0.11-0.36c-0.05-0.06-0.13-0.06-0.22-0.04c0-0.01-0.01-0.02-0.01-0.02c-0.02-0.14-0.07-0.29-0.1-0.41
			c0.04-0.02,0.07-0.05,0.11-0.05l0-0.43c-0.09-0.14-0.21-0.23-0.32-0.35c-0.02-0.08-0.04-0.17-0.06-0.24
			c0-0.01-0.01,0.06-0.02,0.14c-0.02-0.02-0.03-0.04-0.05-0.06l-0.02-0.28l0.23-0.01c0.27-0.3,0.17-0.55,0.07-0.78
			c0-0.02,0-0.05,0-0.07c0-0.02,0.01-0.05,0.01-0.09c0.07-0.03,0.13-0.06,0.18-0.07c0.17-0.05,0.72-0.15,0.87-0.19
			c0.06-0.01,0.28-0.06,0.46-0.13c0.19-0.07,0.38-0.12,0.38-0.12c0.02,0.03-0.69,0.4-0.75,0.43c-0.04,0.05-0.81,0.34-0.79,0.37
			c0,0,0.82-0.18,0.88-0.19c0.15-0.03,0.66-0.38,0.76-0.44c0.23-0.14,0.47-0.29,0.73-0.46c0.2-0.12,0.48-0.34,0.72-0.47
			c0.2-0.11,0.61-0.2,0.82-0.31c0.2-0.09,0.52-0.41,0.66-0.52c-0.25,0.13-0.49,0.26-0.77,0.36c-0.01-0.01,0.16-0.1,0.31-0.23
			c0.15-0.12,0.31-0.25,0.35-0.29c0.05-0.03,0.66-0.34,0.75-0.39c0.19-0.12,0.43-0.42,0.62-0.55c0.12-0.09,0.63-0.34,0.74-0.4
			c-0.02,0.02-0.6,0.54-0.61,0.55c0,0.02,0.66-0.36,0.75-0.41c0.11-0.05,0.61-0.34,0.71-0.44c0.11-0.1,0.46-0.52,0.54-0.61
			l0.53-0.61c0.15-0.17,0.32-0.4,0.52-0.61c0.05-0.06,0.58-0.39,0.64-0.49c0.08-0.08,0.39-0.57,0.44-0.64l0.43-0.64l1.14-1.07
			l-0.42,0.65c-0.1,0.16-0.28,0.46-0.43,0.65c-0.08,0.11-0.47,0.41-0.58,0.53c-0.17,0.2-0.27,0.45-0.44,0.65l1.17-1.07l0.43-0.65
			l0.42-0.65c0.13-0.19,0.23-0.44,0.37-0.67c0.04-0.07-0.65-0.89-0.05-0.83c1.01,0.1,0.8-0.27,0.88-0.41
			c0.13-0.23,0.53-0.58,0.33-0.67c-0.57-0.26,0.7-0.42,0.78-0.53c0.06-0.11-0.09-0.65-0.03-0.73c0.03-0.04,0.4-0.58,0.42-0.6
			c0.1-0.23,0.18-0.48,0.25-0.68c0.08-0.21,0.2-0.51,0.25-0.68c0.04-0.13,0.25-0.62,0.24-0.67c0-0.04-0.38,0.61-0.41,0.6
			c-0.03-0.01,0.25-0.62,0.24-0.67c0.08-0.1,0.28-0.53,0.35-0.61c0.07-0.07,0.29-0.58,0.35-0.62c0.04-0.03-0.2,0.67-0.18,0.68
			c0.02,0.01,0.29-0.54,0.35-0.62c0.09-0.14,0.24-0.43,0.34-0.62l0.68-1.25c0.05-0.23,0.08-0.46,0.12-0.68
			c0.02-0.09,0.08-0.57,0.12-0.68c0.03-0.12,1.19-1.01,1.09-0.99c-0.42,0.08-0.56-0.25-0.54-0.28c0.05-0.22,0.08-0.5,0.11-0.68
			c0.04-0.18,0.1-0.56,0.09-0.68c0.01-0.04-0.22,0.63-0.25,0.64c-0.01,0,0.02-0.14,0.04-0.3c0.03-0.16,0.04-0.33,0.05-0.37
			l-0.58-0.76c0.07-0.21,0.96,0.1,0.86-0.55c-0.01-0.09,0.2-0.64,0.21-0.64c0,0.01-0.05,0.64-0.06,0.67
			c0.04-0.1,0.18-0.49,0.21-0.64c0.04-0.17-0.13-0.65,0.05-0.67c0.96-0.1,0.2-0.55,0.21-0.64c0.04-0.22,0.01-0.49,0.02-0.67
			c0-0.16,0.02-0.58,0.01-0.67c-0.01-0.05-0.14,0.65-0.16,0.64c-0.03,0,0.03-0.62,0.01-0.66c0.05-0.22,0.1-0.42,0.16-0.64
			c0.05-0.22,0.11-0.43,0.16-0.64l0.16-0.64c0.05-0.2,0.11-0.5,0.15-0.65c0.05-0.12,0.09-0.61,0.12-0.65
			c0.02-0.03,0.03,0.66,0.03,0.66c0.03,0,0.1-0.56,0.11-0.65c-0.01,0.03-0.03-0.64-0.04-0.66c-0.02-0.05-0.02-0.65-0.04-0.65
			c-0.02,0-0.08,0.66-0.1,0.65c-0.03-0.02-0.02-0.6-0.04-0.65c-0.02-0.04-0.08,0.64-0.1,0.64c-0.02,0-0.02-0.61-0.04-0.65l0.2-1.29
			L55.7,49.75z M15.26,3.52l-0.05,0.03l0.13-0.09C15.32,3.48,15.29,3.5,15.26,3.52z M18.03,1.83c-0.11,0.05-0.16,0.08-0.31,0.15
			c-0.29,0.14-0.4,0.19-0.69,0.33c-0.58,0.27,0.06-0.03-0.25,0.11l0.25-0.12c1.57-0.73,0.49-0.24,0.29-0.14l0.04-0.02
			c0.13-0.06,0.27-0.13,0.4-0.19l-0.38,0.17c-0.14,0.07-0.36,0.17-0.51,0.24c-0.26,0.1-0.57,0.33-0.86,0.5L15.96,2.9l-0.29,0.18
			c0.2-0.13,0.29-0.19,0.34-0.22c0.26-0.16,0.34-0.21,0.6-0.36c0.07-0.04,0.14-0.08,0.21-0.11l0.22-0.1
			c0.4-0.19,0.51-0.24,0.74-0.34l0.05-0.02L18,1.84c-0.07,0.03-0.13,0.06-0.21,0.1l-0.07,0.04l0.36-0.17l0,0l0.25-0.12L18.03,1.83z
			 M19.97,1.1c-0.07,0.02-0.14,0.05-0.22,0.07l-0.38,0.13c0.05-0.02,0.32-0.11,0.97-0.33L19.97,1.1z M21.43,0.67L21.31,0.7
			l0.16-0.03C21.46,0.67,21.44,0.67,21.43,0.67z M27.25,144.79c-0.18-0.11-0.01-0.36,0.04-0.42l0.18,0.11L27.25,144.79z
			 M28.38,155.81l-0.13,0.02c-0.17-0.33-0.26-1.13,0.21-1.11C28.77,155.03,28,155.42,28.38,155.81z M29.04,145.52l0.25,0.15
			l-0.3,0.42C28.74,145.95,28.98,145.61,29.04,145.52z M28.72,148.34c0.1-0.31,0.03-0.53,0.53-0.78l0.14,0.45L28.72,148.34z
			 M32.12,0.68c-0.02-0.01-0.05-0.01-0.07-0.02c0.06,0.01,0.12,0.03,0.18,0.04L32.12,0.68z M32.91,0.92l-0.28-0.1
			c0.01,0,0.01,0,0.02,0c0.17,0.06,0.07,0.01-0.09-0.04c0.11,0.04,0.22,0.08,0.33,0.11c-0.01,0,0.14,0.06,0.25,0.1
			C33.06,0.97,32.99,0.94,32.91,0.92z M42.8,229.76L42.77,230c-0.32,1.5,0.48,0.45,0.3,0.26l0.14,0.03
			c-0.07,0.14,0.02,0.43,0.15,0.37l0.14-0.36c-0.14-0.03-0.17-0.32-0.2-0.47c0.16-0.24-0.01-0.56,0.1-0.86l-0.05-0.05l0.1-0.29
			c-0.04,0.21,0.15,0.29,0.33,0.33c-0.03,0.33-0.36,0.3-0.31,0.66c0.3,0.09,0.33,0.02,0.48-0.25l0,0.39l-0.24,0.21
			c0.34,0.28-0.03,0.46-0.13,0.71l-0.2,0.06l-0.05,0.25c-0.07-0.08-0.12-0.17-0.09-0.28l-0.16-0.06l-0.05,0.34l0.13,0l-0.16,0.24
			L43,230.94c-0.17-0.1-0.36-0.01-0.47-0.28c0.04-0.29-0.3-0.4-0.14-0.65C42.29,229.47,42.7,230.06,42.8,229.76z M41.26,233.56
			c0.02-0.03,0.03-0.06,0.05-0.09c0,0,0.01-0.01,0.01,0C41.32,233.49,41.29,233.53,41.26,233.56z M41.42,233.13l-0.29-0.86
			C41.72,232.28,41.89,232.52,41.42,233.13z M39.69,235.36l0.06,0.14c-0.2,0.15-0.36,0.26-0.5,0.09
			C39.38,235.41,39.51,235.4,39.69,235.36z M38.49,232.6c0.18,0.17,0.28,0.54,0.33,0.79l-0.39-0.02
			C38.61,233.17,38.19,232.81,38.49,232.6z M37.94,228.33l0,0.36c-0.1-0.04-0.13-0.07-0.19-0.28L37.94,228.33z M37.34,229.07
			l0.03,0.35c-0.15,0.06-0.37,0-0.32-0.23L37.34,229.07z M34.35,228.81c0.05-0.03,0.13-0.07,0.13,0.01
			C34.46,228.9,34.39,228.85,34.35,228.81z M34.41,228.51l0.05,0.04c0.05,0.11-0.1,0.14-0.11,0.26c-0.01-0.01-0.02-0.01-0.02-0.02
			c-0.02-0.08,0.03-0.14,0.06-0.19l-0.04-0.19c0.05,0.09,0.1-0.15,0.14,0L34.41,228.51z M34.19,1.84c-0.39-0.2,0.43-0.26,0.7-0.19
			C34.96,1.75,34.53,2.01,34.19,1.84z M35.56,232.44l-0.05-0.39c-0.11-0.1-0.22,0.01-0.3,0.09l-0.09-0.21
			c0.19,0.02,0.31-0.22,0.49-0.07l-0.07,0.26l0.13,0.3L35.56,232.44z M35.21,2.32c-0.03-0.01-0.87-0.19-0.17-0.34
			c-0.22-0.11,0.1-0.18-0.13-0.33c0.01,0,0.03,0,0.03,0.01c0.34,0.17,0.58,0.3,0.82,0.42L35.21,2.32z M36.02,2.2
			C36.02,2.2,36.02,2.2,36.02,2.2l0.04,0.02C36.05,2.21,36.03,2.21,36.02,2.2z M36.69,2.55c-0.03-0.02-0.06-0.03-0.12-0.06
			l-0.2-0.11c0.05,0.02,0.1,0.05,0.12,0.06l0.02,0.01c0.07,0.03,0.15,0.08,0.21,0.11C36.72,2.56,36.71,2.56,36.69,2.55z"/>
		<path class="st0" d="M30.24,0.27c-0.02,0-0.05-0.01-0.07-0.01c0.04,0.01,0.08,0.01,0.12,0.02C30.23,0.26,30.24,0.27,30.24,0.27z"
			/>
		<path class="st0" d="M0.29,52.49L0,52.52c0.03,0.07,0.08,0.14,0.12,0.22c0.06,0.04,0.12,0.07,0.18,0.1
			C0.23,52.73,0.21,52.61,0.29,52.49z"/>
		<path class="st0" d="M0.74,56.41c-0.02,0.02-0.06,0.02-0.1-0.02c-0.05,0.24-0.07,0.53-0.06,0.83l0.22-0.37l-0.01-0.1
			C0.76,56.63,0.74,56.51,0.74,56.41z"/>
		<path class="st0" d="M0.58,54.07l-0.23,0.07c0.08,0.66,0.19,0.63,0.33,0.82L0.58,54.07z"/>
		<path class="st0" d="M2.19,60.71c0.04,0.11,0.22,0.55,0.33,0.23l-0.22-0.55L2.19,60.71z"/>
		<path class="st0" d="M48.81,73.65l0.38,0c0.1-0.08,0.49-0.42,0.12-0.42L48.81,73.65z"/>
		<path class="st0" d="M54.88,59.84c-0.28,0-0.17,0.77-0.18,1.22l0.2-1.02c0.16-0.19,0.31-0.38,0.14-0.39L54.88,59.84z"/>
		<path class="st0" d="M6.82,12.57l-0.16-0.23c-0.05,0.06-0.08,0.14-0.12,0.21c0,0.07,0,0.14,0,0.2
			C6.59,12.64,6.68,12.56,6.82,12.57z"/>
		<path class="st0" d="M5.33,14.18L5.88,14l-0.32-0.13C5.46,13.91,5.01,14.05,5.33,14.18z"/>
		<path class="st0" d="M55.55,55.27c-0.02,0.02-0.06,0.02-0.1-0.02c-0.05,0.24-0.07,0.52-0.06,0.82l0.21-0.37l-0.01-0.1
			C55.57,55.48,55.56,55.37,55.55,55.27z"/>
		<path class="st0" d="M55.94,50.34l-0.17,0.8l0.21,0C56.11,50.54,56,50.54,55.94,50.34z"/>
		<path class="st0" d="M55,58.6c0.03,0.07,0.14,0.37,0.21,0.15l-0.14-0.38L55,58.6z"/>
	</g>
</g>
</svg>
